<?xml version="1.0" encoding="utf-8"?>
<!-- Generator: Adobe Illustrator 24.1.0, SVG Export Plug-In . SVG Version: 6.00 Build 0)  -->
<svg version="1.1" xmlns="http://www.w3.org/2000/svg" xmlns:xlink="http://www.w3.org/1999/xlink" x="0px" y="0px"
	 viewBox="0 0 1920 300" style="enable-background:new 0 0 1920 300;" xml:space="preserve">
<style type="text/css">
	.st0{clip-path:url(#SVGID_2_);fill:#101219;}
	.st1{clip-path:url(#SVGID_2_);}
	.st2{fill:#090A11;}
	.st3{clip-path:url(#SVGID_4_);fill:#12181E;}
	.st4{clip-path:url(#SVGID_4_);}
	.st5{fill:#0D1119;}
	.st6{clip-path:url(#SVGID_6_);fill:#101219;}
	.st7{clip-path:url(#SVGID_6_);}
	.st8{fill:#0C0F16;}
	.st9{clip-path:url(#SVGID_6_);fill:none;}
</style>
<g id="Layer_1">
	<g>
		<defs>
			<rect id="SVGID_3_" y="0.5" width="1920" height="299.5"/>
		</defs>
		<clipPath id="SVGID_2_">
			<use xlink:href="#SVGID_3_"  style="overflow:visible;"/>
		</clipPath>
		<polygon style="clip-path:url(#SVGID_2_);fill:#12181E;" points="2306.7,288.5 2306.7,258.1 2280.7,258.1 2280.7,280 2275.5,280 
			2275.5,189 2266.2,184.9 2244.7,184.9 2235.8,189 2235.8,244.4 2225.7,244.4 2225.7,258 2224.6,258 2224.6,234 2222,234 
			2222,231.7 2207.1,231.7 2207.1,234 2205.3,234 2205.3,264 2204.5,264 2204.5,214.3 2203.4,214.3 2203.4,212.4 2196,212.4 
			2196,209.8 2185.3,209.8 2185.3,198.8 2184.2,198.8 2184.2,209.8 2180.4,209.8 2180.4,212.4 2175.2,212.4 2175.2,214.6 
			2171.8,214.6 2171.8,225.4 2163.3,225.4 2163.3,171.9 2158.4,171.9 2158.4,171.1 2138.9,171.1 2138.9,171.9 2136.5,171.9 
			2136.5,230.8 2132.8,230.8 2132.8,164.8 2131.3,164.8 2131.3,146.6 2129.1,146.6 2129.1,140.3 2113.1,140.3 2113.1,139.4 
			2111.2,139.4 2111.2,140.3 2105.3,140.3 2105.3,137.9 2103.5,137.9 2103.5,140.3 2097.2,140.3 2097.2,146.6 2095.3,146.6 
			2095.3,164.8 2093.8,164.8 2093.8,193.8 2093.1,193.8 2093.1,238.8 2084.5,238.8 2084.5,232.8 2074.5,232.8 2074.5,238.8 
			2073,238.8 2073,252.1 2071.9,252.1 2071.9,174.5 2065.6,174.5 2065.6,169.7 2055.9,169.7 2055.9,171.5 2042.5,171.5 
			2042.5,168.9 2032.1,168.9 2032.1,174.5 2026.6,174.5 2026.6,222.1 2019.9,222.1 2019.9,224.9 1998.8,224.9 1998.8,246.7 
			1994,246.7 1994,249.9 1989.8,249.9 1989.8,267.4 1988.3,267.4 1988.3,199.8 1978.5,199.8 1978.5,194 1968.2,194 1968.2,196.4 
			1956.7,196.4 1956.7,199.8 1940.4,199.8 1940.4,219.8 1935.4,219.8 1935.4,222.7 1936.6,222.7 1936.6,226.5 1930.2,226.5 
			1930.2,213.1 1929.1,213.1 1929.1,180.7 1926.9,180.7 1926.9,157.1 1926.6,157.1 1926.6,144.8 1923.6,144.8 1923.6,138.5 
			1921.4,138.5 1921.4,135.5 1918.1,135.5 1918.1,131.8 1896.2,131.8 1896.2,135.5 1895,135.5 1895,138.5 1892.8,138.5 
			1892.8,144.8 1889.1,144.8 1889.1,157.1 1888.5,157.1 1888.5,180.7 1886.3,180.7 1886.3,213.1 1884.5,213.1 1884.5,232.5 
			1867.9,232.5 1867.9,236.2 1865.7,236.2 1865.7,226.9 1860.5,226.9 1860.5,236.2 1858.6,236.2 1858.6,226.5 1852.7,226.5 
			1852.7,239.5 1847.5,239.5 1847.5,226.9 1843,226.9 1843,93.8 1840.8,93.8 1840.8,87.5 1833.6,87.5 1833.6,82.6 1830.6,82.6 
			1830.6,87.5 1830,87.5 1830,83.8 1828.4,83.8 1828.4,82.6 1825.5,82.6 1825.5,83.8 1823.3,83.8 1823.3,82.6 1820.3,82.6 
			1820.3,83.8 1818.1,83.8 1818.1,82.6 1815.2,82.6 1815.2,83.8 1811.4,83.8 1811.4,87.5 1803.3,87.5 1803.3,93.8 1801.8,93.8 
			1801.8,125.5 1782.3,125.5 1782.3,138.4 1783.4,138.4 1783.4,197.2 1781.7,197.2 1781.7,205.3 1780.6,205.3 1780.6,202 
			1769.1,202 1769.1,205.3 1765.4,205.3 1765.4,254.7 1762.8,254.7 1762.8,140 1763.3,140 1763.3,136.4 1762.8,136.4 1762.8,136.2 
			1759.2,136.2 1759.2,135.1 1754.2,135.1 1754.2,136.2 1718.5,136.2 1718.5,136.4 1717.9,136.4 1717.9,140 1718.5,140 1718.5,160 
			1705.2,160 1705.2,171.2 1700.1,171.2 1700.1,170.4 1693.2,170.4 1693.2,171.9 1684.4,171.9 1684.4,246.6 1682.8,246.6 
			1682.8,219.7 1681.3,219.7 1681.3,219.2 1682.1,219.2 1682.1,218.1 1680.8,218.1 1680.8,216.4 1674.7,216.4 1674.7,212.3 
			1675.5,212.3 1675.5,209.8 1674.7,209.8 1674.7,204.7 1671.9,204.7 1671.9,183.4 1670.3,183.4 1670.3,150.3 1641.2,150.3 
			1631,153.2 1631,223.5 1629.1,223.5 1629.1,164 1626.8,164 1626.8,110.6 1623.8,110.6 1623.8,87 1621.6,87 1621.6,53.5 
			1619.7,53.5 1619.7,39.9 1618.2,39.9 1618.2,35.4 1619,35.4 1619,25.9 1617.9,25.9 1617.9,22.9 1601.9,22.9 1601.9,25.9 
			1595.9,25.9 1595.9,35.4 1596.7,35.4 1596.7,39.9 1594.8,39.9 1594.8,53.5 1593.3,53.5 1593.3,87 1590.7,87 1590.7,110.6 
			1587.8,110.6 1587.8,134.8 1584.1,134.8 1584.1,124.5 1583.3,124.5 1583.3,114.8 1582.5,114.8 1582.5,124.5 1581.3,124.5 
			1581.3,125.8 1562.1,125.8 1562.1,134.8 1555.8,134.8 1555.8,136.9 1548.5,136.9 1548.5,185.6 1526.7,185.6 1526.7,173 
			1527.2,173 1527.2,168.9 1524.3,168.9 1524.3,168.5 1521.9,168.5 1521.9,165.6 1520.3,165.6 1520.3,168.9 1518,168.9 1518,173 
			1518.7,173 1518.7,180.8 1515.8,180.8 1515.8,181.6 1516.5,181.6 1516.5,185.6 1511.7,185.6 1511.7,187.2 1512.3,187.2 
			1512.3,212 1506.9,212 1506.9,213.6 1507.9,213.6 1507.9,221.2 1506.1,221.2 1506.1,222.5 1504.9,222.5 1504.9,223.2 1503,223.2 
			1503,268.7 1500.8,268.7 1500.8,135.1 1483.7,135.1 1483.7,132.1 1474.1,132.1 1474.1,135.1 1472.8,135.1 1470.7,140.3 
			1470.7,241.4 1469.2,241.4 1469.2,96.3 1449.5,84.3 1432.6,84.3 1432.6,83.3 1427.8,83.3 1427.8,82.7 1418.6,82.7 1418.6,83.3 
			1412.1,83.3 1412.1,84.3 1402,84.3 1402,204.8 1398.6,204.8 1398.6,71.7 1389.3,71.7 1389.3,68.8 1381.4,68.8 1381.4,67.8 
			1380,67.8 1380,68.8 1376.4,68.8 1376.4,70.2 1364.6,70.2 1364.6,71.7 1360,71.7 1360,215.4 1352.9,215.4 1352.9,210.6 
			1352.8,210.6 1352.8,209 1352.4,209 1352.4,203 1351.9,203 1351.9,209 1351.1,209 1351.1,210.6 1349.8,210.6 1349.8,209.6 
			1344.3,209.6 1344.3,210.6 1342.2,210.6 1342.2,208.7 1336.6,208.7 1336.6,205.8 1331.8,205.8 1331.8,204.6 1329.6,204.6 
			1329.6,200.7 1329,200.7 1329,204.6 1327.7,204.6 1327.7,205.8 1324.7,205.8 1324.7,206.9 1322.5,206.9 1322.5,209.4 
			1322.3,209.4 1322.3,202.2 1314.5,202.2 1314.5,195.4 1310,195.4 1310,179.2 1308.1,179.2 1308.1,195.4 1303.5,195.4 
			1303.5,206.4 1298.3,206.4 1298.3,221.2 1287.7,221.2 1287.7,131.9 1278.7,131.9 1276,137.6 1276,141.3 1236.6,141.3 
			1236.6,131.9 1227.6,131.9 1224.9,137.6 1224.9,194.7 1203.9,194.7 1203.9,203.9 1199.3,203.9 1199.3,173.4 1178.6,165.6 
			1169.6,173.4 1169.6,253.6 1164.1,253.6 1164.1,220.4 1143.1,220.4 1143.1,214.8 1138.5,214.8 1138.5,209.6 1134.6,209.6 
			1134.6,191.5 1134,191.5 1134,209.6 1132,209.6 1132,214.8 1127.9,214.8 1127.9,180 1112.2,180 1112.2,91 1100.7,91 1100.7,76.2 
			1069.9,76.2 1063.6,80.2 1063.6,91 1036.9,91 1025.7,97 1025.7,184.9 1004.2,184.9 1004.2,160.2 1000.3,160.2 1000.3,144.6 
			993.8,144.6 993.8,139.9 994.7,139.9 994.7,130.7 991.7,130.7 991.7,126 989,126 989,94.1 985.7,94.1 985.7,126 982.7,126 
			982.7,130.7 979.9,130.7 979.9,139.9 980.8,139.9 980.8,144.6 975.8,144.6 975.8,160.2 972.1,160.2 972.1,170.1 968,170.1 
			968,184.9 930.8,184.9 921.8,190.9 921.8,212.2 913.2,212.2 913.2,216.1 905.6,216.1 905.6,252.3 903,252.3 903,263.2 901,263.2 
			901,236.1 886.8,236.1 886.8,203.1 862.2,203.1 862.2,194.7 832.4,194.7 832.4,203.1 821.5,203.1 813.7,210.3 813.7,246.5 
			813,246.5 813,221.9 786.5,221.9 786.5,246.5 783.5,246.5 783.5,209.4 771,209.4 771,203.8 765.7,203.8 765.7,175.6 760,175.6 
			760,132.9 754.8,132.9 754.8,62.1 717.9,62.1 717.9,132.9 714.1,132.9 714.1,141.7 712.3,141.7 709.8,125.5 703,125.5 
			699.7,141.7 696.9,141.7 696.9,168.8 692,168.8 692,202.5 686.8,202.5 686.8,255.5 679.7,255.5 679.7,180.5 666.8,180.5 
			666.8,151.4 639,151.4 639,199.9 634.4,199.9 634.4,165.6 608.8,165.6 598.2,176 598.2,199.9 594.3,199.9 594.3,225.8 
			585.9,225.8 585.9,109.9 575.8,109.9 575.8,97.7 553.3,97.7 553.3,109.9 543.8,109.9 543.8,165 532.8,165 532.8,155.2 518,155.2 
			518,141 510.2,141 510.2,155.2 503.7,155.2 503.7,145.5 496,145.5 496,155.2 493.4,155.2 493.4,143 484.3,127.4 468.1,127.4 
			468.1,124.2 426.1,124.2 426.1,127.4 418.3,127.4 418.3,132.6 399.5,132.6 399.5,146.8 394.4,146.8 394.4,136.5 386.6,136.5 
			386.6,89.9 369.8,74.4 337.4,74.4 337.4,146.8 322.5,146.8 322.5,159.1 307.7,159.1 307.7,203.1 303.1,203.1 303.1,198 297.3,198 
			297.3,203.1 296,203.1 296,210.9 294.7,210.9 294.7,141 287.6,130 283.7,130 283.7,66.6 279.8,66.6 279.8,51.1 275.1,51.1 
			275.1,42.7 273.3,42.7 273.3,37.2 271.4,37.2 271.4,9 269.5,9 269.5,37.2 267.6,37.2 267.6,42.7 264.5,42.7 264.5,51.1 
			260.4,51.1 260.4,66.6 257.2,66.6 257.2,130 237.1,130 237.1,141 224.8,141 224.8,89.3 213.2,81.9 213.2,74.8 208,74.8 208,65.9 
			180.2,58.8 166.6,65.9 166.6,80.2 165.2,80.2 154.9,89.3 154.9,187 153.6,187 153.6,173.4 151.7,173.4 151.7,164.3 144.6,164.3 
			144.6,142.3 135.5,142.3 135.5,92.5 133.1,92.5 133.1,84.7 128.5,84.7 128.5,81.4 125.6,81.4 125.6,76.3 124,76.3 124,64 
			120.8,64 120.8,81.4 117.7,81.4 117.7,84.7 114.1,84.7 114.1,92.5 111.6,92.5 111.6,128.1 94.8,128.1 94.8,134.5 90.9,134.5 
			90.9,141 87,141 87,149.8 81.8,149.8 81.8,164.3 77.3,164.3 77.3,173.4 71.5,173.4 71.5,187 67.6,187 67.6,196.7 64.3,196.7 
			64.3,220.5 62.6,220.5 62.6,210.8 61.1,210.8 61.1,171.9 35.5,163.7 -29.8,163.7 -29.8,141 -34.3,141 -34.3,121.3 -39.5,121.3 
			-39.5,99.3 -45,99.3 -45,86 -56.1,80.3 -80,80.3 -93.2,86 -93.2,99.3 -98.7,99.3 -98.7,121.3 -104.9,121.3 -104.9,141 -107.8,141 
			-107.8,69.8 -164.1,65.7 -164.1,57.2 -182.8,54.2 -182.8,48.8 -210.3,48.8 -210.3,54.6 -221,57.2 -221,64.3 -254,69.8 -254,113.9 
			-269.1,111.5 -269.1,102.9 -285.1,100.1 -291.8,102.9 -291.8,107.9 -299.7,106.6 -323,115 -323,205.7 -346.1,205.7 -346.1,211.1 
			-361.4,211.1 -361.4,229.3 -365.1,229.3 -365.1,252.4 -379,252.4 -379,286.5 -383.2,286.5 -383.2,279.2 -381,279.2 -381,271.6 
			-383.2,271.6 -383.2,270 -420.3,270 -420.3,271.6 -422.5,271.6 -422.5,276.4 -432.6,276.4 -432.6,277.8 -450.9,277.8 
			-450.9,263.7 -460.7,263.7 -460.7,280.1 -476.2,280.1 -476.2,270.9 -481.3,270.9 -481.3,254.7 -503.2,254.7 -503.2,267.3 
			-522,267.3 -522,270.9 -527.4,270.9 -527.4,280.1 -537.9,280.1 -537.9,300.2 1169.3,300.2 1169.3,300.5 2318.9,300.5 
			2318.9,288.5 		"/>
		<g class="st1">
			
				<image style="overflow:visible;opacity:0.7;" width="1958" height="212" xlink:href="483DFA3224179E71.png"  transform="matrix(1 0 0 1 -22 95)">
			</image>
			<g>
				<polygon class="st5" points="1918.7,292.3 1918.7,271.6 1901,271.6 1901,286.5 1897.5,286.5 1897.5,224.6 1891.2,221.8 
					1876.5,221.8 1870.4,224.6 1870.4,262.3 1863.6,262.3 1863.6,271.6 1862.8,271.6 1862.8,255.2 1861.1,255.2 1861.1,253.6 
					1850.9,253.6 1850.9,255.2 1849.7,255.2 1849.7,275.7 1849.2,275.7 1849.2,241.8 1848.4,241.8 1848.4,240.5 1843.3,240.5 
					1843.3,238.7 1836.1,238.7 1836.1,231.2 1835.3,231.2 1835.3,238.7 1832.7,238.7 1832.7,240.5 1829.2,240.5 1829.2,242 
					1826.9,242 1826.9,249.3 1821,249.3 1821,212.9 1817.7,212.9 1817.7,212.4 1804.4,212.4 1804.4,212.9 1802.8,212.9 1802.8,253 
					1800.3,253 1800.3,208.1 1799.3,208.1 1799.3,195.7 1797.8,195.7 1797.8,191.4 1786.9,191.4 1786.9,190.8 1785.6,190.8 
					1785.6,191.4 1781.6,191.4 1781.6,189.8 1780.3,189.8 1780.3,191.4 1776,191.4 1776,195.7 1774.8,195.7 1774.8,208.1 
					1773.8,208.1 1773.8,227.8 1773.2,227.8 1773.2,258.5 1767.4,258.5 1767.4,254.4 1760.6,254.4 1760.6,258.5 1759.6,258.5 
					1759.6,267.5 1758.8,267.5 1758.8,214.7 1754.5,214.7 1754.5,211.4 1747.9,211.4 1747.9,212.7 1738.8,212.7 1738.8,210.9 
					1731.8,210.9 1731.8,214.7 1728,214.7 1728,247.1 1723.4,247.1 1723.4,249 1709,249 1709,263.8 1705.8,263.8 1705.8,266 
					1702.9,266 1702.9,277.9 1701.9,277.9 1701.9,231.9 1695.2,231.9 1695.2,227.9 1688.2,227.9 1688.2,229.6 1680.4,229.6 
					1680.4,231.9 1669.3,231.9 1669.3,245.5 1665.9,245.5 1665.9,247.5 1666.7,247.5 1666.7,250.1 1662.3,250.1 1662.3,241 
					1661.6,241 1661.6,218.9 1660.1,218.9 1660.1,202.8 1659.9,202.8 1659.9,194.4 1657.9,194.4 1657.9,190.1 1656.4,190.1 
					1656.4,188.1 1654.1,188.1 1654.1,185.6 1639.1,185.6 1639.1,188.1 1638.4,188.1 1638.4,190.1 1636.9,190.1 1636.9,194.4 
					1634.3,194.4 1634.3,202.8 1634,202.8 1634,218.9 1632.5,218.9 1632.5,241 1631.2,241 1631.2,254.2 1619.9,254.2 1619.9,256.7 
					1618.4,256.7 1618.4,250.4 1614.9,250.4 1614.9,256.7 1613.6,256.7 1613.6,250.1 1609.5,250.1 1609.5,259 1606,259 1606,250.4 
					1603,250.4 1603,159.7 1601.4,159.7 1601.4,155.5 1596.5,155.5 1596.5,152.1 1594.5,152.1 1594.5,155.5 1594.1,155.5 
					1594.1,152.9 1593,152.9 1593,152.1 1591,152.1 1591,152.9 1589.5,152.9 1589.5,152.1 1587.5,152.1 1587.5,152.9 1586,152.9 
					1586,152.1 1584,152.1 1584,152.9 1581.5,152.9 1581.5,155.5 1575.9,155.5 1575.9,159.7 1574.9,159.7 1574.9,181.3 
					1561.6,181.3 1561.6,190.1 1562.4,190.1 1562.4,230.1 1561.2,230.1 1561.2,235.7 1560.5,235.7 1560.5,233.4 1552.6,233.4 
					1552.6,235.7 1550.1,235.7 1550.1,269.3 1548.3,269.3 1548.3,191.2 1548.7,191.2 1548.7,188.7 1548.3,188.7 1548.3,188.6 
					1545.9,188.6 1545.9,187.9 1542.4,187.9 1542.4,188.6 1518.2,188.6 1518.2,188.7 1517.7,188.7 1517.7,191.2 1518.2,191.2 
					1518.2,204.8 1509.1,204.8 1509.1,212.4 1505.6,212.4 1505.6,211.9 1501,211.9 1501,212.9 1494.9,212.9 1494.9,263.8 
					1493.9,263.8 1493.9,245.4 1492.8,245.4 1492.8,245.1 1493.3,245.1 1493.3,244.4 1492.5,244.4 1492.5,243.2 1488.3,243.2 
					1488.3,240.4 1488.9,240.4 1488.9,238.7 1488.3,238.7 1488.3,235.2 1486.4,235.2 1486.4,220.7 1485.3,220.7 1485.3,198.2 
					1465.5,198.2 1458.6,200.1 1458.6,248 1457.3,248 1457.3,207.6 1455.7,207.6 1455.7,171.1 1453.7,171.1 1453.7,155.1 
					1452.2,155.1 1452.2,132.3 1450.9,132.3 1450.9,123 1449.9,123 1449.9,120 1450.4,120 1450.4,113.5 1449.6,113.5 1449.6,111.4 
					1438.7,111.4 1438.7,113.5 1434.6,113.5 1434.6,120 1435.2,120 1435.2,123 1433.9,123 1433.9,132.3 1432.9,132.3 1432.9,155.1 
					1431.2,155.1 1431.2,171.1 1429.1,171.1 1429.1,187.6 1426.6,187.6 1426.6,180.6 1426.1,180.6 1426.1,174 1425.6,174 
					1425.6,180.6 1424.7,180.6 1424.7,181.5 1411.7,181.5 1411.7,187.6 1407.4,187.6 1407.4,189.1 1402.4,189.1 1402.4,222.3 
					1387.5,222.3 1387.5,213.7 1387.9,213.7 1387.9,210.9 1385.9,210.9 1385.9,210.6 1384.3,210.6 1384.3,208.6 1383.2,208.6 
					1383.2,210.9 1381.6,210.9 1381.6,213.7 1382.1,213.7 1382.1,219 1380.1,219 1380.1,219.5 1380.6,219.5 1380.6,222.3 
					1377.3,222.3 1377.3,223.3 1377.8,223.3 1377.8,240.2 1374.1,240.2 1374.1,241.3 1374.7,241.3 1374.7,246.5 1373.5,246.5 
					1373.5,247.3 1372.7,247.3 1372.7,247.8 1371.4,247.8 1371.4,278.8 1369.9,278.8 1369.9,187.9 1358.3,187.9 1358.3,185.8 
					1351.7,185.8 1351.7,187.9 1350.9,187.9 1349.4,191.4 1349.4,260.2 1348.4,260.2 1348.4,161.5 1335,153.3 1323.5,153.3 
					1323.5,152.6 1320.2,152.6 1320.2,152.2 1314,152.2 1314,152.6 1309.5,152.6 1309.5,153.3 1302.6,153.3 1302.6,235.3 
					1300.3,235.3 1300.3,144.7 1294,144.7 1294,142.7 1288.6,142.7 1288.6,142 1287.7,142 1287.7,142.7 1285.2,142.7 1285.2,143.7 
					1277.2,143.7 1277.2,144.7 1274,144.7 1274,242.6 1269.2,242.6 1269.2,239.2 1269.1,239.2 1269.1,238.2 1268.9,238.2 
					1268.9,234.1 1268.5,234.1 1268.5,238.2 1268,238.2 1268,239.2 1267.1,239.2 1267.1,238.6 1263.3,238.6 1263.3,239.2 
					1261.9,239.2 1261.9,238 1258.1,238 1258.1,236 1254.8,236 1254.8,235.2 1253.4,235.2 1253.4,232.5 1252.9,232.5 1252.9,235.2 
					1252,235.2 1252,236 1250,236 1250,236.7 1248.5,236.7 1248.5,238.4 1248.4,238.4 1248.4,233.6 1243.1,233.6 1243.1,228.9 
					1240,228.9 1240,217.9 1238.7,217.9 1238.7,228.9 1235.6,228.9 1235.6,236.4 1232,236.4 1232,246.5 1224.8,246.5 1224.8,185.7 
					1218.7,185.7 1216.8,189.5 1216.8,192 1190,192 1190,185.7 1183.9,185.7 1182,189.5 1182,228.4 1167.7,228.4 1167.7,234.7 
					1164.6,234.7 1164.6,213.9 1150.5,208.6 1144.4,213.9 1144.4,268.5 1140.6,268.5 1140.6,245.9 1126.3,245.9 1126.3,242.1 
					1123.2,242.1 1123.2,238.6 1120.6,238.6 1120.6,226.2 1120.1,226.2 1120.1,238.6 1118.8,238.6 1118.8,242.1 1115.9,242.1 
					1115.9,218.4 1105.3,218.4 1105.3,157.8 1097.4,157.8 1097.4,147.7 1076.5,147.7 1072.2,150.5 1072.2,157.8 1054,157.8 
					1046.4,161.9 1046.4,221.8 1031.8,221.8 1031.8,205 1029.1,205 1029.1,194.3 1024.7,194.3 1024.7,191.1 1025.3,191.1 
					1025.3,184.8 1023.2,184.8 1023.2,181.7 1021.4,181.7 1021.4,159.9 1019.1,159.9 1019.1,181.7 1017.1,181.7 1017.1,184.8 
					1015.2,184.8 1015.2,191.1 1015.8,191.1 1015.8,194.3 1012.4,194.3 1012.4,205 1009.9,205 1009.9,211.7 1007.1,211.7 
					1007.1,221.8 981.8,221.8 975.6,225.8 975.6,240.3 969.8,240.3 969.8,243 964.6,243 964.6,267.7 962.8,267.7 962.8,275.1 
					961.5,275.1 961.5,256.6 951.8,256.6 951.8,234.2 935.1,234.2 935.1,228.4 914.8,228.4 914.8,234.2 907.3,234.2 902,239.1 
					902,263.7 901.6,263.7 901.6,247 883.5,247 883.5,263.7 881.5,263.7 881.5,238.5 872.9,238.5 872.9,234.6 869.3,234.6 
					869.3,215.5 865.5,215.5 865.5,186.4 861.9,186.4 861.9,138.1 836.8,138.1 836.8,186.4 834.2,186.4 834.2,192.3 833,192.3 
					831.3,181.3 826.6,181.3 824.4,192.3 822.5,192.3 822.5,210.8 819.2,210.8 819.2,233.7 815.6,233.7 815.6,269.8 810.8,269.8 
					810.8,218.8 802,218.8 802,198.9 783,198.9 783,232 779.9,232 779.9,208.6 762.5,208.6 755.3,215.7 755.3,232 752.6,232 
					752.6,249.6 746.9,249.6 746.9,170.7 740,170.7 740,162.3 724.7,162.3 724.7,170.7 718.2,170.7 718.2,208.2 710.8,208.2 
					710.8,201.6 700.6,201.6 700.6,191.9 695.3,191.9 695.3,201.6 690.9,201.6 690.9,195 685.6,195 685.6,201.6 683.9,201.6 
					683.9,193.2 677.7,182.6 666.7,182.6 666.7,180.4 638,180.4 638,182.6 632.8,182.6 632.8,186.1 620,186.1 620,195.8 
					616.5,195.8 616.5,188.8 611.2,188.8 611.2,157.1 599.7,146.5 577.7,146.5 577.7,195.8 567.5,195.8 567.5,204.2 557.4,204.2 
					557.4,234.2 554.3,234.2 554.3,230.7 550.4,230.7 550.4,234.2 549.5,234.2 549.5,239.5 548.6,239.5 548.6,191.9 543.7,184.4 
					541.1,184.4 541.1,141.2 538.5,141.2 538.5,130.6 535.2,130.6 535.2,124.9 534,124.9 534,121.2 532.7,121.2 532.7,102 
					531.4,102 531.4,121.2 530.2,121.2 530.2,124.9 528,124.9 528,130.6 525.2,130.6 525.2,141.2 523,141.2 523,184.4 509.4,184.4 
					509.4,191.9 501,191.9 501,156.6 493.1,151.6 493.1,146.8 489.5,146.8 489.5,140.8 470.6,135.9 461.3,140.8 461.3,150.5 
					460.4,150.5 453.4,156.6 453.4,223.2 452.5,223.2 452.5,213.9 451.2,213.9 451.2,207.7 446.4,207.7 446.4,192.8 440.2,192.8 
					440.2,158.8 438.6,158.8 438.6,153.5 435.4,153.5 435.4,151.3 433.4,151.3 433.4,147.8 432.3,147.8 432.3,139.5 430.1,139.5 
					430.1,151.3 428.1,151.3 428.1,153.5 425.6,153.5 425.6,158.8 423.9,158.8 423.9,183.1 412.4,183.1 412.4,187.5 409.8,187.5 
					409.8,191.9 407.1,191.9 407.1,197.9 403.6,197.9 403.6,207.7 400.5,207.7 400.5,213.9 396.6,213.9 396.6,223.2 393.9,223.2 
					393.9,229.8 391.7,229.8 391.7,246 390.5,246 390.5,239.4 389.5,239.4 389.5,212.9 372.1,207.3 327.6,207.3 327.6,191.9 
					324.5,191.9 324.5,178.4 321,178.4 321,163.4 317.2,163.4 317.2,154.4 309.7,150.5 293.4,150.5 284.4,154.4 284.4,163.4 
					280.7,163.4 280.7,178.4 276.5,178.4 276.5,191.9 274.5,191.9 274.5,143.4 236.2,140.6 236.2,134.8 223.4,132.8 223.4,129.1 
					204.7,129.1 204.7,133 197.4,134.8 197.4,139.7 174.9,143.4 174.9,173.4 164.6,171.8 164.6,165.9 153.7,164 149.2,165.9 
					149.2,169.3 143.8,168.4 127.9,174.2 127.9,235.9 112.2,235.9 112.2,239.6 101.8,239.6 101.8,252 99.3,252 99.3,267.8 
					89.8,267.8 89.8,290.9 86.9,290.9 86.9,286 88.4,286 88.4,280.8 86.9,280.8 86.9,279.7 61.7,279.7 61.7,280.8 60.2,280.8 
					60.2,284.1 53.3,284.1 53.3,285 40.9,285 40.9,275.4 34.1,275.4 34.1,286.6 23.6,286.6 23.6,280.4 20.1,280.4 20.1,269.3 
					5.3,269.3 5.3,277.9 -7.5,277.9 -7.5,280.4 -11.3,280.4 -11.3,286.6 -18.4,286.6 -18.4,300.3 1144.2,300.3 1144.2,300.5 
					1927,300.5 1927,292.3 				"/>
			</g>
		</g>
	</g>
</g>
<g id="Layer_2">
</g>
<g id="Layer_3">
</g>
</svg>
