<svg id="Layer_1" data-name="Layer 1" xmlns="http://www.w3.org/2000/svg" xmlns:xlink="http://www.w3.org/1999/xlink" viewBox="0 0 1920 300"><defs><style>.cls-1{fill:none;}.cls-2{opacity:0.8;}.cls-3{clip-path:url(#clip-path);}.cls-4{fill:#51b7b7;}.cls-5{fill:#46a7af;}</style><clipPath id="clip-path"><rect class="cls-1" width="1920" height="300"/></clipPath></defs><g class="cls-2"><g class="cls-3"><polygon class="cls-4" points="2311.28 288 2311.28 257.6 2285.28 257.6 2285.28 279.5 2280.08 279.5 2280.08 188.5 2270.78 184.4 2249.28 184.4 2240.38 188.5 2240.38 243.9 2230.28 243.9 2230.28 257.5 2229.18 257.5 2229.18 233.5 2226.58 233.5 2226.58 231.2 2211.68 231.2 2211.68 233.5 2209.88 233.5 2209.88 263.5 2209.08 263.5 2209.08 213.8 2207.98 213.8 2207.98 211.9 2200.58 211.9 2200.58 209.3 2189.88 209.3 2189.88 198.3 2188.78 198.3 2188.78 209.3 2184.98 209.3 2184.98 211.9 2179.78 211.9 2179.78 214.1 2176.38 214.1 2176.38 224.9 2167.88 224.9 2167.88 171.4 2162.98 171.4 2162.98 170.6 2143.48 170.6 2143.48 171.4 2141.08 171.4 2141.08 230.3 2137.38 230.3 2137.38 164.3 2135.88 164.3 2135.88 146.1 2133.68 146.1 2133.68 139.8 2117.68 139.8 2117.68 138.9 2115.78 138.9 2115.78 139.8 2109.88 139.8 2109.88 137.4 2108.08 137.4 2108.08 139.8 2101.78 139.8 2101.78 146.1 2099.88 146.1 2099.88 164.3 2098.38 164.3 2098.38 193.3 2097.68 193.3 2097.68 238.3 2089.08 238.3 2089.08 232.3 2079.08 232.3 2079.08 238.3 2077.58 238.3 2077.58 251.6 2076.48 251.6 2076.48 174 2070.18 174 2070.18 169.2 2060.48 169.2 2060.48 171 2047.08 171 2047.08 168.4 2036.68 168.4 2036.68 174 2031.18 174 2031.18 221.6 2024.48 221.6 2024.48 224.4 2003.38 224.4 2003.38 246.2 1998.58 246.2 1998.58 249.4 1994.38 249.4 1994.38 266.9 1992.88 266.9 1992.88 199.3 1983.08 199.3 1983.08 193.5 1972.78 193.5 1972.78 195.9 1961.28 195.9 1961.28 199.3 1944.98 199.3 1944.98 219.3 1939.98 219.3 1939.98 222.2 1941.18 222.2 1941.18 226 1934.78 226 1934.78 212.6 1933.68 212.6 1933.68 180.2 1931.48 180.2 1931.48 156.6 1931.18 156.6 1931.18 144.3 1928.18 144.3 1928.18 138 1925.98 138 1925.98 135 1922.68 135 1922.68 131.3 1900.78 131.3 1900.78 135 1899.58 135 1899.58 138 1897.38 138 1897.38 144.3 1893.68 144.3 1893.68 156.6 1893.08 156.6 1893.08 180.2 1890.88 180.2 1890.88 212.6 1889.08 212.6 1889.08 232 1872.48 232 1872.48 235.7 1870.28 235.7 1870.28 226.4 1865.08 226.4 1865.08 235.7 1863.18 235.7 1863.18 226 1857.28 226 1857.28 239 1852.08 239 1852.08 226.4 1847.58 226.4 1847.58 93.3 1845.38 93.3 1845.38 87 1838.18 87 1838.18 82.1 1835.18 82.1 1835.18 87 1834.58 87 1834.58 83.3 1832.98 83.3 1832.98 82.1 1830.08 82.1 1830.08 83.3 1827.88 83.3 1827.88 82.1 1824.88 82.1 1824.88 83.3 1822.68 83.3 1822.68 82.1 1819.78 82.1 1819.78 83.3 1815.98 83.3 1815.98 87 1807.88 87 1807.88 93.3 1806.38 93.3 1806.38 125 1786.88 125 1786.88 137.9 1787.98 137.9 1787.98 196.7 1786.28 196.7 1786.28 204.8 1785.18 204.8 1785.18 201.5 1773.68 201.5 1773.68 204.8 1769.98 204.8 1769.98 254.2 1767.38 254.2 1767.38 139.5 1767.88 139.5 1767.88 135.9 1767.38 135.9 1767.38 135.7 1763.78 135.7 1763.78 134.6 1758.78 134.6 1758.78 135.7 1723.08 135.7 1723.08 135.9 1722.48 135.9 1722.48 139.5 1723.08 139.5 1723.08 159.5 1709.78 159.5 1709.78 170.7 1704.68 170.7 1704.68 169.9 1697.78 169.9 1697.78 171.4 1688.98 171.4 1688.98 246.1 1687.38 246.1 1687.38 219.2 1685.88 219.2 1685.88 218.7 1686.68 218.7 1686.68 217.6 1685.38 217.6 1685.38 215.9 1679.28 215.9 1679.28 211.8 1680.08 211.8 1680.08 209.3 1679.28 209.3 1679.28 204.2 1676.48 204.2 1676.48 182.9 1674.88 182.9 1674.88 149.8 1645.78 149.8 1635.58 152.7 1635.58 223 1633.68 223 1633.68 163.5 1631.38 163.5 1631.38 110.1 1628.38 110.1 1628.38 86.5 1626.18 86.5 1626.18 53 1624.28 53 1624.28 39.4 1622.78 39.4 1622.78 34.9 1623.58 34.9 1623.58 25.4 1622.48 25.4 1622.48 22.4 1606.48 22.4 1606.48 25.4 1600.48 25.4 1600.48 34.9 1601.28 34.9 1601.28 39.4 1599.38 39.4 1599.38 53 1597.88 53 1597.88 86.5 1595.28 86.5 1595.28 110.1 1592.38 110.1 1592.38 134.3 1588.68 134.3 1588.68 124 1587.88 124 1587.88 114.3 1587.08 114.3 1587.08 124 1585.88 124 1585.88 125.3 1566.68 125.3 1566.68 134.3 1560.38 134.3 1560.38 136.4 1553.08 136.4 1553.08 185.1 1531.28 185.1 1531.28 172.5 1531.78 172.5 1531.78 168.4 1528.88 168.4 1528.88 168 1526.48 168 1526.48 165.1 1524.88 165.1 1524.88 168.4 1522.58 168.4 1522.58 172.5 1523.28 172.5 1523.28 180.3 1520.38 180.3 1520.38 181.1 1521.08 181.1 1521.08 185.1 1516.28 185.1 1516.28 186.7 1516.88 186.7 1516.88 211.5 1511.48 211.5 1511.48 213.1 1512.48 213.1 1512.48 220.7 1510.68 220.7 1510.68 222 1509.48 222 1509.48 222.7 1507.58 222.7 1507.58 268.2 1505.38 268.2 1505.38 134.6 1488.28 134.6 1488.28 131.6 1478.68 131.6 1478.68 134.6 1477.38 134.6 1475.28 139.8 1475.28 240.9 1473.78 240.9 1473.78 95.8 1454.08 83.8 1437.18 83.8 1437.18 82.8 1432.38 82.8 1432.38 82.2 1423.18 82.2 1423.18 82.8 1416.68 82.8 1416.68 83.8 1406.58 83.8 1406.58 204.3 1403.18 204.3 1403.18 71.2 1393.88 71.2 1393.88 68.3 1385.98 68.3 1385.98 67.3 1384.58 67.3 1384.58 68.3 1380.98 68.3 1380.98 69.7 1369.18 69.7 1369.18 71.2 1364.58 71.2 1364.58 214.9 1357.48 214.9 1357.48 210.1 1357.38 210.1 1357.38 208.5 1356.98 208.5 1356.98 202.5 1356.48 202.5 1356.48 208.5 1355.68 208.5 1355.68 210.1 1354.38 210.1 1354.38 209.1 1348.88 209.1 1348.88 210.1 1346.78 210.1 1346.78 208.2 1341.18 208.2 1341.18 205.3 1336.38 205.3 1336.38 204.1 1334.18 204.1 1334.18 200.2 1333.58 200.2 1333.58 204.1 1332.28 204.1 1332.28 205.3 1329.28 205.3 1329.28 206.4 1327.08 206.4 1327.08 208.9 1326.88 208.9 1326.88 201.7 1319.08 201.7 1319.08 194.9 1314.58 194.9 1314.58 178.7 1312.68 178.7 1312.68 194.9 1308.08 194.9 1308.08 205.9 1302.88 205.9 1302.88 220.7 1292.28 220.7 1292.28 131.4 1283.28 131.4 1280.58 137.1 1280.58 140.8 1241.18 140.8 1241.18 131.4 1232.18 131.4 1229.48 137.1 1229.48 194.2 1208.48 194.2 1208.48 203.4 1203.88 203.4 1203.88 172.9 1183.18 165.1 1174.18 172.9 1174.18 253.1 1168.68 253.1 1168.68 219.9 1147.68 219.9 1147.68 214.3 1143.08 214.3 1143.08 209.1 1139.18 209.1 1139.18 191 1138.58 191 1138.58 209.1 1136.58 209.1 1136.58 214.3 1132.48 214.3 1132.48 179.5 1116.78 179.5 1116.78 90.5 1105.28 90.5 1105.28 75.7 1074.48 75.7 1068.18 79.7 1068.18 90.5 1041.48 90.5 1030.28 96.5 1030.28 184.4 1008.78 184.4 1008.78 159.7 1004.88 159.7 1004.88 144.1 998.38 144.1 998.38 139.4 999.28 139.4 999.28 130.2 996.28 130.2 996.28 125.5 993.58 125.5 993.58 93.6 990.28 93.6 990.28 125.5 987.28 125.5 987.28 130.2 984.48 130.2 984.48 139.4 985.38 139.4 985.38 144.1 980.38 144.1 980.38 159.7 976.68 159.7 976.68 169.6 972.58 169.6 972.58 184.4 935.38 184.4 926.38 190.4 926.38 211.7 917.78 211.7 917.78 215.6 910.18 215.6 910.18 251.8 907.58 251.8 907.58 262.7 905.58 262.7 905.58 235.6 891.38 235.6 891.38 202.6 866.78 202.6 866.78 194.2 836.98 194.2 836.98 202.6 826.08 202.6 818.28 209.8 818.28 246 817.58 246 817.58 221.4 791.08 221.4 791.08 246 788.08 246 788.08 208.9 775.58 208.9 775.58 203.3 770.28 203.3 770.28 175.1 764.58 175.1 764.58 132.4 759.38 132.4 759.38 61.6 722.48 61.6 722.48 132.4 718.68 132.4 718.68 141.2 716.88 141.2 714.38 125 707.58 125 704.28 141.2 701.48 141.2 701.48 168.3 696.58 168.3 696.58 202 691.38 202 691.38 255 684.28 255 684.28 180 671.38 180 671.38 150.9 643.58 150.9 643.58 199.4 638.98 199.4 638.98 165.1 613.38 165.1 602.78 175.5 602.78 199.4 598.88 199.4 598.88 225.3 590.48 225.3 590.48 109.4 580.38 109.4 580.38 97.2 557.88 97.2 557.88 109.4 548.38 109.4 548.38 164.5 537.38 164.5 537.38 154.7 522.58 154.7 522.58 140.5 514.78 140.5 514.78 154.7 508.28 154.7 508.28 145 500.58 145 500.58 154.7 497.98 154.7 497.98 142.5 488.88 126.9 472.68 126.9 472.68 123.7 430.68 123.7 430.68 126.9 422.88 126.9 422.88 132.1 404.08 132.1 404.08 146.3 398.98 146.3 398.98 136 391.18 136 391.18 89.4 374.38 73.9 341.98 73.9 341.98 146.3 327.08 146.3 327.08 158.6 312.28 158.6 312.28 202.6 307.68 202.6 307.68 197.5 301.88 197.5 301.88 202.6 300.58 202.6 300.58 210.4 299.28 210.4 299.28 140.5 292.18 129.5 288.28 129.5 288.28 66.1 284.38 66.1 284.38 50.6 279.68 50.6 279.68 42.2 277.88 42.2 277.88 36.7 275.98 36.7 275.98 8.5 274.08 8.5 274.08 36.7 272.18 36.7 272.18 42.2 269.08 42.2 269.08 50.6 264.98 50.6 264.98 66.1 261.78 66.1 261.78 129.5 241.68 129.5 241.68 140.5 229.38 140.5 229.38 88.8 217.78 81.4 217.78 74.3 212.58 74.3 212.58 65.4 184.78 58.3 171.18 65.4 171.18 79.7 169.78 79.7 159.48 88.8 159.48 186.5 158.18 186.5 158.18 172.9 156.28 172.9 156.28 163.8 149.18 163.8 149.18 141.8 140.08 141.8 140.08 92 137.68 92 137.68 84.2 133.08 84.2 133.08 80.9 130.18 80.9 130.18 75.8 128.58 75.8 128.58 63.5 125.38 63.5 125.38 80.9 122.28 80.9 122.28 84.2 118.68 84.2 118.68 92 116.18 92 116.18 127.6 99.38 127.6 99.38 134 95.48 134 95.48 140.5 91.58 140.5 91.58 149.3 86.38 149.3 86.38 163.8 81.88 163.8 81.88 172.9 76.08 172.9 76.08 186.5 72.18 186.5 72.18 196.2 68.88 196.2 68.88 220 67.18 220 67.18 210.3 65.68 210.3 65.68 171.4 40.08 163.2 -25.22 163.2 -25.22 140.5 -29.72 140.5 -29.72 120.8 -34.92 120.8 -34.92 98.8 -40.42 98.8 -40.42 85.5 -51.52 79.8 -75.42 79.8 -88.62 85.5 -88.62 98.8 -94.12 98.8 -94.12 120.8 -100.32 120.8 -100.32 140.5 -103.22 140.5 -103.22 69.3 -159.52 65.2 -159.52 56.7 -178.22 53.7 -178.22 48.3 -205.72 48.3 -205.72 54.1 -216.42 56.7 -216.42 63.8 -249.42 69.3 -249.42 113.4 -264.52 111 -264.52 102.4 -280.52 99.6 -287.22 102.4 -287.22 107.4 -295.12 106.1 -318.42 114.5 -318.42 205.2 -341.52 205.2 -341.52 210.6 -356.82 210.6 -356.82 228.8 -360.52 228.8 -360.52 251.9 -374.42 251.9 -374.42 286 -378.62 286 -378.62 278.7 -376.42 278.7 -376.42 271.1 -378.62 271.1 -378.62 269.5 -415.72 269.5 -415.72 271.1 -417.92 271.1 -417.92 275.9 -428.02 275.9 -428.02 277.3 -446.32 277.3 -446.32 263.2 -456.12 263.2 -456.12 279.6 -471.62 279.6 -471.62 270.4 -476.72 270.4 -476.72 254.2 -498.62 254.2 -498.62 266.8 -517.42 266.8 -517.42 270.4 -522.82 270.4 -522.82 279.6 -533.32 279.6 -533.32 299.7 1173.88 299.7 1173.88 300 2323.48 300 2323.48 288 2311.28 288"/><polygon class="cls-5" points="1923.28 291.8 1923.28 271.1 1905.58 271.1 1905.58 286 1902.08 286 1902.08 224.1 1895.78 221.3 1881.08 221.3 1874.98 224.1 1874.98 261.8 1868.18 261.8 1868.18 271.1 1867.38 271.1 1867.38 254.7 1865.68 254.7 1865.68 253.1 1855.48 253.1 1855.48 254.7 1854.28 254.7 1854.28 275.2 1853.78 275.2 1853.78 241.3 1852.98 241.3 1852.98 240 1847.88 240 1847.88 238.2 1840.68 238.2 1840.68 230.7 1839.88 230.7 1839.88 238.2 1837.28 238.2 1837.28 240 1833.78 240 1833.78 241.5 1831.48 241.5 1831.48 248.8 1825.58 248.8 1825.58 212.4 1822.28 212.4 1822.28 211.9 1808.98 211.9 1808.98 212.4 1807.38 212.4 1807.38 252.5 1804.88 252.5 1804.88 207.6 1803.88 207.6 1803.88 195.2 1802.38 195.2 1802.38 190.9 1791.48 190.9 1791.48 190.3 1790.18 190.3 1790.18 190.9 1786.18 190.9 1786.18 189.3 1784.88 189.3 1784.88 190.9 1780.58 190.9 1780.58 195.2 1779.38 195.2 1779.38 207.6 1778.38 207.6 1778.38 227.3 1777.78 227.3 1777.78 258 1771.98 258 1771.98 253.9 1765.18 253.9 1765.18 258 1764.18 258 1764.18 267 1763.38 267 1763.38 214.2 1759.08 214.2 1759.08 210.9 1752.48 210.9 1752.48 212.2 1743.38 212.2 1743.38 210.4 1736.38 210.4 1736.38 214.2 1732.58 214.2 1732.58 246.6 1727.98 246.6 1727.98 248.5 1713.58 248.5 1713.58 263.3 1710.38 263.3 1710.38 265.5 1707.48 265.5 1707.48 277.4 1706.48 277.4 1706.48 231.4 1699.78 231.4 1699.78 227.4 1692.78 227.4 1692.78 229.1 1684.98 229.1 1684.98 231.4 1673.88 231.4 1673.88 245 1670.48 245 1670.48 247 1671.28 247 1671.28 249.6 1666.88 249.6 1666.88 240.5 1666.18 240.5 1666.18 218.4 1664.68 218.4 1664.68 202.3 1664.48 202.3 1664.48 193.9 1662.48 193.9 1662.48 189.6 1660.98 189.6 1660.98 187.6 1658.68 187.6 1658.68 185.1 1643.68 185.1 1643.68 187.6 1642.98 187.6 1642.98 189.6 1641.48 189.6 1641.48 193.9 1638.88 193.9 1638.88 202.3 1638.58 202.3 1638.58 218.4 1637.08 218.4 1637.08 240.5 1635.78 240.5 1635.78 253.7 1624.48 253.7 1624.48 256.2 1622.98 256.2 1622.98 249.9 1619.48 249.9 1619.48 256.2 1618.18 256.2 1618.18 249.6 1614.08 249.6 1614.08 258.5 1610.58 258.5 1610.58 249.9 1607.58 249.9 1607.58 159.2 1605.98 159.2 1605.98 155 1601.08 155 1601.08 151.6 1599.08 151.6 1599.08 155 1598.68 155 1598.68 152.4 1597.58 152.4 1597.58 151.6 1595.58 151.6 1595.58 152.4 1594.08 152.4 1594.08 151.6 1592.08 151.6 1592.08 152.4 1590.58 152.4 1590.58 151.6 1588.58 151.6 1588.58 152.4 1586.08 152.4 1586.08 155 1580.48 155 1580.48 159.2 1579.48 159.2 1579.48 180.8 1566.18 180.8 1566.18 189.6 1566.98 189.6 1566.98 229.6 1565.78 229.6 1565.78 235.2 1565.08 235.2 1565.08 232.9 1557.18 232.9 1557.18 235.2 1554.68 235.2 1554.68 268.8 1552.88 268.8 1552.88 190.7 1553.28 190.7 1553.28 188.2 1552.88 188.2 1552.88 188.1 1550.48 188.1 1550.48 187.4 1546.98 187.4 1546.98 188.1 1522.78 188.1 1522.78 188.2 1522.28 188.2 1522.28 190.7 1522.78 190.7 1522.78 204.3 1513.68 204.3 1513.68 211.9 1510.18 211.9 1510.18 211.4 1505.58 211.4 1505.58 212.4 1499.48 212.4 1499.48 263.3 1498.48 263.3 1498.48 244.9 1497.38 244.9 1497.38 244.6 1497.88 244.6 1497.88 243.9 1497.08 243.9 1497.08 242.7 1492.88 242.7 1492.88 239.9 1493.48 239.9 1493.48 238.2 1492.88 238.2 1492.88 234.7 1490.98 234.7 1490.98 220.2 1489.88 220.2 1489.88 197.7 1470.08 197.7 1463.18 199.6 1463.18 247.5 1461.88 247.5 1461.88 207.1 1460.28 207.1 1460.28 170.6 1458.28 170.6 1458.28 154.6 1456.78 154.6 1456.78 131.8 1455.48 131.8 1455.48 122.5 1454.48 122.5 1454.48 119.5 1454.98 119.5 1454.98 113 1454.18 113 1454.18 110.9 1443.28 110.9 1443.28 113 1439.18 113 1439.18 119.5 1439.78 119.5 1439.78 122.5 1438.48 122.5 1438.48 131.8 1437.48 131.8 1437.48 154.6 1435.78 154.6 1435.78 170.6 1433.68 170.6 1433.68 187.1 1431.18 187.1 1431.18 180.1 1430.68 180.1 1430.68 173.5 1430.18 173.5 1430.18 180.1 1429.28 180.1 1429.28 181 1416.28 181 1416.28 187.1 1411.98 187.1 1411.98 188.6 1406.98 188.6 1406.98 221.8 1392.08 221.8 1392.08 213.2 1392.48 213.2 1392.48 210.4 1390.48 210.4 1390.48 210.1 1388.88 210.1 1388.88 208.1 1387.78 208.1 1387.78 210.4 1386.18 210.4 1386.18 213.2 1386.68 213.2 1386.68 218.5 1384.68 218.5 1384.68 219 1385.18 219 1385.18 221.8 1381.88 221.8 1381.88 222.8 1382.38 222.8 1382.38 239.7 1378.68 239.7 1378.68 240.8 1379.28 240.8 1379.28 246 1378.08 246 1378.08 246.8 1377.28 246.8 1377.28 247.3 1375.98 247.3 1375.98 278.3 1374.48 278.3 1374.48 187.4 1362.88 187.4 1362.88 185.3 1356.28 185.3 1356.28 187.4 1355.48 187.4 1353.98 190.9 1353.98 259.7 1352.98 259.7 1352.98 161 1339.58 152.8 1328.08 152.8 1328.08 152.1 1324.78 152.1 1324.78 151.7 1318.58 151.7 1318.58 152.1 1314.08 152.1 1314.08 152.8 1307.18 152.8 1307.18 234.8 1304.88 234.8 1304.88 144.2 1298.58 144.2 1298.58 142.2 1293.18 142.2 1293.18 141.5 1292.28 141.5 1292.28 142.2 1289.78 142.2 1289.78 143.2 1281.78 143.2 1281.78 144.2 1278.58 144.2 1278.58 242.1 1273.78 242.1 1273.78 238.7 1273.68 238.7 1273.68 237.7 1273.48 237.7 1273.48 233.6 1273.08 233.6 1273.08 237.7 1272.58 237.7 1272.58 238.7 1271.68 238.7 1271.68 238.1 1267.88 238.1 1267.88 238.7 1266.48 238.7 1266.48 237.5 1262.68 237.5 1262.68 235.5 1259.38 235.5 1259.38 234.7 1257.98 234.7 1257.98 232 1257.48 232 1257.48 234.7 1256.58 234.7 1256.58 235.5 1254.58 235.5 1254.58 236.2 1253.08 236.2 1253.08 237.9 1252.98 237.9 1252.98 233.1 1247.68 233.1 1247.68 228.4 1244.58 228.4 1244.58 217.4 1243.28 217.4 1243.28 228.4 1240.18 228.4 1240.18 235.9 1236.58 235.9 1236.58 246 1229.38 246 1229.38 185.2 1223.28 185.2 1221.38 189 1221.38 191.5 1194.58 191.5 1194.58 185.2 1188.48 185.2 1186.58 189 1186.58 227.9 1172.28 227.9 1172.28 234.2 1169.18 234.2 1169.18 213.4 1155.08 208.1 1148.98 213.4 1148.98 268 1145.18 268 1145.18 245.4 1130.88 245.4 1130.88 241.6 1127.78 241.6 1127.78 238.1 1125.18 238.1 1125.18 225.7 1124.68 225.7 1124.68 238.1 1123.38 238.1 1123.38 241.6 1120.48 241.6 1120.48 217.9 1109.88 217.9 1109.88 157.3 1101.98 157.3 1101.98 147.2 1081.08 147.2 1076.78 150 1076.78 157.3 1058.58 157.3 1050.98 161.4 1050.98 221.3 1036.38 221.3 1036.38 204.5 1033.68 204.5 1033.68 193.8 1029.28 193.8 1029.28 190.6 1029.88 190.6 1029.88 184.3 1027.78 184.3 1027.78 181.2 1025.98 181.2 1025.98 159.4 1023.68 159.4 1023.68 181.2 1021.68 181.2 1021.68 184.3 1019.78 184.3 1019.78 190.6 1020.38 190.6 1020.38 193.8 1016.98 193.8 1016.98 204.5 1014.48 204.5 1014.48 211.2 1011.68 211.2 1011.68 221.3 986.38 221.3 980.18 225.3 980.18 239.8 974.38 239.8 974.38 242.5 969.18 242.5 969.18 267.2 967.38 267.2 967.38 274.6 966.08 274.6 966.08 256.1 956.38 256.1 956.38 233.7 939.68 233.7 939.68 227.9 919.38 227.9 919.38 233.7 911.88 233.7 906.58 238.6 906.58 263.2 906.18 263.2 906.18 246.5 888.08 246.5 888.08 263.2 886.08 263.2 886.08 238 877.48 238 877.48 234.1 873.88 234.1 873.88 215 870.08 215 870.08 185.9 866.48 185.9 866.48 137.6 841.38 137.6 841.38 185.9 838.78 185.9 838.78 191.8 837.58 191.8 835.88 180.8 831.18 180.8 828.98 191.8 827.08 191.8 827.08 210.3 823.78 210.3 823.78 233.2 820.18 233.2 820.18 269.3 815.38 269.3 815.38 218.3 806.58 218.3 806.58 198.4 787.58 198.4 787.58 231.5 784.48 231.5 784.48 208.1 767.08 208.1 759.88 215.2 759.88 231.5 757.18 231.5 757.18 249.1 751.48 249.1 751.48 170.2 744.58 170.2 744.58 161.8 729.28 161.8 729.28 170.2 722.78 170.2 722.78 207.7 715.38 207.7 715.38 201.1 705.18 201.1 705.18 191.4 699.88 191.4 699.88 201.1 695.48 201.1 695.48 194.5 690.18 194.5 690.18 201.1 688.48 201.1 688.48 192.7 682.28 182.1 671.28 182.1 671.28 179.9 642.58 179.9 642.58 182.1 637.38 182.1 637.38 185.6 624.58 185.6 624.58 195.3 621.08 195.3 621.08 188.3 615.78 188.3 615.78 156.6 604.28 146 582.28 146 582.28 195.3 572.08 195.3 572.08 203.7 561.98 203.7 561.98 233.7 558.88 233.7 558.88 230.2 554.98 230.2 554.98 233.7 554.08 233.7 554.08 239 553.18 239 553.18 191.4 548.28 183.9 545.68 183.9 545.68 140.7 543.08 140.7 543.08 130.1 539.78 130.1 539.78 124.4 538.58 124.4 538.58 120.7 537.28 120.7 537.28 101.5 535.98 101.5 535.98 120.7 534.78 120.7 534.78 124.4 532.58 124.4 532.58 130.1 529.78 130.1 529.78 140.7 527.58 140.7 527.58 183.9 513.98 183.9 513.98 191.4 505.58 191.4 505.58 156.1 497.68 151.1 497.68 146.3 494.08 146.3 494.08 140.3 475.18 135.4 465.88 140.3 465.88 150 464.98 150 457.98 156.1 457.98 222.7 457.08 222.7 457.08 213.4 455.78 213.4 455.78 207.2 450.98 207.2 450.98 192.3 444.78 192.3 444.78 158.3 443.18 158.3 443.18 153 439.98 153 439.98 150.8 437.98 150.8 437.98 147.3 436.88 147.3 436.88 139 434.68 139 434.68 150.8 432.68 150.8 432.68 153 430.18 153 430.18 158.3 428.48 158.3 428.48 182.6 416.98 182.6 416.98 187 414.38 187 414.38 191.4 411.68 191.4 411.68 197.4 408.18 197.4 408.18 207.2 405.08 207.2 405.08 213.4 401.18 213.4 401.18 222.7 398.48 222.7 398.48 229.3 396.28 229.3 396.28 245.5 395.08 245.5 395.08 238.9 394.08 238.9 394.08 212.4 376.68 206.8 332.18 206.8 332.18 191.4 329.08 191.4 329.08 177.9 325.58 177.9 325.58 162.9 321.78 162.9 321.78 153.9 314.28 150 297.98 150 288.98 153.9 288.98 162.9 285.28 162.9 285.28 177.9 281.08 177.9 281.08 191.4 279.08 191.4 279.08 142.9 240.78 140.1 240.78 134.3 227.98 132.3 227.98 128.6 209.28 128.6 209.28 132.5 201.98 134.3 201.98 139.2 179.48 142.9 179.48 172.9 169.18 171.3 169.18 165.4 158.28 163.5 153.78 165.4 153.78 168.8 148.38 167.9 132.48 173.7 132.48 235.4 116.78 235.4 116.78 239.1 106.38 239.1 106.38 251.5 103.88 251.5 103.88 267.3 94.38 267.3 94.38 290.4 91.48 290.4 91.48 285.5 92.98 285.5 92.98 280.3 91.48 280.3 91.48 279.2 66.28 279.2 66.28 280.3 64.78 280.3 64.78 283.6 57.88 283.6 57.88 284.5 45.48 284.5 45.48 274.9 38.68 274.9 38.68 286.1 28.18 286.1 28.18 279.9 24.68 279.9 24.68 268.8 9.88 268.8 9.88 277.4 -2.92 277.4 -2.92 279.9 -6.72 279.9 -6.72 286.1 -13.82 286.1 -13.82 299.8 1148.78 299.8 1148.78 300 1931.58 300 1931.58 291.8 1923.28 291.8"/></g></g></svg>