<?xml version="1.0" encoding="utf-8"?>
<!-- Generator: Adobe Illustrator 24.1.0, SVG Export Plug-In . SVG Version: 6.00 Build 0)  -->
<svg version="1.1" xmlns="http://www.w3.org/2000/svg" xmlns:xlink="http://www.w3.org/1999/xlink" x="0px" y="0px"
	 viewBox="0 0 1920 300" style="enable-background:new 0 0 1920 300;" xml:space="preserve">
<style type="text/css">
	.st0{clip-path:url(#SVGID_2_);fill:#101219;}
	.st1{clip-path:url(#SVGID_2_);}
	.st2{fill:#090A11;}
	.st3{clip-path:url(#SVGID_4_);fill:#12181E;}
	.st4{clip-path:url(#SVGID_4_);}
	.st5{clip-path:url(#SVGID_6_);fill:#12181E;}
	.st6{clip-path:url(#SVGID_6_);}
	.st7{fill:#0D1119;}
	.st8{clip-path:url(#SVGID_8_);fill:#101219;}
	.st9{clip-path:url(#SVGID_8_);}
	.st10{fill:#0C0F16;}
	.st11{clip-path:url(#SVGID_8_);fill:none;}
	.st12{clip-path:url(#SVGID_10_);fill:#0F1119;}
	.st13{clip-path:url(#SVGID_12_);}
</style>
<g id="Layer_1">
	<g>
		<defs>
			<rect id="SVGID_3_" y="-0.5" width="1920" height="299.5"/>
		</defs>
		<clipPath id="SVGID_2_">
			<use xlink:href="#SVGID_3_"  style="overflow:visible;"/>
		</clipPath>
		<polygon style="clip-path:url(#SVGID_2_);fill:#12181E;" points="2306.7,287.5 2306.7,257.1 2280.7,257.1 2280.7,279 2275.5,279 
			2275.5,188 2266.2,183.9 2244.7,183.9 2235.8,188 2235.8,243.4 2225.7,243.4 2225.7,257 2224.6,257 2224.6,233 2222,233 
			2222,230.7 2207.1,230.7 2207.1,233 2205.3,233 2205.3,263 2204.5,263 2204.5,213.3 2203.4,213.3 2203.4,211.4 2196,211.4 
			2196,208.8 2185.3,208.8 2185.3,197.8 2184.2,197.8 2184.2,208.8 2180.4,208.8 2180.4,211.4 2175.2,211.4 2175.2,213.6 
			2171.8,213.6 2171.8,224.4 2163.3,224.4 2163.3,170.9 2158.4,170.9 2158.4,170.1 2138.9,170.1 2138.9,170.9 2136.5,170.9 
			2136.5,229.8 2132.8,229.8 2132.8,163.8 2131.3,163.8 2131.3,145.6 2129.1,145.6 2129.1,139.3 2113.1,139.3 2113.1,138.4 
			2111.2,138.4 2111.2,139.3 2105.3,139.3 2105.3,136.9 2103.5,136.9 2103.5,139.3 2097.2,139.3 2097.2,145.6 2095.3,145.6 
			2095.3,163.8 2093.8,163.8 2093.8,192.8 2093.1,192.8 2093.1,237.8 2084.5,237.8 2084.5,231.8 2074.5,231.8 2074.5,237.8 
			2073,237.8 2073,251.1 2071.9,251.1 2071.9,173.5 2065.6,173.5 2065.6,168.7 2055.9,168.7 2055.9,170.5 2042.5,170.5 
			2042.5,167.9 2032.1,167.9 2032.1,173.5 2026.6,173.5 2026.6,221.1 2019.9,221.1 2019.9,223.9 1998.8,223.9 1998.8,245.7 
			1994,245.7 1994,248.9 1989.8,248.9 1989.8,266.4 1988.3,266.4 1988.3,198.8 1978.5,198.8 1978.5,193 1968.2,193 1968.2,195.4 
			1956.7,195.4 1956.7,198.8 1940.4,198.8 1940.4,218.8 1935.4,218.8 1935.4,221.7 1936.6,221.7 1936.6,225.5 1930.2,225.5 
			1930.2,212.1 1929.1,212.1 1929.1,179.7 1926.9,179.7 1926.9,156.1 1926.6,156.1 1926.6,143.8 1923.6,143.8 1923.6,137.5 
			1921.4,137.5 1921.4,134.5 1918.1,134.5 1918.1,130.8 1896.2,130.8 1896.2,134.5 1895,134.5 1895,137.5 1892.8,137.5 
			1892.8,143.8 1889.1,143.8 1889.1,156.1 1888.5,156.1 1888.5,179.7 1886.3,179.7 1886.3,212.1 1884.5,212.1 1884.5,231.5 
			1867.9,231.5 1867.9,235.2 1865.7,235.2 1865.7,225.9 1860.5,225.9 1860.5,235.2 1858.6,235.2 1858.6,225.5 1852.7,225.5 
			1852.7,238.5 1847.5,238.5 1847.5,225.9 1843,225.9 1843,92.8 1840.8,92.8 1840.8,86.5 1833.6,86.5 1833.6,81.6 1830.6,81.6 
			1830.6,86.5 1830,86.5 1830,82.8 1828.4,82.8 1828.4,81.6 1825.5,81.6 1825.5,82.8 1823.3,82.8 1823.3,81.6 1820.3,81.6 
			1820.3,82.8 1818.1,82.8 1818.1,81.6 1815.2,81.6 1815.2,82.8 1811.4,82.8 1811.4,86.5 1803.3,86.5 1803.3,92.8 1801.8,92.8 
			1801.8,124.5 1782.3,124.5 1782.3,137.4 1783.4,137.4 1783.4,196.2 1781.7,196.2 1781.7,204.3 1780.6,204.3 1780.6,201 
			1769.1,201 1769.1,204.3 1765.4,204.3 1765.4,253.7 1762.8,253.7 1762.8,139 1763.3,139 1763.3,135.4 1762.8,135.4 1762.8,135.2 
			1759.2,135.2 1759.2,134.1 1754.2,134.1 1754.2,135.2 1718.5,135.2 1718.5,135.4 1717.9,135.4 1717.9,139 1718.5,139 1718.5,159 
			1705.2,159 1705.2,170.2 1700.1,170.2 1700.1,169.4 1693.2,169.4 1693.2,170.9 1684.4,170.9 1684.4,245.6 1682.8,245.6 
			1682.8,218.7 1681.3,218.7 1681.3,218.2 1682.1,218.2 1682.1,217.1 1680.8,217.1 1680.8,215.4 1674.7,215.4 1674.7,211.3 
			1675.5,211.3 1675.5,208.8 1674.7,208.8 1674.7,203.7 1671.9,203.7 1671.9,182.4 1670.3,182.4 1670.3,149.3 1641.2,149.3 
			1631,152.2 1631,222.5 1629.1,222.5 1629.1,163 1626.8,163 1626.8,109.6 1623.8,109.6 1623.8,86 1621.6,86 1621.6,52.5 
			1619.7,52.5 1619.7,38.9 1618.2,38.9 1618.2,34.4 1619,34.4 1619,24.9 1617.9,24.9 1617.9,21.9 1601.9,21.9 1601.9,24.9 
			1595.9,24.9 1595.9,34.4 1596.7,34.4 1596.7,38.9 1594.8,38.9 1594.8,52.5 1593.3,52.5 1593.3,86 1590.7,86 1590.7,109.6 
			1587.8,109.6 1587.8,133.8 1584.1,133.8 1584.1,123.5 1583.3,123.5 1583.3,113.8 1582.5,113.8 1582.5,123.5 1581.3,123.5 
			1581.3,124.8 1562.1,124.8 1562.1,133.8 1555.8,133.8 1555.8,135.9 1548.5,135.9 1548.5,184.6 1526.7,184.6 1526.7,172 
			1527.2,172 1527.2,167.9 1524.3,167.9 1524.3,167.5 1521.9,167.5 1521.9,164.6 1520.3,164.6 1520.3,167.9 1518,167.9 1518,172 
			1518.7,172 1518.7,179.8 1515.8,179.8 1515.8,180.6 1516.5,180.6 1516.5,184.6 1511.7,184.6 1511.7,186.2 1512.3,186.2 
			1512.3,211 1506.9,211 1506.9,212.6 1507.9,212.6 1507.9,220.2 1506.1,220.2 1506.1,221.5 1504.9,221.5 1504.9,222.2 1503,222.2 
			1503,267.7 1500.8,267.7 1500.8,134.1 1483.7,134.1 1483.7,131.1 1474.1,131.1 1474.1,134.1 1472.8,134.1 1470.7,139.3 
			1470.7,240.4 1469.2,240.4 1469.2,95.3 1449.5,83.3 1432.6,83.3 1432.6,82.3 1427.8,82.3 1427.8,81.7 1418.6,81.7 1418.6,82.3 
			1412.1,82.3 1412.1,83.3 1402,83.3 1402,203.8 1398.6,203.8 1398.6,70.7 1389.3,70.7 1389.3,67.8 1381.4,67.8 1381.4,66.8 
			1380,66.8 1380,67.8 1376.4,67.8 1376.4,69.2 1364.6,69.2 1364.6,70.7 1360,70.7 1360,214.4 1352.9,214.4 1352.9,209.6 
			1352.8,209.6 1352.8,208 1352.4,208 1352.4,202 1351.9,202 1351.9,208 1351.1,208 1351.1,209.6 1349.8,209.6 1349.8,208.6 
			1344.3,208.6 1344.3,209.6 1342.2,209.6 1342.2,207.7 1336.6,207.7 1336.6,204.8 1331.8,204.8 1331.8,203.6 1329.6,203.6 
			1329.6,199.7 1329,199.7 1329,203.6 1327.7,203.6 1327.7,204.8 1324.7,204.8 1324.7,205.9 1322.5,205.9 1322.5,208.4 
			1322.3,208.4 1322.3,201.2 1314.5,201.2 1314.5,194.4 1310,194.4 1310,178.2 1308.1,178.2 1308.1,194.4 1303.5,194.4 
			1303.5,205.4 1298.3,205.4 1298.3,220.2 1287.7,220.2 1287.7,130.9 1278.7,130.9 1276,136.6 1276,140.3 1236.6,140.3 
			1236.6,130.9 1227.6,130.9 1224.9,136.6 1224.9,193.7 1203.9,193.7 1203.9,202.9 1199.3,202.9 1199.3,172.4 1178.6,164.6 
			1169.6,172.4 1169.6,252.6 1164.1,252.6 1164.1,219.4 1143.1,219.4 1143.1,213.8 1138.5,213.8 1138.5,208.6 1134.6,208.6 
			1134.6,190.5 1134,190.5 1134,208.6 1132,208.6 1132,213.8 1127.9,213.8 1127.9,179 1112.2,179 1112.2,90 1100.7,90 1100.7,75.2 
			1069.9,75.2 1063.6,79.2 1063.6,90 1036.9,90 1025.7,96 1025.7,183.9 1004.2,183.9 1004.2,159.2 1000.3,159.2 1000.3,143.6 
			993.8,143.6 993.8,138.9 994.7,138.9 994.7,129.7 991.7,129.7 991.7,125 989,125 989,93.1 985.7,93.1 985.7,125 982.7,125 
			982.7,129.7 979.9,129.7 979.9,138.9 980.8,138.9 980.8,143.6 975.8,143.6 975.8,159.2 972.1,159.2 972.1,169.1 968,169.1 
			968,183.9 930.8,183.9 921.8,189.9 921.8,211.2 913.2,211.2 913.2,215.1 905.6,215.1 905.6,251.3 903,251.3 903,262.2 901,262.2 
			901,235.1 886.8,235.1 886.8,202.1 862.2,202.1 862.2,193.7 832.4,193.7 832.4,202.1 821.5,202.1 813.7,209.3 813.7,245.5 
			813,245.5 813,220.9 786.5,220.9 786.5,245.5 783.5,245.5 783.5,208.4 771,208.4 771,202.8 765.7,202.8 765.7,174.6 760,174.6 
			760,131.9 754.8,131.9 754.8,61.1 717.9,61.1 717.9,131.9 714.1,131.9 714.1,140.7 712.3,140.7 709.8,124.5 703,124.5 
			699.7,140.7 696.9,140.7 696.9,167.8 692,167.8 692,201.5 686.8,201.5 686.8,254.5 679.7,254.5 679.7,179.5 666.8,179.5 
			666.8,150.4 639,150.4 639,198.9 634.4,198.9 634.4,164.6 608.8,164.6 598.2,175 598.2,198.9 594.3,198.9 594.3,224.8 
			585.9,224.8 585.9,108.9 575.8,108.9 575.8,96.7 553.3,96.7 553.3,108.9 543.8,108.9 543.8,164 532.8,164 532.8,154.2 518,154.2 
			518,140 510.2,140 510.2,154.2 503.7,154.2 503.7,144.5 496,144.5 496,154.2 493.4,154.2 493.4,142 484.3,126.4 468.1,126.4 
			468.1,123.2 426.1,123.2 426.1,126.4 418.3,126.4 418.3,131.6 399.5,131.6 399.5,145.8 394.4,145.8 394.4,135.5 386.6,135.5 
			386.6,88.9 369.8,73.4 337.4,73.4 337.4,145.8 322.5,145.8 322.5,158.1 307.7,158.1 307.7,202.1 303.1,202.1 303.1,197 297.3,197 
			297.3,202.1 296,202.1 296,209.9 294.7,209.9 294.7,140 287.6,129 283.7,129 283.7,65.6 279.8,65.6 279.8,50.1 275.1,50.1 
			275.1,41.7 273.3,41.7 273.3,36.2 271.4,36.2 271.4,8 269.5,8 269.5,36.2 267.6,36.2 267.6,41.7 264.5,41.7 264.5,50.1 
			260.4,50.1 260.4,65.6 257.2,65.6 257.2,129 237.1,129 237.1,140 224.8,140 224.8,88.3 213.2,80.9 213.2,73.8 208,73.8 208,64.9 
			180.2,57.8 166.6,64.9 166.6,79.2 165.2,79.2 154.9,88.3 154.9,186 153.6,186 153.6,172.4 151.7,172.4 151.7,163.3 144.6,163.3 
			144.6,141.3 135.5,141.3 135.5,91.5 133.1,91.5 133.1,83.7 128.5,83.7 128.5,80.4 125.6,80.4 125.6,75.3 124,75.3 124,63 
			120.8,63 120.8,80.4 117.7,80.4 117.7,83.7 114.1,83.7 114.1,91.5 111.6,91.5 111.6,127.1 94.8,127.1 94.8,133.5 90.9,133.5 
			90.9,140 87,140 87,148.8 81.8,148.8 81.8,163.3 77.3,163.3 77.3,172.4 71.5,172.4 71.5,186 67.6,186 67.6,195.7 64.3,195.7 
			64.3,219.5 62.6,219.5 62.6,209.8 61.1,209.8 61.1,170.9 35.5,162.7 -29.8,162.7 -29.8,140 -34.3,140 -34.3,120.3 -39.5,120.3 
			-39.5,98.3 -45,98.3 -45,85 -56.1,79.3 -80,79.3 -93.2,85 -93.2,98.3 -98.7,98.3 -98.7,120.3 -104.9,120.3 -104.9,140 -107.8,140 
			-107.8,68.8 -164.1,64.7 -164.1,56.2 -182.8,53.2 -182.8,47.8 -210.3,47.8 -210.3,53.6 -221,56.2 -221,63.3 -254,68.8 -254,112.9 
			-269.1,110.5 -269.1,101.9 -285.1,99.1 -291.8,101.9 -291.8,106.9 -299.7,105.6 -323,114 -323,204.7 -346.1,204.7 -346.1,210.1 
			-361.4,210.1 -361.4,228.3 -365.1,228.3 -365.1,251.4 -379,251.4 -379,285.5 -383.2,285.5 -383.2,278.2 -381,278.2 -381,270.6 
			-383.2,270.6 -383.2,269 -420.3,269 -420.3,270.6 -422.5,270.6 -422.5,275.4 -432.6,275.4 -432.6,276.8 -450.9,276.8 
			-450.9,262.7 -460.7,262.7 -460.7,279.1 -476.2,279.1 -476.2,269.9 -481.3,269.9 -481.3,253.7 -503.2,253.7 -503.2,266.3 
			-522,266.3 -522,269.9 -527.4,269.9 -527.4,279.1 -537.9,279.1 -537.9,299.2 1169.3,299.2 1169.3,299.5 2318.9,299.5 
			2318.9,287.5 		"/>
		<g class="st1">
			
				<image style="overflow:visible;opacity:0.7;" width="1958" height="212" xlink:href="1BDF7839AD99F986.png"  transform="matrix(1 0 0 1 -22 94)">
			</image>
			<g>
				<polygon class="st2" points="1918.7,291.3 1918.7,270.6 1901,270.6 1901,285.5 1897.5,285.5 1897.5,223.6 1891.2,220.8 
					1876.5,220.8 1870.4,223.6 1870.4,261.3 1863.6,261.3 1863.6,270.6 1862.8,270.6 1862.8,254.2 1861.1,254.2 1861.1,252.6 
					1850.9,252.6 1850.9,254.2 1849.7,254.2 1849.7,274.7 1849.2,274.7 1849.2,240.8 1848.4,240.8 1848.4,239.5 1843.3,239.5 
					1843.3,237.7 1836.1,237.7 1836.1,230.2 1835.3,230.2 1835.3,237.7 1832.7,237.7 1832.7,239.5 1829.2,239.5 1829.2,241 
					1826.9,241 1826.9,248.3 1821,248.3 1821,211.9 1817.7,211.9 1817.7,211.4 1804.4,211.4 1804.4,211.9 1802.8,211.9 1802.8,252 
					1800.3,252 1800.3,207.1 1799.3,207.1 1799.3,194.7 1797.8,194.7 1797.8,190.4 1786.9,190.4 1786.9,189.8 1785.6,189.8 
					1785.6,190.4 1781.6,190.4 1781.6,188.8 1780.3,188.8 1780.3,190.4 1776,190.4 1776,194.7 1774.8,194.7 1774.8,207.1 
					1773.8,207.1 1773.8,226.8 1773.2,226.8 1773.2,257.5 1767.4,257.5 1767.4,253.4 1760.6,253.4 1760.6,257.5 1759.6,257.5 
					1759.6,266.5 1758.8,266.5 1758.8,213.7 1754.5,213.7 1754.5,210.4 1747.9,210.4 1747.9,211.7 1738.8,211.7 1738.8,209.9 
					1731.8,209.9 1731.8,213.7 1728,213.7 1728,246.1 1723.4,246.1 1723.4,248 1709,248 1709,262.8 1705.8,262.8 1705.8,265 
					1702.9,265 1702.9,276.9 1701.9,276.9 1701.9,230.9 1695.2,230.9 1695.2,226.9 1688.2,226.9 1688.2,228.6 1680.4,228.6 
					1680.4,230.9 1669.3,230.9 1669.3,244.5 1665.9,244.5 1665.9,246.5 1666.7,246.5 1666.7,249.1 1662.3,249.1 1662.3,240 
					1661.6,240 1661.6,217.9 1660.1,217.9 1660.1,201.8 1659.9,201.8 1659.9,193.4 1657.9,193.4 1657.9,189.1 1656.4,189.1 
					1656.4,187.1 1654.1,187.1 1654.1,184.6 1639.1,184.6 1639.1,187.1 1638.4,187.1 1638.4,189.1 1636.9,189.1 1636.9,193.4 
					1634.3,193.4 1634.3,201.8 1634,201.8 1634,217.9 1632.5,217.9 1632.5,240 1631.2,240 1631.2,253.2 1619.9,253.2 1619.9,255.7 
					1618.4,255.7 1618.4,249.4 1614.9,249.4 1614.9,255.7 1613.6,255.7 1613.6,249.1 1609.5,249.1 1609.5,258 1606,258 1606,249.4 
					1603,249.4 1603,158.7 1601.4,158.7 1601.4,154.5 1596.5,154.5 1596.5,151.1 1594.5,151.1 1594.5,154.5 1594.1,154.5 
					1594.1,151.9 1593,151.9 1593,151.1 1591,151.1 1591,151.9 1589.5,151.9 1589.5,151.1 1587.5,151.1 1587.5,151.9 1586,151.9 
					1586,151.1 1584,151.1 1584,151.9 1581.5,151.9 1581.5,154.5 1575.9,154.5 1575.9,158.7 1574.9,158.7 1574.9,180.3 
					1561.6,180.3 1561.6,189.1 1562.4,189.1 1562.4,229.1 1561.2,229.1 1561.2,234.7 1560.5,234.7 1560.5,232.4 1552.6,232.4 
					1552.6,234.7 1550.1,234.7 1550.1,268.3 1548.3,268.3 1548.3,190.2 1548.7,190.2 1548.7,187.7 1548.3,187.7 1548.3,187.6 
					1545.9,187.6 1545.9,186.9 1542.4,186.9 1542.4,187.6 1518.2,187.6 1518.2,187.7 1517.7,187.7 1517.7,190.2 1518.2,190.2 
					1518.2,203.8 1509.1,203.8 1509.1,211.4 1505.6,211.4 1505.6,210.9 1501,210.9 1501,211.9 1494.9,211.9 1494.9,262.8 
					1493.9,262.8 1493.9,244.4 1492.8,244.4 1492.8,244.1 1493.3,244.1 1493.3,243.4 1492.5,243.4 1492.5,242.2 1488.3,242.2 
					1488.3,239.4 1488.9,239.4 1488.9,237.7 1488.3,237.7 1488.3,234.2 1486.4,234.2 1486.4,219.7 1485.3,219.7 1485.3,197.2 
					1465.5,197.2 1458.6,199.1 1458.6,247 1457.3,247 1457.3,206.6 1455.7,206.6 1455.7,170.1 1453.7,170.1 1453.7,154.1 
					1452.2,154.1 1452.2,131.3 1450.9,131.3 1450.9,122 1449.9,122 1449.9,119 1450.4,119 1450.4,112.5 1449.6,112.5 1449.6,110.4 
					1438.7,110.4 1438.7,112.5 1434.6,112.5 1434.6,119 1435.2,119 1435.2,122 1433.9,122 1433.9,131.3 1432.9,131.3 1432.9,154.1 
					1431.2,154.1 1431.2,170.1 1429.1,170.1 1429.1,186.6 1426.6,186.6 1426.6,179.6 1426.1,179.6 1426.1,173 1425.6,173 
					1425.6,179.6 1424.7,179.6 1424.7,180.5 1411.7,180.5 1411.7,186.6 1407.4,186.6 1407.4,188.1 1402.4,188.1 1402.4,221.3 
					1387.5,221.3 1387.5,212.7 1387.9,212.7 1387.9,209.9 1385.9,209.9 1385.9,209.6 1384.3,209.6 1384.3,207.6 1383.2,207.6 
					1383.2,209.9 1381.6,209.9 1381.6,212.7 1382.1,212.7 1382.1,218 1380.1,218 1380.1,218.5 1380.6,218.5 1380.6,221.3 
					1377.3,221.3 1377.3,222.3 1377.8,222.3 1377.8,239.2 1374.1,239.2 1374.1,240.3 1374.7,240.3 1374.7,245.5 1373.5,245.5 
					1373.5,246.3 1372.7,246.3 1372.7,246.8 1371.4,246.8 1371.4,277.8 1369.9,277.8 1369.9,186.9 1358.3,186.9 1358.3,184.8 
					1351.7,184.8 1351.7,186.9 1350.9,186.9 1349.4,190.4 1349.4,259.2 1348.4,259.2 1348.4,160.5 1335,152.3 1323.5,152.3 
					1323.5,151.6 1320.2,151.6 1320.2,151.2 1314,151.2 1314,151.6 1309.5,151.6 1309.5,152.3 1302.6,152.3 1302.6,234.3 
					1300.3,234.3 1300.3,143.7 1294,143.7 1294,141.7 1288.6,141.7 1288.6,141 1287.7,141 1287.7,141.7 1285.2,141.7 1285.2,142.7 
					1277.2,142.7 1277.2,143.7 1274,143.7 1274,241.6 1269.2,241.6 1269.2,238.2 1269.1,238.2 1269.1,237.2 1268.9,237.2 
					1268.9,233.1 1268.5,233.1 1268.5,237.2 1268,237.2 1268,238.2 1267.1,238.2 1267.1,237.6 1263.3,237.6 1263.3,238.2 
					1261.9,238.2 1261.9,237 1258.1,237 1258.1,235 1254.8,235 1254.8,234.2 1253.4,234.2 1253.4,231.5 1252.9,231.5 1252.9,234.2 
					1252,234.2 1252,235 1250,235 1250,235.7 1248.5,235.7 1248.5,237.4 1248.4,237.4 1248.4,232.6 1243.1,232.6 1243.1,227.9 
					1240,227.9 1240,216.9 1238.7,216.9 1238.7,227.9 1235.6,227.9 1235.6,235.4 1232,235.4 1232,245.5 1224.8,245.5 1224.8,184.7 
					1218.7,184.7 1216.8,188.5 1216.8,191 1190,191 1190,184.7 1183.9,184.7 1182,188.5 1182,227.4 1167.7,227.4 1167.7,233.7 
					1164.6,233.7 1164.6,212.9 1150.5,207.6 1144.4,212.9 1144.4,267.5 1140.6,267.5 1140.6,244.9 1126.3,244.9 1126.3,241.1 
					1123.2,241.1 1123.2,237.6 1120.6,237.6 1120.6,225.2 1120.1,225.2 1120.1,237.6 1118.8,237.6 1118.8,241.1 1115.9,241.1 
					1115.9,217.4 1105.3,217.4 1105.3,156.8 1097.4,156.8 1097.4,146.7 1076.5,146.7 1072.2,149.5 1072.2,156.8 1054,156.8 
					1046.4,160.9 1046.4,220.8 1031.8,220.8 1031.8,204 1029.1,204 1029.1,193.3 1024.7,193.3 1024.7,190.1 1025.3,190.1 
					1025.3,183.8 1023.2,183.8 1023.2,180.7 1021.4,180.7 1021.4,158.9 1019.1,158.9 1019.1,180.7 1017.1,180.7 1017.1,183.8 
					1015.2,183.8 1015.2,190.1 1015.8,190.1 1015.8,193.3 1012.4,193.3 1012.4,204 1009.9,204 1009.9,210.7 1007.1,210.7 
					1007.1,220.8 981.8,220.8 975.6,224.8 975.6,239.3 969.8,239.3 969.8,242 964.6,242 964.6,266.7 962.8,266.7 962.8,274.1 
					961.5,274.1 961.5,255.6 951.8,255.6 951.8,233.2 935.1,233.2 935.1,227.4 914.8,227.4 914.8,233.2 907.3,233.2 902,238.1 
					902,262.7 901.6,262.7 901.6,246 883.5,246 883.5,262.7 881.5,262.7 881.5,237.5 872.9,237.5 872.9,233.6 869.3,233.6 
					869.3,214.5 865.5,214.5 865.5,185.4 861.9,185.4 861.9,137.1 836.8,137.1 836.8,185.4 834.2,185.4 834.2,191.3 833,191.3 
					831.3,180.3 826.6,180.3 824.4,191.3 822.5,191.3 822.5,209.8 819.2,209.8 819.2,232.7 815.6,232.7 815.6,268.8 810.8,268.8 
					810.8,217.8 802,217.8 802,197.9 783,197.9 783,231 779.9,231 779.9,207.6 762.5,207.6 755.3,214.7 755.3,231 752.6,231 
					752.6,248.6 746.9,248.6 746.9,169.7 740,169.7 740,161.3 724.7,161.3 724.7,169.7 718.2,169.7 718.2,207.2 710.8,207.2 
					710.8,200.6 700.6,200.6 700.6,190.9 695.3,190.9 695.3,200.6 690.9,200.6 690.9,194 685.6,194 685.6,200.6 683.9,200.6 
					683.9,192.2 677.7,181.6 666.7,181.6 666.7,179.4 638,179.4 638,181.6 632.8,181.6 632.8,185.1 620,185.1 620,194.8 
					616.5,194.8 616.5,187.8 611.2,187.8 611.2,156.1 599.7,145.5 577.7,145.5 577.7,194.8 567.5,194.8 567.5,203.2 557.4,203.2 
					557.4,233.2 554.3,233.2 554.3,229.7 550.4,229.7 550.4,233.2 549.5,233.2 549.5,238.5 548.6,238.5 548.6,190.9 543.7,183.4 
					541.1,183.4 541.1,140.2 538.5,140.2 538.5,129.6 535.2,129.6 535.2,123.9 534,123.9 534,120.2 532.7,120.2 532.7,101 
					531.4,101 531.4,120.2 530.2,120.2 530.2,123.9 528,123.9 528,129.6 525.2,129.6 525.2,140.2 523,140.2 523,183.4 509.4,183.4 
					509.4,190.9 501,190.9 501,155.6 493.1,150.6 493.1,145.8 489.5,145.8 489.5,139.8 470.6,134.9 461.3,139.8 461.3,149.5 
					460.4,149.5 453.4,155.6 453.4,222.2 452.5,222.2 452.5,212.9 451.2,212.9 451.2,206.7 446.4,206.7 446.4,191.8 440.2,191.8 
					440.2,157.8 438.6,157.8 438.6,152.5 435.4,152.5 435.4,150.3 433.4,150.3 433.4,146.8 432.3,146.8 432.3,138.5 430.1,138.5 
					430.1,150.3 428.1,150.3 428.1,152.5 425.6,152.5 425.6,157.8 423.9,157.8 423.9,182.1 412.4,182.1 412.4,186.5 409.8,186.5 
					409.8,190.9 407.1,190.9 407.1,196.9 403.6,196.9 403.6,206.7 400.5,206.7 400.5,212.9 396.6,212.9 396.6,222.2 393.9,222.2 
					393.9,228.8 391.7,228.8 391.7,245 390.5,245 390.5,238.4 389.5,238.4 389.5,211.9 372.1,206.3 327.6,206.3 327.6,190.9 
					324.5,190.9 324.5,177.4 321,177.4 321,162.4 317.2,162.4 317.2,153.4 309.7,149.5 293.4,149.5 284.4,153.4 284.4,162.4 
					280.7,162.4 280.7,177.4 276.5,177.4 276.5,190.9 274.5,190.9 274.5,142.4 236.2,139.6 236.2,133.8 223.4,131.8 223.4,128.1 
					204.7,128.1 204.7,132 197.4,133.8 197.4,138.7 174.9,142.4 174.9,172.4 164.6,170.8 164.6,164.9 153.7,163 149.2,164.9 
					149.2,168.3 143.8,167.4 127.9,173.2 127.9,234.9 112.2,234.9 112.2,238.6 101.8,238.6 101.8,251 99.3,251 99.3,266.8 
					89.8,266.8 89.8,289.9 86.9,289.9 86.9,285 88.4,285 88.4,279.8 86.9,279.8 86.9,278.7 61.7,278.7 61.7,279.8 60.2,279.8 
					60.2,283.1 53.3,283.1 53.3,284 40.9,284 40.9,274.4 34.1,274.4 34.1,285.6 23.6,285.6 23.6,279.4 20.1,279.4 20.1,268.3 
					5.3,268.3 5.3,276.9 -7.5,276.9 -7.5,279.4 -11.3,279.4 -11.3,285.6 -18.4,285.6 -18.4,299.3 1144.2,299.3 1144.2,299.5 
					1927,299.5 1927,291.3 				"/>
			</g>
		</g>
	</g>
</g>
<g id="Layer_2">
</g>
<g id="Layer_3">
</g>
</svg>
