<svg id="Layer_1" data-name="Layer 1" xmlns="http://www.w3.org/2000/svg" viewBox="0 0 500 500"><defs><style>.cls-1{fill:#aecb8d;}.cls-2{fill:#a7c87e;}</style></defs><path class="cls-1" d="M250.2,18.78a231,231,0,0,1,89.88,443.69A231,231,0,0,1,160.32,36.93,229.43,229.43,0,0,1,250.2,18.78m0-10C117.15,8.78,9.29,116.65,9.29,249.7S117.15,490.62,250.2,490.62,491.12,382.75,491.12,249.7,383.26,8.78,250.2,8.78Z"/><path class="cls-2" d="M224.2,129.75a20.2,20.2,0,0,1,18.34,11.83l35.88,79.22a20,20,0,0,1,1.8,8.31V376a20.16,20.16,0,0,1-20.14,20.14H118.64A20.15,20.15,0,0,1,98.51,376V229.11a20,20,0,0,1,1.79-8.31l34.89-77a23.92,23.92,0,0,1,21.74-14H224.2m0-3.85H156.93a27.72,27.72,0,0,0-25.25,16.29l-34.89,77a23.9,23.9,0,0,0-2.13,9.89V376a24,24,0,0,0,24,24H260.08a24,24,0,0,0,24-24V229.11a23.91,23.91,0,0,0-2.14-9.89L246.05,140A24,24,0,0,0,224.2,125.9Z"/><path class="cls-2" d="M94.66,238.7v87H284.07v-87Zm129,54.93H200.78v22.84H177.94V293.63H155.1V270.78h22.84V247.94h22.84v22.84h22.84Z"/><path class="cls-2" d="M257.14,145.92H121.58a10.37,10.37,0,0,1-10.37-10.37V117a11.08,11.08,0,0,1,11.09-11.08H257.14a10.37,10.37,0,0,1,10.37,10.37v19.29A10.37,10.37,0,0,1,257.14,145.92Z"/><path class="cls-2" d="M288.42,326a28.52,28.52,0,0,0,52-23.15Z"/><path class="cls-2" d="M339,299.58a28.52,28.52,0,0,0-52,23.15Z"/><path class="cls-2" d="M358,380.82a28.52,28.52,0,0,0,52-23.15Z"/><path class="cls-2" d="M408.55,354.43a28.52,28.52,0,0,0-52,23.15Z"/><path class="cls-2" d="M319.84,348c-15.34,0-31.53-1.93-34.66-5.54v12.71h69.31V342.45C351.36,346.06,335.17,348,319.84,348Z"/><ellipse class="cls-2" cx="319.83" cy="355.16" rx="34.65" ry="6.07"/><path class="cls-2" d="M287.39,343.34l54.64-6.8a158.86,158.86,0,0,0-22.2-1.41c-19.13,0-34.65,2.72-34.65,6.07C285.18,342,286,342.67,287.39,343.34Z"/><path class="cls-2" d="M344.4,336.92l-55.74,6.94c5.62,2,17.47,3.41,31.17,3.41,19.14,0,34.66-2.71,34.66-6.07C354.49,339.53,350.63,338,344.4,336.92Z"/><path class="cls-2" d="M319.84,365.29c-15.34,0-31.53-1.93-34.66-5.54v12.71h69.31V359.75C351.36,363.36,335.17,365.29,319.84,365.29Z"/><ellipse class="cls-2" cx="319.83" cy="372.46" rx="34.65" ry="6.07"/><path class="cls-2" d="M287.39,360.64l54.64-6.8a158.86,158.86,0,0,0-22.2-1.41c-19.13,0-34.65,2.72-34.65,6.08C285.18,359.26,286,360,287.39,360.64Z"/><path class="cls-2" d="M344.4,354.22l-55.74,6.94c5.62,2,17.47,3.42,31.17,3.42,19.14,0,34.66-2.72,34.66-6.07C354.49,356.84,350.63,355.32,344.4,354.22Z"/><path class="cls-2" d="M319.84,382.92c-15.34,0-31.53-1.94-34.66-5.55v12.72h69.31V377.37C351.36,381,335.17,382.92,319.84,382.92Z"/><ellipse class="cls-2" cx="319.83" cy="390.09" rx="34.65" ry="6.07"/><path class="cls-2" d="M287.39,378.26l54.64-6.8a158.86,158.86,0,0,0-22.2-1.41c-19.13,0-34.65,2.72-34.65,6.08C285.18,376.88,286,377.6,287.39,378.26Z"/><path class="cls-2" d="M344.4,371.85l-55.74,6.93c5.62,2,17.47,3.42,31.17,3.42,19.14,0,34.66-2.72,34.66-6.07C354.49,374.46,350.63,372.94,344.4,371.85Z"/></svg>