<?xml version="1.0" encoding="utf-8"?>
<!-- Generator: Adobe Illustrator 24.0.3, SVG Export Plug-In . SVG Version: 6.00 Build 0)  -->
<svg version="1.1" id="Layer_1" xmlns="http://www.w3.org/2000/svg" xmlns:xlink="http://www.w3.org/1999/xlink" x="0px" y="0px"
	 viewBox="0 0 500 500" style="enable-background:new 0 0 500 500;" xml:space="preserve">
<style type="text/css">
	.st0{fill:#AECB8D;}
	.st1{fill:#A7C87E;}
	.st2{fill:none;stroke:#AECB8D;stroke-width:2;stroke-miterlimit:10;}
	.st3{fill:#FFFFFF;}
	.st4{fill:none;stroke:#A7C87E;stroke-width:3;stroke-miterlimit:10;}
	.st5{fill:none;stroke:#A7C87E;stroke-width:2;stroke-miterlimit:10;}
	.st6{fill:none;stroke:#A7C87E;stroke-width:2;stroke-miterlimit:10;stroke-dasharray:5.9695,5.9695;}
	.st7{fill:none;stroke:#FFFFFF;stroke-linecap:round;stroke-miterlimit:10;}
	.st8{fill:none;stroke:#A7C87E;stroke-width:5;stroke-miterlimit:10;}
	.st9{fill:none;stroke:#A7C87E;stroke-miterlimit:10;}
	.st10{fill:none;stroke:#A7C87E;stroke-width:10;stroke-miterlimit:10;}
	.st11{fill:url(#);}
	.st12{fill:#A7C87E;stroke:#A7C87E;stroke-width:0.25;stroke-miterlimit:10;}
	.st13{fill:#FFFFFF;stroke:#FFFFFF;stroke-width:0.25;stroke-miterlimit:10;}
	.st14{fill:none;stroke:#A7C87E;stroke-width:0.25;stroke-miterlimit:10;}
</style>
<g>
	<path class="st0" d="M250.2,18.8c31.2,0,61.4,6.1,89.9,18.1c27.5,11.6,52.2,28.3,73.4,49.5s37.9,45.9,49.5,73.4
		c12,28.5,18.1,58.7,18.1,89.9s-6.1,61.4-18.1,89.9c-11.6,27.5-28.3,52.2-49.5,73.4s-45.9,37.9-73.4,49.5
		c-28.5,12-58.7,18.1-89.9,18.1s-61.4-6.1-89.9-18.1c-27.5-11.6-52.2-28.3-73.4-49.5s-37.9-45.9-49.5-73.4
		c-12-28.5-18.1-58.7-18.1-89.9s6.1-61.4,18.1-89.9c11.6-27.5,28.3-52.2,49.5-73.4s45.9-37.9,73.4-49.5
		C188.8,24.9,219,18.8,250.2,18.8 M250.2,8.8C117.1,8.8,9.3,116.6,9.3,249.7s107.9,240.9,240.9,240.9s240.9-107.9,240.9-240.9
		S383.3,8.8,250.2,8.8L250.2,8.8z"/>
</g>
<g>
	<path class="st1" d="M160.3,272.5c-6.5,0-11.6,5.2-11.6,11.7c0,6.6,5.3,11.9,11.8,11.9c6.5,0,11.8-5.4,11.8-12
		C172.4,277.7,167,272.5,160.3,272.5z"/>
	<path class="st1" d="M420.6,165c-0.8-5-0.8-10.1-0.1-15.1c0.5-3.4,0.2-4.8-2.3-4.7c-18.9,1-35.2,13.1-41.7,31
		c-1.9,5.2-2.8,10.6-2.8,16.2c0,31.5,0,63,0,94.4c0,9.9-7.1,18.6-16.4,20.1v-3.4c-1.1-7.2-1.9-14.5-3.7-21.6
		c-4.4-17.9-11.7-34.4-24.1-48.3c-18-20.1-41.3-28.9-67.6-30.5c-18-1.1-35.7,0.7-53.2,5c-1.7,0.4-3.1,0.2-4.7-0.5
		c-28.1-13.3-60.3,3-66.1,33.4c-0.3,1.6-1.2,3-2.4,4c-15.6,12.7-29,27.4-40.5,43.9c-5.5,7.9-10.7,16.1-14.6,25
		c-3.3,7.4,1,15.2,9,16.7c1.4,0.3,2.9,0.2,4.3,0.2c48,0,96,0,144,0c30.9,0,61.8,0,92.8,0c0.4,0,0.7,0,0.9,0h25.9v-0.2h0.3
		c8.6-1.7,16.6-4.9,23.4-10.8c10.4-9.1,16.3-20.5,16.4-34.4c0.2-30.7,0.1-61.3,0.1-92c0-7.9,2.5-14.7,8.9-19.8
		c3.4-2.7,7.3-4.3,11.7-4.7C420.2,169,421.1,168.2,420.6,165z M329.7,307.2c-35.8,0-71.6,0-107.4,0c-35.8,0-71.6,0-107.4,0
		c-0.9,0-2.2,0.5-2.7-0.5c-0.1-0.3-0.1-0.6,0.1-0.8c11.6-17.5,25.6-32.7,42.2-45.5c4.3-3.3,6.4-7.3,6.6-12.7
		c0.4-11.2,10.4-20.7,21.7-21c12.1-0.3,22.6,8.5,23.5,19.9c0.2,2.6,1.1,3.4,3.6,3.4c5.8-0.1,11.6,0,17.4-0.1c3,0,3.3-0.4,3-3.3
		c-0.5-5.4-1.6-10.7-3.9-15.7c-0.8-1.6-0.1-2,1.4-2.3c10.8-1.6,21.6-2.4,32.4-1.8c10.5,0.6,20.8,2.7,30.5,7.1
		c18.2,8.3,29.4,22.9,36.2,41.2c3.4,9.1,5.3,18.6,6.4,28.2C333.6,307.1,333.4,307.2,329.7,307.2z"/>
</g>
</svg>
