<?xml version="1.0" encoding="utf-8"?>
<!-- Generator: Adobe Illustrator 24.0.3, SVG Export Plug-In . SVG Version: 6.00 Build 0)  -->
<svg version="1.1" id="Layer_1" xmlns="http://www.w3.org/2000/svg" xmlns:xlink="http://www.w3.org/1999/xlink" x="0px" y="0px"
	 viewBox="0 0 500 500" style="enable-background:new 0 0 500 500;" xml:space="preserve">
<style type="text/css">
	.st0{fill:#AECB8D;}
	.st1{fill:#A7C87E;}
	.st2{fill:none;stroke:#AECB8D;stroke-width:2;stroke-miterlimit:10;}
	.st3{fill:#FFFFFF;}
</style>
<g>
	<path class="st0" d="M250.2,18.8c31.2,0,61.4,6.1,89.9,18.1c27.5,11.6,52.2,28.3,73.4,49.5s37.9,45.9,49.5,73.4
		c12,28.5,18.1,58.7,18.1,89.9s-6.1,61.4-18.1,89.9c-11.6,27.5-28.3,52.2-49.5,73.4s-45.9,37.9-73.4,49.5
		c-28.5,12-58.7,18.1-89.9,18.1s-61.4-6.1-89.9-18.1c-27.5-11.6-52.2-28.3-73.4-49.5s-37.9-45.9-49.5-73.4
		c-12-28.5-18.1-58.7-18.1-89.9s6.1-61.4,18.1-89.9c11.6-27.5,28.3-52.2,49.5-73.4s45.9-37.9,73.4-49.5
		C188.8,24.9,219,18.8,250.2,18.8 M250.2,8.8C117.1,8.8,9.3,116.6,9.3,249.7s107.9,240.9,240.9,240.9s240.9-107.9,240.9-240.9
		S383.3,8.8,250.2,8.8L250.2,8.8z"/>
</g>
<g>
	<g>
		<path class="st1" d="M182.9,215.5c4.7,0,8.9,2.7,10.8,7l21.2,46.8c0.7,1.6,1.1,3.2,1.1,4.9v86.7c0,6.6-5.3,11.9-11.9,11.9h-37.7
			h-8.2h-37.7c-6.6,0-11.9-5.3-11.9-11.9v-86.7c0-1.7,0.4-3.4,1.1-4.9l20.6-45.5c2.3-5,7.3-8.3,12.8-8.3h15.1h8.2H182.9
			 M182.9,213.2h-16.5h-8.2h-15.1c-6.4,0-12.3,3.8-14.9,9.6l-20.6,45.5c-0.8,1.8-1.3,3.8-1.3,5.8v86.7c0,7.8,6.3,14.2,14.2,14.2
			h37.7h8.2h37.7c7.8,0,14.2-6.3,14.2-14.2v-86.7c0-2-0.4-4-1.3-5.8l-21.2-46.8C193.5,216.5,188.5,213.2,182.9,213.2z"/>
		<rect x="106.4" y="279.8" class="st1" width="111.8" height="51.4"/>
		<polygon class="st3" points="182.6,298.8 169.1,298.8 169.1,285.3 155.6,285.3 155.6,298.8 142.1,298.8 142.1,312.2 155.6,312.2 
			155.6,325.7 169.1,325.7 169.1,312.2 182.6,312.2 		"/>
		<path class="st1" d="M202.4,225h-80c-3.4,0-6.1-2.7-6.1-6.1v-11c0-3.6,2.9-6.5,6.5-6.5h79.6c3.4,0,6.1,2.7,6.1,6.1v11.4
			C208.5,222.3,205.7,225,202.4,225z"/>
	</g>
	<g>
		<path class="st1" d="M341.2,140.7c6.8,0,13.1,4,15.9,10.3l31.1,68.7c1,2.3,1.6,4.7,1.6,7.2v127.4c0,9.6-7.8,17.5-17.5,17.5H317
			h-12h-55.3c-9.6,0-17.5-7.8-17.5-17.5V226.9c0-2.5,0.5-4.9,1.6-7.2l30.2-66.8c3.3-7.4,10.7-12.2,18.9-12.2H305h12H341.2
			 M341.2,137.4H317h-12h-22.1c-9.4,0-18,5.5-21.9,14.1l-30.2,66.8c-1.2,2.7-1.9,5.6-1.9,8.6v127.4c0,11.5,9.3,20.8,20.8,20.8H305
			h12h55.3c11.5,0,20.8-9.3,20.8-20.8V226.9c0-3-0.6-5.9-1.9-8.6l-31.1-68.7C356.8,142.2,349.4,137.4,341.2,137.4z"/>
		<rect x="228.9" y="235.2" class="st1" width="164.2" height="75.4"/>
		<polygon class="st3" points="340.7,263 320.9,263 320.9,243.2 301.1,243.2 301.1,263 281.3,263 281.3,282.8 301.1,282.8 
			301.1,302.6 320.9,302.6 320.9,282.8 340.7,282.8 		"/>
		<path class="st1" d="M369.8,154.8H252.2c-5,0-9-4-9-9v-16.1c0-5.3,4.3-9.6,9.6-9.6h116.9c5,0,9,4,9,9v16.7
			C378.8,150.7,374.7,154.8,369.8,154.8z"/>
	</g>
</g>
</svg>
