<svg id="Layer_1" data-name="Layer 1" xmlns="http://www.w3.org/2000/svg" viewBox="0 0 500 500"><defs><style>.cls-1{fill:#aecb8d;}.cls-2{fill:#a7c87e;}</style></defs><path class="cls-1" d="M250.2,18.78a231,231,0,0,1,89.88,443.69A231,231,0,0,1,160.32,36.93,229.43,229.43,0,0,1,250.2,18.78m0-10C117.15,8.78,9.29,116.65,9.29,249.7S117.15,490.62,250.2,490.62,491.12,382.75,491.12,249.7,383.26,8.78,250.2,8.78Z"/><path class="cls-2" d="M294.35,252q0,11.22-.36,22.43c-.25,7.47-.59,14.94-1.11,22.41-1,14.92-2.55,29.82-4.84,44.62S282.75,371,278,385.32a106.52,106.52,0,0,1-9.17,20.85,41.69,41.69,0,0,1-7.29,9.23,21.63,21.63,0,0,1-5.12,3.52,14.8,14.8,0,0,1-12.82.22,21.82,21.82,0,0,1-5.34-3.38,42.75,42.75,0,0,1-7.79-9.08,83.63,83.63,0,0,1-5.66-10.15q-2.48-5.2-4.48-10.57a221.66,221.66,0,0,1-6.77-21.77q-2.85-11-4.89-22.16a449.71,449.71,0,0,1-5.85-44.88c-.6-7.51-1.08-15-1.37-22.56S201,259.52,201,252c0-15.07.57-30.14,1.8-45.17s3.1-30,5.84-44.88q2.06-11.15,4.89-22.16A224.46,224.46,0,0,1,220.3,118c1.33-3.57,2.81-7.11,4.47-10.58a85.87,85.87,0,0,1,5.67-10.15,42.75,42.75,0,0,1,7.79-9.08,22,22,0,0,1,5.35-3.39,14.94,14.94,0,0,1,12.84.22,21.46,21.46,0,0,1,5.12,3.53,41.56,41.56,0,0,1,7.3,9.24A106.48,106.48,0,0,1,278,118.65c4.76,14.33,7.71,29.08,10.05,43.87s3.83,29.71,4.84,44.63c.51,7.46.85,14.94,1.1,22.41S294.36,244.51,294.35,252Zm0,0c0-7.48-.16-15-.45-22.43s-.76-14.93-1.35-22.38c-1.23-14.9-3.08-29.75-5.79-44.44q-2-11-4.84-21.84a216,216,0,0,0-6.63-21.29c-1.29-3.47-2.74-6.88-4.32-10.2a80.16,80.16,0,0,0-5.35-9.57,38.17,38.17,0,0,0-6.9-8,13.33,13.33,0,0,0-8.67-3.55,13.2,13.2,0,0,0-8.36,3.92,37.51,37.51,0,0,0-6.4,8.19,103,103,0,0,0-8.7,19.89c-4.62,13.92-7.53,28.47-9.84,43.07S213,192.71,212,207.51s-1.47,29.64-1.46,44.48c0,7.42.09,14.84.35,22.26s.59,14.82,1.1,22.22c1,14.8,2.51,29.56,4.78,44.19s5.22,29.16,9.84,43.08a102.71,102.71,0,0,0,8.7,19.9,37.25,37.25,0,0,0,6.41,8.19,11.58,11.58,0,0,0,17.05.36,38.21,38.21,0,0,0,6.91-8,80.27,80.27,0,0,0,5.34-9.57q2.38-5,4.33-10.21a218.75,218.75,0,0,0,6.63-21.29q2.81-10.81,4.82-21.84a442.31,442.31,0,0,0,5.79-44.44C293.78,281.9,294.32,266.94,294.35,252Z"/><path class="cls-2" d="M274.85,288.7Q265.57,295,256.07,301c-6.33,4-12.72,7.88-19.19,11.63-12.93,7.52-26.13,14.58-39.69,21s-27.44,12.16-42,16.24a107.51,107.51,0,0,1-22.4,4.08,42.12,42.12,0,0,1-11.73-.88,21.19,21.19,0,0,1-5.79-2.27,14.81,14.81,0,0,1-7.36-10.5,21.71,21.71,0,0,1-.19-6.32,42.83,42.83,0,0,1,3.16-11.53A85.32,85.32,0,0,1,116.15,312q2.92-5,6.26-9.64a220.48,220.48,0,0,1,14.24-17.79q7.51-8.52,15.62-16.46a450,450,0,0,1,33.9-30q8.84-7.06,17.94-13.77t18.47-13c12.5-8.41,25.29-16.4,38.43-23.79a448.17,448.17,0,0,1,40.46-20.3q10.38-4.55,21.1-8.35a220.3,220.3,0,0,1,21.82-6.58c3.71-.9,7.47-1.65,11.28-2.21a85.32,85.32,0,0,1,11.58-1,43.06,43.06,0,0,1,11.89,1.38,21.93,21.93,0,0,1,5.79,2.53,15.77,15.77,0,0,1,4.74,4.61,15.52,15.52,0,0,1,2.27,6.15,21.64,21.64,0,0,1-.05,6.23,41.86,41.86,0,0,1-3.57,11.21,106.74,106.74,0,0,1-12.14,19.27c-9.21,12-19.78,22.67-30.73,32.89s-22.47,19.8-34.27,29c-5.89,4.6-11.89,9.07-17.94,13.46S281.05,284.51,274.85,288.7Zm0,0q9.28-6.31,18.33-12.93c6-4.42,11.95-9,17.79-13.66a446.45,446.45,0,0,0,33.58-29.68q8-7.85,15.39-16.23a216.28,216.28,0,0,0,13.92-17.42c2.16-3,4.17-6.12,6-9.3a80.67,80.67,0,0,0,4.93-9.78,37.86,37.86,0,0,0,2.79-10.22,13.31,13.31,0,0,0-1.91-9.18,13.16,13.16,0,0,0-7.92-4.72,37.44,37.44,0,0,0-10.37-.72,103,103,0,0,0-21.35,3.93c-14.12,4-27.81,9.7-41.2,16s-26.47,13.32-39.29,20.77-25.38,15.38-37.68,23.7q-9.22,6.22-18.24,12.76c-6,4.35-12,8.78-17.8,13.35-11.71,9.11-23.08,18.64-33.94,28.7s-21.23,20.66-30.18,32.28a102.05,102.05,0,0,0-11.61,18.35,37.2,37.2,0,0,0-3.2,9.89,13.22,13.22,0,0,0,1.43,9.14,13.37,13.37,0,0,0,7.82,5.2,38,38,0,0,0,10.52,1.22,80.74,80.74,0,0,0,10.93-.93q5.46-.81,10.88-2.14a216.1,216.1,0,0,0,21.35-6.42q10.53-3.74,20.8-8.24a445.73,445.73,0,0,0,40.06-20.08C249.75,305,262.44,297,274.85,288.7Z"/><path class="cls-2" d="M229.19,291.08q-9.9-5.28-19.62-10.88c-6.47-3.74-12.91-7.56-19.25-11.53-12.69-7.91-25.11-16.28-37.09-25.28s-23.57-18.58-34-29.52A107,107,0,0,1,105.18,196a41.78,41.78,0,0,1-4.71-10.78,21.33,21.33,0,0,1-.69-6.18,15.61,15.61,0,0,1,1.61-6.34,15.89,15.89,0,0,1,4.23-5.07,21.66,21.66,0,0,1,5.49-3.12,43,43,0,0,1,11.68-2.6,85.21,85.21,0,0,1,11.62-.21q5.76.26,11.44,1A221.38,221.38,0,0,1,168.23,167q11.06,2.67,21.86,6.11c14.4,4.58,28.51,10,42.35,16,6.91,3,13.77,6.13,20.55,9.42s13.49,6.71,20.15,10.24c13.28,7.12,26.32,14.69,39,22.85A450.4,450.4,0,0,1,349,257.84c5.91,4.71,11.68,9.62,17.25,14.75a222.82,222.82,0,0,1,16,16.22c2.53,2.86,4.95,5.83,7.23,8.93a84,84,0,0,1,6.29,9.78,42.67,42.67,0,0,1,4.34,11.15,21.66,21.66,0,0,1,.47,6.31,14.83,14.83,0,0,1-6.23,11.22,21.6,21.6,0,0,1-5.53,2.87,42.38,42.38,0,0,1-11.58,2.09,106.66,106.66,0,0,1-22.71-1.74c-14.88-2.54-29.29-6.89-43.44-11.79s-28-10.6-41.65-16.74c-6.83-3.06-13.58-6.27-20.29-9.57S235.78,294.6,229.19,291.08Zm0,0c6.61,3.49,13.27,6.9,20,10.16s13.53,6.36,20.38,9.34a446.93,446.93,0,0,0,41.94,15.81q10.67,3.41,21.54,6A216.81,216.81,0,0,0,355,336.58c3.67.5,7.36.82,11,1a80,80,0,0,0,11-.22,38.07,38.07,0,0,0,10.34-2.3A11.56,11.56,0,0,0,395,319.86a37.42,37.42,0,0,0-4.21-9.51,102.65,102.65,0,0,0-13.45-17c-10.11-10.63-21.58-20.05-33.37-29s-24.15-17.17-36.73-25-25.46-15.25-38.55-22.23c-6.55-3.5-13.15-6.91-19.81-10.17s-13.36-6.46-20.12-9.5c-13.53-6.08-27.27-11.69-41.24-16.58s-28.18-9.12-42.64-11.6a103,103,0,0,0-21.65-1.69,37.31,37.31,0,0,0-10.24,1.8,11.56,11.56,0,0,0-8.35,14.87,37.74,37.74,0,0,0,3.84,9.88,79.28,79.28,0,0,0,5.93,9.22q3.27,4.46,7,8.62A215,215,0,0,0,137,227.82q8.22,7.58,17,14.55a445.9,445.9,0,0,0,36.48,26C203.07,276.49,216,284,229.19,291.08Z"/><path class="cls-2" d="M250.05,222.87A29.12,29.12,0,1,0,279.17,252,29.12,29.12,0,0,0,250.05,222.87ZM256.87,252a9.59,9.59,0,1,1,9.58-9.59A9.59,9.59,0,0,1,256.87,252Z"/><path class="cls-2" d="M355.33,335.53a10.24,10.24,0,1,1-10.24-10.24A10.24,10.24,0,0,1,355.33,335.53Z"/><circle class="cls-2" cx="283.11" cy="141.13" r="10.24"/><path class="cls-2" d="M241.4,315.05a10.24,10.24,0,1,1-10.24-10.24A10.23,10.23,0,0,1,241.4,315.05Z"/></svg>