<svg id="Layer_1" data-name="Layer 1" xmlns="http://www.w3.org/2000/svg" viewBox="0 0 500 500"><defs><style>.cls-1{fill:#aecb8d;}.cls-2{fill:#a7c87e;}</style></defs><path class="cls-1" d="M250.2,18.78a231,231,0,0,1,89.88,443.69A231,231,0,0,1,160.32,36.93,229.43,229.43,0,0,1,250.2,18.78m0-10C117.15,8.78,9.29,116.65,9.29,249.7S117.15,490.62,250.2,490.62,491.12,382.75,491.12,249.7,383.26,8.78,250.2,8.78Z"/><path class="cls-2" d="M136.65,301V346.2h48V301Zm8.68,30.1c-.86,0-1-.73-1-1.42q0-6,0-12c0-.63.1-1.3.94-1.28s.88.71.88,1.33c0,2,0,4.06,0,6.09h0c0,1.92,0,3.85,0,5.78C146.15,330.25,146.26,331.1,145.33,331.13Zm31.73-1.42c0,.6,0,1.37-.77,1.43s-1-.7-1.06-1.39q0-6,0-12c0-.63.1-1.31.92-1.33,1,0,.9.79.91,1.44,0,2,0,4,0,5.94S177.07,327.73,177.06,329.71Z"/><path class="cls-2" d="M117.14,312q-8.48.09-17,0c-1.36,0-1.74.52-1.74,1.81q.06,17.63,0,35.27c0,1.45.54,1.82,1.89,1.81,5.6,0,11.2-.06,16.8,0,1.42,0,1.84-.52,1.83-1.88,0-5.8,0-11.6,0-17.41s0-11.81,0-17.71C119,312.55,118.58,312,117.14,312Zm.21,23.12a1.53,1.53,0,0,1-1.72,1.69c-1.32,0-2.64,0-4,0a1.45,1.45,0,0,1-1.6-1.62c0-1.27,0-2.54,0-3.82s0-2.44,0-3.66a1.46,1.46,0,0,1,1.62-1.61h4a1.55,1.55,0,0,1,1.71,1.71Q117.41,331.46,117.35,335.13Z"/><path class="cls-2" d="M112.34,327.75c2.64.31,2.64.31,2.64,3.05,0,.81,0,1.63,0,2.44,0,1.19-.41,1.85-1.68,1.77-.34,0-.68,0-1,0a6,6,0,0,0,2,.28c1.17.1,1.7-.37,1.62-1.57,0-.92,0-1.83,0-2.75C115.78,327.56,116.55,327.49,112.34,327.75Z"/><path class="cls-2" d="M108.46,263.77h.31c.66,0,1.32,0,2,0,1,.05,1.47-.46,1.42-1.47a5.94,5.94,0,0,0-.43-3,1.12,1.12,0,0,1,0-1.17c.62-1,.34-2.17.38-3.27,0-.83-.38-1.2-1.2-1.2-1.43,0-2.85,0-4.27,0-.53,0-1.07.1-1.12.77a6.92,6.92,0,0,0,.17,3.3,2.33,2.33,0,0,1,0,2C104.66,262.59,105.5,263.77,108.46,263.77Z"/><path class="cls-2" d="M209.14,302.13v45.05H372.72V302.13Zm26,29c0,.66,0,1.47-.94,1.45s-.89-.84-.9-1.5q0-5.93,0-11.87c0-.66.06-1.46,1-1.44s.87.83.87,1.49c0,2,0,3.95,0,5.93S235.15,329.15,235.13,331.13Zm30.9.13c0,.62,0,1.34-.88,1.34s-1-.68-1-1.31q0-6.1,0-12.22c0-.63.18-1.33.95-1.34,1,0,.88.82.89,1.47,0,2,0,4,0,5.95S266,329.22,266,331.26Zm51.65-.15c0,.67,0,1.48-.92,1.47s-.93-.81-.93-1.48c0-4,0-7.91,0-11.87,0-.67.07-1.46.95-1.46s.9.81.91,1.47c0,2,0,4,0,5.94S317.7,329.13,317.68,331.11Zm30.9,0c0,.66,0,1.48-.91,1.45s-.94-.82-.94-1.49q0-6,0-11.91c0-.68.13-1.45,1-1.46s.86.86.86,1.5c0,2,0,4.07,0,6.1S348.6,329.2,348.58,331.14Z"/><path class="cls-2" d="M327.45,262.39c0,2.63,0,4.52,0,6.4,0,.83-.09,1.72-1.36,1.44-.91-.19-.93.66-1.16,1.14a17.47,17.47,0,0,1-7.69,8.22,13.12,13.12,0,0,1-15.71-3.23A22,22,0,0,1,298,271c-.2-.45-.31-1-1.07-.78-1,.28-1.26-.49-1.25-1.24.08-5.29-.55-10.62.6-15.84,1.33-6,4.13-11.14,9.93-13.92,4.88-2.34,9.59-1.51,13.71,1.9,4.39,3.62,6.42,8.55,7.24,14.07A50.19,50.19,0,0,1,327.45,262.39Zm-1.75.55c.21-1.05.6-1.95-.79-2.25a1.09,1.09,0,0,1-1-1,1.07,1.07,0,0,1,1-1.16c1.05-.12,1-.8.95-1.54a23.1,23.1,0,0,0-2.78-9.14c-2.1-3.57-4.87-6.38-9.09-7.38-.76-.18-1.28-.26-1.31.78a1,1,0,0,1-1,1c-.56.05-1.15-.22-1.18-.75-.09-1.64-1.09-1.07-1.9-.85-7.26,2-11.05,10.35-11.37,16.91-.07,1.28,1.14,1.07,1.75,1.24.85.22.6-.73.62-1.19a19.75,19.75,0,0,1,3.09-9.63c4.52-7.1,12.86-7.2,17.56-.24a19.07,19.07,0,0,1,3.27,11.4C323.46,260.81,324.32,261.88,325.7,262.94Zm-.53,3.15a1.4,1.4,0,0,0-.55-1.35c-.35-.34-.51-1.07-1.07-.94s-.43.86-.54,1.32a19.64,19.64,0,0,1-3.86,7.88,9.56,9.56,0,0,1-13.38,1.64c-3.06-2.33-4.65-5.57-5.6-9.2-.15-.58,0-1.74-.71-1.58a2.31,2.31,0,0,0-1.53,2.06,2.37,2.37,0,0,0,.19.89,17.91,17.91,0,0,0,2,4.78c2.16,3.46,4.86,6.27,9.06,7.17.6.13,1.21.39,1.23-.67a1.07,1.07,0,0,1,1.21-1.1,1.06,1.06,0,0,1,1.1,1.07c0,1,.54.84,1.2.7C319.94,277.55,324,271.38,325.17,266.09ZM302.12,257c.94-.23,1.16-.93,1.57-1.41,1.63-1.92,1.89-1.91,3.19.21a7.77,7.77,0,0,0,.48.78c.29.37.36,1.14,1,.92s.42-.87.43-1.36c0-1.28,0-2.55,0-3.82s.46-1.75,1.71-1.72c2.18,0,4.37,0,6.55,0,.45,0,1,0,1.18-.5s-.24-.75-.49-1.05c-3.55-4.37-8.17-4.55-12-.42A14.54,14.54,0,0,0,302.12,257Zm9.56,11.94h-6.25c-.38,0-.88-.16-1.1.29s.19.75.41,1.08c3.61,5.58,10.09,5.55,13.68-.05.59-.91.59-1.35-.65-1.33C315.74,269,313.71,268.94,311.68,268.94Zm-6.19-6.06h-1.37c-2.05,0-2.32.43-1.64,2.36a1.29,1.29,0,0,0,1.37,1c1.22,0,2.44,0,3.67,0,.89,0,1.24-.42,1.29-1.31.08-1.76-.11-2-1.94-2Zm-.94-1.59h1.65c1.55,0,1.71-.3.95-1.67-.15-.27-.32-.52-.48-.78-1.41-2.38-1.45-2.41-3.2-.2-.56.7-1.81,1.37-1.34,2.3S303.8,261.14,304.55,261.29Z"/><path class="cls-2" d="M336.94,262.26c-.14-3.95,0-8.61,1.81-13.06a18.53,18.53,0,0,1,7.53-9.34c5.94-3.54,13-1.91,17.5,3.9a24.27,24.27,0,0,1,4.91,14.35c.16,3.51.06,7,0,10.53,0,.89.09,2-1.46,1.59-.71-.18-.74.55-.95,1a18.67,18.67,0,0,1-6.13,7.45,13.12,13.12,0,0,1-17.52-2.37,25.91,25.91,0,0,1-3-4.39c-.44-.82-.51-2-2-1.6-.59.14-.67-.77-.67-1.33C336.93,267,336.94,265,336.94,262.26Zm15.87-16.56c-3,0-5,1.8-6.67,4-.25.32-.51.89.21.84,2.12-.14,1.88,1.27,1.92,2.62s-.27,2.54.48,3.72c.44.7.73.95,1.48.31a3.7,3.7,0,0,1,4.92-.17c1,.74,1.41.52,1.92-.46.69-1.34,1.32-2.77,3.41-2.08,1,.32,1.2-.36.85-1.28a13.68,13.68,0,0,0-3.9-5.74A7,7,0,0,0,352.81,245.7ZM338.49,257c0,1,.9,2.1,1.81,1.9s.52-1.07.57-1.67a19.21,19.21,0,0,1,4.26-10.92,9.72,9.72,0,0,1,15.48.18,19,19,0,0,1,4.17,12.33,4,4,0,0,0,1.23,3.3c.28.25.38.83.91.62.15-.07.23-.43.24-.67,0-.43.16-.95-.39-1.2-.23-.1-.5-.09-.74-.18a1.16,1.16,0,0,1-.82-1,1,1,0,0,1,.86-1.1c1.15-.16,1.19-.92,1.08-1.79a22.62,22.62,0,0,0-3.69-10.4c-2.08-2.95-4.69-5.23-8.38-5.95-.63-.13-1.07-.22-1.09.68a1.08,1.08,0,0,1-1.21,1.11,1.13,1.13,0,0,1-1.13-1.2c0-.77-.41-.83-1-.66s-1,.27-1.46.43C343,243,339.18,249.84,338.49,257Zm28,9.09a1.67,1.67,0,0,0,0-.25,2.45,2.45,0,0,0-1.48-2c-.86-.21-.61.95-.75,1.48a19.19,19.19,0,0,1-4,7.83,9.56,9.56,0,0,1-13.16,1.56c-3.14-2.34-4.69-5.65-5.72-9.3-.16-.55,0-1.76-.73-1.53a2.23,2.23,0,0,0-1.48,2.24,2.45,2.45,0,0,0,.19.74,39.11,39.11,0,0,0,1.46,3.68c2.06,4,4.93,7.08,9.49,8.2.67.17,1.31.43,1.34-.7a1,1,0,0,1,1.14-1,1,1,0,0,1,1.16,1c0,1.09.63.9,1.34.74,3.38-.72,5.79-2.87,7.83-5.48A18.38,18.38,0,0,0,366.45,266.11Zm-13.64,2.83h-6.4c-.69,0-1.2.2-.66,1,1.8,2.58,3.86,4.7,7.4,4.56,3.05-.12,4.87-2,6.52-4.21.23-.3.63-.65.37-1.08s-.74-.25-1.13-.25Zm1-2.73h4.58A1,1,0,0,0,359.5,265c-.05-.75.35-1.81-.78-2a4.61,4.61,0,0,0-3.29.2,4.55,4.55,0,0,1-5.17,0c-.54-.34-1.24-.54-1.7,0s-.33,1.56-.21,2.35.68.68,1.2.68Zm5.39-9.55a18,18,0,0,0-2.06,3.12c-.24.37-.56.85-.23,1.25s1,.22,1.57.23.93-.19.95-.75A9.27,9.27,0,0,0,359.22,256.66Z"/><path class="cls-2" d="M286.18,263c0,1.89,0,3.77,0,5.66,0,.88,0,1.83-1.43,1.52-.81-.18-.84.62-1.06,1.07a18.4,18.4,0,0,1-5.79,7.17c-6.19,4.38-14.05,2.9-18.83-3.57a32.32,32.32,0,0,1-2.15-3.51c-.37-.67-.49-1.42-1.61-1.1-.54.16-.88-.5-.87-1,.12-6.74-.88-13.58,1.79-20.09a19.34,19.34,0,0,1,6.39-8.6c6.19-4.52,14.31-2.9,19,3.7a25.19,25.19,0,0,1,4.52,14.05C286.24,259.88,286.18,261.46,286.18,263Zm-9.56-6.47c-.42,1.66-.11,3.08-.27,4.46-.09.75-.23,1.61-1.27.64-.7-.64-1.05,0-1.45.45-2.1,2.61-4.81,2.56-6.79-.17a1.63,1.63,0,0,0-1.64-.87,13.34,13.34,0,0,1-3,0c-.73,0-1.63,0-1.49,1.19a16.53,16.53,0,0,0,3.22,8.61c3.93,5,9.39,4.79,13.07-.41a19.1,19.1,0,0,0,2.55-6C280.46,261.2,278.71,259,276.62,256.57Zm5.84,2.5c.75-.77,2.5-.33,2.18-2.21a26.94,26.94,0,0,0-2.57-8.59c-2.1-3.78-4.91-6.74-9.31-7.81-.7-.17-1.3-.35-1.34.74a1,1,0,0,1-1.16,1,1,1,0,0,1-1.13-1c0-.95-.51-.9-1.21-.74a13.21,13.21,0,0,0-7.32,4.69,22.26,22.26,0,0,0-4.68,12.07c-.18,1.55,1.18,1.44,1.91,1.6s.45-.83.48-1.3a19.23,19.23,0,0,1,3.3-9.88c3.81-5.62,10-6.71,15-2.61a14,14,0,0,1,4.12,6A25.92,25.92,0,0,1,282.46,259.07Zm1.44,7a1,1,0,0,0-.29-1c-.46-.43-.66-1.37-1.37-1.24-.55.1-.43.95-.55,1.47a19.26,19.26,0,0,1-3.84,7.73,9.58,9.58,0,0,1-13.39,1.59c-3-2.34-4.6-5.6-5.58-9.22-.15-.56,0-1.76-.72-1.53a2.21,2.21,0,0,0-1.49,2.24,3.8,3.8,0,0,0,.18.74,18.45,18.45,0,0,0,2.08,4.9c2.16,3.41,4.87,6.13,9,7,.69.14,1.18.25,1.19-.73a1.08,1.08,0,0,1,1.11-1.06,1,1,0,0,1,1.17,1c0,1.24.72.93,1.42.78,3.28-.69,5.64-2.75,7.63-5.26A18.38,18.38,0,0,0,283.9,266.06Zm-5.21-10c.57-3-.68-5.32-2.49-7.31-3.93-4.33-8.47-4.17-12.18.35-.3.37-.88.76-.57,1.28s.84.2,1.29.2q4.93,0,9.87,0c.95,0,1.87.15,1.73,1.35C276.12,253.89,277.42,254.84,278.69,256.08Z"/><path class="cls-2" d="M244.9,263c0,1.94,0,3.87,0,5.81,0,.85-.14,1.71-1.4,1.39-.75-.18-.78.51-1,.92a19.11,19.11,0,0,1-5.75,7.22c-6.2,4.53-14.26,3-19-3.58-.72-1-1.32-2.06-1.94-3.11-.44-.72-.48-1.81-1.88-1.42-.49.14-.76-.61-.75-1.13.12-6.09-.74-12.25,1.2-18.21,1.62-5,4.29-9.29,9.22-11.63s9.59-1.6,13.73,1.79c4.4,3.6,6.5,8.5,7.33,14A56.83,56.83,0,0,1,244.9,263Zm-6.33-.38c-.88.05-.91,1-1.51.77s-.39-1-.42-1.51,0-1,0-1.52c0-1.06.17-2.14-.6-3.07-.46-.56-.79-.75-1.22,0s-1.07,1.74-1.6,2.6a1.31,1.31,0,0,1-1.63.65,8.61,8.61,0,0,0-4.95.17,1.22,1.22,0,0,1-1.58-.52c-.32-.45-.6-.94-.89-1.42-1.45-2.31-1.49-2.34-3.17-.24-.67.84-1.82,1.53-1.69,2.78.46,4.34,1.6,8.41,5.11,11.39a6.42,6.42,0,0,0,7.53,1.08C236.29,271.5,237.79,267.35,238.57,262.64Zm-18.8-5.6a4.56,4.56,0,0,0,1.37-1.44c1.64-1.94,1.89-1.92,3.19.2.21.35.44.69.62,1.05.38.75.74.88,1.5.31,1.73-1.31,3.24-1.43,4.76-.24,1.1.86,1.56.63,2.11-.49.66-1.36,1.3-2.77,3.36-2,.77.31,1.23-.22.87-1.15a13.83,13.83,0,0,0-2-3.9c-1.62-2-3.4-3.52-6.18-3.76C224.19,245.23,219.74,252.14,219.77,257Zm23.58-.15a23.63,23.63,0,0,0-2.36-8.23c-2.08-4-5-7.08-9.52-8.2-.73-.18-1.28-.31-1.32.76a1,1,0,0,1-1.17,1,1,1,0,0,1-1.13-1c0-1-.54-.88-1.22-.72a12,12,0,0,0-5,2.45c-3.86,3.17-5.8,7.4-6.64,12.21a18,18,0,0,0-.29,2.42c0,1.32,1.25,1.06,1.91,1.27s.42-.73.46-1.17A20.41,20.41,0,0,1,220.8,247a9.84,9.84,0,0,1,16.17-.32,19.91,19.91,0,0,1,4,10.88c0,.46-.24,1.11.4,1.33S243.35,258,243.35,256.89Zm-12.46,22,.6-.12a11.58,11.58,0,0,0,1.31-.38c5.22-2.08,7.95-6.24,9.61-11.34a2.2,2.2,0,0,0-.61-2.61c-.25-.23-.39-.72-.78-.64s-.39.65-.48,1a19.18,19.18,0,0,1-4,8.3,9.58,9.58,0,0,1-13.28,1.57c-3.11-2.36-4.69-5.66-5.65-9.34-.15-.54-.07-1.63-.65-1.48a2.35,2.35,0,0,0-1.56,2.05,3,3,0,0,0,.2,1,18.14,18.14,0,0,0,1.87,4.5c2.16,3.53,4.88,6.4,9.14,7.3.46.1,1.16.6,1.22-.46,0-.77.43-1.3,1.22-1.28s1.13.59,1.15,1.35C230.21,278.82,230.44,279,230.89,278.86Z"/><path class="cls-2" d="M291,215.44c-3.26,0-6.52,0-9.78,0-1.22,0-1.74-.46-1.73-1.71q.06-6.87,0-13.75c0-1.27.56-1.68,1.76-1.67q9.71,0,19.4,0c1.29,0,1.84.45,1.82,1.78q-.06,6.79,0,13.59c0,1.36-.59,1.77-1.85,1.76C297.36,215.42,294.15,215.44,291,215.44Zm-.06-1.25c2.85,0,5.71,0,8.56,0,1.23,0,1.73-.38,1.71-1.66-.06-3.77-.05-7.54,0-11.31,0-1.15-.35-1.65-1.58-1.65-5.75,0-11.51,0-17.27,0-1.31,0-1.64.54-1.63,1.74.05,3.72.07,7.44,0,11.16,0,1.38.53,1.76,1.81,1.73C285.28,214.15,288.09,214.19,290.89,214.19Z"/><path class="cls-2" d="M321.71,208.15a2.38,2.38,0,0,1-2.47-2.32,2.54,2.54,0,1,1,5.08-.05A2.4,2.4,0,0,1,321.71,208.15Z"/><path class="cls-2" d="M355.41,293.1a1.77,1.77,0,0,1-.05-3.53,1.85,1.85,0,0,1,1.9,1.78A1.74,1.74,0,0,1,355.41,293.1Z"/><path class="cls-2" d="M167.54,259.88c0,1.94,0,3.87,0,5.8,0,.84-.25,1.72-1.32,1.26s-1.23.14-1.59.79a17.11,17.11,0,0,1-6.3,6.9c-6.62,3.8-14.33,1.66-18.64-5.17-.38-.6-.76-1.21-1.08-1.84s-.6-1.4-1.64-.66c-.55.4-1.15-.12-1.15-.77,0-7.84-1.11-15.84,3-23.15a17.72,17.72,0,0,1,5.13-6c6.84-4.84,14.52-2.38,18.87,3.36a24.91,24.91,0,0,1,4.73,14.26C167.61,256.42,167.54,258.15,167.54,259.88Zm-23,5.45c.7-1.14,2.11-1.68,1.87-3.26-.06-.4.26-.66.66-.7a6,6,0,0,1,2.57.08c.77.25.44,1.05.62,1.59a2.68,2.68,0,0,0,.8,1.1,4,4,0,0,1,1.27,3.15c0,.66,0,1.33,0,2,0,.82.32,1.14,1.13.86a7.84,7.84,0,0,0,1.28-.48c3.38-1.86,4.93-5,6-8.51a1.21,1.21,0,0,0-.32-1.13,37.9,37.9,0,0,0-2.43-2.94c-1-1.05-2-.88-2.86.35-1.83,2.72-5.15,2.7-6.88-.05a1.59,1.59,0,0,0-2.75-.36c-.92.94-1.7,2-2.53,3.05a1.25,1.25,0,0,0-.26,1.15A11.88,11.88,0,0,0,144.49,265.33Zm7.41-27c2.76-.1,5.22,1.31,7.21,3.6,4.39,5,5,11.08,4.31,17.38a3.26,3.26,0,0,0,.77,2.64c.59.73,1,.72,1.17-.21.25-1.25.44-2.51.63-3.76.1-.72,0-1.29-1-1.33a1,1,0,0,1-1-1.17,1,1,0,0,1,.88-1.09c1.3,0,1.13-.92,1-1.72a23.55,23.55,0,0,0-2.35-8.17c-2-4-4.87-7.13-9.43-8.3-.77-.2-1.38-.35-1.41.81a1,1,0,0,1-1.17,1,1,1,0,0,1-1.07-.9c0-1.45-.88-1-1.66-.83-7.33,1.9-11.34,10.51-11.57,17.24,0,1.32,1.34.81,2,1.19.41.24.35-.77.38-1.21A19.13,19.13,0,0,1,144.09,242,9.64,9.64,0,0,1,151.9,238.33Zm4.13,4.48a1,1,0,0,0-.54-.94,6.34,6.34,0,0,0-4.89-1.2c-3.38.69-7.14,4.74-7.66,8.15a1.23,1.23,0,0,0,.74,1.35c.94.6,1.89,1.18,2.82,1.79,1.78,1.15,2.58,1.07,4-.5a5.8,5.8,0,0,0,.53-.74c1.53-2.39,3.05-4.79,4.58-7.19C155.8,243.28,155.93,243,156,242.81Zm8.1,22.34a1.92,1.92,0,0,0-1.24-1.82c-.68-.27-.61.73-.88,1.15s-.57,1.19-.89,1.77c-1.56,2.78-3.59,5.1-6.75,6.05-4.63,1.41-9.18-.76-12-5.62A27.26,27.26,0,0,1,141,263.8c-.3-.7-.59-.72-1.06-.16s-1.06,1.16-.67,2c2,4.53,5,8,10.06,9.21.63.16,1.09.2,1.12-.68a1.07,1.07,0,0,1,1.22-1.09,1,1,0,0,1,1.11,1c0,1,.57.85,1.23.7,3.88-.88,6.51-3.38,8.62-6.57A8.58,8.58,0,0,0,164.13,265.15Zm-2.68-9.85a25.82,25.82,0,0,0-1.3-7.15,5.11,5.11,0,0,0-2.45-2.78c-.71-.43-1.09-.22-1.47.41-.9,1.48-1.77,3-2.78,4.37-.73,1-.77,1.65.46,2.19a2.59,2.59,0,0,1,1.2,1.34,1.38,1.38,0,0,0,1.44.91,3.09,3.09,0,0,1,2.84,1.42c.48.6.86,1.81,1.65,1.54S161.25,256.09,161.45,255.3Zm-14.55-.83a20.28,20.28,0,0,0-3.83-2.6c-.58-.35-.84,0-.95.56a20.61,20.61,0,0,0-.13,5.7C143.7,256.73,144.33,254.46,146.9,254.47ZM137.22,258c.24,1.25.47,2.49.7,3.74.06.3.12.66.44.75s.51-.25.71-.47c.66-.75,1-4.68.52-5.5a.52.52,0,0,0-.33-.24A2.27,2.27,0,0,0,137.22,258Zm11.48,9.53c-.55,0-1.12,0-1.67,0s-.8.4-.29.87a7.77,7.77,0,0,0,3.59,1.9c.69.15.88-.19,1-.8C151.51,267.79,151.11,267.47,148.7,267.49Zm-.56-1c.56,0,1.12,0,1.67,0,.4,0,.91.06,1-.45a.94.94,0,0,0-.69-1.06,5.52,5.52,0,0,0-3.72,0,.92.92,0,0,0-.66,1.07c.12.5.63.42,1,.44S147.69,266.49,148.14,266.49Z"/><path class="cls-2" d="M290.83,212.1c-1.72,0-3.45,0-5.18,0-1.07,0-1.6-.41-1.6-1.52q0-3.66,0-7.31c0-1.07.43-1.59,1.54-1.58q5.34,0,10.67,0c1,0,1.52.41,1.52,1.44,0,2.49,0,5,0,7.47,0,1.12-.56,1.52-1.61,1.5C294.39,212.08,292.61,212.1,290.83,212.1Zm.14-1.22c1.43,0,2.85,0,4.27,0,.87,0,1.33-.34,1.33-1.26,0-1.83,0-3.65,0-5.48a1,1,0,0,0-1.2-1.21h-8.84c-.92,0-1.26.45-1.25,1.32,0,1.78,0,3.55,0,5.33,0,.89.39,1.3,1.29,1.3C288,210.87,289.5,210.88,291,210.88Z"/><path class="cls-2" d="M190.48,155.29v67.56H391.22V155.29ZM302,215H279.78v-16.7H302Zm19.66-5.57c-5,0-4.95-7.69,0-7.69S326.63,209.46,321.68,209.46Z"/><path class="cls-2" d="M110.3,284.35h13.44v-.29H110.29Z"/><path class="cls-2" d="M118.81,281.51c-.64,0-1.77-.37-1.8.49,0,.7,1.1.34,1.7.36,1.62.05,3.25,0,4.87,0h.16v-.89C122.1,281.48,120.46,281.47,118.81,281.51Z"/><path class="cls-2" d="M121.22,130.82H106.08c-3.41,0-6.82,0-10.24,0-1.26,0-1.79.44-1.67,1.69,0,.51,0,1,0,1.53V320.75c0,11.31,0,22.62,0,33.93,0,1.52.44,2,2,2q12.77-.09,25.53,0c1.24,0,1.85-.27,1.85-1.69q0-33.92,0-67.85c0-1.39-.55-1.73-1.82-1.71-3.21.06-6.42,0-9.63,0-3.54,0-3.19.36-3.27-3.33,0-1.41.54-1.89,1.9-1.87,3.51.05,7,0,10.55,0,2.24,0,2.25,0,2.25-2.32V133.09C123.5,130.82,123.49,130.82,121.22,130.82Zm-12.41,78.31a1.63,1.63,0,0,1,1.78,1.68,1.73,1.73,0,0,1-1.74,1.9c-1-.11-1.77-.63-1.79-1.7A1.68,1.68,0,0,1,108.81,209.13Zm9.94,101.1c1.84,0,2,.16,2,2q0,9.54,0,19.1t0,19.25c0,1.93-.15,2.07-2.11,2.07H98.92c-1.84,0-2-.17-2-2q0-19.19,0-38.36c0-1.92.15-2.07,2.11-2.07ZM111.57,265c-1.88,0-3.77,0-5.66,0-1,0-1.39-.39-1.39-1.37,0-3.16,0-6.31,0-9.47,0-.93.33-1.44,1.33-1.43,2,0,4,0,6,0,1,0,1.35.48,1.34,1.42,0,1.53,0,3.05,0,4.58s0,3.06,0,4.58C113.19,264.43,112.78,265,111.57,265Zm2.33-58a1.64,1.64,0,0,1-1.66-1.81,1.54,1.54,0,0,1,1.73-1.67,1.61,1.61,0,0,1,1.77,1.68C115.75,206.34,115,206.92,113.9,207Z"/><polygon class="cls-2" points="123.74 129.62 123.74 129.6 123.53 129.6 123.74 129.62"/><path class="cls-2" d="M437.31,241.71q-18.88,0-37.76,0c-2.26,0-2.26,0-2.61,2.16.25-1-1-1.79-.58-2.74.71-1.58.45-3.2.49-4.81,0-.58.23-1.3-.37-1.7s-.88.65-1.52.66c-.45-.64-.24-1.38-.24-2.06q0-37.2,0-74.42c0-.51,0-1,0-1.53a1.65,1.65,0,0,0-1.59-2c-.4-.05-.92-.08-1-.56-.19-1.47-1.25-1.34-2.28-1.34q-16.59,0-33.17,0c-.63,0-1.75.35-1.7-.66,0-.8,1.1-.44,1.7-.46a4,4,0,0,0,3.77-3.69,3,3,0,0,0-.49-2.17c-1.48-1.8-1.45-2.06,0-3.91s-.09-5.63-2.17-5.81c-1.54-.14-3.2-.38-4.39,1.09a1.51,1.51,0,0,1-1.27.38c-2.52,0-5.05.17-7.55.2-17,.18-33.94.09-50.9.1a2.1,2.1,0,0,1-2-.86,1.84,1.84,0,0,0-2.9-.05,1.79,1.79,0,0,1-1.9.91q-24.84,0-49.68,0c-1.2,0-2.26-.52-3.44-.59-3.94-.21-7.57,1.48-11.41,1.82a.86.86,0,0,0-.9.85c0,.63.33.93.93,1,.91.09,1.82.13,2.73.28,2.18.36,2.33.61,2.32,2.75a2.15,2.15,0,0,1-2.12,2.46c-.85.1-1.71.2-2.57.27-.65.05-1.28.13-1.29,1s.57,1.11,1.3,1.18c1.11.11,2.23.23,3.34.36a1.36,1.36,0,0,1,1.34,1.52c.08,1.88-.08,2.09-2,2.09H192.27a14.13,14.13,0,0,0-2.59.2c-1.6.29-1.92,0-1.92-1.59,0-3.72,0-7.44,0-11.16,0-1.91-.16-2-2.12-2.06h-6.57c-3.26,0-3.82-.56-3.53-3.72a2.4,2.4,0,0,1,2.08-2.42,21.6,21.6,0,0,1,2.89-.29c.57,0,1-.28,1-.92s-.4-.9-1-.93a23.2,23.2,0,0,1-2.88-.28,1.27,1.27,0,0,1-1.24-1.4c-.12-2.29-.16-2.25-2.48-2.31-1,0-2.22.42-3.07-.47a11.06,11.06,0,0,0-5.13-2.87H148c-1.58.57-3.22,1-4.37,2.37a3.22,3.22,0,0,1-2.59,1c-1.32,0-2.76-.46-3.89.73a.73.73,0,0,1-1-.14c-.84-.86-1.4-.47-1.92.36a8.4,8.4,0,0,1-1,1.53,3.3,3.3,0,0,0-.58,3.95c.67,1.41,1.63,2.85,3.72,2.44,1.22-.25,1.56.51,1.55,1.63s-.23,1.75-1.51,1.73c-3.37-.05-6.73,0-10.09,0-1.1,0-1.58-.39-1.55-1.52,0-1.88,0-3.77,0-5.65s-.17-2-2-2H94.93c-1.85,0-2,.18-2,2,0,4.68,0,9.37,0,14,0,1.05-.53,2-.42,3a51.09,51.09,0,0,1-.16,15.27,3.86,3.86,0,0,0,.12,2.11,7.22,7.22,0,0,1,.43,3.14c-.33,11.12.61,22.26-.51,33.39-.37,3.71.3,7.48.42,11.22.29,9.31.1,18.64.09,28a11,11,0,0,1-.49,4.51,2.9,2.9,0,0,0,0,2.09c.63,1.44.44,2.9.5,4.36.21,5.2-.32,10.4,0,15.6a77.85,77.85,0,0,1,0,7.79c-.24,5.47.68,11-.56,16.41a2.25,2.25,0,0,0,0,1.36c1.16,2.51.34,5.17.44,7.72a73.08,73.08,0,0,1-.33,13.38,39.12,39.12,0,0,0,.3,10c.51,4.37.12,8.85.15,13.28,0,.73-.71,1.36-.39,2a3.72,3.72,0,0,1-.1,3.08,3.36,3.36,0,0,0,0,2.55,6.42,6.42,0,0,1,.43,2.83q0,6.11,0,12.22c0,.77-.06,1.67,1,1.8s1.19.88,1.18,1.75c0,3.31,0,6.62,0,9.93,0,1.14.28,1.89,1.62,1.82.4,0,1-.19,1.09.5a1.17,1.17,0,0,1-.74,1.22c-.29.12-.58.21-.85.35-.51.25-1.07.52-.88,1.23s.7.68,1.23.69c1.27,0,2.55.05,3.82,0,.8,0,2,.41,2.22-.75s-.93-1.13-1.6-1.47a1.21,1.21,0,0,1-.75-1.22c0-.68.65-.55,1.06-.54,1.17.05,1.48-.56,1.47-1.61,0-3.36,0-6.72,0-10.08,0-1.33.43-1.78,1.77-1.77q10.32.07,20.64,0c1.37,0,1.75.51,1.72,1.8-.06,3.26,0,6.52,0,9.78,0,1.21.22,2,1.65,1.89.35,0,.8,0,.88.42a1.15,1.15,0,0,1-.46,1.22c-.16.11-.38.14-.55.24-.61.32-1.53.49-1.3,1.42s1.15.66,1.82.68a31.24,31.24,0,0,0,3.21,0c.8,0,2,.43,2.23-.72s-.92-1.17-1.63-1.49a1.14,1.14,0,0,1-.68-1.24c0-.58.55-.54.93-.53,1.35.07,1.6-.71,1.59-1.85,0-3.31,0-6.62,0-9.93,0-1.26.45-1.75,1.7-1.67s2.25-.06,3.36,0a4.78,4.78,0,0,1,3.77,2.43,7.66,7.66,0,0,0-6.61,11.65,7.17,7.17,0,0,0,8.17,2.92c3.86-1.23,6-5.74,4.62-9.86a3.19,3.19,0,0,1-.31-1.75c.6-3,3.65-3.46,5.29-5.35.1-.11.39-.05.6-.05h32.4a2.49,2.49,0,0,1,2.08,1.06,3,3,0,0,1,.64,2.52c-.26,1.93.25,3.93-.84,5.79a2.08,2.08,0,0,0,.44,2.27c1.1,1.36,2.11,2.74,1.2,4.69-.29.62.3,1.06.94,1.07,1.78,0,3.57,0,5.35,0,.7,0,1.4-.55.92-1.16-1.19-1.5-.47-2.6.42-3.78.24-.32.32-.83.8-.82s.5.57.65.92a7.08,7.08,0,1,0,13.16-5.21,4.17,4.17,0,0,1,2.67-5.26c.39-.1.72-.3.73-.68,0-.75.62-.83,1.09-1.09a5.2,5.2,0,0,1,2.7-.31H361.24c.41,0,.82,0,1.22,0,1.07.1,2.16.16,2.47,1.53a.69.69,0,0,0,.82.54c1.16-.26,1.48.57,1.91,1.34a5.63,5.63,0,0,1,.47,4.76,6.87,6.87,0,0,0,4.67,8.57,7.09,7.09,0,0,0,8.78-4.39c.15-.38.13-.87.59-1.21.94,1.64,2.62,2.91,1.41,5.12-.39.7.32,1.12,1,1.13,1.73,0,3.47.05,5.2,0,.78,0,1.38-.46,1-1.28-.78-1.62-.08-2.86.84-4.06s.74-2.53.25-4c-.75-2.26-1.17-4.81.23-6.86,1.63-2.43,1-4.82.83-7.32-.09-1.08-1.75-.74-1.43-1.55a6.12,6.12,0,0,0,.81-2.38c0-3.2,0-6.41,0-9.62,0-.62.09-1.33-.39-1.75-.95-.84-.86-1.9-.83-3,.44-13.68-1-27.41.88-41.06.2-1.52.28-1.68,1.9-1.14a1.75,1.75,0,0,0,2.28-.67,1.69,1.69,0,0,0-.49-2.43,2,2,0,0,1-.93-1.78c0-5.45,0-10.9,0-16.35,0-.5-.09-1.14.48-1.35,1.16-.42,1.05-1.35,1.07-2.27,0-1.75,0-1.75.62-2.38.73,2.41.73,2.41,3.57,2.41h36.84c2.71,0,3.27-.52,3.27-3.17q0-11.68,0-23.38C440.56,242.22,440,241.71,437.31,241.71ZM232.07,140H350.84c2.27,0,2.31,0,2.27,2.28-.06,3.75.74,3.72-3.68,3.37-1.95-.16-3.69.48-5.56.47-16.51-.06-33,0-49.53,0a3.46,3.46,0,0,1-2.89-.94,1.63,1.63,0,0,0-2.74.27c-.55.91-1.42.66-2.19.66q-22.54,0-45.09,0c-2.33,0-4.66.21-7-.47-1-.3-2.21.15-3.32.14-2.08,0-2.42-.39-2.4-2.39C228.75,139.61,228.3,140,232.07,140Zm.07,7.64H352a1,1,0,0,1,1.12,1.13v.15c-.05,5.34.69,4.41-4.1,4.41q-29.13.06-58.24,0H231c-2.26,0-2.28,0-2.26-2.29C228.75,147.23,228.26,147.65,232.14,147.65Zm-38.74,6.72q48.84,0,97.68,0t97.37,0c.67,0,1.92-.29,1.89.33,0,.92-1.23.48-1.9.48q-97.53,0-195,0c-.67,0-1.92.28-1.89-.34C191.55,153.94,192.73,154.37,193.4,154.37Zm-2.32,3.94c0-2.1,0-2.12,2.14-2.12h195c2.53,0,2.53,0,2.53,2.5V194c0,2.19,0,2.2-2.22,2.2H193.38c-2.3,0-2.3,0-2.3-2.27Zm0,41.31c0-2.19,0-2.21,2.23-2.21H388.16c2.6,0,2.6,0,2.6,2.6V218.5c0,2.09,0,2.11-2.16,2.11h-195c-2.52,0-2.52,0-2.52-2.51Q191.08,208.86,191.08,199.62Zm198.76,155c0,2.29,0,2.3-2.27,2.29-3.53,0-3.2.38-3.2-3.19q0-12.37,0-24.75V303c0-1.94.06-2,1.95-2,4,0,3.52-.38,3.52,3.52Q389.86,329.6,389.84,354.66Zm-.57,5.26c0,1.75-1,1.69-2.26,1.6-1.19.14-2.07,0-2.08-1.67s1.05-1.61,2.2-1.64S389.29,358.21,389.27,359.92Zm-3.06-133.46h0c-1,0-1.94,0-2.9,0-.47,0-1-.08-1-.69s.43-.76.92-.76c2.08,0,4.17,0,6.25,0,.43,0,.84.15.86.67s-.43.76-.92.77C388.34,226.47,387.27,226.46,386.21,226.46ZM207,233.83c-.8.53-.69,1.33.09,1.89.5.35.92.65.63,1.33-.19.45-.34,1-.92.36a1.22,1.22,0,0,0-1.77-.21c-.35.26-.71.48-1,0s-.36-.88.16-1.2c1.41-.88,1.18-1.66,0-2.55-.67-.5-.62-3.1-.07-3.58a5.46,5.46,0,0,1,3.55,0c.48.51.2,1.17.25,1.41C208,232.49,207.86,233.24,207,233.83Zm-.4,6.72c2.1-.06,3.14-1.14,3.21-3.25,0-.87,0-1.74,0-2.6s.41-1.53,1.46-1.49c.5,0,1,0,1.52,0H369.12c.46,0,.92,0,1.38,0,1.1-.06,1.6.46,1.55,1.55,0,.51,0,1,0,1.53,0,3.49.81,4.27,4.35,4.28,1.18,0,2.35,0,3.52,0s1.62.49,1.62,1.65c0,13.7,0,27.4,0,41.1,0,2.22-1.07,3.08-3.6,3.08H204.45c-3.5,0-4.16-.68-4.16-4.22q0-19.64,0-39.27c0-2.27.05-2.32,2.29-2.33C203.91,240.56,205.23,240.59,206.56,240.55Zm51.15-11.65c.78,0,1.68-.2,1.82,1,.16,1.43-.54,1.71-1.8,1.71-7.94,0-15.89,0-23.83,0H210.21c-.78,0-1.42,0-1.38-1.05,0-.95.08-1.78,1.35-1.7h.46Q234.18,228.9,257.71,228.9ZM212,225.71c0-.89.85-.72,1.42-.72q20.7,0,41.42,0c.61,0,1.53-.15,1.46.85s-.93.63-1.49.63H214.64c-.41,0-.82,0-1.23,0C212.84,226.43,212,226.6,212,225.71Zm102,3.2c.73,0,1.71-.38,2.06.75.41,1.29-.11,2-1.59,2H290.81c-7.78,0-15.57,0-23.36,0-1.16,0-1.88-.23-1.75-1.6.07-.73.37-1.13,1.12-1.14h1.07Q290.95,228.9,314,228.91Zm-45.13-3.22c0-.88.87-.7,1.44-.7h40.51c.36,0,.71,0,1.07,0,.51,0,1.11,0,1.08.77s-.65.68-1.15.71-.82,0-1.23,0H271.16c-.3,0-.61,0-.91,0C269.67,226.42,268.84,226.59,268.88,225.69Zm102,3.22c.73,0,1.71-.38,2.05.77s-.12,1.95-1.61,1.95H347.48c-7.79,0-15.58,0-23.37,0-1.1,0-1.93-.11-1.81-1.53.06-.82.39-1.23,1.21-1.22h.92Q347.64,228.9,370.86,228.91Zm-45.41-3.2a.65.65,0,0,1,.67-.68c.41,0,.82-.05,1.22-.05h40.93c.6.09,1.55-.24,1.54.76s-1,.72-1.56.73H327.47c-.46,0-.92,0-1.37-.06A.66.66,0,0,1,325.45,225.71Zm52.11,7.83c-1.09.87-1.16,1.61,0,2.36.58.36.54.81.24,1.29s-.68.24-1,0a1.18,1.18,0,0,0-1.54,0c-.32.25-.62.88-1,.14-.26-.46-.42-1,.14-1.35,1.36-.85,1.23-1.52.05-2.54-1-.84-.59-2.22-.33-3.31s1.32-.39,1.89-.62c.81.14,1.86-.26,2,.75S378.67,232.66,377.56,233.54Zm-186-11.5v-.29H390.29V222Zm8,3.72c0,.88-.87.68-1.44.71-.81,0-1.63,0-2.44,0s-1.83,0-2.75,0c-.58,0-1.38.12-1.36-.78s.75-.69,1.29-.7c1.78,0,3.56,0,5.34,0C198.73,225,199.56,224.84,199.52,225.76Zm-9,59.15q0-27.65,0-55.29c0-1.8,1.39-2.61,3.08-1.83a1,1,0,0,1,.57,1.14c-.35,4.53.87,9,.59,13.52a4.34,4.34,0,0,1-.6,2.62,1.43,1.43,0,0,0,0,1.73,4.19,4.19,0,0,1,.63,2.9v34.83c0,.46,0,.91,0,1.37,0,.79-.45,1.06-1.18,1.05s-1.18-.27-1.18-1.06c0-1.47,0-2.95,0-4.43,0-.51,0-1.11-.73-1.12s-.77.57-.77,1.09c0,1.62,0,3.24,0,4.86l-.3,0Zm-2.14-126.64c0-.3,0-.61.05-.91s.14-.53.43-.53.4.28.41.54c0,.46,0,.92,0,1.37v43.51c0,.41,0,.82,0,1.22s.2,1.26-.46,1.25-.44-.8-.44-1.26Q188.33,180.87,188.35,158.27Zm.42,48.7c.89,0,.48,1.16.48,1.79q0,19.71,0,39.41t0,39.12c0,.62.42,1.74-.49,1.77-.68,0-.4-1.1-.4-1.71q0-39.35,0-78.68C188.36,208.06,188.07,206.94,188.77,207ZM188.46,298c.6,0,1.33,0,1.34.84s-.77.9-1.42.93c-.25,0-.51,0-.76,0q-25,0-49.92,0c-.78,0-2.18.55-2.14-.9s1.42-.83,2.21-.83c8.3-.05,16.59,0,24.89,0h24.58C187.64,298,188.05,298,188.46,298Zm-27.65,47.62c-7.18,0-14.37,0-21.55,0-1.55,0-2-.48-2-2q.08-20,0-40c0-1.59.55-2,2.05-2,14.31.05,28.63,0,42.95,0,2,0,2.07.11,2.07,2.08,0,13.3,0,26.59,0,39.88,0,1.51-.41,2-2,2C175.18,345.62,168,345.66,160.81,345.66Zm15.9,2.69c0,1.35-.61,1.62-1.78,1.61-4.74,0-9.47,0-14.2,0s-9.37,0-14.06,0c-1.17,0-1.78-.27-1.77-1.61s.76-1.44,1.78-1.44h28.26C176,346.9,176.69,347,176.71,348.35ZM136,318.77c0,5.19,0,10.39,0,15.58,0,.46,0,.92,0,1.37a.69.69,0,0,1-1.37,0c0-.4-.05-.81-.05-1.22q0-15.74,0-31.46v-.16c.12-.64-.3-1.69.74-1.69s.72,1.06.73,1.69C136,308.18,136,313.47,136,318.77ZM133.32,329V354.7c0,2.25,0,2.26-2.32,2.25-3.43,0-3.15.37-3.15-3.08q0-25.28,0-50.57c0-2.26,0-2.27,2.3-2.27,3.42,0,3.17-.27,3.17,3.1Zm0-29.54c-.86,0-1.72,0-2.58,0s-1.73,0-2.59,0a.74.74,0,1,1,0-1.48c1.72,0,3.45,0,5.17,0a.74.74,0,1,1,0,1.48Zm-6.06-6.72c.08-.8.39-1.21,1.21-1.21h4.25c.81,0,1.23.37,1.23,1.2v.15c.28,3.56.28,3.56-3.41,3.56C127,296.47,126.88,296.33,127.23,292.77Zm1.68-3.07c-.66,0-1.62.33-1.85-.59a4.83,4.83,0,0,1,.12-3.29c.32-.64,1.6-.41,1.8.38.31,1.25,1.15,1.38,2.19,1.38q23.37,0,46.75,0c1.49,0,2-.6,1.92-2-.08-1.21,0-2.44,0-3.66,0-.86.3-1.39,1.24-1.33,1.48.1,1.79-.77,1.79-2q0-8.93,0-17.87c0-.56-.43-1.44.71-1.49s1.06.72,1.06,1.46c0,9.16,0,18.33,0,27.49,0,1.38-.67,1.57-1.81,1.57-9,0-18,0-27,0S137.87,289.72,128.91,289.7Zm-2,39.31v25.67c0,.51,0,1-.06,1.52s-.48.73-1,.73-.93-.14-1-.72a12.74,12.74,0,0,1-.06-1.38V303.19c0-.46,0-.92,0-1.37s.49-.72,1-.72.93.14,1,.72.06,1,.06,1.52Zm4-64.69c.22-1-.43-1.8-.4-2.79.1-3.77-.1-7.54.07-11.31.2-4.37-.24-8.74,0-13.1a12.44,12.44,0,0,1,.08-1.37.77.77,0,0,1,.87-.68.76.76,0,0,1,.82.73c0,.46.05.92.05,1.37q0,9.18,0,18.34t0,18.18c0,.46,0,.92,0,1.38a.8.8,0,0,1-.86.86.78.78,0,0,1-.88-.84C130.69,271.5,130.12,267.88,130.9,264.32ZM132,230c1.1-.31,2.41-.58,3.34.23s1.71,1.2,2.6,0a1,1,0,0,1,1.38-.14c.74.5,0,.71-.25,1a1.14,1.14,0,0,0,.07,1.41c.19.28.85.49.29.94s-1.07.54-1.5,0c-.88-1.14-1.57-1-2.59,0s-2.24.56-3.33.25c-.86-.24-.42-1.22-.55-1.87C131.59,231.12,131.22,230.22,132,230Zm1.51,47.23a2.23,2.23,0,0,1,2.27.84c.56.81,1.33.66,1.9-.09.33-.43.62-.85,1.23-.64s1.12.33.42,1a1.58,1.58,0,0,0-.51,1.23c0,.55-.34.8-.78.66-1.52-.49-3,.18-4.53.08-1.14-.07-2.1,0-2.07-1.64S132.49,277.19,133.53,277.22Zm-.29,4.3h12.07c.3,0,.7.06.71.43,0,.54-.49.41-.8.41-2,0-4,0-6,0s-4,0-5.95,0c-.32,0-.82.13-.79-.43C132.54,281.56,132.94,281.52,133.24,281.52Zm10.63-1.23c-1.1,0-1.65-.27-1.74-1.52-.15-2.2-1.5-3.35-3.73-3.41-1,0-2-.05-3.05,0s-1.44-.43-1.43-1.46q0-18.4,0-36.82c0-1.08.49-1.43,1.49-1.4s1.94,0,2.91,0a3.57,3.57,0,0,0,3.85-3.78c.09-2.34.09-2.35,2.38-2.35h21.24c2.67,0,3.57.9,3.57,3.58q0,11.24,0,22.46v22.15c0,2.88-.86,3.73-3.74,3.74h-9.78a1.89,1.89,0,0,1-1.87-.73c-.39-.57-1.09-.47-1.7-.47C149.47,280.27,146.67,280.25,143.87,280.29Zm10.45,3.9c.08-.45.61-.49,1-.51a15.28,15.28,0,0,1,2.14,0c3.37.39,6.63-.7,10-.73a3.75,3.75,0,0,0,3.44-3.53c0-.5,0-1,0-1.52q0-22.39,0-44.77c0-3.78-1.37-5.16-5.14-5.16H142.86c-.83,0-1.79-.24-2.23.85a.43.43,0,0,1-.61.25c-2.53-.91-5.16-.38-7.73-.42-1.5,0-1.77-.67-1.78-2s.44-1.79,1.78-1.79q22.23,0,44.47,0c1.29,0,1.84.38,1.81,1.75-.06,3.76,0,7.53,0,11.3,0,.88-.19,1.31-1.17,1.56a1.67,1.67,0,0,0-.74,3,2,2,0,0,1,.65,1.61c0,2.49,0,5,0,7.49,0,.4.09.93-.24,1.15-1.29.87-.87,2.17-.94,3.34s.2,1.81,1.46,1.83c.82,0,.95.62.95,1.29q0,12.75,0,25.51c0,1.28-.8,1.33-1.73,1.32h-44a3.34,3.34,0,0,1-1.94-.27,2.5,2.5,0,0,1,1.87-.33c6.31.07,12.63-.15,19,.09C152.68,285.6,154,285.81,154.32,284.19Zm25.52-5.93c0-2.59,0-5.18,0-7.77,0-.49-.05-1.12.74-1.05a1,1,0,0,1,1,1.11c0,1.37,0,2.74,0,4.11h0c0,1.17,0,2.34,0,3.51,0,.59.07,1.32-.82,1.35S179.84,278.91,179.84,278.26Zm5.43-115.34c.44,0,1,0,1.11.57s-.24.82-.69,1c-.19.07-.45.18-.49.33-.66,2.36-2.56,1.13-3.93,1.36-.2,0-.62-.16-.64-.3-.31-1.74-1.67-1.38-2.84-1.55-.83-.12-2.35.09-2.31-.82.06-1.11,1.49-.5,2.31-.58a28.19,28.19,0,0,1,3.05,0h4.43Zm-9.71,4.86c2.74,0,5.48,0,8.22,0,1.15,0,1.37,1.31,2.44,1.55-1.25.3-1.35,1.14-1.28,2.06s-.44,2.33,1.13,2.86c-1,.22-1.91.58-2.48-.7-.27-.63-.9-.57-1.46-.57-1.67,0-3.35,0-5,0a3,3,0,0,1-2.7-4.6A1.1,1.1,0,0,1,175.56,167.78Zm-38.19,126c.28-.68.87-.62,1.42-.62,2.49,0,5,0,7.48,0l35.91,0c2,0,2.66.91,2.1,2.88-.26.91-1,.77-1.61.77-4.33,0-8.66,0-13,0h-30.4C137.46,296.76,136.65,295.45,137.37,293.73Zm-1.79-2.55c0-.94,1.25-.48,1.92-.48,7.49,0,15,0,22.46,0h22.32c.46,0,.92,0,1.37,0s.78.06.8.52-.45.58-.86.61-.71,0-1.07,0q-22.47,0-44.93,0C136.87,291.83,135.58,292.3,135.58,291.18Zm51.17-113c0,23.78.06,47.57,0,71.36,0,2.56,0,5.16-.3,7.72-.13,1.27.4,2.37.39,3.6-.06,9,0,17.93,0,26.89,0,.26,0,.51,0,.76,0,.44.05,1.05-.62,1s-.49-.56-.51-1,0-1,0-1.52V232.8q0-27.28,0-54.56c0-.68-.4-1.91.52-1.93S186.75,177.51,186.75,178.18ZM143.22,127.9a6.47,6.47,0,0,1,5.59-3.47c5.4-.1,10.8-.12,16.19,0a6.36,6.36,0,0,1,5.49,3.37c.84,1.45.68,1.75-1,1.75H144.17C142.61,129.56,142.43,129.24,143.22,127.9Zm-1.77,2.92c3.16.06,6.31,0,9.47,0H171.7c2.55,0,2.55,0,2.55,2.62,0,1.07,0,2.14,0,3.21,0,2.06,0,2.08-2.17,2.08H142c-2.25,0-2.25,0-2.26-2.33,0-1.27.06-2.55,0-3.82S140.1,130.79,141.45,130.82ZM129,142.08q13.91,0,27.8,0c9.22,0,18.44,0,27.65,0,1.51,0,2.06.42,2,2-.08,5.24-.07,10.48,0,15.72,0,1.5-.51,2-1.95,1.9-2.24-.1-4.48,0-6.72,0-1.08,0-2.24.3-3-.9-.27-.42-.86-.12-1.3-.09-1.79.15-3.42.19-4.84-1.4a6.47,6.47,0,0,0-5.14-1.92c-5.19,0-10.39,0-15.58,0a6.5,6.5,0,0,0-5.14,1.93c-1.36,1.52-2.94,1.58-4.68,1.39-.73-.07-1.42-.21-2,.46l-.4.17c-2.41-1.05-4.61,1-7,.42-1-.25-1.52-.45-1.52-1.57,0-5.49,0-11,0-16.49C127.2,142.26,127.9,142.07,129,142.08Zm9.47,24.52c-.05-1.19.45-1.61,1.62-1.6,4.07,0,8.14,0,12.21,0h18.16c2.56,0,2.56,0,2.56,2.63,0,1.22-.06,2.45,0,3.66s-.46,1.68-1.7,1.67c-5.19,0-10.38,0-15.57,0s-10.17,0-15.26,0c-2,0-2,0-2-2.07C138.5,169.45,138.55,168,138.5,166.6Zm3.81-5a7.14,7.14,0,0,1,6.11-3.18c4.88-.05,9.77-.07,14.65,0a7,7,0,0,1,6.19,3.28c.29.46.8.93.45,1.51s-.91.33-1.4.34c-4.17,0-8.35,0-12.52,0s-8.34,0-12.51,0c-.53,0-1.23.22-1.5-.43S142,162,142.31,161.55Zm-5.59,9.61c0,1.43-.53,1.88-1.89,1.81-1.68-.08-3.36,0-5,0-.93,0-1.86-.06-2.14,1.3l-.39-.29c0-1.72,0-3.43,0-5.15a1.26,1.26,0,0,1,.34-.81c.51-.49,4.36-.35,4.66.25.59,1.19,1.58,1.16,2.6,1.06C136.28,169.19,136.71,169.78,136.72,171.16Zm-6.88-8.25c.49.3,1.71-.55,1.73.51,0,2.21-.62,2.79-2.32,2.83-1.15,0-2.12,0-2-1.61S127.32,162.91,129.84,162.91Zm-2.91,15.27c0-2.14,0-2.16,2.11-2.16h53.49c2.07,0,2.1,0,2.1,2.17v35.75q0,17.79,0,35.6c0,1.33,0,2.5-1.82,2.36a1.27,1.27,0,0,0-1,.59,1.18,1.18,0,0,1-1.49.41c-.57-.26-.47-.86-.47-1.35,0-3.67,0-7.33,0-11,0-5,0-10,0-15,0-2-.17-2.15-2.06-2.15H131.3c-1.07,0-2.07,0-2.31,1.41-.11.64-.63.73-1.18.69s-.84-.48-.86-1.05c0-.35,0-.71,0-1.06ZM129,255.49v15.42c0,.46,0,.91,0,1.37a.82.82,0,0,1-.87.86c-.57,0-1-.14-1.13-.77a11,11,0,0,1-.07-1.52V240.17a11,11,0,0,1,.07-1.52c.08-.62.54-.81,1.11-.79a.83.83,0,0,1,.89.85c0,.45,0,.91,0,1.37Zm-4-106.66c0-2.5,0-5,0-7.49,0-.4-.17-1.08.52-1,.51,0,.38.65.38,1q0,7.65,0,15.28c0,.38.13,1-.38,1-.69,0-.51-.63-.52-1C125,154,125,151.43,125,148.83Zm.9,21.44c0,1.17,0,2.33,0,3.5,0,.29,0,.67-.39.72s-.48-.32-.48-.62q0-3.65,0-7.29c0-.29.06-.67.45-.65s.42.4.42.7C126,167.84,125.94,169.06,125.94,170.27Zm-.59,6c1,0,.57,1.22.57,1.89q0,25.07,0,50.11t0,49.8c0,.68.41,1.9-.56,1.9s-.57-1.22-.57-1.9q0-50,0-99.9C124.79,177.52,124.38,176.3,125.35,176.3ZM94.15,354.68c0-11.31,0-22.62,0-33.93V134c0-.51,0-1,0-1.53-.12-1.25.41-1.71,1.67-1.69,3.42.06,6.83,0,10.24,0h15.14c2.27,0,2.28,0,2.28,2.27V278c0,.56,0,1,0,1.29v2.24h1.74c1.43,0,2.85,0,4.27,0,.39,0,1-.07,1,.44s-.6.42-1,.42c-2,0-4,0-5.94,0h-.11v1.69h29.24v.29H123.47v2.19a3.67,3.67,0,0,1,0,.61q0,33.93,0,67.85c0,1.42-.61,1.69-1.85,1.69q-12.76-.06-25.53,0C94.59,356.71,94.14,356.2,94.15,354.68Zm7.64,11.63c0,.86,0,1.73,0,2.59h0c0,1.58,0,3.15,0,4.72,0,1-.37,1.38-1.35,1.37-4.9-.05-4,.53-4.12-3.78,0-2.39,0-4.78,0-7.16,0-1.11.41-1.55,1.53-1.54C102.53,362.58,101.71,362,101.79,366.31Zm31.53-.09c0,.91,0,1.83,0,2.75h0c0,1.58,0,3.15,0,4.73,0,.9-.4,1.3-1.3,1.29-5,0-4.09.57-4.17-3.89,0-2.34,0-4.69,0-7,0-1.1.44-1.56,1.54-1.55C134,362.56,133.25,362.09,133.32,366.22Zm14.26,2.8q-1.17,2.4-2.38,4.77c-.1.19-.38.44-.56.43-.44,0-.33-.43-.3-.71.13-1.29-.39-2.07-1.73-2.15-.53,0-.54-.22-.42-.67.56-2.07,1.34-2.67,3.56-2.65.4,0,.81,0,1.21,0C147.66,368.06,147.89,368.39,147.58,369Zm.54-2.35a8,8,0,0,1-1.21.09,8.35,8.35,0,0,1-1.21,0c-.46-.11-1.29.33-1.28-.55a1.23,1.23,0,0,1,1.29-1.23c.76,0,1.51,0,2.27,0,.41,0,1.07-.22,1.14.39A1.18,1.18,0,0,1,148.12,366.67Zm40.23-6.21c-.08.65-.34,1-1,1.06l-1.07,0H99c-1,0-2.12.27-2.11-1.39s.12-1.92,2-1.92h87.37C188.25,358.23,188.58,358.62,188.35,360.46Zm2.43-5.77c0,2.26,0,2.27-2.29,2.27H136.83c-2.29,0-2.29,0-2.3-2.27,0-1.63,0-3.26,0-4.89,0-.54-.07-1.24.74-1.26s.73.62.72,1.12c0,1.23.65,1.56,1.75,1.56q23.07,0,46.15,0c1.26,0,1.75-.56,1.7-1.76,0-.72,0-1.43,0-2.14,0-1.5.74-2.08,2.23-1.78.66.13,1.36.39,1.84-.23s.06-1.3-.22-1.87a5.49,5.49,0,0,1-.54-2.94c.18-2.6-.66-3.19-3.32-2.36V303.29c0-2.25,0-2.25,2.32-2.26,2.87,0,2.87,0,2.87,2.78Zm.14-63c-.1,0-.23-.21-.27-.34a.5.5,0,0,1,.29-.63c1.24-.43.09-3.1,2.08-2.54.8.06,1.38,0,1.59.6a1,1,0,0,1-.66,1.32,1.24,1.24,0,0,0-.72.91C192.78,292.28,191.78,291.78,190.92,291.68Zm6.54,74.62c0,2.39,0,4.79,0,7.18,0,1.11-.41,1.54-1.53,1.52-4.63-.07-3.88.51-3.95-3.83,0-.82,0-1.63,0-2.45h0c0-1.63,0-3.25,0-4.88,0-.89.37-1.31,1.27-1.31C198.21,362.53,197.41,362.1,197.46,366.3Zm-4.9-6.47c0-1.79,1.1-1.58,2.23-1.62s2.13.05,2.11,1.73-1.05,1.66-2.2,1.57C193.41,361.68,192.56,361.49,192.56,359.83Zm2.93-2.84c-4-.13-3.49.4-3.49-3.56q0-25.05,0-50.11c0-2.28,0-2.29,2.3-2.29,3.5,0,3.16-.3,3.17,3.24q0,12.45,0,24.9c0,8.61,0,17.21,0,25.82C197.51,356.54,197,357,195.49,357Zm1.77-57.51c-.87,0-1.73,0-2.6,0s-1.63,0-2.44,0a.68.68,0,0,1-.72-.79.66.66,0,0,1,.72-.65c1.68,0,3.36,0,5,0a.66.66,0,0,1,.72.64A.68.68,0,0,1,197.26,299.48Zm1.19,56.12c0-2,0-4,0-6,0-15.49,0-31,0-46.45,0-1.89,1.2-3.41,1.14-5.28,0-.49.6-.79,1.16-.8a8,8,0,0,1,3.45.51c2.68,1.18,3.34.85,3.53-2a2.49,2.49,0,0,1,.17,1.51q0,23.91,0,47.82c0,1,.05,1.95-1.39,2-.82,0-.75.82-.75,1.43,0,1,.66,1.28,1.62,1.35-1.55.1-2.05.88-1.93,2.28.08.93.29,1.56,1.38,1.61,1.49.08,1,1.26,1.05,2.09s-.48,1.22-1.33,1.22c-2.24,0-4.48,0-6.73,0C198.84,357,198.43,356.57,198.45,355.6Zm1.47,15c-.24.6-.63.64-1,.11s-.09-5.9.21-6.5c.8-1.55,2.19-1.42,3.61-1.37a4.68,4.68,0,0,1,4.21,1.55c.73.82.36,1.29-.45,1.35A7.17,7.17,0,0,0,199.92,370.58Zm10.93-.49c-.48,1-.93,2-1.4,3-.27.56-.58,1.08-1.43,1,.39-1.43.48-2.74-1.37-3.2-.54-.13-.44-.56-.31-1,.55-1.83,1.09-2.24,3-2.25C212,367.71,212,367.71,210.85,370.09ZM212,366.4c-.86.05-1.71.05-2.57,0-.38,0-.91.07-1-.49a1.08,1.08,0,0,1,.77-1.17,10.54,10.54,0,0,1,1.79-.18v0a6.74,6.74,0,0,1,.9,0c.45.06,1.17-.23,1.17.55A1.13,1.13,0,0,1,212,366.4Zm78.87-4.86H203c-.88,0-2.05.39-2.11-1.22s.16-1.81,2-1.81H378c.56,0,1.12,0,1.68,0,1.17,0,1.26.72,1.27,1.62s-.29,1.47-1.31,1.42c-.51,0-1,0-1.53,0Zm-81.72-64.61c0-1,.37-1.39,1.35-1.39,4.53,0,9.06,0,13.59,0a1.47,1.47,0,0,1,1.34.58c.75,1.06,1.64,1,2.81.57,1.89-.69,3.9-.21,5.85-.12.81,0,.71.91.66,1.49-.12,1.45.59,1.84,1.92,1.81,2.9-.06,5.8,0,8.7,0,.75,0,1.64-.13,1.63,1.05s-.93,1-1.66,1H232.67c-4.18,0-8.35,0-12.52,0-1.23,0-1.84-.26-1.9-1.66-.08-1.85-.58-2-3.12-2-1.55,0-2,.74-2.06,2.17s-.25,1.55-2.88,1.54c-1.32,0-1-.84-1-1.54C209.13,299.27,209.18,298.1,209.15,296.93Zm70.31,2.94a2.26,2.26,0,0,1,.45,0c.76,0,1.31.23,1.29,1.12s-.63.93-1.28.93h-6.41c-2.08,0-4.17,0-6.26,0-.36,0-.94.13-1-.44s.56-.29.84-.45C271.07,298.81,275.35,300.29,279.46,299.87Zm-9.22-2.53a3.55,3.55,0,0,1,3.84-2.44c4.27.19,8.55.06,12.82.05,1,0,1.6,0,1.19,1.39-.63,2.19-.48,2.24-2.72,2.24h-6.56c-2.6,0-5.2,0-7.79,0C270,298.59,269.77,298.37,270.24,297.34Zm-.89-1.45-.07.13c-2.48,4-1,3.41-5.83,3.45-3,0-6-.06-9,0a2.66,2.66,0,0,1-2.75-1.63c-1.75-3.25-1.81-3.22,1.84-3.22h6.41c2.91,0,5.81,0,8.71,0C269.7,294.64,270,295,269.35,295.89Zm-17.41,7.29c1.05,0,2-.08,2.32,1.34.19.87,1.07,1.15,1.95,1.15h7.49a2.06,2.06,0,0,0,2.21-1.52c.23-.82.79-.95,1.51-.95,6.67,0,13.34,0,20,0,1.14,0,1.51.47,1.51,1.56q0,20.46,0,40.94c0,1.58-.94,1.5-2,1.5H212.52c-2.11,0-2.12,0-2.12-2.12V305.33c0-2.13,0-2.14,2.12-2.14Zm38.21,49.11c0,4.09,0,4.09-4.15,4.09h-.91c-2.62,0-2.56,0-2.58-2.62,0-1.24.42-1.81,1.68-1.69,1.41.13,2-.64,2.23-1.93a2.43,2.43,0,0,1,3.35-1.67c.46.25.36.69.37,1.08C290.16,350.46,290.15,351.38,290.15,352.29Zm-33.59,1c.3.81.76,1.28,1.72,1.11s2.15.09,3.29-.34c.91-.34,1.26.89,1.38,1.62.15.89-.72.67-1.2.67-7,0-14.06,0-21.09,0H220c-1.91,0-2-.07-2-2a37.23,37.23,0,0,1,.25-4.72c.09-.91.48-1.24,1.35-1.24q13,0,26,0c.93,0,1.34.34,1.44,1.32a2.9,2.9,0,0,0,4.4,2.12,1.88,1.88,0,0,0,.78-1.88c-.05-1.09.35-1.57,1.49-1.57q13,0,26,0c1.13,0,1.55.44,1.53,1.55-.05,1.68,0,3.36,0,5,0,1-.38,1.39-1.36,1.38H266.15a1.26,1.26,0,0,1-1.45-1.19,14.25,14.25,0,0,0-1.2-4.56,1.42,1.42,0,0,0-1.25-.94c-1.92-.08-3.67.14-5.15,1.62A1.68,1.68,0,0,0,256.56,353.31Zm-39.8,1.86c0,.83-.4,1.21-1.22,1.2-1.67,0-3.35,0-5,0-1,0-1.37-.45-1.35-1.39s0-1.93,0-2.89h0v-1.37c0-2.73-.24-2.25,2.39-2.32,1.1,0,1.59.39,1.54,1.51-.07,1.51.63,2.29,2.21,2.16,1-.09,1.52.36,1.46,1.42C216.74,354.06,216.76,354.62,216.76,355.17Zm32.05-56.61c-.71.05-1.43,0-2.14,0v0c-.92,0-1.83,0-2.75,0a.77.77,0,0,1-.8-.91.74.74,0,0,1,.77-.78,13.05,13.05,0,0,1,5.13.43c.41.15,1,.46.92.92C249.87,298.84,249.21,298.53,248.81,298.56Zm98.25-.38c-.18-1.49.38-2,1.93-2.11,7.37-.61,14.74-.51,22.12-.54,1.19,0,1.68.44,1.6,1.62,0,.81,0,1.63,0,2.45,0,2.36-.76,2.91-3.12,2.31-.74-.19-.75-.7-.8-1.27-.2-2.21-.37-2.36-2.61-2.35-2,0-2.27.19-2.35,2.27,0,1.23-.68,1.39-1.67,1.39-4.33,0-8.66,0-13,0H336.48c-.74,0-1.64.15-1.63-1s.92-1,1.66-1c2.95,0,5.91,0,8.86,0C346.61,299.9,347.21,299.43,347.06,298.18Zm21.72,51.64c-.07-.94.33-1.36,1.33-1.41,2.59-.12,2.59-.16,2.59,2.43v1.38c0,.81,0,1.63,0,2.44.09,1.21-.34,1.8-1.65,1.74-1.52-.07-3.05,0-4.58,0-.94,0-1.44-.35-1.39-1.34a13,13,0,0,0,0-1.53c-.06-1.05.42-1.52,1.45-1.43C368.19,352.22,368.89,351.44,368.78,349.82Zm-30.35-51.27h-3.05v0h-2.89c-.79,0-.86-.41-.46-1,.2-.28.45-.63.75-.72a17.41,17.41,0,0,1,5.89-.33c.57,0,.68.53.67,1A.86.86,0,0,1,338.43,298.55Zm2.76,4.64h28.12c2.14,0,2.17,0,2.17,2.09v39.87c0,2,0,2-2.08,2H295.13c-2.19,0-2.2,0-2.2-2.2V305.26c0-2,0-2.07,2-2.07,6.32,0,12.63,0,19,0,1,0,1.83.08,2.14,1.36a2,2,0,0,0,2.14,1.41c2.44,0,4.89,0,7.33,0,1.05,0,2-.38,2.19-1.52s.8-1.24,1.71-1.24C333.35,303.2,337.27,303.19,341.19,303.19Zm-2.06,50.17c.28.74.71,1.24,1.6,1.07,1.08-.21,2.16.17,3.29-.32s1.28.81,1.45,1.49c.28,1.08-.72.76-1.21.76-7,0-14.06,0-21.09,0s-13.76,0-20.64,0c-1.43,0-2-.4-2-1.91s.09-3.14.26-4.72c.1-.95.43-1.36,1.4-1.36q13,0,26,0c1,0,1.31.4,1.4,1.36.18,2.07.55,2.32,2.75,2.29,1.95,0,2.31-.31,2.43-2.29.05-1,.42-1.36,1.38-1.36q13.15,0,26.29,0c.88,0,1.33.34,1.32,1.25,0,1.79,0,3.57,0,5.35,0,1-.44,1.36-1.39,1.35H348.67a1.26,1.26,0,0,1-1.42-1.22,13.64,13.64,0,0,0-1.24-4.54,1.67,1.67,0,0,0-1.56-.91,6,6,0,0,0-4.83,1.63A1.6,1.6,0,0,0,339.13,353.36ZM331.27,296c-1.14,2.61-2.72,4-5.82,3.58a53,53,0,0,0-8.55,0c-1.67.07-2.85-.35-3.5-2-.35-.88-1.5-1.76-1.12-2.53s1.76-.32,2.69-.34c2.34-.06,4.68,0,7,0,2.8,0,5.6,0,8.4,0C331.49,294.62,331.81,294.73,331.27,296Zm-15.85,5.27.11.38c-.14.34-.49.31-.78.31H302.24c-.71,0-1.35-.08-1.35-1s.63-1,1.34-1c3.21,0,6.41,0,9.61,0C313.23,299.85,314,301.33,315.42,301.23Zm-4.71-2.65c-2.4,0-4.79,0-7.18,0s-4.58-.07-6.86,0c-1.5.06-1.67-.73-1.6-1.91s.83-1.15,1.71-.94a1.36,1.36,0,0,0,.89,0c2.57-1.49,5.38-.57,8.06-.81.66-.06,1.34.09,2,0,2-.36,3.07.63,3.87,2.36C312.13,298.49,311.68,298.59,310.71,298.58Zm-15.13,2.35c0,1.52-1.32.8-2.08,1-.64-.24-1.78.57-1.79-.92s1-1.22,1.82-1.16S295.6,299.41,295.58,300.93Zm-1.49,47.49c1.08,0,1.61.33,1.56,1.48-.08,1.5.6,2.31,2.19,2.18,1.15-.1,1.56.49,1.48,1.56,0,.51,0,1,0,1.53a1,1,0,0,1-1.21,1.2h-5.19a1,1,0,0,1-1.2-1.21c0-1,0-1.94,0-2.9h0c0-.51,0-1,0-1.53C291.73,348,291.46,348.48,294.09,348.42Zm74.42,16.77c0-.95.94-.4,1.44-.54a3.92,3.92,0,0,1,.85,0c.72.1,1.67-.28,2.22.7.33.6.43,1.09-.49,1.1s-1.72,0-2.58,0S368.49,366,368.51,365.19Zm6.24,6c-1.45.51-1.66,1.14-1,3-.87.12-1.27-.4-1.59-1.08-.58-1.24-1.23-2.45-1.78-3.7-.22-.49-1-1.21-.2-1.54s2-.6,2.6.42c.43.76.68,1.17,1.68,1,.72-.11.81.8,1,1.33C375.74,371.34,375.07,371.11,374.75,371.22Zm7.28.29a9.87,9.87,0,0,0-2.63-4.2,6.45,6.45,0,0,0-3.9-1.52c-.46,0-.94-.05-1.18-.53s.27-.81.55-1.12c1.84-2,6.42-1.86,7.8.24C383.32,365.37,382.9,370.48,382,371.51Zm1.34-15.63a.93.93,0,0,1-1,1.06h-3.93c.09-.62.49-.81.76-1.08,1.44-1.49,1.46-1.51-.44-2-.71-.19-.84-.66-.84-1.25V343.3l0-.31c1-1.92,2.71-.58,4.06-.91a1,1,0,0,1,1.39,1.13Q383.37,349.54,383.37,355.88Zm0-36.95c.2,6.76,0,13.53.06,20.3,0,1.1-.38,1.59-1.51,1.54s-2.35,0-3.52,0a1.75,1.75,0,0,0-2,2q0,5.19,0,10.38c0,1,.41,1.77,1.87,2.27-1.24.37-2,.47-2.5,1.26s-1.61.27-1.75-.68a9.89,9.89,0,0,1,0-1.22q0-27.4,0-54.81c0-1.54.25-2.36,2-2.34a36.83,36.83,0,0,0,4.54-.49c1.25-.13,1.69.47,2,1.7C384.23,305.47,383.15,312.22,383.34,318.93Zm-1.22-26.62c.06.78-.45,1.07-1.17,1.06h-1.07q-16.36,0-32.72,0c-1.34,0-2.3,0-2.39-1.84-.06-1.34-1.48-1.18-2.45-1.15s-2.1,0-2,1.46c.05,1.25-.58,1.54-1.69,1.53-3.62,0-7.24,0-10.86,0H301a3.7,3.7,0,0,1-2.71-.74,1.56,1.56,0,0,0-2.1,0c-1.9,1.29-2.57,1-3-1.09a1.19,1.19,0,0,0-1-1,5.58,5.58,0,0,0-2.57,0c-1.24.24-1,1.21-1.11,2s-.67.8-1.25.8H263.92c-6.76,0-13.52,0-20.29,0-1.3,0-2.11-.13-2.12-1.76,0-1.39-1.32-1.22-2.22-1.23s-2.26-.07-2.28,1.38-.78,1.61-1.95,1.61q-16.74,0-33.48,0c-1.18,0-2-.15-1.92-1.62s-1.22-1.41-2.11-1.36c-1.36.07-1.61-.49-1.58-1.69.06-3.57,0-7.13,0-10.7,0-.65-.09-1.33.48-1.85.24-.22.39-.57.13-.82-.9-.88-.59-2-.6-3,0-3,0-6,0-9,0-.9-.21-1.86.6-2.58a.47.47,0,0,0,.05-.69c-1-.9-.63-2.09-.65-3.16,0-3,0-5.91,0-8.86,0-.9-.19-1.86.61-2.59a.47.47,0,0,0,.05-.69c-1-.89-.63-2.08-.65-3.16,0-3.66,0-7.33,0-11,0-1.25.43-1.77,1.69-1.7s2.45,0,3.67,0c1,0,1.38.42,1.36,1.39,0,1.88,0,3.77,0,5.65a3.2,3.2,0,0,0,.15,1.5c.92,1.65-.11,1.56-1.23,1.55-2.56,0-2.89.34-2.89,2.93v41c0,3.67,1.42,5.08,5.09,5.08h173.8c4.19,0,5.49-1.28,5.49-5.46V242.14c0-2.91-.22-3.17-3.12-3.15-1.21,0-1.57-.11-1.1-1.5.66-2,.2-4.15.25-6.23.05-2.36,0-2.36,2.37-2.36,1,0,2,0,3.06,0s1.28.42,1.28,1.31c0,4.38,0,8.76,0,13.14a1.36,1.36,0,0,1-.41,1.11c-.3.25-.54.61-.23.91.92.89.63,2,.64,3,0,3,0,6,0,9,0,.89.24,1.85-.61,2.56a.46.46,0,0,0,0,.69c.94.86.63,2,.64,3,0,3,0,6,0,9,0,.89.23,1.85-.57,2.59a.47.47,0,0,0,0,.69c.92.88.6,2,.61,3,0,3.26,0,6.53,0,9.78,0,1.12-.19,1.7-1.5,1.61S382,290.6,382.12,292.31Zm7.73,81.27c0,1.06-.46,1.43-1.48,1.42-4.71-.07-3.92.53-4-3.78,0-.81,0-1.63,0-2.44h0a44.11,44.11,0,0,1,0-4.88c.28-2.48,2.3-1.06,3.52-1.34,1-.22,1.95-.09,1.92,1.4C389.81,367.16,389.82,370.37,389.85,373.58Zm1.29-82.17c-.38.71-1.19.31-1.73.42-2.12,0-2.3-.16-2.29-1.94,0-.84,0-1.68,1.18-1.69,1,0,1.89,0,1.88,1.34a1.89,1.89,0,0,0,.22.71C390.6,290.67,391.48,290.78,391.14,291.41Zm.21-5.07h-.29c0-1.2,0-2.41,0-3.62a6.59,6.59,0,0,0-.51-3.12,2.91,2.91,0,0,1,0-2.21c.54-1.83.15-3.74.23-5.62a19.86,19.86,0,0,0,0-2.44c0-.55.29-1.49-.53-1.5s-.4.91-.42,1.41c0,1.53,0,3.06,0,4.59,0,.3,0,.61,0,.91,0,.51,0,1.13-.72,1.14s-.72-.6-.72-1.11c0-1.73,0-3.46,0-5.19,0-.41,0-.82,0-1.22s-.11-.54-.42-.56-.43.23-.46.5a7,7,0,0,0-.06.91c.07,3.61.13,7.21.21,10.81,0,.53.15,1.16.67,1.28,1.52.33,1.29,1.45,1.3,2.5,0,.61,0,1.22,0,1.84,0,.85-.28,1.33-1.24,1.33s-1.16-.6-1.16-1.4c0-1.94,0-3.87,0-5.81V249.5a3.58,3.58,0,0,1,.59-2.61,1.33,1.33,0,0,0,.15-1.46c-1.44-2.7-.88-5.64-.59-8.37.26-2.44.33-4.85.4-7.28a2.19,2.19,0,0,1,3.25-2.06.65.65,0,0,1,.4.59c0,.35,0,.71,0,1.06v57ZM393,156.89c.66,0,.44.9.44,1.42,0,7.48,0,15,0,22.44v22a3.86,3.86,0,0,1,0,.76c-.08.45.24,1.25-.47,1.22s-.43-.81-.43-1.28q0-16.19,0-32.37c0-4.27,0-8.55,0-12.82C392.59,157.76,392.3,156.87,393,156.89Zm0,132.18c-.79,0-.47-1.06-.47-1.65q0-39.42,0-78.84c0-.58-.36-1.61.51-1.62.65,0,.39,1,.39,1.58q0,19.78,0,39.57,0,19.63,0,39.26C393.48,288,393.79,289.06,393.05,289.07Zm3.88-21.62h-.42V245.69h.42Zm40.93,1c0,1.53-.46,2-2,2-6-.07-11.92,0-17.88,0s-11.92,0-17.87,0c-1.56,0-2-.5-2-2q.09-11.92,0-23.83c0-1.53.45-2,2-2q17.88.08,35.75,0c1.55,0,2,.49,2,2Q437.76,256.57,437.86,268.49Z"/><rect class="cls-2" x="393.54" y="242.64" width="45.28" height="28.7"/><path class="cls-2" d="M129.43,147.9a172,172,0,0,0,28.86,2c4.19-.07,5.35-6.55,1-7.51a54.08,54.08,0,0,0-14-1.69v7.65a182.81,182.81,0,0,1,38.07.43l-3.83-3.83a51.5,51.5,0,0,0,.48,15.43c.73,4.21,7.94,3.29,7.52-1q-.52-5.16-1-10.31c-.33-3.31-5.42-5.8-7.13-1.94-1.58,3.58-4.5,7.88-4.72,11.83a3.82,3.82,0,0,0,1.9,3.3l.26.16q.45-3.5.91-7l-3-1.21c-1.69-2.28-5-2.63-6.6,0a4.76,4.76,0,0,0-.58,4.31,3.87,3.87,0,0,0,5.62,2.29c4.29-2.69,7.65-7.44,7-12.77-.5-4.18-4.57-6.19-8-3.5-2.46,1.91-2.13,5.43-5.27,6.5-2.49.85-7.73-.89-10.43-1.1-7.07-.54-13.86.26-20.06,3.89a3.86,3.86,0,0,0-.77,6c1.71,1.63,3,1.9,5.31,1.45l-3-7c-2.06,1.2-6.61-.2-9.18.14l4.85,3.69c.07-1.56.19-3.13.34-4.69q1.41-5.68,0-2.92l-4.64-.59c-.44-1-.45-.65-.06,1a24.89,24.89,0,0,1,.36,3.46c.21,2.76,3.13,4.93,5.76,3.3,1.37-.86,2.23-2.41,3.48-3.19-.68-1-.71-1.27-.09-.7a2.83,2.83,0,0,0,1.3.69c3.56.5,6.11-1,9.62-1.05,6.74-.11,18.72,4.1,23-3a3.87,3.87,0,0,0-2.29-5.62c-5.54-1.67-11.86,0-17.53.39-6,.37-14.37,1.9-19.68-1.58-4.15-2.72-7.92,3.86-3.87,6.6a37.34,37.34,0,0,0,8.56,4.36c3.71,1.3,8,1.17,11.38,3.25,4.21,2.59,8.05-4,3.86-6.61-6.2-3.81-13.64-3.36-19.93-7.6l-3.87,6.6c5,3.24,10.55,3.1,16.27,2.95q5.48-.15,10.92-.58c3.8-.3,8.14-1.52,11.86-.4q-1.14-2.82-2.29-5.62c-.53.88-10.4-.33-11.79-.43a66.73,66.73,0,0,0-10.32.26l-1.23.87a3.85,3.85,0,0,0-1.69-1,9.35,9.35,0,0,0-3.33-.22c-3.07.62-3.86,3.5-6.24,5l5.75,3.31c-.24-3.18,0-7.49-2.54-9.83a4,4,0,0,0-4.64-.6c-4.63,2-3.9,10.07-4.16,14.21-.16,2.76,2.57,4,4.85,3.69,4.32-.59,6.93,1.46,11-.92,3.9-2.26,1.2-7.79-2.94-7l-.92.18,3.73,1-.68-.63-.78,6c8.07-4.72,16.21-2.29,24.91-1.8,2.93.16,5.77-.2,8.08-2.11a9.66,9.66,0,0,0,1.82-2,6.45,6.45,0,0,0,1.1-2.19c1.23-1.59.86-2-1.13-1.36l-2.67-2.67c.89,2.35-1.28,4.85-3,5.95l5.62,2.29c-.07.53-.13,1.05-.2,1.58h-6.6c3,4.07,6.62,5.56,11.65,4.73,3.42-.56,3.49-5.41.92-7l-.26-.16,1.89,3.3c.11-2,2.83-6.05,3.68-8l-7.13-1.93q.51,5.14,1,10.31l7.51-1a44.92,44.92,0,0,1-.21-13.4c.28-2.21-2-3.61-3.82-3.82a182.81,182.81,0,0,0-38.07-.43c-4.81.45-5,7.85,0,7.65a46.76,46.76,0,0,1,12,1.41l1-7.51a159.5,159.5,0,0,1-26.83-1.72C126.64,139.79,124.57,147.16,129.43,147.9Z"/><path class="cls-2" d="M126.78,179.48l.81,1.46a2,2,0,0,0,.66.72,2,2,0,0,0,.87.45,2,2,0,0,0,1,0,2,2,0,0,0,.94-.3l.52-.4a2.64,2.64,0,0,0,.66-1.13l.09-.68a2.59,2.59,0,0,0-.35-1.28l-.81-1.47a1.88,1.88,0,0,0-.66-.71,1.83,1.83,0,0,0-.87-.46,2.77,2.77,0,0,0-2,.26l-.52.4a2.53,2.53,0,0,0-.65,1.12l-.09.68A2.54,2.54,0,0,0,126.78,179.48Z"/><path class="cls-2" d="M181.28,176.06a12.14,12.14,0,0,0-2.42,1.39,14.84,14.84,0,0,0-2.5,2.25,2.78,2.78,0,0,0-.75,1.81,2.56,2.56,0,0,0,2.55,2.55,2.54,2.54,0,0,0,1.81-.75,11.71,11.71,0,0,1,1.8-1.72l-.51.39a11.84,11.84,0,0,1,2.6-1.51,2,2,0,0,0,.71-.66,1.93,1.93,0,0,0,.46-.87,2.58,2.58,0,0,0-.26-2,2.51,2.51,0,0,0-1.52-1.17l-.68-.1A2.65,2.65,0,0,0,181.28,176.06Z"/><path class="cls-2" d="M129.48,179.78a160.61,160.61,0,0,0,25.57.93c8.54-.33,17.08-1.22,25.63-.83,3.28.15,3.27-4.95,0-5.1-8.55-.39-17.09.5-25.63.83a160.65,160.65,0,0,1-25.57-.93,2.57,2.57,0,0,0-2.55,2.55A2.6,2.6,0,0,0,129.48,179.78Z"/><path class="cls-2" d="M129.17,184a122.16,122.16,0,0,0,14.56.59,40.12,40.12,0,0,1,6.93-.21,57.24,57.24,0,0,0,7.52.4c4.86-.06,9.71-.58,14.57-.67,2.39,0,4.73.17,7.11.26a4.93,4.93,0,0,0,5.13-3.21,2.57,2.57,0,0,0-1.78-3.14,2.62,2.62,0,0,0-3.14,1.78c.31-.75.43-.49-.46-.54l-1.41-.12c-1.1-.08-2.21-.12-3.33-.14-2.22,0-4.45.07-6.67.19-4.35.24-8.69.61-13,.46-2.08-.07-4.13-.44-6.21-.54s-4.28.38-6.43.42c-4.43.08-8.91-.33-13.34-.63C125.9,178.67,125.91,183.77,129.17,184Z"/><path class="cls-2" d="M182.23,174.83a20.74,20.74,0,0,0-4.83.79,2.55,2.55,0,0,0-1.79,3.14,2.6,2.6,0,0,0,1.18,1.52,2.63,2.63,0,0,0,2,.26,18.68,18.68,0,0,1,2.65-.57l-.68.09c.5-.06,1-.11,1.51-.13a2.71,2.71,0,0,0,1.81-.75,2.55,2.55,0,0,0-1.81-4.35Z"/><path class="cls-2" d="M128.86,182.83c3.28,0,3.29-5.1,0-5.1S125.57,182.83,128.86,182.83Z"/><path class="cls-2" d="M126.26,183.6q.22,6,.22,12.05a2.55,2.55,0,1,0,5.1,0q0-6-.22-12.05a2.55,2.55,0,0,0-5.1,0Z"/><path class="cls-2" d="M130.86,224.2a25.22,25.22,0,0,0,1.39-8c0-2.82-4.42-3.55-5-.68-.16.75-.31,1.5-.47,2.24l5,.68a131.37,131.37,0,0,0,.58-21.27c-.14-2.68-3.25-3.26-4.75-1.28a6.94,6.94,0,0,0-1.08,4.6c.08,1.75.19,3.49.22,5.24a105.73,105.73,0,0,1-.38,11,2.57,2.57,0,0,0,2.55,2.55,2.6,2.6,0,0,0,2.55-2.55c.28-3.31.43-6.63.4-9.95,0-1.61-.07-3.23-.16-4.85-.06-1.12-.41-2.49.31-3.44l-4.76-1.29a131.37,131.37,0,0,1-.58,21.27c-.31,2.85,4.43,3.48,5,.68.16-.75.31-1.5.47-2.24l-5-.68a20.56,20.56,0,0,1-1.21,6.63,2.55,2.55,0,0,0,4.92,1.35Z"/><path class="cls-2" d="M131.25,224.35c8.28,0,16.57-.13,24.86-.09,3.77,0,7.54.76,11.31.52a68.07,68.07,0,0,1,12.19.48,2.57,2.57,0,0,0,2.55-2.55,2.61,2.61,0,0,0-2.55-2.55,68.07,68.07,0,0,0-12.19-.48c-3.77.24-7.54-.5-11.31-.52-8.29,0-16.58.06-24.86.09C128,219.26,128,224.36,131.25,224.35Z"/><path class="cls-2" d="M180.06,179.84a9.34,9.34,0,0,0-.81,6c.39,2.16,3.69,2.46,4.66.61a6.91,6.91,0,0,0,.89-3.87l-5,.67c1.16,6.58,0,13.35,0,20,0,3.29.65,6.67,0,9.89a18.63,18.63,0,0,0-.18,4.48c0,.91,0,1.83.07,2.74,0,.41,0,.81,0,1.22,0,.2,0,.41,0,.61,0,.51.07.42.33-.26l1.12-.65-.33.07h1.35l-.34-.1,1.13.65c.09.16.18.32.26.48.73-3.19-4.18-4.55-4.91-1.35-.48,2.1,0,4.52,2.34,5.19s4-1.21,4.16-3.37-.11-4.53-.17-6.76.69-4.21.54-6.45a114.88,114.88,0,0,1-.1-14,59.22,59.22,0,0,0-.4-13.7c-.49-2.81-5.22-2.19-5,.68a2,2,0,0,1-.19,1.29l4.66.61a3.36,3.36,0,0,1,.3-2.09C185.89,179.47,181.49,176.88,180.06,179.84Z"/><path class="cls-2" d="M181.32,220.36c.34-3-.66-5.83-.44-8.79.23-3.17.85-6.08.39-9.27-.42-2.94-1.25-5.76-1.31-8.75a64.28,64.28,0,0,1,.77-9.5l-5,.67a41.9,41.9,0,0,1,2,9.07,11.42,11.42,0,0,1,.1,3.78,22.73,22.73,0,0,1-1.56,3.89c-1.13,2.83-.87,5.81-.84,8.78a49,49,0,0,1-.91,9.81l4.66-.61c-1.31-2.26-.86-5.5-.93-8-.08-3-.12-6.1-.29-9.15-.32-5.88-2.31-11.64-2.12-17.53h-5.1l.93,17.71c.15,3,.31,5.9.46,8.86.1,1.75.65,4.56-.58,6.07l3.09-.4-.32-.19.91.91c-.54-1-.53-2.65-.72-3.76-.24-1.38-.45-2.76-.6-4.16a51.18,51.18,0,0,1-.25-8.21c.29-5.56,1.29-11.07,1.09-16.66a2.63,2.63,0,0,0-1.87-2.45,3.79,3.79,0,0,0-4.39,1.56,9.32,9.32,0,0,0-1,4.36c-.31,3.51-.28,7.05-.24,10.57.1,6.87.31,13.79-1.69,20.44h4.92c-1.08-6.64-.94-13.41-.82-20.12.07-3.33.14-6.66.07-10-.06-2.82-.29-5.77-2-8.12a2.59,2.59,0,0,0-4.67.61c-.88,3.14-.08,6.2.13,9.37a55.2,55.2,0,0,1-.38,9.87c-.73,6.49-2,12.93-1.76,19.5l5-.68c-2-5.35-.5-11.12-1.2-16.65-.36-2.83-1.25-5.62-1.43-8.47a26.21,26.21,0,0,1,1.27-8.78l-5-.68.07,18a75.28,75.28,0,0,1-.1,8.63c-.25,2.24-1.06,4.39-3.18,5.45l3.75,2.88a72.57,72.57,0,0,0,1.2-34.56c-.5-2.4-4.48-2.47-4.92,0-1.06,6,0,11.77.7,17.72a41.51,41.51,0,0,1,.31,8.7,26.42,26.42,0,0,1-.82,4.31,16.62,16.62,0,0,1-1.21,4l.92-.91-.25.12,2-.25-.39-.14,1.13.66c-.56-.71-.29-2.77-.32-3.61-.06-1.62-.11-3.25-.16-4.87a89.29,89.29,0,0,1,0-9.54c.48-6.14,2.61-12.08.94-18.23a2.57,2.57,0,0,0-4.26-1.13c-2.16,2.25-2.74,5.21-3.13,8.19a68.32,68.32,0,0,0-.4,9.59c.1,6.17.42,12.4-1.82,18.27l5,.68q.1-8.84.64-17.64c.35-5.65,1.21-11.44-.32-17-.47-1.7-3-2.66-4.27-1.12-3.79,4.68-2.83,11.18-3.07,16.83a125.6,125.6,0,0,1-2.2,19.33l5,.68a129.84,129.84,0,0,1-.29-19.12c.19-3.12.52-6.21.9-9.31a24.81,24.81,0,0,0-.25-9.29,2.59,2.59,0,0,0-4.27-1.12c-2.35,1.94-2.31,5.61-2.7,8.38-.48,3.52-.93,7-1.32,10.57-.78,6.91-1.35,13.85-1.75,20.79l4.75-1.28a8.47,8.47,0,0,1-.66-3.71l-.33-4.9c-.21-3.17-.43-6.34-.64-9.51-.43-6.36-.66-12.5,1-18.71l-4.66.61c2.82,5.46.47,11.84-1,17.33a95.53,95.53,0,0,0-3.11,19.37h5.1c-.22-11.55,2.26-23.05.16-34.55a2.56,2.56,0,0,0-3.74-1.53c-2.41,1.52-2.83,4.12-2.88,6.77-.07,3.4-.25,6.8-.56,10.19s-.68,6.53-1.14,9.78c-.44,3-.86,6.15-2.26,8.9l3.49-.92c.11.08-.16-.5-.18-.79a7.81,7.81,0,0,1,.12-1.87c.27-1.71.68-3.4,1.09-5.09.88-3.56,1.82-7.1,2.48-10.72a106.11,106.11,0,0,0,1.41-10.66c.21-2.63,1.45-7.9-2.1-8.83a2.6,2.6,0,0,0-2.88,1.18c-3.62,6.52-2.39,14-4,21h4.91c-1.74-6.38,1.88-12.95-.41-19.37-.79-2.22-4.29-2.61-4.92,0a27.29,27.29,0,0,0-.36,10.65,2.57,2.57,0,0,0,3.14,1.78,2.61,2.61,0,0,0,1.78-3.14,20.38,20.38,0,0,1,.36-7.93H130c1.1,3.08.64,6.29.23,9.47s-.71,6.62.19,9.9c.64,2.35,4.35,2.5,4.91,0,1.45-6.43.16-13.83,3.45-19.75l-2.88,1.17.25.07-1.53-1.18c-.28-.36,0-.6-.09.15,0,.5,0,1-.06,1.52,0,.92-.1,1.83-.17,2.74-.13,1.73-.29,3.45-.52,5.17a95.92,95.92,0,0,1-2,10.72c-.85,3.46-1.85,6.9-2.38,10.44-.45,3-.18,5.94,2.49,7.82a2.56,2.56,0,0,0,3.49-.92c2.71-5.32,3.08-11.7,3.73-17.55.34-3.08.61-6.16.77-9.25.08-1.65.11-3.3.16-4.95,0-.45-.11-1.76.35-2.05l-3.74-1.53c2,11-.56,22.16-.35,33.2.06,3.31,4.91,3.27,5.1,0A96.89,96.89,0,0,1,144.89,200c1.74-6.27,3-12.88-.15-18.94-1-2-4.1-1.43-4.66.61-1.87,6.86-1.64,13.66-1.17,20.68.23,3.48.47,7,.7,10.43.22,3.14,0,6.84,1.59,9.65,1.32,2.28,4.61,1.17,4.75-1.29q.54-9.48,1.54-18.93.49-4.65,1.11-9.28c.2-1.52.41-3.05.63-4.57.16-1.07.1-2.61,1-3.35L146,183.88c.75,2.91.32,5.9,0,8.83s-.66,6-.82,9a128.36,128.36,0,0,0,.32,18.5,2.57,2.57,0,0,0,2.21,2.5,2.53,2.53,0,0,0,2.8-1.82,131.87,131.87,0,0,0,2.26-18.25c.17-3,.24-6,.29-9,0-2.17,0-4.83,1.41-6.62l-4.26-1.12c1.44,5.24.42,10.91.1,16.25-.34,5.66-.53,11.34-.6,17,0,3,4,3.24,5,.68,2.12-5.54,2.16-11.53,2.05-17.37-.05-2.91-.12-5.82.06-8.73.15-2.39.17-5.87,1.93-7.7l-4.26-1.13c1.37,5.07-.38,10.33-1,15.38-.64,5.45-.16,11.05,0,16.52.08,2.25.1,5.27,2,6.81a3,3,0,0,0,3.47.2c1.14-.71,1.45-2,1.81-3.22a39.37,39.37,0,0,0,1.68-15.81c-.6-5.87-2.09-11.9-1-17.82h-4.92a66.92,66.92,0,0,1-1.2,31.85,2.58,2.58,0,0,0,3.75,2.88c6-3,5.83-10.23,5.81-16l-.08-20.47a2.56,2.56,0,0,0-5-.68,31.56,31.56,0,0,0-1.47,9.54c.09,3.12,1,6.11,1.46,9.18.86,6-.77,12.08,1.37,17.89.93,2.55,5.12,2.38,5-.67-.24-6.36.95-12.61,1.69-18.9a59.83,59.83,0,0,0,.51-9.27c-.1-3-1.19-6.29-.37-9.22l-4.66.61c1.6,2.2,1.31,5.14,1.32,7.73,0,3.22-.07,6.45-.12,9.67a110.83,110.83,0,0,0,1,19.61c.43,2.62,4.25,2.22,4.92,0,1.69-5.64,2-11.54,1.93-17.39,0-2.94-.1-5.88-.08-8.83,0-1.37,0-2.74.11-4.11,0-.77.1-1.55.17-2.33l.12-1.16q.13-.41-.06.09l-1.29.35h.12l-1.87-2.46c.23,6.3-1.08,12.5-1.16,18.78a58.9,58.9,0,0,0,.72,9.19c.23,1.62.51,3.22.82,4.82s.6,2.82,2,3.68a2.57,2.57,0,0,0,3.09-.4,10.76,10.76,0,0,0,2.18-7.47c-.08-3.06-.31-6.11-.47-9.16l-1-19.61c-.17-3.27-5-3.3-5.1,0-.21,6.29,1.92,12.43,2.18,18.71.14,3.28.19,6.57.28,9.85.08,3,0,6,1.57,8.72,1,1.79,4.23,1.59,4.67-.61a55.89,55.89,0,0,0,1.09-10.24c0-3.25-.32-6.15,1.05-9.19a15.22,15.22,0,0,0,1.15-9,45.22,45.22,0,0,0-2.09-9.63c-1-2.82-4.63-2.16-5,.68a64.25,64.25,0,0,0-.77,9.19,54.64,54.64,0,0,0,1.31,9.26c.53,3-.1,5.8-.36,8.77s.76,6,.41,9.09a2.56,2.56,0,0,0,2.55,2.55A2.61,2.61,0,0,0,181.32,220.36Z"/><path class="cls-2" d="M179.88,224.46c-.93,4.26-.57,8.89-.65,13.23L179,251.3c-.05,3.29,5,3.29,5.1,0q.12-6.56.23-13.1.06-3.21.11-6.42a31.36,31.36,0,0,1,.36-6C185.49,222.61,180.58,221.25,179.88,224.46Z"/><path class="cls-2" d="M184.92,251.1q.42-6.25.62-12.5a34.29,34.29,0,0,0-.22-6.08c-.24-1.68-.78-3.44-.37-5.13.77-3.19-4.14-4.55-4.92-1.36a15.85,15.85,0,0,0,.16,6.54,27.75,27.75,0,0,1,.27,5.54q-.19,6.49-.64,13a2.55,2.55,0,0,0,5.1,0Z"/><path class="cls-2" d="M126.08,287.52c0,.34.09.68.14,1a3.61,3.61,0,0,0,.16.87,3,3,0,0,0,.26.59,2.46,2.46,0,0,0,.77.77l.06,0,.25.11.25.1a1.91,1.91,0,0,0,.63.08,2.59,2.59,0,0,0,.55-.07h.07a1.8,1.8,0,0,0,.55-.24,2.1,2.1,0,0,0,1-1.82,2,2,0,0,0-.56-1.35,1.38,1.38,0,0,0-.61-.4,1.46,1.46,0,0,0-.74-.16l-.51.06a2,2,0,0,0-.84.5l-.3.38a1.93,1.93,0,0,0-.26,1v0c0-.17,0-.34.07-.51l0,.06.19-.45,0,0,.3-.38,0,0,.38-.3-.07,0,.45-.2-.09,0,.51-.07h-.09l.51.07-.09,0,.45.2-.08,0,.39.3-.08-.09.3.39-.08-.13c.07.15.13.3.2.46a3.7,3.7,0,0,1-.16-.87c0-.34-.09-.68-.14-1a1.49,1.49,0,0,0-.34-.66,1.59,1.59,0,0,0-.54-.49,1.53,1.53,0,0,0-.71-.23,1.51,1.51,0,0,0-.76,0,2,2,0,0,0-1.15.88l-.19.46A1.92,1.92,0,0,0,126.08,287.52Z"/><path class="cls-2" d="M131.15,290.88h4.12a2,2,0,0,0,1.36-.56,2,2,0,0,0,.56-1.35,1.91,1.91,0,0,0-1.92-1.92h-4.12a2,2,0,0,0-1.36.56,2,2,0,0,0-.56,1.36,2,2,0,0,0,.56,1.35A2,2,0,0,0,131.15,290.88Z"/><path class="cls-2" d="M137.22,289.69c14.41.26,28.8.1,43.21.4a1.28,1.28,0,0,0,0-2.55c-14.41-.3-28.8-.14-43.21-.4A1.28,1.28,0,0,0,137.22,289.69Z"/><path class="cls-2" d="M182.46,260.49c.49,1,.27,2.41.25,3.51l-.07,3.74c0,2.4-.09,4.8-.14,7.2-.09,4.69-.54,9.53.09,14.19l1.23-1.62a14.62,14.62,0,0,1-4-1v2.46c1.5-.35,3.58-.52,3.93-2.37a4.45,4.45,0,0,0-.31-2.16,7.9,7.9,0,0,1-.31-3.38,1.28,1.28,0,0,0-.94-1.23,2.27,2.27,0,0,0-2.95,1.72,10.2,10.2,0,0,0,0,2.53c0,1-.06,2.08-.13,3.12-.11,1.64,2.44,1.63,2.55,0,.05-.83.55-4.63-.13-4.92-.32-.4-.63-.82-.94-1.22a9.37,9.37,0,0,0,.33,3.83c.12.4.43,1,.25,1.14s-1.6.38-2,.48c-1.34.32-1.07,2,0,2.46a16.74,16.74,0,0,0,4.73,1.12c.92.09,1.33-.88,1.23-1.61a48.87,48.87,0,0,1-.11-7.46q.06-3.89.14-7.78l.15-7.48c0-2.17.4-4.52-.57-6.53C183.94,257.73,181.74,259,182.46,260.49Z"/></svg>