<svg id="Layer_1" data-name="Layer 1" xmlns="http://www.w3.org/2000/svg" viewBox="0 0 500 500"><defs><style>.cls-1{fill:#a7c87e;}.cls-2{fill:#fff;}.cls-3{fill:#aecb8d;}</style></defs><polyline class="cls-1" points="142.82 96.82 142.82 367.4 149.4 367.4 149.4 96.82"/><path class="cls-1" d="M270.1,169.69a34.23,34.23,0,0,1,34.19,34.19V301A34.23,34.23,0,0,1,270.1,335.2H217.6A34.23,34.23,0,0,1,183.41,301V203.88a34.23,34.23,0,0,1,34.19-34.19h52.5m0-2.82H217.6a37,37,0,0,0-37,37V301a37,37,0,0,0,37,37h52.5a37,37,0,0,0,37-37V203.88A37,37,0,0,0,270.1,166.87Z"/><path class="cls-1" d="M181.6,212.9v84c0,22.89,18,41.45,40.13,41.45h45c22.16,0,40.12-18.56,40.12-41.45v-84"/><polyline class="cls-2" points="185.84 230.13 221.99 230.13 221.99 227.31 185.84 227.31"/><polyline class="cls-2" points="185.84 248.77 242.32 248.77 242.32 245.95 185.84 245.95"/><polyline class="cls-2" points="185.84 263.46 221.99 263.46 221.99 260.64 185.84 260.64"/><polyline class="cls-2" points="185.84 279.84 242.32 279.84 242.32 277.02 185.84 277.02"/><polyline class="cls-2" points="185.84 295.66 221.99 295.66 221.99 292.83 185.84 292.83"/><polygon class="cls-1" points="265.32 348.47 265.32 347.06 223.8 347.06 223.8 339.15 263.9 339.15 263.9 348.47 265.32 348.47 265.32 347.06 265.32 348.47 266.73 348.47 266.73 336.33 220.97 336.33 220.97 349.89 266.73 349.89 266.73 348.47 265.32 348.47"/><path class="cls-1" d="M252,357.51V356.1H235.66v1.41h1.41v-9h-1.41v1.42h15v7.62H252v0h1.41V347.06h-19.2v11.86h19.2v-1.41Z"/><path class="cls-1" d="M242.93,358.84a72.16,72.16,0,0,0,25.07,34,61.81,61.81,0,0,0,36.28,12.39,52,52,0,0,0,12-1.39,51.39,51.39,0,0,0,19.95-9.65,70,70,0,0,0,17.59-21,71.83,71.83,0,0,0,5.61-12.42l.07-.2V171.39h-2.83v188.9h1.41l-1.34-.42a75.08,75.08,0,0,1-9.6,18.58,63,63,0,0,1-12.64,13.46,48.53,48.53,0,0,1-30.26,10.44c-12,0-24.17-4.18-34.61-11.84a69.37,69.37,0,0,1-24.09-32.63l-2.65,1Z"/><path class="cls-1" d="M245.56,149.07v-1.41h-3.42a10.72,10.72,0,0,0-10.72,10.72v0a10.72,10.72,0,0,0,10.72,10.72h3.42a10.72,10.72,0,0,0,10.72-10.72v0a10.72,10.72,0,0,0-10.72-10.72v2.83a7.89,7.89,0,0,1,7.89,7.89v0a7.89,7.89,0,0,1-7.89,7.89h-3.42a7.89,7.89,0,0,1-7.89-7.89v0a7.89,7.89,0,0,1,7.89-7.89h3.42Z"/><polyline class="cls-1" points="147.99 159.52 244.02 159.52 244.02 156.7 147.99 156.7"/><path class="cls-3" d="M250.2,18.78a231,231,0,0,1,89.88,443.69A231,231,0,0,1,160.32,36.93,229.43,229.43,0,0,1,250.2,18.78m0-10C117.15,8.78,9.29,116.65,9.29,249.7S117.15,490.62,250.2,490.62,491.12,382.75,491.12,249.7,383.26,8.78,250.2,8.78Z"/></svg>