<?xml version="1.0" encoding="utf-8"?>
<!-- Generator: Adobe Illustrator 24.0.3, SVG Export Plug-In . SVG Version: 6.00 Build 0)  -->
<svg version="1.1" id="Layer_1" xmlns="http://www.w3.org/2000/svg" xmlns:xlink="http://www.w3.org/1999/xlink" x="0px" y="0px"
	 viewBox="0 0 500 500" style="enable-background:new 0 0 500 500;" xml:space="preserve">
<style type="text/css">
	.st0{fill:#AECB8D;}
	.st1{fill:#A7C87E;}
	.st2{fill:none;stroke:#AECB8D;stroke-width:2;stroke-miterlimit:10;}
	.st3{fill:#FFFFFF;}
	.st4{fill:none;stroke:#A7C87E;stroke-width:3;stroke-miterlimit:10;}
	.st5{fill:none;stroke:#A7C87E;stroke-width:2;stroke-miterlimit:10;}
	.st6{fill:none;stroke:#A7C87E;stroke-width:2;stroke-miterlimit:10;stroke-dasharray:5.9695,5.9695;}
	.st7{fill:none;stroke:#FFFFFF;stroke-linecap:round;stroke-miterlimit:10;}
	.st8{fill:none;stroke:#A7C87E;stroke-width:5;stroke-miterlimit:10;}
	.st9{fill:none;stroke:#A7C87E;stroke-miterlimit:10;}
	.st10{fill:none;stroke:#A7C87E;stroke-width:10;stroke-miterlimit:10;}
	.st11{fill:url(#);}
	.st12{fill:#A7C87E;stroke:#A7C87E;stroke-width:0.25;stroke-miterlimit:10;}
	.st13{fill:#FFFFFF;stroke:#FFFFFF;stroke-width:0.25;stroke-miterlimit:10;}
	.st14{fill:none;stroke:#A7C87E;stroke-width:0.25;stroke-miterlimit:10;}
</style>
<g>
	<path class="st0" d="M250.2,18.8c31.2,0,61.4,6.1,89.9,18.1c27.5,11.6,52.2,28.3,73.4,49.5s37.9,45.9,49.5,73.4
		c12,28.5,18.1,58.7,18.1,89.9s-6.1,61.4-18.1,89.9c-11.6,27.5-28.3,52.2-49.5,73.4s-45.9,37.9-73.4,49.5
		c-28.5,12-58.7,18.1-89.9,18.1s-61.4-6.1-89.9-18.1c-27.5-11.6-52.2-28.3-73.4-49.5s-37.9-45.9-49.5-73.4
		c-12-28.5-18.1-58.7-18.1-89.9s6.1-61.4,18.1-89.9c11.6-27.5,28.3-52.2,49.5-73.4s45.9-37.9,73.4-49.5
		C188.8,24.9,219,18.8,250.2,18.8 M250.2,8.8C117.1,8.8,9.3,116.6,9.3,249.7s107.9,240.9,240.9,240.9s240.9-107.9,240.9-240.9
		S383.3,8.8,250.2,8.8L250.2,8.8z"/>
</g>
<g>
	<path class="st0" d="M250.4,60.9c1.4,1.4,2.9,2.9,4.3,4.3c0.2,2.4,0.5,4.8,0.5,7.2c-0.1,25.5-0.4,50.9-0.4,76.4
		c0,54.2-0.1,108.3,0.1,162.5c0,8.1-0.9,16.3,0.9,25.8c3.3-5.2,3.1-9.8,3.8-14.1c9-57.3,18-114.7,26.9-172
		c1.9-12.2,3.8-24.4,5.8-36.6c0.6-3.8,1.6-7.7,7-4.5c5.4,5.4,10.9,10.9,16.3,16.3c0.8,2.2,0.9,4.3,0.3,6.6
		c-7.4,29.8-14.8,59.7-22.1,89.5c-3.5,14.5-6.7,29.1-10.1,43.7l-0.1,0.7c-5.8,17.9-9.4,36.4-14.1,54.6c-0.6,2.3,0.2,4,2.4,4.9
		c3,1.2,3.8-1.2,4.8-3.2c11.6-24.9,23.2-49.8,34.9-74.7c12.2-26,24.5-51.9,36.8-77.9c1.2-2.6,2.3-5.3,5.8-5.5
		c5.2,5.2,10.3,10.3,15.5,15.5c1,2.6-0.4,4.8-1.6,6.9c-2.4,4.4-5.1,8.7-7.7,13.1c-17.7,29.7-35.4,59.4-53.2,89
		c-11,18.4-22.2,36.6-33.2,55c-2.2,3.6-4,4.9-8,1.7c-2.6-2.1-6.4-4.3-10.1-2.5c-4,1.9-2,6.1-2.2,9.3c-0.1,1.4,0.3,2.8,0.2,4.2
		c-0.8,8.5,1.9,14.3,11.2,16c4.7,0.9,6.4,4.2,5.9,9.6c-0.8,8.2-5.8,13-11.3,17.9c-2.6,2.4-4,5.4-1.1,8.5c2.8,2.9,5.9,1.9,8.7-0.2
		c2.3-1.7,4.3-3.7,6.6-5.3c11.8-8,25.4-12.4,38.1-18.4c4.5-2.1,8.2-4.4,10.4-9.4c2.9-6.5,7.6-8,13.9-5.1c2.7,1.2,4.9,1.2,7.5,0
		c8.1-3.6,16.3-7.2,24.4-10.8c1.5-0.6,3.2-1.7,4.5-0.3c1.3,1.3-0.4,2.6-0.7,3.9c-6,6-12,12-18.1,18.1c-6.2,2-12.3,4-18.5,5.9
		c-17,5.4-34,10.7-51,16c-2.7,0.8-4.9,2.2-5.2,5.2c-0.3,2,0.8,3.6,2.5,4.4c3.2,1.5,4.8-1.1,6.6-2.9c2.6-2.5,5-5.3,7.9-7.5
		c3.3-2.5,7-1.6,10.3,0.2c2.3,1.2,3.8,3.5,3.5,6c-0.5,3.8-4.3,3.7-7,4.8c-7.5,3.2-15.4,5.8-18.4,14.9c-1.2,3.6-3.4,6.8-6.1,9.7
		c-17.5,18.8-49.2,16.5-63.6-4.8c-6.4-9.4-8.9-19.9-6.7-31.2c0.6-3,1.6-6.4,5.1-6.9c3.6-0.5,5.9,1.8,7.4,5.2c1,2.4,2.3,4.7,4.4,6.5
		c1.7,1.5,3.8,2.2,5.4,0.5c3.6-3.8,8.4-5.6,12.5-8.6c2.4-1.7,3.3-3.7,2.7-6.7c-1.1-6.4-2.3-12.8-2.7-19.2c-0.3-5.5-2.6-8.9-7.5-11.4
		c-5-2.5-10.2-5.2-13-10.5c-9.3-17.3-18.4-34.6-27.7-51.9c-20.1-37.6-40.2-75.2-60.3-112.9c-4-7.4-3.8-8.7,2.1-14.8
		c2.7-2.7,5.4-5.5,8.2-8.2c5.3-5.2,6.8-5,9.8,2c3.7,8.5,7.1,17.2,10.5,25.8c0.9,2.4,2.2,4.5,4.8,2.8c3.4-2.4,8.1-3.7,9.6-8
		c1.6-4.7,4.5-6.3,9.8-4.8c-4.4-14.8-8.5-28.8-12.8-42.7c-0.7-2.4-1.6-4.8,0.4-6.9c4.7-5,9.6-9.9,14.6-14.6c2.3-2.2,4.1-1.1,4.9,1.6
		c0.5,1.5,0.8,3.1,1.1,4.7c8.6,49.9,17.1,99.7,25.6,149.6c0.5,2.9,3.2,7.5-0.8,8.4c-2.9,0.7-3.5-4.6-4.4-7.6
		c-6.3-20.7-12.6-41.4-19-62.1c-0.6-2-0.6-5-3.4-5.2c-2.4-0.2-2.9,2.5-3.9,4.2c-2.6,4.2-5.7,6.9-11,4.5c-1.8-0.8-3.8-3-5.3-1.2
		c-1.4,1.5,0.5,3.8,1.2,5.6c9.1,22.5,18.1,45,27.4,67.5c6.2,15.2,12.7,30.2,19.1,45.3c0.5,1.2,0.8,3,2.5,3.1c2.1,0.1,1.7-1.7,2.2-3
		c2.3-6.5,8.3-8.3,14.1-3.5c-0.1-2.9-0.1-5.3-0.4-7.6c-2-20.9-4.1-41.8-6.2-62.8c-5.3-54.4-10.7-108.7-16-163.1
		c-0.4-3.9,0.5-7.1,3.3-9.9c7.2-7.1,14.4-14.3,21.5-21.5C246.4,62.7,248.1,61.3,250.4,60.9z"/>
	<path class="st0" d="M175.2,308.6c1.1-3.8,3.8-6.4,4.5-9.7c1.2-5.6,4.2-4.9,7.9-2.7c2.1,1.3,4,2.8,5.1,5c3.1,5.9,6,11.9,9,17.9
		c1.1,2.2,2.2,4.8,0,6.7c-2.2,1.9-4.1-0.4-5.9-1.6c-5-3.2-9.9-6.6-15.8-10.6c1.2,5,4.2,7.7,6.3,10.6c11.7,16.2,23.8,32.1,35.6,48.3
		c1.8,2.5,5.3,5.8,2,9.1c-4.1,4.1-8.6,8.4-15.2,7.2c-4.4-0.8-8.5-2.5-12.8-3.6c-3.8-1-6-0.6-4.1,4.4c2.2,5.7,1,7.3-5.1,7.4
		c-5,0.1-9.9,0.2-11.6-6.1c-0.5-1.9-2.3-2.7-4.1-3.2c-1.8-0.5-3.5-1.3-5.3-1.3c-16.4-0.4-27.7-9.9-37.8-21.4c-1.5-1.7-4.4-3.5-2.8-6
		c1.4-2.2,4.1-0.5,6.1,0.1c23.7,6.9,47.3,13.8,71.5,19.7c-4.1-2.1-8.2-4.2-12.3-6.2C156.6,356,122.8,339.6,89,323.1
		c-2.9-1.4-5.6-3.3-8-5.4c-8.7-7.7-7.4-9.2,1.4-16.8c2-1.7,4.2-0.9,6.2,0.1c4.9,2.5,9.7,4.9,14.6,7.4c1.8,0.9,3.9,2.1,5.6,0.5
		c1.7-1.6-0.4-3.2-0.8-4.9c-2.9-10.5-6.2-20.9-3.2-32c1.3-4.8,4.2-5.8,8.7-2.7c2.8,1.9,5,4.7,8.3,6c1.1,0.4,2.5,1.2,3.3,0
		c0.9-1.4-0.6-2-1.4-2.8c-10.7-10.4-21.5-20.8-32.2-31.2c-2.9-2.8-6.5-4.6-8.6-8.4c-1.5-2.6-1.4-4.5,0.5-6.5
		c4.2-4.4,8.5-8.7,12.8-13c3-3,5.9-3.1,8.7,0.4c4.4,5.6,8.9,11,13,16.7c14.3,19.5,28.5,39.2,42.8,58.8
		C165.4,295.8,170.4,302.2,175.2,308.6z"/>
	<path class="st0" d="M138.8,245.6c-2.3-5.2-6.6-11.5-7.9-18.4c-1.2-6.1,3.9-11.5,7.5-16.5c1.4-2,3.8-0.7,5.2,0.9
		c7.3,8.6,12.9,18,12,29.9c-0.3,3.3-0.1,7.3-4.4,8.4C147,251.1,142.8,250.6,138.8,245.6z"/>
	<path class="st0" d="M173.2,268.6c2.5,3.1,4.4,8.1,6.1,13c1.3,3.5-1.1,6.1-4.6,4.3c-9.2-4.6-18.2-9.8-20-21.5
		c-0.3-2.2-1-4.7,1.5-5.9c2.2-1.1,4.4-0.4,6.2,1.1C165.7,262.3,168.9,265,173.2,268.6z"/>
	<path class="st0" d="M230.7,382.7c1.4-1.2,2.7-2.5,4.2-3.4c3.5-2.2,5.6-1.3,6.4,2.8c1.8,8.8-3.5,16.9-12.6,18.3
		c-4.1,0.7-4.9-2.6-4.3-5.5C225.4,390.4,226.9,385.9,230.7,382.7z"/>
	<path class="st0" d="M206.1,283.1c-1.7-2.9-3.9-5.6-4.5-9c-0.6-3.6,0.7-6.4,4.2-7.8c3.3-1.3,5.4,0.6,6.7,3.4
		c1.9,3.8,3.6,7.6,5.3,11.4c0.8,1.9,0.3,3.5-1.2,4.9c-1.5,1.4-3.2,1.9-4.9,0.9C209.7,285.8,208,284.4,206.1,283.1z"/>
	<path class="st0" d="M449.4,285.6c-5.8,5.5-18,11.2-29,18.7c-3.2,2.1-6.4,4.2-9.8,6.1c-3.8,2.2-6.6,4.6-4.3,9.6
		c0.7,1.5,0.1,3.4-1,4.6c-4.5,5.4-7.4,12.5-15.6,14.2c-3.2,0.7-6.3,2.8-9,4.9c-7.7,6.1-15.8,7.3-24.6,2.9c-1.9-1-3.4-0.1-5,1
		c-12.9,8.3-26.2,15.9-38.7,24.9c-2.5,1.8-6,5.6-8.2,2.7c-2.2-2.9,2.9-4.3,4.9-6.2c4.8-4.3,9.7-8.5,14.6-12.7c2-1.7,2.1-3.7,1.2-6
		c-1.7-4.5-0.6-8.4,3-11.4c3.8-3.1,6.9-0.5,9.8,1.6c3.3,2.4,5.8,0.8,8.2-1.2c23.5-19.4,47-38.8,70.5-58.2
		c7.6-6.3,15.3-12.5,22.9-18.9c4.2-3.6,8.1-4.4,11.8,0.6c0.6,0.8,1.4,1.4,2.1,2.2C462.2,273.9,462.4,272.4,449.4,285.6z"/>
	<path class="st0" d="M292.5,345c23.9-25,48.1-49.7,71.4-75.3c10-10.9,20.5-21.2,30.6-32c3.2-3.4,5.9-7.1,9-10.6
		c1.1-1.2,2.2-2.9,3.6-3.2c8.1-1.6,10.2,6.4,14.9,10.1c2.9,2.3,3.2,5.6,0,8.3c-8.3,7.1-16.6,14.2-25,21.2
		c-12.4,10.3-24.9,20.6-37.3,30.9c-17.6,14.8-35.2,29.6-52.8,44.4c-4.5,3.8-8.9,7.3-4.7,14.1c1.8,2.8-0.1,5-3.1,4.9
		c-3.8-0.2-5.6,1.2-6.4,4.8c-0.6,2.7-2,5-5.2,5c-3.3,0-4.9-2.4-6.5-4.8c-1.8-2.6-1.3-4.9,0.8-7c3.6-3.6,7.2-7.1,10.7-10.7L292.5,345
		z"/>
	<path class="st0" d="M327.9,297.4c-3.3,1.8-5.6,7.5-8.2,5.2c-3.3-2.8,1.8-6.2,3.6-8.8c18.5-25.7,37.3-51.2,56-76.7
		c1.5-2.1,3.5-3.9,5.1-6c2-2.6,3.1-7,7.3-6.2c4.1,0.8,6.5,4.6,8.8,7.9c1.6,2.3,0.2,4.1-1.4,5.9c-12.4,13.5-25,26.9-37.2,40.6
		C350.6,272.4,338,284,327.9,297.4z"/>
	<path class="st0" d="M332.7,322.4c6.6-4.8,13.6-10,20.7-14.9c3.6-2.5,7.8-1.7,10.5,1.3c2.7,2.9-1.2,5.2-2.1,7.8
		c-3.3,8.9-12,10.6-18.8,14.9c-2.1,1.3-11.8-1.6-12.8-3.6C329,325.4,331.1,324.2,332.7,322.4z"/>
	<path class="st0" d="M276.4,156c5.1,4.2,1.5,8.9,0.7,13.4c-0.6,3.4-3.2,4.4-6.1,5c-3.8,0.7-6.1-1.8-8-4.5c-2.1-3-0.2-15.4,2.6-17.9
		c1.8-1.6,3.8-1.4,5.6-0.2C273,153.2,274.7,154.7,276.4,156z"/>
	<path class="st0" d="M284,266c3.6-6.2,4.3-13.3,6.8-19.9c2.1-5.6,5.7-6.7,10.9-5.5c5.4,1.3,5,5.1,4.8,9.4c-0.2,6.2-2.5,11.2-7,15.4
		c-1.3,1.2-2.4,2.8-3.2,4.3c-1.6,3-2.6,6.9-7.1,5.8c-4.7-1.1-5.4-4.8-5.2-8.9L284,266z"/>
</g>
</svg>
