<?xml version="1.0" encoding="utf-8"?>
<!-- Generator: Adobe Illustrator 24.0.3, SVG Export Plug-In . SVG Version: 6.00 Build 0)  -->
<svg version="1.1" id="Layer_1" xmlns="http://www.w3.org/2000/svg" xmlns:xlink="http://www.w3.org/1999/xlink" x="0px" y="0px"
	 viewBox="0 0 500 500" style="enable-background:new 0 0 500 500;" xml:space="preserve">
<style type="text/css">
	.st0{fill:#AECB8D;}
	.st1{fill:#A7C87E;}
	.st2{fill:none;stroke:#AECB8D;stroke-width:2;stroke-miterlimit:10;}
	.st3{fill:#FFFFFF;}
	.st4{fill:none;stroke:#A7C87E;stroke-width:3;stroke-miterlimit:10;}
	.st5{fill:none;stroke:#A7C87E;stroke-width:2;stroke-miterlimit:10;}
	.st6{fill:none;stroke:#A7C87E;stroke-width:2;stroke-miterlimit:10;stroke-dasharray:5.9695,5.9695;}
	.st7{fill:none;stroke:#FFFFFF;stroke-linecap:round;stroke-miterlimit:10;}
	.st8{fill:none;stroke:#A7C87E;stroke-width:5;stroke-miterlimit:10;}
	.st9{fill:none;stroke:#A7C87E;stroke-miterlimit:10;}
	.st10{fill:none;stroke:#A7C87E;stroke-width:10;stroke-miterlimit:10;}
	.st11{fill:url(#);}
	.st12{fill:#A7C87E;stroke:#A7C87E;stroke-width:0.25;stroke-miterlimit:10;}
	.st13{fill:#FFFFFF;stroke:#FFFFFF;stroke-width:0.25;stroke-miterlimit:10;}
	.st14{fill:none;stroke:#A7C87E;stroke-width:0.25;stroke-miterlimit:10;}
</style>
<g>
	<path class="st0" d="M250.2,18.8c31.2,0,61.4,6.1,89.9,18.1c27.5,11.6,52.2,28.3,73.4,49.5s37.9,45.9,49.5,73.4
		c12,28.5,18.1,58.7,18.1,89.9s-6.1,61.4-18.1,89.9c-11.6,27.5-28.3,52.2-49.5,73.4s-45.9,37.9-73.4,49.5
		c-28.5,12-58.7,18.1-89.9,18.1s-61.4-6.1-89.9-18.1c-27.5-11.6-52.2-28.3-73.4-49.5s-37.9-45.9-49.5-73.4
		c-12-28.5-18.1-58.7-18.1-89.9s6.1-61.4,18.1-89.9c11.6-27.5,28.3-52.2,49.5-73.4s45.9-37.9,73.4-49.5
		C188.8,24.9,219,18.8,250.2,18.8 M250.2,8.8C117.1,8.8,9.3,116.6,9.3,249.7s107.9,240.9,240.9,240.9s240.9-107.9,240.9-240.9
		S383.3,8.8,250.2,8.8L250.2,8.8z"/>
</g>
<g>
	<path class="st1" d="M270.6,339.8c-1.2-0.4-2.4-0.4-3.6-0.6c-6.1-1-11.4-3.6-16-7.6c-2.5-2.2-4.4-4.8-6.3-7.4
		c-4.4-6.1-8.7-12.3-13.1-18.4c-5.8-8.2-11.6-16.3-17.4-24.5c-1.4-1.9-2.8-3.8-4.1-5.8c-0.4-0.6-0.9-0.9-1.6-0.8c-0.4,0-0.7,0-1.1,0
		c-34.4,0-68.8,0-103.2,0c-4.5,0-8.9-0.5-13.1-2.1c-3.7-1.4-6.9-3.4-9.9-6c-4.7-4.1-7.9-9.3-9.7-15.2c-0.5-1.6-0.8-3.3-1-4.9
		c-0.1-0.5-0.1-1.1-0.4-1.6c0-1.5,0-3.1,0-4.6c0.4-1,0.4-2.1,0.6-3.2c1.2-6.6,4.1-12.3,8.8-17.1c5.1-5.2,11.2-8.2,18.3-9.3
		c1.2-0.2,2.4-0.3,3.6-0.3c40.8,0,81.6,0,122.4,0c5.8,0,11.2,1.5,16.2,4.3c1.3,0.7,2.8,1.3,4.1,2.1c3.9,2.3,7,5.4,9.6,9
		c6.1,8.6,12.3,17.2,18.4,25.8c5.2,7.3,10.4,14.6,15.6,22c1.3,1.9,1.3,1.9,3.6,1.9c31.8,0,63.6,0,95.4,0c2.2,0,4.4-0.3,6.6-0.2
		c4.2,0.2,8.3,0.4,12.3,1.9c4.2,1.6,8,3.9,11.4,6.9c5.2,4.7,8.2,10.6,9.5,17.5c0.1,0.6,0,1.2,0.3,1.8c0,2.9,0,5.8,0,8.8
		c-0.2,0.5-0.2,1.1-0.3,1.6c-1.4,6.9-4.7,12.8-10,17.6c-4.6,4.2-10,6.7-16.1,7.9c-1.2,0.2-2.5,0.2-3.7,0.6
		C354.7,339.8,312.7,339.8,270.6,339.8z M333.8,330.3c20.4,0,40.9,0,61.3,0c0.9,0,1.7,0,2.6-0.2c5.8-0.8,10.7-3.4,14.5-7.9
		c4.1-4.9,6-10.5,5.4-16.9c-0.6-6.1-3.4-11.2-8-15.1c-4.3-3.7-9.3-5.4-14.9-5.4c-35.3,0-70.7,0-106,0c-0.4,0-0.9,0-1.3,0
		c-2.1-0.1-3.8-0.8-5.1-2.7c-3.4-5-7-9.8-10.5-14.7c-4.3-6.1-8.7-12.2-13-18.3c-4.3-6-8.5-12-12.8-18c-2.3-3.2-5.2-5.7-8.7-7.3
		c-0.6-0.3-1.2-0.6-1.8-0.9c-3.9-2.2-8.1-3.2-12.6-3.2c-16.4,0-32.8,0-49.2,0c-23.3,0-46.6,0-69.9,0c-2.1,0-4.2,0.1-6.3,0.6
		c-5,1.2-9.3,3.7-12.5,7.8c-3.8,4.7-5.6,10.2-5.1,16.3c0.4,4.2,1.8,8,4.2,11.4c2.9,4.1,6.9,6.9,11.7,8.5c2.9,1,6,1.2,9,1.2
		c28.8-0.1,57.6,0.2,86.4-0.1c6.5-0.1,13,0,19.5,0c2.4,0,4.4,0.7,5.9,2.9c4.1,6,8.4,11.9,12.6,17.8c5.6,7.8,11.1,15.7,16.7,23.5
		c2.8,4,5.6,8,8.6,11.9c3.3,4.5,7.8,7.3,13.3,8.5c2.2,0.5,4.5,0.5,6.8,0.5C294.2,330.3,314,330.3,333.8,330.3z"/>
	<path class="st1" d="M413.4,161.8c2.6,0.8,3.9,2.4,3.8,4.8c-0.1,2.6-2,4.4-4.7,4.5c-2.2,0-4.5,0-6.7,0c-2.3,0-4.5,0-6.8,0
		c-1.9,0-2,0.1-2,2c0,8.6,0,17.2,0,25.9c0,0.3,0,0.7,0,1c0,2.9-1.8,4.8-4.7,4.9c-0.4,0-0.7,0-1.1,0c-9.6,0-19.2,0-28.8,0
		c-1.6,0-1.6,0-1.8,1.5c-0.2,2.5-0.3,5,0,7.5c0.1,0.8,0.2,0.9,1,0.9c1,0,2,0.1,3.1,0c2-0.1,3.5,0.8,4.5,2.4c0.9,1.4,1.7,2.8,2.5,4.2
		c2.2,3.8,4.3,7.5,6.5,11.3c1,1.8,1,3.5,0,5.3c-3,5.2-6,10.3-8.9,15.5c-1.9,3.3-5.9,3.1-7.7,1.1c-1.3-1.4-1.6-3.5-0.7-5.3
		c0.7-1.3,1.4-2.6,2.2-3.9c1.7-2.9,3.4-5.9,5.1-8.8c0.4-0.7,0.4-1.3,0.1-2c-1.8-3.3-3.6-6.5-5.6-9.7c-0.1-0.2-0.2-0.3-0.3-0.4
		c-0.3-0.4-0.8-0.4-1.2-0.3c-0.5,0.1-0.6,0.5-0.6,0.9c0,1.4,0,2.8,0,4.2c0,1.7,0,3.4-0.1,5c-0.1,1.8-0.6,3.4-2.3,4.3
		c-2.9,1.6-6.4,0-7-3.1c-0.1-0.6-0.2-1.3-0.2-2c0-2.6,0-5.1,0-7.7c0-0.3,0-0.6,0-0.9c0-0.3-0.1-0.7-0.4-0.8
		c-0.4-0.1-0.9-0.2-1.2,0.3c-0.1,0.2-0.3,0.4-0.4,0.5c-2.1,3.1-3.9,6.4-5.7,9.6c-0.4,0.6-0.3,1.2,0.1,1.8c1.8,3.1,3.5,6.1,5.3,9.2
		c0.6,1.1,1.3,2.2,1.9,3.3c1.6,2.9,0.3,6.2-2.8,7c-2,0.6-4.2-0.3-5.3-2.3c-1.3-2.3-2.6-4.5-4-6.8c-1.6-2.7-3.1-5.4-4.7-8.2
		c-0.2-0.4-0.4-0.8-0.6-1.2c-0.7-1.5-0.7-3,0.1-4.4c1.2-2.2,2.5-4.4,3.8-6.7c1.6-2.7,3.2-5.4,4.7-8.2c1.3-2.5,3.1-3.8,6-3.5
		c0.8,0.1,1.6,0,2.4,0c0.5,0,0.8-0.3,0.9-0.8c0.1-0.8,0.2-1.6,0.1-2.4c-0.1-1.5-0.1-3-0.1-4.5c0-0.4,0-0.9,0-1.3c0-0.8-0.2-0.9-1-1
		c-0.4,0-0.7,0-1.1,0c-9.4,0-18.9,0-28.3,0c-0.8,0-1.5,0-2.3-0.2c-2-0.3-3.4-1.6-3.7-3.6c-0.1-0.8-0.2-1.6-0.2-2.4
		c0-8,0-16.1,0-24.1c0-0.6,0.1-1.2,0.1-1.7c0.1-1.2-0.3-1.7-1.5-1.7c-0.4,0-0.8,0-1.2,0c-28.6,0-57.2,0-85.7,0c-0.7,0-1.5,0-2.2-0.2
		c-2-0.6-3.2-2.3-3.2-4.4c0-2.2,1.1-3.8,3.1-4.4c0.2-0.1,0.5-0.2,0.7-0.2C287.4,161.8,350.4,161.8,413.4,161.8z M347.3,195.5
		c1.9-0.1,4.2,0.1,6.6-0.1c0.8-0.1,1.3-0.4,1.8-1c5.4-7.2,10.9-14.3,16.3-21.4c0.3-0.4,1.1-0.9,0.8-1.4c-0.3-0.5-1.1-0.4-1.7-0.4
		c-4.3,0-8.6,0-12.9,0c-0.4,0-0.7,0-1.1,0.1c-0.3,0.1-0.5,0.2-0.6,0.6c-0.5,1.6-1.5,2.9-2.5,4.2c-4.6,6-9.2,12-13.9,18.1
		c-0.2,0.2-0.3,0.4-0.4,0.6c-0.2,0.3-0.2,0.6,0.3,0.6c0.7,0,1.3,0.2,2,0.2C343.5,195.4,345.2,195.5,347.3,195.5z M323.8,183.1
		c0,3.5,0,6.9,0,10.4c0,0.4,0,0.8,0.1,1.2c0.1,0.3,0.3,0.6,0.6,0.7c1.2,0.4,2.6,0,3.4-1c5.5-7.2,10.9-14.3,16.4-21.5
		c0.3-0.4,1.1-0.9,0.8-1.4c-0.3-0.5-1.1-0.4-1.7-0.4c-4.5,0-9.1-0.1-13.6,0c-1.6,0-3.3-0.1-4.9,0.2c-1.1,0.2-1.1,0.1-1.1,1.2
		C323.8,176,323.8,179.6,323.8,183.1z M377,195.5c1,0,2,0,3.1,0c2,0,4,0,6,0c1.1,0,1.3-0.3,1.4-1.3c0.1-2,0.2-4,0.2-6
		c0.1-4.6,0-9.3,0-13.9c0-0.4,0-0.7,0-1.1c-0.2-2.2-0.5-2.3-2.7-2.1c-0.5,0-0.8,0.2-0.9,0.7c-0.2,1-0.7,1.9-1.4,2.7
		c-2.8,3.7-5.6,7.3-8.4,11c-2.3,3-4.5,5.9-6.8,8.9c-0.2,0.2-0.5,0.5-0.3,0.9c0.2,0.3,0.5,0.2,0.8,0.3c0.2,0,0.4,0,0.7,0
		C371.4,195.5,374.2,195.5,377,195.5z"/>
	<path class="st1" d="M154,194.8c-11.3,0-22.5,0-33.8,0c-0.9,0-1.7,0-2.6-0.3c-2-0.7-3.2-2.6-3-4.7c0.2-2.1,1.7-3.7,3.7-4.1
		c0.7-0.1,1.4-0.2,2.2-0.2c22.3,0,44.6,0,66.9,0c0.7,0,1.4,0,2.1,0.2c2.2,0.5,3.5,2.1,3.6,4.3c0.2,2.9-2.1,4.9-4.7,4.8
		c-0.4,0-0.9,0-1.3,0C176.1,194.8,165,194.8,154,194.8z"/>
	<path class="st1" d="M302.7,252c0,2.2-0.9,3.7-2.7,4.5c-1.8,0.8-3.9,0.4-5.2-0.9c-0.8-0.8-1.4-1.7-2.1-2.6
		c-6.1-7.9-12.2-15.8-18.3-23.8c-0.3-0.4-0.6-0.8-0.9-1.3c-1.3-2-0.9-4.8,0.9-6.1c2-1.6,4.6-1.4,6.4,0.4c1.1,1.1,2,2.4,2.9,3.7
		c4.3,5.5,8.6,11.1,12.9,16.7c1.5,1.9,2.9,3.7,4.4,5.6c0.6,0.7,1.1,1.4,1.5,2.3C302.7,251,302.8,251.6,302.7,252z"/>
	<path class="st1" d="M218.7,259.9c-8.6,0.3-16.3-7.1-16.3-16.2c0-8.8,6.8-16.4,16.4-16.4c9.5,0.1,16.2,7.6,16.3,16.2
		C235.2,253.2,227.1,260.2,218.7,259.9z M211.9,243.5c-0.2,3.9,3.3,7,6.9,7c3.5,0,6.9-3,7-6.9c0-3.2-2.5-6.9-7-7
		C214.6,236.6,211.7,240.4,211.9,243.5z"/>
	<path class="st1" d="M318.4,308.6c0.1-8.3,6.2-16.2,16-16.4c9-0.2,16.6,6.5,16.7,16.1c0.1,9.5-7.1,16.4-16,16.5
		C325.2,325,318.5,317.2,318.4,308.6z M334.7,315.4c3.4,0.2,7-2.8,7-6.8c0-3.8-3.1-7.2-6.9-7.1c-3.9,0.1-7,3-7,6.9
		C327.8,312.8,331.5,315.6,334.7,315.4z"/>
	<path class="st1" d="M165.1,259.9c-8.7,0.4-16.5-7.4-16.3-16.5c0.2-8.2,6.7-16.1,16.5-16.1c9.5,0.1,16.4,7.9,16.2,17
		C181.3,252.6,173.9,260.2,165.1,259.9z M165.2,250.5c3.8,0,7-3.2,6.9-7c-0.1-3.8-3.1-6.9-6.9-6.8c-4.2,0-7,3.2-7,7
		C158.2,248,161.9,250.6,165.2,250.5z"/>
	<path class="st1" d="M114.4,259.9c-7.8,0.4-16.4-6.1-16.3-16.3c0.1-9.4,7.4-16.3,16.4-16.2c9.6,0.1,16.2,7.7,16.3,16.3
		C130.8,253.2,122.6,260.3,114.4,259.9z M114.4,250.5c3.4,0.1,7-2.8,7-6.8c0-4-2.9-7-6.9-7c-4.2,0-7,3.5-7,6.9
		C107.5,247.3,110.6,250.5,114.4,250.5z"/>
	<path class="st1" d="M383.9,324.8c-8.2,0.4-16.3-6.7-16.3-16.3c0.1-8.4,6.6-16.2,16.4-16.2c10.3,0,16.6,8.7,16.3,16.9
		C400.1,317.6,392.5,325.3,383.9,324.8z M384,315.4c3.9,0.2,7-3.2,7-6.8c0-3.4-2.3-7-6.9-7.1c-3.9-0.1-6.9,2.9-7,7
		C377.1,312.9,380.8,315.6,384,315.4z"/>
	<path class="st1" d="M299.2,308.5c0.2,8.8-7.2,16.6-16.6,16.3c-9.5-0.2-16.3-7.7-16.1-16.5c0.2-10,8.1-16.4,16.9-16.1
		C293.4,292.6,299.3,300.6,299.2,308.5z M282.9,315.4c3.3,0.2,7-2.7,6.9-7c0-3.8-3-6.9-6.9-6.9c-4.6,0-7.1,3.7-7.1,6.9
		C275.9,312.8,279.7,315.6,282.9,315.4z"/>
	<path class="st1" d="M266.3,279.1c0.1,8.2-6.2,16-15.9,16.3c-9.3,0.2-16.7-6.8-16.7-16.3c0-9.3,7.1-16.4,16.4-16.4
		C259.6,262.7,266.5,270.5,266.3,279.1z M243,278.9c0,3.6,2.7,6.9,6.8,7c3.9,0.1,7-2.9,7.1-6.9c0-4.4-3.7-6.9-6.7-7
		C246.6,272,243.1,275,243,278.9z"/>
</g>
</svg>
