<svg id="Layer_1" data-name="Layer 1" xmlns="http://www.w3.org/2000/svg" viewBox="0 0 500 500"><defs><style>.cls-1{fill:#aecb8d;}.cls-2{fill:#a7c87e;}</style></defs><path class="cls-1" d="M250.2,18.78a231,231,0,0,1,89.88,443.69A231,231,0,0,1,160.32,36.93,229.43,229.43,0,0,1,250.2,18.78m0-10C117.15,8.78,9.29,116.65,9.29,249.7S117.15,490.62,250.2,490.62,491.12,382.75,491.12,249.7,383.26,8.78,250.2,8.78Z"/><path class="cls-2" d="M395.7,228.39a24.54,24.54,0,0,0,7.4,1.13c12.13,0,22-8.66,22-19.35s-9.83-19.35-22-19.35a23.39,23.39,0,0,0-15.94,6l-9.87-48.74c-2-10.07-10.22-17.23-19.68-17.23H144.5c-9.46,0-17.65,7.16-19.69,17.23l-9.87,48.74a23.37,23.37,0,0,0-15.93-6c-12.13,0-22,8.66-22,19.35s9.83,19.35,22,19.35a24.59,24.59,0,0,0,7.4-1.13C90.75,243,80.82,264.7,80.82,288.93h0c0,15.23,11.09,27.62,25,28.12v41.52c0,6.73,5,12.2,11.2,12.2H159.2c6.19,0,11.2-5.47,11.2-12.2v-41.5H331.71v41.5c0,6.73,5,12.2,11.19,12.2h42.24c6.18,0,11.19-5.47,11.19-12.2V317.05c13.86-.5,25-12.89,25-28.12h0C421.29,264.7,411.35,243,395.7,228.39ZM166.34,279.23c-13.54,1.16-24.75-11.05-23.68-25.8.84-11.6,9.47-21,20.11-21.92,13.54-1.16,24.74,11.06,23.68,25.8C185.61,268.92,177,278.32,166.34,279.23ZM308,282.31c0,5.87-4.36,10.62-9.74,10.62H203.82c-5.38,0-9.75-4.75-9.75-10.62V266c0-5.87,4.37-10.63,9.75-10.63h94.47c5.38,0,9.74,4.76,9.74,10.63Zm31.3-3.08c-13.53,1.16-24.74-11.05-23.67-25.8.84-11.6,9.46-21,20.11-21.92,13.53-1.16,24.74,11.06,23.67,25.8C358.6,268.92,350,278.32,339.33,279.23Zm26.43-67.67a67.59,67.59,0,0,0-17.62-2.34H154a67.57,67.57,0,0,0-17.61,2.34,15,15,0,0,1-5.11-14.73l10.1-48.22a14,14,0,0,1,13.51-11.45h192.4a14,14,0,0,1,13.52,11.45l10.09,48.22A15,15,0,0,1,365.76,211.56Z"/></svg>