<svg id="Layer_1" data-name="Layer 1" xmlns="http://www.w3.org/2000/svg" viewBox="0 0 500 500"><defs><style>.cls-1{fill:#aecb8d;}.cls-2{fill:#a7c87e;}</style></defs><path class="cls-1" d="M250.2,18.78a231,231,0,0,1,89.88,443.69A231,231,0,0,1,160.32,36.93,229.43,229.43,0,0,1,250.2,18.78m0-10C117.15,8.78,9.29,116.65,9.29,249.7S117.15,490.62,250.2,490.62,491.12,382.75,491.12,249.7,383.26,8.78,250.2,8.78Z"/><path class="cls-2" d="M251.34,175.67a74,74,0,1,1-74,74,74,74,0,0,1,74-74m0-9.49a83.51,83.51,0,1,0,59.06,24.46A83,83,0,0,0,251.34,166.18Z"/><circle class="cls-2" cx="251.34" cy="249.7" r="23.93"/><path class="cls-2" d="M406,223a103,103,0,0,0-57.78-29.15A103.5,103.5,0,0,0,270.4,58.3,78.31,78.31,0,1,1,223,207.37a102,102,0,0,0-14.38-7.17,78.32,78.32,0,0,1,22-141.9,103.49,103.49,0,0,0-77.72,135.77A103.43,103.43,0,0,0,84,353.81a78.31,78.31,0,1,1,28.12,28.11A103.42,103.42,0,0,0,243,369.22a102.16,102.16,0,0,0,8.39-9.48,102.16,102.16,0,0,0,8.39,9.48,103.42,103.42,0,0,0,130.83,12.7,78.3,78.3,0,1,1,28.12-28.11A103.46,103.46,0,0,0,406,223Zm-154.64,57.8a31.07,31.07,0,1,1,31.07-31.07A31.07,31.07,0,0,1,251.34,280.77Z"/></svg>