<?xml version="1.0" encoding="utf-8"?>
<!-- Generator: Adobe Illustrator 24.0.3, SVG Export Plug-In . SVG Version: 6.00 Build 0)  -->
<svg version="1.1" id="Layer_1" xmlns="http://www.w3.org/2000/svg" xmlns:xlink="http://www.w3.org/1999/xlink" x="0px" y="0px"
	 viewBox="0 0 500 500" style="enable-background:new 0 0 500 500;" xml:space="preserve">
<style type="text/css">
	.st0{fill:#AECB8D;}
	.st1{fill:#A7C87E;}
	.st2{fill:none;stroke:#AECB8D;stroke-width:2;stroke-miterlimit:10;}
	.st3{fill:#FFFFFF;}
	.st4{fill:none;stroke:#A7C87E;stroke-width:3;stroke-miterlimit:10;}
	.st5{fill:none;stroke:#A7C87E;stroke-width:2;stroke-miterlimit:10;}
	.st6{fill:none;stroke:#A7C87E;stroke-width:2;stroke-miterlimit:10;stroke-dasharray:5.9695,5.9695;}
	.st7{fill:none;stroke:#FFFFFF;stroke-linecap:round;stroke-miterlimit:10;}
	.st8{fill:none;stroke:#A7C87E;stroke-width:5;stroke-miterlimit:10;}
	.st9{fill:none;stroke:#A7C87E;stroke-miterlimit:10;}
	.st10{fill:none;stroke:#A7C87E;stroke-width:10;stroke-miterlimit:10;}
	.st11{fill:url(#);}
	.st12{fill:#A7C87E;stroke:#A7C87E;stroke-width:0.25;stroke-miterlimit:10;}
	.st13{fill:#FFFFFF;stroke:#FFFFFF;stroke-width:0.25;stroke-miterlimit:10;}
	.st14{fill:none;stroke:#A7C87E;stroke-width:0.25;stroke-miterlimit:10;}
</style>
<g>
	<path class="st0" d="M250.2,18.8c31.2,0,61.4,6.1,89.9,18.1c27.5,11.6,52.2,28.3,73.4,49.5s37.9,45.9,49.5,73.4
		c12,28.5,18.1,58.7,18.1,89.9c0,31.2-6.1,61.4-18.1,89.9c-11.6,27.5-28.3,52.2-49.5,73.4c-21.2,21.2-45.9,37.9-73.4,49.5
		c-28.5,12-58.7,18.1-89.9,18.1s-61.4-6.1-89.9-18.1c-27.5-11.6-52.2-28.3-73.4-49.5c-21.2-21.2-37.9-45.9-49.5-73.4
		c-12-28.5-18.1-58.7-18.1-89.9c0-31.2,6.1-61.4,18.1-89.9c11.6-27.5,28.3-52.2,49.5-73.4s45.9-37.9,73.4-49.5
		C188.8,24.9,219,18.8,250.2,18.8 M250.2,8.8C117.1,8.8,9.3,116.6,9.3,249.7s107.9,240.9,240.9,240.9s240.9-107.9,240.9-240.9
		S383.3,8.8,250.2,8.8L250.2,8.8z"/>
</g>
<g>
	<path class="st1" d="M250.1,172.2c40.9,0,74,33.1,74,74s-33.1,74-74,74s-74-33.1-74-74S209.2,172.2,250.1,172.2 M250.1,162.7
		c-22.3,0-43.3,8.7-59.1,24.5c-15.8,15.8-24.5,36.7-24.5,59.1s8.7,43.3,24.5,59.1c15.8,15.8,36.7,24.5,59.1,24.5
		c22.3,0,43.3-8.7,59.1-24.5c15.8-15.8,24.5-36.7,24.5-59.1s-8.7-43.3-24.5-59.1C293.4,171.4,272.4,162.7,250.1,162.7z"/>
	<circle class="st1" cx="250.1" cy="246.2" r="23.9"/>
	<path class="st1" d="M404.8,219.5c-16.3-16.3-36.6-26-57.8-29.1c3.7-10.7,5.7-22.1,5.7-34c0-50.3-35.9-92.2-83.5-101.5
		c33.6,8.8,58.4,39.4,58.4,75.8c0,43.2-35.1,78.3-78.3,78.3c-9.7,0-19-1.8-27.5-5c-4.6-2.8-9.4-5.2-14.4-7.2
		c-21.9-13.9-36.4-38.3-36.4-66.2c0-36.4,24.8-67,58.4-75.8c-47.6,9.3-83.5,51.2-83.5,101.5c0,12,2.1,23.5,5.8,34.3
		c-20.6,3.4-40.3,13-56.2,28.9c-35.6,35.6-39.8,90.6-12.7,130.8c-17.5-30-13.5-69.2,12.3-94.9c30.6-30.6,80.2-30.6,110.7,0
		c30.6,30.6,30.6,80.2,0,110.7c-25.7,25.7-64.9,29.8-94.9,12.3c40.2,27.1,95.3,22.9,130.8-12.7c3-3,5.8-6.2,8.4-9.5
		c2.6,3.3,5.4,6.5,8.4,9.5c35.6,35.6,90.6,39.8,130.8,12.7c-30,17.5-69.2,13.5-94.9-12.3c-30.6-30.6-30.6-80.2,0-110.7
		c30.6-30.6,80.2-30.6,110.7,0c25.7,25.7,29.8,64.9,12.3,94.9C444.6,310.1,440.3,255.1,404.8,219.5z M250.1,277.3
		c-17.2,0-31.1-13.9-31.1-31.1s13.9-31.1,31.1-31.1c17.2,0,31.1,13.9,31.1,31.1S267.3,277.3,250.1,277.3z"/>
</g>
</svg>
