<svg id="Layer_1" data-name="Layer 1" xmlns="http://www.w3.org/2000/svg" viewBox="0 0 500 500"><defs><style>.cls-1{fill:#aecb8d;}.cls-2{fill:#a7c87e;}</style></defs><path class="cls-1" d="M250.2,18.78a231,231,0,0,1,89.88,443.69A231,231,0,0,1,160.32,36.93,229.43,229.43,0,0,1,250.2,18.78m0-10C117.15,8.78,9.29,116.65,9.29,249.7S117.15,490.62,250.2,490.62,491.12,382.75,491.12,249.7,383.26,8.78,250.2,8.78Z"/><path class="cls-2" d="M250.58,86.39,343.22,238a108.59,108.59,0,1,1-185.28,0l92.64-151.6m0-14.07-98.9,161.84a115.9,115.9,0,0,0,16.95,142.39h0a115.89,115.89,0,0,0,163.91,0h0a115.91,115.91,0,0,0,16.94-142.39Z"/><path class="cls-2" d="M325.83,325c-6.37-14.81-33.62-17.31-60.87-5.59s-44.16,33.22-37.8,48S260.78,384.75,288,373,332.19,339.81,325.83,325Zm-12,7.82a69,69,0,0,1-26,26.48,63.07,63.07,0,0,1-33.62,8A63.88,63.88,0,0,1,243.72,366h0a1.21,1.21,0,0,1-.89-1.42,1.15,1.15,0,0,1,1.34-.95,59.82,59.82,0,0,0,10.08,1.24,60.9,60.9,0,0,0,32.46-7.71,66.68,66.68,0,0,0,25.14-25.57,1.1,1.1,0,0,1,1.56-.43A1.23,1.23,0,0,1,313.8,332.82Z"/><path class="cls-2" d="M247.94,320.25c8.12-11.93-3.1-33.73-25.06-48.67s-46.35-17.39-54.48-5.45,3.1,33.73,25.06,48.67S239.81,332.19,247.94,320.25Zm-11.7-5.32A61.79,61.79,0,0,1,203.71,308,57.1,57.1,0,0,1,177.45,278h0a1.07,1.07,0,0,1,.64-1.35,1,1,0,0,1,1.36.55,55.51,55.51,0,0,0,3.91,8.21,54.58,54.58,0,0,0,21.46,20.82,59.71,59.71,0,0,0,31.41,6.69,1,1,0,0,1,1.07,1A1.11,1.11,0,0,1,236.24,314.93Z"/><path class="cls-2" d="M298.29,234.13c-8.45-7.1-25.88-.27-39,15.27s-16.81,33.88-8.36,41,25.88.27,38.94-15.27S306.73,241.23,298.29,234.13Zm-5,8.47a47.27,47.27,0,0,1-7.8,24.19,43.76,43.76,0,0,1-24.87,17.64.82.82,0,0,1-1-.6.78.78,0,0,1,.52-1,42.28,42.28,0,0,0,24-17,45.63,45.63,0,0,0,7.53-23.36.75.75,0,0,1,.82-.74A.86.86,0,0,1,293.34,242.6Z"/></svg>