<svg id="Layer_1" data-name="Layer 1" xmlns="http://www.w3.org/2000/svg" viewBox="0 0 500 500"><defs><style>.cls-1{fill:#aecb8d;}.cls-2,.cls-3{fill:#a7c87e;}.cls-2{stroke:#a7c87e;}.cls-2,.cls-4{stroke-miterlimit:10;stroke-width:0.25px;}.cls-4{fill:#fff;stroke:#fff;}</style></defs><path class="cls-1" d="M250.2,18.78a231,231,0,0,1,89.88,443.69A231,231,0,0,1,160.32,36.93,229.43,229.43,0,0,1,250.2,18.78m0-10C117.15,8.78,9.29,116.65,9.29,249.7S117.15,490.62,250.2,490.62,491.12,382.75,491.12,249.7,383.26,8.78,250.2,8.78Z"/><path class="cls-2" d="M344,235.34a44.52,44.52,0,0,0-53.78-55.71,45.45,45.45,0,0,0,.58-7.14,44.5,44.5,0,0,0-89,0c0,.19,0,.38,0,.57a44.49,44.49,0,0,0-62.71,56.67,44.49,44.49,0,0,0,23.94,82h.76a44.5,44.5,0,0,0,78.09,36.44,44.49,44.49,0,0,0,74.22-31.3c1.12.08,2.25.14,3.4.14A44.5,44.5,0,0,0,344,235.34Z"/><path class="cls-3" d="M178.87,398.28a24.22,24.22,0,0,1-12.28-3.09c-4.91-2.83-8.66-7.54-11.15-14-2.4-6.25-3.62-14.09-3.62-23.32,0-35.42,17.37-86.64,46.45-137,29.33-50.8,65.24-91.58,96.06-109.1,10.05-5.7,19.06-8.6,26.8-8.6a24.22,24.22,0,0,1,12.28,3.09c4.91,2.84,8.66,7.55,11.15,14,2.4,6.24,3.62,14.09,3.62,23.32,0,15.1-3.34,34-9.67,54.52l-.23-.33c6.27-20.46,9.59-39.19,9.59-54.19,0-9.19-1.22-17-3.61-23.21-2.46-6.39-6.17-11-11-13.84a23.92,23.92,0,0,0-12.12-3c-7.69,0-16.65,2.88-26.64,8.56-9.82,5.57-20.34,13.68-31.27,24.08-22.43,21.35-45.4,51.5-64.68,84.9-29.06,50.33-46.41,101.49-46.41,136.86,0,9.19,1.22,17,3.61,23.2,2.46,6.39,6.17,11.05,11,13.85A23.92,23.92,0,0,0,178.87,398c7.68,0,16.65-2.88,26.64-8.56,9.82-5.58,20.34-13.68,31.27-24.09,3.89-3.7,7.87-7.75,11.84-12l.27.17c-15,16.12-29.9,28.64-43.22,36.21-10,5.71-19.06,8.6-26.8,8.6Z"/><path class="cls-3" d="M321.13,103.28a24.13,24.13,0,0,1,12.22,3.07c4.88,2.82,8.61,7.51,11.09,13.94,2.4,6.23,3.62,14.06,3.62,23.28,0,15-3.32,33.77-9.59,54.23l-.05-.06c6.26-20.44,9.57-39.17,9.57-54.17,0-9.21-1.21-17-3.61-23.25-2.48-6.42-6.2-11.1-11.06-13.91a24.13,24.13,0,0,0-12.2-3.07c-7.7,0-16.68,2.89-26.7,8.58-9.82,5.58-20.35,13.69-31.28,24.1-22.44,21.36-45.42,51.52-64.71,84.93C169.36,271.3,152,322.48,152,357.87c0,9.2,1.21,17,3.61,23.25,2.48,6.41,6.2,11.09,11.06,13.9a24,24,0,0,0,12.2,3.07c7.7,0,16.68-2.89,26.7-8.58,9.82-5.58,20.35-13.69,31.28-24.09,3.87-3.69,7.83-7.71,11.78-12l.05,0c-14.91,16.07-29.8,28.54-43.08,36.08-10,5.7-19,8.59-26.74,8.59a24.14,24.14,0,0,1-12.22-3.08c-4.88-2.82-8.61-7.51-11.09-13.94-2.4-6.23-3.62-14.06-3.62-23.27,0-35.4,17.36-86.6,46.44-137,14.56-25.22,31.25-48.68,48.25-67.83,16.5-18.59,33-32.84,47.76-41.22,10-5.69,19-8.58,26.74-8.58h0m0-.25h0c-7.9,0-17,3-26.86,8.62-29.57,16.79-65.92,56.86-96.11,109.14-30,51.91-46.46,103.07-46.47,137.08,0,9.12,1.19,17,3.64,23.36s6.15,11.16,11.2,14.07a24.29,24.29,0,0,0,12.34,3.11h0c7.9,0,17-3,26.86-8.62,13.45-7.64,28.31-20.12,43.36-36.35l-.49-.3q-6,6.45-11.91,12.09c-10.86,10.34-21.44,18.5-31.24,24.07s-18.82,8.54-26.57,8.54h0a23.77,23.77,0,0,1-12.06-3c-4.91-2.84-8.54-7.52-11-13.78s-3.59-14.09-3.59-23.16c0-33.84,16.45-84.95,46.39-136.8,20.1-34.81,42.94-64.2,64.66-84.87,10.86-10.34,21.44-18.49,31.24-24.06s18.82-8.55,26.57-8.55h0a23.68,23.68,0,0,1,12.06,3c4.91,2.83,8.54,7.52,11,13.78s3.59,14.08,3.59,23.16c0,15.11-3.3,33.68-9.6,54.22a4.78,4.78,0,0,1,.41.59c6.4-20.74,9.76-39.52,9.76-54.81,0-9.12-1.19-17-3.64-23.37s-6.15-11.15-11.2-14.06A24.29,24.29,0,0,0,321.13,103Z"/><path class="cls-3" d="M328.81,393.17c-1.05,0-2.14-.05-3.23-.15-6.67-.58-14.25-2.94-22.54-7-31.81-15.58-70.17-53.7-102.62-102-32.72-48.69-53.55-98.88-55.72-134.26-.7-11.53.66-20.9,4.06-27.85a24.25,24.25,0,0,1,8.18-9.67,25.08,25.08,0,0,1,14.25-4c1.05,0,2.14,0,3.23.15,6.67.58,14.25,2.94,22.54,7a158,158,0,0,1,27.74,18l-.29.17a157.24,157.24,0,0,0-27.59-17.86c-8.25-4-15.8-6.39-22.43-7-1.08-.1-2.16-.15-3.2-.15a24.79,24.79,0,0,0-14.07,3.94,23.94,23.94,0,0,0-8.07,9.55c-3.38,6.9-4.74,16.21-4,27.69.69,11.27,3.34,24.28,7.87,38.67,9.31,29.54,26.28,63.43,47.8,95.43,32.41,48.24,70.73,86.33,102.49,101.88,8.25,4,15.8,6.39,22.43,7,1.08.09,2.16.14,3.2.14a24.71,24.71,0,0,0,14.07-3.94,23.94,23.94,0,0,0,8.07-9.55c3.38-6.89,4.74-16.21,4-27.69-.69-11.27-3.34-24.27-7.87-38.66-.45-1.44-.93-2.89-1.42-4.34l.27-.2c5.43,16.18,8.57,30.71,9.34,43.18.7,11.54-.66,20.91-4.06,27.85a24.18,24.18,0,0,1-8.18,9.67,25,25,0,0,1-14.25,4Z"/><path class="cls-3" d="M171.19,108.39c1.05,0,2.13,0,3.22.14,6.65.59,14.22,2.94,22.5,7a157.93,157.93,0,0,1,27.57,17.86l-.06,0a157.85,157.85,0,0,0-27.54-17.83c-8.27-4-15.83-6.4-22.47-7-1.1-.09-2.18-.14-3.22-.14a24.93,24.93,0,0,0-13.93,3.82l0,0-.42.28,0,0a24,24,0,0,0-7.9,9.46c-3.39,6.91-4.75,16.25-4.05,27.75.69,11.28,3.34,24.3,7.88,38.7,9.31,29.54,26.29,63.45,47.81,95.46,32.43,48.26,70.77,86.36,102.54,101.92,8.27,4,15.83,6.4,22.47,7,1.1.1,2.18.15,3.22.15A24.93,24.93,0,0,0,343,389a24,24,0,0,0,8.11-9.6c3.39-6.92,4.75-16.25,4.05-27.76-.69-11.27-3.34-24.29-7.88-38.69-.41-1.28-.85-2.63-1.39-4.26l.05,0c5.4,16.1,8.52,30.56,9.28,43,.71,11.51-.65,20.86-4.05,27.79a24.13,24.13,0,0,1-8.13,9.62,25,25,0,0,1-14.19,4c-1,0-2.12-.05-3.21-.15-6.65-.58-14.22-2.94-22.5-7C271.31,370.34,233,332.23,200.53,284c-16.25-24.17-30-49.48-39.7-73.18-9.43-23-15-44.09-16-61-.71-11.51.65-20.86,4-27.78a24.09,24.09,0,0,1,8.13-9.63,25,25,0,0,1,14.18-4m0-.25a25.17,25.17,0,0,0-14.32,4,24.31,24.31,0,0,0-8.22,9.72c-3.47,7.09-4.77,16.59-4.07,27.91,2.08,33.94,22.06,84.21,55.74,134.32,33.44,49.75,72.12,87.06,102.66,102,8.2,4,15.81,6.41,22.59,7,1.1.1,2.18.15,3.23.15a25.18,25.18,0,0,0,14.33-4,24.38,24.38,0,0,0,8.22-9.72c3.47-7.09,4.77-16.6,4.07-27.91-.76-12.52-4-27.26-9.4-43.39-.15.13-.31.24-.48.36.5,1.48,1,3,1.45,4.42,4.51,14.3,7.18,27.39,7.87,38.64s-.61,20.67-4,27.63a23.75,23.75,0,0,1-8,9.5,24.63,24.63,0,0,1-14,3.92c-1,0-2.11-.05-3.19-.15-6.69-.58-14.24-3-22.39-6.95-30.38-14.88-69.05-52.15-102.44-101.84C178.37,250.43,162,217,153,188.39c-4.51-14.3-7.18-27.38-7.87-38.64s.61-20.67,4-27.62a23.68,23.68,0,0,1,8-9.5l-.16-.24.16.24h0a24.55,24.55,0,0,1,14-3.92c1,0,2.11,0,3.19.14,6.69.59,14.24,3,22.39,7a157.45,157.45,0,0,1,27.63,17.91c.17-.11.35-.21.53-.31A158.74,158.74,0,0,0,197,115.3c-8.2-4-15.81-6.42-22.59-7q-1.65-.15-3.24-.15Z"/><path class="cls-3" d="M357.13,296.52l.3-.46c19.95-6,35.9-13.7,46-22.27,8.66-7.32,13.05-15.08,13.05-23.07s-4.39-15.76-13.05-23.07c-8.37-7.08-20.37-13.45-35.66-18.91C336.34,197.49,294.5,191.3,250,191.3c-33.39,0-65.6,3.52-93.15,10.17C130,208,109.12,217,96.54,227.65c-8.66,7.31-13.05,15.08-13.05,23.07s4.39,15.75,13.05,23.07c6.89,5.83,16.35,11.22,28.1,16,0,0,0,.06,0,.12a3.07,3.07,0,0,0,.17.31C112.93,285.4,103.34,280,96.33,274c-8.73-7.38-13.15-15.22-13.15-23.31s4.42-15.94,13.15-23.31c8.41-7.11,20.44-13.49,35.77-19C163.59,197.18,205.46,191,250,191c33.41,0,65.64,3.52,93.22,10.18,26.92,6.5,47.83,15.58,60.45,26.25,8.73,7.37,13.15,15.21,13.15,23.31S412.4,266.65,403.67,274c-8.41,7.1-20.44,13.48-35.77,19C364.51,294.21,360.89,295.39,357.13,296.52Z"/><path class="cls-3" d="M250,190.86v.25c33.4,0,65.63,3.52,93.19,10.17,26.9,6.5,47.79,15.57,60.4,26.22,8.7,7.35,13.11,15.16,13.11,23.22s-4.41,15.86-13.11,23.21c-8.4,7.1-20.42,13.47-35.73,18.95-3.29,1.17-6.8,2.32-10.44,3.42a.35.35,0,0,1,.06-.09c20-6,35.93-13.76,46.07-22.33,8.68-7.34,13.08-15.13,13.08-23.16s-4.4-15.83-13.08-23.17c-8.4-7.09-20.41-13.46-35.71-18.93-31.48-11.25-73.33-17.45-117.84-17.45-33.4,0-65.62,3.52-93.18,10.18-26.89,6.49-47.77,15.55-60.37,26.2-8.68,7.34-13.08,15.14-13.08,23.17s4.4,15.82,13.08,23.16c6.9,5.83,16.34,11.21,28.06,16l0,.08v0c-11.75-4.8-21.23-10.2-28.16-16.06-8.7-7.35-13.11-15.16-13.11-23.21s4.41-15.87,13.11-23.22c8.4-7.09,20.42-13.47,35.73-18.94,31.48-11.25,73.34-17.45,117.86-17.45v-.25m0,0c-46.05,0-87.74,6.67-117.94,17.46-15.11,5.4-27.34,11.83-35.81,19s-13.2,15.07-13.2,23.41,4.73,16.25,13.2,23.4c7.14,6,17,11.55,28.9,16.37l-.06-.12a3.25,3.25,0,0,1-.3-.51l-.1-.17c-11.6-4.74-21.13-10.13-28.07-16-8.4-7.1-13-14.86-13-23s4.6-15.88,13-23c12.59-10.64,33.69-19.73,60.26-26.15S215.5,191.42,250,191.42c46,0,87.64,6.67,117.75,17.44,15.06,5.38,27.24,11.79,35.63,18.88s13,14.87,13,23-4.6,15.87-13,23C393.13,282.36,377.22,290,357.31,296c0,.07-.47.72-.48.74q5.79-1.73,11.12-3.63c15.1-5.4,27.33-11.83,35.8-19s13.2-15.06,13.2-23.4-4.73-16.25-13.2-23.41C391,216.57,369.88,207.47,343.25,201S284.54,190.86,250,190.86Z"/><path class="cls-4" d="M266.55,132.82l-.14-.07a.85.85,0,0,1-.17-.06c-22.75,20.84-46.93,51.47-68.08,88.1-18.36,31.8-31.65,63.31-39.2,90.78l.13,0h.24l.21,0c7.54-27.38,20.79-58.82,39.11-90.55,20.1-34.81,42.94-64.2,64.66-84.87q1.74-1.65,3.47-3.23A.91.91,0,0,1,266.55,132.82Z"/><path class="cls-4" d="M264.67,359.07a1.12,1.12,0,0,1,.38.07h0a.78.78,0,0,1,.22,0h.08c-21.41-18.85-44-44.75-64.58-75.38C178.37,250.43,162,217,153,188.39q-1.59-5-2.87-9.86l-.46.43c8.18,30.64,25.63,67.93,50.64,105.15,20.39,30.33,42.72,56,64,74.87A1.06,1.06,0,0,1,264.67,359.07Z"/><path class="cls-4" d="M340.05,200.66a.39.39,0,0,1-.06-.11.9.9,0,0,1-.23-.32c-25.92-5.93-56.71-9.37-89.76-9.37-44.34,0-84.63,6.18-114.52,16.28a1.21,1.21,0,0,1,0,.42h0a.6.6,0,0,1,0,.19h0c6.65-2.26,13.82-4.33,21.45-6.17,26.58-6.42,58.62-10.17,93.12-10.17,33.21,0,64.15,3.48,90.12,9.47A1.55,1.55,0,0,1,340.05,200.66Z"/></svg>