<svg id="Layer_1" data-name="Layer 1" xmlns="http://www.w3.org/2000/svg" viewBox="0 0 500 500"><defs><style>.cls-1{fill:#aecb8d;}.cls-2{fill:#a7c87e;}</style></defs><path class="cls-1" d="M250.2,18.78a231,231,0,0,1,89.88,443.69A231,231,0,0,1,160.32,36.93,229.43,229.43,0,0,1,250.2,18.78m0-10C117.15,8.78,9.29,116.65,9.29,249.7S117.15,490.62,250.2,490.62,491.12,382.75,491.12,249.7,383.26,8.78,250.2,8.78Z"/><path class="cls-2" d="M401.36,229.1a15.55,15.55,0,0,0-14.1,22.17l-43.72,27.06-47.42-27.54a15.58,15.58,0,1,0-29.91-6.11,15.4,15.4,0,0,0,1.32,6.26l-11,6.33L220.49,278,160.6,243.4V174.6l47.08-27.18a15.51,15.51,0,1,0-1.81-3.14l-46.72,27,1.59-3.26-1.63-.79-45.82-22.28c0-.08,0-.16,0-.25a15.57,15.57,0,1,0-5.65,12l47.38,23,1.95-4v68.49L97.9,278.32v71.13L159.5,385l61.6-35.56V281.93l37.25-21.51,11-6.34a15.53,15.53,0,0,0,24.92-.16l47.09,27.36h-4.17v50.17a15.56,15.56,0,1,0,13-.35V281.28h-4.6l43.5-26.92a15.57,15.57,0,1,0,12.19-25.26Zm-248-54.22-43.12-21a15.47,15.47,0,0,0,2.52-5.23l43.13,21Zm6.14,206-58-33.47V280.41l57.77-33.35,58.18,33.59v66.71Zm187.15-50.78a16.32,16.32,0,0,0-2.54-.22,15.22,15.22,0,0,0-3.26.35V284.9h5.8Z"/><rect class="cls-2" x="182.15" y="240.06" width="3.62" height="57.8" transform="translate(-140.99 293.21) rotate(-59.9)"/><rect class="cls-2" x="157.49" y="356.64" width="56.55" height="3.62" transform="translate(-157.48 145.91) rotate(-30.84)"/><rect class="cls-2" x="106.78" y="286.71" width="3.62" height="57.25"/></svg>