<svg id="Layer_1" data-name="Layer 1" xmlns="http://www.w3.org/2000/svg" viewBox="0 0 500 500"><defs><style>.cls-1{fill:#aecb8d;}.cls-2{fill:#a7c87e;}</style></defs><path class="cls-1" d="M250.2,18.78a231,231,0,0,1,89.88,443.69A231,231,0,0,1,160.32,36.93,229.43,229.43,0,0,1,250.2,18.78m0-10C117.15,8.78,9.29,116.65,9.29,249.7S117.15,490.62,250.2,490.62,491.12,382.75,491.12,249.7,383.26,8.78,250.2,8.78Z"/><circle class="cls-2" cx="275.75" cy="285.49" r="45.42"/><path class="cls-2" d="M193.44,102.29,129.57,153.8V396.43H364.75V102.29Zm-27.53,69.9h162.5v6.17H165.91Zm0,45.28h162.5v6.17H165.91Zm162.5,142H165.91v-6.18h162.5Zm27.91,10.32a7,7,0,0,1-9.86-.28l-28.52-30.23a7,7,0,0,1-1.83-5.73l-5.55-5.89a54.63,54.63,0,0,1-81.38-13.47H165.91V308h60a54.76,54.76,0,0,1-2.28-39.11H165.91v-6.17H226a54.71,54.71,0,0,1,99.52,0h2.9v6.17h-.51A54.85,54.85,0,0,1,325.61,308h2.8v6.17h-6.1a54.2,54.2,0,0,1-5.47,7.38l5.63,6a7,7,0,0,1,5.62,2.17l28.52,30.23A7,7,0,0,1,356.32,369.79Z"/></svg>