<svg id="Layer_1" data-name="Layer 1" xmlns="http://www.w3.org/2000/svg" viewBox="0 0 500 500"><defs><style>.cls-1{fill:#aecb8d;}.cls-2{fill:#a7c87e;}</style></defs><path class="cls-1" d="M250.2,18.78a231,231,0,0,1,89.88,443.69A231,231,0,0,1,160.32,36.93,229.43,229.43,0,0,1,250.2,18.78m0-10C117.15,8.78,9.29,116.65,9.29,249.7S117.15,490.62,250.2,490.62,491.12,382.75,491.12,249.7,383.26,8.78,250.2,8.78Z"/><path class="cls-2" d="M259.92,343.48a72.39,72.39,0,0,1-24.18-8.42c-11.18-6-21.56-13.33-32-20.54-11.32-7.82-22.58-15.76-35-21.9a8,8,0,0,0-4-1.1c-11.79.55-23-2.25-34.15-5.68-18-5.54-35.32-12.82-52.37-20.76-7.71-3.6-15.34-7.36-23-11a13.51,13.51,0,0,1-1.65-.85c-.8-.54-2.2-.7-2.16-1.82,0-.93,1.29-1.21,2.08-1.64,9.92-5.4,19.93-10.62,30.12-15.5,11.65-5.58,23.43-10.88,35.51-15.46,10.8-4.08,21.68-8.16,33.2-9.34,10.09-1,17.87-6.59,26-11.48,12.67-7.59,24.44-16.58,36.78-24.69a174.91,174.91,0,0,1,24.85-13.95c11.58-5.16,23.15-5.13,35-1.19,13.06,4.33,25.38,10.27,37.44,16.74a610.39,610.39,0,0,1,57.68,35.47,59,59,0,0,0,13.84,6.83c21.58,7.79,42.17,17.77,62.46,28.42a3.17,3.17,0,0,1,2,3.27c-.24,8.65,1.44,6.29-6.26,10.09-20.13,9.92-40.67,18.91-62,25.89a16.28,16.28,0,0,0-4.05,2.22c-18.26,12.5-37,24.29-56.37,34.93-11.75,6.43-23.71,12.41-36.33,16.95a72.72,72.72,0,0,1-16.62,4.18,7.91,7.91,0,0,0-1.32.38ZM72.88,250c1.26.57,1.94.89,2.64,1.18q21.32,8.89,43.28,16c21.1,6.84,42.45,11.94,64.9,9.49,7.23-.78,14.44-1.61,21.24-4.51a112.34,112.34,0,0,1,12.36-4.67c10.58-3.08,19.43-9,27.63-16.07,1-.86,1.48-1.48.12-2.47-2-1.45-3.83-3.12-5.84-4.56-10.58-7.57-22.64-11.59-35.15-14.5s-25.07-4.8-37.34-8.36a48.14,48.14,0,0,0-12.95-2.37c-8.38-.09-16.44,1.6-24.38,4-15.77,4.79-30.49,12-44.85,19.94C80.77,245.22,77.1,247.5,72.88,250Zm265.18,27.16a96.4,96.4,0,0,0,13.94-.93c1.61-.19,3.21-.45,4.81-.75,26.29-5,51.14-14.5,75.81-24.54.53-.21,1.34-.29,1.31-1.09,0-.6-.67-.79-1.13-1.06C415.4,238.28,397.41,229,377.9,223A87.29,87.29,0,0,0,357,219.15c-6.58-.34-12.69,1.45-18.89,3.14-13.15,3.57-26.68,5.44-39.85,8.92-12.86,3.4-24.83,8.55-35.12,17.21-1.62,1.36-1.54,2.17,0,3.33s3.07,2.6,4.69,3.79c8.19,6,16.71,11.51,26.75,14,7.95,2,16,3.74,24.05,5.1C325.09,275.72,331.46,277.56,338.06,277.14ZM260.75,171.38a59.8,59.8,0,0,0-17.58,2.82c-23.12,6.8-44.16,18.1-64.94,29.94-1.37.78-1.15,1.47,0,2.18a9.85,9.85,0,0,0,1.66.82,279.44,279.44,0,0,0,29.07,10.3c12.06,3.53,24.29,6.13,36.87,6.75,8.2.4,16.11-1.64,24.09-3.11q38.88-7.2,77.79-14.28c.64-.12,1.65.14,1.81-.69s-.84-1-1.42-1.29c-18.84-10.22-38-19.74-58.25-27C280.41,174.5,270.9,171.47,260.75,171.38ZM354.61,292.3a19,19,0,0,0-2.45-.62c-1.08-.1-2.16-.13-3.24-.13a88.15,88.15,0,0,1-24.27-3.36c-4.54-1.26-8.91-3.12-13.57-4-13.08-2.41-26.19-4.67-39.21-7.34-10.31-2.11-20.59-3.27-31.08-1.84-20,2.72-39,8.94-57.55,16.65-.7.29-1.63.5-1.74,1.35-.15,1.09,1,1.26,1.66,1.65,9.84,5.69,19.84,11.08,30.08,16a225,225,0,0,0,30.68,12.52c7,2.19,14.16,4,21.59,3.95,7-.08,13.79-1.83,20.43-3.91,22.47-7,43.47-17.4,64.16-28.43C351.44,294.13,352.75,293.35,354.61,292.3Z"/><path class="cls-2" d="M155.84,250.33c-4.61-.32-9.16-.55-13.54-2a18.88,18.88,0,0,1-5.19-2.51c-2.7-1.94-2.86-4.59-.34-6.77a16.41,16.41,0,0,1,7.33-3.28,49.3,49.3,0,0,1,25.85.69,14,14,0,0,1,4.92,2.52c2.42,2,2.49,4.1.27,6.29-2.07,2-4.75,2.85-7.44,3.56A61.21,61.21,0,0,1,155.84,250.33Zm.34-11.16a21.89,21.89,0,0,0,6.2-.49c.56-.18,1.37-.16,1.38-1,0-.64-.69-.77-1.2-.89a27.9,27.9,0,0,0-13,0c-.45.11-1,.25-1.06.76-.09.69.56.83,1.06,1A21.34,21.34,0,0,0,156.18,239.17Z"/><path class="cls-2" d="M347.73,250.34c-5.49-.4-11-.63-16.09-3-2.24-1-4.81-2.09-4.78-5.06s2.67-4.19,5-5.16c7-2.87,14.29-3.08,21.67-2.42a31.07,31.07,0,0,1,10.3,2.56c2.16,1,4.59,2.09,4.67,4.92s-2.33,4-4.5,5C358.86,249.69,353.27,249.92,347.73,250.34Zm.12-11.18c2.32,0,4.64.14,6.88-.64.44-.15.93-.35.86-.92,0-.41-.44-.6-.82-.7a27.62,27.62,0,0,0-13.49,0c-.44.11-1,.28-1,.82,0,.7.64.76,1.14.92A21,21,0,0,0,347.85,239.16Z"/><path class="cls-2" d="M259.25,199.28a37.2,37.2,0,0,1-15.85-2.37c-2.4-1-5.14-1.88-5.3-5.12s2.58-4.38,4.94-5.38c5.5-2.34,11.34-2.79,17.24-2.63a48.85,48.85,0,0,1,9.64,1.09,23,23,0,0,1,7.08,2.79c3.54,2.2,3.59,5.42.14,7.72-4.19,2.8-9,3.45-13.89,3.88C261.79,199.39,260.32,199.28,259.25,199.28Zm-.12-10.71a20.35,20.35,0,0,0,6.41-.62c.5-.13,1.16-.23,1.25-.86s-.61-.82-1.09-1a28,28,0,0,0-13-.07c-.5.11-1.15.32-1.14,1s.69.78,1.19.9A21.28,21.28,0,0,0,259.13,188.57Z"/><path class="cls-2" d="M259.45,299.47c-6.08,0-11.42-.57-16.49-2.71a13.65,13.65,0,0,1-2.81-1.59c-2.9-2.2-2.85-5.12.12-7.24,3.17-2.26,6.91-3,10.65-3.63a49.11,49.11,0,0,1,19.54.73,16.42,16.42,0,0,1,7.51,3.42c2.49,2.26,2.38,4.55-.28,6.58a20.08,20.08,0,0,1-8.29,3.4A40.26,40.26,0,0,1,259.45,299.47Zm-1.06-14a18.93,18.93,0,0,0-5.74.57c-.5.16-1.15.27-1.13.95s.67.79,1.17.92a27.43,27.43,0,0,0,13.05,0c.44-.1,1-.22,1.05-.76.07-.69-.59-.83-1.08-1C263.56,285.44,261.31,285.5,258.39,285.51Z"/></svg>