<svg id="Layer_1" data-name="Layer 1" xmlns="http://www.w3.org/2000/svg" viewBox="0 0 500 500"><defs><style>.cls-1{fill:#aecb8d;}.cls-2{fill:#a7c87e;}</style></defs><path class="cls-1" d="M250.2,18.78a231,231,0,0,1,89.88,443.69A231,231,0,0,1,160.32,36.93,229.43,229.43,0,0,1,250.2,18.78m0-10C117.15,8.78,9.29,116.65,9.29,249.7S117.15,490.62,250.2,490.62,491.12,382.75,491.12,249.7,383.26,8.78,250.2,8.78Z"/><path class="cls-2" d="M77.29,297.22c-4.17,4.3-4.94,10.43-1.63,13.16l11.11,9.24c2.8,2.31,7.5,1.38,11.08-2.18,2.2-2.18,5.06-4.87,8.41-7.81L214,398.52c-2.2,3.8-4.28,7.22-6,9.77-2.82,4.19-2.87,9,0,11.29l11.18,9.15c3.32,2.73,9.22.84,12.61-4.11,13.57-19.69,42.75-69.84,42-134.55a235.37,235.37,0,0,1-34.34.51c.3,4,.17,7.81.18,11.73L195.6,266a181,181,0,0,1,47.71-2.52c93.59,7.52,157.8-48.12,179-69.7,4.17-4.29,4.94-10.42,1.63-13.15l-11.15-9.27c-2.79-2.31-7.5-1.38-11.08,2.18-2.2,2.18-5.06,4.87-8.41,7.81L285.45,92.43c2.25-3.85,4.31-7.12,6.06-9.75,2.82-4.19,2.88-9,0-11.29l-11.19-9.15c-3.31-2.73-9.22-.84-12.64,4.08-15.36,22.28-50.74,83.53-40,161C149.67,231.54,96.24,277.9,77.29,297.22Zm187-69.37a181.24,181.24,0,0,1-4.76-39.44L303.93,225a176.72,176.72,0,0,1-39.59,2.87ZM359,205.23A195.71,195.71,0,0,1,339,214.77l-76-62.64a180.05,180.05,0,0,1,5.55-21.5ZM140.55,285.77a195.71,195.71,0,0,1,20-9.54l75.72,62.44a188.1,188.1,0,0,1-5.49,21.55Z"/></svg>