<svg id="Layer_1" data-name="Layer 1" xmlns="http://www.w3.org/2000/svg" viewBox="0 0 500 500"><defs><style>.cls-1{fill:#aecb8d;}.cls-2{fill:#a7c87e;}</style></defs><path class="cls-1" d="M250.2,18.78a231,231,0,0,1,89.88,443.69A231,231,0,0,1,160.32,36.93,229.43,229.43,0,0,1,250.2,18.78m0-10C117.15,8.78,9.29,116.65,9.29,249.7S117.15,490.62,250.2,490.62,491.12,382.75,491.12,249.7,383.26,8.78,250.2,8.78Z"/><path class="cls-2" d="M194.21,260.91l-21.3-58.52a11.8,11.8,0,0,0-15.13-7.06h0a13.74,13.74,0,0,0-1.41.63l-.62-.29a27.09,27.09,0,1,0-40.37,0l-.62.29a13.74,13.74,0,0,0-1.41-.63h0a11.8,11.8,0,0,0-15.13,7.06l-21.3,58.52a11.82,11.82,0,0,0,7,15.14h0A11.81,11.81,0,0,0,99.11,269L107,247.45v47l-6.43,73.49a14.3,14.3,0,0,0,13,15.5h0a14.31,14.31,0,0,0,15.51-13l6.27-71.68h.53l6.27,71.68a14.31,14.31,0,0,0,15.51,13h0a14.3,14.3,0,0,0,13-15.5l-6.43-73.49v-47L172,269a11.81,11.81,0,0,0,15.14,7.06h0A11.82,11.82,0,0,0,194.21,260.91Z"/><path class="cls-2" d="M409.76,175A157.73,157.73,0,0,0,203.12,90.75a156.26,156.26,0,0,0-61.58,46.73h1.91q4.86-5.83,10.27-11.18a153.77,153.77,0,0,1,217.7,1.21,152,152,0,0,1-1.21,215.28A150.72,150.72,0,0,1,212.33,377v11.65a160.45,160.45,0,0,0,163.94-39.84A159.29,159.29,0,0,0,409.76,175Z"/><polygon class="cls-2" points="229.3 354.27 205.89 416.78 186.34 373.82 229.3 354.27"/></svg>