<?xml version="1.0" encoding="utf-8"?>
<!-- Generator: Adobe Illustrator 24.0.3, SVG Export Plug-In . SVG Version: 6.00 Build 0)  -->
<svg version="1.1" id="Layer_1" xmlns="http://www.w3.org/2000/svg" xmlns:xlink="http://www.w3.org/1999/xlink" x="0px" y="0px"
	 viewBox="0 0 500 500" style="enable-background:new 0 0 500 500;" xml:space="preserve">
<style type="text/css">
	.st0{fill:#AECB8D;}
	.st1{fill:#A7C87E;}
	.st2{fill:none;stroke:#AECB8D;stroke-width:2;stroke-miterlimit:10;}
	.st3{fill:#FFFFFF;}
	.st4{fill:none;stroke:#A7C87E;stroke-width:3;stroke-miterlimit:10;}
	.st5{fill:none;stroke:#A7C87E;stroke-width:2;stroke-miterlimit:10;}
	.st6{fill:none;stroke:#A7C87E;stroke-width:2;stroke-miterlimit:10;stroke-dasharray:5.9695,5.9695;}
	.st7{fill:none;stroke:#FFFFFF;stroke-linecap:round;stroke-miterlimit:10;}
	.st8{fill:none;stroke:#A7C87E;stroke-width:5;stroke-miterlimit:10;}
	.st9{fill:none;stroke:#A7C87E;stroke-miterlimit:10;}
	.st10{fill:none;stroke:#A7C87E;stroke-width:10;stroke-miterlimit:10;}
	.st11{fill:url(#);}
	.st12{fill:#A7C87E;stroke:#A7C87E;stroke-width:0.25;stroke-miterlimit:10;}
	.st13{fill:#FFFFFF;stroke:#FFFFFF;stroke-width:0.25;stroke-miterlimit:10;}
	.st14{fill:none;stroke:#A7C87E;stroke-width:0.25;stroke-miterlimit:10;}
</style>
<g>
	<path class="st0" d="M250.2,18.8c31.2,0,61.4,6.1,89.9,18.1c27.5,11.6,52.2,28.3,73.4,49.5s37.9,45.9,49.5,73.4
		c12,28.5,18.1,58.7,18.1,89.9s-6.1,61.4-18.1,89.9c-11.6,27.5-28.3,52.2-49.5,73.4s-45.9,37.9-73.4,49.5
		c-28.5,12-58.7,18.1-89.9,18.1s-61.4-6.1-89.9-18.1c-27.5-11.6-52.2-28.3-73.4-49.5s-37.9-45.9-49.5-73.4
		c-12-28.5-18.1-58.7-18.1-89.9s6.1-61.4,18.1-89.9c11.6-27.5,28.3-52.2,49.5-73.4s45.9-37.9,73.4-49.5
		C188.8,24.9,219,18.8,250.2,18.8 M250.2,8.8C117.1,8.8,9.3,116.6,9.3,249.7s107.9,240.9,240.9,240.9s240.9-107.9,240.9-240.9
		S383.3,8.8,250.2,8.8L250.2,8.8z"/>
</g>
<g>
	<path class="st1" d="M363.6,330.6l-20.2-28.2c-9.1-0.5-18.2-1-27.3-1.7c-16.6-1.1-33.1-2.5-49.6-4.6c-24-2.9-48.1-5.9-71.8-11.1
		c-8.4-1.8-16.8-3.9-25.2-6l-36.9,51.5c-19.1,26.7,1.2,62.7,35.5,62.7h160.1C362.4,393.2,382.8,357.3,363.6,330.6z M183.5,292.9
		c11.2,0,19.5,8.9,20,19.3c0.5,10.4-9.5,19.3-20,19.3c-11.2,0-19.5-8.9-20-19.3C163,301.8,173,292.9,183.5,292.9z M174.8,376.5
		c-5.9,0-10.3-4.7-10.6-10.3c-0.3-5.6,5.1-10.3,10.6-10.3c5.9,0,10.3,4.7,10.6,10.3C185.7,371.8,180.3,376.5,174.8,376.5z
		 M203.5,361.2c-7.3,0-12.8-5.8-13.1-12.7c-0.3-6.9,6.2-12.7,13.1-12.7c7.3,0,12.8,5.8,13.1,12.7C217,355.4,210.4,361.2,203.5,361.2
		z"/>
	<path class="st1" d="M291.9,71c4,0,7.3,3.3,7.3,7.3c0,4-3.3,7.3-7.3,7.3h-2.2v123L374,330.3c21,30.3-1.3,71-38.8,71H159.8
		c-37.5,0-59.8-40.8-38.8-71l84.3-121.8v-123h-2.2c-4,0-7.3-3.3-7.3-7.3c0-4,3.3-7.3,7.3-7.3H291.9 M291.9,64.7h-88.8
		c-7.5,0-13.5,6.1-13.5,13.5c0,6.1,4,11.2,9.5,12.9v115.5l-83.2,120.2c-5.6,8-8.7,17.3-9.1,26.7c-0.4,8.9,1.6,17.8,5.8,25.9
		c4.3,8.3,10.8,15.3,18.8,20.2c8.4,5.2,18.3,8,28.5,8h175.4c10.2,0,20.1-2.8,28.5-8c7.9-4.9,14.4-11.9,18.8-20.2
		c4.2-8,6.2-17,5.8-25.9c-0.4-9.4-3.6-18.7-9.1-26.7l-83.2-120.2V91.2c5.5-1.7,9.5-6.9,9.5-12.9C305.5,70.8,299.4,64.7,291.9,64.7z"
		/>
</g>
</svg>
