<svg id="Layer_1" data-name="Layer 1" xmlns="http://www.w3.org/2000/svg" xmlns:xlink="http://www.w3.org/1999/xlink" viewBox="0 0 500 500"><defs><style>.cls-1,.cls-2{fill:none;}.cls-2{stroke:#a7c87e;stroke-width:7.2px;}.cls-3{fill:#aecb8d;}.cls-4{fill:url(#Unnamed_Pattern);}.cls-5{fill:#a7c87e;}</style><pattern id="Unnamed_Pattern" data-name="Unnamed Pattern" width="72" height="72" patternTransform="matrix(0.78, 0, 0, -0.78, 92.45, 12060.51)" patternUnits="userSpaceOnUse" viewBox="0 0 72 72"><rect class="cls-1" width="72" height="72"/><line class="cls-2" x1="71.75" y1="6" x2="144.25" y2="6"/><line class="cls-2" x1="71.75" y1="30" x2="144.25" y2="30"/><line class="cls-2" x1="71.75" y1="54" x2="144.25" y2="54"/><line class="cls-2" x1="71.75" y1="18" x2="144.25" y2="18"/><line class="cls-2" x1="71.75" y1="42" x2="144.25" y2="42"/><line class="cls-2" x1="71.75" y1="66" x2="144.25" y2="66"/><line class="cls-2" x1="-0.25" y1="6" x2="72.25" y2="6"/><line class="cls-2" x1="-0.25" y1="30" x2="72.25" y2="30"/><line class="cls-2" x1="-0.25" y1="54" x2="72.25" y2="54"/><line class="cls-2" x1="-0.25" y1="18" x2="72.25" y2="18"/><line class="cls-2" x1="-0.25" y1="42" x2="72.25" y2="42"/><line class="cls-2" x1="-0.25" y1="66" x2="72.25" y2="66"/><line class="cls-2" x1="-72.25" y1="6" x2="0.25" y2="6"/><line class="cls-2" x1="-72.25" y1="30" x2="0.25" y2="30"/><line class="cls-2" x1="-72.25" y1="54" x2="0.25" y2="54"/><line class="cls-2" x1="-72.25" y1="18" x2="0.25" y2="18"/><line class="cls-2" x1="-72.25" y1="42" x2="0.25" y2="42"/><line class="cls-2" x1="-72.25" y1="66" x2="0.25" y2="66"/></pattern></defs><path class="cls-3" d="M250.2,18.78a231,231,0,0,1,89.88,443.69A231,231,0,0,1,160.32,36.93,229.43,229.43,0,0,1,250.2,18.78m0-10C117.15,8.78,9.29,116.65,9.29,249.7S117.15,490.62,250.2,490.62,491.12,382.75,491.12,249.7,383.26,8.78,250.2,8.78Z"/><circle class="cls-4" cx="182.7" cy="306.86" r="87"/><path class="cls-5" d="M315.3,227.67a79.19,79.19,0,1,1-79.19,79.19,79.28,79.28,0,0,1,79.19-79.19m0-7.81a87,87,0,1,0,87,87A87,87,0,0,0,315.3,219.86Z"/><path class="cls-5" d="M248.64,107.21A87,87,0,0,0,166,221.46a87.14,87.14,0,0,1,99.34,58.14,87,87,0,0,0-16.7-172.39Z"/></svg>