<svg id="Layer_1" data-name="Layer 1" xmlns="http://www.w3.org/2000/svg" viewBox="0 0 500 500"><defs><style>.cls-1{fill:#aecb8d;}.cls-2{fill:#a7c87e;}.cls-3{fill:#fff;}</style></defs><path class="cls-1" d="M250.2,18.78a231,231,0,0,1,89.88,443.69A231,231,0,0,1,160.32,36.93,229.43,229.43,0,0,1,250.2,18.78m0-10C117.15,8.78,9.29,116.65,9.29,249.7S117.15,490.62,250.2,490.62,491.12,382.75,491.12,249.7,383.26,8.78,250.2,8.78Z"/><circle class="cls-2" cx="261.17" cy="261.53" r="53.65"/><path class="cls-2" d="M396.79,328.72a24.87,24.87,0,1,1-24.87-24.87A24.87,24.87,0,0,1,396.79,328.72Z"/><path class="cls-2" d="M321,145.08a23.26,23.26,0,1,1-23.26-23.26A23.27,23.27,0,0,1,321,145.08Z"/><path class="cls-2" d="M245.8,168.16a15,15,0,1,1-15-15A15,15,0,0,1,245.8,168.16Z"/><circle class="cls-2" cx="205.46" cy="376.45" r="36.57" transform="translate(-208.12 489.92) rotate(-76.72)"/><circle class="cls-2" cx="377.81" cy="199.66" r="36.57"/><circle class="cls-2" cx="120.51" cy="168.34" r="36.57" transform="translate(-55.25 58.93) rotate(-22.5)"/><polygon class="cls-2" points="209.19 378.25 264.3 264.55 379.75 203.31 375.88 196 258.03 258.5 201.74 374.64 209.19 378.25 209.19 378.25"/><polyline class="cls-2" points="263.45 258.08 122.8 164.89 118.23 171.78 258.88 264.98"/><polyline class="cls-2" points="373.21 326.6 275.76 267.61 273.19 271.86 370.63 330.85"/><polygon class="cls-2" points="382.65 194.59 297.98 142.8 230.1 166.2 231.45 170.11 297.49 147.35 380.49 198.12 382.65 194.59 382.65 194.59"/><path class="cls-3" d="M281.29,298.27a48.75,48.75,0,0,1-18.08,3.51c-12.47,0-24.3-4.91-32.37-13.89a39.86,39.86,0,0,1-8.55-15.33,48.72,48.72,0,0,1-2-13.94,46.27,46.27,0,0,1,.71-8.38,2.07,2.07,0,1,0-4.06-.77,50.09,50.09,0,0,0-.79,9.15,53,53,0,0,0,2.16,15.13,43.94,43.94,0,0,0,9.43,16.91c8.93,9.92,21.9,15.26,35.45,15.26a52.81,52.81,0,0,0,19.62-3.81,2.07,2.07,0,0,0-1.54-3.84Z"/></svg>