<?xml version="1.0" encoding="utf-8"?>
<!-- Generator: Adobe Illustrator 24.0.3, SVG Export Plug-In . SVG Version: 6.00 Build 0)  -->
<svg version="1.1" id="Layer_1" xmlns="http://www.w3.org/2000/svg" xmlns:xlink="http://www.w3.org/1999/xlink" x="0px" y="0px"
	 viewBox="0 0 500 500" style="enable-background:new 0 0 500 500;" xml:space="preserve">
<style type="text/css">
	.st0{fill:#AECB8D;}
	.st1{fill:#A7C87E;}
	.st2{fill:none;stroke:#AECB8D;stroke-width:2;stroke-miterlimit:10;}
	.st3{fill:#FFFFFF;}
	.st4{fill:none;stroke:#A7C87E;stroke-width:3;stroke-miterlimit:10;}
	.st5{fill:none;stroke:#A7C87E;stroke-width:2;stroke-miterlimit:10;}
	.st6{fill:none;stroke:#A7C87E;stroke-width:2;stroke-miterlimit:10;stroke-dasharray:5.9695,5.9695;}
	.st7{fill:none;stroke:#FFFFFF;stroke-linecap:round;stroke-miterlimit:10;}
	.st8{fill:none;stroke:#A7C87E;stroke-width:5;stroke-miterlimit:10;}
	.st9{fill:none;stroke:#A7C87E;stroke-miterlimit:10;}
	.st10{fill:none;stroke:#A7C87E;stroke-width:10;stroke-miterlimit:10;}
	.st11{fill:url(#);}
	.st12{fill:#A7C87E;stroke:#A7C87E;stroke-width:0.25;stroke-miterlimit:10;}
	.st13{fill:#FFFFFF;stroke:#FFFFFF;stroke-width:0.25;stroke-miterlimit:10;}
	.st14{fill:none;stroke:#A7C87E;stroke-width:0.25;stroke-miterlimit:10;}
</style>
<g>
	<path class="st0" d="M250.2,18.8c31.2,0,61.4,6.1,89.9,18.1c27.5,11.6,52.2,28.3,73.4,49.5s37.9,45.9,49.5,73.4
		c12,28.5,18.1,58.7,18.1,89.9s-6.1,61.4-18.1,89.9c-11.6,27.5-28.3,52.2-49.5,73.4s-45.9,37.9-73.4,49.5
		c-28.5,12-58.7,18.1-89.9,18.1s-61.4-6.1-89.9-18.1c-27.5-11.6-52.2-28.3-73.4-49.5s-37.9-45.9-49.5-73.4
		c-12-28.5-18.1-58.7-18.1-89.9s6.1-61.4,18.1-89.9c11.6-27.5,28.3-52.2,49.5-73.4s45.9-37.9,73.4-49.5
		C188.8,24.9,219,18.8,250.2,18.8 M250.2,8.8C117.1,8.8,9.3,116.6,9.3,249.7s107.9,240.9,240.9,240.9s240.9-107.9,240.9-240.9
		S383.3,8.8,250.2,8.8L250.2,8.8z"/>
</g>
<g>
	<g>
		<path class="st1" d="M131.4,216.2l3.6,1.2l1-3l-3.6-1.2L131.4,216.2z M125.6,210.1c0.4,1.5,1.2,2.8,2.3,3.9l2.2-2.2
			c-0.7-0.7-1.2-1.6-1.5-2.5L125.6,210.1L125.6,210.1z M126.7,201.9l-0.9,2.7c-0.1,0.4-0.2,0.7-0.3,1.1l3.1,0.7
			c0.1-0.2,0.1-0.5,0.2-0.7l0.9-2.7L126.7,201.9L126.7,201.9z M129.2,194.8l-1.2,3.6l3,1l1.2-3.6L129.2,194.8z M131.7,187.7
			l-1.2,3.6l3,1l1.2-3.6L131.7,187.7z M134.2,180.6l-1.2,3.6l3,1l1.2-3.6L134.2,180.6z M136.7,173.5l-1.2,3.6l3,1l1.2-3.6
			L136.7,173.5z M139.2,166.4l-1.2,3.6l3,1l1.2-3.6L139.2,166.4z M141.7,159.3l-1.2,3.6l3,1l1.2-3.6L141.7,159.3z M144.1,152.2
			l-1.2,3.6l3,1l1.2-3.6L144.1,152.2z M146.6,145.1l-1.2,3.6l3,1l1.2-3.6L146.6,145.1z M149.1,138l-1.2,3.6l3,1l1.2-3.6L149.1,138z
			 M151.6,130.9l-1.2,3.6l3,1l1.2-3.6L151.6,130.9z M154.2,123.6c-0.2,0.3-0.3,0.7-0.5,1.1l-0.9,2.6l3,1l0.9-2.6
			c0.1-0.2,0.2-0.5,0.3-0.7L154.2,123.6L154.2,123.6z M161.4,118.6c-1.5,0.2-3,0.7-4.2,1.6l1.8,2.6c0.8-0.6,1.8-0.9,2.8-1
			L161.4,118.6z M169.3,120.5l-3.6-1.2l-1,3l3.6,1.2L169.3,120.5z M176.4,123l-3.6-1.2l-1,3l3.6,1.2L176.4,123z M183.5,125.5
			l-3.6-1.2l-1,3l3.6,1.2L183.5,125.5z M190.6,128l-3.6-1.2l-1,3l3.6,1.2L190.6,128z M197.7,130.4l-3.6-1.2l-1,3l3.6,1.2
			L197.7,130.4z M204.8,132.9l-3.6-1.2l-1,3l3.6,1.2L204.8,132.9z M211.9,135.4l-3.6-1.2l-1,3l3.6,1.2L211.9,135.4z M219.1,137.9
			l-3.6-1.2l-1,3l3.6,1.2L219.1,137.9z M226.2,140.4l-3.6-1.2l-1,3l3.6,1.2L226.2,140.4z M232.1,146.7c-0.4-1.5-1.1-2.8-2.2-3.9
			l-2.3,2.2c0.7,0.7,1.2,1.6,1.4,2.6L232.1,146.7L232.1,146.7z M230.9,154.9l1-2.9c0.1-0.3,0.2-0.6,0.2-0.8l-3-0.7
			c0,0.2-0.1,0.4-0.2,0.6l-1,2.9L230.9,154.9L230.9,154.9z M228.4,162l1.2-3.6l-3-1l-1.2,3.6L228.4,162z M225.9,169.1l1.2-3.6l-3-1
			l-1.2,3.6L225.9,169.1z M223.4,176.2l1.2-3.6l-3-1l-1.2,3.6L223.4,176.2z M221,183.3l1.2-3.6l-3-1l-1.2,3.6L221,183.3z
			 M218.5,190.4l1.2-3.6l-3-1l-1.2,3.6L218.5,190.4z M210.3,190.8l3.6,1.2l1-3l-3.6-1.2L210.3,190.8z M203.8,189.4
			c0.3-0.1,0.7-0.1,1-0.1c0.6,0,1.3,0.1,1.9,0.3l1-3c-1-0.3-2-0.5-2.9-0.5c-0.5,0-1.1,0-1.6,0.1L203.8,189.4L203.8,189.4z
			 M199.3,192.9c0.4-0.9,1-1.7,1.8-2.3l-1.9-2.5c-1.2,0.9-2.1,2.1-2.7,3.6L199.3,192.9z M196.9,199.9l1.2-3.6l-3-1l-1.2,3.6
			L196.9,199.9z M194.4,207l1.2-3.6l-3-1l-1.2,3.6L194.4,207z M191.9,214.1l1.2-3.6l-3-1l-1.2,3.6L191.9,214.1z M189.4,221.2
			l1.2-3.6l-3-1l-1.2,3.6L189.4,221.2z M186.9,228.3l1.2-3.6l-3-1l-1.2,3.6L186.9,228.3z M181.1,233.6l3.6,1.2l1-3l-3-1h0l-0.6-0.2
			L181.1,233.6L181.1,233.6z M174,231.1l3.6,1.2l1-3l-3.6-1.2L174,231.1z M166.9,228.6l3.6,1.2l1-3l-3.6-1.2L166.9,228.6z
			 M159.8,226.1l3.6,1.2l1-3l-3.6-1.2L159.8,226.1z M152.7,223.6l3.6,1.2l1-3l-3.6-1.2L152.7,223.6z M145.6,221.1l3.6,1.2l1-3
			l-3.6-1.2L145.6,221.1z M138.5,218.7l3.6,1.2l1-3l-3.6-1.2L138.5,218.7z"/>
		<path class="st1" d="M216.2,365l-1.1-3.6l-3,0.9l1.1,3.6L216.2,365z M220,369c-0.9-0.3-1.8-0.9-2.5-1.6l-2.3,2.1
			c1,1.1,2.3,2,3.8,2.5L220,369L220,369z M226.3,368.2l-2.7,0.8c-0.2,0.1-0.5,0.1-0.7,0.2l0.5,3.1c0.4-0.1,0.7-0.1,1.1-0.3l2.7-0.8
			L226.3,368.2L226.3,368.2z M233.5,366l-3.6,1.1l0.9,3l3.6-1.1L233.5,366z M240.7,363.8l-3.6,1.1l0.9,3l3.6-1.1L240.7,363.8z
			 M247.9,361.7l-3.6,1.1l0.9,3l3.6-1.1L247.9,361.7z M255.1,359.5l-3.6,1.1l0.9,3l3.6-1.1L255.1,359.5z M262.4,357.3l-3.6,1.1
			l0.9,3l3.6-1.1L262.4,357.3z M269.6,355.1l-3.6,1.1l0.9,3l3.6-1.1L269.6,355.1z M276.8,353l-3.6,1.1l0.9,3l3.6-1.1L276.8,353z
			 M284,350.8l-3.6,1.1l0.9,3l3.6-1.1L284,350.8z M291.2,348.6l-3.6,1.1l0.9,3l3.6-1.1L291.2,348.6z M298.4,346.4l-3.6,1.1l0.9,3
			l3.6-1.1L298.4,346.4z M305.4,344.3c-0.2,0.1-0.5,0.2-0.7,0.3l-2.7,0.8l0.9,3l2.7-0.8c0.4-0.1,0.7-0.2,1.1-0.4L305.4,344.3z
			 M308.8,339.7c-0.2,1-0.6,1.9-1.2,2.7l2.5,1.9c0.9-1.2,1.5-2.6,1.8-4.1L308.8,339.7z M307.4,333.1l1.1,3.6l3-0.9l-1.1-3.6
			L307.4,333.1z M305.2,325.9l1.1,3.6l3-0.9l-1.1-3.6L305.2,325.9z M303.1,318.7l1.1,3.6l3-0.9l-1.1-3.6L303.1,318.7z M300.9,311.5
			l1.1,3.6l3-0.9l-1.1-3.6L300.9,311.5z M298.7,304.3l1.1,3.6l3-0.9l-1.1-3.6L298.7,304.3z M296.5,297.1l1.1,3.6l3-0.9l-1.1-3.6
			L296.5,297.1z M294.4,289.9l1.1,3.6l3-0.9l-1.1-3.6L294.4,289.9z M292.2,282.7l1.1,3.6l3-0.9l-1.1-3.6L292.2,282.7z M290,275.4
			l1.1,3.6l3-0.9l-1.1-3.6L290,275.4z M286,271.3c0.9,0.3,1.8,0.8,2.5,1.6l2.3-2.2c-1.1-1.1-2.4-1.9-3.8-2.4L286,271.3L286,271.3z
			 M279.6,272.2l2.9-0.9c0.2-0.1,0.4-0.1,0.6-0.1l-0.6-3.1c-0.3,0.1-0.6,0.1-0.9,0.2l-2.9,0.9L279.6,272.2L279.6,272.2z
			 M272.4,274.3l3.6-1.1l-0.9-3l-3.6,1.1L272.4,274.3z M265.2,276.5l3.6-1.1l-0.9-3l-3.6,1.1L265.2,276.5z M258,278.7l3.6-1.1
			l-0.9-3l-3.6,1.1L258,278.7z M250.8,280.9l3.6-1.1l-0.9-3l-3.6,1.1L250.8,280.9z M243.6,283l3.6-1.1l-0.9-3l-3.6,1.1L243.6,283z
			 M236.4,285.2l3.6-1.1l-0.9-3l-3.6,1.1L236.4,285.2z M229.2,287.4l3.6-1.1l-0.9-3l-3.6,1.1L229.2,287.4z M222,289.6l3.6-1.1
			l-0.9-3l-3.6,1.1L222,289.6z M214.8,291.8l3.6-1.1l-0.9-3l-3.6,1.1L214.8,291.8z M207.6,293.9l3.6-1.1l-0.9-3l-3.6,1.1
			L207.6,293.9z M200.6,296.1c0.3-0.1,0.6-0.2,0.9-0.3l2.5-0.8l-0.9-3l-2.5,0.8c-0.5,0.1-0.9,0.3-1.3,0.5L200.6,296.1L200.6,296.1z
			 M197.3,300.8c0.1-1,0.5-1.9,1.1-2.8l-2.5-1.8c-0.9,1.2-1.5,2.7-1.6,4.2L197.3,300.8z M198.8,307.4l-1.1-3.6l-3,0.9l1.1,3.6
			L198.8,307.4z M200.9,314.6l-1.1-3.6l-3,0.9l1.1,3.6L200.9,314.6z M203.1,321.8l-1.1-3.6l-3,0.9l1.1,3.6L203.1,321.8z M205.3,329
			l-1.1-3.6l-3,0.9l1.1,3.6L205.3,329z M207.5,336.2l-1.1-3.6l-3,0.9l1.1,3.6L207.5,336.2z M209.7,343.4l-1.1-3.6l-3,0.9l1.1,3.6
			L209.7,343.4z M211.8,350.6l-1.1-3.6l-3,0.9l1.1,3.6L211.8,350.6z M214,357.8l-1.1-3.6l-3,0.9l1.1,3.6L214,357.8z"/>
		<path class="st1" d="M115.3,395.5l-1.1-3.6l-3,0.9l1.1,3.6L115.3,395.5z M119.1,399.5c-0.9-0.3-1.8-0.9-2.5-1.6l-2.3,2.1
			c1,1.1,2.3,2,3.8,2.5L119.1,399.5L119.1,399.5z M125.5,398.7l-2.7,0.8c-0.2,0.1-0.5,0.1-0.7,0.2l0.5,3.1c0.4-0.1,0.7-0.1,1.1-0.3
			l2.7-0.8L125.5,398.7L125.5,398.7z M132.7,396.5l-3.6,1.1l0.9,3l3.6-1.1L132.7,396.5z M139.9,394.3l-3.6,1.1l0.9,3l3.6-1.1
			L139.9,394.3z M147.1,392.2l-3.6,1.1l0.9,3l3.6-1.1L147.1,392.2z M154.3,390l-3.6,1.1l0.9,3l3.6-1.1L154.3,390z M161.5,387.8
			l-3.6,1.1l0.9,3l3.6-1.1L161.5,387.8z M168.7,385.6l-3.6,1.1l0.9,3l3.6-1.1L168.7,385.6z M175.9,383.5l-3.6,1.1l0.9,3l3.6-1.1
			L175.9,383.5z M183.1,381.3l-3.6,1.1l0.9,3l3.6-1.1L183.1,381.3z M190.3,379.1l-3.6,1.1l0.9,3l3.6-1.1L190.3,379.1z M197.5,376.9
			l-3.6,1.1l0.9,3l3.6-1.1L197.5,376.9z M204.5,374.8c-0.2,0.1-0.5,0.2-0.7,0.3l-2.7,0.8l0.9,3l2.7-0.8c0.4-0.1,0.7-0.2,1.1-0.4
			L204.5,374.8L204.5,374.8z M208,370.2c-0.2,1-0.6,1.9-1.2,2.7l2.5,1.9c0.9-1.2,1.5-2.6,1.8-4.1L208,370.2L208,370.2z M206.6,363.6
			l1.1,3.6l3-0.9l-1.1-3.6L206.6,363.6z M204.4,356.4l1.1,3.6l3-0.9l-1.1-3.6L204.4,356.4z M202.2,349.2l1.1,3.6l3-0.9l-1.1-3.6
			L202.2,349.2z M200,342l1.1,3.6l3-0.9l-1.1-3.6L200,342z M197.9,334.8l1.1,3.6l3-0.9l-1.1-3.6L197.9,334.8z M195.7,327.6l1.1,3.6
			l3-0.9l-1.1-3.6L195.7,327.6z M193.5,320.4l1.1,3.6l3-0.9l-1.1-3.6L193.5,320.4z M191.3,313.1l1.1,3.6l3-0.9l-1.1-3.6L191.3,313.1
			z M189.1,305.9l1.1,3.6l3-0.9l-1.1-3.6L189.1,305.9z M185.2,301.8c0.9,0.3,1.8,0.8,2.5,1.6l2.3-2.2c-1.1-1.1-2.4-1.9-3.8-2.4
			L185.2,301.8L185.2,301.8z M178.7,302.7l2.9-0.9c0.2-0.1,0.4-0.1,0.6-0.1l-0.6-3.1c-0.3,0.1-0.6,0.1-0.9,0.2l-2.9,0.9L178.7,302.7
			L178.7,302.7z M171.5,304.8l3.6-1.1l-0.9-3l-3.6,1.1L171.5,304.8z M164.3,307l3.6-1.1l-0.9-3l-3.6,1.1L164.3,307z M157.1,309.2
			l3.6-1.1l-0.9-3l-3.6,1.1L157.1,309.2z M149.9,311.4l3.6-1.1l-0.9-3l-3.6,1.1L149.9,311.4z M142.7,313.5l3.6-1.1l-0.9-3l-3.6,1.1
			L142.7,313.5z M135.5,315.7l3.6-1.1l-0.9-3l-3.6,1.1L135.5,315.7z M128.3,317.9l3.6-1.1l-0.9-3l-3.6,1.1L128.3,317.9z
			 M121.1,320.1l3.6-1.1l-0.9-3l-3.6,1.1L121.1,320.1z M113.9,322.3l3.6-1.1l-0.9-3l-3.6,1.1L113.9,322.3z M106.7,324.4l3.6-1.1
			l-0.9-3l-3.6,1.1L106.7,324.4z M99.8,326.6c0.3-0.1,0.6-0.2,0.9-0.3l2.5-0.8l-0.9-3l-2.5,0.8c-0.5,0.1-0.9,0.3-1.3,0.5L99.8,326.6
			L99.8,326.6z M96.4,331.3c0.1-1,0.5-1.9,1.1-2.8l-2.5-1.8c-0.9,1.2-1.5,2.7-1.6,4.2L96.4,331.3z M97.9,337.9l-1.1-3.6l-3,0.9
			l1.1,3.6L97.9,337.9z M100.1,345.1l-1.1-3.6l-3,0.9l1.1,3.6L100.1,345.1z M102.3,352.3l-1.1-3.6l-3,0.9l1.1,3.6L102.3,352.3z
			 M104.4,359.5l-1.1-3.6l-3,0.9l1.1,3.6L104.4,359.5z M106.6,366.7l-1.1-3.6l-3,0.9l1.1,3.6L106.6,366.7z M108.8,373.9l-1.1-3.6
			l-3,0.9l1.1,3.6L108.8,373.9z M111,381.1l-1.1-3.6l-3,0.9l1.1,3.6L111,381.1z M113.2,388.3l-1.1-3.6l-3,0.9l1.1,3.6L113.2,388.3z"
			/>
		<path class="st1" d="M296.8,206.5l2.9-2.4l-2-2.4l-2.9,2.4L296.8,206.5z M294.5,211.4c0-0.1,0-0.2,0-0.3c0-0.9,0.2-1.8,0.6-2.6
			l-2.8-1.4c-0.6,1.2-0.9,2.6-0.9,4c0,0.2,0,0.3,0,0.5L294.5,211.4L294.5,211.4z M297.6,217.1l-1.8-2.2c-0.2-0.2-0.3-0.4-0.4-0.6
			l-2.7,1.6c0.2,0.3,0.4,0.6,0.6,0.9l1.8,2.2L297.6,217.1L297.6,217.1z M302.3,222.9L300,220l-2.4,2l2.4,2.9L302.3,222.9z
			 M307,228.8l-2.4-2.9l-2.4,2l2.4,2.9L307,228.8z M311.7,234.7l-2.4-2.9l-2.4,2l2.4,2.9L311.7,234.7z M316.4,240.6l-2.4-2.9l-2.4,2
			l2.4,2.9L316.4,240.6z M321.1,246.5l-2.4-2.9l-2.4,2l2.4,2.9L321.1,246.5z M325.8,252.3l-2.4-2.9l-2.4,2l2.4,2.9L325.8,252.3z
			 M330.5,258.2l-2.4-2.9l-2.4,2l2.4,2.9L330.5,258.2z M335.2,264.1l-2.4-2.9l-2.4,2l2.4,2.9L335.2,264.1z M339.9,270l-2.4-2.9
			l-2.4,2l2.4,2.9L339.9,270z M344.6,275.8l-2.4-2.9l-2.4,2l2.4,2.9L344.6,275.8z M349.2,281.5c-0.2-0.2-0.3-0.4-0.5-0.6l-1.8-2.2
			l-2.4,2l1.8,2.2c0.2,0.3,0.5,0.6,0.8,0.9L349.2,281.5z M354.8,283c-0.4,0.1-0.9,0.2-1.4,0.2c-0.5,0-1.1-0.1-1.6-0.2l-0.8,3
			c0.8,0.2,1.6,0.3,2.4,0.3c0.7,0,1.4-0.1,2.1-0.2L354.8,283L354.8,283z M360.4,279.3l-2.9,2.4l2,2.4l2.9-2.4L360.4,279.3z
			 M366.3,274.6l-2.9,2.4l2,2.4l2.9-2.4L366.3,274.6z M372.1,269.9l-2.9,2.4l2,2.4l2.9-2.4L372.1,269.9z M378,265.2l-2.9,2.4l2,2.4
			l2.9-2.4L378,265.2z M383.9,260.5l-2.9,2.4l2,2.4l2.9-2.4L383.9,260.5z M389.8,255.8l-2.9,2.4l2,2.4l2.9-2.4L389.8,255.8z
			 M395.6,251.1l-2.9,2.4l2,2.4l2.9-2.4L395.6,251.1z M401.5,246.4l-2.9,2.4l2,2.4l2.9-2.4L401.5,246.4z M407.4,241.7l-2.9,2.4
			l2,2.4l2.9-2.4L407.4,241.7z M409.8,236.4c0,0.2,0,0.3,0,0.5c0,0.8-0.2,1.7-0.5,2.5l2.9,1.3c0.5-1.2,0.8-2.5,0.8-3.7
			c0-0.2,0-0.5,0-0.7L409.8,236.4L409.8,236.4z M406.6,230.8l1.9,2.4c0.1,0.2,0.2,0.3,0.3,0.5l2.6-1.7c-0.2-0.2-0.3-0.5-0.5-0.7
			l-1.9-2.4L406.6,230.8L406.6,230.8z M401.9,224.9l2.4,2.9l2.4-2l-2.4-2.9L401.9,224.9z M397.2,219l2.4,2.9l2.4-2l-2.4-2.9
			L397.2,219z M392.5,213.2l2.4,2.9l2.4-2l-2.4-2.9L392.5,213.2z M387.8,207.3l2.4,2.9l2.4-2l-2.4-2.9L387.8,207.3z M383.1,201.4
			l2.4,2.9l2.4-2l-2.4-2.9L383.1,201.4z M378.4,195.5l2.4,2.9l2.4-2l-2.4-2.9L378.4,195.5z M373.7,189.7l2.4,2.9l2.4-2l-2.4-2.9
			L373.7,189.7z M369,183.8l2.4,2.9l2.4-2l-2.4-2.9L369,183.8z M364.3,177.9l2.4,2.9l2.4-2l-2.4-2.9L364.3,177.9z M359.6,172
			l2.4,2.9l2.4-2l-2.4-2.9L359.6,172z M355,166.4c0.2,0.2,0.4,0.4,0.6,0.7l1.6,2l2.4-2l-1.6-2c-0.3-0.4-0.6-0.7-1-1L355,166.4
			L355,166.4z M349.4,165c0.5-0.1,1-0.2,1.5-0.2c0.5,0,1,0.1,1.4,0.2l0.7-3c-0.7-0.2-1.5-0.3-2.2-0.3c-0.8,0-1.5,0.1-2.3,0.3
			L349.4,165L349.4,165z M343.8,168.9l2.9-2.4l-2-2.4l-2.9,2.4L343.8,168.9z M337.9,173.6l2.9-2.4l-2-2.4l-2.9,2.4L337.9,173.6z
			 M332,178.3l2.9-2.4l-2-2.4l-2.9,2.4L332,178.3z M326.1,183l2.9-2.4l-2-2.4l-2.9,2.4L326.1,183z M320.3,187.7l2.9-2.4l-2-2.4
			l-2.9,2.4L320.3,187.7z M314.4,192.4l2.9-2.4l-2-2.4l-2.9,2.4L314.4,192.4z M308.5,197.1l2.9-2.4l-2-2.4l-2.9,2.4L308.5,197.1z
			 M302.6,201.8l2.9-2.4l-2-2.4l-2.9,2.4L302.6,201.8z"/>
		<path class="st1" d="M230.9,124.2l2.9-2.4l-2-2.4l-2.9,2.4L230.9,124.2z M228.7,129.2c0-0.1,0-0.2,0-0.3c0-0.9,0.2-1.8,0.6-2.6
			l-2.8-1.4c-0.6,1.2-0.9,2.6-0.9,4c0,0.2,0,0.3,0,0.5L228.7,129.2z M231.8,134.8l-1.8-2.2c-0.2-0.2-0.3-0.4-0.4-0.6l-2.7,1.6
			c0.2,0.3,0.4,0.6,0.6,0.9l1.8,2.2L231.8,134.8L231.8,134.8z M236.5,140.7l-2.4-2.9l-2.4,2l2.4,2.9L236.5,140.7z M241.2,146.6
			l-2.4-2.9l-2.4,2l2.4,2.9L241.2,146.6z M245.9,152.4l-2.4-2.9l-2.4,2l2.4,2.9L245.9,152.4z M250.6,158.3l-2.4-2.9l-2.4,2l2.4,2.9
			L250.6,158.3z M255.3,164.2l-2.4-2.9l-2.4,2l2.4,2.9L255.3,164.2z M260,170.1l-2.4-2.9l-2.4,2l2.4,2.9L260,170.1z M264.7,175.9
			l-2.4-2.9l-2.4,2l2.4,2.9L264.7,175.9z M269.4,181.8l-2.4-2.9l-2.4,2l2.4,2.9L269.4,181.8z M274.1,187.7l-2.4-2.9l-2.4,2l2.4,2.9
			L274.1,187.7z M278.8,193.6l-2.4-2.9l-2.4,2l2.4,2.9L278.8,193.6z M283.4,199.3c-0.2-0.2-0.3-0.4-0.5-0.6l-1.8-2.2l-2.4,2l1.8,2.2
			c0.2,0.3,0.5,0.6,0.8,0.9L283.4,199.3L283.4,199.3z M288.9,200.8c-0.4,0.1-0.9,0.2-1.4,0.2c-0.5,0-1.1-0.1-1.6-0.2l-0.8,3
			c0.8,0.2,1.6,0.3,2.4,0.3c0.7,0,1.4-0.1,2.1-0.2L288.9,200.8L288.9,200.8z M294.5,197l-2.9,2.4l2,2.4l2.9-2.4L294.5,197z
			 M300.4,192.3l-2.9,2.4l2,2.4l2.9-2.4L300.4,192.3z M306.3,187.6l-2.9,2.4l2,2.4l2.9-2.4L306.3,187.6z M312.2,182.9l-2.9,2.4
			l2,2.4l2.9-2.4L312.2,182.9z M318.1,178.2l-2.9,2.4l2,2.4l2.9-2.4L318.1,178.2z M323.9,173.5l-2.9,2.4l2,2.4l2.9-2.4L323.9,173.5z
			 M329.8,168.8l-2.9,2.4l2,2.4l2.9-2.4L329.8,168.8z M335.7,164.1l-2.9,2.4l2,2.4l2.9-2.4L335.7,164.1z M341.6,159.4l-2.9,2.4
			l2,2.4l2.9-2.4L341.6,159.4z M343.9,154.1c0,0.2,0,0.3,0,0.5c0,0.8-0.2,1.7-0.5,2.5l2.9,1.3c0.5-1.2,0.8-2.5,0.8-3.7
			c0-0.2,0-0.5,0-0.7L343.9,154.1L343.9,154.1z M340.7,148.5l1.9,2.4c0.1,0.2,0.2,0.3,0.3,0.5l2.6-1.7c-0.2-0.2-0.3-0.5-0.5-0.7
			l-1.9-2.4L340.7,148.5L340.7,148.5z M336,142.6l2.4,2.9l2.4-2l-2.4-2.9L336,142.6z M331.3,136.8l2.4,2.9l2.4-2l-2.4-2.9
			L331.3,136.8z M326.6,130.9l2.4,2.9l2.4-2l-2.4-2.9L326.6,130.9z M321.9,125l2.4,2.9l2.4-2l-2.4-2.9L321.9,125z M317.2,119.1
			l2.4,2.9l2.4-2l-2.4-2.9L317.2,119.1z M312.5,113.3l2.4,2.9l2.4-2l-2.4-2.9L312.5,113.3z M307.8,107.4l2.4,2.9l2.4-2l-2.4-2.9
			L307.8,107.4z M303.1,101.5l2.4,2.9l2.4-2l-2.4-2.9L303.1,101.5z M298.4,95.6l2.4,2.9l2.4-2l-2.4-2.9L298.4,95.6z M293.7,89.8
			l2.4,2.9l2.4-2l-2.4-2.9L293.7,89.8z M289.1,84.1c0.2,0.2,0.4,0.4,0.6,0.7l1.6,2l2.4-2l-1.6-2c-0.3-0.4-0.6-0.7-1-1L289.1,84.1
			L289.1,84.1z M283.6,82.7c0.5-0.1,1-0.2,1.5-0.2c0.5,0,1,0.1,1.4,0.2l0.7-3c-0.7-0.2-1.5-0.3-2.2-0.3c-0.8,0-1.5,0.1-2.3,0.3
			L283.6,82.7L283.6,82.7z M277.9,86.6l2.9-2.4l-2-2.4l-2.9,2.4L277.9,86.6z M272.1,91.3l2.9-2.4l-2-2.4l-2.9,2.4L272.1,91.3z
			 M266.2,96l2.9-2.4l-2-2.4l-2.9,2.4L266.2,96z M260.3,100.7l2.9-2.4l-2-2.4l-2.9,2.4L260.3,100.7z M254.4,105.4l2.9-2.4l-2-2.4
			l-2.9,2.4L254.4,105.4z M248.6,110.1l2.9-2.4l-2-2.4l-2.9,2.4L248.6,110.1z M242.7,114.8l2.9-2.4l-2-2.4l-2.9,2.4L242.7,114.8z
			 M236.8,119.5l2.9-2.4l-2-2.4l-2.9,2.4L236.8,119.5z"/>
		<path class="st1" d="M195.5,284.7l1.3,0.4l0.6-0.3c0.3-0.1,0.5-0.2,0.7-0.3l3.6-1.1l-0.9-3l-3.6,1.1c-0.4,0.1-0.7,0.3-1.1,0.4
			l0.6,1.4l0.5-1.5l-0.7-0.2L195.5,284.7L195.5,284.7z M188.4,282.2l3.6,1.2l1-3l-3.6-1.2L188.4,282.2z M181.1,279.1
			c0.7,0.6,1.6,1,2.5,1.4l1.3,0.5l1-3l-1.3-0.5c-0.6-0.2-1.2-0.5-1.6-0.9L181.1,279.1L181.1,279.1z M177.5,271.2c0,0.2,0,0.5,0,0.7
			c0,1.3,0.3,2.6,0.8,3.7l2.9-1.3c-0.3-0.8-0.5-1.6-0.5-2.4c0-0.2,0-0.3,0-0.5L177.5,271.2L177.5,271.2z M179.8,263.6l-1.2,3.6l3,1
			l1.2-3.6L179.8,263.6z M182.3,256.5l-1.2,3.6l3,1l1.2-3.6L182.3,256.5z M184.8,249.4l-1.2,3.6l3,1l1.2-3.6L184.8,249.4z
			 M187.3,242.3l-1.2,3.6l3,1l1.2-3.6L187.3,242.3z M189.8,235.2l-1.2,3.6l3,1l1.2-3.6L189.8,235.2z M192.3,228.1l-1.2,3.6l3,1
			l1.2-3.6L192.3,228.1z M194.8,221l-1.2,3.6l3,1l1.2-3.6L194.8,221z M197.3,213.9l-1.2,3.6l3,1l1.2-3.6L197.3,213.9z M200,206.6
			c-0.2,0.4-0.4,0.9-0.6,1.3l-0.8,2.4l3,1l0.8-2.4c0.1-0.3,0.2-0.6,0.4-0.9L200,206.6z M207.3,201.9c-1.5,0.1-3,0.6-4.3,1.4l1.7,2.6
			c0.8-0.5,1.8-0.9,2.8-0.9L207.3,201.9L207.3,201.9z M215.1,203.8l-3.6-1.2l-1,3l3.6,1.2L215.1,203.8z M222.3,206.3l-3.6-1.2l-1,3
			l3.6,1.2L222.3,206.3z M229.4,208.8l-3.6-1.2l-1,3l3.6,1.2L229.4,208.8z M236.5,211.3l-3.6-1.2l-1,3l3.6,1.2L236.5,211.3z
			 M243.6,213.8l-3.6-1.2l-1,3l3.6,1.2L243.6,213.8z M250.7,216.3l-3.6-1.2l-1,3l3.6,1.2L250.7,216.3z M257.8,218.8l-3.6-1.2l-1,3
			l3.6,1.2L257.8,218.8z M264.9,221.3l-3.6-1.2l-1,3l3.6,1.2L264.9,221.3z M272,223.8l-3.6-1.2l-1,3l3.6,1.2L272,223.8z
			 M279.1,226.2l-3.6-1.2l-1,3l3.6,1.2L279.1,226.2z M286.2,228.7l-3.6-1.2l-1,3l3.6,1.2L286.2,228.7z M293.6,231.9
			c-0.8-0.6-1.7-1.1-2.7-1.5l-1.1-0.4l-1,3l1.1,0.4c0.7,0.2,1.2,0.6,1.8,1L293.6,231.9z M296.9,239.9c0-0.3,0.1-0.6,0.1-1
			c0-1.2-0.2-2.4-0.7-3.5l-2.9,1.2c0.3,0.7,0.5,1.5,0.5,2.3c0,0.2,0,0.4,0,0.6L296.9,239.9L296.9,239.9z M294.5,247.4l1.2-3.6l-3-1
			l-1.2,3.6L294.5,247.4z M292,254.5l1.2-3.6l-3-1l-1.2,3.6L292,254.5z M284.5,258.5l3.6-1.1l-0.9-3l-3.6,1.1L284.5,258.5z
			 M277.3,260.6l3.6-1.1l-0.9-3l-3.6,1.1L277.3,260.6z M270.1,262.8l3.6-1.1l-0.9-3l-3.6,1.1L270.1,262.8z M262.9,265l3.6-1.1
			l-0.9-3L262,262L262.9,265z M255.7,267.2l3.6-1.1l-0.9-3l-3.6,1.1L255.7,267.2z M248.5,269.4l3.6-1.1l-0.9-3l-3.6,1.1L248.5,269.4
			z M241.3,271.5l3.6-1.1l-0.9-3l-3.6,1.1L241.3,271.5z M234.1,273.7l3.6-1.1l-0.9-3l-3.6,1.1L234.1,273.7z M226.9,275.9l3.6-1.1
			l-0.9-3l-3.6,1.1L226.9,275.9z M219.7,278.1l3.6-1.1l-0.9-3l-3.6,1.1L219.7,278.1z M212.5,280.3l3.6-1.1l-0.9-3l-3.6,1.1
			L212.5,280.3z M205.3,282.4l3.6-1.1l-0.9-3l-3.6,1.1L205.3,282.4z"/>
		<path class="st1" d="M359.4,298.6l-2.3,1.8c-0.8,0.6-1.7,1-2.7,1.2l0.5,3.1c1.5-0.3,2.9-0.9,4.1-1.9l2.3-1.8L359.4,298.6
			L359.4,298.6z M365.3,293.9l-2.9,2.4l2,2.4l2.9-2.4L365.3,293.9z M371.1,289.2l-2.9,2.4l2,2.4l2.9-2.4L371.1,289.2z M377,284.5
			l-2.9,2.4l2,2.4l2.9-2.4L377,284.5z M382.9,279.8l-2.9,2.4l2,2.4l2.9-2.4L382.9,279.8z M388.8,275.1l-2.9,2.4l2,2.4l2.9-2.4
			L388.8,275.1z M396.4,273.5c0-0.5-0.1-1-0.2-1.5l-0.5-2.5l-4,3.2l2,2.4l2-1.6l-1-1.2l-1.5,0.3c0.1,0.3,0.1,0.7,0.1,1L396.4,273.5z
			 M394.3,281.3l1.2-3.6l-3-1l-1.2,3.6L394.3,281.3z M391.8,288.4l1.2-3.6l-3-1l-1.2,3.6L391.8,288.4z M389.3,295.5l1.2-3.6l-3-1
			l-1.2,3.6L389.3,295.5z M386.8,302.6l1.2-3.6l-3-1l-1.2,3.6L386.8,302.6z M384.3,309.7l1.2-3.6l-3-1l-1.2,3.6L384.3,309.7z
			 M381.8,316.8l1.2-3.6l-3-1l-1.2,3.6L381.8,316.8z M379.4,323.9l1.2-3.6l-3-1l-1.2,3.6L379.4,323.9z M376.9,331l1.2-3.6l-3-1
			l-1.2,3.6L376.9,331z M374.3,338.2c0.1-0.1,0.1-0.3,0.2-0.4l1.1-3.2l-3-1l-1.1,3.2c0,0.1-0.1,0.2-0.1,0.3L374.3,338.2z
			 M367.6,343.7c1.5-0.3,2.9-0.9,4.1-1.9l-2-2.4c-0.8,0.6-1.7,1.1-2.7,1.2L367.6,343.7z M359.5,342.2l3.4,1.2c0.1,0,0.1,0,0.2,0.1
			l1-3l-0.1,0l-3.4-1.2L359.5,342.2L359.5,342.2z M352.4,339.7l3.6,1.2l1-3l-3.6-1.2L352.4,339.7z M345.3,337.2l3.6,1.2l1-3
			l-3.6-1.2L345.3,337.2z M338.2,334.7l3.6,1.2l1-3l-3.6-1.2L338.2,334.7z M331.1,332.2l3.6,1.2l1-3l-3.6-1.2L331.1,332.2z
			 M324,329.7l3.6,1.2l1-3l-3.6-1.2L324,329.7z M319.6,322.7l1.1,3.6l3-0.9l-1.1-3.6L319.6,322.7z M317.4,315.5l1.1,3.6l3-0.9
			l-1.1-3.6L317.4,315.5z M315.2,308.3l1.1,3.6l3-0.9l-1.1-3.6L315.2,308.3z M313,301.1l1.1,3.6l3-0.9l-1.1-3.6L313,301.1z
			 M310.8,293.9l1.1,3.6l3-0.9l-1.1-3.6L310.8,293.9z M308.7,286.7l1.1,3.6l3-0.9l-1.1-3.6L308.7,286.7z M306.5,279.5l1.1,3.6l3-0.9
			l-1.1-3.6L306.5,279.5z M304.3,272.3l1.1,3.6l3-0.9l-1.1-3.6L304.3,272.3z M302.1,265.1l1.1,3.6l3-0.9l-1.1-3.6L302.1,265.1z
			 M299.9,258.4c0.3,0.4,0.5,0.9,0.7,1.5l0.5,1.6l3-0.9l-0.5-1.6c-0.2-0.8-0.6-1.6-1-2.3L299.9,258.4L299.9,258.4z M295.5,252.2
			l-1.1,3.2l1.7,0.4c0.6,0.1,1.1,0.3,1.6,0.6l1.5-2.8c-0.8-0.4-1.6-0.7-2.4-0.9l-0.3,1.5l1.5,0.5l0.5-1.5L295.5,252.2L295.5,252.2z
			 M298,245.1l-1.2,3.6l3,1l1.2-3.6L298,245.1z M304.4,244l-3.8-4.7l-1.1,2l0,0l2.7,1.5l0,0l-1.4-0.8l-1.2,1l2.3,2.9L304.4,244
			L304.4,244z M309.1,249.9l-2.4-2.9l-2.4,2l2.4,2.9L309.1,249.9z M313.8,255.8l-2.4-2.9l-2.4,2l2.4,2.9L313.8,255.8z M318.5,261.7
			l-2.4-2.9l-2.4,2l2.4,2.9L318.5,261.7z M323.2,267.5l-2.4-2.9l-2.4,2l2.4,2.9L323.2,267.5z M327.9,273.4l-2.4-2.9l-2.4,2l2.4,2.9
			L327.9,273.4z M332.6,279.3l-2.4-2.9l-2.4,2l2.4,2.9L332.6,279.3z M337.3,285.2l-2.4-2.9l-2.4,2l2.4,2.9L337.3,285.2z M342,291
			l-2.4-2.9l-2.4,2l2.4,2.9L342,291z M346.7,296.9l-2.4-2.9l-2.4,2l2.4,2.9L346.7,296.9z M351.5,301.4c-0.9-0.3-1.8-0.8-2.5-1.6
			l-2.3,2.1c1.1,1.2,2.4,2,3.8,2.4L351.5,301.4L351.5,301.4z"/>
		<path class="st1" d="M95.1,315.7c0.4,0.2,0.8,0.4,1.2,0.5l1.5,0.5l3-0.9l-0.9-3l-2.1,0.6l-0.6-0.2c-0.3-0.1-0.5-0.2-0.8-0.3
			L95.1,315.7z M90.2,308.4c0.1,1.5,0.7,3,1.5,4.2l2.6-1.7c-0.6-0.8-0.9-1.8-1-2.8L90.2,308.4L90.2,308.4z M92.1,300.5l-1.2,3.6l3,1
			l1.2-3.6L92.1,300.5z M94.6,293.4l-1.2,3.6l3,1l1.2-3.6L94.6,293.4z M97.1,286.3l-1.2,3.6l3,1l1.2-3.6L97.1,286.3z M99.6,279.2
			l-1.2,3.6l3,1l1.2-3.6L99.6,279.2z M102.1,272.1l-1.2,3.6l3,1l1.2-3.6L102.1,272.1z M104.6,265l-1.2,3.6l3,1l1.2-3.6L104.6,265z
			 M107.1,257.9l-1.2,3.6l3,1l1.2-3.6L107.1,257.9z M109.6,250.8l-1.2,3.6l3,1l1.2-3.6L109.6,250.8z M112.1,243.7l-1.2,3.6l3,1
			l1.2-3.6L112.1,243.7z M114.5,236.6l-1.2,3.6l3,1l1.2-3.6L114.5,236.6z M117,229.5l-1.2,3.6l3,1l1.2-3.6L117,229.5z M120.1,222.1
			c-0.6,0.8-1.1,1.6-1.4,2.6l-0.4,1.3l3,1l0.4-1.3c0.2-0.6,0.5-1.2,0.9-1.7L120.1,222.1L120.1,222.1z M128.1,218.6
			c-0.3,0-0.5,0-0.8,0c-1.3,0-2.5,0.3-3.6,0.8l1.3,2.9c0.7-0.3,1.6-0.5,2.4-0.5c0.2,0,0.3,0,0.5,0L128.1,218.6L128.1,218.6z
			 M135.7,221l-3.6-1.2l-1,3l3.6,1.2L135.7,221z M142.8,223.5l-3.6-1.2l-1,3l3.6,1.2L142.8,223.5z M149.9,226l-3.6-1.2l-1,3l3.6,1.2
			L149.9,226z M157,228.5l-3.6-1.2l-1,3l3.6,1.2L157,228.5z M164.1,231l-3.6-1.2l-1,3l3.6,1.2L164.1,231z M171.2,233.4l-3.6-1.2
			l-1,3l3.6,1.2L171.2,233.4z M178.3,235.9l-3.6-1.2l-1,3l3.6,1.2L178.3,235.9z M181.9,242.6l1.7-4.8l-1.8-0.6l-1,3l0.3,0.1l0.5-1.5
			l-1.5-0.5l-1.1,3.3L181.9,242.6L181.9,242.6z M179.4,249.7l1.2-3.6l-3-1l-1.2,3.6L179.4,249.7z M176.9,256.8l1.2-3.6l-3-1
			l-1.2,3.6L176.9,256.8z M174.4,263.9l1.2-3.6l-3-1l-1.2,3.6L174.4,263.9z M172,271l1.2-3.6l-3-1l-1.2,3.6L172,271z M169.5,278.1
			l1.2-3.6l-3-1l-1.2,3.6L169.5,278.1z M169.4,284.1c-0.4-0.8-0.7-1.8-0.7-2.8l0-0.1l-3.1-0.1c0,0.1,0,0.1,0,0.2
			c0,1.5,0.4,2.9,1,4.2L169.4,284.1z M174.4,287.6l-1.7-0.6c-0.5-0.2-0.9-0.4-1.4-0.7l-1.8,2.6c0.6,0.4,1.3,0.8,2.1,1l1.7,0.6
			L174.4,287.6L174.4,287.6z M176.5,292.9l2.3-0.7l0,0l-0.1-0.4l0.1,0.4l0,0l-0.1-0.4l0.1,0.4c0,0,0.1,0,0.2,0l4.9-1.3l-5.9-2.1
			l-1,3l1.1,0.4l0.5-1.5l-0.4-1.5l0,0.1l0-0.1l0,0l0,0.1l0-0.1c0,0-0.1,0-0.3,0.1l0,0l-2.3,0.7L176.5,292.9L176.5,292.9z
			 M169.3,295.1l3.6-1.1l-0.9-3l-3.6,1.1L169.3,295.1z M162.1,297.3l3.6-1.1l-0.9-3l-3.6,1.1L162.1,297.3z M154.9,299.5l3.6-1.1
			l-0.9-3l-3.6,1.1L154.9,299.5z M147.7,301.6l3.6-1.1l-0.9-3l-3.6,1.1L147.7,301.6z M140.5,303.8l3.6-1.1l-0.9-3l-3.6,1.1
			L140.5,303.8z M133.3,306l3.6-1.1l-0.9-3l-3.6,1.1L133.3,306z M126.1,308.2l3.6-1.1l-0.9-3l-3.6,1.1L126.1,308.2z M118.9,310.4
			l3.6-1.1l-0.9-3l-3.6,1.1L118.9,310.4z M111.7,312.5l3.6-1.1l-0.9-3l-3.6,1.1L111.7,312.5z M104.4,314.7l3.6-1.1l-0.9-3l-3.6,1.1
			L104.4,314.7z"/>
	</g>
	<g>
		<path class="st1" d="M131.4,216.2l3.6,1.2l1-3l-3.6-1.2L131.4,216.2z M125.6,210.1c0.4,1.5,1.2,2.8,2.3,3.9l2.2-2.2
			c-0.7-0.7-1.2-1.6-1.5-2.5L125.6,210.1L125.6,210.1z M126.7,201.9l-0.9,2.7c-0.1,0.4-0.2,0.7-0.3,1.1l3.1,0.7
			c0.1-0.2,0.1-0.5,0.2-0.7l0.9-2.7L126.7,201.9L126.7,201.9z M129.2,194.8l-1.2,3.6l3,1l1.2-3.6L129.2,194.8z M131.7,187.7
			l-1.2,3.6l3,1l1.2-3.6L131.7,187.7z M134.2,180.6l-1.2,3.6l3,1l1.2-3.6L134.2,180.6z M136.7,173.5l-1.2,3.6l3,1l1.2-3.6
			L136.7,173.5z M139.2,166.4l-1.2,3.6l3,1l1.2-3.6L139.2,166.4z M141.7,159.3l-1.2,3.6l3,1l1.2-3.6L141.7,159.3z M144.1,152.2
			l-1.2,3.6l3,1l1.2-3.6L144.1,152.2z M146.6,145.1l-1.2,3.6l3,1l1.2-3.6L146.6,145.1z M149.1,138l-1.2,3.6l3,1l1.2-3.6L149.1,138z
			 M151.6,130.9l-1.2,3.6l3,1l1.2-3.6L151.6,130.9z M154.2,123.6c-0.2,0.3-0.3,0.7-0.5,1.1l-0.9,2.6l3,1l0.9-2.6
			c0.1-0.2,0.2-0.5,0.3-0.7L154.2,123.6L154.2,123.6z M161.4,118.6c-1.5,0.2-3,0.7-4.2,1.6l1.8,2.6c0.8-0.6,1.8-0.9,2.8-1
			L161.4,118.6z M169.3,120.5l-3.6-1.2l-1,3l3.6,1.2L169.3,120.5z M176.4,123l-3.6-1.2l-1,3l3.6,1.2L176.4,123z M183.5,125.5
			l-3.6-1.2l-1,3l3.6,1.2L183.5,125.5z M190.6,128l-3.6-1.2l-1,3l3.6,1.2L190.6,128z M197.7,130.4l-3.6-1.2l-1,3l3.6,1.2
			L197.7,130.4z M204.8,132.9l-3.6-1.2l-1,3l3.6,1.2L204.8,132.9z M211.9,135.4l-3.6-1.2l-1,3l3.6,1.2L211.9,135.4z M219.1,137.9
			l-3.6-1.2l-1,3l3.6,1.2L219.1,137.9z M226.2,140.4l-3.6-1.2l-1,3l3.6,1.2L226.2,140.4z M232.1,146.7c-0.4-1.5-1.1-2.8-2.2-3.9
			l-2.3,2.2c0.7,0.7,1.2,1.6,1.4,2.6L232.1,146.7L232.1,146.7z M230.9,154.9l1-2.9c0.1-0.3,0.2-0.6,0.2-0.8l-3-0.7
			c0,0.2-0.1,0.4-0.2,0.6l-1,2.9L230.9,154.9L230.9,154.9z M228.4,162l1.2-3.6l-3-1l-1.2,3.6L228.4,162z M225.9,169.1l1.2-3.6l-3-1
			l-1.2,3.6L225.9,169.1z M223.4,176.2l1.2-3.6l-3-1l-1.2,3.6L223.4,176.2z M221,183.3l1.2-3.6l-3-1l-1.2,3.6L221,183.3z
			 M218.5,190.4l1.2-3.6l-3-1l-1.2,3.6L218.5,190.4z M210.3,190.8l3.6,1.2l1-3l-3.6-1.2L210.3,190.8z M203.8,189.4
			c0.3-0.1,0.7-0.1,1-0.1c0.6,0,1.3,0.1,1.9,0.3l1-3c-1-0.3-2-0.5-2.9-0.5c-0.5,0-1.1,0-1.6,0.1L203.8,189.4L203.8,189.4z
			 M199.3,192.9c0.4-0.9,1-1.7,1.8-2.3l-1.9-2.5c-1.2,0.9-2.1,2.1-2.7,3.6L199.3,192.9z M196.9,199.9l1.2-3.6l-3-1l-1.2,3.6
			L196.9,199.9z M194.4,207l1.2-3.6l-3-1l-1.2,3.6L194.4,207z M191.9,214.1l1.2-3.6l-3-1l-1.2,3.6L191.9,214.1z M189.4,221.2
			l1.2-3.6l-3-1l-1.2,3.6L189.4,221.2z M186.9,228.3l1.2-3.6l-3-1l-1.2,3.6L186.9,228.3z M181.1,233.6l3.6,1.2l1-3l-3-1h0l-0.6-0.2
			L181.1,233.6L181.1,233.6z M174,231.1l3.6,1.2l1-3l-3.6-1.2L174,231.1z M166.9,228.6l3.6,1.2l1-3l-3.6-1.2L166.9,228.6z
			 M159.8,226.1l3.6,1.2l1-3l-3.6-1.2L159.8,226.1z M152.7,223.6l3.6,1.2l1-3l-3.6-1.2L152.7,223.6z M145.6,221.1l3.6,1.2l1-3
			l-3.6-1.2L145.6,221.1z M138.5,218.7l3.6,1.2l1-3l-3.6-1.2L138.5,218.7z"/>
		<path class="st1" d="M216.2,365l-1.1-3.6l-3,0.9l1.1,3.6L216.2,365z M220,369c-0.9-0.3-1.8-0.9-2.5-1.6l-2.3,2.1
			c1,1.1,2.3,2,3.8,2.5L220,369L220,369z M226.3,368.2l-2.7,0.8c-0.2,0.1-0.5,0.1-0.7,0.2l0.5,3.1c0.4-0.1,0.7-0.1,1.1-0.3l2.7-0.8
			L226.3,368.2L226.3,368.2z M233.5,366l-3.6,1.1l0.9,3l3.6-1.1L233.5,366z M240.7,363.8l-3.6,1.1l0.9,3l3.6-1.1L240.7,363.8z
			 M247.9,361.7l-3.6,1.1l0.9,3l3.6-1.1L247.9,361.7z M255.1,359.5l-3.6,1.1l0.9,3l3.6-1.1L255.1,359.5z M262.4,357.3l-3.6,1.1
			l0.9,3l3.6-1.1L262.4,357.3z M269.6,355.1l-3.6,1.1l0.9,3l3.6-1.1L269.6,355.1z M276.8,353l-3.6,1.1l0.9,3l3.6-1.1L276.8,353z
			 M284,350.8l-3.6,1.1l0.9,3l3.6-1.1L284,350.8z M291.2,348.6l-3.6,1.1l0.9,3l3.6-1.1L291.2,348.6z M298.4,346.4l-3.6,1.1l0.9,3
			l3.6-1.1L298.4,346.4z M305.4,344.3c-0.2,0.1-0.5,0.2-0.7,0.3l-2.7,0.8l0.9,3l2.7-0.8c0.4-0.1,0.7-0.2,1.1-0.4L305.4,344.3z
			 M308.8,339.7c-0.2,1-0.6,1.9-1.2,2.7l2.5,1.9c0.9-1.2,1.5-2.6,1.8-4.1L308.8,339.7z M307.4,333.1l1.1,3.6l3-0.9l-1.1-3.6
			L307.4,333.1z M305.2,325.9l1.1,3.6l3-0.9l-1.1-3.6L305.2,325.9z M303.1,318.7l1.1,3.6l3-0.9l-1.1-3.6L303.1,318.7z M300.9,311.5
			l1.1,3.6l3-0.9l-1.1-3.6L300.9,311.5z M298.7,304.3l1.1,3.6l3-0.9l-1.1-3.6L298.7,304.3z M296.5,297.1l1.1,3.6l3-0.9l-1.1-3.6
			L296.5,297.1z M294.4,289.9l1.1,3.6l3-0.9l-1.1-3.6L294.4,289.9z M292.2,282.7l1.1,3.6l3-0.9l-1.1-3.6L292.2,282.7z M290,275.4
			l1.1,3.6l3-0.9l-1.1-3.6L290,275.4z M286,271.3c0.9,0.3,1.8,0.8,2.5,1.6l2.3-2.2c-1.1-1.1-2.4-1.9-3.8-2.4L286,271.3L286,271.3z
			 M279.6,272.2l2.9-0.9c0.2-0.1,0.4-0.1,0.6-0.1l-0.6-3.1c-0.3,0.1-0.6,0.1-0.9,0.2l-2.9,0.9L279.6,272.2L279.6,272.2z
			 M272.4,274.3l3.6-1.1l-0.9-3l-3.6,1.1L272.4,274.3z M265.2,276.5l3.6-1.1l-0.9-3l-3.6,1.1L265.2,276.5z M258,278.7l3.6-1.1
			l-0.9-3l-3.6,1.1L258,278.7z M250.8,280.9l3.6-1.1l-0.9-3l-3.6,1.1L250.8,280.9z M243.6,283l3.6-1.1l-0.9-3l-3.6,1.1L243.6,283z
			 M236.4,285.2l3.6-1.1l-0.9-3l-3.6,1.1L236.4,285.2z M229.2,287.4l3.6-1.1l-0.9-3l-3.6,1.1L229.2,287.4z M222,289.6l3.6-1.1
			l-0.9-3l-3.6,1.1L222,289.6z M214.8,291.8l3.6-1.1l-0.9-3l-3.6,1.1L214.8,291.8z M207.6,293.9l3.6-1.1l-0.9-3l-3.6,1.1
			L207.6,293.9z M200.6,296.1c0.3-0.1,0.6-0.2,0.9-0.3l2.5-0.8l-0.9-3l-2.5,0.8c-0.5,0.1-0.9,0.3-1.3,0.5L200.6,296.1L200.6,296.1z
			 M197.3,300.8c0.1-1,0.5-1.9,1.1-2.8l-2.5-1.8c-0.9,1.2-1.5,2.7-1.6,4.2L197.3,300.8z M198.8,307.4l-1.1-3.6l-3,0.9l1.1,3.6
			L198.8,307.4z M200.9,314.6l-1.1-3.6l-3,0.9l1.1,3.6L200.9,314.6z M203.1,321.8l-1.1-3.6l-3,0.9l1.1,3.6L203.1,321.8z M205.3,329
			l-1.1-3.6l-3,0.9l1.1,3.6L205.3,329z M207.5,336.2l-1.1-3.6l-3,0.9l1.1,3.6L207.5,336.2z M209.7,343.4l-1.1-3.6l-3,0.9l1.1,3.6
			L209.7,343.4z M211.8,350.6l-1.1-3.6l-3,0.9l1.1,3.6L211.8,350.6z M214,357.8l-1.1-3.6l-3,0.9l1.1,3.6L214,357.8z"/>
		<path class="st1" d="M115.3,395.5l-1.1-3.6l-3,0.9l1.1,3.6L115.3,395.5z M119.1,399.5c-0.9-0.3-1.8-0.9-2.5-1.6l-2.3,2.1
			c1,1.1,2.3,2,3.8,2.5L119.1,399.5L119.1,399.5z M125.5,398.7l-2.7,0.8c-0.2,0.1-0.5,0.1-0.7,0.2l0.5,3.1c0.4-0.1,0.7-0.1,1.1-0.3
			l2.7-0.8L125.5,398.7L125.5,398.7z M132.7,396.5l-3.6,1.1l0.9,3l3.6-1.1L132.7,396.5z M139.9,394.3l-3.6,1.1l0.9,3l3.6-1.1
			L139.9,394.3z M147.1,392.2l-3.6,1.1l0.9,3l3.6-1.1L147.1,392.2z M154.3,390l-3.6,1.1l0.9,3l3.6-1.1L154.3,390z M161.5,387.8
			l-3.6,1.1l0.9,3l3.6-1.1L161.5,387.8z M168.7,385.6l-3.6,1.1l0.9,3l3.6-1.1L168.7,385.6z M175.9,383.5l-3.6,1.1l0.9,3l3.6-1.1
			L175.9,383.5z M183.1,381.3l-3.6,1.1l0.9,3l3.6-1.1L183.1,381.3z M190.3,379.1l-3.6,1.1l0.9,3l3.6-1.1L190.3,379.1z M197.5,376.9
			l-3.6,1.1l0.9,3l3.6-1.1L197.5,376.9z M204.5,374.8c-0.2,0.1-0.5,0.2-0.7,0.3l-2.7,0.8l0.9,3l2.7-0.8c0.4-0.1,0.7-0.2,1.1-0.4
			L204.5,374.8L204.5,374.8z M208,370.2c-0.2,1-0.6,1.9-1.2,2.7l2.5,1.9c0.9-1.2,1.5-2.6,1.8-4.1L208,370.2L208,370.2z M206.6,363.6
			l1.1,3.6l3-0.9l-1.1-3.6L206.6,363.6z M204.4,356.4l1.1,3.6l3-0.9l-1.1-3.6L204.4,356.4z M202.2,349.2l1.1,3.6l3-0.9l-1.1-3.6
			L202.2,349.2z M200,342l1.1,3.6l3-0.9l-1.1-3.6L200,342z M197.9,334.8l1.1,3.6l3-0.9l-1.1-3.6L197.9,334.8z M195.7,327.6l1.1,3.6
			l3-0.9l-1.1-3.6L195.7,327.6z M193.5,320.4l1.1,3.6l3-0.9l-1.1-3.6L193.5,320.4z M191.3,313.1l1.1,3.6l3-0.9l-1.1-3.6L191.3,313.1
			z M189.1,305.9l1.1,3.6l3-0.9l-1.1-3.6L189.1,305.9z M185.2,301.8c0.9,0.3,1.8,0.8,2.5,1.6l2.3-2.2c-1.1-1.1-2.4-1.9-3.8-2.4
			L185.2,301.8L185.2,301.8z M178.7,302.7l2.9-0.9c0.2-0.1,0.4-0.1,0.6-0.1l-0.6-3.1c-0.3,0.1-0.6,0.1-0.9,0.2l-2.9,0.9L178.7,302.7
			L178.7,302.7z M171.5,304.8l3.6-1.1l-0.9-3l-3.6,1.1L171.5,304.8z M164.3,307l3.6-1.1l-0.9-3l-3.6,1.1L164.3,307z M157.1,309.2
			l3.6-1.1l-0.9-3l-3.6,1.1L157.1,309.2z M149.9,311.4l3.6-1.1l-0.9-3l-3.6,1.1L149.9,311.4z M142.7,313.5l3.6-1.1l-0.9-3l-3.6,1.1
			L142.7,313.5z M135.5,315.7l3.6-1.1l-0.9-3l-3.6,1.1L135.5,315.7z M128.3,317.9l3.6-1.1l-0.9-3l-3.6,1.1L128.3,317.9z
			 M121.1,320.1l3.6-1.1l-0.9-3l-3.6,1.1L121.1,320.1z M113.9,322.3l3.6-1.1l-0.9-3l-3.6,1.1L113.9,322.3z M106.7,324.4l3.6-1.1
			l-0.9-3l-3.6,1.1L106.7,324.4z M99.8,326.6c0.3-0.1,0.6-0.2,0.9-0.3l2.5-0.8l-0.9-3l-2.5,0.8c-0.5,0.1-0.9,0.3-1.3,0.5L99.8,326.6
			L99.8,326.6z M96.4,331.3c0.1-1,0.5-1.9,1.1-2.8l-2.5-1.8c-0.9,1.2-1.5,2.7-1.6,4.2L96.4,331.3z M97.9,337.9l-1.1-3.6l-3,0.9
			l1.1,3.6L97.9,337.9z M100.1,345.1l-1.1-3.6l-3,0.9l1.1,3.6L100.1,345.1z M102.3,352.3l-1.1-3.6l-3,0.9l1.1,3.6L102.3,352.3z
			 M104.4,359.5l-1.1-3.6l-3,0.9l1.1,3.6L104.4,359.5z M106.6,366.7l-1.1-3.6l-3,0.9l1.1,3.6L106.6,366.7z M108.8,373.9l-1.1-3.6
			l-3,0.9l1.1,3.6L108.8,373.9z M111,381.1l-1.1-3.6l-3,0.9l1.1,3.6L111,381.1z M113.2,388.3l-1.1-3.6l-3,0.9l1.1,3.6L113.2,388.3z"
			/>
		<path class="st1" d="M296.8,206.5l2.9-2.4l-2-2.4l-2.9,2.4L296.8,206.5z M294.5,211.4c0-0.1,0-0.2,0-0.3c0-0.9,0.2-1.8,0.6-2.6
			l-2.8-1.4c-0.6,1.2-0.9,2.6-0.9,4c0,0.2,0,0.3,0,0.5L294.5,211.4L294.5,211.4z M297.6,217.1l-1.8-2.2c-0.2-0.2-0.3-0.4-0.4-0.6
			l-2.7,1.6c0.2,0.3,0.4,0.6,0.6,0.9l1.8,2.2L297.6,217.1L297.6,217.1z M302.3,222.9L300,220l-2.4,2l2.4,2.9L302.3,222.9z
			 M307,228.8l-2.4-2.9l-2.4,2l2.4,2.9L307,228.8z M311.7,234.7l-2.4-2.9l-2.4,2l2.4,2.9L311.7,234.7z M316.4,240.6l-2.4-2.9l-2.4,2
			l2.4,2.9L316.4,240.6z M321.1,246.5l-2.4-2.9l-2.4,2l2.4,2.9L321.1,246.5z M325.8,252.3l-2.4-2.9l-2.4,2l2.4,2.9L325.8,252.3z
			 M330.5,258.2l-2.4-2.9l-2.4,2l2.4,2.9L330.5,258.2z M335.2,264.1l-2.4-2.9l-2.4,2l2.4,2.9L335.2,264.1z M339.9,270l-2.4-2.9
			l-2.4,2l2.4,2.9L339.9,270z M344.6,275.8l-2.4-2.9l-2.4,2l2.4,2.9L344.6,275.8z M349.2,281.5c-0.2-0.2-0.3-0.4-0.5-0.6l-1.8-2.2
			l-2.4,2l1.8,2.2c0.2,0.3,0.5,0.6,0.8,0.9L349.2,281.5z M354.8,283c-0.4,0.1-0.9,0.2-1.4,0.2c-0.5,0-1.1-0.1-1.6-0.2l-0.8,3
			c0.8,0.2,1.6,0.3,2.4,0.3c0.7,0,1.4-0.1,2.1-0.2L354.8,283L354.8,283z M360.4,279.3l-2.9,2.4l2,2.4l2.9-2.4L360.4,279.3z
			 M366.3,274.6l-2.9,2.4l2,2.4l2.9-2.4L366.3,274.6z M372.1,269.9l-2.9,2.4l2,2.4l2.9-2.4L372.1,269.9z M378,265.2l-2.9,2.4l2,2.4
			l2.9-2.4L378,265.2z M383.9,260.5l-2.9,2.4l2,2.4l2.9-2.4L383.9,260.5z M389.8,255.8l-2.9,2.4l2,2.4l2.9-2.4L389.8,255.8z
			 M395.6,251.1l-2.9,2.4l2,2.4l2.9-2.4L395.6,251.1z M401.5,246.4l-2.9,2.4l2,2.4l2.9-2.4L401.5,246.4z M407.4,241.7l-2.9,2.4
			l2,2.4l2.9-2.4L407.4,241.7z M409.8,236.4c0,0.2,0,0.3,0,0.5c0,0.8-0.2,1.7-0.5,2.5l2.9,1.3c0.5-1.2,0.8-2.5,0.8-3.7
			c0-0.2,0-0.5,0-0.7L409.8,236.4L409.8,236.4z M406.6,230.8l1.9,2.4c0.1,0.2,0.2,0.3,0.3,0.5l2.6-1.7c-0.2-0.2-0.3-0.5-0.5-0.7
			l-1.9-2.4L406.6,230.8L406.6,230.8z M401.9,224.9l2.4,2.9l2.4-2l-2.4-2.9L401.9,224.9z M397.2,219l2.4,2.9l2.4-2l-2.4-2.9
			L397.2,219z M392.5,213.2l2.4,2.9l2.4-2l-2.4-2.9L392.5,213.2z M387.8,207.3l2.4,2.9l2.4-2l-2.4-2.9L387.8,207.3z M383.1,201.4
			l2.4,2.9l2.4-2l-2.4-2.9L383.1,201.4z M378.4,195.5l2.4,2.9l2.4-2l-2.4-2.9L378.4,195.5z M373.7,189.7l2.4,2.9l2.4-2l-2.4-2.9
			L373.7,189.7z M369,183.8l2.4,2.9l2.4-2l-2.4-2.9L369,183.8z M364.3,177.9l2.4,2.9l2.4-2l-2.4-2.9L364.3,177.9z M359.6,172
			l2.4,2.9l2.4-2l-2.4-2.9L359.6,172z M355,166.4c0.2,0.2,0.4,0.4,0.6,0.7l1.6,2l2.4-2l-1.6-2c-0.3-0.4-0.6-0.7-1-1L355,166.4
			L355,166.4z M349.4,165c0.5-0.1,1-0.2,1.5-0.2c0.5,0,1,0.1,1.4,0.2l0.7-3c-0.7-0.2-1.5-0.3-2.2-0.3c-0.8,0-1.5,0.1-2.3,0.3
			L349.4,165L349.4,165z M343.8,168.9l2.9-2.4l-2-2.4l-2.9,2.4L343.8,168.9z M337.9,173.6l2.9-2.4l-2-2.4l-2.9,2.4L337.9,173.6z
			 M332,178.3l2.9-2.4l-2-2.4l-2.9,2.4L332,178.3z M326.1,183l2.9-2.4l-2-2.4l-2.9,2.4L326.1,183z M320.3,187.7l2.9-2.4l-2-2.4
			l-2.9,2.4L320.3,187.7z M314.4,192.4l2.9-2.4l-2-2.4l-2.9,2.4L314.4,192.4z M308.5,197.1l2.9-2.4l-2-2.4l-2.9,2.4L308.5,197.1z
			 M302.6,201.8l2.9-2.4l-2-2.4l-2.9,2.4L302.6,201.8z"/>
		<path class="st1" d="M230.9,124.2l2.9-2.4l-2-2.4l-2.9,2.4L230.9,124.2z M228.7,129.2c0-0.1,0-0.2,0-0.3c0-0.9,0.2-1.8,0.6-2.6
			l-2.8-1.4c-0.6,1.2-0.9,2.6-0.9,4c0,0.2,0,0.3,0,0.5L228.7,129.2z M231.8,134.8l-1.8-2.2c-0.2-0.2-0.3-0.4-0.4-0.6l-2.7,1.6
			c0.2,0.3,0.4,0.6,0.6,0.9l1.8,2.2L231.8,134.8L231.8,134.8z M236.5,140.7l-2.4-2.9l-2.4,2l2.4,2.9L236.5,140.7z M241.2,146.6
			l-2.4-2.9l-2.4,2l2.4,2.9L241.2,146.6z M245.9,152.4l-2.4-2.9l-2.4,2l2.4,2.9L245.9,152.4z M250.6,158.3l-2.4-2.9l-2.4,2l2.4,2.9
			L250.6,158.3z M255.3,164.2l-2.4-2.9l-2.4,2l2.4,2.9L255.3,164.2z M260,170.1l-2.4-2.9l-2.4,2l2.4,2.9L260,170.1z M264.7,175.9
			l-2.4-2.9l-2.4,2l2.4,2.9L264.7,175.9z M269.4,181.8l-2.4-2.9l-2.4,2l2.4,2.9L269.4,181.8z M274.1,187.7l-2.4-2.9l-2.4,2l2.4,2.9
			L274.1,187.7z M278.8,193.6l-2.4-2.9l-2.4,2l2.4,2.9L278.8,193.6z M283.4,199.3c-0.2-0.2-0.3-0.4-0.5-0.6l-1.8-2.2l-2.4,2l1.8,2.2
			c0.2,0.3,0.5,0.6,0.8,0.9L283.4,199.3L283.4,199.3z M288.9,200.8c-0.4,0.1-0.9,0.2-1.4,0.2c-0.5,0-1.1-0.1-1.6-0.2l-0.8,3
			c0.8,0.2,1.6,0.3,2.4,0.3c0.7,0,1.4-0.1,2.1-0.2L288.9,200.8L288.9,200.8z M294.5,197l-2.9,2.4l2,2.4l2.9-2.4L294.5,197z
			 M300.4,192.3l-2.9,2.4l2,2.4l2.9-2.4L300.4,192.3z M306.3,187.6l-2.9,2.4l2,2.4l2.9-2.4L306.3,187.6z M312.2,182.9l-2.9,2.4
			l2,2.4l2.9-2.4L312.2,182.9z M318.1,178.2l-2.9,2.4l2,2.4l2.9-2.4L318.1,178.2z M323.9,173.5l-2.9,2.4l2,2.4l2.9-2.4L323.9,173.5z
			 M329.8,168.8l-2.9,2.4l2,2.4l2.9-2.4L329.8,168.8z M335.7,164.1l-2.9,2.4l2,2.4l2.9-2.4L335.7,164.1z M341.6,159.4l-2.9,2.4
			l2,2.4l2.9-2.4L341.6,159.4z M343.9,154.1c0,0.2,0,0.3,0,0.5c0,0.8-0.2,1.7-0.5,2.5l2.9,1.3c0.5-1.2,0.8-2.5,0.8-3.7
			c0-0.2,0-0.5,0-0.7L343.9,154.1L343.9,154.1z M340.7,148.5l1.9,2.4c0.1,0.2,0.2,0.3,0.3,0.5l2.6-1.7c-0.2-0.2-0.3-0.5-0.5-0.7
			l-1.9-2.4L340.7,148.5L340.7,148.5z M336,142.6l2.4,2.9l2.4-2l-2.4-2.9L336,142.6z M331.3,136.8l2.4,2.9l2.4-2l-2.4-2.9
			L331.3,136.8z M326.6,130.9l2.4,2.9l2.4-2l-2.4-2.9L326.6,130.9z M321.9,125l2.4,2.9l2.4-2l-2.4-2.9L321.9,125z M317.2,119.1
			l2.4,2.9l2.4-2l-2.4-2.9L317.2,119.1z M312.5,113.3l2.4,2.9l2.4-2l-2.4-2.9L312.5,113.3z M307.8,107.4l2.4,2.9l2.4-2l-2.4-2.9
			L307.8,107.4z M303.1,101.5l2.4,2.9l2.4-2l-2.4-2.9L303.1,101.5z M298.4,95.6l2.4,2.9l2.4-2l-2.4-2.9L298.4,95.6z M293.7,89.8
			l2.4,2.9l2.4-2l-2.4-2.9L293.7,89.8z M289.1,84.1c0.2,0.2,0.4,0.4,0.6,0.7l1.6,2l2.4-2l-1.6-2c-0.3-0.4-0.6-0.7-1-1L289.1,84.1
			L289.1,84.1z M283.6,82.7c0.5-0.1,1-0.2,1.5-0.2c0.5,0,1,0.1,1.4,0.2l0.7-3c-0.7-0.2-1.5-0.3-2.2-0.3c-0.8,0-1.5,0.1-2.3,0.3
			L283.6,82.7L283.6,82.7z M277.9,86.6l2.9-2.4l-2-2.4l-2.9,2.4L277.9,86.6z M272.1,91.3l2.9-2.4l-2-2.4l-2.9,2.4L272.1,91.3z
			 M266.2,96l2.9-2.4l-2-2.4l-2.9,2.4L266.2,96z M260.3,100.7l2.9-2.4l-2-2.4l-2.9,2.4L260.3,100.7z M254.4,105.4l2.9-2.4l-2-2.4
			l-2.9,2.4L254.4,105.4z M248.6,110.1l2.9-2.4l-2-2.4l-2.9,2.4L248.6,110.1z M242.7,114.8l2.9-2.4l-2-2.4l-2.9,2.4L242.7,114.8z
			 M236.8,119.5l2.9-2.4l-2-2.4l-2.9,2.4L236.8,119.5z"/>
		<path class="st1" d="M195.5,284.7l1.3,0.4l0.6-0.3c0.3-0.1,0.5-0.2,0.7-0.3l3.6-1.1l-0.9-3l-3.6,1.1c-0.4,0.1-0.7,0.3-1.1,0.4
			l0.6,1.4l0.5-1.5l-0.7-0.2L195.5,284.7L195.5,284.7z M188.4,282.2l3.6,1.2l1-3l-3.6-1.2L188.4,282.2z M181.1,279.1
			c0.7,0.6,1.6,1,2.5,1.4l1.3,0.5l1-3l-1.3-0.5c-0.6-0.2-1.2-0.5-1.6-0.9L181.1,279.1L181.1,279.1z M177.5,271.2c0,0.2,0,0.5,0,0.7
			c0,1.3,0.3,2.6,0.8,3.7l2.9-1.3c-0.3-0.8-0.5-1.6-0.5-2.4c0-0.2,0-0.3,0-0.5L177.5,271.2L177.5,271.2z M179.8,263.6l-1.2,3.6l3,1
			l1.2-3.6L179.8,263.6z M182.3,256.5l-1.2,3.6l3,1l1.2-3.6L182.3,256.5z M184.8,249.4l-1.2,3.6l3,1l1.2-3.6L184.8,249.4z
			 M187.3,242.3l-1.2,3.6l3,1l1.2-3.6L187.3,242.3z M189.8,235.2l-1.2,3.6l3,1l1.2-3.6L189.8,235.2z M192.3,228.1l-1.2,3.6l3,1
			l1.2-3.6L192.3,228.1z M194.8,221l-1.2,3.6l3,1l1.2-3.6L194.8,221z M197.3,213.9l-1.2,3.6l3,1l1.2-3.6L197.3,213.9z M200,206.6
			c-0.2,0.4-0.4,0.9-0.6,1.3l-0.8,2.4l3,1l0.8-2.4c0.1-0.3,0.2-0.6,0.4-0.9L200,206.6z M207.3,201.9c-1.5,0.1-3,0.6-4.3,1.4l1.7,2.6
			c0.8-0.5,1.8-0.9,2.8-0.9L207.3,201.9L207.3,201.9z M215.1,203.8l-3.6-1.2l-1,3l3.6,1.2L215.1,203.8z M222.3,206.3l-3.6-1.2l-1,3
			l3.6,1.2L222.3,206.3z M229.4,208.8l-3.6-1.2l-1,3l3.6,1.2L229.4,208.8z M236.5,211.3l-3.6-1.2l-1,3l3.6,1.2L236.5,211.3z
			 M243.6,213.8l-3.6-1.2l-1,3l3.6,1.2L243.6,213.8z M250.7,216.3l-3.6-1.2l-1,3l3.6,1.2L250.7,216.3z M257.8,218.8l-3.6-1.2l-1,3
			l3.6,1.2L257.8,218.8z M264.9,221.3l-3.6-1.2l-1,3l3.6,1.2L264.9,221.3z M272,223.8l-3.6-1.2l-1,3l3.6,1.2L272,223.8z
			 M279.1,226.2l-3.6-1.2l-1,3l3.6,1.2L279.1,226.2z M286.2,228.7l-3.6-1.2l-1,3l3.6,1.2L286.2,228.7z M293.6,231.9
			c-0.8-0.6-1.7-1.1-2.7-1.5l-1.1-0.4l-1,3l1.1,0.4c0.7,0.2,1.2,0.6,1.8,1L293.6,231.9z M296.9,239.9c0-0.3,0.1-0.6,0.1-1
			c0-1.2-0.2-2.4-0.7-3.5l-2.9,1.2c0.3,0.7,0.5,1.5,0.5,2.3c0,0.2,0,0.4,0,0.6L296.9,239.9L296.9,239.9z M294.5,247.4l1.2-3.6l-3-1
			l-1.2,3.6L294.5,247.4z M292,254.5l1.2-3.6l-3-1l-1.2,3.6L292,254.5z M284.5,258.5l3.6-1.1l-0.9-3l-3.6,1.1L284.5,258.5z
			 M277.3,260.6l3.6-1.1l-0.9-3l-3.6,1.1L277.3,260.6z M270.1,262.8l3.6-1.1l-0.9-3l-3.6,1.1L270.1,262.8z M262.9,265l3.6-1.1
			l-0.9-3L262,262L262.9,265z M255.7,267.2l3.6-1.1l-0.9-3l-3.6,1.1L255.7,267.2z M248.5,269.4l3.6-1.1l-0.9-3l-3.6,1.1L248.5,269.4
			z M241.3,271.5l3.6-1.1l-0.9-3l-3.6,1.1L241.3,271.5z M234.1,273.7l3.6-1.1l-0.9-3l-3.6,1.1L234.1,273.7z M226.9,275.9l3.6-1.1
			l-0.9-3l-3.6,1.1L226.9,275.9z M219.7,278.1l3.6-1.1l-0.9-3l-3.6,1.1L219.7,278.1z M212.5,280.3l3.6-1.1l-0.9-3l-3.6,1.1
			L212.5,280.3z M205.3,282.4l3.6-1.1l-0.9-3l-3.6,1.1L205.3,282.4z"/>
		<path class="st1" d="M359.4,298.6l-2.3,1.8c-0.8,0.6-1.7,1-2.7,1.2l0.5,3.1c1.5-0.3,2.9-0.9,4.1-1.9l2.3-1.8L359.4,298.6
			L359.4,298.6z M365.3,293.9l-2.9,2.4l2,2.4l2.9-2.4L365.3,293.9z M371.1,289.2l-2.9,2.4l2,2.4l2.9-2.4L371.1,289.2z M377,284.5
			l-2.9,2.4l2,2.4l2.9-2.4L377,284.5z M382.9,279.8l-2.9,2.4l2,2.4l2.9-2.4L382.9,279.8z M388.8,275.1l-2.9,2.4l2,2.4l2.9-2.4
			L388.8,275.1z M396.4,273.5c0-0.5-0.1-1-0.2-1.5l-0.5-2.5l-4,3.2l2,2.4l2-1.6l-1-1.2l-1.5,0.3c0.1,0.3,0.1,0.7,0.1,1L396.4,273.5z
			 M394.3,281.3l1.2-3.6l-3-1l-1.2,3.6L394.3,281.3z M391.8,288.4l1.2-3.6l-3-1l-1.2,3.6L391.8,288.4z M389.3,295.5l1.2-3.6l-3-1
			l-1.2,3.6L389.3,295.5z M386.8,302.6l1.2-3.6l-3-1l-1.2,3.6L386.8,302.6z M384.3,309.7l1.2-3.6l-3-1l-1.2,3.6L384.3,309.7z
			 M381.8,316.8l1.2-3.6l-3-1l-1.2,3.6L381.8,316.8z M379.4,323.9l1.2-3.6l-3-1l-1.2,3.6L379.4,323.9z M376.9,331l1.2-3.6l-3-1
			l-1.2,3.6L376.9,331z M374.3,338.2c0.1-0.1,0.1-0.3,0.2-0.4l1.1-3.2l-3-1l-1.1,3.2c0,0.1-0.1,0.2-0.1,0.3L374.3,338.2z
			 M367.6,343.7c1.5-0.3,2.9-0.9,4.1-1.9l-2-2.4c-0.8,0.6-1.7,1.1-2.7,1.2L367.6,343.7z M359.5,342.2l3.4,1.2c0.1,0,0.1,0,0.2,0.1
			l1-3l-0.1,0l-3.4-1.2L359.5,342.2L359.5,342.2z M352.4,339.7l3.6,1.2l1-3l-3.6-1.2L352.4,339.7z M345.3,337.2l3.6,1.2l1-3
			l-3.6-1.2L345.3,337.2z M338.2,334.7l3.6,1.2l1-3l-3.6-1.2L338.2,334.7z M331.1,332.2l3.6,1.2l1-3l-3.6-1.2L331.1,332.2z
			 M324,329.7l3.6,1.2l1-3l-3.6-1.2L324,329.7z M319.6,322.7l1.1,3.6l3-0.9l-1.1-3.6L319.6,322.7z M317.4,315.5l1.1,3.6l3-0.9
			l-1.1-3.6L317.4,315.5z M315.2,308.3l1.1,3.6l3-0.9l-1.1-3.6L315.2,308.3z M313,301.1l1.1,3.6l3-0.9l-1.1-3.6L313,301.1z
			 M310.8,293.9l1.1,3.6l3-0.9l-1.1-3.6L310.8,293.9z M308.7,286.7l1.1,3.6l3-0.9l-1.1-3.6L308.7,286.7z M306.5,279.5l1.1,3.6l3-0.9
			l-1.1-3.6L306.5,279.5z M304.3,272.3l1.1,3.6l3-0.9l-1.1-3.6L304.3,272.3z M302.1,265.1l1.1,3.6l3-0.9l-1.1-3.6L302.1,265.1z
			 M299.9,258.4c0.3,0.4,0.5,0.9,0.7,1.5l0.5,1.6l3-0.9l-0.5-1.6c-0.2-0.8-0.6-1.6-1-2.3L299.9,258.4L299.9,258.4z M295.5,252.2
			l-1.1,3.2l1.7,0.4c0.6,0.1,1.1,0.3,1.6,0.6l1.5-2.8c-0.8-0.4-1.6-0.7-2.4-0.9l-0.3,1.5l1.5,0.5l0.5-1.5L295.5,252.2L295.5,252.2z
			 M298,245.1l-1.2,3.6l3,1l1.2-3.6L298,245.1z M304.4,244l-3.8-4.7l-1.1,2l0,0l2.7,1.5l0,0l-1.4-0.8l-1.2,1l2.3,2.9L304.4,244
			L304.4,244z M309.1,249.9l-2.4-2.9l-2.4,2l2.4,2.9L309.1,249.9z M313.8,255.8l-2.4-2.9l-2.4,2l2.4,2.9L313.8,255.8z M318.5,261.7
			l-2.4-2.9l-2.4,2l2.4,2.9L318.5,261.7z M323.2,267.5l-2.4-2.9l-2.4,2l2.4,2.9L323.2,267.5z M327.9,273.4l-2.4-2.9l-2.4,2l2.4,2.9
			L327.9,273.4z M332.6,279.3l-2.4-2.9l-2.4,2l2.4,2.9L332.6,279.3z M337.3,285.2l-2.4-2.9l-2.4,2l2.4,2.9L337.3,285.2z M342,291
			l-2.4-2.9l-2.4,2l2.4,2.9L342,291z M346.7,296.9l-2.4-2.9l-2.4,2l2.4,2.9L346.7,296.9z M351.5,301.4c-0.9-0.3-1.8-0.8-2.5-1.6
			l-2.3,2.1c1.1,1.2,2.4,2,3.8,2.4L351.5,301.4L351.5,301.4z"/>
		<path class="st1" d="M95.1,315.7c0.4,0.2,0.8,0.4,1.2,0.5l1.5,0.5l3-0.9l-0.9-3l-2.1,0.6l-0.6-0.2c-0.3-0.1-0.5-0.2-0.8-0.3
			L95.1,315.7z M90.2,308.4c0.1,1.5,0.7,3,1.5,4.2l2.6-1.7c-0.6-0.8-0.9-1.8-1-2.8L90.2,308.4L90.2,308.4z M92.1,300.5l-1.2,3.6l3,1
			l1.2-3.6L92.1,300.5z M94.6,293.4l-1.2,3.6l3,1l1.2-3.6L94.6,293.4z M97.1,286.3l-1.2,3.6l3,1l1.2-3.6L97.1,286.3z M99.6,279.2
			l-1.2,3.6l3,1l1.2-3.6L99.6,279.2z M102.1,272.1l-1.2,3.6l3,1l1.2-3.6L102.1,272.1z M104.6,265l-1.2,3.6l3,1l1.2-3.6L104.6,265z
			 M107.1,257.9l-1.2,3.6l3,1l1.2-3.6L107.1,257.9z M109.6,250.8l-1.2,3.6l3,1l1.2-3.6L109.6,250.8z M112.1,243.7l-1.2,3.6l3,1
			l1.2-3.6L112.1,243.7z M114.5,236.6l-1.2,3.6l3,1l1.2-3.6L114.5,236.6z M117,229.5l-1.2,3.6l3,1l1.2-3.6L117,229.5z M120.1,222.1
			c-0.6,0.8-1.1,1.6-1.4,2.6l-0.4,1.3l3,1l0.4-1.3c0.2-0.6,0.5-1.2,0.9-1.7L120.1,222.1L120.1,222.1z M128.1,218.6
			c-0.3,0-0.5,0-0.8,0c-1.3,0-2.5,0.3-3.6,0.8l1.3,2.9c0.7-0.3,1.6-0.5,2.4-0.5c0.2,0,0.3,0,0.5,0L128.1,218.6L128.1,218.6z
			 M135.7,221l-3.6-1.2l-1,3l3.6,1.2L135.7,221z M142.8,223.5l-3.6-1.2l-1,3l3.6,1.2L142.8,223.5z M149.9,226l-3.6-1.2l-1,3l3.6,1.2
			L149.9,226z M157,228.5l-3.6-1.2l-1,3l3.6,1.2L157,228.5z M164.1,231l-3.6-1.2l-1,3l3.6,1.2L164.1,231z M171.2,233.4l-3.6-1.2
			l-1,3l3.6,1.2L171.2,233.4z M178.3,235.9l-3.6-1.2l-1,3l3.6,1.2L178.3,235.9z M181.9,242.6l1.7-4.8l-1.8-0.6l-1,3l0.3,0.1l0.5-1.5
			l-1.5-0.5l-1.1,3.3L181.9,242.6L181.9,242.6z M179.4,249.7l1.2-3.6l-3-1l-1.2,3.6L179.4,249.7z M176.9,256.8l1.2-3.6l-3-1
			l-1.2,3.6L176.9,256.8z M174.4,263.9l1.2-3.6l-3-1l-1.2,3.6L174.4,263.9z M172,271l1.2-3.6l-3-1l-1.2,3.6L172,271z M169.5,278.1
			l1.2-3.6l-3-1l-1.2,3.6L169.5,278.1z M169.4,284.1c-0.4-0.8-0.7-1.8-0.7-2.8l0-0.1l-3.1-0.1c0,0.1,0,0.1,0,0.2
			c0,1.5,0.4,2.9,1,4.2L169.4,284.1z M174.4,287.6l-1.7-0.6c-0.5-0.2-0.9-0.4-1.4-0.7l-1.8,2.6c0.6,0.4,1.3,0.8,2.1,1l1.7,0.6
			L174.4,287.6L174.4,287.6z M176.5,292.9l2.3-0.7l0,0l-0.1-0.4l0.1,0.4l0,0l-0.1-0.4l0.1,0.4c0,0,0.1,0,0.2,0l4.9-1.3l-5.9-2.1
			l-1,3l1.1,0.4l0.5-1.5l-0.4-1.5l0,0.1l0-0.1l0,0l0,0.1l0-0.1c0,0-0.1,0-0.3,0.1l0,0l-2.3,0.7L176.5,292.9L176.5,292.9z
			 M169.3,295.1l3.6-1.1l-0.9-3l-3.6,1.1L169.3,295.1z M162.1,297.3l3.6-1.1l-0.9-3l-3.6,1.1L162.1,297.3z M154.9,299.5l3.6-1.1
			l-0.9-3l-3.6,1.1L154.9,299.5z M147.7,301.6l3.6-1.1l-0.9-3l-3.6,1.1L147.7,301.6z M140.5,303.8l3.6-1.1l-0.9-3l-3.6,1.1
			L140.5,303.8z M133.3,306l3.6-1.1l-0.9-3l-3.6,1.1L133.3,306z M126.1,308.2l3.6-1.1l-0.9-3l-3.6,1.1L126.1,308.2z M118.9,310.4
			l3.6-1.1l-0.9-3l-3.6,1.1L118.9,310.4z M111.7,312.5l3.6-1.1l-0.9-3l-3.6,1.1L111.7,312.5z M104.4,314.7l3.6-1.1l-0.9-3l-3.6,1.1
			L104.4,314.7z"/>
	</g>
	<g>
		<path class="st14" d="M131.4,216.2l3.6,1.2l1-3l-3.6-1.2L131.4,216.2z M125.6,210.1c0.4,1.5,1.2,2.8,2.3,3.9l2.2-2.2
			c-0.7-0.7-1.2-1.6-1.5-2.5L125.6,210.1L125.6,210.1z M126.7,201.9l-0.9,2.7c-0.1,0.4-0.2,0.7-0.3,1.1l3.1,0.7
			c0.1-0.2,0.1-0.5,0.2-0.7l0.9-2.7L126.7,201.9L126.7,201.9z M129.2,194.8l-1.2,3.6l3,1l1.2-3.6L129.2,194.8z M131.7,187.7
			l-1.2,3.6l3,1l1.2-3.6L131.7,187.7z M134.2,180.6l-1.2,3.6l3,1l1.2-3.6L134.2,180.6z M136.7,173.5l-1.2,3.6l3,1l1.2-3.6
			L136.7,173.5z M139.2,166.4l-1.2,3.6l3,1l1.2-3.6L139.2,166.4z M141.7,159.3l-1.2,3.6l3,1l1.2-3.6L141.7,159.3z M144.1,152.2
			l-1.2,3.6l3,1l1.2-3.6L144.1,152.2z M146.6,145.1l-1.2,3.6l3,1l1.2-3.6L146.6,145.1z M149.1,138l-1.2,3.6l3,1l1.2-3.6L149.1,138z
			 M151.6,130.9l-1.2,3.6l3,1l1.2-3.6L151.6,130.9z M154.2,123.6c-0.2,0.3-0.3,0.7-0.5,1.1l-0.9,2.6l3,1l0.9-2.6
			c0.1-0.2,0.2-0.5,0.3-0.7L154.2,123.6L154.2,123.6z M161.4,118.6c-1.5,0.2-3,0.7-4.2,1.6l1.8,2.6c0.8-0.6,1.8-0.9,2.8-1
			L161.4,118.6z M169.3,120.5l-3.6-1.2l-1,3l3.6,1.2L169.3,120.5z M176.4,123l-3.6-1.2l-1,3l3.6,1.2L176.4,123z M183.5,125.5
			l-3.6-1.2l-1,3l3.6,1.2L183.5,125.5z M190.6,128l-3.6-1.2l-1,3l3.6,1.2L190.6,128z M197.7,130.4l-3.6-1.2l-1,3l3.6,1.2
			L197.7,130.4z M204.8,132.9l-3.6-1.2l-1,3l3.6,1.2L204.8,132.9z M211.9,135.4l-3.6-1.2l-1,3l3.6,1.2L211.9,135.4z M219.1,137.9
			l-3.6-1.2l-1,3l3.6,1.2L219.1,137.9z M226.2,140.4l-3.6-1.2l-1,3l3.6,1.2L226.2,140.4z M232.1,146.7c-0.4-1.5-1.1-2.8-2.2-3.9
			l-2.3,2.2c0.7,0.7,1.2,1.6,1.4,2.6L232.1,146.7L232.1,146.7z M230.9,154.9l1-2.9c0.1-0.3,0.2-0.6,0.2-0.8l-3-0.7
			c0,0.2-0.1,0.4-0.2,0.6l-1,2.9L230.9,154.9L230.9,154.9z M228.4,162l1.2-3.6l-3-1l-1.2,3.6L228.4,162z M225.9,169.1l1.2-3.6l-3-1
			l-1.2,3.6L225.9,169.1z M223.4,176.2l1.2-3.6l-3-1l-1.2,3.6L223.4,176.2z M221,183.3l1.2-3.6l-3-1l-1.2,3.6L221,183.3z
			 M218.5,190.4l1.2-3.6l-3-1l-1.2,3.6L218.5,190.4z M210.3,190.8l3.6,1.2l1-3l-3.6-1.2L210.3,190.8z M203.8,189.4
			c0.3-0.1,0.7-0.1,1-0.1c0.6,0,1.3,0.1,1.9,0.3l1-3c-1-0.3-2-0.5-2.9-0.5c-0.5,0-1.1,0-1.6,0.1L203.8,189.4L203.8,189.4z
			 M199.3,192.9c0.4-0.9,1-1.7,1.8-2.3l-1.9-2.5c-1.2,0.9-2.1,2.1-2.7,3.6L199.3,192.9z M196.9,199.9l1.2-3.6l-3-1l-1.2,3.6
			L196.9,199.9z M194.4,207l1.2-3.6l-3-1l-1.2,3.6L194.4,207z M191.9,214.1l1.2-3.6l-3-1l-1.2,3.6L191.9,214.1z M189.4,221.2
			l1.2-3.6l-3-1l-1.2,3.6L189.4,221.2z M186.9,228.3l1.2-3.6l-3-1l-1.2,3.6L186.9,228.3z M181.1,233.6l3.6,1.2l1-3l-3-1h0l-0.6-0.2
			L181.1,233.6L181.1,233.6z M174,231.1l3.6,1.2l1-3l-3.6-1.2L174,231.1z M166.9,228.6l3.6,1.2l1-3l-3.6-1.2L166.9,228.6z
			 M159.8,226.1l3.6,1.2l1-3l-3.6-1.2L159.8,226.1z M152.7,223.6l3.6,1.2l1-3l-3.6-1.2L152.7,223.6z M145.6,221.1l3.6,1.2l1-3
			l-3.6-1.2L145.6,221.1z M138.5,218.7l3.6,1.2l1-3l-3.6-1.2L138.5,218.7z"/>
		<path class="st14" d="M216.2,365l-1.1-3.6l-3,0.9l1.1,3.6L216.2,365z M220,369c-0.9-0.3-1.8-0.9-2.5-1.6l-2.3,2.1
			c1,1.1,2.3,2,3.8,2.5L220,369L220,369z M226.3,368.2l-2.7,0.8c-0.2,0.1-0.5,0.1-0.7,0.2l0.5,3.1c0.4-0.1,0.7-0.1,1.1-0.3l2.7-0.8
			L226.3,368.2L226.3,368.2z M233.5,366l-3.6,1.1l0.9,3l3.6-1.1L233.5,366z M240.7,363.8l-3.6,1.1l0.9,3l3.6-1.1L240.7,363.8z
			 M247.9,361.7l-3.6,1.1l0.9,3l3.6-1.1L247.9,361.7z M255.1,359.5l-3.6,1.1l0.9,3l3.6-1.1L255.1,359.5z M262.4,357.3l-3.6,1.1
			l0.9,3l3.6-1.1L262.4,357.3z M269.6,355.1l-3.6,1.1l0.9,3l3.6-1.1L269.6,355.1z M276.8,353l-3.6,1.1l0.9,3l3.6-1.1L276.8,353z
			 M284,350.8l-3.6,1.1l0.9,3l3.6-1.1L284,350.8z M291.2,348.6l-3.6,1.1l0.9,3l3.6-1.1L291.2,348.6z M298.4,346.4l-3.6,1.1l0.9,3
			l3.6-1.1L298.4,346.4z M305.4,344.3c-0.2,0.1-0.5,0.2-0.7,0.3l-2.7,0.8l0.9,3l2.7-0.8c0.4-0.1,0.7-0.2,1.1-0.4L305.4,344.3z
			 M308.8,339.7c-0.2,1-0.6,1.9-1.2,2.7l2.5,1.9c0.9-1.2,1.5-2.6,1.8-4.1L308.8,339.7z M307.4,333.1l1.1,3.6l3-0.9l-1.1-3.6
			L307.4,333.1z M305.2,325.9l1.1,3.6l3-0.9l-1.1-3.6L305.2,325.9z M303.1,318.7l1.1,3.6l3-0.9l-1.1-3.6L303.1,318.7z M300.9,311.5
			l1.1,3.6l3-0.9l-1.1-3.6L300.9,311.5z M298.7,304.3l1.1,3.6l3-0.9l-1.1-3.6L298.7,304.3z M296.5,297.1l1.1,3.6l3-0.9l-1.1-3.6
			L296.5,297.1z M294.4,289.9l1.1,3.6l3-0.9l-1.1-3.6L294.4,289.9z M292.2,282.7l1.1,3.6l3-0.9l-1.1-3.6L292.2,282.7z M290,275.4
			l1.1,3.6l3-0.9l-1.1-3.6L290,275.4z M286,271.3c0.9,0.3,1.8,0.8,2.5,1.6l2.3-2.2c-1.1-1.1-2.4-1.9-3.8-2.4L286,271.3L286,271.3z
			 M279.6,272.2l2.9-0.9c0.2-0.1,0.4-0.1,0.6-0.1l-0.6-3.1c-0.3,0.1-0.6,0.1-0.9,0.2l-2.9,0.9L279.6,272.2L279.6,272.2z
			 M272.4,274.3l3.6-1.1l-0.9-3l-3.6,1.1L272.4,274.3z M265.2,276.5l3.6-1.1l-0.9-3l-3.6,1.1L265.2,276.5z M258,278.7l3.6-1.1
			l-0.9-3l-3.6,1.1L258,278.7z M250.8,280.9l3.6-1.1l-0.9-3l-3.6,1.1L250.8,280.9z M243.6,283l3.6-1.1l-0.9-3l-3.6,1.1L243.6,283z
			 M236.4,285.2l3.6-1.1l-0.9-3l-3.6,1.1L236.4,285.2z M229.2,287.4l3.6-1.1l-0.9-3l-3.6,1.1L229.2,287.4z M222,289.6l3.6-1.1
			l-0.9-3l-3.6,1.1L222,289.6z M214.8,291.8l3.6-1.1l-0.9-3l-3.6,1.1L214.8,291.8z M207.6,293.9l3.6-1.1l-0.9-3l-3.6,1.1
			L207.6,293.9z M200.6,296.1c0.3-0.1,0.6-0.2,0.9-0.3l2.5-0.8l-0.9-3l-2.5,0.8c-0.5,0.1-0.9,0.3-1.3,0.5L200.6,296.1L200.6,296.1z
			 M197.3,300.8c0.1-1,0.5-1.9,1.1-2.8l-2.5-1.8c-0.9,1.2-1.5,2.7-1.6,4.2L197.3,300.8z M198.8,307.4l-1.1-3.6l-3,0.9l1.1,3.6
			L198.8,307.4z M200.9,314.6l-1.1-3.6l-3,0.9l1.1,3.6L200.9,314.6z M203.1,321.8l-1.1-3.6l-3,0.9l1.1,3.6L203.1,321.8z M205.3,329
			l-1.1-3.6l-3,0.9l1.1,3.6L205.3,329z M207.5,336.2l-1.1-3.6l-3,0.9l1.1,3.6L207.5,336.2z M209.7,343.4l-1.1-3.6l-3,0.9l1.1,3.6
			L209.7,343.4z M211.8,350.6l-1.1-3.6l-3,0.9l1.1,3.6L211.8,350.6z M214,357.8l-1.1-3.6l-3,0.9l1.1,3.6L214,357.8z"/>
		<path class="st14" d="M115.3,395.5l-1.1-3.6l-3,0.9l1.1,3.6L115.3,395.5z M119.1,399.5c-0.9-0.3-1.8-0.9-2.5-1.6l-2.3,2.1
			c1,1.1,2.3,2,3.8,2.5L119.1,399.5L119.1,399.5z M125.5,398.7l-2.7,0.8c-0.2,0.1-0.5,0.1-0.7,0.2l0.5,3.1c0.4-0.1,0.7-0.1,1.1-0.3
			l2.7-0.8L125.5,398.7L125.5,398.7z M132.7,396.5l-3.6,1.1l0.9,3l3.6-1.1L132.7,396.5z M139.9,394.3l-3.6,1.1l0.9,3l3.6-1.1
			L139.9,394.3z M147.1,392.2l-3.6,1.1l0.9,3l3.6-1.1L147.1,392.2z M154.3,390l-3.6,1.1l0.9,3l3.6-1.1L154.3,390z M161.5,387.8
			l-3.6,1.1l0.9,3l3.6-1.1L161.5,387.8z M168.7,385.6l-3.6,1.1l0.9,3l3.6-1.1L168.7,385.6z M175.9,383.5l-3.6,1.1l0.9,3l3.6-1.1
			L175.9,383.5z M183.1,381.3l-3.6,1.1l0.9,3l3.6-1.1L183.1,381.3z M190.3,379.1l-3.6,1.1l0.9,3l3.6-1.1L190.3,379.1z M197.5,376.9
			l-3.6,1.1l0.9,3l3.6-1.1L197.5,376.9z M204.5,374.8c-0.2,0.1-0.5,0.2-0.7,0.3l-2.7,0.8l0.9,3l2.7-0.8c0.4-0.1,0.7-0.2,1.1-0.4
			L204.5,374.8L204.5,374.8z M208,370.2c-0.2,1-0.6,1.9-1.2,2.7l2.5,1.9c0.9-1.2,1.5-2.6,1.8-4.1L208,370.2L208,370.2z M206.6,363.6
			l1.1,3.6l3-0.9l-1.1-3.6L206.6,363.6z M204.4,356.4l1.1,3.6l3-0.9l-1.1-3.6L204.4,356.4z M202.2,349.2l1.1,3.6l3-0.9l-1.1-3.6
			L202.2,349.2z M200,342l1.1,3.6l3-0.9l-1.1-3.6L200,342z M197.9,334.8l1.1,3.6l3-0.9l-1.1-3.6L197.9,334.8z M195.7,327.6l1.1,3.6
			l3-0.9l-1.1-3.6L195.7,327.6z M193.5,320.4l1.1,3.6l3-0.9l-1.1-3.6L193.5,320.4z M191.3,313.1l1.1,3.6l3-0.9l-1.1-3.6L191.3,313.1
			z M189.1,305.9l1.1,3.6l3-0.9l-1.1-3.6L189.1,305.9z M185.2,301.8c0.9,0.3,1.8,0.8,2.5,1.6l2.3-2.2c-1.1-1.1-2.4-1.9-3.8-2.4
			L185.2,301.8L185.2,301.8z M178.7,302.7l2.9-0.9c0.2-0.1,0.4-0.1,0.6-0.1l-0.6-3.1c-0.3,0.1-0.6,0.1-0.9,0.2l-2.9,0.9L178.7,302.7
			L178.7,302.7z M171.5,304.8l3.6-1.1l-0.9-3l-3.6,1.1L171.5,304.8z M164.3,307l3.6-1.1l-0.9-3l-3.6,1.1L164.3,307z M157.1,309.2
			l3.6-1.1l-0.9-3l-3.6,1.1L157.1,309.2z M149.9,311.4l3.6-1.1l-0.9-3l-3.6,1.1L149.9,311.4z M142.7,313.5l3.6-1.1l-0.9-3l-3.6,1.1
			L142.7,313.5z M135.5,315.7l3.6-1.1l-0.9-3l-3.6,1.1L135.5,315.7z M128.3,317.9l3.6-1.1l-0.9-3l-3.6,1.1L128.3,317.9z
			 M121.1,320.1l3.6-1.1l-0.9-3l-3.6,1.1L121.1,320.1z M113.9,322.3l3.6-1.1l-0.9-3l-3.6,1.1L113.9,322.3z M106.7,324.4l3.6-1.1
			l-0.9-3l-3.6,1.1L106.7,324.4z M99.8,326.6c0.3-0.1,0.6-0.2,0.9-0.3l2.5-0.8l-0.9-3l-2.5,0.8c-0.5,0.1-0.9,0.3-1.3,0.5L99.8,326.6
			L99.8,326.6z M96.4,331.3c0.1-1,0.5-1.9,1.1-2.8l-2.5-1.8c-0.9,1.2-1.5,2.7-1.6,4.2L96.4,331.3z M97.9,337.9l-1.1-3.6l-3,0.9
			l1.1,3.6L97.9,337.9z M100.1,345.1l-1.1-3.6l-3,0.9l1.1,3.6L100.1,345.1z M102.3,352.3l-1.1-3.6l-3,0.9l1.1,3.6L102.3,352.3z
			 M104.4,359.5l-1.1-3.6l-3,0.9l1.1,3.6L104.4,359.5z M106.6,366.7l-1.1-3.6l-3,0.9l1.1,3.6L106.6,366.7z M108.8,373.9l-1.1-3.6
			l-3,0.9l1.1,3.6L108.8,373.9z M111,381.1l-1.1-3.6l-3,0.9l1.1,3.6L111,381.1z M113.2,388.3l-1.1-3.6l-3,0.9l1.1,3.6L113.2,388.3z"
			/>
		<path class="st14" d="M296.8,206.5l2.9-2.4l-2-2.4l-2.9,2.4L296.8,206.5z M294.5,211.4c0-0.1,0-0.2,0-0.3c0-0.9,0.2-1.8,0.6-2.6
			l-2.8-1.4c-0.6,1.2-0.9,2.6-0.9,4c0,0.2,0,0.3,0,0.5L294.5,211.4L294.5,211.4z M297.6,217.1l-1.8-2.2c-0.2-0.2-0.3-0.4-0.4-0.6
			l-2.7,1.6c0.2,0.3,0.4,0.6,0.6,0.9l1.8,2.2L297.6,217.1L297.6,217.1z M302.3,222.9L300,220l-2.4,2l2.4,2.9L302.3,222.9z
			 M307,228.8l-2.4-2.9l-2.4,2l2.4,2.9L307,228.8z M311.7,234.7l-2.4-2.9l-2.4,2l2.4,2.9L311.7,234.7z M316.4,240.6l-2.4-2.9l-2.4,2
			l2.4,2.9L316.4,240.6z M321.1,246.5l-2.4-2.9l-2.4,2l2.4,2.9L321.1,246.5z M325.8,252.3l-2.4-2.9l-2.4,2l2.4,2.9L325.8,252.3z
			 M330.5,258.2l-2.4-2.9l-2.4,2l2.4,2.9L330.5,258.2z M335.2,264.1l-2.4-2.9l-2.4,2l2.4,2.9L335.2,264.1z M339.9,270l-2.4-2.9
			l-2.4,2l2.4,2.9L339.9,270z M344.6,275.8l-2.4-2.9l-2.4,2l2.4,2.9L344.6,275.8z M349.2,281.5c-0.2-0.2-0.3-0.4-0.5-0.6l-1.8-2.2
			l-2.4,2l1.8,2.2c0.2,0.3,0.5,0.6,0.8,0.9L349.2,281.5z M354.8,283c-0.4,0.1-0.9,0.2-1.4,0.2c-0.5,0-1.1-0.1-1.6-0.2l-0.8,3
			c0.8,0.2,1.6,0.3,2.4,0.3c0.7,0,1.4-0.1,2.1-0.2L354.8,283L354.8,283z M360.4,279.3l-2.9,2.4l2,2.4l2.9-2.4L360.4,279.3z
			 M366.3,274.6l-2.9,2.4l2,2.4l2.9-2.4L366.3,274.6z M372.1,269.9l-2.9,2.4l2,2.4l2.9-2.4L372.1,269.9z M378,265.2l-2.9,2.4l2,2.4
			l2.9-2.4L378,265.2z M383.9,260.5l-2.9,2.4l2,2.4l2.9-2.4L383.9,260.5z M389.8,255.8l-2.9,2.4l2,2.4l2.9-2.4L389.8,255.8z
			 M395.6,251.1l-2.9,2.4l2,2.4l2.9-2.4L395.6,251.1z M401.5,246.4l-2.9,2.4l2,2.4l2.9-2.4L401.5,246.4z M407.4,241.7l-2.9,2.4
			l2,2.4l2.9-2.4L407.4,241.7z M409.8,236.4c0,0.2,0,0.3,0,0.5c0,0.8-0.2,1.7-0.5,2.5l2.9,1.3c0.5-1.2,0.8-2.5,0.8-3.7
			c0-0.2,0-0.5,0-0.7L409.8,236.4L409.8,236.4z M406.6,230.8l1.9,2.4c0.1,0.2,0.2,0.3,0.3,0.5l2.6-1.7c-0.2-0.2-0.3-0.5-0.5-0.7
			l-1.9-2.4L406.6,230.8L406.6,230.8z M401.9,224.9l2.4,2.9l2.4-2l-2.4-2.9L401.9,224.9z M397.2,219l2.4,2.9l2.4-2l-2.4-2.9
			L397.2,219z M392.5,213.2l2.4,2.9l2.4-2l-2.4-2.9L392.5,213.2z M387.8,207.3l2.4,2.9l2.4-2l-2.4-2.9L387.8,207.3z M383.1,201.4
			l2.4,2.9l2.4-2l-2.4-2.9L383.1,201.4z M378.4,195.5l2.4,2.9l2.4-2l-2.4-2.9L378.4,195.5z M373.7,189.7l2.4,2.9l2.4-2l-2.4-2.9
			L373.7,189.7z M369,183.8l2.4,2.9l2.4-2l-2.4-2.9L369,183.8z M364.3,177.9l2.4,2.9l2.4-2l-2.4-2.9L364.3,177.9z M359.6,172
			l2.4,2.9l2.4-2l-2.4-2.9L359.6,172z M355,166.4c0.2,0.2,0.4,0.4,0.6,0.7l1.6,2l2.4-2l-1.6-2c-0.3-0.4-0.6-0.7-1-1L355,166.4
			L355,166.4z M349.4,165c0.5-0.1,1-0.2,1.5-0.2c0.5,0,1,0.1,1.4,0.2l0.7-3c-0.7-0.2-1.5-0.3-2.2-0.3c-0.8,0-1.5,0.1-2.3,0.3
			L349.4,165L349.4,165z M343.8,168.9l2.9-2.4l-2-2.4l-2.9,2.4L343.8,168.9z M337.9,173.6l2.9-2.4l-2-2.4l-2.9,2.4L337.9,173.6z
			 M332,178.3l2.9-2.4l-2-2.4l-2.9,2.4L332,178.3z M326.1,183l2.9-2.4l-2-2.4l-2.9,2.4L326.1,183z M320.3,187.7l2.9-2.4l-2-2.4
			l-2.9,2.4L320.3,187.7z M314.4,192.4l2.9-2.4l-2-2.4l-2.9,2.4L314.4,192.4z M308.5,197.1l2.9-2.4l-2-2.4l-2.9,2.4L308.5,197.1z
			 M302.6,201.8l2.9-2.4l-2-2.4l-2.9,2.4L302.6,201.8z"/>
		<path class="st14" d="M230.9,124.2l2.9-2.4l-2-2.4l-2.9,2.4L230.9,124.2z M228.7,129.2c0-0.1,0-0.2,0-0.3c0-0.9,0.2-1.8,0.6-2.6
			l-2.8-1.4c-0.6,1.2-0.9,2.6-0.9,4c0,0.2,0,0.3,0,0.5L228.7,129.2z M231.8,134.8l-1.8-2.2c-0.2-0.2-0.3-0.4-0.4-0.6l-2.7,1.6
			c0.2,0.3,0.4,0.6,0.6,0.9l1.8,2.2L231.8,134.8L231.8,134.8z M236.5,140.7l-2.4-2.9l-2.4,2l2.4,2.9L236.5,140.7z M241.2,146.6
			l-2.4-2.9l-2.4,2l2.4,2.9L241.2,146.6z M245.9,152.4l-2.4-2.9l-2.4,2l2.4,2.9L245.9,152.4z M250.6,158.3l-2.4-2.9l-2.4,2l2.4,2.9
			L250.6,158.3z M255.3,164.2l-2.4-2.9l-2.4,2l2.4,2.9L255.3,164.2z M260,170.1l-2.4-2.9l-2.4,2l2.4,2.9L260,170.1z M264.7,175.9
			l-2.4-2.9l-2.4,2l2.4,2.9L264.7,175.9z M269.4,181.8l-2.4-2.9l-2.4,2l2.4,2.9L269.4,181.8z M274.1,187.7l-2.4-2.9l-2.4,2l2.4,2.9
			L274.1,187.7z M278.8,193.6l-2.4-2.9l-2.4,2l2.4,2.9L278.8,193.6z M283.4,199.3c-0.2-0.2-0.3-0.4-0.5-0.6l-1.8-2.2l-2.4,2l1.8,2.2
			c0.2,0.3,0.5,0.6,0.8,0.9L283.4,199.3L283.4,199.3z M288.9,200.8c-0.4,0.1-0.9,0.2-1.4,0.2c-0.5,0-1.1-0.1-1.6-0.2l-0.8,3
			c0.8,0.2,1.6,0.3,2.4,0.3c0.7,0,1.4-0.1,2.1-0.2L288.9,200.8L288.9,200.8z M294.5,197l-2.9,2.4l2,2.4l2.9-2.4L294.5,197z
			 M300.4,192.3l-2.9,2.4l2,2.4l2.9-2.4L300.4,192.3z M306.3,187.6l-2.9,2.4l2,2.4l2.9-2.4L306.3,187.6z M312.2,182.9l-2.9,2.4
			l2,2.4l2.9-2.4L312.2,182.9z M318.1,178.2l-2.9,2.4l2,2.4l2.9-2.4L318.1,178.2z M323.9,173.5l-2.9,2.4l2,2.4l2.9-2.4L323.9,173.5z
			 M329.8,168.8l-2.9,2.4l2,2.4l2.9-2.4L329.8,168.8z M335.7,164.1l-2.9,2.4l2,2.4l2.9-2.4L335.7,164.1z M341.6,159.4l-2.9,2.4
			l2,2.4l2.9-2.4L341.6,159.4z M343.9,154.1c0,0.2,0,0.3,0,0.5c0,0.8-0.2,1.7-0.5,2.5l2.9,1.3c0.5-1.2,0.8-2.5,0.8-3.7
			c0-0.2,0-0.5,0-0.7L343.9,154.1L343.9,154.1z M340.7,148.5l1.9,2.4c0.1,0.2,0.2,0.3,0.3,0.5l2.6-1.7c-0.2-0.2-0.3-0.5-0.5-0.7
			l-1.9-2.4L340.7,148.5L340.7,148.5z M336,142.6l2.4,2.9l2.4-2l-2.4-2.9L336,142.6z M331.3,136.8l2.4,2.9l2.4-2l-2.4-2.9
			L331.3,136.8z M326.6,130.9l2.4,2.9l2.4-2l-2.4-2.9L326.6,130.9z M321.9,125l2.4,2.9l2.4-2l-2.4-2.9L321.9,125z M317.2,119.1
			l2.4,2.9l2.4-2l-2.4-2.9L317.2,119.1z M312.5,113.3l2.4,2.9l2.4-2l-2.4-2.9L312.5,113.3z M307.8,107.4l2.4,2.9l2.4-2l-2.4-2.9
			L307.8,107.4z M303.1,101.5l2.4,2.9l2.4-2l-2.4-2.9L303.1,101.5z M298.4,95.6l2.4,2.9l2.4-2l-2.4-2.9L298.4,95.6z M293.7,89.8
			l2.4,2.9l2.4-2l-2.4-2.9L293.7,89.8z M289.1,84.1c0.2,0.2,0.4,0.4,0.6,0.7l1.6,2l2.4-2l-1.6-2c-0.3-0.4-0.6-0.7-1-1L289.1,84.1
			L289.1,84.1z M283.6,82.7c0.5-0.1,1-0.2,1.5-0.2c0.5,0,1,0.1,1.4,0.2l0.7-3c-0.7-0.2-1.5-0.3-2.2-0.3c-0.8,0-1.5,0.1-2.3,0.3
			L283.6,82.7L283.6,82.7z M277.9,86.6l2.9-2.4l-2-2.4l-2.9,2.4L277.9,86.6z M272.1,91.3l2.9-2.4l-2-2.4l-2.9,2.4L272.1,91.3z
			 M266.2,96l2.9-2.4l-2-2.4l-2.9,2.4L266.2,96z M260.3,100.7l2.9-2.4l-2-2.4l-2.9,2.4L260.3,100.7z M254.4,105.4l2.9-2.4l-2-2.4
			l-2.9,2.4L254.4,105.4z M248.6,110.1l2.9-2.4l-2-2.4l-2.9,2.4L248.6,110.1z M242.7,114.8l2.9-2.4l-2-2.4l-2.9,2.4L242.7,114.8z
			 M236.8,119.5l2.9-2.4l-2-2.4l-2.9,2.4L236.8,119.5z"/>
		<path class="st14" d="M195.5,284.7l1.3,0.4l0.6-0.3c0.3-0.1,0.5-0.2,0.7-0.3l3.6-1.1l-0.9-3l-3.6,1.1c-0.4,0.1-0.7,0.3-1.1,0.4
			l0.6,1.4l0.5-1.5l-0.7-0.2L195.5,284.7L195.5,284.7z M188.4,282.2l3.6,1.2l1-3l-3.6-1.2L188.4,282.2z M181.1,279.1
			c0.7,0.6,1.6,1,2.5,1.4l1.3,0.5l1-3l-1.3-0.5c-0.6-0.2-1.2-0.5-1.6-0.9L181.1,279.1L181.1,279.1z M177.5,271.2c0,0.2,0,0.5,0,0.7
			c0,1.3,0.3,2.6,0.8,3.7l2.9-1.3c-0.3-0.8-0.5-1.6-0.5-2.4c0-0.2,0-0.3,0-0.5L177.5,271.2L177.5,271.2z M179.8,263.6l-1.2,3.6l3,1
			l1.2-3.6L179.8,263.6z M182.3,256.5l-1.2,3.6l3,1l1.2-3.6L182.3,256.5z M184.8,249.4l-1.2,3.6l3,1l1.2-3.6L184.8,249.4z
			 M187.3,242.3l-1.2,3.6l3,1l1.2-3.6L187.3,242.3z M189.8,235.2l-1.2,3.6l3,1l1.2-3.6L189.8,235.2z M192.3,228.1l-1.2,3.6l3,1
			l1.2-3.6L192.3,228.1z M194.8,221l-1.2,3.6l3,1l1.2-3.6L194.8,221z M197.3,213.9l-1.2,3.6l3,1l1.2-3.6L197.3,213.9z M200,206.6
			c-0.2,0.4-0.4,0.9-0.6,1.3l-0.8,2.4l3,1l0.8-2.4c0.1-0.3,0.2-0.6,0.4-0.9L200,206.6z M207.3,201.9c-1.5,0.1-3,0.6-4.3,1.4l1.7,2.6
			c0.8-0.5,1.8-0.9,2.8-0.9L207.3,201.9L207.3,201.9z M215.1,203.8l-3.6-1.2l-1,3l3.6,1.2L215.1,203.8z M222.3,206.3l-3.6-1.2l-1,3
			l3.6,1.2L222.3,206.3z M229.4,208.8l-3.6-1.2l-1,3l3.6,1.2L229.4,208.8z M236.5,211.3l-3.6-1.2l-1,3l3.6,1.2L236.5,211.3z
			 M243.6,213.8l-3.6-1.2l-1,3l3.6,1.2L243.6,213.8z M250.7,216.3l-3.6-1.2l-1,3l3.6,1.2L250.7,216.3z M257.8,218.8l-3.6-1.2l-1,3
			l3.6,1.2L257.8,218.8z M264.9,221.3l-3.6-1.2l-1,3l3.6,1.2L264.9,221.3z M272,223.8l-3.6-1.2l-1,3l3.6,1.2L272,223.8z
			 M279.1,226.2l-3.6-1.2l-1,3l3.6,1.2L279.1,226.2z M286.2,228.7l-3.6-1.2l-1,3l3.6,1.2L286.2,228.7z M293.6,231.9
			c-0.8-0.6-1.7-1.1-2.7-1.5l-1.1-0.4l-1,3l1.1,0.4c0.7,0.2,1.2,0.6,1.8,1L293.6,231.9z M296.9,239.9c0-0.3,0.1-0.6,0.1-1
			c0-1.2-0.2-2.4-0.7-3.5l-2.9,1.2c0.3,0.7,0.5,1.5,0.5,2.3c0,0.2,0,0.4,0,0.6L296.9,239.9L296.9,239.9z M294.5,247.4l1.2-3.6l-3-1
			l-1.2,3.6L294.5,247.4z M292,254.5l1.2-3.6l-3-1l-1.2,3.6L292,254.5z M284.5,258.5l3.6-1.1l-0.9-3l-3.6,1.1L284.5,258.5z
			 M277.3,260.6l3.6-1.1l-0.9-3l-3.6,1.1L277.3,260.6z M270.1,262.8l3.6-1.1l-0.9-3l-3.6,1.1L270.1,262.8z M262.9,265l3.6-1.1
			l-0.9-3L262,262L262.9,265z M255.7,267.2l3.6-1.1l-0.9-3l-3.6,1.1L255.7,267.2z M248.5,269.4l3.6-1.1l-0.9-3l-3.6,1.1L248.5,269.4
			z M241.3,271.5l3.6-1.1l-0.9-3l-3.6,1.1L241.3,271.5z M234.1,273.7l3.6-1.1l-0.9-3l-3.6,1.1L234.1,273.7z M226.9,275.9l3.6-1.1
			l-0.9-3l-3.6,1.1L226.9,275.9z M219.7,278.1l3.6-1.1l-0.9-3l-3.6,1.1L219.7,278.1z M212.5,280.3l3.6-1.1l-0.9-3l-3.6,1.1
			L212.5,280.3z M205.3,282.4l3.6-1.1l-0.9-3l-3.6,1.1L205.3,282.4z"/>
		<path class="st14" d="M359.4,298.6l-2.3,1.8c-0.8,0.6-1.7,1-2.7,1.2l0.5,3.1c1.5-0.3,2.9-0.9,4.1-1.9l2.3-1.8L359.4,298.6
			L359.4,298.6z M365.3,293.9l-2.9,2.4l2,2.4l2.9-2.4L365.3,293.9z M371.1,289.2l-2.9,2.4l2,2.4l2.9-2.4L371.1,289.2z M377,284.5
			l-2.9,2.4l2,2.4l2.9-2.4L377,284.5z M382.9,279.8l-2.9,2.4l2,2.4l2.9-2.4L382.9,279.8z M388.8,275.1l-2.9,2.4l2,2.4l2.9-2.4
			L388.8,275.1z M396.4,273.5c0-0.5-0.1-1-0.2-1.5l-0.5-2.5l-4,3.2l2,2.4l2-1.6l-1-1.2l-1.5,0.3c0.1,0.3,0.1,0.7,0.1,1L396.4,273.5z
			 M394.3,281.3l1.2-3.6l-3-1l-1.2,3.6L394.3,281.3z M391.8,288.4l1.2-3.6l-3-1l-1.2,3.6L391.8,288.4z M389.3,295.5l1.2-3.6l-3-1
			l-1.2,3.6L389.3,295.5z M386.8,302.6l1.2-3.6l-3-1l-1.2,3.6L386.8,302.6z M384.3,309.7l1.2-3.6l-3-1l-1.2,3.6L384.3,309.7z
			 M381.8,316.8l1.2-3.6l-3-1l-1.2,3.6L381.8,316.8z M379.4,323.9l1.2-3.6l-3-1l-1.2,3.6L379.4,323.9z M376.9,331l1.2-3.6l-3-1
			l-1.2,3.6L376.9,331z M374.3,338.2c0.1-0.1,0.1-0.3,0.2-0.4l1.1-3.2l-3-1l-1.1,3.2c0,0.1-0.1,0.2-0.1,0.3L374.3,338.2z
			 M367.6,343.7c1.5-0.3,2.9-0.9,4.1-1.9l-2-2.4c-0.8,0.6-1.7,1.1-2.7,1.2L367.6,343.7z M359.5,342.2l3.4,1.2c0.1,0,0.1,0,0.2,0.1
			l1-3l-0.1,0l-3.4-1.2L359.5,342.2L359.5,342.2z M352.4,339.7l3.6,1.2l1-3l-3.6-1.2L352.4,339.7z M345.3,337.2l3.6,1.2l1-3
			l-3.6-1.2L345.3,337.2z M338.2,334.7l3.6,1.2l1-3l-3.6-1.2L338.2,334.7z M331.1,332.2l3.6,1.2l1-3l-3.6-1.2L331.1,332.2z
			 M324,329.7l3.6,1.2l1-3l-3.6-1.2L324,329.7z M319.6,322.7l1.1,3.6l3-0.9l-1.1-3.6L319.6,322.7z M317.4,315.5l1.1,3.6l3-0.9
			l-1.1-3.6L317.4,315.5z M315.2,308.3l1.1,3.6l3-0.9l-1.1-3.6L315.2,308.3z M313,301.1l1.1,3.6l3-0.9l-1.1-3.6L313,301.1z
			 M310.8,293.9l1.1,3.6l3-0.9l-1.1-3.6L310.8,293.9z M308.7,286.7l1.1,3.6l3-0.9l-1.1-3.6L308.7,286.7z M306.5,279.5l1.1,3.6l3-0.9
			l-1.1-3.6L306.5,279.5z M304.3,272.3l1.1,3.6l3-0.9l-1.1-3.6L304.3,272.3z M302.1,265.1l1.1,3.6l3-0.9l-1.1-3.6L302.1,265.1z
			 M299.9,258.4c0.3,0.4,0.5,0.9,0.7,1.5l0.5,1.6l3-0.9l-0.5-1.6c-0.2-0.8-0.6-1.6-1-2.3L299.9,258.4L299.9,258.4z M295.5,252.2
			l-1.1,3.2l1.7,0.4c0.6,0.1,1.1,0.3,1.6,0.6l1.5-2.8c-0.8-0.4-1.6-0.7-2.4-0.9l-0.3,1.5l1.5,0.5l0.5-1.5L295.5,252.2L295.5,252.2z
			 M298,245.1l-1.2,3.6l3,1l1.2-3.6L298,245.1z M304.4,244l-3.8-4.7l-1.1,2l0,0l2.7,1.5l0,0l-1.4-0.8l-1.2,1l2.3,2.9L304.4,244
			L304.4,244z M309.1,249.9l-2.4-2.9l-2.4,2l2.4,2.9L309.1,249.9z M313.8,255.8l-2.4-2.9l-2.4,2l2.4,2.9L313.8,255.8z M318.5,261.7
			l-2.4-2.9l-2.4,2l2.4,2.9L318.5,261.7z M323.2,267.5l-2.4-2.9l-2.4,2l2.4,2.9L323.2,267.5z M327.9,273.4l-2.4-2.9l-2.4,2l2.4,2.9
			L327.9,273.4z M332.6,279.3l-2.4-2.9l-2.4,2l2.4,2.9L332.6,279.3z M337.3,285.2l-2.4-2.9l-2.4,2l2.4,2.9L337.3,285.2z M342,291
			l-2.4-2.9l-2.4,2l2.4,2.9L342,291z M346.7,296.9l-2.4-2.9l-2.4,2l2.4,2.9L346.7,296.9z M351.5,301.4c-0.9-0.3-1.8-0.8-2.5-1.6
			l-2.3,2.1c1.1,1.2,2.4,2,3.8,2.4L351.5,301.4L351.5,301.4z"/>
		<path class="st14" d="M95.1,315.7c0.4,0.2,0.8,0.4,1.2,0.5l1.5,0.5l3-0.9l-0.9-3l-2.1,0.6l-0.6-0.2c-0.3-0.1-0.5-0.2-0.8-0.3
			L95.1,315.7z M90.2,308.4c0.1,1.5,0.7,3,1.5,4.2l2.6-1.7c-0.6-0.8-0.9-1.8-1-2.8L90.2,308.4L90.2,308.4z M92.1,300.5l-1.2,3.6l3,1
			l1.2-3.6L92.1,300.5z M94.6,293.4l-1.2,3.6l3,1l1.2-3.6L94.6,293.4z M97.1,286.3l-1.2,3.6l3,1l1.2-3.6L97.1,286.3z M99.6,279.2
			l-1.2,3.6l3,1l1.2-3.6L99.6,279.2z M102.1,272.1l-1.2,3.6l3,1l1.2-3.6L102.1,272.1z M104.6,265l-1.2,3.6l3,1l1.2-3.6L104.6,265z
			 M107.1,257.9l-1.2,3.6l3,1l1.2-3.6L107.1,257.9z M109.6,250.8l-1.2,3.6l3,1l1.2-3.6L109.6,250.8z M112.1,243.7l-1.2,3.6l3,1
			l1.2-3.6L112.1,243.7z M114.5,236.6l-1.2,3.6l3,1l1.2-3.6L114.5,236.6z M117,229.5l-1.2,3.6l3,1l1.2-3.6L117,229.5z M120.1,222.1
			c-0.6,0.8-1.1,1.6-1.4,2.6l-0.4,1.3l3,1l0.4-1.3c0.2-0.6,0.5-1.2,0.9-1.7L120.1,222.1L120.1,222.1z M128.1,218.6
			c-0.3,0-0.5,0-0.8,0c-1.3,0-2.5,0.3-3.6,0.8l1.3,2.9c0.7-0.3,1.6-0.5,2.4-0.5c0.2,0,0.3,0,0.5,0L128.1,218.6L128.1,218.6z
			 M135.7,221l-3.6-1.2l-1,3l3.6,1.2L135.7,221z M142.8,223.5l-3.6-1.2l-1,3l3.6,1.2L142.8,223.5z M149.9,226l-3.6-1.2l-1,3l3.6,1.2
			L149.9,226z M157,228.5l-3.6-1.2l-1,3l3.6,1.2L157,228.5z M164.1,231l-3.6-1.2l-1,3l3.6,1.2L164.1,231z M171.2,233.4l-3.6-1.2
			l-1,3l3.6,1.2L171.2,233.4z M178.3,235.9l-3.6-1.2l-1,3l3.6,1.2L178.3,235.9z M181.9,242.6l1.7-4.8l-1.8-0.6l-1,3l0.3,0.1l0.5-1.5
			l-1.5-0.5l-1.1,3.3L181.9,242.6L181.9,242.6z M179.4,249.7l1.2-3.6l-3-1l-1.2,3.6L179.4,249.7z M176.9,256.8l1.2-3.6l-3-1
			l-1.2,3.6L176.9,256.8z M174.4,263.9l1.2-3.6l-3-1l-1.2,3.6L174.4,263.9z M172,271l1.2-3.6l-3-1l-1.2,3.6L172,271z M169.5,278.1
			l1.2-3.6l-3-1l-1.2,3.6L169.5,278.1z M169.4,284.1c-0.4-0.8-0.7-1.8-0.7-2.8l0-0.1l-3.1-0.1c0,0.1,0,0.1,0,0.2
			c0,1.5,0.4,2.9,1,4.2L169.4,284.1z M174.4,287.6l-1.7-0.6c-0.5-0.2-0.9-0.4-1.4-0.7l-1.8,2.6c0.6,0.4,1.3,0.8,2.1,1l1.7,0.6
			L174.4,287.6L174.4,287.6z M176.5,292.9l2.3-0.7l0,0l-0.1-0.4l0.1,0.4l0,0l-0.1-0.4l0.1,0.4c0,0,0.1,0,0.2,0l4.9-1.3l-5.9-2.1
			l-1,3l1.1,0.4l0.5-1.5l-0.4-1.5l0,0.1l0-0.1l0,0l0,0.1l0-0.1c0,0-0.1,0-0.3,0.1l0,0l-2.3,0.7L176.5,292.9L176.5,292.9z
			 M169.3,295.1l3.6-1.1l-0.9-3l-3.6,1.1L169.3,295.1z M162.1,297.3l3.6-1.1l-0.9-3l-3.6,1.1L162.1,297.3z M154.9,299.5l3.6-1.1
			l-0.9-3l-3.6,1.1L154.9,299.5z M147.7,301.6l3.6-1.1l-0.9-3l-3.6,1.1L147.7,301.6z M140.5,303.8l3.6-1.1l-0.9-3l-3.6,1.1
			L140.5,303.8z M133.3,306l3.6-1.1l-0.9-3l-3.6,1.1L133.3,306z M126.1,308.2l3.6-1.1l-0.9-3l-3.6,1.1L126.1,308.2z M118.9,310.4
			l3.6-1.1l-0.9-3l-3.6,1.1L118.9,310.4z M111.7,312.5l3.6-1.1l-0.9-3l-3.6,1.1L111.7,312.5z M104.4,314.7l3.6-1.1l-0.9-3l-3.6,1.1
			L104.4,314.7z"/>
	</g>
</g>
</svg>
