<svg id="Layer_1" data-name="Layer 1" xmlns="http://www.w3.org/2000/svg" viewBox="0 0 500 500"><defs><style>.cls-1{fill:#aecb8d;}.cls-2{fill:#a7c87e;}</style></defs><path class="cls-1" d="M250.2,18.78a231,231,0,0,1,89.88,443.69A231,231,0,0,1,160.32,36.93,229.43,229.43,0,0,1,250.2,18.78m0-10C117.15,8.78,9.29,116.65,9.29,249.7S117.15,490.62,250.2,490.62,491.12,382.75,491.12,249.7,383.26,8.78,250.2,8.78Z"/><path class="cls-2" d="M395.86,381.81c-.91,3.54-1.37,7.25-3.34,10.4-3.45,5.52-7.92,8.54-14.13,8.53-56.86-.06-113.72-.14-170.58.06-10.64,0-18.29-11.15-17.3-22.4a5.77,5.77,0,0,1,6-5.62h56.16c-3.17-1.88-5.89-3.37-8.49-5.06C226,356,212.54,339.61,206.06,317.12c-8.44-29.24-3.51-56.09,13.7-79.87,14.86-20.52,34.56-31.87,57.62-35.94a87.86,87.86,0,0,1,58.32,9.3c19,10.2,33.42,25.7,42,47.47a87.19,87.19,0,0,1,5.95,28.2,89.73,89.73,0,0,1-19,60.66,88.61,88.61,0,0,1-29,24.43,5.41,5.41,0,0,0-1.81,1.4h2c17.21,0,34.43.12,51.64-.08,4.3-.06,7.17,1.31,8.35,6.12Zm-29.39-84.4a71.29,71.29,0,0,0-3.54-22.9,73.71,73.71,0,0,0-18.58-29.93,74.46,74.46,0,0,0-18.81-13.39c-1.08-.56-2.07-1-3.09.31q-8.2,10.44-16.48,20.82c-3.13,3.95-6.28,7.87-9.42,11.81-.35.44-.67.94-1.26.42a1.16,1.16,0,0,1-.2-1.68c.19-.28.36-.59.57-.85,2.51-3.14,5-6.26,7.53-9.4q8.46-10.63,16.89-21.29c1.51-1.92,1.44-2-.67-2.79a72.21,72.21,0,0,0-40-3.64c-19.15,3.75-35.21,13.57-47.18,31a73.66,73.66,0,0,0,12.17,96.73c17.36,15.13,37.21,20.67,58.94,17.63,18.15-2.53,33.79-10.94,46.32-26.08C360.6,331,366.34,315.44,366.47,297.41Z"/><path class="cls-2" d="M217.22,70.5c3.2,1.37,4.24,4.07,4.24,7.76q-.08,67,0,133.94c0,3.21,0,3.22-2.86,3.22q-18.06,0-36.13,0c-2.66,0-2.7,0-2.7-3,0-26.71-.13-53.43,0-80.14.09-13.68,4.43-25.61,13-35.57,6.54-7.61,12.87-15.44,19.26-23.2a11.58,11.58,0,0,1,3.64-3Z"/><path class="cls-2" d="M160.27,330.12q0,33.64,0,67.3c0,3.28,0,3.28-3,3.28H111.39c-2.8,0-2.81,0-2.82-3,0-44.16-.11-88.31.08-132.47.06-11.94,4.95-21.56,14.13-27.79,12.17-8.26,27.28-3,34,11.49a36.62,36.62,0,0,1,3.48,15.85Q160.22,297.42,160.27,330.12Z"/><path class="cls-2" d="M201.07,400.64c-.31,0-.62.06-.94.06-10.76,0-21.54,0-32.31,0-1.66,0-2.23-.63-2.22-2.48q0-34.62,0-69.23c0-1.91.52-2.76,2.31-2.62s3.31,0,5,0c1,0,1.53-.53,1.52-1.69,0-.72,0-1.43,0-2.15V222.49c0-3.69,0-3.69,3.22-3.69h45.89c2.9,0,2.82,0,2.94,3.16a6,6,0,0,1-1.94,5,90.72,90.72,0,0,0-19.8,98.19,90.79,90.79,0,0,0,28.78,37.83,5,5,0,0,1,1.67,5.38,1.18,1.18,0,0,1-1.11,1c-.63.06-1.27.06-1.91.06H193.53c-4.47,0-6.45,2.29-6.54,7.34-.07,4,.06,7.87,1.41,11.59C190.75,394.77,194.47,398.31,201.07,400.64Z"/><path class="cls-2" d="M322.85,247.32a2.46,2.46,0,0,1-.79,1.41q-7.23,9.14-14.46,18.26Q297.33,280,287,292.92c-.25.32-.5.65-.77.95-.42.48-.87.91-1.44.22a1.2,1.2,0,0,1,.09-1.7c1.77-2.24,3.52-4.51,5.3-6.75q12.06-15.21,24.13-30.4c2.16-2.72,4.31-5.45,6.49-8.16.36-.45.7-1.14,1.41-.78A1.2,1.2,0,0,1,322.85,247.32Z"/><path class="cls-2" d="M290.42,256.4a2,2,0,0,1-.65,1.41l-12.59,15.84q-10.41,13.11-20.83,26.23c-.85,1.07-1.73,2.1-2.6,3.15-.43.53-.88.87-1.45.25s-.26-1,.09-1.5c1.33-1.73,2.64-3.48,4-5.18q13.42-16.86,26.88-33.69c1.78-2.23,3.53-4.5,5.31-6.73.34-.42.75-.89,1.31-.47A2.66,2.66,0,0,1,290.42,256.4Z"/><path class="cls-2" d="M271.28,268a8.39,8.39,0,0,1-.57.91q-8,10.06-16,20.13l-17.91,22.56c-.64.8-1.29,1.58-2,2.33-.43.48-.88,1.26-1.59.59s-.13-1.44.29-2c1.15-1.52,2.35-3,3.54-4.5l31.27-39.33c.46-.58,1-1.13,1.48-1.66a.69.69,0,0,1,1-.09A1.2,1.2,0,0,1,271.28,268Z"/><path class="cls-2" d="M274.1,290.23c-.42.62-.83,1.33-1.33,2-3.56,4.48-7.14,8.93-10.7,13.41l-23.61,29.75a6.43,6.43,0,0,1-.5.64c-.53.53-1,1.59-1.86.62s0-1.42.45-2c3.88-4.92,7.75-9.84,11.66-14.74Q260.09,305,272,290.05c.4-.5.67-1.34,1.49-1C273.89,289.2,274,289.64,274.1,290.23Z"/></svg>