<?xml version="1.0" encoding="utf-8"?>
<!-- Generator: Adobe Illustrator 24.0.3, SVG Export Plug-In . SVG Version: 6.00 Build 0)  -->
<svg version="1.1" id="Layer_1" xmlns="http://www.w3.org/2000/svg" xmlns:xlink="http://www.w3.org/1999/xlink" x="0px" y="0px"
	 viewBox="0 0 500 500" style="enable-background:new 0 0 500 500;" xml:space="preserve">
<style type="text/css">
	.st0{fill:#AECB8D;}
	.st1{fill:#A7C87E;}
	.st2{fill:none;stroke:#AECB8D;stroke-width:2;stroke-miterlimit:10;}
	.st3{fill:#FFFFFF;}
	.st4{fill:none;stroke:#A7C87E;stroke-width:3;stroke-miterlimit:10;}
	.st5{fill:none;stroke:#A7C87E;stroke-width:2;stroke-miterlimit:10;}
	.st6{fill:none;stroke:#A7C87E;stroke-width:2;stroke-miterlimit:10;stroke-dasharray:5.9695,5.9695;}
	.st7{fill:none;stroke:#FFFFFF;stroke-linecap:round;stroke-miterlimit:10;}
	.st8{fill:none;stroke:#A7C87E;stroke-width:5;stroke-miterlimit:10;}
	.st9{fill:none;stroke:#A7C87E;stroke-miterlimit:10;}
	.st10{fill:none;stroke:#A7C87E;stroke-width:10;stroke-miterlimit:10;}
	.st11{fill:url(#);}
	.st12{fill:#A7C87E;stroke:#A7C87E;stroke-width:0.25;stroke-miterlimit:10;}
	.st13{fill:#FFFFFF;stroke:#FFFFFF;stroke-width:0.25;stroke-miterlimit:10;}
	.st14{fill:none;stroke:#A7C87E;stroke-width:0.25;stroke-miterlimit:10;}
</style>
<g>
	<path class="st0" d="M250.2,18.8c31.2,0,61.4,6.1,89.9,18.1c27.5,11.6,52.2,28.3,73.4,49.5s37.9,45.9,49.5,73.4
		c12,28.5,18.1,58.7,18.1,89.9c0,31.2-6.1,61.4-18.1,89.9c-11.6,27.5-28.3,52.2-49.5,73.4c-21.2,21.2-45.9,37.9-73.4,49.5
		c-28.5,12-58.7,18.1-89.9,18.1s-61.4-6.1-89.9-18.1c-27.5-11.6-52.2-28.3-73.4-49.5c-21.2-21.2-37.9-45.9-49.5-73.4
		c-12-28.5-18.1-58.7-18.1-89.9c0-31.2,6.1-61.4,18.1-89.9c11.6-27.5,28.3-52.2,49.5-73.4s45.9-37.9,73.4-49.5
		C188.8,24.9,219,18.8,250.2,18.8 M250.2,8.8C117.1,8.8,9.3,116.6,9.3,249.7s107.9,240.9,240.9,240.9s240.9-107.9,240.9-240.9
		S383.3,8.8,250.2,8.8L250.2,8.8z"/>
</g>
<path class="st1" d="M368.1,192.4l-19.8-19.8l27.5-27.5l15.2,15.2c1.9,1.9,5,1.9,6.9,0s1.9-5,0-6.9l-49.7-49.7c-1.9-1.9-5-1.9-6.9,0
	c-1.9,1.9-1.9,5,0,6.9l15.2,15.2l-27.5,27.5l-19.8-19.8l-6.9,6.9l8.9,8.9c-0.3,0.2-0.6,0.5-0.8,0.7L188.1,272.6
	c-3.3,3.3-3.9,8.2-2,12.1l-8.9,8.9l4.5,4.5l-9.1,9.1l9.6,9.6l-59.8,59.8l2.7,2.7l59.8-59.8l9.6,9.6l1.3-1.3l7.7-7.7l4.5,4.5l1.3-1.3
	l7.6-7.6c3.9,2,8.9,1.3,12.1-2l122.4-122.4c0.3-0.3,0.5-0.5,0.7-0.8l8.9,8.9L368.1,192.4z M322.2,160.4l-89.5,89.5l-8.3-8.3
	l88.7-88.7c0.3-0.3,0.6-0.5,0.9-0.7L322.2,160.4z M194.5,323.8l-6.9-6.9l-2.7-2.7l-6.9-6.9l6.4-6.4l16.6,16.6L194.5,323.8z
	 M184.3,295.5l-1.9-1.9l5.9-5.9l25.6,25.6l-5.9,5.9l-1.9-1.9L184.3,295.5z M348.9,188.7l-88.7,88.7l-8.3-8.3l89.5-89.5l8.2,8.2
	C349.4,188.1,349.2,188.4,348.9,188.7z"/>
</svg>
