<svg id="Layer_1" data-name="Layer 1" xmlns="http://www.w3.org/2000/svg" viewBox="0 0 500 500"><defs><style>.cls-1{fill:#aecb8d;}.cls-2{fill:#a7c87e;}</style></defs><path class="cls-1" d="M250.2,18.78a231,231,0,0,1,89.88,443.69A231,231,0,0,1,160.32,36.93,229.43,229.43,0,0,1,250.2,18.78m0-10C117.15,8.78,9.29,116.65,9.29,249.7S117.15,490.62,250.2,490.62,491.12,382.75,491.12,249.7,383.26,8.78,250.2,8.78Z"/><path class="cls-2" d="M344.2,248.12v49l.14.49,28.14,97.07c.08.33,1.73,7-2,11.91-3.07,4-9,6-17.73,6h-58c-1.23,0-7.51-.25-11-5.36-4.13-6-3.42-16.78,2.05-31.29,16-42.46,29.45-80.61,29.58-81l.2-.58V248.12H344.2m3.6-3.6H311.91v49.26s-13.37,38-29.55,80.91c-15.19,40.29,9.29,41.53,12.36,41.53h58c29.55,0,23.22-22.52,23.22-22.52l-28.15-97.1Z"/><path class="cls-2" d="M138.5,109V417.36a1.8,1.8,0,1,0,3.6,0V109a1.8,1.8,0,1,0-3.6,0"/><path class="cls-2" d="M229.19,150.05v68.06l2.36.86a44.12,44.12,0,0,1,20.59,15.5,41.58,41.58,0,0,1,8,24.57A42.64,42.64,0,0,1,238,296.12H193.66A42.66,42.66,0,0,1,171.54,259c0-18.65,12.32-35,30.66-40.76l2.53-.79V150.05h24.46m3.6-3.6H201.13v68.39c-19.26,6-33.19,23.53-33.19,44.2a46.24,46.24,0,0,0,24.8,40.68H239A46.24,46.24,0,0,0,263.75,259c0-19.87-12.87-36.81-31-43.45Z"/><path class="cls-2" d="M250.07,297.92H134a1.8,1.8,0,1,0,0,3.6h116.1a1.8,1.8,0,1,0,0-3.6"/><path class="cls-2" d="M134,167.92H240.22a2.16,2.16,0,1,0,0-4.32H134a2.16,2.16,0,1,0,0,4.32"/><rect class="cls-2" x="192.92" y="159.24" width="45.86" height="13.04"/><path class="cls-2" d="M236.08,149.49H198v-9.07a7.82,7.82,0,0,1,7.82-7.82h21.83a8.44,8.44,0,0,1,8.44,8.45Z"/><rect class="cls-2" x="209.75" y="124.16" width="15.4" height="13.19"/><path class="cls-2" d="M218.83,130.88a39,39,0,0,1,5.44-17.31c4.64-7.87,11.95-14.44,20.69-19a63.13,63.13,0,0,1,29.16-7.2c1.6,0,3.21.06,4.81.19a58.2,58.2,0,0,1,31.45,12.26c8.56,6.85,14.56,16,16.37,26.36l1.78-.31h-1.8V311.68h3.6v-186l0-.15c-2-11.34-8.54-21.25-17.67-28.55a61.77,61.77,0,0,0-33.41-13c-1.7-.14-3.41-.2-5.1-.2A65.93,65.93,0,0,0,234.56,96.9a52.19,52.19,0,0,0-13.39,14.84,42.45,42.45,0,0,0-5.93,18.9l3.59.24Z"/><path class="cls-2" d="M187.44,273a17.34,17.34,0,0,1,1.5-1.47c-.8.63-.68.59.37-.11,2.39-1.35-1.42.13,1.26-.6.43-.11,4.37-.87,2.36-.66a26.59,26.59,0,0,1,3.22-.11c4.94.09,10.87,2.29,16.17,3.93a130.57,130.57,0,0,0,38.45,5.86c5.65,0,11.06-5,10.8-10.8a11,11,0,0,0-10.8-10.8c-13.91,0-25.63-3.13-39.14-7.09s-29.07-4.34-39.46,6.58a11,11,0,0,0,0,15.27C176.22,277,183.41,277.22,187.44,273Z"/><path class="cls-2" d="M181.89,284.94c20.78,3.71,42,7.5,63.14,4.93l-10.42-13.68c-.43,2.48.89-.72,1.29-1.29.58-.82.9-.22-.41-.06,1.33-.16-1,.05-1.39.07-1.12.06-2.25.09-3.38.13q-6.56.22-13.13.27t-13.13-.09c-2.29-.05-4.62-.25-6.91-.2-1.38,0-.43-.26.25.1-2.11-1.12,2.37,1.68,2.63,2.22-2.49-5.27-10.06-6.63-14.78-3.87-5.4,3.16-6.37,9.48-3.87,14.78,3.13,6.63,10.55,8.17,17.15,8.42s13.37.3,20,.23c12.45-.12,33.61,1.61,36.46-15,1.05-6.07-2.78-14.6-10.41-13.68-19.45,2.37-38.37-.75-57.4-4.15-5.54-1-11.91,1.5-13.29,7.54C173.14,276.92,175.94,283.88,181.89,284.94Z"/><path class="cls-2" d="M298.75,399.18c-.44.44-.9.85-1.37,1.25-1.1.45-1.06.5.13.14-1.41-.14,1.9,0,1.9,0,1.35.13,1.58.12.7,0,.79.13,1.58.28,2.37.46,1.2.26,2.39.58,3.57.91,6.27,1.73,12.39,3.56,18.95,3.83,6.94.27,13.94-1.1,20.71-2.45,2.92-.58,5.85-1.33,8.81-1.69.74-.14.79-.14.14,0a16,16,0,0,1,2.4,0,1.42,1.42,0,0,1-1.15-.19,2.16,2.16,0,0,1-1.34-1.58c-1.33-2.27.1-9.1,3.4-8.06-.27-.09-3.07.41-.89.3-2.85.14-5.72.06-8.57.07l-19.37,0-19.76,0c-6.23,0-11.31.41-16.55-1.77s-12.11,2.34-13.29,7.54c-1.44,6.31,1.94,11,7.54,13.29,6.12,2.54,12.95,2.56,19.47,2.55l19.77,0,20.19,0c5.72,0,12.15.66,17.63-1.32,7.93-2.86,12.85-10.58,10.72-19-2-8-9.4-12.56-17.21-13.32-6.72-.64-13.85,1.67-20.42,2.92A56.28,56.28,0,0,1,329.8,384a32.29,32.29,0,0,1-8.45-.36c-6.72-1.68-13.23-3.93-20.16-4.6-7.84-.74-17.24,1.66-21.09,9.2-2.66,5.19-1.36,11.72,3.87,14.78C288.8,405.88,296.09,404.39,298.75,399.18Z"/><path class="cls-2" d="M228.92,385.64h1.14v-9.52a12.69,12.69,0,0,0-12.69-12.69h-3.05a12.69,12.69,0,0,0-12.69,12.69v9.52h1.15l-.75-.87a21.15,21.15,0,0,0,.29,32.32l.31.27h26.43l.32-.27a21.17,21.17,0,0,0,.29-32.32l-.75.87h0l-.75.86a18.88,18.88,0,0,1-.25,28.84l.73.88v-1.15h-25.6v1.15l.73-.88a18.89,18.89,0,0,1-.26-28.84l.4-.34v-10a10.38,10.38,0,0,1,10.4-10.4h3.05a10.4,10.4,0,0,1,10.41,10.4v10l.39.34Z"/><path class="cls-2" d="M222.82,399.1a121.82,121.82,0,0,1-14.17-.41,48.45,48.45,0,0,1-8.54-1.74c-1.13-.36-2.26-.73-3.42-1l-.26-.05a20.08,20.08,0,0,0,6.62,20.34h25.6a20,20,0,0,0,7.23-15.41,20.83,20.83,0,0,0-.11-2.11A113.91,113.91,0,0,1,222.82,399.1Z"/><polyline class="cls-2" points="216.53 402.74 216.53 356.04 215.16 356.04 215.16 402.74"/><path class="cls-2" d="M215.56,362.28h0a12,12,0,0,1,.8-17A12,12,0,0,1,215.56,362.28Z"/><path class="cls-2" d="M215.69,362.42l-.15.13-.13-.14a12.2,12.2,0,0,1-1.09-15,1.9,1.9,0,0,0-.21-.19,11.81,11.81,0,0,0,1.46,16.34,11.6,11.6,0,0,0,1.73-2.89A12.28,12.28,0,0,1,215.69,362.42Z"/><path class="cls-2" d="M218.15,355.07a11.77,11.77,0,0,0-3.54-7.42,11.79,11.79,0,0,0,1,14.34,12,12,0,0,0,2.24-2.87A11.8,11.8,0,0,0,218.15,355.07Z"/></svg>