<?xml version="1.0" encoding="utf-8"?>
<!-- Generator: Adobe Illustrator 24.0.3, SVG Export Plug-In . SVG Version: 6.00 Build 0)  -->
<svg version="1.1" id="Layer_1" xmlns="http://www.w3.org/2000/svg" xmlns:xlink="http://www.w3.org/1999/xlink" x="0px" y="0px"
	 viewBox="0 0 500 500" style="enable-background:new 0 0 500 500;" xml:space="preserve">
<style type="text/css">
	.st0{fill:#AECB8D;}
	.st1{fill:#A7C87E;}
	.st2{fill:none;stroke:#AECB8D;stroke-width:2;stroke-miterlimit:10;}
	.st3{fill:#FFFFFF;}
	.st4{fill:none;stroke:#A7C87E;stroke-width:3;stroke-miterlimit:10;}
	.st5{fill:none;stroke:#A7C87E;stroke-width:2;stroke-miterlimit:10;}
	.st6{fill:none;stroke:#A7C87E;stroke-width:2;stroke-miterlimit:10;stroke-dasharray:5.9695,5.9695;}
	.st7{fill:none;stroke:#FFFFFF;stroke-linecap:round;stroke-miterlimit:10;}
	.st8{fill:none;stroke:#A7C87E;stroke-width:5;stroke-miterlimit:10;}
	.st9{fill:none;stroke:#A7C87E;stroke-miterlimit:10;}
	.st10{fill:none;stroke:#A7C87E;stroke-width:10;stroke-miterlimit:10;}
	.st11{fill:url(#);}
</style>
<g>
	<path class="st0" d="M250.2,18.8c31.2,0,61.4,6.1,89.9,18.1c27.5,11.6,52.2,28.3,73.4,49.5s37.9,45.9,49.5,73.4
		c12,28.5,18.1,58.7,18.1,89.9s-6.1,61.4-18.1,89.9c-11.6,27.5-28.3,52.2-49.5,73.4s-45.9,37.9-73.4,49.5
		c-28.5,12-58.7,18.1-89.9,18.1s-61.4-6.1-89.9-18.1c-27.5-11.6-52.2-28.3-73.4-49.5s-37.9-45.9-49.5-73.4
		c-12-28.5-18.1-58.7-18.1-89.9s6.1-61.4,18.1-89.9c11.6-27.5,28.3-52.2,49.5-73.4s45.9-37.9,73.4-49.5
		C188.8,24.9,219,18.8,250.2,18.8 M250.2,8.8C117.1,8.8,9.3,116.6,9.3,249.7s107.9,240.9,240.9,240.9s240.9-107.9,240.9-240.9
		S383.3,8.8,250.2,8.8L250.2,8.8z"/>
</g>
<g>
	<path class="st4" d="M351.5,405.2H148.5c-5,0-9-4-9-9V104.9c0-5,4-9,9-9h202.9c5,0,9,4,9,9v291.3
		C360.5,401.1,356.4,405.2,351.5,405.2z"/>
	<g>
		<g>
			<line class="st5" x1="250" y1="107.2" x2="250" y2="110.2"/>
			<line class="st6" x1="250" y1="116.2" x2="250" y2="387.8"/>
			<line class="st5" x1="250" y1="390.8" x2="250" y2="393.8"/>
		</g>
	</g>
	<g>
		<g>
			<circle class="st1" cx="193.5" cy="342.6" r="26.1"/>
			<circle class="st1" cx="306.5" cy="342.6" r="26.1"/>
		</g>
		<g>
			<path class="st7" d="M172.1,344.4c0-1.1-0.3-11.2,8-17.8c6-4.8,14.2-5.9,21.5-3.1"/>
			<path class="st7" d="M286.3,344.4c0-1.1-0.3-11.2,8-17.8c6-4.8,14.2-5.9,21.5-3.1"/>
		</g>
	</g>
	<g>
		<g>
			<circle class="st1" cx="193.5" cy="279.1" r="26.1"/>
			<circle class="st1" cx="306.5" cy="279.1" r="26.1"/>
		</g>
		<g>
			<path class="st7" d="M172.1,281c0-1.1-0.3-11.2,8-17.8c6-4.8,14.2-5.9,21.5-3.1"/>
			<path class="st7" d="M286.3,281c0-1.1-0.3-11.2,8-17.8c6-4.8,14.2-5.9,21.5-3.1"/>
		</g>
	</g>
	<g>
		<g>
			<circle class="st1" cx="193.5" cy="215.7" r="26.1"/>
			<circle class="st1" cx="306.5" cy="215.7" r="26.1"/>
		</g>
		<g>
			<path class="st7" d="M172.1,217.6c0-1.1-0.3-11.2,8-17.8c6-4.8,14.2-5.9,21.5-3.1"/>
			<path class="st7" d="M286.3,217.6c0-1.1-0.3-11.2,8-17.8c6-4.8,14.2-5.9,21.5-3.1"/>
		</g>
	</g>
	<g>
		<g>
			<circle class="st1" cx="193.5" cy="152.3" r="26.1"/>
			<circle class="st1" cx="306.5" cy="152.3" r="26.1"/>
		</g>
		<g>
			<path class="st7" d="M172.1,154.2c0-1.1-0.3-11.2,8-17.8c6-4.8,14.2-5.9,21.5-3.1"/>
			<path class="st7" d="M286.3,154.2c0-1.1-0.3-11.2,8-17.8c6-4.8,14.2-5.9,21.5-3.1"/>
		</g>
	</g>
</g>
</svg>
