<?xml version="1.0" encoding="utf-8"?>
<!-- Generator: Adobe Illustrator 24.0.3, SVG Export Plug-In . SVG Version: 6.00 Build 0)  -->
<svg version="1.1" id="Layer_1" xmlns="http://www.w3.org/2000/svg" xmlns:xlink="http://www.w3.org/1999/xlink" x="0px" y="0px"
	 viewBox="0 0 500 500" style="enable-background:new 0 0 500 500;" xml:space="preserve">
<style type="text/css">
	.st0{fill:#AECB8D;}
	.st1{fill:#A7C87E;}
	.st2{fill:none;stroke:#AECB8D;stroke-width:2;stroke-miterlimit:10;}
	.st3{fill:#FFFFFF;}
</style>
<g>
	<path class="st0" d="M250.2,18.8c31.2,0,61.4,6.1,89.9,18.1c27.5,11.6,52.2,28.3,73.4,49.5s37.9,45.9,49.5,73.4
		c12,28.5,18.1,58.7,18.1,89.9c0,31.2-6.1,61.4-18.1,89.9c-11.6,27.5-28.3,52.2-49.5,73.4c-21.2,21.2-45.9,37.9-73.4,49.5
		c-28.5,12-58.7,18.1-89.9,18.1s-61.4-6.1-89.9-18.1c-27.5-11.6-52.2-28.3-73.4-49.5c-21.2-21.2-37.9-45.9-49.5-73.4
		c-12-28.5-18.1-58.7-18.1-89.9c0-31.2,6.1-61.4,18.1-89.9c11.6-27.5,28.3-52.2,49.5-73.4s45.9-37.9,73.4-49.5
		C188.8,24.9,219,18.8,250.2,18.8 M250.2,8.8C117.1,8.8,9.3,116.6,9.3,249.7s107.9,240.9,240.9,240.9s240.9-107.9,240.9-240.9
		S383.3,8.8,250.2,8.8L250.2,8.8z"/>
</g>
<g>
	<path class="st1" d="M65.2,253.4l2,2c50-50,115.5-75,181-75c65.5,0,131,25,181,75l0.8,0.8h1.2v-5.7h0h-1.2l-0.8,0.8
		c-50,50-115.5,75-181,75c-65.5,0-131-25-181-75L65.2,253.4l2,2L65.2,253.4l-2,2c51.1,51.1,118.1,76.6,185,76.6
		c67,0,133.9-25.6,185-76.6l-2-2v2.9h0v-5.7h0v2.9l2-2c-51.1-51.1-118.1-76.6-185-76.6c-67,0-133.9,25.6-185,76.6l-2,2l2,2
		L65.2,253.4z"/>
	<path class="st1" d="M321.2,253.4h-2.9c0,19.4-7.8,36.9-20.5,49.6c-12.7,12.7-30.2,20.5-49.6,20.5c-19.4,0-36.9-7.8-49.6-20.5
		c-12.7-12.7-20.5-30.2-20.5-49.6c0-19.4,7.8-36.9,20.5-49.6c12.7-12.7,30.2-20.5,49.6-20.5c19.4,0,36.9,7.8,49.6,20.5
		c12.7,12.7,20.5,30.2,20.5,49.6H321.2h2.9c0-41.9-33.9-75.8-75.8-75.8c-41.9,0-75.8,33.9-75.8,75.8c0,41.9,33.9,75.8,75.8,75.8
		c41.9,0,75.8-33.9,75.8-75.8H321.2z"/>
	<path class="st1" d="M283.2,253.4H282c0,9.3-3.8,17.8-9.9,23.9c-6.1,6.1-14.6,9.9-23.9,9.9c-9.3,0-17.8-3.8-23.9-9.9
		c-6.1-6.1-9.9-14.6-9.9-23.9c0-9.3,3.8-17.8,9.9-23.9c6.1-6.1,14.6-9.9,23.9-9.9c9.3,0,17.8,3.8,23.9,9.9
		c6.1,6.1,9.9,14.6,9.9,23.9H283.2h1.1c0-19.9-16.2-36.1-36.1-36.1c-19.9,0-36.1,16.2-36.1,36.1c0,19.9,16.2,36.1,36.1,36.1
		c19.9,0,36.1-16.2,36.1-36.1H283.2z"/>
	<circle class="st1" cx="235" cy="240.2" r="7.2"/>
	<path class="st1" d="M248.2,232.6c-2.8,0-5.5,0.6-8,1.6c1.7,1.5,2.7,3.6,2.7,6c0,4.4-3.6,8-8,8c-2.4,0-4.5-1.1-6-2.7
		c-1,2.5-1.6,5.1-1.6,8c0,11.5,9.3,20.8,20.8,20.8c11.5,0,20.8-9.3,20.8-20.8C269,242,259.7,232.6,248.2,232.6z"/>
	<path class="st1" d="M358.6,180.9v-1.7c-0.5,0-1,0-1.4,0c-7.4-0.3-13.4-3.6-17.6-8.3c-4.2-4.8-6.6-11.1-6.6-17.5
		c0-6.5,2.4-13,7.6-18.3l17.9-17.9l18,18c5.2,5.3,7.6,11.8,7.6,18.2c0,6.4-2.4,12.7-6.5,17.5c-4.2,4.8-10.1,8-17.5,8.3
		c-0.5,0-1,0-1.4,0V180.9v1.7c0.5,0,1.1,0,1.6,0c8.3-0.4,15.2-4.1,20-9.5c4.7-5.4,7.4-12.5,7.4-19.7c0-7.3-2.7-14.7-8.6-20.6
		l-20.4-20.4l-20.3,20.3c-5.9,5.9-8.6,13.4-8.6,20.7c0,7.3,2.6,14.4,7.4,19.8c4.7,5.4,11.7,9.1,20,9.5c0.5,0,1.1,0,1.6,0V180.9z"/>
</g>
</svg>
