<svg id="Layer_1" data-name="Layer 1" xmlns="http://www.w3.org/2000/svg" viewBox="0 0 500 500"><defs><style>.cls-1{fill:#aecb8d;}.cls-2{fill:#a7c87e;}</style></defs><path class="cls-1" d="M250.2,18.78a231,231,0,0,1,89.88,443.69A231,231,0,0,1,160.32,36.93,229.43,229.43,0,0,1,250.2,18.78m0-10C117.15,8.78,9.29,116.65,9.29,249.7S117.15,490.62,250.2,490.62,491.12,382.75,491.12,249.7,383.26,8.78,250.2,8.78Z"/><path class="cls-2" d="M157.27,186.45h0M416,188.78,300.36,324.13H138.59L157,188.78H416m5.84-9H154.6a6.34,6.34,0,0,0-6.28,5.48L129.23,326a6.34,6.34,0,0,0,6.28,7.19H301.6a6.32,6.32,0,0,0,4.81-2.22L426.64,190.2A6.34,6.34,0,0,0,421.82,179.75Z"/><path class="cls-2" d="M113.58,172.52a12.71,12.71,0,1,1-12.71-12.71A12.71,12.71,0,0,1,113.58,172.52Z"/><path class="cls-2" d="M159.24,340.47c5.63,4.93,2,15.31-8.1,23.17S128.29,373.9,122.67,369s-2-15.31,8.11-23.18S153.62,335.54,159.24,340.47Z"/><path class="cls-2" d="M297,340.47c5.62,4.93,2,15.31-8.11,23.17S266,373.9,260.38,369s-2-15.31,8.11-23.18S291.34,335.54,297,340.47Z"/><path class="cls-2" d="M100.87,177h25.18l29.49,14,3.88-8.15L129,168.44a4.65,4.65,0,0,0-1.94-.43h-26.2v9Z"/><polyline class="cls-2" points="144.27 234.62 387.71 234.62 387.71 225.6 144.27 225.6"/><polyline class="cls-2" points="138.66 280.14 348.87 280.14 348.87 271.11 138.66 271.11"/><polyline class="cls-2" points="345.21 180.91 240.1 326.47 247.43 331.76 352.53 186.19"/><polyline class="cls-2" points="237.12 181.82 176.83 327.39 185.17 330.84 245.46 185.27"/><polyline class="cls-2" points="115.33 205.38 274.62 205.38 274.62 203.87 115.33 203.87"/><polyline class="cls-2" points="93.76 217.14 185.41 217.14 185.41 215.63 93.76 215.63"/><polyline class="cls-2" points="166.79 290.62 93.76 290.62 93.76 292.13 166.79 292.13"/><polyline class="cls-2" points="214.33 302.88 111.9 302.88 111.9 304.38 214.33 304.38"/></svg>