<svg id="Layer_1" data-name="Layer 1" xmlns="http://www.w3.org/2000/svg" viewBox="0 0 500 500"><defs><style>.cls-1{fill:#aecb8d;}.cls-2{fill:#a7c87e;}</style></defs><path class="cls-1" d="M250.2,18.78a231,231,0,0,1,89.88,443.69A231,231,0,0,1,160.32,36.93,229.43,229.43,0,0,1,250.2,18.78m0-10C117.15,8.78,9.29,116.65,9.29,249.7S117.15,490.62,250.2,490.62,491.12,382.75,491.12,249.7,383.26,8.78,250.2,8.78Z"/><path class="cls-2" d="M177.51,385.29a15.49,15.49,0,0,0-.48-3.71c0-.12-.07-.26-.1-.39a49.28,49.28,0,0,0-3.73-9.49c-.33-.66-.69-1.34-1.06-2-.15-.29-.31-.59-.48-.89l-.06-.11c-.31-.56-.64-1.13-1-1.7,0-.09-.1-.18-.16-.27l-1.08-1.8c-.08-.14-.17-.27-.25-.4-.32-.51-.65-1-1-1.55l-.27-.41c-.35-.54-.71-1.08-1.08-1.63l-.23-.33c-.43-.64-.89-1.28-1.35-1.93l-.3-.41-.18-.25-1-1.33-.41-.55-1.53-2c-.66-.84-1.32-1.65-2-2.45l-.7-.83c-.42-.49-.83-1-1.25-1.46l-.87-1-1-1.11-1-1.09c-.21-.23-.43-.44-.64-.66-1.5-1.57-3-3-4.4-4.33l-.07-.07c-.53-.49-1.05-.95-1.57-1.4h0c-6.24-5.44-11.51-8.31-14.42-8.31a2.78,2.78,0,0,0-.8.1,1.65,1.65,0,0,0-.55.26l0,0h0c-3,2.33,1.34,16.62,14.81,33.73,11.6,14.75,23,22.71,27.9,22.71a2.24,2.24,0,0,0,1.4-.38,1.48,1.48,0,0,0,.25-.25.67.67,0,0,0,.09-.14c0-.06.09-.11.13-.18s0,0,0-.06a3.57,3.57,0,0,0,.35-1.3,2.64,2.64,0,0,0,0-.28,2.83,2.83,0,0,0,0-.3Z"/><path class="cls-2" d="M335.26,329.5l-14.45-11.37,9.3-12c5.49-7.08,5.49-18.55,0-25.62l-70-90.18c-5.49-7.08-14.39-7.08-19.88,0l-70,90.18c-5.49,7.07-5.49,18.54,0,25.62l9.29,12L165.15,329.5c-9-8.36-17-12.54-20.44-9.85l-13.43,10.57a4.11,4.11,0,0,1,2.63-.81c3,0,7.38,2.18,12.31,6h0c1.33,1,2.71,2.17,4.11,3.43l0,0c.67.61,1.35,1.23,2,1.88l.13.12c.64.61,1.28,1.25,1.93,1.9l.25.26c.6.61,1.2,1.24,1.81,1.88l.39.41,1.69,1.87c.16.19.33.36.49.55.55.63,1.1,1.27,1.64,1.92l.53.62c.71.86,1.42,1.73,2.13,2.63s1.31,1.7,1.94,2.54a3.55,3.55,0,0,1,.23.31c.6.8,1.18,1.61,1.75,2.41.09.13.18.25.26.38.57.8,1.11,1.6,1.64,2.4l.2.3c.54.83,1.07,1.65,1.58,2.47l0,.07c1.07,1.73,2.06,3.42,2.94,5.07l0,0c.43.82.85,1.62,1.24,2.41l0,.08c.39.79.76,1.57,1.1,2.33,3.41,7.66,4.19,13.61,1.5,15.73l13.43-10.57c3.41-2.68,1.25-11.51-4.77-22.18l14.26-11.21L212.87,361c20.62,26.57,54,26.57,74.66,0l12.08-15.57,14.26,11.21c-6,10.67-8.18,19.5-4.77,22.18l13.44,10.57c-2.7-2.12-1.91-8.07,1.49-15.72h0c.34-.77.71-1.55,1.1-2.34l0-.07c.39-.79.81-1.6,1.25-2.42l0,0c.88-1.64,1.87-3.34,2.94-5.08l0-.06c.51-.82,1-1.64,1.59-2.47l.19-.3c.53-.8,1.08-1.6,1.64-2.4l.26-.37c.57-.81,1.15-1.61,1.75-2.42l.23-.31c.63-.84,1.28-1.69,1.94-2.54s1.42-1.77,2.14-2.63l.51-.61c.55-.65,1.1-1.3,1.65-1.93l.49-.54c.57-.64,1.13-1.27,1.7-1.88l.37-.39c.61-.65,1.22-1.29,1.82-1.9l.25-.25c.65-.66,1.3-1.29,1.94-1.91l.13-.12c.68-.65,1.36-1.28,2-1.87l0,0c1.4-1.26,2.78-2.4,4.11-3.43h0c4.93-3.8,9.29-6,12.31-6a4.11,4.11,0,0,1,2.63.81l-13.43-10.57C352.28,317,344.21,321.14,335.26,329.5ZM250.2,364.73a43.18,43.18,0,1,1,43.18-43.17A43.17,43.17,0,0,1,250.2,364.73Z"/><path class="cls-2" d="M367.89,331.79a2.24,2.24,0,0,0-1.4-.38c-3.15,0-9.06,3.36-16,9.72l-.07.07c-1.43,1.31-2.9,2.76-4.4,4.33l-.63.66c-.34.36-.68.72-1,1.09l-1,1.12-.87,1-1.24,1.46-.71.84c-.66.79-1.31,1.6-2,2.44s-1.32,1.72-2,2.58l-.61.83q-.66.9-1.29,1.8c-.22.3-.44.61-.65.92-.52.76-1,1.52-1.53,2.28l-.88,1.36-.63,1c-.33.52-.64,1-.95,1.56l-.32.55a72.57,72.57,0,0,0-4.77,9.56c-2.72,6.88-2.35,10.37-1.21,11.27h0a2.26,2.26,0,0,0,1.4.38c4.87,0,16.3-8,27.91-22.71,6.1-7.76,10.93-15.73,13.6-22.46S369,332.69,367.89,331.79Z"/><path class="cls-2" d="M250.2,280.88a40.68,40.68,0,1,0,40.68,40.68A40.67,40.67,0,0,0,250.2,280.88Zm0,32.6a7,7,0,1,1,7-7A7,7,0,0,1,250.2,313.48Zm-15,1.08a7,7,0,1,1-7,7A7,7,0,0,1,235.2,314.56Zm15,15a7,7,0,1,1-7,7A7,7,0,0,1,250.2,329.56Zm15-1.08a7,7,0,1,1,7-7A7,7,0,0,1,265.2,328.48Z"/><path class="cls-2" d="M250.2,341a4.46,4.46,0,1,0-3.15-1.3A4.45,4.45,0,0,0,250.2,341Z"/><path class="cls-2" d="M265.2,317.06a4.44,4.44,0,1,0,3.16,1.3A4.41,4.41,0,0,0,265.2,317.06Z"/><path class="cls-2" d="M235.2,326a4.46,4.46,0,1,0-3.15-1.3A4.45,4.45,0,0,0,235.2,326Z"/><path class="cls-2" d="M250.2,302.06a4.44,4.44,0,1,0,3.16,1.3A4.41,4.41,0,0,0,250.2,302.06Z"/><path class="cls-2" d="M163.68,293.35A23.5,23.5,0,0,1,168.32,279l70-90.17a16.91,16.91,0,0,1,5.46-4.67,13.73,13.73,0,0,1,12.9,0,17,17,0,0,1,5.47,4.67l70,90.17a23.5,23.5,0,0,1,4.64,14.35,25.07,25.07,0,0,1-.31,4c22.34-24.48,36.18-58.4,36.18-95.89,0-74.61-54.8-135.1-122.39-135.1s-122.39,60.49-122.39,135.1c0,37.49,13.84,71.41,36.18,95.89A26.31,26.31,0,0,1,163.68,293.35Zm151.82-143c22.26,0,40.31,15.45,40.31,34.51s-18.05,34.51-40.31,34.51S275.19,204,275.19,184.9,293.24,150.39,315.5,150.39ZM144.59,184.9c0-19.06,18-34.51,40.31-34.51s40.31,15.45,40.31,34.51-18,34.51-40.31,34.51S144.59,204,144.59,184.9Z"/></svg>