<svg id="Layer_1" data-name="Layer 1" xmlns="http://www.w3.org/2000/svg" viewBox="0 0 500 500"><defs><style>.cls-1{fill:#aecb8d;}.cls-2{fill:#a7c87e;}</style></defs><path class="cls-1" d="M250.2,18.78a231,231,0,0,1,89.88,443.69A231,231,0,0,1,160.32,36.93,229.43,229.43,0,0,1,250.2,18.78m0-10C117.15,8.78,9.29,116.65,9.29,249.7S117.15,490.62,250.2,490.62,491.12,382.75,491.12,249.7,383.26,8.78,250.2,8.78Z"/><path class="cls-2" d="M71.11,348.34a9.57,9.57,0,0,1,7.8-2.91c3.33.14,6.68-.11,10,.07,2.84.15,3.59-1.1,3.4-3.71-.8-10.54-1.47-21.09-2.22-31.64Q88.83,292.09,87.51,274,85.88,251,84.27,228c-.8-11.58-1.63-23.16-2.26-34.75-.35-6.42,1.38-8,7.72-8,16.34,0,32.68-.08,49,0,3.07,0,4.59-.72,5-4,.56-4.67,1.69-9.26,2.5-13.91,1.77-10,7.92-15.27,18.09-15.28,14.5,0,29,0,43.5,0,2.72,0,5.07.53,6.29,3.25,1.71,3.79-1,7.51-5.58,7.57-7.48.09-15,0-22.44,0-7,0-14,0-21.06,0-5,0-6.8,1.51-7.8,6.4-.83,4.06-1.44,8.16-2.35,12.19-.63,2.77-.11,3.86,3.06,3.78,9-.2,18-.08,26.93-.06,6.19,0,8,2.13,7.47,8.21-.86,11.11-1.52,22.25-2.27,33.37-.42,6.29-.83,12.58-1.28,19.33,3.11-1.43,5.87-3.07,9.11-3.17,1,0,2.14-.44,3.08-.18,8,2.17,13.94-2.11,20.12-5.92,1.3-.81,1.49-1.54.83-2.77a22.66,22.66,0,0,1-1.18-2.49c-1.11-2.92-.12-5.71,2.55-7a5.1,5.1,0,0,1,7,1.83,34.35,34.35,0,0,1,3.21,6.09c.93,2.15,2,2.33,4,1.19a30.82,30.82,0,0,1,17.86-4.23c5.72.37,8,2.49,7.89,8.2-.07,3.82.48,6.6,4.34,8.65,3.5,1.86,5.06,5.87,6.79,9.37,1.11,2.24,2,2.88,4.28,1.15,3.82-2.85,3.94-2.67,1.73-6.89a31.74,31.74,0,0,1-3.7-14.9c0-9.37,3.41-10.33,11-10.1,10.89.33,19.53,5.49,26,14.26,2.63,3.58,2.62,3.61,5.45-.07q23.36-30.37,46.66-60.79c4.16-5.47,8.91-9.59,16.19-9.71,8.07-.13,14,3.47,17.45,10.68,3.49,7.4,2.16,14.4-3.2,20.51-3.11,3.54-6.47,6.87-9.74,10.27q-10.77,11.19-21.58,22.35c-1.41,1.45-2.73,2.37.32,3.82,3.91,1.86,3.41,6.06,3.35,9.5a30.9,30.9,0,0,1-4.1,14.82c-2.55,4.54-1.72,8.56,2.31,11.81,3.75,3,4.63,2.75,5.57-1.84.91-4.39,1.69-8.81,2.64-13.19.91-4.22,3.63-6.39,6.84-5.63,3.39.8,4.87,3.66,4,7.91-1.06,5.41-2.18,10.82-3.18,16.24-.18,1-1.27,2.36.3,3,1.29.54,2.06-.74,2.85-1.52,2.23-2.16,4.39-4.4,6.61-6.57,3.08-3,5.65-3.41,8.22-1.4s2.71,4.72.53,8.28c-.17.28-.28.59-.71,1.49,2.54,0,4.77-.07,7,0,4.85.19,7.22,3.09,6,7.81q-6.93,27.78-14.12,55.49c-.64,2.43-.17,3.07,2.22,3,5.41-.08,10.82-.07,16.23,0,4.59.06,7.09,2.19,7,5.81-.09,3.46-2.53,5.38-7,5.47-.69,0-1.38,0-2.07,0q-168,0-335.92,0c-3.33,0-6.46-.17-8.8-2.93ZM277,279.13c6.05,0,11.69-.15,17.31,0,4.06.14,7.53-.3,10.51-3.68,2.39-2.73,6.45-2.73,7.76,0,2,4.29,5.32,3.53,8.66,3.59,1.38,0,2.77-.06,4.14.07,3.15.3,5.37,2.4,5.45,5.23.09,3.1-1.62,5-4.54,5.65a24.42,24.42,0,0,1-5.14.35H165.46c-4.49,0-4.48,0-3.38,4.43q5.05,20.25,10.12,40.5c1.86,7.43,5.25,10.09,13,10.09h192c7.55,0,11-2.64,12.8-9.88q5.15-20.4,10.24-40.83c1.06-4.21,1-4.3-3.27-4.3-15.88,0-31.76,0-47.65,0-4.55,0-7.19-2.22-7.15-5.72s2.65-5.5,7.26-5.56c2.46,0,4.92,0,7.78,0a74.7,74.7,0,0,1-4.13-7.56c-2-5.05-5.35-7.34-10.95-6.62-6.61.85-12.89-.32-18.23-4.64-4.64-3.75-9-3.61-13.7.08a21.68,21.68,0,0,1-15.84,4.67c-1.71-.15-3.46,0-5.18-.1-3-.24-5,1.12-6.39,3.73C281,272,279.12,275.31,277,279.13ZM133.8,345.46c9.09,0,18.18,0,27.27,0,1.85,0,2.81-.14,1.9-2.49a79.3,79.3,0,0,1-2.63-9.28q-5.79-23.07-11.51-46.17c-1.33-5.39.86-8.26,6.28-8.4,1.49,0,3,0,4.49,0,1.1,0,2.13-.28,2.35-1.55,1.18-7.08,6.24-10.7,12.13-13.53a4.13,4.13,0,0,0,2.56-4c.27-5.28.66-10.56,1.22-15.81.31-2.84-.83-3.63-3.47-3.6-8.74.09-17.49.17-26.23,0-3.34-.08-4.55,1.13-5.15,4.35-5.41,29.5-11,59-16.51,88.45-.9,4.79-3.4,7.25-6.77,6.65-3.65-.64-5.13-3.76-4.19-8.73q2.08-11,4.12-22c4.07-21.8,8.11-43.61,12.26-65.39.43-2.26,0-3.25-2.39-3.24q-15.18.06-30.37,0c-1.93,0-2.64.66-2.49,2.66.41,5.73.61,11.47,1,17.21q2,29.22,4,58.45c.51,7.34,1.08,14.67,1.48,22,.18,3.36,1.42,4.73,5.06,4.61C116.77,345.27,125.29,345.46,133.8,345.46ZM137.25,196c-13.35,0-26.69.09-40-.06-3.09,0-4.06.94-3.79,4,.79,8.81,1.43,17.64,2,26.47.13,2.21.9,3,3.11,3q16.56-.1,33.13,0c2.3,0,3.25-.89,3.6-3.14.7-4.42,1.62-8.81,2.52-13.2.86-4.17,3.14-6.15,6.4-5.7,3.41.48,5.12,3.25,4.45,7.61-.57,3.74-1.27,7.48-2.08,11.18-.51,2.33-.08,3.31,2.58,3.27q13.13-.21,26.23,0c2.58,0,3.43-1,3.57-3.38.54-8.71,1.13-17.42,1.86-26.12.26-3.06-.79-4-3.84-4C163.71,196.08,150.48,196,137.25,196Zm85.21,53.67c-6.06,4-12.57,5-19.36,4.22-5.12-.59-8.28,1.36-10.19,6.07A25.33,25.33,0,0,1,179,274a28.87,28.87,0,0,0-3.89,2.22c-.75.49-1.75,1.11-1.51,2.12.29,1.21,1.53.73,2.36.73,6.78,0,13.57-.08,20.34.07,2.92.07,3.68-.52,2.34-3.41a5.22,5.22,0,0,1,2.57-7c2.62-1.34,5.39-.58,7.16,2.14a26,26,0,0,1,2.56,4.87c1,2.68,2.82,3.43,5.6,3.4,11.49-.13,23-.2,34.48,0,7,.12,11.81-4.39,17.2-7.68,1.08-.66,2.13-2.07.88-3.53-2.73-3.19-4.3-7.05-6.41-10.6-1.89-3.21-2.44-3.16-4.62-.1-6.25,8.78-14.47,14.53-25.43,15.2-10,.61-13.29-1-12.2-13.5C220.67,255.84,221.75,252.77,222.46,249.67Zm159.7-69.83c-3-.27-4.89,1.89-6.68,4.2q-24,31.14-47.89,62.29c-.74,1-2,1.94-.21,3.09,1.39.89,2.66,1.84,4.07-.15,1.93-2.73,4-5.41,6.89-7.18,5.26-3.25,9.3-7.8,13.54-12.16q11-11.37,22-22.8c4.62-4.8,9.25-9.6,13.81-14.45a7.52,7.52,0,0,0,1.53-8.9C388,181,385.58,179.78,382.16,179.84ZM251.87,243.23c0-2.25-.78-2.7-3.28-2.19-7.64,1.53-15.15,9.12-16.79,17-.58,2.76.26,3.65,3.11,2.94a22.76,22.76,0,0,0,13.33-9.12A19.27,19.27,0,0,0,251.87,243.23Zm38.09-7c-2-.39-2,1.14-1.77,2.55A21.3,21.3,0,0,0,294,250c4.11,4.39,6.46,4.45,11.09.58,1.19-1,1.46-1.95.65-3.25A22.92,22.92,0,0,0,290,236.26Zm52.82,17c3.2.48,5.85.41,8.1,1.33,3.53,1.43,4.76-.16,5.51-3.12.25-1,.51-2,.78-3,.47-1.76-.43-2.4-2-2.16A19.75,19.75,0,0,0,342.78,253.3Z"/><polygon class="cls-2" points="390.07 350.57 170.49 350.57 152.24 284.31 407.14 284.31 390.07 350.57"/></svg>