<svg id="Layer_1" data-name="Layer 1" xmlns="http://www.w3.org/2000/svg" viewBox="0 0 500 500"><defs><style>.cls-1{fill:#aecb8d;}.cls-2{fill:#a7c87e;}</style></defs><path class="cls-1" d="M250.2,18.78a231,231,0,0,1,89.88,443.69A231,231,0,0,1,160.32,36.93,229.43,229.43,0,0,1,250.2,18.78m0-10C117.15,8.78,9.29,116.65,9.29,249.7S117.15,490.62,250.2,490.62,491.12,382.75,491.12,249.7,383.26,8.78,250.2,8.78Z"/><path class="cls-2" d="M344.89,131.6a21.64,21.64,0,0,1,21.64,21.65V350.19a21.64,21.64,0,0,1-21.64,21.64H148a21.64,21.64,0,0,1-21.65-21.64V153.25A21.65,21.65,0,0,1,148,131.6H344.89m0-7.26H148A28.94,28.94,0,0,0,119,153.25V350.19A28.94,28.94,0,0,0,148,379.09H344.89a28.94,28.94,0,0,0,28.9-28.9V153.25A28.94,28.94,0,0,0,344.89,124.34Z"/><polyline class="cls-2" points="159.33 131.6 159.33 107.49 152.07 107.49 152.07 131.6"/><polyline class="cls-2" points="177.47 131.6 177.47 107.49 170.22 107.49 170.22 131.6"/><polyline class="cls-2" points="195.62 131.6 195.62 107.49 188.36 107.49 188.36 131.6"/><polyline class="cls-2" points="213.76 131.6 213.76 107.49 206.5 107.49 206.5 131.6"/><polyline class="cls-2" points="231.9 131.6 231.9 107.49 224.65 107.49 224.65 131.6"/><polyline class="cls-2" points="250.05 131.6 250.05 107.49 242.79 107.49 242.79 131.6"/><polyline class="cls-2" points="268.19 131.6 268.19 107.49 260.93 107.49 260.93 131.6"/><polyline class="cls-2" points="286.33 131.6 286.33 107.49 279.07 107.49 279.07 131.6"/><polyline class="cls-2" points="304.47 131.6 304.47 107.49 297.22 107.49 297.22 131.6"/><polyline class="cls-2" points="322.62 131.6 322.62 107.49 315.36 107.49 315.36 131.6"/><polyline class="cls-2" points="340.76 131.6 340.76 107.49 333.5 107.49 333.5 131.6"/><polyline class="cls-2" points="159.33 395.94 159.33 371.83 152.07 371.83 152.07 395.94"/><polyline class="cls-2" points="177.47 395.94 177.47 371.83 170.22 371.83 170.22 395.94"/><polyline class="cls-2" points="195.62 395.94 195.62 371.83 188.36 371.83 188.36 395.94"/><polyline class="cls-2" points="213.76 395.94 213.76 371.83 206.5 371.83 206.5 395.94"/><polyline class="cls-2" points="231.9 395.94 231.9 371.83 224.65 371.83 224.65 395.94"/><polyline class="cls-2" points="250.05 395.94 250.05 371.83 242.79 371.83 242.79 395.94"/><polyline class="cls-2" points="268.19 395.94 268.19 371.83 260.93 371.83 260.93 395.94"/><polyline class="cls-2" points="286.33 395.94 286.33 371.83 279.07 371.83 279.07 395.94"/><polyline class="cls-2" points="304.47 395.94 304.47 371.83 297.22 371.83 297.22 395.94"/><polyline class="cls-2" points="322.62 395.94 322.62 371.83 315.36 371.83 315.36 395.94"/><polyline class="cls-2" points="340.76 395.94 340.76 371.83 333.5 371.83 333.5 395.94"/><polyline class="cls-2" points="366.53 164.63 390.64 164.63 390.64 157.38 366.53 157.38"/><polyline class="cls-2" points="366.53 182.77 390.64 182.77 390.64 175.52 366.53 175.52"/><polyline class="cls-2" points="366.53 200.92 390.64 200.92 390.64 193.66 366.53 193.66"/><polyline class="cls-2" points="366.53 219.06 390.64 219.06 390.64 211.8 366.53 211.8"/><polyline class="cls-2" points="366.53 237.2 390.64 237.2 390.64 229.95 366.53 229.95"/><polyline class="cls-2" points="366.53 255.35 390.64 255.35 390.64 248.09 366.53 248.09"/><polyline class="cls-2" points="366.53 273.49 390.64 273.49 390.64 266.23 366.53 266.23"/><polyline class="cls-2" points="366.53 291.63 390.64 291.63 390.64 284.37 366.53 284.37"/><polyline class="cls-2" points="366.53 309.77 390.64 309.77 390.64 302.52 366.53 302.52"/><polyline class="cls-2" points="366.53 327.92 390.64 327.92 390.64 320.66 366.53 320.66"/><polyline class="cls-2" points="366.53 346.06 390.64 346.06 390.64 338.8 366.53 338.8"/><polyline class="cls-2" points="102.19 164.63 126.3 164.63 126.3 157.38 102.19 157.38"/><polyline class="cls-2" points="102.19 182.77 126.3 182.77 126.3 175.52 102.19 175.52"/><polyline class="cls-2" points="102.19 200.92 126.3 200.92 126.3 193.66 102.19 193.66"/><polyline class="cls-2" points="102.19 219.06 126.3 219.06 126.3 211.8 102.19 211.8"/><polyline class="cls-2" points="102.19 237.2 126.3 237.2 126.3 229.95 102.19 229.95"/><polyline class="cls-2" points="102.19 255.35 126.3 255.35 126.3 248.09 102.19 248.09"/><polyline class="cls-2" points="102.19 273.49 126.3 273.49 126.3 266.23 102.19 266.23"/><polyline class="cls-2" points="102.19 291.63 126.3 291.63 126.3 284.37 102.19 284.37"/><polyline class="cls-2" points="102.19 309.77 126.3 309.77 126.3 302.52 102.19 302.52"/><polyline class="cls-2" points="102.19 327.92 126.3 327.92 126.3 320.66 102.19 320.66"/><polyline class="cls-2" points="102.19 346.06 126.3 346.06 126.3 338.8 102.19 338.8"/><polygon class="cls-2" points="278.25 287.41 258.48 276.75 258.48 359.8 278.25 359.8 278.25 287.41"/><polygon class="cls-2" points="212.26 289.16 212.26 359.8 230.82 359.8 230.82 304.29 212.26 289.16"/><path class="cls-2" d="M332.86,143.63H160a21.64,21.64,0,0,0-21.64,21.65V338.16A21.64,21.64,0,0,0,160,359.8h49.55V286.93l-21.3-17.36V215.33a8,8,0,1,1,2.74,0v52.93l18.56,15.13V264.51a9.41,9.41,0,1,1,2.74,0v21.12L233.56,303V359.8h22.18V275.28l-18.49-10V239.5a8,8,0,1,1,2.75,0v24.17l15.74,8.49v-8.24L272,247.66V179.71a9.41,9.41,0,1,1,2.74,0V248.8l-16.27,16.26v8.58L281,285.77v74h19.77V319.22a8,8,0,1,1,2.74,0V359.8h29.36a21.64,21.64,0,0,0,21.64-21.64V165.28A21.64,21.64,0,0,0,332.86,143.63Z"/><path class="cls-2" d="M217.56,255.21a6.66,6.66,0,1,0-1.95,4.71A6.67,6.67,0,0,0,217.56,255.21Z"/><path class="cls-2" d="M280.05,170.41a6.67,6.67,0,1,0-2,4.72A6.68,6.68,0,0,0,280.05,170.41Z"/></svg>