<?xml version="1.0" encoding="utf-8"?>
<!-- Generator: Adobe Illustrator 24.0.3, SVG Export Plug-In . SVG Version: 6.00 Build 0)  -->
<svg version="1.1" id="Layer_1" xmlns="http://www.w3.org/2000/svg" xmlns:xlink="http://www.w3.org/1999/xlink" x="0px" y="0px"
	 viewBox="0 0 500 500" style="enable-background:new 0 0 500 500;" xml:space="preserve">
<style type="text/css">
	.st0{fill:#AECB8D;}
	.st1{fill:#A7C87E;}
	.st2{fill:none;stroke:#AECB8D;stroke-width:2;stroke-miterlimit:10;}
	.st3{fill:#FFFFFF;}
</style>
<g>
	<path class="st0" d="M250.2,18.8c31.2,0,61.4,6.1,89.9,18.1c27.5,11.6,52.2,28.3,73.4,49.5s37.9,45.9,49.5,73.4
		c12,28.5,18.1,58.7,18.1,89.9c0,31.2-6.1,61.4-18.1,89.9c-11.6,27.5-28.3,52.2-49.5,73.4c-21.2,21.2-45.9,37.9-73.4,49.5
		c-28.5,12-58.7,18.1-89.9,18.1s-61.4-6.1-89.9-18.1c-27.5-11.6-52.2-28.3-73.4-49.5c-21.2-21.2-37.9-45.9-49.5-73.4
		c-12-28.5-18.1-58.7-18.1-89.9c0-31.2,6.1-61.4,18.1-89.9c11.6-27.5,28.3-52.2,49.5-73.4s45.9-37.9,73.4-49.5
		C188.8,24.9,219,18.8,250.2,18.8 M250.2,8.8C117.1,8.8,9.3,116.6,9.3,249.7s107.9,240.9,240.9,240.9s240.9-107.9,240.9-240.9
		S383.3,8.8,250.2,8.8L250.2,8.8z"/>
</g>
<g>
	<polyline class="st1" points="141.2,95 141.2,365.6 147.8,365.6 147.8,95 	"/>
	<path class="st1" d="M268.5,167.9c18.9,0,34.2,15.3,34.2,34.2v97.1c0,18.9-15.3,34.2-34.2,34.2H216c-18.9,0-34.2-15.3-34.2-34.2
		v-97.1c0-18.9,15.3-34.2,34.2-34.2H268.5 M268.5,165.1H216c-20.4,0-37,16.6-37,37v97.1c0,20.4,16.6,37,37,37h52.5
		c20.4,0,37-16.6,37-37v-97.1C305.5,181.7,288.9,165.1,268.5,165.1z"/>
	<path class="st1" d="M180,211.1v84c0,22.9,18,41.4,40.1,41.4h45c22.2,0,40.1-18.6,40.1-41.4v-84"/>
	<polyline class="st3" points="184.2,228.4 220.4,228.4 220.4,225.5 184.2,225.5 	"/>
	<polyline class="st3" points="184.2,247 240.7,247 240.7,244.2 184.2,244.2 	"/>
	<polyline class="st3" points="184.2,261.7 220.4,261.7 220.4,258.9 184.2,258.9 	"/>
	<polyline class="st3" points="184.2,278.1 240.7,278.1 240.7,275.2 184.2,275.2 	"/>
	<polyline class="st3" points="184.2,293.9 220.4,293.9 220.4,291.1 184.2,291.1 	"/>
	<polygon class="st1" points="263.7,346.7 263.7,345.3 222.2,345.3 222.2,337.4 262.3,337.4 262.3,346.7 263.7,346.7 263.7,345.3 
		263.7,346.7 265.1,346.7 265.1,334.6 219.4,334.6 219.4,348.1 265.1,348.1 265.1,346.7 	"/>
	<path class="st1" d="M250.4,355.7v-1.4c-2.6,0-5.3,0-7.9,0c-0.2,0-0.3,0-0.5,0c-2.7,0-5.3,0-8,0v1.4h1.4c0-3,0-6,0-9H234v1.4h15
		l0,7.6H250.4v-1.4V355.7h1.4v-10.5h-19.2v1.4c0,3,0,6,0,9v1.4h1.4c2.7,0,5.3,0,8,0c0.2,0,0.3,0,0.5,0c2.6,0,5.3,0,7.9,0h1.4v-1.4
		H250.4z"/>
	<path class="st1" d="M241.3,357.1c5.2,14.4,14.2,26,25.1,34c10.9,8,23.6,12.4,36.3,12.4c4,0,8.1-0.5,12-1.4
		c7.9-1.9,14.5-5.4,20-9.7c8.2-6.4,13.9-14.4,17.6-21c3.7-6.6,5.4-11.7,5.6-12.4l0.1-0.2V169.6h-2.8l0,188.9h1.4l-1.3-0.4
		c-0.2,0.7-3.1,9.3-9.6,18.6c-3.3,4.6-7.4,9.4-12.6,13.5c-5.2,4.1-11.4,7.4-18.9,9.1c-3.7,0.9-7.6,1.3-11.4,1.3
		c-12,0-24.2-4.2-34.6-11.8c-10.4-7.7-19.1-18.8-24.1-32.6L241.3,357.1L241.3,357.1z"/>
	<path class="st1" d="M243.9,147.3v-1.4h-3.4c-5.9,0-10.7,4.8-10.7,10.7v0c0,5.9,4.8,10.7,10.7,10.7h3.4c5.9,0,10.7-4.8,10.7-10.7v0
		c0-5.9-4.8-10.7-10.7-10.7V147.3v1.4c2.2,0,4.1,0.9,5.6,2.3c1.4,1.4,2.3,3.4,2.3,5.6v0c0,2.2-0.9,4.1-2.3,5.6
		c-1.4,1.4-3.4,2.3-5.6,2.3h-3.4c-2.2,0-4.1-0.9-5.6-2.3c-1.4-1.4-2.3-3.4-2.3-5.6v0c0-2.2,0.9-4.1,2.3-5.6c1.4-1.4,3.4-2.3,5.6-2.3
		h3.4V147.3z"/>
	<polyline class="st1" points="146.4,157.8 242.4,157.8 242.4,154.9 146.4,154.9 	"/>
</g>
</svg>
