<svg id="Layer_1" data-name="Layer 1" xmlns="http://www.w3.org/2000/svg" viewBox="0 0 500 500"><defs><style>.cls-1{fill:#aecb8d;}.cls-2{fill:#a7c87e;}</style></defs><path class="cls-1" d="M250.2,18.78a231,231,0,0,1,89.88,443.69A231,231,0,0,1,160.32,36.93,229.43,229.43,0,0,1,250.2,18.78m0-10C117.15,8.78,9.29,116.65,9.29,249.7S117.15,490.62,250.2,490.62,491.12,382.75,491.12,249.7,383.26,8.78,250.2,8.78Z"/><path class="cls-2" d="M351.83,425.46a1.43,1.43,0,0,0-.31-.24c-.25-.1-.5-.19-.76-.27a10,10,0,0,1-5.06-3.35l-3-3.6-19.54-23.5-11.31-13.6-.6-.73a10.22,10.22,0,0,1,1-13.95c.29-.27.61-.52.91-.8a3.35,3.35,0,0,0,.33-.4,11.5,11.5,0,0,0-1-1.31l-2-2.39a.39.39,0,0,0-.48-.06l-1,.64a63,63,0,0,1-19.53,8.22,61.5,61.5,0,0,1-7,1.2c-2.14.23-4.27.36-6.42.43a38.33,38.33,0,0,1-4.15-.1c-1.33-.11-2.67-.17-4-.32a60.74,60.74,0,0,1-7-1.2A61.84,61.84,0,0,1,238.51,360a62.73,62.73,0,0,1-23.8-33.46,64,64,0,0,1-2.45-21.46,62.42,62.42,0,0,1,17.19-39.76,61.63,61.63,0,0,1,16.84-12.67,63.26,63.26,0,0,1,15.45-5.56,61.44,61.44,0,0,1,8.2-1.22,55.59,55.59,0,0,1,6.83-.17l1.47,0a57.54,57.54,0,0,1,9.7,1.2,59,59,0,0,1,9.12,2.62c.46.17.93.33,1.37.54a5.37,5.37,0,0,1,3.18,4.91,5.56,5.56,0,0,1-7.61,5.32c-1.18-.43-2.36-.84-3.55-1.21a47.56,47.56,0,0,0-8.75-1.89,51.4,51.4,0,0,0-45.82,17.66,51.3,51.3,0,0,0-11,21.08,52.07,52.07,0,0,0-1.28,7.12,52.83,52.83,0,0,0-.13,9.9,50.69,50.69,0,0,0,3.27,14.32,52.18,52.18,0,0,0,34.91,31.49,53.67,53.67,0,0,0,6.42,1.3,49.41,49.41,0,0,0,10,.41,50.46,50.46,0,0,0,22.53-6.64,51.61,51.61,0,0,0,23.7-28.69,49.49,49.49,0,0,0,2.09-8.58,52.07,52.07,0,0,0,.6-7.88,51.36,51.36,0,0,0-2.37-15.57,7.86,7.86,0,0,1-.43-2.5,5.57,5.57,0,0,1,10.82-1.6c.44,1.32.82,2.65,1.17,4a60.93,60.93,0,0,1,1.59,8.69,59.5,59.5,0,0,1,.26,10.84,62.56,62.56,0,0,1-17.34,39.7c-.43.45-.88.88-1.31,1.34a3.15,3.15,0,0,0-.31.41,2.63,2.63,0,0,0,.2.38c.87,1.08,1.75,2.15,2.62,3.22a.82.82,0,0,0,.24.15c.37-.06.6-.35.89-.55a9.63,9.63,0,0,1,3.39-1.53,10,10,0,0,1,9.73,2.74c.35.34.66.72,1,1.1l33.34,40.09q.48.57.93,1.14a9.52,9.52,0,0,1,1.41,2.43,4.72,4.72,0,0,1,.44,1.81,4.88,4.88,0,0,0,.26,1.42v1.08a8,8,0,0,0-.27,1.69,3.92,3.92,0,0,1-.32,1.43,10.12,10.12,0,0,1-3.07,4.29l-9.63,8a10.31,10.31,0,0,1-3.72,2,2.68,2.68,0,0,0-1.21.52Zm-31.2-51.6a4.21,4.21,0,0,0,.28.45c.27.35.56.69.85,1L332,387.71,353,412.87a7.57,7.57,0,0,0,.53.6,1.39,1.39,0,0,0,.37.2c.32-.25.64-.49.95-.75l3.09-2.57,3.5-2.92a1.1,1.1,0,0,0,.49-.65c-.48-.67-1-1.3-1.58-2l-15.6-18.76-15-18a11.26,11.26,0,0,0-.81-.88c-.05,0-.17,0-.25,0a.48.48,0,0,0-.23.13l-7.52,6.26A2,2,0,0,0,320.63,373.86Z"/><path class="cls-2" d="M126.67,129.08a1.31,1.31,0,0,0,.5-.77,3.56,3.56,0,0,1,.13-.65,6.59,6.59,0,0,1,4.51-4.57,4.16,4.16,0,0,1,.92-.18c.62-.06,1.24-.1,1.87-.1h29.88a16.9,16.9,0,0,1,1.74.09,5.57,5.57,0,0,1,2.87,9.65,5.12,5.12,0,0,1-3.26,1.38c-.53,0-1.07,0-1.61,0H139c-.68,0-.8.13-.82.77,0,.22,0,.44,0,.67s0,.62,0,.93q0,122.49,0,245a4.83,4.83,0,0,0,.18,2.23,6.57,6.57,0,0,0,2.12.12q53.67,0,107.33,0h1.61a6.25,6.25,0,0,1,2.09.44,5.57,5.57,0,0,1-.69,10.55,5.51,5.51,0,0,1-1.45.2H134.69a10.22,10.22,0,0,1-2.4-.17,6.57,6.57,0,0,1-5-4.85,4.51,4.51,0,0,1-.1-.53.85.85,0,0,0-.49-.6Z"/><path class="cls-2" d="M237.37,79.46a2.5,2.5,0,0,0,.51.16c.4,0,.8.07,1.2.08A30.71,30.71,0,0,1,250,82.23a33.25,33.25,0,0,1,18.85,21.25,32.19,32.19,0,0,1,1.29,9c0,.49,0,1,0,1.42a1.68,1.68,0,0,0,1,.42,31.09,31.09,0,0,1,5.51,1.62,33.22,33.22,0,0,1,19.94,22.36,30.08,30.08,0,0,1,1.07,8.75,5.25,5.25,0,0,1-3.34,4.91,5.52,5.52,0,0,1-7.52-3.49,7.54,7.54,0,0,1-.24-1.58c-.05-.49-.05-1-.08-1.47a21.33,21.33,0,0,0-4.93-12.5,21.65,21.65,0,0,0-11.79-7.46,20.83,20.83,0,0,0-5-.64h-1.21a5.49,5.49,0,0,1-5.29-5.36,6.5,6.5,0,0,1,.15-1.59,21.55,21.55,0,0,0,.58-4.78,20.29,20.29,0,0,0-.23-3.48,22.1,22.1,0,0,0-17.37-18.37,20.08,20.08,0,0,0-5.18-.46,21.83,21.83,0,0,0-14.46,6.16,21.59,21.59,0,0,0-6.24,11,20.62,20.62,0,0,0-.49,6.12,24.36,24.36,0,0,0,.52,3.71,5.73,5.73,0,0,1-.09,3.18,5.48,5.48,0,0,1-5.12,3.84h-.93A22.09,22.09,0,0,0,188.47,140c-.42,1.28-.3,1.29.9,1.29H244a10.09,10.09,0,0,1,2.13.14,5.58,5.58,0,0,1,1.09,10.52,5.32,5.32,0,0,1-2.07.49H181.54a5.51,5.51,0,0,1-5.2-4.44,6,6,0,0,1-.09-1.2,31.46,31.46,0,0,1,1.95-11.29,33.24,33.24,0,0,1,20-19.88,30.65,30.65,0,0,1,4.64-1.29,6.82,6.82,0,0,0,.8-.22.59.59,0,0,0,.23-.55c0-.63,0-1.25,0-1.88a33.18,33.18,0,0,1,24.67-31,27.15,27.15,0,0,1,6.08-1q.74,0,1.47-.09a1.94,1.94,0,0,0,.5-.16Z"/><path class="cls-2" d="M249.37,300.64a5.56,5.56,0,0,1,3.7,1.37c.37.32.73.66,1.1,1L273,320.35l1,.9c.66.63.77.58,1.36-.12l.52-.62,48.69-57.3q4.69-5.5,9.38-11c.23-.27.45-.55.7-.8a5.57,5.57,0,0,1,8.9,1.2,5.38,5.38,0,0,1-.3,5.84,15.31,15.31,0,0,1-1,1.25l-12.85,15.12-25.25,29.72-24.31,28.6a11.4,11.4,0,0,1-.81.89,5.59,5.59,0,0,1-7.24.35,9,9,0,0,1-.81-.7l-21.19-19.53-3.65-3.35a9.13,9.13,0,0,1-.77-.75,5.57,5.57,0,0,1,2.58-9.15A14.11,14.11,0,0,1,249.37,300.64Z"/><path class="cls-2" d="M237,186h64.31c.5,0,1,0,1.48,0a5.58,5.58,0,0,1,2,10.73,6,6,0,0,1-2,.43H172.26A8.67,8.67,0,0,1,170,197a5.58,5.58,0,0,1-1.36-10.25,5,5,0,0,1,2.54-.73H237Z"/><path class="cls-2" d="M345.7,177.75V224.8c0,.54,0,1.07,0,1.61a5.56,5.56,0,0,1-10.85,1.28,6.56,6.56,0,0,1-.24-1.45c0-.63,0-1.25,0-1.88v-88.2c0-.58,0-1.16,0-1.74a.47.47,0,0,0-.43-.44l-1.34,0H310.5c-.53,0-1.07,0-1.6,0a5.56,5.56,0,0,1-1.26-10.83,4.77,4.77,0,0,1,.91-.2c.58-.05,1.16-.09,1.74-.09h27.87c.57,0,1.16,0,1.73.08a6.53,6.53,0,0,1,5.78,5.93c0,.58,0,1.16,0,1.74Z"/><path class="cls-2" d="M194.62,248.41h-22.1c-.45,0-.9,0-1.34,0a5.58,5.58,0,0,1-1.32-10.94,5.85,5.85,0,0,1,1.71-.25h45.15a10.1,10.1,0,0,1,2.26.18,5.58,5.58,0,0,1-.92,11c-.44,0-.89,0-1.34,0Z"/><path class="cls-2" d="M183.44,351.7H172.06a6.56,6.56,0,0,1-2.24-.3,5.59,5.59,0,0,1,.76-10.75,9.49,9.49,0,0,1,1.6-.11h22.48a8.55,8.55,0,0,1,1.6.11,5.57,5.57,0,0,1-.91,11H183.44Z"/><path class="cls-2" d="M177.46,289.24h5.35a7.75,7.75,0,0,1,1.86.21,5.58,5.58,0,0,1-1,11,7,7,0,0,1-.8,0h-10.7a7.9,7.9,0,0,1-2-.23,5.58,5.58,0,0,1,.12-10.77,7.2,7.2,0,0,1,1.85-.21h5.35Z"/><path class="cls-2" d="M244.93,111.69a8,8,0,1,1-8-8A7.86,7.86,0,0,1,244.93,111.69Z"/><path class="cls-2" d="M310.35,268.86a5.26,5.26,0,0,1-2.69-.72,8.82,8.82,0,0,1-2-1.53,5.35,5.35,0,0,1-1.37-5.55,5.54,5.54,0,0,1,8.3-3.08,9.07,9.07,0,0,1,1.49,1.12,5.59,5.59,0,0,1-2.52,9.63A9.62,9.62,0,0,1,310.35,268.86Z"/></svg>