<?xml version="1.0" encoding="utf-8"?>
<!-- Generator: Adobe Illustrator 24.0.3, SVG Export Plug-In . SVG Version: 6.00 Build 0)  -->
<svg version="1.1" id="Layer_1" xmlns="http://www.w3.org/2000/svg" xmlns:xlink="http://www.w3.org/1999/xlink" x="0px" y="0px"
	 viewBox="0 0 500 500" style="enable-background:new 0 0 500 500;" xml:space="preserve">
<style type="text/css">
	.st0{fill:#AECB8D;}
	.st1{fill:#A7C87E;}
	.st2{fill:none;stroke:#AECB8D;stroke-width:2;stroke-miterlimit:10;}
	.st3{fill:#FFFFFF;}
	.st4{fill:none;stroke:#A7C87E;stroke-width:3;stroke-miterlimit:10;}
	.st5{fill:none;stroke:#A7C87E;stroke-width:2;stroke-miterlimit:10;}
	.st6{fill:none;stroke:#A7C87E;stroke-width:2;stroke-miterlimit:10;stroke-dasharray:5.9695,5.9695;}
	.st7{fill:none;stroke:#FFFFFF;stroke-linecap:round;stroke-miterlimit:10;}
	.st8{fill:none;stroke:#A7C87E;stroke-width:5;stroke-miterlimit:10;}
	.st9{fill:none;stroke:#A7C87E;stroke-miterlimit:10;}
	.st10{fill:none;stroke:#A7C87E;stroke-width:10;stroke-miterlimit:10;}
	.st11{fill:url(#);}
</style>
<g>
	<path class="st0" d="M250.2,18.8c31.2,0,61.4,6.1,89.9,18.1c27.5,11.6,52.2,28.3,73.4,49.5s37.9,45.9,49.5,73.4
		c12,28.5,18.1,58.7,18.1,89.9c0,31.2-6.1,61.4-18.1,89.9c-11.6,27.5-28.3,52.2-49.5,73.4c-21.2,21.2-45.9,37.9-73.4,49.5
		c-28.5,12-58.7,18.1-89.9,18.1s-61.4-6.1-89.9-18.1c-27.5-11.6-52.2-28.3-73.4-49.5c-21.2-21.2-37.9-45.9-49.5-73.4
		c-12-28.5-18.1-58.7-18.1-89.9c0-31.2,6.1-61.4,18.1-89.9c11.6-27.5,28.3-52.2,49.5-73.4s45.9-37.9,73.4-49.5
		C188.8,24.9,219,18.8,250.2,18.8 M250.2,8.8C117.1,8.8,9.3,116.6,9.3,249.7s107.9,240.9,240.9,240.9s240.9-107.9,240.9-240.9
		S383.3,8.8,250.2,8.8L250.2,8.8z"/>
</g>
<g>
	<path class="st4" d="M223.9,183.9l-7.1-23.7c0,0-2.4-15.4-20.2-15.4s-20.2,0-35.6,17.8s-30.8,37.9-30.8,37.9s-19,21.3-19,36.8
		s0,20.2-5.9,32c-5.9,11.9-17.8,47.4-16.6,62.9c1.2,15.4,1.2,52.2,27.3,42.7c26.1-9.5,35.6-15.4,54.5-16.6s55.7-2.4,61.7-24.9
		s2.4-40.3,7.1-49.8s13-39.1,4.7-55.7C235.7,211.2,223.9,183.9,223.9,183.9z"/>
	<path class="st4" d="M278.3,183.9l7.1-23.7c0,0,2.4-15.4,20.2-15.4c17.8,0,20.2,0,35.6,17.8c15.4,17.8,30.8,37.9,30.8,37.9
		s19,21.3,19,36.8s0,20.2,5.9,32c5.9,11.9,17.8,47.4,16.6,62.9c-1.2,15.4-1.2,52.2-27.3,42.7c-26.1-9.5-35.6-15.4-54.5-16.6
		s-55.7-2.4-61.7-24.9c-5.9-22.5-2.4-40.3-7.1-49.8c-4.7-9.5-13-39.1-4.7-55.7C266.5,211.2,278.3,183.9,278.3,183.9z"/>
	<path class="st1" d="M236.9,86.7l3.9,1.1c6,1.6,12.3,1.7,18.4,0.2l5-1.3v93.7l11.9,9.5l-11.9,26.1L250,198.2l-11.9,16.6L226.3,191
		l9.5-10.7L236.9,86.7z"/>
</g>
</svg>
