<?xml version="1.0" encoding="utf-8"?>
<!-- Generator: Adobe Illustrator 24.0.3, SVG Export Plug-In . SVG Version: 6.00 Build 0)  -->
<svg version="1.1" id="Layer_1" xmlns="http://www.w3.org/2000/svg" xmlns:xlink="http://www.w3.org/1999/xlink" x="0px" y="0px"
	 viewBox="0 0 500 500" style="enable-background:new 0 0 500 500;" xml:space="preserve">
<style type="text/css">
	.st0{fill:#AECB8D;}
	.st1{fill:#A7C87E;}
	.st2{fill:none;stroke:#AECB8D;stroke-width:2;stroke-miterlimit:10;}
	.st3{fill:#FFFFFF;}
	.st4{fill:none;stroke:#A7C87E;stroke-width:3;stroke-miterlimit:10;}
	.st5{fill:none;stroke:#A7C87E;stroke-width:2;stroke-miterlimit:10;}
	.st6{fill:none;stroke:#A7C87E;stroke-width:2;stroke-miterlimit:10;stroke-dasharray:5.9695,5.9695;}
	.st7{fill:none;stroke:#FFFFFF;stroke-linecap:round;stroke-miterlimit:10;}
	.st8{fill:none;stroke:#A7C87E;stroke-width:5;stroke-miterlimit:10;}
	.st9{fill:none;stroke:#A7C87E;stroke-miterlimit:10;}
	.st10{fill:none;stroke:#A7C87E;stroke-width:10;stroke-miterlimit:10;}
	.st11{fill:url(#);}
	.st12{fill:#A7C87E;stroke:#A7C87E;stroke-width:0.25;stroke-miterlimit:10;}
	.st13{fill:#FFFFFF;stroke:#FFFFFF;stroke-width:0.25;stroke-miterlimit:10;}
	.st14{fill:none;stroke:#A7C87E;stroke-width:0.25;stroke-miterlimit:10;}
</style>
<g>
	<path class="st0" d="M250.2,18.8c31.2,0,61.4,6.1,89.9,18.1c27.5,11.6,52.2,28.3,73.4,49.5s37.9,45.9,49.5,73.4
		c12,28.5,18.1,58.7,18.1,89.9s-6.1,61.4-18.1,89.9c-11.6,27.5-28.3,52.2-49.5,73.4s-45.9,37.9-73.4,49.5
		c-28.5,12-58.7,18.1-89.9,18.1s-61.4-6.1-89.9-18.1c-27.5-11.6-52.2-28.3-73.4-49.5s-37.9-45.9-49.5-73.4
		c-12-28.5-18.1-58.7-18.1-89.9s6.1-61.4,18.1-89.9c11.6-27.5,28.3-52.2,49.5-73.4s45.9-37.9,73.4-49.5
		C188.8,24.9,219,18.8,250.2,18.8 M250.2,8.8C117.1,8.8,9.3,116.6,9.3,249.7s107.9,240.9,240.9,240.9s240.9-107.9,240.9-240.9
		S383.3,8.8,250.2,8.8L250.2,8.8z"/>
</g>
<g>
	<path class="st1" d="M412,224.5c-8.6,0-15.6,7-15.6,15.6c0,2.4,0.5,4.6,1.5,6.6l-43.7,27.1l-47.4-27.5c0.8-1.9,1.2-3.9,1.2-6.1
		c0-8.6-7-15.6-15.6-15.6c-8.6,0-15.6,7-15.6,15.6c0,2.2,0.5,4.3,1.3,6.3l-11,6.3l-36.1,20.7l-59.9-34.6V170l47.1-27.2
		c2.8,3.8,7.4,6.3,12.5,6.3c8.6,0,15.6-7,15.6-15.6c0-8.6-7-15.6-15.6-15.6s-15.6,7-15.6,15.6c0,2.2,0.4,4.2,1.3,6.1l-46.7,27
		l1.6-3.3l-1.6-0.8l-45.8-22.3c0-0.1,0-0.2,0-0.2c0-8.6-7-15.6-15.6-15.6s-15.6,7-15.6,15.6s7,15.6,15.6,15.6c3.8,0,7.2-1.3,9.9-3.6
		l47.4,23l1.9-4v68.5l-59.1,34.1v71.1l61.6,35.6l61.6-35.6v-67.5l37.3-21.5l11-6.3c2.8,3.7,7.3,6.2,12.4,6.2c5.1,0,9.7-2.5,12.5-6.3
		l47.1,27.4h-4.2v50.2c-5.1,2.5-8.7,7.8-8.7,14c0,8.6,7,15.6,15.6,15.6s15.6-7,15.6-15.6c0-6.4-3.9-11.9-9.4-14.3v-49.8h-4.6
		l43.5-26.9c2.9,3.6,7.3,5.9,12.2,5.9c8.6,0,15.6-7,15.6-15.6C427.6,231.5,420.6,224.5,412,224.5z M164,170.3l-43.1-21
		c1.1-1.5,2-3.3,2.5-5.2l43.1,21L164,170.3z M170.1,376.3l-58-33.5v-66.9l57.8-33.4l58.2,33.6v66.7L170.1,376.3z M357.3,325.5
		c-0.8-0.1-1.7-0.2-2.5-0.2c-1.1,0-2.2,0.1-3.3,0.3v-45.3h5.8V325.5z"/>
	
		<rect x="192.8" y="235.5" transform="matrix(0.5015 -0.8651 0.8651 0.5015 -131.7368 300.147)" class="st1" width="3.6" height="57.8"/>
	
		<rect x="168.1" y="352.1" transform="matrix(0.8586 -0.5126 0.5126 0.8586 -153.6419 150.7164)" class="st1" width="56.5" height="3.6"/>
	<rect x="117.4" y="282.1" class="st1" width="3.6" height="57.2"/>
</g>
</svg>
