<svg id="Layer_1" data-name="Layer 1" xmlns="http://www.w3.org/2000/svg" viewBox="0 0 500 500"><defs><style>.cls-1{fill:#aecb8d;}.cls-2{fill:#a7c87e;}</style></defs><path class="cls-1" d="M250.2,18.78a231,231,0,0,1,89.88,443.69A231,231,0,0,1,160.32,36.93,229.43,229.43,0,0,1,250.2,18.78m0-10C117.15,8.78,9.29,116.65,9.29,249.7S117.15,490.62,250.2,490.62,491.12,382.75,491.12,249.7,383.26,8.78,250.2,8.78Z"/><path class="cls-2" d="M222.59,397.66c-9.21-1.9-17.08-6.1-23.09-13.5a36.43,36.43,0,0,1-8.37-22.22c-.13-3.79,0-7.59,0-11.38,0-2,.71-2.72,2.68-2.68,4.17.09,8.35.1,12.52,0,2-.05,2.69.89,2.66,2.74,0,2.75.17,5.52,0,8.25-.91,12.09,8.24,21.64,21.7,21.56,29.42-.18,58.84,0,88.25-.08,4.45,0,8.91.33,13.36-.34,10.25-1.52,17.22-9.38,17.23-19.74,0-29.23,0-58.46,0-87.68,0-5.67-.86-5.25,5.22-4.78a64.42,64.42,0,0,0,8.79-.11c3.67-.21,3.8-.08,3.81,3.71,0,6.45,0,12.91,0,19.36,0,22.78.05,45.55,0,68.33,0,13.63-5.38,24.63-16.69,32.52-4.43,3.09-9.48,4.71-14.64,6Z"/><path class="cls-2" d="M199.24,331.21c-3.41,0-6.83,0-10.25,0-5.68-.06-9.2-3.55-9.27-9.27-.06-5.13-.14-10.26,0-15.38.08-2.36-.76-3.25-3-3.88-30.87-8.82-51.41-28.56-61.86-58.85-.85-2.5-1.77-5-.71-7.77s2.76-4.92,5.61-5.62c2.54-.64,2.12-2.08,1.7-3.81-3.48-14.48-7-29-10.37-43.46-1.41-6.09-3.48-12.06-3.84-18.36-.93-15.77,5.53-27.74,18.86-36a29.65,29.65,0,0,1,11.39-4.3c2.13-.31,3.16-1.37,4-3.34,4.54-10.46,15.11-16.39,26.79-15.25,10.54,1,19.68,9.34,22.13,20.12a25.87,25.87,0,0,1-16.25,29.78,25.3,25.3,0,0,1-31.61-11.36c-1.36-2.5-2.72-2.57-5-1.64-9,3.72-14.52,13.28-12.35,22.84,4.39,19.33,9.11,38.59,13.65,57.89.4,1.74,1.25,2,2.85,1.75,6.75-1.13,9.68.74,12.09,7.3,6.64,18.08,19.63,28.91,38.47,32C215,268.31,237,254.71,244.75,233c2.55-7.16,4.95-8.69,12.59-7.69,2.19.28,2.31-1.15,2.63-2.5q4.3-18,8.57-36c1.52-6.37,3.12-12.72,4.54-19.1,2.43-10.94-1.85-20.33-11.06-24.55-3.83-1.75-4.06-1.68-6.2,1.91A26,26,0,0,1,207.63,131c.17-11.37,8.54-21.67,19.91-24.5a25.33,25.33,0,0,1,29.64,14.43,5.64,5.64,0,0,0,4.43,3.65,37.92,37.92,0,0,1,30,39.83c-.51,7.5-3,14.67-4.7,22-3.11,13.5-6.37,27-9.63,40.42-.44,1.81-.47,2.88,1.67,3.68,5,1.85,7,6,5.55,11.22a88.62,88.62,0,0,1-61.95,60.9c-2.68.71-3.48,1.87-3.37,4.5.19,4.55.09,9.11,0,13.67-.09,7.12-3.48,10.46-10.53,10.47Z"/><path class="cls-2" d="M358.49,251.45a38.65,38.65,0,1,1,.23-77.3c21.34,0,38.78,17.35,38.75,38.48A38.73,38.73,0,0,1,358.49,251.45Z"/></svg>