<svg id="Layer_1" data-name="Layer 1" xmlns="http://www.w3.org/2000/svg" viewBox="0 0 500 500"><defs><style>.cls-1{fill:#aecb8d;}.cls-2{fill:#a7c87e;}</style></defs><path class="cls-1" d="M250.2,18.78a231,231,0,0,1,89.88,443.69A231,231,0,0,1,160.32,36.93,229.43,229.43,0,0,1,250.2,18.78m0-10C117.15,8.78,9.29,116.65,9.29,249.7S117.15,490.62,250.2,490.62,491.12,382.75,491.12,249.7,383.26,8.78,250.2,8.78Z"/><path class="cls-2" d="M361.81,257.81H96.74v-3.1l33.2-33.2H328.61l33.2,33.2Z"/><path class="cls-2" d="M186.71,174.11H245a44.16,44.16,0,0,1,44.16,44.16v4.13a0,0,0,0,1,0,0H156.66a0,0,0,0,1,0,0V204.16A30,30,0,0,1,186.71,174.11Z"/><rect class="cls-2" x="266.95" y="191.49" width="157.4" height="13.54"/><rect class="cls-2" x="427.02" y="186.76" width="13.05" height="23.19" rx="5.97"/><path class="cls-2" d="M374.75,264.34H96.09a32,32,0,0,0-32,32h0a32,32,0,0,0,32,32H374.75a32,32,0,0,0,32-32h0A32,32,0,0,0,374.75,264.34Zm-259.65,50a20,20,0,1,1,20-20A20,20,0,0,1,115.1,314.33Zm62.33,0a20,20,0,1,1,20-20A20,20,0,0,1,177.43,314.33Zm62.33,0a20,20,0,1,1,20-20A20,20,0,0,1,239.76,314.33Zm62.33,0a20,20,0,1,1,20-20A20,20,0,0,1,302.09,314.33Zm62.33,0a20,20,0,1,1,20-20A20,20,0,0,1,364.42,314.33Z"/></svg>