<svg id="Layer_1" data-name="Layer 1" xmlns="http://www.w3.org/2000/svg" viewBox="0 0 500 500"><defs><style>.cls-1{fill:#aecb8d;}.cls-2{fill:#a7c87e;}</style></defs><path class="cls-1" d="M250.2,18.78a231,231,0,0,1,89.88,443.69A231,231,0,0,1,160.32,36.93,229.43,229.43,0,0,1,250.2,18.78m0-10C117.15,8.78,9.29,116.65,9.29,249.7S117.15,490.62,250.2,490.62,491.12,382.75,491.12,249.7,383.26,8.78,250.2,8.78Z"/><path class="cls-2" d="M226.57,198.75a14.32,14.32,0,1,1-4.81-19.67A14.31,14.31,0,0,1,226.57,198.75Z"/><path class="cls-2" d="M329.75,261.35a14.32,14.32,0,1,1-4.82-19.67A14.32,14.32,0,0,1,329.75,261.35Z"/><path class="cls-2" d="M241.68,298.39,209.9,279.11l33.7-55.54a18.59,18.59,0,1,1,31.78,19.28Z"/><rect class="cls-2" x="218.56" y="262.74" width="13.19" height="51.27" transform="translate(-138.18 331.27) rotate(-58.75)"/><path class="cls-2" d="M150.68,404.89l60.37-126.31c1.59-3.34,4.92-5.2,7-3.92l23.8,14.44c2.1,1.27,2,5.08-.24,8L157.46,409C153.3,414.54,147.7,411.14,150.68,404.89Z"/><path class="cls-2" d="M324.71,137.37c-.6,1.26-1.87,2-2.66,1.49l-9-5.48c-.8-.48-.76-1.93.09-3l41-54.5Z"/><path class="cls-2" d="M337.49,123.32l-17.82-10.81a5.46,5.46,0,0,1,5.67-9.34L343.15,114a5.46,5.46,0,0,1-5.66,9.34Z"/><path class="cls-2" d="M250,142.35A6.63,6.63,0,0,1,256.92,131l94.41,57.28a6.63,6.63,0,1,1-6.88,11.34Z"/><path class="cls-2" d="M350.62,186.1a53.48,53.48,0,0,0-91.43-55.47Z"/><rect class="cls-2" x="265.29" y="136.32" width="41.07" height="107" transform="translate(-24.73 335.71) rotate(-58.75)"/><path class="cls-2" d="M213.85,204.13l5.41-7.92a1.54,1.54,0,0,0-.47-2.18l-9.66-5.86a1.52,1.52,0,0,0-2.14.59l-4.28,8a12.82,12.82,0,0,0,11.14,7.39Z"/><path class="cls-2" d="M206.12,204.85a15.75,15.75,0,0,1-5.09-5L157.38,281.4A1.53,1.53,0,0,0,160,283l51.92-76A15.83,15.83,0,0,1,206.12,204.85Z"/><path class="cls-2" d="M317.54,266.73l5.28-7.72a1.5,1.5,0,0,0-.46-2.14L312.65,251a1.5,1.5,0,0,0-2.11.57l-4.42,8.26a12.92,12.92,0,0,0,4.73,5.08A12.75,12.75,0,0,0,317.54,266.73Z"/><path class="cls-2" d="M309.3,267.45a15.63,15.63,0,0,1-4.82-4.57L260.67,344.7a1.51,1.51,0,0,0,2.57,1.56l52.33-76.64A15.87,15.87,0,0,1,309.3,267.45Z"/><path class="cls-2" d="M306.54,247.27a12.84,12.84,0,0,0,4.31,17.62L324.16,243a12.84,12.84,0,0,0-17.62,4.31Z"/><path class="cls-2" d="M225.29,198A12.82,12.82,0,0,0,221,180.36l-13.3,21.92A12.8,12.8,0,0,0,225.29,198Z"/><path class="cls-2" d="M274.09,242.07a17.08,17.08,0,1,0-29.2-17.72L242.06,229l29.21,17.72Z"/><path class="cls-2" d="M304,245.72a15.81,15.81,0,0,1,21.73-5.32l1.05-1.72L223.58,176.07l-1,1.72a15.83,15.83,0,0,1-16.42,27.06l-1,1.72,34.42,20.88,2.82-4.66a20.08,20.08,0,0,1,34.34,20.84l-2.83,4.66,34.42,20.88,1.05-1.72A15.81,15.81,0,0,1,304,245.72Z"/></svg>