<svg id="Layer_1" data-name="Layer 1" xmlns="http://www.w3.org/2000/svg" viewBox="0 0 500 500"><defs><style>.cls-1{fill:#aecb8d;}.cls-2{fill:#a7c87e;}</style></defs><path class="cls-1" d="M250.2,18.78a231,231,0,0,1,89.88,443.69A231,231,0,0,1,160.32,36.93,229.43,229.43,0,0,1,250.2,18.78m0-10C117.15,8.78,9.29,116.65,9.29,249.7S117.15,490.62,250.2,490.62,491.12,382.75,491.12,249.7,383.26,8.78,250.2,8.78Z"/><path class="cls-2" d="M390.56,328.94a161.8,161.8,0,0,0,21-80.11l-114.79.27a46,46,0,0,1-21.32,37.69c-.77.5-1.55.95-2.34,1.4L333,388A161.91,161.91,0,0,0,390.56,328.94Z"/><path class="cls-2" d="M229.08,288.62a46,46,0,0,1-24.39-38L88.84,256.38a161.84,161.84,0,0,0,85.74,134.89Z"/><path class="cls-2" d="M225.93,209.05a46.06,46.06,0,0,1,45.15-2.46l52.78-102.9a161.82,161.82,0,0,0-159.69,6.81l61.7,98.6Z"/><circle class="cls-2" cx="250.78" cy="247.87" r="29.22"/></svg>