<svg id="Layer_1" data-name="Layer 1" xmlns="http://www.w3.org/2000/svg" viewBox="0 0 500 500"><defs><style>.cls-1{fill:#aecb8d;}.cls-2{fill:#a7c87e;}</style></defs><path class="cls-1" d="M250.2,18.78a231,231,0,0,1,89.88,443.69A231,231,0,0,1,160.32,36.93,229.43,229.43,0,0,1,250.2,18.78m0-10C117.15,8.78,9.29,116.65,9.29,249.7S117.15,490.62,250.2,490.62,491.12,382.75,491.12,249.7,383.26,8.78,250.2,8.78Z"/><path class="cls-2" d="M366.48,344.11,346.26,315.9c-9.09-.5-18.18-1-27.26-1.66-16.58-1.13-33.14-2.54-49.63-4.56-24-2.94-48.11-5.93-71.76-11.09-8.42-1.84-16.8-3.91-25.17-6L135.5,344.11c-19.14,26.7,1.21,62.65,35.45,62.65H331C365.27,406.76,385.62,370.81,366.48,344.11ZM186.33,306.49a20,20,0,0,1,20,19.34c.48,10.45-9.52,19.34-20,19.34a20,20,0,0,1-20-19.34C165.89,315.39,175.89,306.49,186.33,306.49Zm-8.67,83.57a10.63,10.63,0,0,1-10.61-10.27c-.25-5.55,5.06-10.28,10.61-10.28a10.63,10.63,0,0,1,10.61,10.28C188.52,385.34,183.21,390.06,177.66,390.06Zm28.75-15.28a13.12,13.12,0,0,1-13.09-12.68c-.32-6.86,6.24-12.69,13.09-12.69a13.12,13.12,0,0,1,13.1,12.69C219.83,369,213.26,374.78,206.41,374.78Z"/><path class="cls-2" d="M391.14,367.08A50.89,50.89,0,0,0,382,340.34L344.79,286.6q-2.85,1.38-5.84,2.5l37.93,54.79c21,30.27-1.32,71.05-38.83,71.05H162.69c-37.51,0-59.8-40.78-38.84-71.05l84.31-121.76v-123h-2.22a7.3,7.3,0,0,1,0-14.6h88.85a7.3,7.3,0,0,1,0,14.6h-2.22v57.17c2-.66,4.12-1.21,6.23-1.68V104.73a13.53,13.53,0,0,0-4-26.45H205.94a13.53,13.53,0,0,0-4,26.45V220.19l-83.2,120.15a50.25,50.25,0,0,0-3.29,52.59,52.64,52.64,0,0,0,18.75,20.23,53.85,53.85,0,0,0,28.5,8H338.05a53.84,53.84,0,0,0,28.49-8,52.57,52.57,0,0,0,18.75-20.23A51.07,51.07,0,0,0,391.14,367.08Z"/><path class="cls-2" d="M373,223.26h-4A54.9,54.9,0,1,1,353,184.43,54.72,54.72,0,0,1,369,223.26h8a62.91,62.91,0,1,0-18.43,44.49A62.72,62.72,0,0,0,377,223.26Z"/><path class="cls-2" d="M326.22,254.71h-10.5a32,32,0,0,1,32-32h10.5A32,32,0,0,1,326.22,254.71Z"/><path class="cls-2" d="M321.19,231.29l-7.43,7.43a32,32,0,0,1,0-45.25l7.43-7.43A32,32,0,0,1,321.19,231.29Z"/><path class="cls-2" d="M302,254.71h10.5a32,32,0,0,0-32-32H270A32,32,0,0,0,302,254.71Z"/></svg>