<?xml version="1.0" encoding="utf-8"?>
<!-- Generator: Adobe Illustrator 24.0.3, SVG Export Plug-In . SVG Version: 6.00 Build 0)  -->
<svg version="1.1" id="Layer_1" xmlns="http://www.w3.org/2000/svg" xmlns:xlink="http://www.w3.org/1999/xlink" x="0px" y="0px"
	 viewBox="0 0 500 500" style="enable-background:new 0 0 500 500;" xml:space="preserve">
<style type="text/css">
	.st0{fill:#AECB8D;}
	.st1{fill:#A7C87E;}
	.st2{fill:none;stroke:#AECB8D;stroke-width:2;stroke-miterlimit:10;}
	.st3{fill:#FFFFFF;}
</style>
<g>
	<path class="st0" d="M250.2,18.8c31.2,0,61.4,6.1,89.9,18.1c27.5,11.6,52.2,28.3,73.4,49.5s37.9,45.9,49.5,73.4
		c12,28.5,18.1,58.7,18.1,89.9s-6.1,61.4-18.1,89.9c-11.6,27.5-28.3,52.2-49.5,73.4s-45.9,37.9-73.4,49.5
		c-28.5,12-58.7,18.1-89.9,18.1s-61.4-6.1-89.9-18.1c-27.5-11.6-52.2-28.3-73.4-49.5s-37.9-45.9-49.5-73.4
		c-12-28.5-18.1-58.7-18.1-89.9s6.1-61.4,18.1-89.9c11.6-27.5,28.3-52.2,49.5-73.4s45.9-37.9,73.4-49.5
		C188.8,24.9,219,18.8,250.2,18.8 M250.2,8.8C117.1,8.8,9.3,116.6,9.3,249.7s107.9,240.9,240.9,240.9s240.9-107.9,240.9-240.9
		S383.3,8.8,250.2,8.8L250.2,8.8z"/>
</g>
<g>
	<g>
		<path class="st1" d="M346,411l-0.7-1.6l-68.2-162.2l34.3-81.6c0.7-1.6,1.4-3.2,2-4.9c1.6-4.3,2.8-8.8,3.5-13.4
			c0.5-3.4,0.8-6.9,0.8-10.4c0-20.8-9.4-39.4-24.1-51.9l0,0c-11.5-9.7-26.3-15.7-42.4-16v0h-1.4v0c-16.6,0-31.8,6-43.5,15.8
			c-14.9,12.4-24.3,31.2-24.3,52.1c0,3.2,0.2,6.3,0.6,9.4c0.5,3.7,1.3,7.2,2.4,10.7c1.3,4.2,3,8.3,5.1,12.1l32.9,78.1L154.4,410
			l46,19.4L250,311.5l50,118.8L346,411z M251.9,307l23.3-55.3l66.2,157.4l-39.5,16.6L251.9,307z M251.4,179.4l-1.5,3.5l-1.5-3.5
			l-25-59.4l-0.6-1.5c7.8-5.3,17.1-8.3,27.2-8.3c10,0,19.3,3,27,8.2l-0.7,1.7L251.4,179.4z M279,114l-0.4,1
			c-8.2-5.3-17.9-8.4-28.4-8.4c-10.6,0-20.4,3.1-28.6,8.5L221,114c-1-3.1-1.5-6.3-1.5-9.8c0-8.8,3.4-16.7,8.9-22.4
			c5.5-5.7,13-9.3,21.4-9.3h0.9l0,0c8.2,0.2,15.6,3.8,21,9.5c5.4,5.7,8.7,13.6,8.7,22.2C280.4,107.7,279.9,110.9,279,114z
			 M193.2,167.5c-2-3.7-3.6-7.5-4.9-11.6l0,0c-1-3.3-1.8-6.7-2.2-10.1l0,0l0,0c-0.4-2.9-0.6-5.9-0.6-8.9c0-19.8,9-37.6,23.1-49.4
			c6.3-5.3,13.7-9.4,21.8-12c-1.6,1.2-3.1,2.5-4.4,3.9c-6.1,6.4-9.9,15.2-9.9,24.9c0,3.8,0.6,7.4,1.6,10.9l0,0.1l1.4,3.3l1.2,2.8
			l25,59.4l2.8,6.7l-6.2,14.7l-2.5,5.9l-14.6,34.7L193.2,167.5L193.2,167.5z M198.5,424.8L159,408.1L226.4,248l16.2-38.6l2.5-5.9
			l6.4-15.3l3.1-7.4l25-59.4l1.3-3l1.3-3.2l0-0.1c1.1-3.4,1.6-7,1.6-10.8c0-9.6-3.7-18.3-9.6-24.6c-1.4-1.4-2.8-2.8-4.4-4
			c8,2.6,15.2,6.7,21.5,12l0,0c14,11.8,22.9,29.5,22.9,49.2c0,3.4-0.3,6.7-0.8,9.9l0,0c-0.7,4.4-1.8,8.7-3.3,12.7l0,0
			c-0.6,1.6-1.2,3.1-2,4.7l0,0l-34,80.7l-26,61.7L198.5,424.8z"/>
		<polygon class="st1" points="313.4,160.7 313.4,160.7 313.4,160.7 		"/>
		<polygon class="st1" points="316.9,147.3 316.9,147.3 316.9,147.3 		"/>
		<polygon class="st1" points="185,157 185,157 185,157 		"/>
		<polygon class="st1" points="182.6,146.3 182.6,146.3 182.6,146.3 		"/>
	</g>
	<g>
		<path class="st2" d="M346,411l-0.7-1.6l-68.2-162.2l34.3-81.6c0.7-1.6,1.4-3.2,2-4.9c1.6-4.3,2.8-8.8,3.5-13.4
			c0.5-3.4,0.8-6.9,0.8-10.4c0-20.8-9.4-39.4-24.1-51.9l0,0c-11.5-9.7-26.3-15.7-42.4-16v0h-1.4v0c-16.6,0-31.8,6-43.5,15.8
			c-14.9,12.4-24.3,31.2-24.3,52.1c0,3.2,0.2,6.3,0.6,9.4c0.5,3.7,1.3,7.2,2.4,10.7c1.3,4.2,3,8.3,5.1,12.1l32.9,78.1L154.4,410
			l46,19.4L250,311.5l50,118.8L346,411z M251.9,307l23.3-55.3l66.2,157.4l-39.5,16.6L251.9,307z M251.4,179.4l-1.5,3.5l-1.5-3.5
			l-25-59.4l-0.6-1.5c7.8-5.3,17.1-8.3,27.2-8.3c10,0,19.3,3,27,8.2l-0.7,1.7L251.4,179.4z M279,114l-0.4,1
			c-8.2-5.3-17.9-8.4-28.4-8.4c-10.6,0-20.4,3.1-28.6,8.5L221,114c-1-3.1-1.5-6.3-1.5-9.8c0-8.8,3.4-16.7,8.9-22.4
			c5.5-5.7,13-9.3,21.4-9.3h0.9l0,0c8.2,0.2,15.6,3.8,21,9.5c5.4,5.7,8.7,13.6,8.7,22.2C280.4,107.7,279.9,110.9,279,114z
			 M193.2,167.5c-2-3.7-3.6-7.5-4.9-11.6l0,0c-1-3.3-1.8-6.7-2.2-10.1l0,0l0,0c-0.4-2.9-0.6-5.9-0.6-8.9c0-19.8,9-37.6,23.1-49.4
			c6.3-5.3,13.7-9.4,21.8-12c-1.6,1.2-3.1,2.5-4.4,3.9c-6.1,6.4-9.9,15.2-9.9,24.9c0,3.8,0.6,7.4,1.6,10.9l0,0.1l1.4,3.3l1.2,2.8
			l25,59.4l2.8,6.7l-6.2,14.7l-2.5,5.9l-14.6,34.7L193.2,167.5L193.2,167.5z M198.5,424.8L159,408.1L226.4,248l16.2-38.6l2.5-5.9
			l6.4-15.3l3.1-7.4l25-59.4l1.3-3l1.3-3.2l0-0.1c1.1-3.4,1.6-7,1.6-10.8c0-9.6-3.7-18.3-9.6-24.6c-1.4-1.4-2.8-2.8-4.4-4
			c8,2.6,15.2,6.7,21.5,12l0,0c14,11.8,22.9,29.5,22.9,49.2c0,3.4-0.3,6.7-0.8,9.9l0,0c-0.7,4.4-1.8,8.7-3.3,12.7l0,0
			c-0.6,1.6-1.2,3.1-2,4.7l0,0l-34,80.7l-26,61.7L198.5,424.8z"/>
		<polygon class="st2" points="313.4,160.7 313.4,160.7 313.4,160.7 		"/>
		<polygon class="st2" points="185,157 185,157 185,157 		"/>
		<polygon class="st2" points="182.6,146.3 182.6,146.3 182.6,146.3 		"/>
	</g>
</g>
</svg>
