<?xml version="1.0" encoding="utf-8"?>
<!-- Generator: Adobe Illustrator 24.0.3, SVG Export Plug-In . SVG Version: 6.00 Build 0)  -->
<svg version="1.1" id="Layer_1" xmlns="http://www.w3.org/2000/svg" xmlns:xlink="http://www.w3.org/1999/xlink" x="0px" y="0px"
	 viewBox="0 0 500 500" style="enable-background:new 0 0 500 500;" xml:space="preserve">
<style type="text/css">
	.st0{fill:none;}
	.st1{fill:#ACCA8B;}
	.st2{fill:#AECB8D;}
	.st3{fill:#A7C87E;}
	.st4{fill:none;stroke:#AECB8D;stroke-width:2;stroke-miterlimit:10;}
	.st5{fill:#FFFFFF;}
	.st6{fill:none;stroke:#A7C87E;stroke-width:3;stroke-miterlimit:10;}
	.st7{fill:none;stroke:#A7C87E;stroke-width:2;stroke-miterlimit:10;}
	.st8{fill:none;stroke:#A7C87E;stroke-width:2;stroke-miterlimit:10;stroke-dasharray:5.9695,5.9695;}
	.st9{fill:none;stroke:#FFFFFF;stroke-linecap:round;stroke-miterlimit:10;}
	.st10{fill:none;stroke:#A7C87E;stroke-width:5;stroke-miterlimit:10;}
	.st11{fill:none;stroke:#A7C87E;stroke-miterlimit:10;}
	.st12{fill:none;stroke:#A7C87E;stroke-width:10;stroke-miterlimit:10;}
	.st13{fill:url(#SVGID_1_);}
</style>
<pattern  x="-520" y="-520" width="48" height="48" patternUnits="userSpaceOnUse" id="_x36__dpi_20_x25__3" viewBox="2.4 -50.4 48 48" style="overflow:visible;">
	<g>
		<rect x="2.4" y="-50.4" class="st0" width="48" height="48"/>
		<g>
			<path class="st1" d="M26.4,0c1.3,0,2.4-1.1,2.4-2.4c0-1.3-1.1-2.4-2.4-2.4c-1.3,0-2.4,1.1-2.4,2.4C24-1.1,25.1,0,26.4,0z"/>
			<path class="st1" d="M50.4,0c1.3,0,2.4-1.1,2.4-2.4c0-1.3-1.1-2.4-2.4-2.4c-1.3,0-2.4,1.1-2.4,2.4C48-1.1,49.1,0,50.4,0z"/>
			<path class="st1" d="M26.4-24c1.3,0,2.4-1.1,2.4-2.4c0-1.3-1.1-2.4-2.4-2.4c-1.3,0-2.4,1.1-2.4,2.4C24-25.1,25.1-24,26.4-24z"/>
			<path class="st1" d="M50.4-24c1.3,0,2.4-1.1,2.4-2.4c0-1.3-1.1-2.4-2.4-2.4c-1.3,0-2.4,1.1-2.4,2.4C48-25.1,49.1-24,50.4-24z"/>
			<path class="st1" d="M38.4-12c1.3,0,2.4-1.1,2.4-2.4c0-1.3-1.1-2.4-2.4-2.4c-1.3,0-2.4,1.1-2.4,2.4C36-13.1,37.1-12,38.4-12z"/>
			<path class="st1" d="M14.4-12c1.3,0,2.4-1.1,2.4-2.4c0-1.3-1.1-2.4-2.4-2.4c-1.3,0-2.4,1.1-2.4,2.4C12-13.1,13.1-12,14.4-12z"/>
			<path class="st1" d="M38.4-36c1.3,0,2.4-1.1,2.4-2.4c0-1.3-1.1-2.4-2.4-2.4c-1.3,0-2.4,1.1-2.4,2.4C36-37.1,37.1-36,38.4-36z"/>
			<path class="st1" d="M14.4-36c1.3,0,2.4-1.1,2.4-2.4c0-1.3-1.1-2.4-2.4-2.4c-1.3,0-2.4,1.1-2.4,2.4C12-37.1,13.1-36,14.4-36z"/>
		</g>
		<g>
			<path class="st1" d="M2.4,0c1.3,0,2.4-1.1,2.4-2.4c0-1.3-1.1-2.4-2.4-2.4C1.1-4.8,0-3.7,0-2.4C0-1.1,1.1,0,2.4,0z"/>
			<path class="st1" d="M2.4-24c1.3,0,2.4-1.1,2.4-2.4c0-1.3-1.1-2.4-2.4-2.4c-1.3,0-2.4,1.1-2.4,2.4C0-25.1,1.1-24,2.4-24z"/>
		</g>
		<g>
			<path class="st1" d="M26.4-48c1.3,0,2.4-1.1,2.4-2.4c0-1.3-1.1-2.4-2.4-2.4c-1.3,0-2.4,1.1-2.4,2.4C24-49.1,25.1-48,26.4-48z"/>
			<path class="st1" d="M50.4-48c1.3,0,2.4-1.1,2.4-2.4c0-1.3-1.1-2.4-2.4-2.4c-1.3,0-2.4,1.1-2.4,2.4C48-49.1,49.1-48,50.4-48z"/>
		</g>
		<g>
			<path class="st1" d="M2.4-48c1.3,0,2.4-1.1,2.4-2.4c0-1.3-1.1-2.4-2.4-2.4c-1.3,0-2.4,1.1-2.4,2.4C0-49.1,1.1-48,2.4-48z"/>
		</g>
	</g>
</pattern>
<g>
	<path class="st2" d="M250.2,18.8c31.2,0,61.4,6.1,89.9,18.1c27.5,11.6,52.2,28.3,73.4,49.5s37.9,45.9,49.5,73.4
		c12,28.5,18.1,58.7,18.1,89.9c0,31.2-6.1,61.4-18.1,89.9c-11.6,27.5-28.3,52.2-49.5,73.4c-21.2,21.2-45.9,37.9-73.4,49.5
		c-28.5,12-58.7,18.1-89.9,18.1s-61.4-6.1-89.9-18.1c-27.5-11.6-52.2-28.3-73.4-49.5c-21.2-21.2-37.9-45.9-49.5-73.4
		c-12-28.5-18.1-58.7-18.1-89.9c0-31.2,6.1-61.4,18.1-89.9c11.6-27.5,28.3-52.2,49.5-73.4s45.9-37.9,73.4-49.5
		C188.8,24.9,219,18.8,250.2,18.8 M250.2,8.8C117.1,8.8,9.3,116.6,9.3,249.7s107.9,240.9,240.9,240.9s240.9-107.9,240.9-240.9
		S383.3,8.8,250.2,8.8L250.2,8.8z"/>
</g>
<g>
	<path class="st12" d="M361.7,373.4H137.1c-5,0-9-4-9-9V139.7c0-5,4-9,9-9h224.7c5,0,9,4,9,9v224.7
		C370.7,369.3,366.7,373.4,361.7,373.4z"/>
	<pattern  id="SVGID_1_" xlink:href="#_x36__dpi_20_x25__3" patternTransform="matrix(2.2062 0 0 2.2062 8160.8696 8100.6436)">
	</pattern>
	<path class="st13" d="M363.9,369.3H134.9c-1.6,0-2.8-1.3-2.8-2.8V137.6c0-1.6,1.3-2.8,2.8-2.8h228.9c1.6,0,2.8,1.3,2.8,2.8v228.9
		C366.7,368.1,365.4,369.3,363.9,369.3z"/>
	<g>
		<path class="st3" d="M301.6,199.8v104.4H197.2V199.8H301.6 M302.6,189.8H196.2c-5,0-9,4-9,9v106.4c0,5,4,9,9,9h106.4c5,0,9-4,9-9
			V198.8C311.6,193.9,307.5,189.8,302.6,189.8L302.6,189.8z"/>
	</g>
</g>
</svg>
