<svg id="Layer_1" data-name="Layer 1" xmlns="http://www.w3.org/2000/svg" viewBox="0 0 500 500"><defs><style>.cls-1{fill:#aecb8d;}.cls-2{fill:#a7c87e;}</style></defs><path class="cls-1" d="M250.2,18.78a231,231,0,0,1,89.88,443.69A231,231,0,0,1,160.32,36.93,229.43,229.43,0,0,1,250.2,18.78m0-10C117.15,8.78,9.29,116.65,9.29,249.7S117.15,490.62,250.2,490.62,491.12,382.75,491.12,249.7,383.26,8.78,250.2,8.78Z"/><rect class="cls-2" x="198.39" y="375.41" width="103.21" height="7.21"/><path class="cls-2" d="M372.25,221.67l42.53-52.39A28.24,28.24,0,0,0,412.27,131h0a28.25,28.25,0,0,0-38.36-.45L273,221.67Z"/><path class="cls-2" d="M243.24,221.67a92.81,92.81,0,0,0-60.05-101.89l-10.36,28.63a92.51,92.51,0,0,0,4.35,73.26Z"/><path class="cls-2" d="M199.07,249.92a92.59,92.59,0,0,0,29.43,17.31l6.26-17.31Z"/><path class="cls-2" d="M130.27,221.67h42.86l-.37-.78a96.14,96.14,0,0,1-9.16-41.63,92.45,92.45,0,0,0-38.38-5.38l2.15,30.36A93.17,93.17,0,0,0,130.27,221.67Z"/><path class="cls-2" d="M193.62,249.92H143.2a92.75,92.75,0,0,0,83.25,40.34L225,269.8A96,96,0,0,1,193.62,249.92Z"/><rect class="cls-2" x="75.15" y="225.31" width="349.69" height="20.97"/><path class="cls-2" d="M84.86,249.76h0A121.71,121.71,0,0,0,206.58,371.48h86.84A121.71,121.71,0,0,0,415.13,249.76H84.86Zm191.83,69.59H256.78v19.91H243.21V319.35H223.3V305.78h19.91V285.87h13.57v19.91h19.91Z"/></svg>