<svg id="Layer_1" data-name="Layer 1" xmlns="http://www.w3.org/2000/svg" viewBox="0 0 500 500"><defs><style>.cls-1{fill:#aecb8d;}</style></defs><path class="cls-1" d="M250.2,18.78a231,231,0,0,1,89.88,443.69A231,231,0,0,1,160.32,36.93,229.43,229.43,0,0,1,250.2,18.78m0-10C117.15,8.78,9.29,116.65,9.29,249.7S117.15,490.62,250.2,490.62,491.12,382.75,491.12,249.7,383.26,8.78,250.2,8.78Z"/><path class="cls-1" d="M254.64,126.31h-7.12c-48.55,0-88.39,34.7-88.39,78.69v45c0,15,7.87,28,23.6,32.65v30.19c0,28.53,52.74,52.09,62.47,52.09h10.92c9.73,0,63-23.56,63-52.09V282.91c13.11-4.78,23.6-18.1,23.6-32.92V205C342.68,161,303.19,126.31,254.64,126.31Zm-3.56,125c9.81,0,13.48,24.93,13.48,30,0,7.73-4.75,8.62-8.32,8.62-.74,0-1.54,0-2.39-.07-1.75-.07-3.8-.07-5.55,0-.85,0-1.65.07-2.4.07a8.65,8.65,0,0,1-5.86-1.68c-2.2-1.89-2.45-4.86-2.45-6.94C237.59,276.24,241.27,251.31,251.08,251.31Zm-52.61-22.92a19.14,19.14,0,0,1,13.61-6.9l8.17-.54c11.38-.77,20.26,5.16,20.26,13.15,0,7.47-7.49,17.11-17,21.92l-7.09,3.58a17.35,17.35,0,0,1-7.8,2c-7.21,0-12.7-5.38-13.66-13.38l-.65-5.36A18.85,18.85,0,0,1,198.47,228.39Zm108.18,62.42-16.41,5.57v9a15.6,15.6,0,0,1-.42,1.63c-.52,9.57-9.39,15.94-23.41,15.94H235.17c-11.19,0-23.59-6.93-23.59-17.57v-9l-16.2-5.58a5.1,5.1,0,0,1-3-6.63,5.38,5.38,0,0,1,6.77-3.31L219,287.63c2.14.71,3.12,2.71,3.12,5v12.79c0,.64.75,1.22,1.11,1.74a5.82,5.82,0,0,1,3.9-1.5,5.44,5.44,0,0,1,5.47,5.24V311a6.12,6.12,0,0,0,2.63,1.52h2.62v-1.6a5.25,5.25,0,0,1,10.49,0v1.6h5.24v-1.6a5.25,5.25,0,0,1,10.49,0v1.6h2.4c.89,0,.22-1.39,2.85-1.47v-.13a5.28,5.28,0,0,1,9.21-3.48,4.32,4.32,0,0,0,.88-2c0-.27.39-.54.39-.79v-12a5,5,0,0,1,3.26-5l20.16-6.77a5.32,5.32,0,0,1,6.72,3.32A5.22,5.22,0,0,1,306.65,290.81Zm3.51-48-.65,5.36c-1,8-6.46,13.38-13.66,13.38h0a17.31,17.31,0,0,1-7.79-2L281,256c-9.56-4.81-17-14.45-17-21.92,0-8,8.88-13.91,20.26-13.15l8.17.54a19.17,19.17,0,0,1,13.61,6.9A18.89,18.89,0,0,1,310.16,242.84Z"/><path class="cls-1" d="M416.83,183.57a15.34,15.34,0,0,0-9.38-7.2l-2.27-.61.61-2.27a15.46,15.46,0,0,0-29.87-8l-2.95,11-40.23,23.2a2.72,2.72,0,0,0-1.09,1.21l-10.07,22.71L314,240.75a2.62,2.62,0,0,0,2.4,3.68,2.68,2.68,0,0,0,1.31-.35l70.74-40.79,11,3a15.55,15.55,0,0,0,11.73-1.55,15.45,15.45,0,0,0,5.66-21.12Z"/><path class="cls-1" d="M232.37,288.79l-25.11-15.16a2.59,2.59,0,0,0-2.66,0L113.77,326l-11-3a15.68,15.68,0,0,0-4-.53,15.46,15.46,0,0,0-4,30.4l2.26.61-.6,2.26a15.45,15.45,0,0,0,10.93,18.94,15.13,15.13,0,0,0,4,.53,15.53,15.53,0,0,0,7.72-2.07,15.35,15.35,0,0,0,7.2-9.39l3-11,103.1-59.46a2.64,2.64,0,0,0,1.31-2.25A2.61,2.61,0,0,0,232.37,288.79Z"/><path class="cls-1" d="M187.55,240.62l-1.35-27.09-16-13.12a2.71,2.71,0,0,0-1.12-1.27l-39.88-22.63-2.94-11a15.46,15.46,0,1,0-29.87,8l.61,2.27-2.27.61A15.46,15.46,0,0,0,91,204.69a15.51,15.51,0,0,0,11.73,1.54l11-2.95L184,244.67c.41.23.86.94,1.32.94h0c1.42,0,2.64-1.75,2.64-3.2A3.66,3.66,0,0,0,187.55,240.62Z"/><path class="cls-1" d="M418.38,334A15.45,15.45,0,0,0,399.44,323l-11,3L297.6,273.6a2.62,2.62,0,0,0-2.56,0l-26.48,14.37a2.62,2.62,0,0,0-.06,4.57L373,352.76l2.95,11a15.45,15.45,0,0,0,14.92,11.46,15.54,15.54,0,0,0,4-.52,15.48,15.48,0,0,0,10.94-18.94l-.61-2.27,2.26-.61A15.46,15.46,0,0,0,418.38,334Z"/><polygon class="cls-1" points="313.76 209.89 313.98 240.75 331.65 200.91 313.76 209.89"/></svg>