<svg id="Layer_1" data-name="Layer 1" xmlns="http://www.w3.org/2000/svg" viewBox="0 0 500 500"><defs><style>.cls-1{fill:#aecb8d;}.cls-2{fill:#a7c87e;}</style></defs><path class="cls-1" d="M250.2,18.78a231,231,0,0,1,89.88,443.69A231,231,0,0,1,160.32,36.93,229.43,229.43,0,0,1,250.2,18.78m0-10C117.15,8.78,9.29,116.65,9.29,249.7S117.15,490.62,250.2,490.62,491.12,382.75,491.12,249.7,383.26,8.78,250.2,8.78Z"/><path class="cls-2" d="M350.82,421.39a1.6,1.6,0,0,0-.3-.23,7.51,7.51,0,0,0-.75-.27,9.93,9.93,0,0,1-5-3.31l-3-3.57-19.35-23.27-11.2-13.47-.59-.72a10.12,10.12,0,0,1,1-13.82c.29-.27.61-.51.9-.78a4.47,4.47,0,0,0,.32-.41,9.93,9.93,0,0,0-1-1.29c-.64-.79-1.28-1.58-1.93-2.36a.39.39,0,0,0-.48-.07c-.34.21-.68.42-1,.64a62.33,62.33,0,0,1-19.34,8.14,59.88,59.88,0,0,1-6.92,1.18c-2.12.24-4.23.37-6.35.43a37.6,37.6,0,0,1-4.11-.1c-1.32-.11-2.65-.17-4-.32a59.88,59.88,0,0,1-6.92-1.18,61.14,61.14,0,0,1-22.2-10.06,62,62,0,0,1-23.56-33.12,60.71,60.71,0,0,1-2-9.73,60.1,60.1,0,0,1-.4-11.53,61.76,61.76,0,0,1,17-39.36,60.82,60.82,0,0,1,16.68-12.55,61.89,61.89,0,0,1,23.42-6.72,56.42,56.42,0,0,1,6.76-.17l1.46,0a57.27,57.27,0,0,1,9.59,1.19,60.54,60.54,0,0,1,9,2.59,12.3,12.3,0,0,1,1.35.55,5.29,5.29,0,0,1,3.15,4.86,5.43,5.43,0,0,1-3.9,5.41,5.48,5.48,0,0,1-3.64-.14c-1.16-.43-2.33-.84-3.5-1.21a46.69,46.69,0,0,0-8.67-1.87,52.36,52.36,0,0,0-7.81-.42,51.55,51.55,0,0,0-48.44,38.79,50.63,50.63,0,0,0-1.26,7,51.87,51.87,0,0,0-.13,9.81A49.79,49.79,0,0,0,227,324.2a51.33,51.33,0,0,0,40.92,32.46,49.25,49.25,0,0,0,9.93.42,50.24,50.24,0,0,0,22.31-6.58,51.17,51.17,0,0,0,23.46-28.42,50.65,50.65,0,0,0,2.66-16.29,50.68,50.68,0,0,0-2.34-15.42,7.68,7.68,0,0,1-.43-2.47,5.52,5.52,0,0,1,10.72-1.59c.43,1.3.81,2.62,1.16,3.95a62.37,62.37,0,0,1,1.83,19.34A62,62,0,0,1,320,348.91c-.42.45-.87.88-1.3,1.32-.12.13-.21.28-.31.41a2.19,2.19,0,0,0,.2.38c.86,1.07,1.73,2.13,2.6,3.19,0,.07.15.1.23.15.37-.06.6-.35.88-.54a9.55,9.55,0,0,1,3.36-1.52,10,10,0,0,1,9.64,2.71c.34.34.65.72,1,1.09l33,39.7c.31.37.62.75.92,1.13a9.61,9.61,0,0,1,1.4,2.4,4.67,4.67,0,0,1,.44,1.79,4.8,4.8,0,0,0,.25,1.41v1.07a7.26,7.26,0,0,0-.26,1.68,4.09,4.09,0,0,1-.33,1.41,10.06,10.06,0,0,1-3,4.25l-9.54,7.94a10.05,10.05,0,0,1-3.69,2,2.72,2.72,0,0,0-1.2.51ZM319.93,370.3a4.68,4.68,0,0,0,.27.44l.84,1L331.23,384l20.71,24.9c.17.21.34.42.52.61a1.81,1.81,0,0,0,.37.19l.94-.74,3.06-2.55,3.47-2.88a1.13,1.13,0,0,0,.49-.65c-.48-.66-1-1.29-1.57-1.94l-15.45-18.58-14.86-17.85a11.12,11.12,0,0,0-.81-.87c0-.05-.17-.05-.24,0a.65.65,0,0,0-.23.13l-7.45,6.2A3.78,3.78,0,0,0,319.93,370.3Z"/><path class="cls-2" d="M127.86,127.92a1.27,1.27,0,0,0,.5-.76,3.56,3.56,0,0,1,.13-.65A6.5,6.5,0,0,1,133,122a4.65,4.65,0,0,1,.9-.19c.62,0,1.24-.09,1.86-.09h29.59a14.16,14.16,0,0,1,1.72.09,5.51,5.51,0,0,1,2.84,9.55,5,5,0,0,1-3.23,1.37q-.79,0-1.59,0H140.11c-.68,0-.8.13-.82.76v1.59q0,121.29,0,242.57a4.61,4.61,0,0,0,.17,2.21,6.45,6.45,0,0,0,2.1.11H247.85c.53,0,1.06,0,1.6,0a5.84,5.84,0,0,1,2.06.43,5.51,5.51,0,0,1-.68,10.45,5.82,5.82,0,0,1-1.44.2H135.81a9.93,9.93,0,0,1-2.37-.17,6.49,6.49,0,0,1-5-4.8,4.76,4.76,0,0,1-.1-.52.81.81,0,0,0-.49-.59Z"/><path class="cls-2" d="M237.49,78.78a2.16,2.16,0,0,0,.49.16c.4,0,.8.06,1.2.08A30.37,30.37,0,0,1,250,81.53a32.93,32.93,0,0,1,18.66,21,31.88,31.88,0,0,1,1.29,8.9c0,.48,0,1,0,1.4a1.63,1.63,0,0,0,1,.42,31.36,31.36,0,0,1,5.46,1.6A32.94,32.94,0,0,1,296.15,137a30.22,30.22,0,0,1,1.06,8.67,5.23,5.23,0,0,1-3.31,4.87,5.47,5.47,0,0,1-7.45-3.46,7.44,7.44,0,0,1-.24-1.57c0-.48,0-1-.07-1.46a21.25,21.25,0,0,0-4.89-12.38,21.51,21.51,0,0,0-11.67-7.38,20,20,0,0,0-5-.63H263.4a5.43,5.43,0,0,1-5.24-5.31,6.42,6.42,0,0,1,.15-1.58,22.25,22.25,0,0,0,.58-4.73,20.8,20.8,0,0,0-.24-3.44,21.85,21.85,0,0,0-17.19-18.2,20.21,20.21,0,0,0-5.14-.45A21.64,21.64,0,0,0,222,96.07,21.38,21.38,0,0,0,215.83,107a20.25,20.25,0,0,0-.49,6.06,24,24,0,0,0,.52,3.68,5.78,5.78,0,0,1-.09,3.14,5.41,5.41,0,0,1-5.07,3.8h-.93a21.84,21.84,0,0,0-20.7,15c-.42,1.27-.3,1.28.88,1.27h54.14a10.65,10.65,0,0,1,2.11.14,5.52,5.52,0,0,1,1.07,10.42,5.19,5.19,0,0,1-2.05.49h-63a5.46,5.46,0,0,1-5.15-4.39,5.86,5.86,0,0,1-.09-1.19,30.87,30.87,0,0,1,1.94-11.18,32.9,32.9,0,0,1,19.74-19.68,29.63,29.63,0,0,1,4.6-1.28,6.82,6.82,0,0,0,.8-.22.58.58,0,0,0,.22-.54c0-.62,0-1.24,0-1.86A32.85,32.85,0,0,1,228.72,80a27.2,27.2,0,0,1,6-1c.49,0,1,0,1.46-.09a1.94,1.94,0,0,0,.5-.16Z"/><path class="cls-2" d="M249.37,297.8a5.51,5.51,0,0,1,3.66,1.36c.37.31.73.65,1.08,1l18.65,17.17,1,.9c.65.62.77.57,1.35-.13l.52-.6,48.21-56.74,9.29-10.92c.23-.27.45-.55.69-.81a5.52,5.52,0,0,1,8.81,1.2,5.32,5.32,0,0,1-.3,5.78,11.79,11.79,0,0,1-1,1.24l-12.72,15-25,29.43L279.51,330a11.26,11.26,0,0,1-.81.88,5.34,5.34,0,0,1-2.54,1.36,5.42,5.42,0,0,1-4.63-1,10.54,10.54,0,0,1-.8-.7l-21-19.33-3.62-3.33c-.26-.24-.52-.47-.76-.73a5.52,5.52,0,0,1,2.56-9.06A9.82,9.82,0,0,1,249.37,297.8Z"/><path class="cls-2" d="M237.08,184.24h63.69c.49,0,1,0,1.46,0a5.53,5.53,0,0,1,1.94,10.62,5.82,5.82,0,0,1-1.93.43H173a8.45,8.45,0,0,1-2.24-.18A5.52,5.52,0,0,1,169.41,185a5.08,5.08,0,0,1,2.52-.72h65.15Z"/><path class="cls-2" d="M344.76,176.11q0,23.29,0,46.59c0,.53,0,1.06,0,1.59A5.5,5.5,0,0,1,334,225.56a6.38,6.38,0,0,1-.24-1.44c0-.61,0-1.24,0-1.85V134.92c0-.57,0-1.15,0-1.72a.47.47,0,0,0-.42-.43l-1.33,0h-22q-.79,0-1.59,0A5.51,5.51,0,0,1,307.07,122a3.9,3.9,0,0,1,.9-.19c.57,0,1.14-.09,1.72-.09h27.59c.58,0,1.15,0,1.72.07a6.48,6.48,0,0,1,5.72,5.88c0,.57,0,1.15,0,1.72Q344.77,152.75,344.76,176.11Z"/><path class="cls-2" d="M195.15,246.08H173.26c-.44,0-.88,0-1.32,0a5.53,5.53,0,0,1-1.31-10.84,6.07,6.07,0,0,1,1.7-.24H217a10.62,10.62,0,0,1,2.25.17,5.62,5.62,0,0,1,4.2,4.46,5.53,5.53,0,0,1-5.11,6.44c-.44,0-.89,0-1.33,0Z"/><path class="cls-2" d="M184.08,348.35H172.81a6.73,6.73,0,0,1-2.22-.3,5.53,5.53,0,0,1,.76-10.64,9.34,9.34,0,0,1,1.58-.12h22.26a8.52,8.52,0,0,1,1.59.12,5.52,5.52,0,0,1-.91,10.93H184.08Z"/><path class="cls-2" d="M178.16,286.51h5.3a8.17,8.17,0,0,1,1.84.2,5.53,5.53,0,0,1-1,10.87c-.26,0-.53,0-.79,0h-10.6a7.69,7.69,0,0,1-2-.23,5.52,5.52,0,0,1,.12-10.66,6.64,6.64,0,0,1,1.83-.21h5.3Z"/><path class="cls-2" d="M245,110.7a7.89,7.89,0,1,1-7.95-7.87A7.78,7.78,0,0,1,245,110.7Z"/><path class="cls-2" d="M309.74,266.33a5.31,5.31,0,0,1-2.65-.71,8.74,8.74,0,0,1-2-1.52,5.33,5.33,0,0,1-1.37-5.5,5.25,5.25,0,0,1,4-3.78,5.31,5.31,0,0,1,4.18.73,10.65,10.65,0,0,1,1.48,1.12,5.54,5.54,0,0,1-2.5,9.53A9.22,9.22,0,0,1,309.74,266.33Z"/></svg>