<?xml version="1.0" encoding="utf-8"?>
<!-- Generator: Adobe Illustrator 24.0.3, SVG Export Plug-In . SVG Version: 6.00 Build 0)  -->
<svg version="1.1" id="Layer_1" xmlns="http://www.w3.org/2000/svg" xmlns:xlink="http://www.w3.org/1999/xlink" x="0px" y="0px"
	 viewBox="0 0 500 500" style="enable-background:new 0 0 500 500;" xml:space="preserve">
<style type="text/css">
	.st0{fill:#AECB8D;}
	.st1{fill:#A7C87E;}
	.st2{fill:none;stroke:#AECB8D;stroke-width:2;stroke-miterlimit:10;}
	.st3{fill:#FFFFFF;}
	.st4{fill:none;stroke:#A7C87E;stroke-width:3;stroke-miterlimit:10;}
	.st5{fill:none;stroke:#A7C87E;stroke-width:2;stroke-miterlimit:10;}
	.st6{fill:none;stroke:#A7C87E;stroke-width:2;stroke-miterlimit:10;stroke-dasharray:5.9695,5.9695;}
	.st7{fill:none;stroke:#FFFFFF;stroke-linecap:round;stroke-miterlimit:10;}
	.st8{fill:none;stroke:#A7C87E;stroke-width:5;stroke-miterlimit:10;}
	.st9{fill:none;stroke:#A7C87E;stroke-miterlimit:10;}
	.st10{fill:none;stroke:#A7C87E;stroke-width:10;stroke-miterlimit:10;}
	.st11{fill:url(#);}
	.st12{fill:#A7C87E;stroke:#A7C87E;stroke-width:0.25;stroke-miterlimit:10;}
	.st13{fill:#FFFFFF;stroke:#FFFFFF;stroke-width:0.25;stroke-miterlimit:10;}
	.st14{fill:none;stroke:#A7C87E;stroke-width:0.25;stroke-miterlimit:10;}
</style>
<g>
	<path class="st0" d="M250.2,18.8c31.2,0,61.4,6.1,89.9,18.1c27.5,11.6,52.2,28.3,73.4,49.5s37.9,45.9,49.5,73.4
		c12,28.5,18.1,58.7,18.1,89.9c0,31.2-6.1,61.4-18.1,89.9c-11.6,27.5-28.3,52.2-49.5,73.4c-21.2,21.2-45.9,37.9-73.4,49.5
		c-28.5,12-58.7,18.1-89.9,18.1s-61.4-6.1-89.9-18.1c-27.5-11.6-52.2-28.3-73.4-49.5c-21.2-21.2-37.9-45.9-49.5-73.4
		c-12-28.5-18.1-58.7-18.1-89.9c0-31.2,6.1-61.4,18.1-89.9c11.6-27.5,28.3-52.2,49.5-73.4s45.9-37.9,73.4-49.5
		C188.8,24.9,219,18.8,250.2,18.8 M250.2,8.8C117.1,8.8,9.3,116.6,9.3,249.7s107.9,240.9,240.9,240.9s240.9-107.9,240.9-240.9
		S383.3,8.8,250.2,8.8L250.2,8.8z"/>
</g>
<g>
	<path class="st1" d="M293.7,250.3c0,7.5-0.1,15-0.4,22.4c-0.3,7.5-0.6,14.9-1.1,22.4c-1,14.9-2.5,29.8-4.8,44.6
		c-2.3,14.8-5.3,29.5-10.1,43.9c-2.4,7.1-5.2,14.2-9.2,20.8c-2,3.3-4.3,6.5-7.3,9.2c-1.5,1.4-3.2,2.6-5.1,3.5
		c-1.9,0.9-4.1,1.5-6.4,1.6c-2.2,0-4.5-0.5-6.5-1.3c-2-0.9-3.8-2.1-5.3-3.4c-3.2-2.7-5.6-5.8-7.8-9.1c-2.1-3.3-4-6.7-5.7-10.1
		c-1.7-3.5-3.1-7-4.5-10.6c-2.7-7.1-4.9-14.4-6.8-21.8c-1.9-7.3-3.5-14.7-4.9-22.2c-2.7-14.9-4.6-29.9-5.8-44.9
		c-0.6-7.5-1.1-15-1.4-22.6c-0.3-7.5-0.4-15.1-0.5-22.6c0-15.1,0.6-30.1,1.8-45.2c1.2-15,3.1-30,5.8-44.9c1.4-7.4,3-14.8,4.9-22.2
		c1.9-7.3,4.1-14.6,6.8-21.8c1.3-3.6,2.8-7.1,4.5-10.6c1.7-3.5,3.5-6.9,5.7-10.2c2.2-3.2,4.6-6.4,7.8-9.1c1.6-1.3,3.3-2.5,5.3-3.4
		c2-0.9,4.2-1.4,6.5-1.3c2.2,0.1,4.4,0.6,6.4,1.6c1.9,0.9,3.6,2.2,5.1,3.5c3,2.7,5.3,5.9,7.3,9.2c4,6.6,6.7,13.7,9.2,20.9
		c4.8,14.3,7.7,29.1,10,43.9c2.3,14.8,3.8,29.7,4.8,44.6c0.5,7.5,0.9,14.9,1.1,22.4C293.6,235.3,293.7,242.8,293.7,250.3z
		 M293.7,250.3c0-7.5-0.2-15-0.4-22.4c-0.3-7.5-0.8-14.9-1.4-22.4c-1.2-14.9-3.1-29.8-5.8-44.4c-1.3-7.3-3-14.6-4.8-21.8
		c-1.9-7.2-4-14.3-6.6-21.3c-1.3-3.5-2.7-6.9-4.3-10.2c-1.6-3.3-3.4-6.5-5.3-9.6c-2-3-4.3-5.8-6.9-8c-2.6-2.2-5.7-3.6-8.7-3.6
		c-3,0.1-5.9,1.6-8.4,3.9c-2.5,2.3-4.6,5.2-6.4,8.2c-3.7,6.1-6.4,13-8.7,19.9c-4.6,13.9-7.5,28.5-9.8,43.1
		c-2.3,14.6-3.8,29.4-4.8,44.2c-1,14.8-1.5,29.6-1.5,44.5c0,7.4,0.1,14.8,0.4,22.3c0.2,7.4,0.6,14.8,1.1,22.2
		c1,14.8,2.5,29.6,4.8,44.2c2.3,14.6,5.2,29.2,9.8,43.1c2.3,6.9,5,13.8,8.7,19.9c1.8,3,3.9,5.9,6.4,8.2c2.5,2.3,5.4,3.8,8.4,3.9
		c3,0.1,6.1-1.3,8.7-3.6c2.6-2.2,4.9-5,6.9-8c2-3,3.8-6.2,5.3-9.6c1.6-3.3,3-6.7,4.3-10.2c2.6-6.9,4.7-14.1,6.6-21.3
		c1.9-7.2,3.5-14.5,4.8-21.8c2.7-14.7,4.6-29.5,5.8-44.4C293.1,280.2,293.6,265.2,293.7,250.3z"/>
	<path class="st1" d="M274.2,287c-6.2,4.2-12.4,8.3-18.8,12.3c-6.3,4-12.7,7.9-19.2,11.6c-12.9,7.5-26.1,14.6-39.7,21
		c-13.6,6.3-27.4,12.2-42,16.2c-7.3,2-14.7,3.7-22.4,4.1c-3.8,0.2-7.8,0.1-11.7-0.9c-2-0.5-3.9-1.2-5.8-2.3
		c-1.8-1.1-3.6-2.6-4.9-4.4c-1.3-1.8-2.1-4-2.5-6.1c-0.4-2.1-0.4-4.3-0.2-6.3c0.4-4.1,1.7-7.9,3.2-11.5c1.5-3.6,3.3-7.1,5.2-10.4
		c2-3.3,4-6.5,6.3-9.6c4.4-6.2,9.2-12.1,14.2-17.8c5-5.7,10.2-11.2,15.6-16.5c10.8-10.6,22.2-20.5,33.9-30
		c5.9-4.7,11.9-9.3,17.9-13.8c6.1-4.5,12.2-8.8,18.5-13c12.5-8.4,25.3-16.4,38.4-23.8c13.1-7.4,26.6-14.2,40.5-20.3
		c6.9-3,14-5.8,21.1-8.4c7.1-2.5,14.4-4.8,21.8-6.6c3.7-0.9,7.5-1.6,11.3-2.2c3.8-0.6,7.7-0.9,11.6-1c3.9,0,7.9,0.2,11.9,1.4
		c2,0.6,4,1.4,5.8,2.5c1.8,1.2,3.5,2.7,4.7,4.6c1.2,1.9,2,4,2.3,6.2c0.3,2.1,0.2,4.2-0.1,6.2c-0.6,4-2,7.7-3.6,11.2
		c-3.3,7-7.6,13.3-12.1,19.3c-9.2,12-19.8,22.7-30.7,32.9c-11,10.2-22.5,19.8-34.3,29c-5.9,4.6-11.9,9.1-17.9,13.5
		C286.5,278.5,280.4,282.8,274.2,287z M274.2,287c6.2-4.2,12.3-8.5,18.3-12.9c6-4.4,11.9-9,17.8-13.7c11.7-9.4,22.9-19.2,33.6-29.7
		c5.3-5.2,10.5-10.6,15.4-16.2c4.9-5.6,9.6-11.4,13.9-17.4c2.2-3,4.2-6.1,6-9.3c1.9-3.2,3.5-6.4,4.9-9.8c1.4-3.3,2.5-6.8,2.8-10.2
		c0.4-3.4-0.2-6.7-1.9-9.2c-1.8-2.4-4.7-4-7.9-4.7c-3.3-0.8-6.8-0.9-10.4-0.7c-7.1,0.4-14.3,2-21.3,3.9c-14.1,4-27.8,9.7-41.2,16
		c-13.4,6.3-26.5,13.3-39.3,20.8c-12.8,7.5-25.4,15.4-37.7,23.7c-6.2,4.2-12.2,8.4-18.2,12.8c-6,4.4-12,8.8-17.8,13.4
		c-11.7,9.1-23.1,18.6-33.9,28.7c-10.8,10.1-21.2,20.7-30.2,32.3c-4.4,5.8-8.6,11.9-11.6,18.3c-1.5,3.2-2.7,6.6-3.2,9.9
		c-0.5,3.3-0.2,6.6,1.4,9.1c1.6,2.5,4.5,4.3,7.8,5.2c3.3,1,6.9,1.2,10.5,1.2c3.6,0,7.3-0.4,10.9-0.9c3.6-0.5,7.3-1.3,10.9-2.1
		c7.2-1.7,14.3-3.9,21.4-6.4c7-2.5,14-5.2,20.8-8.2c13.7-6,27-12.8,40.1-20.1C249.1,303.3,261.8,295.3,274.2,287z"/>
	<path class="st1" d="M228.5,289.4c-6.6-3.5-13.1-7.1-19.6-10.9c-6.5-3.7-12.9-7.6-19.2-11.5c-12.7-7.9-25.1-16.3-37.1-25.3
		c-11.9-9-23.6-18.6-34-29.5c-5.2-5.5-10.1-11.3-14.1-17.9c-1.9-3.3-3.7-6.8-4.7-10.8c-0.5-2-0.8-4-0.7-6.2c0.1-2.1,0.6-4.3,1.6-6.3
		c1-2,2.5-3.7,4.2-5.1c1.7-1.4,3.6-2.3,5.5-3.1c3.8-1.5,7.8-2.2,11.7-2.6c3.9-0.4,7.8-0.4,11.6-0.2c3.8,0.2,7.7,0.5,11.4,1
		c7.6,1,15,2.5,22.4,4.3c7.4,1.8,14.7,3.8,21.9,6.1c14.4,4.6,28.5,10,42.3,16c6.9,3,13.8,6.1,20.6,9.4c6.8,3.3,13.5,6.7,20.1,10.2
		c13.3,7.1,26.3,14.7,39,22.9c12.7,8.2,25,16.9,36.8,26.3c5.9,4.7,11.7,9.6,17.3,14.7c5.6,5.1,11,10.5,16,16.2
		c2.5,2.9,4.9,5.8,7.2,8.9c2.3,3.1,4.4,6.3,6.3,9.8c1.8,3.5,3.5,7.1,4.3,11.2c0.4,2,0.7,4.1,0.5,6.3c-0.2,2.2-0.8,4.4-1.9,6.3
		c-1.1,2-2.7,3.6-4.4,4.9c-1.7,1.3-3.6,2.2-5.5,2.9c-3.8,1.4-7.7,1.9-11.6,2.1c-7.7,0.4-15.3-0.5-22.7-1.7
		c-14.9-2.5-29.3-6.9-43.4-11.8c-14.1-4.9-28-10.6-41.7-16.7c-6.8-3.1-13.6-6.3-20.3-9.6C241.8,296.3,235.1,292.9,228.5,289.4z
		 M228.5,289.4c6.6,3.5,13.3,6.9,20,10.2c6.7,3.3,13.5,6.4,20.4,9.3c13.7,5.9,27.7,11.3,41.9,15.8c7.1,2.3,14.3,4.3,21.5,6
		c7.2,1.7,14.6,3.2,21.9,4.2c3.7,0.5,7.4,0.8,11,1c3.7,0.2,7.4,0.1,11-0.2c3.6-0.4,7.2-1,10.3-2.3c3.2-1.3,5.9-3.3,7.2-6
		c1.3-2.7,1.3-6,0.5-9.2c-0.8-3.3-2.4-6.4-4.2-9.5c-3.7-6.1-8.4-11.7-13.5-17c-10.1-10.6-21.6-20.1-33.4-29
		c-11.8-8.9-24.1-17.2-36.7-25c-12.6-7.8-25.5-15.2-38.6-22.2c-6.5-3.5-13.1-6.9-19.8-10.2c-6.7-3.3-13.4-6.5-20.1-9.5
		c-13.5-6.1-27.3-11.7-41.2-16.6c-14-4.8-28.2-9.1-42.6-11.6c-7.2-1.2-14.5-2-21.6-1.7c-3.5,0.2-7.1,0.7-10.2,1.8
		c-3.2,1.1-5.9,2.9-7.4,5.5c-1.5,2.6-1.7,6-0.9,9.3c0.7,3.4,2.2,6.7,3.8,9.9c1.7,3.2,3.7,6.3,5.9,9.2c2.2,3,4.5,5.8,7,8.6
		c4.9,5.6,10.2,10.8,15.7,15.9c5.5,5,11.2,9.9,17,14.5c11.7,9.3,23.9,17.9,36.5,26C202.4,274.8,215.3,282.3,228.5,289.4z"/>
	<path class="st1" d="M249.4,221.2c-16.1,0-29.1,13-29.1,29.1s13,29.1,29.1,29.1s29.1-13,29.1-29.1S265.5,221.2,249.4,221.2z
		 M256.2,250.3c-5.3,0-9.6-4.3-9.6-9.6c0-5.3,4.3-9.6,9.6-9.6c5.3,0,9.6,4.3,9.6,9.6C265.8,246,261.5,250.3,256.2,250.3z"/>
	<path class="st1" d="M354.7,333.8c0,5.7-4.6,10.2-10.2,10.2c-5.7,0-10.2-4.6-10.2-10.2c0-5.7,4.6-10.2,10.2-10.2
		C350.1,323.6,354.7,328.2,354.7,333.8z"/>
	<circle class="st1" cx="282.4" cy="139.4" r="10.2"/>
	<path class="st1" d="M240.7,313.4c0,5.7-4.6,10.2-10.2,10.2s-10.2-4.6-10.2-10.2s4.6-10.2,10.2-10.2S240.7,307.7,240.7,313.4z"/>
</g>
</svg>
