<?xml version="1.0" encoding="utf-8"?>
<!-- Generator: Adobe Illustrator 24.0.3, SVG Export Plug-In . SVG Version: 6.00 Build 0)  -->
<svg version="1.1" id="Layer_1" xmlns="http://www.w3.org/2000/svg" xmlns:xlink="http://www.w3.org/1999/xlink" x="0px" y="0px"
	 viewBox="0 0 500 500" style="enable-background:new 0 0 500 500;" xml:space="preserve">
<style type="text/css">
	.st0{fill:#AECB8D;}
	.st1{fill:#A7C87E;}
	.st2{fill:none;stroke:#AECB8D;stroke-width:2;stroke-miterlimit:10;}
	.st3{fill:#FFFFFF;}
	.st4{fill:none;stroke:#A7C87E;stroke-width:3;stroke-miterlimit:10;}
	.st5{fill:none;stroke:#A7C87E;stroke-width:2;stroke-miterlimit:10;}
	.st6{fill:none;stroke:#A7C87E;stroke-width:2;stroke-miterlimit:10;stroke-dasharray:5.9695,5.9695;}
	.st7{fill:none;stroke:#FFFFFF;stroke-linecap:round;stroke-miterlimit:10;}
	.st8{fill:none;stroke:#A7C87E;stroke-width:5;stroke-miterlimit:10;}
	.st9{fill:none;stroke:#A7C87E;stroke-miterlimit:10;}
	.st10{fill:none;stroke:#A7C87E;stroke-width:10;stroke-miterlimit:10;}
	.st11{fill:url(#);}
	.st12{fill:#A7C87E;stroke:#A7C87E;stroke-width:0.25;stroke-miterlimit:10;}
	.st13{fill:#FFFFFF;stroke:#FFFFFF;stroke-width:0.25;stroke-miterlimit:10;}
	.st14{fill:none;stroke:#A7C87E;stroke-width:0.25;stroke-miterlimit:10;}
</style>
<g>
	<path class="st0" d="M250.2,18.8c31.2,0,61.4,6.1,89.9,18.1c27.5,11.6,52.2,28.3,73.4,49.5s37.9,45.9,49.5,73.4
		c12,28.5,18.1,58.7,18.1,89.9c0,31.2-6.1,61.4-18.1,89.9c-11.6,27.5-28.3,52.2-49.5,73.4c-21.2,21.2-45.9,37.9-73.4,49.5
		c-28.5,12-58.7,18.1-89.9,18.1s-61.4-6.1-89.9-18.1c-27.5-11.6-52.2-28.3-73.4-49.5c-21.2-21.2-37.9-45.9-49.5-73.4
		c-12-28.5-18.1-58.7-18.1-89.9c0-31.2,6.1-61.4,18.1-89.9c11.6-27.5,28.3-52.2,49.5-73.4s45.9-37.9,73.4-49.5
		C188.8,24.9,219,18.8,250.2,18.8 M250.2,8.8C117.1,8.8,9.3,116.6,9.3,249.7s107.9,240.9,240.9,240.9s240.9-107.9,240.9-240.9
		S383.3,8.8,250.2,8.8L250.2,8.8z"/>
</g>
<g>
	<path class="st1" d="M286.3,124.5c7.9,0,15.2,4.7,18.4,12l35.9,79.9c1.2,2.7,1.8,5.5,1.8,8.4l-0.5,148c0,11.2-9.2,20.3-20.4,20.2
		l-64.3-0.2l-14,0l-64.3-0.2c-11.2,0-20.3-9.2-20.2-20.4l0.5-148c0-2.9,0.6-5.7,1.8-8.4l35.4-77.5c3.9-8.6,12.5-14.1,22-14.1
		l25.7,0.1l14,0L286.3,124.5 M286.3,120.6l-28.1-0.1l-14,0l-25.7-0.1c-11,0-20.9,6.4-25.5,16.3l-35.4,77.5c-1.4,3.1-2.2,6.5-2.2,10
		l-0.5,148c0,13.3,10.7,24.2,24.1,24.2l64.3,0.2l14,0l64.3,0.2c13.3,0,24.2-10.7,24.2-24.1l0.5-148c0-3.4-0.7-6.8-2.1-10l-35.9-79.9
		C304.3,126.2,295.8,120.6,286.3,120.6z"/>
	
		<rect x="206.8" y="182.5" transform="matrix(3.091559e-03 -1 1 3.091559e-03 -28.0653 527.7821)" class="st1" width="87.7" height="190.9"/>
	<path class="st1" d="M319.4,140.9l-136.6-0.4c-5.8,0-10.4-4.7-10.4-10.5l0.1-18.7c0-6.2,5-11.2,11.2-11.1l135.9,0.4
		c5.8,0,10.4,4.7,10.4,10.5l-0.1,19.4C329.9,136.2,325.2,140.9,319.4,140.9z"/>
</g>
</svg>
