<?xml version="1.0" encoding="utf-8"?>
<!-- Generator: Adobe Illustrator 24.0.3, SVG Export Plug-In . SVG Version: 6.00 Build 0)  -->
<svg version="1.1" id="Layer_1" xmlns="http://www.w3.org/2000/svg" xmlns:xlink="http://www.w3.org/1999/xlink" x="0px" y="0px"
	 viewBox="0 0 500 500" style="enable-background:new 0 0 500 500;" xml:space="preserve">
<style type="text/css">
	.st0{fill:#AECB8D;}
	.st1{fill:#A7C87E;}
	.st2{fill:none;stroke:#AECB8D;stroke-width:2;stroke-miterlimit:10;}
	.st3{fill:#FFFFFF;}
	.st4{fill:none;stroke:#A7C87E;stroke-width:3;stroke-miterlimit:10;}
	.st5{fill:none;stroke:#A7C87E;stroke-width:2;stroke-miterlimit:10;}
	.st6{fill:none;stroke:#A7C87E;stroke-width:2;stroke-miterlimit:10;stroke-dasharray:5.9695,5.9695;}
	.st7{fill:none;stroke:#FFFFFF;stroke-linecap:round;stroke-miterlimit:10;}
	.st8{fill:none;stroke:#A7C87E;stroke-width:5;stroke-miterlimit:10;}
	.st9{fill:none;stroke:#A7C87E;stroke-miterlimit:10;}
	.st10{fill:none;stroke:#A7C87E;stroke-width:10;stroke-miterlimit:10;}
	.st11{fill:url(#);}
	.st12{fill:#A7C87E;stroke:#A7C87E;stroke-width:0.25;stroke-miterlimit:10;}
	.st13{fill:#FFFFFF;stroke:#FFFFFF;stroke-width:0.25;stroke-miterlimit:10;}
	.st14{fill:none;stroke:#A7C87E;stroke-width:0.25;stroke-miterlimit:10;}
</style>
<g>
	<path class="st0" d="M250.2,18.8c31.2,0,61.4,6.1,89.9,18.1c27.5,11.6,52.2,28.3,73.4,49.5s37.9,45.9,49.5,73.4
		c12,28.5,18.1,58.7,18.1,89.9s-6.1,61.4-18.1,89.9c-11.6,27.5-28.3,52.2-49.5,73.4s-45.9,37.9-73.4,49.5
		c-28.5,12-58.7,18.1-89.9,18.1s-61.4-6.1-89.9-18.1c-27.5-11.6-52.2-28.3-73.4-49.5s-37.9-45.9-49.5-73.4
		c-12-28.5-18.1-58.7-18.1-89.9s6.1-61.4,18.1-89.9c11.6-27.5,28.3-52.2,49.5-73.4s45.9-37.9,73.4-49.5
		C188.8,24.9,219,18.8,250.2,18.8 M250.2,8.8C117.1,8.8,9.3,116.6,9.3,249.7s107.9,240.9,240.9,240.9s240.9-107.9,240.9-240.9
		S383.3,8.8,250.2,8.8L250.2,8.8z"/>
</g>
<g>
	<path class="st12" d="M343.7,234.2c1.2-4,1.8-8.2,1.8-12.6c0-24.6-19.9-44.5-44.5-44.5c-3.8,0-7.6,0.5-11.1,1.4
		c0.4-2.3,0.6-4.7,0.6-7.1c0-24.6-19.9-44.5-44.5-44.5c-24.6,0-44.5,19.9-44.5,44.5c0,0.2,0,0.4,0,0.6c-6.5-3.7-14-5.8-22-5.8
		c-24.6,0-44.5,19.9-44.5,44.5c0,6.4,1.4,12.5,3.8,18c-12.4,7.9-20.6,21.7-20.6,37.5c0,24.6,19.9,44.5,44.5,44.5c0.3,0,0.5,0,0.8,0
		c-0.5,2.6-0.8,5.4-0.8,8.1c0,24.6,19.9,44.5,44.5,44.5c13.8,0,26.2-6.3,34.4-16.2c7.9,7.1,18.3,11.4,29.8,11.4
		c24,0,43.5-19,44.5-42.7c1.1,0.1,2.3,0.1,3.4,0.1c24.6,0,44.5-19.9,44.5-44.5C363.7,255.9,355.8,242.2,343.7,234.2z"/>
	<g>
		<g>
			<path class="st1" d="M178.6,397.2c-4.6,0-8.7-1-12.3-3.1c-4.9-2.8-8.7-7.5-11.1-14c-2.4-6.2-3.6-14.1-3.6-23.3
				c0-35.4,17.4-86.6,46.5-137c29.3-50.8,65.2-91.6,96.1-109.1c10-5.7,19.1-8.6,26.8-8.6c4.6,0,8.7,1,12.3,3.1
				c4.9,2.8,8.7,7.5,11.1,14c2.4,6.2,3.6,14.1,3.6,23.3c0,15.1-3.3,33.9-9.7,54.5c-0.1-0.1-0.2-0.2-0.2-0.3
				c6.3-20.5,9.6-39.2,9.6-54.2c0-9.2-1.2-17-3.6-23.2c-2.5-6.4-6.2-11-11-13.8c-3.5-2-7.6-3-12.1-3c-7.7,0-16.6,2.9-26.6,8.6
				c-9.8,5.6-20.3,13.7-31.3,24.1c-22.4,21.4-45.4,51.5-64.7,84.9c-29.1,50.3-46.4,101.5-46.4,136.9c0,9.2,1.2,17,3.6,23.2
				c2.5,6.4,6.2,11,11,13.8c3.5,2,7.6,3,12.1,3c7.7,0,16.6-2.9,26.6-8.6c9.8-5.6,20.3-13.7,31.3-24.1c3.9-3.7,7.9-7.7,11.8-12
				c0.1,0.1,0.2,0.1,0.3,0.2c-15,16.1-29.9,28.6-43.2,36.2C195.3,394.3,186.3,397.2,178.6,397.2L178.6,397.2z"/>
			<path class="st1" d="M320.8,102.2c4.6,0,8.7,1,12.2,3.1c4.9,2.8,8.6,7.5,11.1,13.9c2.4,6.2,3.6,14.1,3.6,23.3
				c0,15-3.3,33.8-9.6,54.2c0,0,0,0,0-0.1c6.3-20.4,9.6-39.2,9.6-54.2c0-9.2-1.2-17-3.6-23.3c-2.5-6.4-6.2-11.1-11.1-13.9
				C329.5,103.3,325.4,102.2,320.8,102.2c-7.7,0.1-16.7,3-26.7,8.6c-9.8,5.6-20.4,13.7-31.3,24.1c-22.4,21.4-45.4,51.5-64.7,84.9
				c-29.1,50.4-46.4,101.5-46.4,136.9c0,9.2,1.2,17,3.6,23.3c2.5,6.4,6.2,11.1,11.1,13.9c3.5,2,7.6,3.1,12.2,3.1
				c7.7,0,16.7-2.9,26.7-8.6c9.8-5.6,20.4-13.7,31.3-24.1c3.9-3.7,7.8-7.7,11.8-12c0,0,0,0,0.1,0c-14.9,16.1-29.8,28.5-43.1,36.1
				c-10,5.7-19,8.6-26.7,8.6c-4.6,0-8.7-1-12.2-3.1c-4.9-2.8-8.6-7.5-11.1-13.9c-2.4-6.2-3.6-14.1-3.6-23.3
				c0-35.4,17.4-86.6,46.4-137c14.6-25.2,31.3-48.7,48.3-67.8c16.5-18.6,33-32.8,47.8-41.2C304.1,105.1,313.1,102.2,320.8,102.2
				L320.8,102.2 M320.8,101.9C320.8,101.9,320.8,101.9,320.8,101.9c-7.9,0-17,3-26.9,8.6c-29.6,16.8-65.9,56.9-96.1,109.1
				c-30,51.9-46.5,103.1-46.5,137.1c0,9.1,1.2,17,3.6,23.4c2.4,6.3,6.2,11.2,11.2,14.1c3.6,2.1,7.8,3.1,12.3,3.1c0,0,0,0,0,0
				c7.9,0,17-3,26.9-8.6c13.5-7.6,28.3-20.1,43.4-36.4c-0.2-0.1-0.3-0.2-0.5-0.3c-4,4.3-8,8.3-11.9,12.1
				c-10.9,10.3-21.4,18.5-31.2,24.1c-9.8,5.6-18.8,8.5-26.6,8.5c0,0,0,0,0,0c-4.5,0-8.5-1-12.1-3c-4.9-2.8-8.5-7.5-11-13.8
				c-2.4-6.3-3.6-14.1-3.6-23.2c0-33.8,16.5-84.9,46.4-136.8c20.1-34.8,42.9-64.2,64.7-84.9c10.9-10.3,21.4-18.5,31.2-24.1
				c9.8-5.6,18.8-8.5,26.6-8.5c0,0,0,0,0,0c4.5,0,8.5,1,12.1,3c4.9,2.8,8.5,7.5,11,13.8c2.4,6.3,3.6,14.1,3.6,23.2
				c0,15.1-3.3,33.7-9.6,54.2c0.1,0.2,0.3,0.4,0.4,0.6c6.4-20.7,9.8-39.5,9.8-54.8c0-9.1-1.2-17-3.6-23.4
				c-2.4-6.3-6.2-11.2-11.2-14.1C329.5,102.9,325.4,101.9,320.8,101.9L320.8,101.9z"/>
		</g>
		<g>
			<path class="st1" d="M328.5,392.1c-1,0-2.1,0-3.2-0.1c-6.7-0.6-14.2-2.9-22.5-7c-31.8-15.6-70.2-53.7-102.6-102
				c-32.7-48.7-53.6-98.9-55.7-134.3c-0.7-11.5,0.7-20.9,4.1-27.9c2-4.1,4.8-7.4,8.2-9.7c3.9-2.7,8.7-4,14.3-4c1,0,2.1,0,3.2,0.1
				c6.7,0.6,14.2,2.9,22.5,7c8.7,4.2,18,10.3,27.7,18c-0.1,0.1-0.2,0.1-0.3,0.2c-9.7-7.6-19-13.7-27.6-17.9c-8.3-4-15.8-6.4-22.4-7
				c-1.1-0.1-2.2-0.1-3.2-0.1c-5.4,0-10.2,1.3-14.1,3.9c-3.4,2.3-6.1,5.5-8.1,9.5c-3.4,6.9-4.7,16.2-4,27.7
				c0.7,11.3,3.3,24.3,7.9,38.7c9.3,29.5,26.3,63.4,47.8,95.4c32.4,48.2,70.7,86.3,102.5,101.9c8.3,4,15.8,6.4,22.4,7
				c1.1,0.1,2.2,0.1,3.2,0.1c5.4,0,10.2-1.3,14.1-3.9c3.4-2.3,6.1-5.5,8.1-9.5c3.4-6.9,4.7-16.2,4-27.7c-0.7-11.3-3.3-24.3-7.9-38.7
				c-0.5-1.4-0.9-2.9-1.4-4.3c0.1-0.1,0.2-0.1,0.3-0.2c5.4,16.2,8.6,30.7,9.3,43.2c0.7,11.5-0.7,20.9-4.1,27.9
				c-2,4.1-4.8,7.4-8.2,9.7C338.8,390.7,334,392.1,328.5,392.1L328.5,392.1z"/>
			<path class="st1" d="M170.9,107.3c1,0,2.1,0,3.2,0.1c6.6,0.6,14.2,2.9,22.5,7c8.6,4.2,17.9,10.2,27.6,17.9c0,0,0,0-0.1,0
				c-9.7-7.6-18.9-13.6-27.5-17.8c-8.3-4.1-15.8-6.4-22.5-7C173,107.4,171.9,107.3,170.9,107.3c-5.4,0.1-10.1,1.4-13.9,3.9l0,0
				l-0.4,0.3l0,0c-3.3,2.3-5.9,5.4-7.9,9.5c-3.4,6.9-4.7,16.3-4,27.8c0.7,11.3,3.3,24.3,7.9,38.7c9.3,29.5,26.3,63.4,47.8,95.5
				c32.4,48.3,70.8,86.4,102.5,101.9c8.3,4.1,15.8,6.4,22.5,7c1.1,0.1,2.2,0.1,3.2,0.1c5.5,0,10.2-1.3,14.1-4
				c3.4-2.3,6.1-5.5,8.1-9.6c3.4-6.9,4.7-16.3,4-27.8c-0.7-11.3-3.3-24.3-7.9-38.7c-0.4-1.3-0.8-2.6-1.4-4.3c0,0,0,0,0.1,0
				c5.4,16.1,8.5,30.6,9.3,43c0.7,11.5-0.7,20.9-4.1,27.8c-2,4.1-4.7,7.3-8.1,9.6c-3.9,2.6-8.7,4-14.2,4c-1,0-2.1,0-3.2-0.1
				c-6.6-0.6-14.2-2.9-22.5-7c-31.8-15.6-70.1-53.7-102.6-101.9c-16.2-24.2-30-49.5-39.7-73.2c-9.4-23-15-44.1-16-61
				c-0.7-11.5,0.7-20.9,4.1-27.8c2-4.1,4.7-7.3,8.1-9.6C160.6,108.6,165.4,107.3,170.9,107.3 M170.9,107c-5.4,0-10.3,1.3-14.3,4
				c-3.5,2.3-6.2,5.6-8.2,9.7c-3.5,7.1-4.8,16.6-4.1,27.9c2.1,33.9,22.1,84.2,55.7,134.3c33.4,49.7,72.1,87.1,102.7,102
				c8.2,4,15.8,6.4,22.6,7c1.1,0.1,2.2,0.1,3.2,0.1c5.4,0,10.3-1.3,14.3-4c3.5-2.3,6.2-5.6,8.2-9.7c3.5-7.1,4.8-16.6,4.1-27.9
				c-0.8-12.5-4-27.3-9.4-43.4c-0.2,0.1-0.3,0.2-0.5,0.4c0.5,1.5,1,3,1.4,4.4c4.5,14.3,7.2,27.4,7.9,38.6c0.7,11.3-0.6,20.7-4,27.6
				c-2,4-4.6,7.2-8,9.5c-3.9,2.6-8.7,3.9-14,3.9c-1,0-2.1,0-3.2-0.1c-6.7-0.6-14.2-3-22.4-7c-30.4-14.9-69.1-52.1-102.4-101.8
				c-22.4-33.4-38.8-66.8-47.8-95.4c-4.5-14.3-7.2-27.4-7.9-38.6c-0.7-11.3,0.6-20.7,4-27.6c2-4,4.6-7.2,8-9.5l-0.2-0.2l0.2,0.2v0
				c3.9-2.6,8.7-3.9,14-3.9c1,0,2.1,0,3.2,0.1c6.7,0.6,14.2,3,22.4,7c8.6,4.2,18,10.3,27.6,17.9c0.2-0.1,0.3-0.2,0.5-0.3
				c-9.8-7.7-19.2-13.8-27.9-18.1c-8.2-4-15.8-6.4-22.6-7C173,107.1,171.9,107,170.9,107L170.9,107z"/>
		</g>
		<g>
			<path class="st1" d="M356.8,295.4c0.1-0.2,0.3-0.4,0.3-0.5c20-6,35.9-13.7,46-22.3c8.7-7.3,13-15.1,13-23.1c0-8-4.4-15.8-13-23.1
				c-8.4-7.1-20.4-13.4-35.7-18.9c-31.5-11.2-73.3-17.4-117.8-17.4c-33.4,0-65.6,3.5-93.1,10.2c-26.9,6.5-47.7,15.5-60.3,26.2
				c-8.7,7.3-13,15.1-13,23.1c0,8,4.4,15.8,13,23.1c6.9,5.8,16.4,11.2,28.1,16c0,0,0,0.1,0,0.1c0,0.1,0.1,0.2,0.2,0.3
				c-11.9-4.8-21.5-10.3-28.5-16.2c-8.7-7.4-13.2-15.2-13.2-23.3c0-8.1,4.4-15.9,13.2-23.3c8.4-7.1,20.4-13.5,35.8-19
				c31.5-11.3,73.4-17.5,117.9-17.5c33.4,0,65.6,3.5,93.2,10.2c26.9,6.5,47.8,15.6,60.4,26.2c8.7,7.4,13.2,15.2,13.2,23.3
				c0,8.1-4.4,15.9-13.2,23.3c-8.4,7.1-20.4,13.5-35.8,19C364.2,293.1,360.6,294.3,356.8,295.4z"/>
			<path class="st1" d="M249.7,189.7v0.2c33.4,0,65.6,3.5,93.2,10.2c26.9,6.5,47.8,15.6,60.4,26.2c8.7,7.3,13.1,15.2,13.1,23.2
				c0,8.1-4.4,15.9-13.1,23.2c-8.4,7.1-20.4,13.5-35.7,18.9c-3.3,1.2-6.8,2.3-10.4,3.4c0,0,0-0.1,0.1-0.1c20-6,35.9-13.8,46.1-22.3
				c8.7-7.3,13.1-15.1,13.1-23.2c0-8-4.4-15.8-13.1-23.2c-8.4-7.1-20.4-13.5-35.7-18.9c-31.5-11.3-73.3-17.4-117.8-17.4
				c-33.4,0-65.6,3.5-93.2,10.2c-26.9,6.5-47.8,15.6-60.4,26.2c-8.7,7.3-13.1,15.1-13.1,23.2c0,8,4.4,15.8,13.1,23.2
				c6.9,5.8,16.3,11.2,28.1,16c0,0,0,0.1,0,0.1c0,0,0,0,0,0c-11.8-4.8-21.2-10.2-28.2-16.1c-8.7-7.3-13.1-15.2-13.1-23.2
				c0-8.1,4.4-15.9,13.1-23.2c8.4-7.1,20.4-13.5,35.7-18.9c31.5-11.3,73.3-17.5,117.9-17.5V189.7 M249.7,189.7
				c-46.1,0-87.7,6.7-117.9,17.5c-15.1,5.4-27.3,11.8-35.8,19c-8.5,7.2-13.2,15.1-13.2,23.4c0,8.3,4.7,16.2,13.2,23.4
				c7.1,6,17,11.5,28.9,16.4c0,0,0-0.1-0.1-0.1c-0.1-0.2-0.2-0.3-0.3-0.5c0-0.1-0.1-0.1-0.1-0.2c-11.6-4.7-21.1-10.1-28.1-16
				c-8.4-7.1-13-14.9-13-23c0-8.1,4.6-15.9,13-23c12.6-10.6,33.7-19.7,60.3-26.2c26.6-6.4,58.6-10.2,93.1-10.2
				c46,0,87.6,6.7,117.8,17.4c15.1,5.4,27.2,11.8,35.6,18.9c8.4,7.1,13,14.9,13,23c0,8.1-4.6,15.9-13,23
				c-10.3,8.7-26.2,16.3-46.1,22.3c0,0.1-0.5,0.7-0.5,0.7c3.9-1.1,7.6-2.4,11.1-3.6c15.1-5.4,27.3-11.8,35.8-19
				c8.5-7.2,13.2-15.1,13.2-23.4c0-8.3-4.7-16.2-13.2-23.4c-12.7-10.7-33.9-19.8-60.5-26.3C316.3,193.5,284.2,189.7,249.7,189.7
				L249.7,189.7z"/>
		</g>
	</g>
	<g>
		<path class="st13" d="M266.2,131.7c-0.1,0-0.1,0-0.1-0.1c-0.1,0-0.1,0-0.2-0.1c-22.8,20.8-46.9,51.5-68.1,88.1
			c-18.4,31.8-31.6,63.3-39.2,90.8c0,0,0.1,0,0.1,0c0,0,0,0,0,0c0.1,0,0.1,0,0.2,0c0,0,0,0,0,0c0.1,0,0.1,0,0.2,0
			c7.5-27.4,20.8-58.8,39.1-90.6c20.1-34.8,42.9-64.2,64.7-84.9c1.2-1.1,2.3-2.2,3.5-3.2C266.4,131.8,266.3,131.8,266.2,131.7z"/>
		<path class="st13" d="M264.4,358c0.1,0,0.3,0,0.4,0.1c0,0,0,0,0,0c0.1,0,0.1,0,0.2,0c0,0,0,0,0,0c0,0,0,0,0.1,0
			c-21.4-18.9-44-44.8-64.6-75.4c-22.4-33.4-38.8-66.8-47.8-95.4c-1.1-3.4-2-6.6-2.9-9.9c0,0-0.4,0.4-0.5,0.4
			c8.2,30.6,25.6,67.9,50.6,105.2c20.4,30.3,42.7,56,64,74.9C264.1,357.9,264.3,357.9,264.4,358z"/>
		<path class="st13" d="M339.7,199.6c0,0,0-0.1-0.1-0.1c-0.1-0.1-0.2-0.2-0.2-0.3c-25.9-5.9-56.7-9.4-89.8-9.4
			c-44.3,0-84.6,6.2-114.5,16.3c0,0.1,0,0.3,0,0.4v0v0c0,0.1,0,0.1,0,0.2v0c0,0,0,0,0,0c6.7-2.3,13.8-4.3,21.5-6.2
			c26.6-6.4,58.6-10.2,93.1-10.2c33.2,0,64.2,3.5,90.1,9.5C339.8,199.7,339.8,199.6,339.7,199.6z"/>
	</g>
</g>
</svg>
