<svg id="Layer_1" data-name="Layer 1" xmlns="http://www.w3.org/2000/svg" viewBox="0 0 500 500"><defs><style>.cls-1{fill:#aecb8d;}.cls-2{fill:#a7c87e;}</style></defs><path class="cls-1" d="M250.2,18.78a231,231,0,0,1,89.88,443.69A231,231,0,0,1,160.32,36.93,229.43,229.43,0,0,1,250.2,18.78m0-10C117.15,8.78,9.29,116.65,9.29,249.7S117.15,490.62,250.2,490.62,491.12,382.75,491.12,249.7,383.26,8.78,250.2,8.78Z"/><path class="cls-2" d="M245.72,311.67l-46.5-25a6.74,6.74,0,0,1-2.75-9.13l43.68-81.35a6.74,6.74,0,0,1,9.13-2.75l46.5,25a6.76,6.76,0,0,1,2.75,9.14l-43.68,81.34A6.73,6.73,0,0,1,245.72,311.67Z"/><path class="cls-2" d="M292,167.1l30.79,3a30.94,30.94,0,0,1-61.61-5.72Z"/><polyline class="cls-2" points="213.38 322.71 289.35 181.22 283.86 178.28 207.89 319.76"/><polyline class="cls-2" points="200.78 222.75 298.18 275.05 300.14 271.39 202.74 219.09"/><path class="cls-2" d="M394.45,375.61l1-1.83-102.24-54.9a12.4,12.4,0,0,1-6.55-10.95,12.26,12.26,0,0,1,1.48-5.86l29-54A12.41,12.41,0,0,1,333.93,243l102.24,54.9a12.41,12.41,0,0,1,5.07,16.82l-29,54a12.42,12.42,0,0,1-11,6.54,12.29,12.29,0,0,1-5.86-1.48l-1,1.83-1,1.83a16.37,16.37,0,0,0,7.83,2,16.54,16.54,0,0,0,14.61-8.73l29-54a16.55,16.55,0,0,0-6.76-22.44l-102.24-54.9a16.57,16.57,0,0,0-22.44,6.77l-29,54a16.58,16.58,0,0,0,6.76,22.44l102.24,54.9Z"/><polyline class="cls-2" points="350.39 249.5 307.69 329.03 311.35 330.99 354.05 251.46"/><polyline class="cls-2" points="384.2 267.65 341.5 347.18 345.16 349.14 387.86 269.62"/><polyline class="cls-2" points="415.03 284.2 372.33 363.73 375.98 365.7 418.69 286.17"/><polyline class="cls-2" points="307.32 261.92 435.11 330.53 437.07 326.88 309.29 258.26"/><polyline class="cls-2" points="291.97 290.51 419.75 359.13 421.71 355.47 293.93 286.86"/><path class="cls-2" d="M169.26,254.7l1-1.83L68,198a12.39,12.39,0,0,1-5.06-16.82l29-54a12.44,12.44,0,0,1,11-6.54,12.29,12.29,0,0,1,5.86,1.48L211,177a12.41,12.41,0,0,1,5.07,16.82l-29,54a12.41,12.41,0,0,1-16.82,5.07l-1,1.83-1,1.83a16.57,16.57,0,0,0,22.44-6.77l29-54A16.58,16.58,0,0,0,213,173.34l-102.24-54.9a16.37,16.37,0,0,0-7.83-2,16.54,16.54,0,0,0-14.61,8.73l-29,54A16.55,16.55,0,0,0,66,201.63l102.24,54.9Z"/><polyline class="cls-2" points="125.21 128.58 82.51 208.11 86.16 210.08 128.87 130.55"/><polyline class="cls-2" points="159.02 146.74 116.31 226.27 119.97 228.23 162.67 148.7"/><polyline class="cls-2" points="189.85 163.29 147.14 242.82 150.8 244.78 193.5 165.25"/><polyline class="cls-2" points="82.14 141 209.92 209.62 211.88 205.96 84.1 137.35"/><polyline class="cls-2" points="66.78 169.6 194.57 238.22 196.53 234.56 68.75 165.94"/><path class="cls-2" d="M218.44,333.49a12.68,12.68,0,1,1-5.17-17.17A12.67,12.67,0,0,1,218.44,333.49Z"/><path class="cls-2" d="M167.79,310.87A20.5,20.5,0,0,0,156.1,329a17.87,17.87,0,0,0,.31,3.33,18.67,18.67,0,0,0,6.5,10.77,22.48,22.48,0,0,0,5.62,3.52l.79-1.92a20.44,20.44,0,0,1-5.07-3.19,16.48,16.48,0,0,1-5.8-9.57,15.25,15.25,0,0,1-.28-2.94,18.49,18.49,0,0,1,10.54-16.22l-.92-1.86Z"/><path class="cls-2" d="M177.62,314.93a15.85,15.85,0,0,0-9,14,14.05,14.05,0,0,0,.24,2.57,14.43,14.43,0,0,0,5,8.33,17.35,17.35,0,0,0,4.33,2.71l.79-1.92a15.67,15.67,0,0,1-3.78-2.38,12.26,12.26,0,0,1-4.33-7.13,11.42,11.42,0,0,1-.21-2.18,13.79,13.79,0,0,1,7.87-12.11l-.92-1.86Z"/><path class="cls-2" d="M186.91,319.65a10.43,10.43,0,0,0-5.92,9.17,9,9,0,0,0,.16,1.71,9.53,9.53,0,0,0,3.31,5.48,11.68,11.68,0,0,0,2.85,1.79l.78-1.93a9.29,9.29,0,0,1-2.29-1.44,7.48,7.48,0,0,1-2.61-4.29,7.37,7.37,0,0,1-.12-1.32,8.32,8.32,0,0,1,4.77-7.31l-.93-1.86Z"/><path class="cls-2" d="M233.69,358.44c9.3-.69,16.9-7.14,18.62-15.54a16.76,16.76,0,0,0,.34-3.46,19.87,19.87,0,0,0-2.9-10,22.73,22.73,0,0,0-3.27-4.31L245,326.57a20.16,20.16,0,0,1,2.94,3.89,17.77,17.77,0,0,1,2.62,9,14.82,14.82,0,0,1-.31,3.05c-1.49,7.4-8.3,13.26-16.73,13.87l.15,2.08Z"/><path class="cls-2" d="M226.12,351c7.17-.52,13-5.5,14.37-12a13.24,13.24,0,0,0,.27-2.68,15.34,15.34,0,0,0-2.24-7.75A17.1,17.1,0,0,0,236,325.2l-1.46,1.48a15.48,15.48,0,0,1,2.2,2.9,13.28,13.28,0,0,1,2,6.7,11.28,11.28,0,0,1-.23,2.27c-1.1,5.5-6.18,9.89-12.49,10.34l.16,2.08Z"/><path class="cls-2" d="M219.29,343.09a10.24,10.24,0,0,0,9.44-7.9,9.17,9.17,0,0,0,.18-1.77,10.1,10.1,0,0,0-1.47-5.11,11.53,11.53,0,0,0-1.67-2.18l-1.45,1.49a8.51,8.51,0,0,1,1.33,1.75,8.1,8.1,0,0,1,1.18,4.05,6.55,6.55,0,0,1-.14,1.36,8.17,8.17,0,0,1-7.55,6.24l.15,2.07Z"/></svg>