<svg id="Layer_1" data-name="Layer 1" xmlns="http://www.w3.org/2000/svg" viewBox="0 0 500 500"><defs><style>.cls-1{fill:#aecb8d;}.cls-2{fill:#a7c87e;}</style></defs><path class="cls-1" d="M250.2,18.78a231,231,0,0,1,89.88,443.69A231,231,0,0,1,160.32,36.93,229.43,229.43,0,0,1,250.2,18.78m0-10C117.15,8.78,9.29,116.65,9.29,249.7S117.15,490.62,250.2,490.62,491.12,382.75,491.12,249.7,383.26,8.78,250.2,8.78Z"/><path class="cls-2" d="M134.49,426.37V364.71l-.45-.46a48.8,48.8,0,0,1-8.75-12.89,40.79,40.79,0,0,1-3.85-17.92c0-49.19,0-92.46,0-132.3,0-4.42,1.39-7.75,4.25-10.17a10.58,10.58,0,0,1,6.89-2.57,11.35,11.35,0,0,1,11.1,9.6,27.61,27.61,0,0,1,.36,4.69q0,18.92,0,37.83v13.85c0,4.67,1.65,7,4.89,7H149c1.91,0,5.1-1,5.1-7q0-20.64,0-41.29V162.19a15.59,15.59,0,0,1,.41-4.53c1.47-4.94,5.85-8.52,10.41-8.52h.15c4.75.08,9.12,3.87,10.39,9a20.12,20.12,0,0,1,.42,4.8v91.28c0,.64,0,1.3,0,2,.16,3.07,2.22,5.21,5,5.21H181c2.81,0,4.79-2.18,4.94-5.32,0-.68,0-1.34,0-2v-.7q0-13.32,0-26.63c0-25.46,0-51.79,0-77.69,0-6.94,2.64-11.28,8.36-13.65h6c5.67,2.37,8.31,6.74,8.3,13.74,0,26,0,52.39,0,77.93v26.72c0,.84,0,1.71,0,2.58a4.76,4.76,0,0,0,4.76,4.91h.26c2.54,0,4.42-1.71,4.9-4.47a11.86,11.86,0,0,0,.11-2.43c0-.23,0-.46,0-.68V237.06q0-32.2,0-64.41c0-4.37,1.41-7.68,4.35-10.1a10.05,10.05,0,0,1,6.46-2.57,10.38,10.38,0,0,1,3.9.82c3.93,1.62,6.23,4.63,7,9.22a32.61,32.61,0,0,1,.35,5.38q0,29.28,0,58.54,0,22.53,0,45.07c0,.27,0,.55,0,.83-.07,1.77-.17,4.74,3,6a5.53,5.53,0,0,0,2,.39c2.48,0,4-1.88,5.21-3.38l.09-.12c1.93-2.38,3.92-4.78,5.84-7.1q2.58-3.12,5.15-6.26c4-5,9.33-7.68,14.92-7.68a20,20,0,0,1,14,6.26,1.29,1.29,0,0,1,.2.25c0,.08-.22.46-.35.71l-.06.12-25.43,48.76-6,11.66c-4.16,8.05-8.46,16.36-12.8,24.48a46.41,46.41,0,0,1-5.3,7.93l-.37.44v64.1Z"/><path class="cls-2" d="M220.24,199.41c0,12.88,0,25.73,0,38.33v5l7.8,15c3.75,7.19,7.46,14.41,11.2,21.61a2.44,2.44,0,0,0,0-.27l0-45.41q0-9.87,0-19.73-2.62-3.17-5.24-6.36A21.34,21.34,0,0,0,220.24,199.41Z"/><path class="cls-2" d="M210.18,223.41l6.89,13.23q0-18.69,0-37.37a19.53,19.53,0,0,0-6.9,1.57Q210.17,212.12,210.18,223.41Z"/><path class="cls-2" d="M375,140.32c0-4.53-1.34-8.45-4.82-11.39-7.47-6.32-18.9-1.88-20.57,8a29.24,29.24,0,0,0-.38,5q0,25.84,0,51.68c0,3.78-1.06,5.48-3.38,5.45s-3.54-1.84-3.54-5.45q0-45.76,0-91.52a19.15,19.15,0,0,0-.47-5.64c-1.7-5.7-6.72-9.74-12.1-9.65s-10.47,4.38-11.9,10.21a21.45,21.45,0,0,0-.47,5.18v90.56c0,.87,0,1.74,0,2.61-.12,2.26-1.51,3.74-3.47,3.71s-3.26-1.51-3.37-3.81c0-.87,0-1.74,0-2.61,0-34.77-.05-69.54,0-104.32,0-7.27-2.73-12.5-9.64-15.23h-6.64c-6.94,2.77-9.59,8.12-9.58,15.32q.08,52.16,0,104.32c0,1,0,1.9,0,2.84a3.21,3.21,0,0,1-3.25,3.4c-2,.08-3.19-1.22-3.53-3.16a16.76,16.76,0,0,1-.08-2.84q0-40.54,0-81.08c0-4.53-1.41-8.43-4.92-11.33s-7.6-3.79-12-2c-4.65,1.91-7.15,5.58-8,10.4a33.49,33.49,0,0,0-.38,5.67q-.06,51.8-.08,103.6c0,2,.52,4.36-2,5.32s-4-.84-5.48-2.62c-.85-1.06-1.72-2.1-2.58-3.14q0,30.63,0,61.27c0,2-.51,4.36,2,5.32a3.86,3.86,0,0,0,1.41.29c1.77,0,2.91-1.48,4.07-2.92,3.63-4.48,7.35-8.89,11-13.36,4.47-5.49,10.26-8.27,16.15-8.27,5.27,0,10.62,2.23,15.13,6.73,1.1,1.1.59,1.93.07,2.93q-12.72,24.38-25.42,48.76c-4.83,9.27-9.6,18.58-14.45,27.83v20.81H362V304.52a50.25,50.25,0,0,0,9.05-13.3,42.44,42.44,0,0,0,4-18.61Q375,206.46,375,140.32Z"/><path class="cls-2" d="M258,328.7q3-5.83,6.05-11.67,12.64-24.28,25.32-48.56A18,18,0,0,0,277,263.24c-5.11,0-10,2.52-13.69,7.1-1.71,2.1-3.46,4.21-5.15,6.25-1.92,2.33-3.91,4.73-5.84,7.11l-.09.11c-1.28,1.58-3.21,4-6.44,4a7.06,7.06,0,0,1-2.36-.43c1.13,2.16,2.26,4.31,3.41,6.47a47.66,47.66,0,0,0,5.49,8.2v37.46Z"/><path class="cls-2" d="M202.61,208.91q2.2,4.2,4.4,8.42,0-7.38,0-14.82a26.32,26.32,0,0,0-4.32,3.46C201.58,207.07,202.09,207.9,202.61,208.91Z"/></svg>