<?xml version="1.0" encoding="utf-8"?>
<!-- Generator: Adobe Illustrator 24.0.3, SVG Export Plug-In . SVG Version: 6.00 Build 0)  -->
<svg version="1.1" id="Layer_1" xmlns="http://www.w3.org/2000/svg" xmlns:xlink="http://www.w3.org/1999/xlink" x="0px" y="0px"
	 viewBox="0 0 500 500" style="enable-background:new 0 0 500 500;" xml:space="preserve">
<style type="text/css">
	.st0{fill:#AECB8D;}
	.st1{fill:#A7C87E;}
	.st2{fill:none;stroke:#AECB8D;stroke-width:2;stroke-miterlimit:10;}
	.st3{fill:#FFFFFF;}
	.st4{fill:none;stroke:#A7C87E;stroke-width:3;stroke-miterlimit:10;}
	.st5{fill:none;stroke:#A7C87E;stroke-width:2;stroke-miterlimit:10;}
	.st6{fill:none;stroke:#A7C87E;stroke-width:2;stroke-miterlimit:10;stroke-dasharray:5.9695,5.9695;}
	.st7{fill:none;stroke:#FFFFFF;stroke-linecap:round;stroke-miterlimit:10;}
	.st8{fill:none;stroke:#A7C87E;stroke-width:5;stroke-miterlimit:10;}
	.st9{fill:none;stroke:#A7C87E;stroke-miterlimit:10;}
	.st10{fill:none;stroke:#A7C87E;stroke-width:10;stroke-miterlimit:10;}
	.st11{fill:url(#);}
	.st12{fill:#A7C87E;stroke:#A7C87E;stroke-width:0.25;stroke-miterlimit:10;}
	.st13{fill:#FFFFFF;stroke:#FFFFFF;stroke-width:0.25;stroke-miterlimit:10;}
	.st14{fill:none;stroke:#A7C87E;stroke-width:0.25;stroke-miterlimit:10;}
</style>
<g>
	<path class="st0" d="M250.2,18.8c31.2,0,61.4,6.1,89.9,18.1c27.5,11.6,52.2,28.3,73.4,49.5s37.9,45.9,49.5,73.4
		c12,28.5,18.1,58.7,18.1,89.9c0,31.2-6.1,61.4-18.1,89.9c-11.6,27.5-28.3,52.2-49.5,73.4c-21.2,21.2-45.9,37.9-73.4,49.5
		c-28.5,12-58.7,18.1-89.9,18.1s-61.4-6.1-89.9-18.1c-27.5-11.6-52.2-28.3-73.4-49.5c-21.2-21.2-37.9-45.9-49.5-73.4
		c-12-28.5-18.1-58.7-18.1-89.9c0-31.2,6.1-61.4,18.1-89.9c11.6-27.5,28.3-52.2,49.5-73.4s45.9-37.9,73.4-49.5
		C188.8,24.9,219,18.8,250.2,18.8 M250.2,8.8C117.1,8.8,9.3,116.6,9.3,249.7s107.9,240.9,240.9,240.9s240.9-107.9,240.9-240.9
		S383.3,8.8,250.2,8.8L250.2,8.8z"/>
</g>
<g>
	<path class="st1" d="M412.6,265.2c-0.4,1.5-0.7,3-1.3,4.4c-1.9,4.5-5.2,7.5-9.9,8.7c-3.4,0.9-6.9,1.2-10.3,1.8
		c-3.8,0.7-7.5,1.3-11.3,1.9c-1.9,0.3-3.9,0.7-5.8,0.9c-0.8,0.1-1.1,0.4-1.3,1.1c-1.4,4.2-2.7,8.5-4.4,12.6c-1.8,4.4-4,8.6-6.1,12.9
		c-0.4,0.9-0.6,1.6,0.1,2.5c2.3,3.1,4.5,6.2,6.7,9.4c2.9,4.1,5.8,8.1,8.6,12.2c1.3,1.9,2,4.1,2.3,6.5c0.5,4.2-0.6,7.8-2.9,11.2
		c-0.2,0.3-0.4,0.6-0.7,0.8c-7.5,7.5-15,15-22.5,22.5c-2.2,2.1-5,3.2-8,3.7c-3.1,0.5-6.1,0-8.9-1.4c-1.8-0.9-3.5-2.1-5.1-3.3
		c-3.5-2.5-7-5-10.5-7.6c-2.6-1.9-5.2-3.7-7.8-5.6c-0.5-0.4-0.9-0.5-1.6-0.2c-7.3,3.9-14.9,7.4-22.9,9.8c-1.1,0.3-2.1,0.8-3.2,1
		c-0.8,0.2-1,0.7-1.1,1.4c-0.7,4.3-1.5,8.6-2.2,12.9c-0.6,3.7-1.3,7.5-1.8,11.2c-0.6,4.4-2.3,8.1-5.8,10.9c-2.2,1.8-4.6,3.1-7.5,3.2
		c-3.7,0.2-7.4,0.2-11.1,0.2c-6.9,0-13.9,0-20.8,0c-7.7,0-14.2-5.3-15.4-12.8c-0.7-4.4-1.5-8.9-2.2-13.3c-0.7-4.3-1.5-8.5-2.2-12.8
		c-0.1-0.6-0.4-0.8-0.8-0.9c-4.4-1.5-8.9-2.9-13.2-4.7c-4.1-1.7-8.1-3.8-12.1-5.7c-0.7-0.3-1.2-0.4-1.8,0.1
		c-4.8,3.5-9.6,6.9-14.5,10.3c-2.5,1.7-4.9,3.5-7.4,5.2c-5.5,3.8-13.5,3.3-18.4-1c-0.8-0.7-1.7-1.5-2.4-2.2
		c-6.4-6.3-12.7-12.7-19.1-19c-3.5-3.5-5.4-7.6-5.1-12.6c0.2-3,1.1-5.7,2.9-8.1c2.5-3.5,5.1-7,7.6-10.5c2.6-3.6,5.1-7.1,7.7-10.7
		c0.2-0.3,0.2-0.9,0.1-1.2c-3.2-5.6-5.9-11.5-8.1-17.6c-1.1-2.9-2-5.9-3-8.9c-0.1-0.2-0.4-0.5-0.7-0.6c-5.8-1-11.6-1.9-17.4-2.9
		c-3.6-0.6-7.2-1.2-10.7-2c-3.2-0.7-5.7-2.5-7.8-5.1c-2.4-3-3.5-6.4-3.5-10.2c0.1-9.8,0.1-19.6,0-29.4c-0.1-7.1,5-13.5,12-14.9
		c3.5-0.7,7-1.2,10.5-1.8c4.2-0.7,8.4-1.5,12.7-2.2c1-0.2,1.9-0.4,2.9-0.4c1,0,1.3-0.5,1.5-1.3c0.8-2.6,1.5-5.1,2.4-7.7
		c2.1-5.9,4.6-11.7,7.6-17.2c1-1.9,1-1.9-0.4-3.7c-2.2-3-4.3-6.1-6.5-9.1c-2.7-3.9-5.5-7.7-8.2-11.6c-1.5-2.1-2.2-4.5-2.5-7.1
		c-0.5-5.3,1.4-9.6,5.1-13.3c3.3-3.4,6.7-6.7,10.1-10.1c3.7-3.7,7.5-7.4,11.3-11c2.1-2,4.7-3,7.5-3.4c3.6-0.5,7-0.1,10.1,1.7
		c2.4,1.4,4.6,3.1,6.8,4.7c3.6,2.6,7.1,5.2,10.7,7.7c1.7,1.3,3.5,2.5,5.3,3.7c0.3,0.2,0.9,0.2,1.2,0.1c5.7-3.3,11.5-6,17.7-8.2
		c2.9-1,5.8-2,8.8-2.9c1-0.3,0.6-1.1,0.7-1.7c1.1-5.8,2-11.5,3-17.3c0.6-3.3,1.1-6.6,1.8-9.9c0.7-3.2,2.5-5.7,5-7.8
		c2.2-1.8,4.7-2.7,7.4-3.4c11.5,0,23,0,34.5,0c0,0.1,0.1,0.2,0.1,0.2c2.7,0.4,5.1,1.5,7.3,3.3c2.6,2.1,4.3,4.6,5.1,7.8
		c0.5,2.1,0.8,4.3,1.2,6.4c0.6,3.3,1.2,6.5,1.7,9.8c0.6,3.3,1.1,6.7,1.6,10c0.2,1.3,0.6,2,2,2.4c6.3,1.6,12.3,4,18.1,6.7
		c2.8,1.3,5.5,2.8,8.2,4.1c0.4,0.2,1,0.2,1.3-0.1c6.5-4.6,13-9.1,19.4-13.9c4.1-3.1,8.5-4.9,13.7-4c2.8,0.5,5.4,1.6,7.4,3.6
		c7.4,7.3,14.6,14.7,22,21.9c4.5,4.4,5.4,12,2.8,17.3c-1,2-2.4,3.7-3.6,5.5c-4.5,6.3-8.9,12.6-13.4,18.9c0.1,0.2,0.2,0.4,0.3,0.6
		c2.2,4.6,4.6,9.2,6.6,13.9c1.7,4.1,3,8.4,4.5,12.6c0.1,0.3,0.5,0.7,0.7,0.7c3.1,0.6,6.3,1,9.5,1.6c5.4,0.9,10.8,1.9,16.2,2.9
		c6.4,1.1,10.6,4.6,12.6,10.8c0.2,0.8,0.4,1.6,0.6,2.4C412.6,242.8,412.6,254,412.6,265.2z M404.1,268.6c0-0.3,0-0.5,0-0.7
		c0-11.5,0.1-23.1,0-34.6c0-2.9-2.2-5.4-5-6.1c-3.4-0.8-6.8-1.2-10.2-1.8c-2.8-0.5-5.7-0.9-8.5-1.4c-3.4-0.6-6.8-1.2-10.2-1.7
		c-2.1-0.3-4.1-0.9-4.7-3.4c-0.2-0.6-0.4-1.3-0.5-1.9c-1.6-6.3-3.9-12.3-6.6-18.1c-1.7-3.6-3.8-7.1-5.6-10.6
		c-0.8-1.5-0.9-3.2,0.1-4.6c1.5-2.4,3.3-4.7,5-7c4.2-5.9,8.5-11.9,12.7-17.9c1.7-2.4,1.3-6.1-0.8-8.2c-7.1-7.1-14.2-14.3-21.4-21.4
		c-2.2-2.1-5.6-2.6-8.2-0.7c-4.5,3.1-8.9,6.4-13.4,9.6c-3.5,2.5-7.1,4.9-10.6,7.5c-1.8,1.3-3.5,1.6-5.5,0.6
		c-4.4-2.2-8.7-4.6-13.1-6.6c-5.8-2.7-12-4.6-18.2-6.3c-1.7-0.5-2.9-1.7-3.2-3.5c-0.7-3.9-1.3-7.9-2-11.8c-1-5.8-1.9-11.6-2.9-17.4
		c-0.6-3.5-3.5-5.8-6.8-5.8c-9.9-0.1-19.7-0.1-29.6,0c-3.4,0-6.1,2.4-6.8,5.6c-0.8,4-1.4,8-2,12c-0.5,2.9-1,5.9-1.5,8.8
		c-0.5,2.7-1,5.4-1.3,8.1c-0.4,2.7-1.5,4-4.1,4.6c-1.1,0.3-2.1,0.5-3.1,0.9c-4.2,1.5-8.5,2.9-12.6,4.7c-4.4,2-8.7,4.3-13,6.6
		c-2.3,1.2-4.3,1.4-6.4-0.1c-4.6-3.4-9.3-6.7-14-10c-3.1-2.2-6.3-4.5-9.4-6.7c-2.6-1.9-6.4-1.8-8.8,0.6c-7.1,7-14.1,14.1-21.2,21.2
		c-2.1,2.1-2.5,6-0.8,8.5c2.9,4,5.7,8.1,8.6,12.1c2.8,3.9,5.5,7.8,8.3,11.6c1.4,1.9,2.1,3.8,0.9,6c-0.8,1.4-1.7,2.8-2.4,4.3
		c-2.9,5.4-5.3,11.1-7.3,16.9c-1.1,3.2-1.9,6.4-2.9,9.7c-0.3,1-0.8,1.9-1.8,2.2c-1.6,0.5-3.2,1-4.9,1.3c-4.2,0.7-8.3,1.3-12.5,2
		c-4.2,0.7-8.4,1.6-12.7,2.2c-4.2,0.5-6.7,3.6-6.7,7.4c-0.1,9.6-0.1,19.1,0,28.7c0,3,1.3,5.5,4.2,6.6c1.7,0.7,3.6,0.9,5.4,1.2
		c4.6,0.8,9.1,1.6,13.7,2.4c4.1,0.7,8.2,1.3,12.3,2c1.7,0.3,2.8,1.3,3.4,2.9c1.2,3.7,2.3,7.6,3.6,11.3c2.3,6.5,5.3,12.7,8.8,18.6
		c1.4,2.2,1.5,4.3-0.2,6.5c-3,4.1-5.9,8.3-8.9,12.4c-2.6,3.7-5.3,7.3-7.8,11c-1.8,2.7-2,6.1,0.7,8.7c7,7.1,14.1,14.1,21.2,21.2
		c2.6,2.6,6,2.5,8.8,0.6c4.1-2.8,8.1-5.8,12.2-8.7c3.8-2.7,7.6-5.4,11.4-8.1c1.8-1.3,3.7-1.9,5.9-0.8c4.2,2.2,8.5,4.4,12.8,6.4
		c5.4,2.5,11.1,4.2,16.8,5.8c1.8,0.5,3,1.5,3.3,3.5c0.1,0.5,0.2,1.1,0.3,1.6c0.5,2.9,1,5.8,1.5,8.7c0.5,2.9,0.9,5.7,1.4,8.6
		c0.6,3.4,1.2,6.8,1.7,10.2c0.5,3.2,3,6.1,6.7,6.1c9.9,0.1,19.9,0.1,29.8,0c2.6,0,4.8-1.2,6-3.7c0.5-1.1,0.8-2.3,1-3.5
		c0.5-2.9,1-5.7,1.5-8.6c0.5-2.8,0.9-5.7,1.4-8.5c0.6-3.4,1.2-6.7,1.7-10.1c0.4-2.6,1.2-3.6,3.2-4.2c2.5-0.8,5.2-1.4,7.7-2.3
		c3.3-1.1,6.6-2.3,9.7-3.8c4-1.8,8-3.8,11.9-5.9c3.2-1.7,4.4-1.9,6.9-0.2c4.3,3,8.5,6.1,12.7,9.1c3.4,2.4,6.8,4.8,10.2,7.3
		c3.5,2.6,7.1,2.3,10.1-0.7c6.7-6.7,13.4-13.4,20.1-20.1c2.7-2.8,3.3-6.3,0.9-9.6c-3.1-4.3-6.2-8.7-9.3-13.1
		c-2.4-3.3-4.8-6.7-7.1-10c-1.9-2.7-1.9-4-0.4-6.5c2.9-4.8,5.4-9.8,7.4-15.1c1.8-4.9,3.3-10,5-15c0.5-1.5,1.4-2.6,3.1-2.9
		c2.9-0.5,5.9-1,8.8-1.5c2.9-0.5,5.7-0.9,8.6-1.4c3.4-0.6,6.8-1.1,10.2-1.7c1.4-0.3,2.9-0.3,4.1-1
		C401.5,268.8,402.6,268.5,404.1,268.6z"/>
	<path class="st1" d="M183,248c0.2-18.2,6.8-34.3,20.2-47.4c13.1-12.9,29.1-19.3,47.5-19.2c18.5,0.1,34.6,6.9,47.5,20.2
		c13.7,14,20.1,31,19.1,50.6c-0.9,17.9-8.1,33.2-21.1,45.4c-13.6,12.7-29.9,18.8-48.6,18.1c-18.3-0.7-34-7.9-46.5-21.3
		C189.1,281.6,183.2,266.2,183,248z M250.9,307.2c16.9-0.4,31.6-6.9,43.3-20c9.7-10.9,14.7-24,14.6-38.5c0-15.7-5.6-29.4-16.6-40.7
		c-11-11.3-24.5-17.3-40.2-17.8c-15.6-0.5-29.4,4.6-41,15.2c-12.7,11.6-19.3,26.2-19.3,43.4c0,15.7,5.6,29.4,16.6,40.6
		C219.7,301,233.8,306.9,250.9,307.2z"/>
</g>
</svg>
