<?xml version="1.0" encoding="utf-8"?>
<!-- Generator: Adobe Illustrator 24.0.3, SVG Export Plug-In . SVG Version: 6.00 Build 0)  -->
<svg version="1.1" id="Layer_1" xmlns="http://www.w3.org/2000/svg" xmlns:xlink="http://www.w3.org/1999/xlink" x="0px" y="0px"
	 viewBox="0 0 500 500" style="enable-background:new 0 0 500 500;" xml:space="preserve">
<style type="text/css">
	.st0{fill:#AECB8D;}
	.st1{fill:#A7C87E;}
	.st2{fill:none;stroke:#AECB8D;stroke-width:2;stroke-miterlimit:10;}
	.st3{fill:#FFFFFF;}
	.st4{fill:none;stroke:#A7C87E;stroke-width:3;stroke-miterlimit:10;}
	.st5{fill:none;stroke:#A7C87E;stroke-width:2;stroke-miterlimit:10;}
	.st6{fill:none;stroke:#A7C87E;stroke-width:2;stroke-miterlimit:10;stroke-dasharray:5.9695,5.9695;}
	.st7{fill:none;stroke:#FFFFFF;stroke-linecap:round;stroke-miterlimit:10;}
	.st8{fill:none;stroke:#A7C87E;stroke-width:5;stroke-miterlimit:10;}
	.st9{fill:none;stroke:#A7C87E;stroke-miterlimit:10;}
	.st10{fill:none;stroke:#A7C87E;stroke-width:10;stroke-miterlimit:10;}
	.st11{fill:url(#);}
</style>
<g>
	<path class="st0" d="M250.2,18.8c31.2,0,61.4,6.1,89.9,18.1c27.5,11.6,52.2,28.3,73.4,49.5s37.9,45.9,49.5,73.4
		c12,28.5,18.1,58.7,18.1,89.9c0,31.2-6.1,61.4-18.1,89.9c-11.6,27.5-28.3,52.2-49.5,73.4c-21.2,21.2-45.9,37.9-73.4,49.5
		c-28.5,12-58.7,18.1-89.9,18.1s-61.4-6.1-89.9-18.1c-27.5-11.6-52.2-28.3-73.4-49.5c-21.2-21.2-37.9-45.9-49.5-73.4
		c-12-28.5-18.1-58.7-18.1-89.9c0-31.2,6.1-61.4,18.1-89.9c11.6-27.5,28.3-52.2,49.5-73.4s45.9-37.9,73.4-49.5
		C188.8,24.9,219,18.8,250.2,18.8 M250.2,8.8C117.1,8.8,9.3,116.6,9.3,249.7s107.9,240.9,240.9,240.9s240.9-107.9,240.9-240.9
		S383.3,8.8,250.2,8.8L250.2,8.8z"/>
</g>
<path class="st1" d="M173.4,366.1h25.9v36.1h-20c-2.5,0-4.6,2-4.6,4.6c0,2.5,2,4.6,4.6,4.6h65.2c2.5,0,4.6-2,4.6-4.6
	c0-2.5-2-4.6-4.6-4.6h-20v-36.1h25.9V357h-11.6c0-0.3,0.1-0.7,0.1-1V195.5c0-4.3-2.8-8-6.7-9.3v-11.7h-6v-11.9h-12.6V84.1h-3.5v78.5
	h-12.6v1.8v10.2h-6v1.8v10c-3.9,1.3-6.7,5-6.7,9.3V356c0,0.3,0,0.7,0.1,1h-11.6V366.1z M224.5,357V239.7h10.9V356c0,0.4,0,0.7-0.1,1
	H224.5z M201.1,166.1h9.1h3.5h9.1v8.4h-21.7V166.1z M226.3,178h2.5v7.7h-33.6V178h2.5H226.3z M188.5,356V239.7h10.9V357h-10.8
	C188.5,356.7,188.5,356.3,188.5,356z"/>
<g>
	<path class="st1" d="M313.2,237c3.1,0,6,3.1,7.3,7.9l14.1,52.5c0.5,1.7,0.7,3.6,0.7,5.5l-0.3,97.2c0,7.4-3.6,13.3-8,13.3l-25.4-0.1
		l-5.5,0l-25.4-0.1c-4.4,0-8-6-8-13.4l0.3-97.2c0-1.9,0.3-3.8,0.7-5.5l14-50.9c1.6-5.6,5-9.3,8.7-9.3l10.1,0l5.5,0L313.2,237
		 M313.2,234.4l-11.1,0l-5.5,0l-10.1,0c-4.3,0-8.3,4.2-10.1,10.7l-14,50.9c-0.6,2.1-0.9,4.3-0.9,6.5l-0.3,97.2
		c0,8.8,4.2,15.9,9.5,15.9l25.4,0.1l5.5,0l25.4,0.1c5.3,0,9.6-7.1,9.6-15.8l0.3-97.2c0-2.3-0.3-4.5-0.8-6.6l-14.1-52.5
		C320.3,238.1,316.9,234.5,313.2,234.4z"/>
	
		<rect x="270.2" y="300.2" transform="matrix(3.091973e-03 -1 1 3.091973e-03 -39.793 635.798)" class="st1" width="57.6" height="75.3"/>
	<path class="st1" d="M326.2,247.7l-53.9-0.2c-2.3,0-4.1-3.1-4.1-6.9l0-12.3c0-4.1,2-7.3,4.4-7.3l53.6,0.2c2.3,0,4.1,3.1,4.1,6.9
		l0,12.8C330.4,244.7,328.5,247.7,326.2,247.7z"/>
</g>
</svg>
