<?xml version="1.0" encoding="utf-8"?>
<!-- Generator: Adobe Illustrator 24.0.3, SVG Export Plug-In . SVG Version: 6.00 Build 0)  -->
<svg version="1.1" id="Layer_1" xmlns="http://www.w3.org/2000/svg" xmlns:xlink="http://www.w3.org/1999/xlink" x="0px" y="0px"
	 viewBox="0 0 500 500" style="enable-background:new 0 0 500 500;" xml:space="preserve">
<style type="text/css">
	.st0{fill:#AECB8D;}
	.st1{fill:#A7C87E;}
	.st2{fill:none;stroke:#AECB8D;stroke-width:2;stroke-miterlimit:10;}
	.st3{fill:#FFFFFF;}
	.st4{fill:none;stroke:#A7C87E;stroke-width:3;stroke-miterlimit:10;}
	.st5{fill:none;stroke:#A7C87E;stroke-width:2;stroke-miterlimit:10;}
	.st6{fill:none;stroke:#A7C87E;stroke-width:2;stroke-miterlimit:10;stroke-dasharray:5.9695,5.9695;}
	.st7{fill:none;stroke:#FFFFFF;stroke-linecap:round;stroke-miterlimit:10;}
	.st8{fill:none;stroke:#A7C87E;stroke-width:5;stroke-miterlimit:10;}
	.st9{fill:none;stroke:#A7C87E;stroke-miterlimit:10;}
	.st10{fill:none;stroke:#A7C87E;stroke-width:10;stroke-miterlimit:10;}
	.st11{fill:url(#);}
</style>
<g>
	<path class="st0" d="M250.2,18.8c31.2,0,61.4,6.1,89.9,18.1c27.5,11.6,52.2,28.3,73.4,49.5s37.9,45.9,49.5,73.4
		c12,28.5,18.1,58.7,18.1,89.9s-6.1,61.4-18.1,89.9c-11.6,27.5-28.3,52.2-49.5,73.4s-45.9,37.9-73.4,49.5
		c-28.5,12-58.7,18.1-89.9,18.1s-61.4-6.1-89.9-18.1c-27.5-11.6-52.2-28.3-73.4-49.5s-37.9-45.9-49.5-73.4
		c-12-28.5-18.1-58.7-18.1-89.9s6.1-61.4,18.1-89.9c11.6-27.5,28.3-52.2,49.5-73.4s45.9-37.9,73.4-49.5
		C188.8,24.9,219,18.8,250.2,18.8 M250.2,8.8C117.1,8.8,9.3,116.6,9.3,249.7s107.9,240.9,240.9,240.9s240.9-107.9,240.9-240.9
		S383.3,8.8,250.2,8.8L250.2,8.8z"/>
</g>
<g>
	<path class="st4" d="M383.2,156.7l-19.1-21.5c-6.1-6.8-16.3-8.1-23.9-3L88.4,303.1c-9.1,6.2-10.7,19-3.4,27.3l27.1,30.4l18.2,20.4
		l27.1,30.4c7.3,8.2,20.3,8.1,27.5-0.2l198.5-230.6C389.4,173.8,389.3,163.6,383.2,156.7z"/>
	
		<rect x="360.8" y="134.3" transform="matrix(0.6655 0.7464 -0.7464 0.6655 232.2165 -235.5484)" class="st1" width="36.1" height="14.1"/>
	
		<rect x="355.8" y="125.5" transform="matrix(0.6655 0.7464 -0.7464 0.6655 229.6064 -243.7873)" class="st1" width="61.9" height="17.6"/>
	<polygon class="st1" points="205.4,387.3 114.6,285.4 313.8,150.3 362.4,204.8 	"/>
	<line class="st8" x1="88" y1="303.2" x2="184.7" y2="411.7"/>
</g>
</svg>
