<?xml version="1.0" encoding="utf-8"?>
<!-- Generator: Adobe Illustrator 24.0.3, SVG Export Plug-In . SVG Version: 6.00 Build 0)  -->
<svg version="1.1" id="Layer_1" xmlns="http://www.w3.org/2000/svg" xmlns:xlink="http://www.w3.org/1999/xlink" x="0px" y="0px"
	 viewBox="0 0 500 500" style="enable-background:new 0 0 500 500;" xml:space="preserve">
<style type="text/css">
	.st0{fill:#AECB8D;}
	.st1{fill:#A7C87E;}
	.st2{fill:none;stroke:#AECB8D;stroke-width:2;stroke-miterlimit:10;}
	.st3{fill:#FFFFFF;}
</style>
<g>
	<path class="st0" d="M250.2,18.8c31.2,0,61.4,6.1,89.9,18.1c27.5,11.6,52.2,28.3,73.4,49.5s37.9,45.9,49.5,73.4
		c12,28.5,18.1,58.7,18.1,89.9s-6.1,61.4-18.1,89.9c-11.6,27.5-28.3,52.2-49.5,73.4s-45.9,37.9-73.4,49.5
		c-28.5,12-58.7,18.1-89.9,18.1s-61.4-6.1-89.9-18.1c-27.5-11.6-52.2-28.3-73.4-49.5s-37.9-45.9-49.5-73.4
		c-12-28.5-18.1-58.7-18.1-89.9s6.1-61.4,18.1-89.9c11.6-27.5,28.3-52.2,49.5-73.4s45.9-37.9,73.4-49.5
		C188.8,24.9,219,18.8,250.2,18.8 M250.2,8.8C117.1,8.8,9.3,116.6,9.3,249.7s107.9,240.9,240.9,240.9s240.9-107.9,240.9-240.9
		S383.3,8.8,250.2,8.8L250.2,8.8z"/>
</g>
<g>
	<g>
		<path class="st1" d="M210.2,311.6c2.4,2.4,3.1,6,1.9,9.2l-13.5,35c-0.4,1.2-1.1,2.2-2,3.1l-45.1,44.4c-3.4,3.4-8.9,3.3-12.3-0.1
			l-19.3-19.6l-4.2-4.3l-19.3-19.6c-3.4-3.4-3.3-8.9,0.1-12.3l45.1-44.4c0.9-0.9,1.9-1.5,3.1-2l34.2-12.6c3.8-1.4,8.1-0.4,10.9,2.4
			l7.7,7.8l4.2,4.3L210.2,311.6 M211.3,310.4l-8.4-8.6l-4.2-4.3l-7.7-7.8c-3.3-3.3-8.2-4.4-12.6-2.8l-34.2,12.6
			c-1.4,0.5-2.6,1.3-3.7,2.3l-45.1,44.4c-4.1,4-4.1,10.6-0.1,14.6l19.3,19.6l4.2,4.3l19.3,19.6c4,4.1,10.6,4.1,14.6,0.1l45.1-44.4
			c1-1,1.9-2.3,2.4-3.6l13.5-35C215.1,317.6,214.2,313.3,211.3,310.4z"/>
		
			<rect x="134.1" y="306.2" transform="matrix(0.7123 -0.7019 0.7019 0.7123 -199.5813 207.0866)" class="st1" width="37.5" height="81.6"/>
		<path class="st1" d="M215.2,326.6l-41-41.6c-1.7-1.8-1.7-4.6,0-6.3l5.7-5.6c1.9-1.9,4.9-1.8,6.8,0l40.8,41.4
			c1.7,1.8,1.7,4.6,0,6.3l-5.9,5.8C219.7,328.4,216.9,328.3,215.2,326.6z"/>
	</g>
	<path class="st1" d="M383.9,159.9l-14.5-14.5l20.2-20.2l11.2,11.2c1.4,1.4,3.7,1.4,5.1,0c1.4-1.4,1.4-3.7,0-5.1l-36.5-36.5
		c-1.4-1.4-3.7-1.4-5.1,0c-1.4,1.4-1.4,3.7,0,5.1l11.2,11.2l-20.2,20.2l-14.5-14.5l-5.1,5.1l6.5,6.5c-0.2,0.2-0.4,0.4-0.6,0.5
		l-89.8,89.8c-2.4,2.4-2.9,6-1.5,8.9l-6.6,6.6l3.3,3.3l-6.7,6.7l7.1,7.1l-43.9,43.9l2,2l43.9-43.9l7.1,7.1l1-1l5.7-5.7l3.3,3.3l1-1
		l5.6-5.6c2.9,1.4,6.5,1,8.9-1.5l89.8-89.8c0.2-0.2,0.4-0.4,0.5-0.6l6.5,6.5L383.9,159.9z M350.2,136.4l-65.7,65.7l-6.1-6.1
		l65.1-65.1c0.2-0.2,0.4-0.4,0.6-0.5L350.2,136.4z M256.4,256.4l-5.1-5.1l-2-2l-5.1-5.1l4.7-4.7l12.2,12.2L256.4,256.4z M249,235.6
		l-1.4-1.4l4.3-4.3l18.8,18.8l-4.3,4.3l-1.4-1.4L249,235.6z M369.8,157.2l-65.1,65.1l-6.1-6.1l65.7-65.7l6,6
		C370.2,156.8,370,157,369.8,157.2z"/>
</g>
</svg>
