<?xml version="1.0" encoding="utf-8"?>
<!-- Generator: Adobe Illustrator 24.0.3, SVG Export Plug-In . SVG Version: 6.00 Build 0)  -->
<svg version="1.1" id="Layer_1" xmlns="http://www.w3.org/2000/svg" xmlns:xlink="http://www.w3.org/1999/xlink" x="0px" y="0px"
	 viewBox="0 0 500 500" style="enable-background:new 0 0 500 500;" xml:space="preserve">
<style type="text/css">
	.st0{fill:#AECB8D;}
	.st1{fill:#A7C87E;}
	.st2{fill:none;stroke:#AECB8D;stroke-width:2;stroke-miterlimit:10;}
	.st3{fill:#FFFFFF;}
	.st4{fill:none;stroke:#A7C87E;stroke-width:3;stroke-miterlimit:10;}
	.st5{fill:none;stroke:#A7C87E;stroke-width:2;stroke-miterlimit:10;}
	.st6{fill:none;stroke:#A7C87E;stroke-width:2;stroke-miterlimit:10;stroke-dasharray:5.9695,5.9695;}
	.st7{fill:none;stroke:#FFFFFF;stroke-linecap:round;stroke-miterlimit:10;}
	.st8{fill:none;stroke:#A7C87E;stroke-width:5;stroke-miterlimit:10;}
	.st9{fill:none;stroke:#A7C87E;stroke-miterlimit:10;}
	.st10{fill:none;stroke:#A7C87E;stroke-width:10;stroke-miterlimit:10;}
	.st11{fill:url(#);}
</style>
<g>
	<path class="st0" d="M250.2,18.8c31.2,0,61.4,6.1,89.9,18.1c27.5,11.6,52.2,28.3,73.4,49.5s37.9,45.9,49.5,73.4
		c12,28.5,18.1,58.7,18.1,89.9s-6.1,61.4-18.1,89.9c-11.6,27.5-28.3,52.2-49.5,73.4s-45.9,37.9-73.4,49.5
		c-28.5,12-58.7,18.1-89.9,18.1s-61.4-6.1-89.9-18.1c-27.5-11.6-52.2-28.3-73.4-49.5s-37.9-45.9-49.5-73.4
		c-12-28.5-18.1-58.7-18.1-89.9s6.1-61.4,18.1-89.9c11.6-27.5,28.3-52.2,49.5-73.4s45.9-37.9,73.4-49.5
		C188.8,24.9,219,18.8,250.2,18.8 M250.2,8.8C117.1,8.8,9.3,116.6,9.3,249.7s107.9,240.9,240.9,240.9s240.9-107.9,240.9-240.9
		S383.3,8.8,250.2,8.8L250.2,8.8z"/>
</g>
<g>
	<path class="st1" d="M430.3,181.4c-4.8-8.1-25-21.8-43.6-30.7c-18.6-8.9-46-4.8-53.3-3.2c-7.3,1.6-16.1,3.2-30.7-4.8
		c-14.5-8.1-47.6-12.9-47.6-12.9c-1.6-0.3-3.3-0.4-5-0.4c-1.8,0-3.5,0.1-5,0.4c0,0-33.1,4.8-47.6,12.9s-23.4,6.5-30.7,4.8
		c-7.3-1.6-34.7-5.7-53.3,3.2s-38.8,22.6-43.6,30.7c-4.8,8.1-8.1,33.1-3.2,41.2c4.8,8.1,17,20.2,18.6,23.4s1.6,12.9,1.6,16.1
		c0,3.2,4.8,13.7,10.5,16.1c5.7,2.4,8.9,0,8.9,0s2.4,0-2.4-6.5c-4.8-6.5-6.5-21.8-3.2-26.6c3.2-4.8,16.1-16.1,14.5-18.6
		c-1.6-2.4,0.8-2.4-5.7-2.4c-6.5,0-25-0.8-25-12.9c0-12.1,3.2-26.6,13.7-32.3s25-10.5,34.7-10.5s19.4,4,21.8,4.8s11.3-1.6,23.4,12.1
		c12.1,13.7,12.9,21.8,12.1,29.9c-0.8,8.1,1.6,21,5.7,25.8c4,4.8,11.3,15.3,10.5,27.5c-0.8,11.7,0,36.4,0,37.9c0,0.1,0,0.1,0,0.1
		c0.1,0.9,1.1,10,6.5,16.9c5.7,7.3,7.3,7.3,7.3,21.8c0,14.5,0.8,23.4-3.2,28.3c-4,4.8-12.1,9.7-5.7,12.9c6.5,3.2,17.8,4.8,20.2,4
		c2.2-0.7,3.1-46.1,3.2-53.2c0-0.6-0.2-1.2-0.6-1.6c-1.6-1.8-6-6.9-9.9-11.4c-4.8-5.7-8.9-14.5-0.8-8.9c2.5,1.8,4.7,3.3,6.5,4.5
		c4.7,3.3,11.2-0.1,11.2-5.8c0-0.1,0-0.2,0-0.3c0-10.7-0.7-47-0.8-50.6c0-0.2,0-0.4-0.1-0.6c-0.5-1.9-3.7-13.3-9.6-20.7
		c-6.5-8.1-19.4-21-19.4-35.5c0-14.5,1.6-20.2-12.1-29.1s-14.5-12.1-25.8-14.5c-7.2-1.5-12.1-2.1-14.7-2.3c-1.3-0.1-2.2-1.1-2.2-2.4
		c0-1.4,1.2-2.5,2.6-2.4c5.3,0.3,17.5,1.2,24.9,3.1c9.7,2.4,30.7,8.9,43.6,8.9c10.3,0,19.1,0,22.2,0c0.8,0,1.2,0,1.2,0
		c3.1,0,11.9,0,22.2,0c12.9,0,33.9-6.5,43.6-8.9c7.4-1.9,19.6-2.8,24.9-3.1c1.4-0.1,2.6,1,2.6,2.4c0,1.3-1,2.3-2.2,2.4
		c-2.6,0.2-7.5,0.8-14.7,2.3c-11.3,2.4-12.1,5.7-25.8,14.5c-13.7,8.9-12.1,14.5-12.1,29.1c0,14.5-12.9,27.5-19.4,35.5
		c-5.9,7.4-9.1,18.8-9.6,20.7c-0.1,0.2-0.1,0.4-0.1,0.6c-0.1,3.6-0.8,39.8-0.8,50.6c0,0.1,0,0.2,0,0.3c0,5.7,6.5,9.1,11.2,5.8
		c1.8-1.3,4-2.8,6.5-4.5c8.1-5.7,4,3.2-0.8,8.9c-3.9,4.5-8.3,9.6-9.9,11.4c-0.4,0.5-0.6,1-0.6,1.6c0.1,7.1,1,52.4,3.2,53.2
		c2.4,0.8,13.7-0.8,20.2-4c6.5-3.2-1.6-8.1-5.7-12.9s-3.2-13.7-3.2-28.3c0-14.5,1.6-14.5,7.3-21.8c5.4-6.9,6.4-16,6.5-16.9
		c0-0.1,0-0.1,0-0.1c0-1.5,0.8-26.1,0-37.9c-0.8-12.1,6.5-22.6,10.5-27.5c4-4.8,6.5-17.8,5.7-25.8s0-16.1,12.1-29.9
		s21-11.3,23.4-12.1c2.4-0.8,12.1-4.8,21.8-4.8s24.2,4.8,34.7,10.5s13.7,20.2,13.7,32.3c0,12.1-18.6,12.9-25,12.9s-4,0-5.7,2.4
		s11.3,13.7,14.5,18.6c3.2,4.8,1.6,20.2-3.2,26.6s-2.4,6.5-2.4,6.5s3.2,2.4,8.9,0c5.7-2.4,10.5-12.9,10.5-16.1
		c0-3.2,0-12.9,1.6-16.1c1.6-3.2,13.7-15.3,18.6-23.4C438.3,214.5,435.1,189.5,430.3,181.4z"/>
	<path class="st4" d="M212.2,383.7c8.1-3.7,19.7-7.6,33.7-8.1c17.9-0.6,32.3,4.5,41.4,8.9"/>
	<g>
		<path class="st1" d="M178.1,247.9c1.7-3.7,0.7-7.7-2.9-10.1c0.3-2.4-0.5-4.6-2.2-6.3c-0.8-1.4-2.2-2.6-3.8-3.4
			c-0.5-0.4-1-0.8-1.6-1.1c-0.2-0.2-0.5-0.4-0.8-0.6c-1.8-1.8-4.6-3-7.8-3.3c-4.2-2-10.4-1.9-15.6,0.7c-3.6-0.9-7.8-0.5-11.5,1
			c-1.4,0.4-2.7,0.9-3.9,1.5c-1.6,0.5-3.1,1.2-4.4,2c-1.6,0.8-3.1,1.7-4.4,2.8c-1,0.7-1.9,1.5-2.6,2.3c-4.3,2.5-7.1,6.5-6.9,10.3
			c-4.1,2.9-6,6.8-5.4,10.3c0,0.5,0,1,0,1.5c-0.2,1.7,0.1,3.4,0.9,4.8c0.4,1.6,1.4,3,2.9,4.2c0.4,0.5,0.8,0.9,1.3,1.3
			c1.3,2.8,4.5,4.9,8.6,5.5c1.7,3.2,5.8,5.1,10.4,5.2c1.1,0.2,2.2,0.3,3.3,0.3c1.7,0.2,3.6,0.2,5.5-0.1c1.6,0,3.3-0.2,4.9-0.7
			c2.1-0.2,4.3-0.8,6.3-1.7c4.4-0.7,8.6-2.8,11.3-5.8c3.9-0.9,7.3-2.9,9.5-5.4c1.6-1.2,2.8-2.7,3.6-4.2c0.5-0.7,1-1.3,1.4-2
			c0.5-0.6,0.9-1.2,1.2-1.8C177.3,252.9,178.3,250.3,178.1,247.9z"/>
		<path class="st1" d="M159,231.9c0,0,31.5-8,30.2-28.1c-1.3-20.1,16.5,17.2,16.5,17.2s-33,8.5-34.4,23.6
			C170,259.7,159,231.9,159,231.9z"/>
	</g>
	<g>
		<path class="st1" d="M321.6,247.9c-1.7-3.7-0.7-7.7,2.9-10.1c-0.3-2.4,0.5-4.6,2.2-6.3c0.8-1.4,2.2-2.6,3.8-3.4
			c0.5-0.4,1-0.8,1.6-1.1c0.2-0.2,0.5-0.4,0.8-0.6c1.8-1.8,4.6-3,7.8-3.3c4.2-2,10.4-1.9,15.6,0.7c3.6-0.9,7.8-0.5,11.5,1
			c1.4,0.4,2.7,0.9,3.9,1.5c1.6,0.5,3.1,1.2,4.4,2c1.6,0.8,3.1,1.7,4.4,2.8c1,0.7,1.9,1.5,2.6,2.3c4.3,2.5,7.1,6.5,6.9,10.3
			c4.1,2.9,6,6.8,5.4,10.3c0,0.5,0,1,0,1.5c0.2,1.7-0.1,3.4-0.9,4.8c-0.4,1.6-1.4,3-2.9,4.2c-0.4,0.5-0.8,0.9-1.3,1.3
			c-1.3,2.8-4.5,4.9-8.6,5.5c-1.7,3.2-5.8,5.1-10.4,5.2c-1.1,0.2-2.2,0.3-3.3,0.3c-1.7,0.2-3.6,0.2-5.5-0.1c-1.6,0-3.3-0.2-4.9-0.7
			c-2.1-0.2-4.3-0.8-6.3-1.7c-4.4-0.7-8.6-2.8-11.3-5.8c-3.9-0.9-7.3-2.9-9.5-5.4c-1.6-1.2-2.8-2.7-3.6-4.2c-0.5-0.7-1-1.3-1.4-2
			c-0.5-0.6-0.9-1.2-1.2-1.8C322.3,252.9,321.4,250.3,321.6,247.9z"/>
		<path class="st1" d="M340.6,231.9c0,0-31.5-8-30.2-28.1c1.3-20.1-16.5,17.2-16.5,17.2s33,8.5,34.4,23.6
			C329.7,259.7,340.6,231.9,340.6,231.9z"/>
	</g>
</g>
</svg>
