<svg id="Layer_1" data-name="Layer 1" xmlns="http://www.w3.org/2000/svg" viewBox="0 0 500 500"><defs><style>.cls-1{fill:#a7c87e;}.cls-2{fill:#aecb8d;}</style></defs><path class="cls-1" d="M206.2,319a8.69,8.69,0,0,1,1.91,9.21l-13.46,35a8.58,8.58,0,0,1-2,3.06l-45.1,44.44a8.68,8.68,0,0,1-12.27-.09L116,391.06l-4.2-4.26L92.49,367.22A8.68,8.68,0,0,1,92.58,355l45.1-44.44a8.57,8.57,0,0,1,3.09-2L175,296a10.31,10.31,0,0,1,10.88,2.43l7.71,7.83,4.2,4.25L206.2,319m1.18-1.16-8.44-8.57-4.19-4.26L187,297.23a11.94,11.94,0,0,0-12.63-2.83L140.2,307a10.45,10.45,0,0,0-3.69,2.34L91.42,353.77a10.32,10.32,0,0,0-.11,14.61L110.6,388l4.2,4.25,19.29,19.58a10.33,10.33,0,0,0,14.62.11l45.1-44.44a10.38,10.38,0,0,0,2.39-3.65l13.46-35A10.32,10.32,0,0,0,207.38,317.88Z"/><rect class="cls-1" x="130.11" y="313.65" width="37.5" height="81.63" transform="translate(-205.96 206.46) rotate(-44.58)"/><path class="cls-1" d="M211.2,334l-41-41.61a4.46,4.46,0,0,1,0-6.32l5.71-5.62a4.77,4.77,0,0,1,6.75.05l40.79,41.39a4.47,4.47,0,0,1-.05,6.32l-5.92,5.84A4.47,4.47,0,0,1,211.2,334Z"/><path class="cls-1" d="M379.94,167.38l-14.51-14.51,20.19-20.2,11.18,11.18a3.61,3.61,0,1,0,5.1-5.1l-36.47-36.47a3.6,3.6,0,0,0-5.1,5.09l11.17,11.18-20.19,20.2-14.52-14.51-5.1,5.1,6.51,6.5a6.31,6.31,0,0,0-.61.55l-89.84,89.84a7.72,7.72,0,0,0-1.46,8.91l-6.57,6.57,3.33,3.33-6.67,6.67,7.06,7.06L199.52,302.7l2,2,43.93-43.93,7.06,7.06,1-1,5.68-5.68,3.34,3.33,1-1,5.58-5.59a7.75,7.75,0,0,0,8.92-1.46l89.84-89.84a7.76,7.76,0,0,0,.55-.61l6.5,6.5Zm-33.73-23.53-65.7,65.7-6.08-6.08,65.12-65.12a5.2,5.2,0,0,1,.63-.53Zm-93.74,120-5.1-5.1-2-2-5.1-5.1L245,247l12.16,12.15ZM245,243.08l-1.37-1.37L248,237.4l18.83,18.82-4.31,4.32-1.38-1.38Zm120.82-78.45-65.12,65.12-6.08-6.08,65.7-65.7,6,6A4.35,4.35,0,0,1,365.83,164.63Z"/><path class="cls-2" d="M250.2,18.78a231,231,0,0,1,89.88,443.69A231,231,0,0,1,160.32,36.93,229.43,229.43,0,0,1,250.2,18.78m0-10C117.15,8.78,9.29,116.65,9.29,249.7S117.15,490.62,250.2,490.62,491.12,382.75,491.12,249.7,383.26,8.78,250.2,8.78Z"/></svg>