<svg id="Layer_1" data-name="Layer 1" xmlns="http://www.w3.org/2000/svg" viewBox="0 0 500 500"><defs><style>.cls-1{fill:#aecb8d;}.cls-2{fill:#a7c87e;}.cls-3{fill:#fff;}</style></defs><path class="cls-1" d="M250.2,18.78a231,231,0,0,1,89.88,443.69A231,231,0,0,1,160.32,36.93,229.43,229.43,0,0,1,250.2,18.78m0-10C117.15,8.78,9.29,116.65,9.29,249.7S117.15,490.62,250.2,490.62,491.12,382.75,491.12,249.7,383.26,8.78,250.2,8.78Z"/><path class="cls-2" d="M355,316a83.27,83.27,0,0,0,6.59-32.66v-72A83.67,83.67,0,0,0,337,152.06a85.14,85.14,0,0,0-11-9.28H98.35A37.19,37.19,0,0,0,61.16,180V314a37.19,37.19,0,0,0,37.19,37.18H327A84.28,84.28,0,0,0,355,316Zm-137.66,5.8A74.82,74.82,0,1,1,292.13,247,74.81,74.81,0,0,1,217.32,321.81Z"/><rect class="cls-2" x="109.33" y="345.82" width="28.51" height="12.26"/><rect class="cls-2" x="365.06" y="345.82" width="28.51" height="12.26"/><polyline class="cls-2" points="128.22 219.05 323.77 219.05 323.77 217.66 128.22 217.66"/><path class="cls-2" d="M247.22,218.35h-60c-2.45,0-4.57-.76-5.09-1.83l-3.95-8.13c-.7-1.45,1.77-2.82,5.1-2.82H251c3.3,0,5.77,1.36,5.1,2.8l-3.78,8.13C251.82,217.58,249.69,218.35,247.22,218.35Z"/><polyline class="cls-2" points="128.22 253.1 323.77 253.1 323.77 251.7 128.22 251.7"/><path class="cls-2" d="M247.22,252.4h-60c-2.45,0-4.57-.76-5.09-1.83l-3.95-8.13c-.7-1.45,1.77-2.82,5.1-2.82H251c3.3,0,5.77,1.36,5.1,2.8l-3.78,8.13C251.82,251.63,249.69,252.4,247.22,252.4Z"/><polyline class="cls-2" points="128.22 281.7 323.77 281.7 323.77 280.3 128.22 280.3"/><path class="cls-2" d="M247.22,281h-60c-2.45,0-4.57-.76-5.09-1.83L178.22,271c-.7-1.45,1.77-2.82,5.1-2.82H251c3.3,0,5.77,1.36,5.1,2.8l-3.78,8.13C251.82,280.23,249.69,281,247.22,281Z"/><path class="cls-3" d="M301.41,246.71h-.58a83.63,83.63,0,1,1-24.5-59.14,83.34,83.34,0,0,1,24.5,59.14H302a84.8,84.8,0,1,0-84.8,84.79A84.8,84.8,0,0,0,302,246.71Z"/><path class="cls-2" d="M364.82,291.58h-.15a87.23,87.23,0,0,1-31.93,59.63h71.8A37.19,37.19,0,0,0,441.73,314V291.58Z"/><path class="cls-2" d="M404.54,142.78H331.79a87.24,87.24,0,0,1,33.27,68.62v72c0,1.59-.05,3.17-.13,4.74h76.8V180A37.19,37.19,0,0,0,404.54,142.78ZM402.3,252.4h-23V177.1h23Zm10.21-75.3a5.94,5.94,0,1,1-5.94,5.94A6,6,0,0,1,412.51,177.1Zm0,22.47a5.94,5.94,0,1,1-5.94,5.94A6.05,6.05,0,0,1,412.51,199.57Zm.68,20.43a5.94,5.94,0,1,1-5.94,5.94A6,6,0,0,1,413.19,220Zm.68,32.31a5.94,5.94,0,1,1,5.94-5.94A6,6,0,0,1,413.87,252.31Z"/></svg>