<svg id="Layer_1" data-name="Layer 1" xmlns="http://www.w3.org/2000/svg" viewBox="0 0 500 500"><defs><style>.cls-1{fill:#aecb8d;}.cls-2{fill:#a7c87e;}.cls-3{fill:#fff;}</style></defs><path class="cls-1" d="M250.2,18.78a231,231,0,0,1,89.88,443.69A231,231,0,0,1,160.32,36.93,229.43,229.43,0,0,1,250.2,18.78m0-10C117.15,8.78,9.29,116.65,9.29,249.7S117.15,490.62,250.2,490.62,491.12,382.75,491.12,249.7,383.26,8.78,250.2,8.78Z"/><path class="cls-2" d="M365.63,259.27a8.51,8.51,0,0,1-8.42-7.73l-4.15-47.45h-1.91L347,251.54a8.52,8.52,0,0,1-8.43,7.73l-.74,0a8.46,8.46,0,0,1-7.7-9.17l4.19-47.85V166.74l-6.76,18.56a6.85,6.85,0,0,1-6.42,4.5,6.84,6.84,0,0,1-6.42-9.17l13.87-38.1A6.84,6.84,0,0,1,335,138a7,7,0,0,1,2.34.41,6.15,6.15,0,0,1,.81.37l.38.19.5-.24.25-.11,1.11-.47-.8-.89a16.78,16.78,0,1,1,25,0l-.8.89,1.1.46.25.12.51.24.37-.19a6.82,6.82,0,0,1,9.58,3.72l13.86,38.09a6.83,6.83,0,0,1-4.08,8.76,6.72,6.72,0,0,1-2.34.42h0a6.86,6.86,0,0,1-6.42-4.5l-6.76-18.56v35.41l4.19,47.92a8.47,8.47,0,0,1-7.69,9.17Z"/><path class="cls-3" d="M352.1,110.18A15.92,15.92,0,0,1,364,136.72l-1.6,1.79,2.22.92.2.1.12.06.77.36.75-.39a6.76,6.76,0,0,1,.72-.32,6,6,0,0,1,7.66,3.58l13.87,38.1a6,6,0,0,1-3.57,7.66,5.76,5.76,0,0,1-2.05.37,6,6,0,0,1-5.62-3.94l-5.1-14L369,161.9v40.4l4.18,47.84a7.63,7.63,0,0,1-6.92,8.25c-.22,0-.45,0-.67,0a7.66,7.66,0,0,1-7.57-7L354,204.8l-.13-1.56h-3.47l-.14,1.56-4.08,46.67a7.67,7.67,0,0,1-7.58,7c-.22,0-.45,0-.67,0a7.63,7.63,0,0,1-6.92-8.25l4.19-47.84V161.9l-3.3,9.09-5.11,14a6,6,0,0,1-5.62,3.94,5.75,5.75,0,0,1-2-.37,6,6,0,0,1-3.58-7.66l13.87-38.1a6,6,0,0,1,5.62-3.94,5.89,5.89,0,0,1,2.76.68l.75.39.77-.36.12-.06.21-.1,2.21-.92-1.6-1.79a15.92,15.92,0,0,1,11.87-26.54m0-1.71A17.63,17.63,0,0,0,339,137.86l-.41.19a8.38,8.38,0,0,0-.91-.41,7.66,7.66,0,0,0-9.85,4.59l-13.87,38.1a7.7,7.7,0,0,0,4.59,9.86,7.84,7.84,0,0,0,2.63.46,7.7,7.7,0,0,0,7.23-5.06l5.1-14v30.58L329.28,250a9.33,9.33,0,0,0,8.47,10.1l.82,0a9.31,9.31,0,0,0,9.27-8.5L351.93,205h.35l4.08,46.67a9.31,9.31,0,0,0,9.27,8.5l.82,0a9.32,9.32,0,0,0,8.47-10.1l-4.19-47.84V171.57l5.11,14a7.68,7.68,0,0,0,7.22,5.06,7.84,7.84,0,0,0,2.63-.46,7.69,7.69,0,0,0,4.59-9.86l-13.86-38.1a7.7,7.7,0,0,0-7.23-5.06,7.61,7.61,0,0,0-2.63.47,8.38,8.38,0,0,0-.91.41l-.41-.19a17.63,17.63,0,0,0-13.14-29.39Z"/><path class="cls-2" d="M137.3,243.74l-13.87-38.1a7.69,7.69,0,0,0-9.85-4.6,9.52,9.52,0,0,0-.92.41l-.4-.19a17.64,17.64,0,1,0-26.28,0l-.41.19a8.54,8.54,0,0,0-.92-.41,7.69,7.69,0,0,0-9.85,4.6l-13.87,38.1A7.69,7.69,0,0,0,75.38,249l5.1-14v30.58L76.3,313.4A9.32,9.32,0,1,0,94.86,315l4.08-46.67h.35L103.37,315a9.32,9.32,0,0,0,18.57-1.62l-4.19-47.85V235l5.1,14a7.69,7.69,0,0,0,14.45-5.26Z"/><path class="cls-2" d="M411.44,290.48a8.51,8.51,0,0,1-8.42-7.72l-4.15-47.45H397l-4.15,47.45a8.51,8.51,0,0,1-8.42,7.72q-.37,0-.75,0a8.47,8.47,0,0,1-7.69-9.17l4.19-47.85V198l-6.76,18.56A6.86,6.86,0,0,1,367,221a7,7,0,0,1-2.34-.41,6.8,6.8,0,0,1-3.85-3.54,6.71,6.71,0,0,1-.23-5.22l13.86-38.1A6.78,6.78,0,0,1,384,170l.38.19.49-.23a1.51,1.51,0,0,1,.26-.12l1.1-.46-.8-.9a16.79,16.79,0,1,1,25,0l-.8.9,1.11.46.27.12.48.23.38-.19a6.15,6.15,0,0,1,.81-.37,7,7,0,0,1,2.34-.41,6.86,6.86,0,0,1,6.42,4.5l13.87,38.1a6.84,6.84,0,0,1-4.08,8.76,7,7,0,0,1-2.34.41,6.85,6.85,0,0,1-6.42-4.5L415.7,198v35.41l4.19,47.92a8.46,8.46,0,0,1-7.7,9.17Q411.82,290.48,411.44,290.48Z"/><path class="cls-3" d="M397.92,141.39a15.92,15.92,0,0,1,11.87,26.54l-1.6,1.79,2.21.92.21.1.12.06.77.37.75-.4a6.69,6.69,0,0,1,.71-.32,6,6,0,0,1,7.67,3.58l13.87,38.1a6,6,0,1,1-11.24,4.09l-5.11-14-3.3-9.08v40.39L419,281.35a7.63,7.63,0,0,1-6.92,8.25c-.22,0-.45,0-.67,0a7.66,7.66,0,0,1-7.58-6.95L399.79,236l-.14-1.56h-3.47l-.13,1.56L392,282.68a7.65,7.65,0,0,1-7.57,6.95c-.22,0-.45,0-.67,0a7.61,7.61,0,0,1-6.92-8.25L381,233.51V193.12l-3.31,9.08-5.1,14a6,6,0,1,1-11.24-4.09L375.21,174a6,6,0,0,1,7.66-3.58,6.76,6.76,0,0,1,.72.32l.75.4.77-.37.11-.06.21-.1,2.22-.92-1.6-1.79a15.92,15.92,0,0,1,11.87-26.54m0-1.71a17.63,17.63,0,0,0-13.14,29.39l-.41.19a9.34,9.34,0,0,0-.91-.41,7.84,7.84,0,0,0-2.63-.46,7.69,7.69,0,0,0-7.23,5.06l-13.86,38.1a7.67,7.67,0,0,0,4.59,9.85h0a7.84,7.84,0,0,0,2.63.46,7.67,7.67,0,0,0,7.22-5.06l5.11-14v30.58l-4.19,47.85a9.31,9.31,0,0,0,8.47,10.09c.27,0,.55,0,.82,0a9.31,9.31,0,0,0,9.27-8.5l4.08-46.67h.35l4.09,46.67a9.31,9.31,0,0,0,9.27,8.5l.82,0a9.32,9.32,0,0,0,8.47-10.09l-4.19-47.85V202.78l5.1,14a7.69,7.69,0,0,0,7.23,5.06,7.84,7.84,0,0,0,2.63-.46,7.68,7.68,0,0,0,4.59-9.85l-13.87-38.1a7.67,7.67,0,0,0-7.22-5.06,7.84,7.84,0,0,0-2.63.46,8.38,8.38,0,0,0-.91.41l-.41-.19a17.63,17.63,0,0,0-13.14-29.39Z"/><path class="cls-2" d="M320.5,290.48a8.51,8.51,0,0,1-8.42-7.73l-4.15-47.44H306l-4.15,47.45a8.51,8.51,0,0,1-8.42,7.72q-.37,0-.75,0a8.47,8.47,0,0,1-7.69-9.17l4.19-47.85V198l-6.76,18.56A6.86,6.86,0,0,1,276,221a7,7,0,0,1-2.34-.41,6.8,6.8,0,0,1-3.85-3.54,6.71,6.71,0,0,1-.23-5.22l13.86-38.1a6.84,6.84,0,0,1,8.76-4.09,6.22,6.22,0,0,1,.82.37l.38.19.49-.23a1.51,1.51,0,0,1,.26-.12l1.1-.46-.8-.9a16.79,16.79,0,1,1,25,0l-.8.9,1.11.46.27.12.48.23.38-.19a6.15,6.15,0,0,1,.81-.37,7,7,0,0,1,2.34-.41,6.86,6.86,0,0,1,6.42,4.5l13.87,38.1a6.84,6.84,0,0,1-4.08,8.76,7,7,0,0,1-2.34.41,6.86,6.86,0,0,1-6.42-4.5L324.76,198v35.41L329,281.28a8.46,8.46,0,0,1-7.7,9.17Q320.88,290.48,320.5,290.48Z"/><path class="cls-3" d="M307,141.39a15.92,15.92,0,0,1,11.87,26.54l-1.6,1.79,2.21.92.21.1.12.06.77.37.75-.4a6.69,6.69,0,0,1,.71-.32,6,6,0,0,1,7.67,3.58l13.87,38.1a6,6,0,1,1-11.24,4.09l-5.11-14-3.3-9.08v40.39l4.19,47.84a7.63,7.63,0,0,1-6.92,8.25c-.22,0-.45,0-.67,0a7.66,7.66,0,0,1-7.58-6.95L308.85,236l-.14-1.56h-3.47l-.13,1.56L301,282.68a7.65,7.65,0,0,1-7.57,6.95c-.22,0-.45,0-.67,0a7.61,7.61,0,0,1-6.92-8.25L290,233.51V193.12l-3.31,9.08-5.1,14a6,6,0,1,1-11.24-4.09L284.26,174a6,6,0,0,1,7.67-3.58,5.39,5.39,0,0,1,.72.33l.75.39.77-.37.11-.06.21-.1,2.22-.92-1.6-1.79A15.92,15.92,0,0,1,307,141.39m0-1.71a17.63,17.63,0,0,0-13.14,29.39l-.41.19a8.38,8.38,0,0,0-.91-.41,7.84,7.84,0,0,0-2.63-.46,7.69,7.69,0,0,0-7.23,5.06l-13.86,38.1a7.67,7.67,0,0,0,4.59,9.85,7.84,7.84,0,0,0,2.63.46,7.67,7.67,0,0,0,7.22-5.06l5.11-14v30.58l-4.19,47.85a9.31,9.31,0,0,0,8.47,10.09c.27,0,.55,0,.82,0a9.31,9.31,0,0,0,9.27-8.5l4.08-46.67h.35l4.09,46.67a9.31,9.31,0,0,0,9.27,8.5l.82,0h0a9.32,9.32,0,0,0,8.47-10.09l-4.19-47.85V202.78l5.1,14a7.69,7.69,0,0,0,7.23,5.06,7.84,7.84,0,0,0,2.63-.46,7.68,7.68,0,0,0,4.59-9.85l-13.87-38.1a7.67,7.67,0,0,0-7.22-5.06,7.84,7.84,0,0,0-2.63.46,8.38,8.38,0,0,0-.91.41l-.41-.19A17.63,17.63,0,0,0,307,139.68Z"/><path class="cls-2" d="M365.63,322.67a8.51,8.51,0,0,1-8.42-7.72l-4.15-47.45h-1.91L347,315a8.52,8.52,0,0,1-8.43,7.72l-.74,0a8.46,8.46,0,0,1-7.7-9.17l4.19-47.85V230.14l-6.76,18.56a6.83,6.83,0,0,1-6.42,4.5,7,7,0,0,1-2.34-.41,6.85,6.85,0,0,1-4.08-8.76l13.87-38.1a6.86,6.86,0,0,1,6.42-4.5,7,7,0,0,1,2.34.41,6.15,6.15,0,0,1,.81.37l.38.2.5-.25.25-.11,1.11-.46-.8-.9a16.78,16.78,0,1,1,25,0l-.8.9,1.1.46.25.11.51.25.37-.2a6.82,6.82,0,0,1,9.58,3.72L389.48,244a6.84,6.84,0,0,1-4.08,8.76,7,7,0,0,1-2.34.41h0a6.84,6.84,0,0,1-6.42-4.5l-6.76-18.56v35.41l4.19,47.92a8.47,8.47,0,0,1-7.69,9.17Q366,322.67,365.63,322.67Z"/><path class="cls-3" d="M352.1,173.58A15.93,15.93,0,0,1,364,200.13l-1.6,1.78,2.22.93.2.09.12.06.77.37.75-.39a7,7,0,0,1,.72-.33,6,6,0,0,1,7.66,3.58l13.87,38.1a6,6,0,0,1-3.57,7.67,6,6,0,0,1-7.67-3.58l-5.1-14L369,225.31V265.7l4.18,47.85a7.61,7.61,0,0,1-6.92,8.24c-.22,0-.45,0-.67,0a7.65,7.65,0,0,1-7.57-6.95L354,268.2l-.13-1.55h-3.47l-.14,1.55-4.08,46.67a7.66,7.66,0,0,1-7.58,6.95c-.22,0-.45,0-.67,0a7.61,7.61,0,0,1-6.92-8.24l4.19-47.85V225.31l-3.3,9.08-5.11,14a6,6,0,0,1-11.24-4.09l13.87-38.1a6,6,0,0,1,5.62-3.94,5.92,5.92,0,0,1,2,.36,6.18,6.18,0,0,1,.72.33l.75.39.77-.37.12-.06.21-.09,2.21-.93-1.6-1.78a15.93,15.93,0,0,1,11.87-26.55m0-1.7A17.63,17.63,0,0,0,339,201.26l-.41.19a8.38,8.38,0,0,0-.91-.41,7.84,7.84,0,0,0-2.63-.46,7.68,7.68,0,0,0-7.22,5.06l-13.87,38.1A7.69,7.69,0,1,0,328.37,249l5.1-14v30.58l-4.19,47.85a9.32,9.32,0,0,0,8.47,10.09c.28,0,.55,0,.82,0a9.32,9.32,0,0,0,9.27-8.51l4.09-46.67h.35L356.36,315a9.32,9.32,0,0,0,9.27,8.51c.27,0,.54,0,.82,0a9.31,9.31,0,0,0,8.47-10.09l-4.19-47.85V235l5.11,14a7.68,7.68,0,0,0,14.44-5.26l-13.86-38.1a7.7,7.7,0,0,0-7.23-5.06,7.84,7.84,0,0,0-2.63.46,8.38,8.38,0,0,0-.91.41l-.41-.19a17.63,17.63,0,0,0-13.14-29.38Z"/><path class="cls-2" d="M411.44,349.57a8.51,8.51,0,0,1-8.42-7.73l-4.15-47.44H397l-4.15,47.44a8.51,8.51,0,0,1-8.42,7.73l-.75,0a8.47,8.47,0,0,1-7.69-9.17l4.19-47.85V257l-6.76,18.56a6.86,6.86,0,0,1-6.42,4.5,7,7,0,0,1-2.34-.41,6.8,6.8,0,0,1-3.85-3.54,6.71,6.71,0,0,1-.23-5.22l13.86-38.1a6.78,6.78,0,0,1,9.58-3.72l.38.19.49-.24.26-.11,1.1-.46-.8-.9a16.79,16.79,0,1,1,25,0l-.8.9,1.11.46.27.12.48.23.38-.19a6.15,6.15,0,0,1,.81-.37,7,7,0,0,1,2.34-.41,6.86,6.86,0,0,1,6.42,4.5l13.87,38.1a6.84,6.84,0,0,1-4.08,8.76,7,7,0,0,1-2.34.41,6.85,6.85,0,0,1-6.42-4.5L415.7,257v35.41l4.19,47.92a8.46,8.46,0,0,1-7.7,9.17Z"/><path class="cls-3" d="M397.92,200.48A15.92,15.92,0,0,1,409.79,227l-1.6,1.79,2.21.92.21.1.12.06.77.36.75-.39a6.69,6.69,0,0,1,.71-.32,6,6,0,0,1,7.67,3.58l13.87,38.1a6,6,0,1,1-11.24,4.09l-5.11-14-3.3-9.09v40.4L419,340.44a7.63,7.63,0,0,1-6.92,8.25c-.22,0-.45,0-.67,0a7.66,7.66,0,0,1-7.58-7l-4.08-46.67-.14-1.56h-3.47l-.13,1.56L392,341.77a7.65,7.65,0,0,1-7.57,7c-.22,0-.45,0-.67,0a7.61,7.61,0,0,1-6.92-8.25L381,292.6V252.2l-3.31,9.09-5.1,14a6,6,0,1,1-11.24-4.09l13.87-38.1a6,6,0,0,1,7.66-3.58,6.76,6.76,0,0,1,.72.32l.75.4.77-.37.11-.06.21-.1,2.22-.92-1.6-1.79a15.92,15.92,0,0,1,11.87-26.54m0-1.71a17.63,17.63,0,0,0-13.14,29.39l-.41.19a9.34,9.34,0,0,0-.91-.41,7.84,7.84,0,0,0-2.63-.46,7.69,7.69,0,0,0-7.23,5.05l-13.86,38.11a7.68,7.68,0,0,0,4.59,9.85h0A7.84,7.84,0,0,0,367,281a7.68,7.68,0,0,0,7.22-5.06l5.11-14v30.58l-4.19,47.84a9.32,9.32,0,0,0,8.47,10.1c.27,0,.55,0,.82,0a9.31,9.31,0,0,0,9.27-8.5l4.08-46.67h.35l4.09,46.67a9.31,9.31,0,0,0,9.27,8.5l.82,0a9.33,9.33,0,0,0,8.47-10.1l-4.19-47.84V261.87l5.1,14a7.7,7.7,0,0,0,7.23,5.06,7.84,7.84,0,0,0,2.63-.46,7.69,7.69,0,0,0,4.59-9.85l-13.87-38.11a7.7,7.7,0,0,0-9.85-4.59,8.38,8.38,0,0,0-.91.41l-.41-.19a17.63,17.63,0,0,0-13.14-29.39Z"/><path class="cls-2" d="M320.5,349.57a8.51,8.51,0,0,1-8.42-7.73l-4.15-47.44H306l-4.15,47.44a8.51,8.51,0,0,1-8.42,7.73l-.75,0a8.47,8.47,0,0,1-7.69-9.17l4.19-47.85V257l-6.76,18.56a6.86,6.86,0,0,1-6.42,4.5,7,7,0,0,1-2.34-.41,6.8,6.8,0,0,1-3.85-3.54,6.71,6.71,0,0,1-.23-5.22l13.86-38.1a6.84,6.84,0,0,1,8.76-4.09,6.22,6.22,0,0,1,.82.37l.38.19.49-.24.26-.11,1.1-.46-.8-.9a16.79,16.79,0,1,1,25,0l-.8.9,1.11.46.27.12.48.23.38-.19a6.15,6.15,0,0,1,.81-.37,7,7,0,0,1,2.34-.41,6.86,6.86,0,0,1,6.42,4.5l13.87,38.1a6.84,6.84,0,0,1-4.08,8.76,7,7,0,0,1-2.34.41,6.86,6.86,0,0,1-6.42-4.5L324.76,257v35.41L329,340.37a8.46,8.46,0,0,1-7.7,9.17Z"/><path class="cls-3" d="M307,200.48A15.92,15.92,0,0,1,318.85,227l-1.6,1.79,2.21.92.21.1.12.06.77.36.75-.39a6.69,6.69,0,0,1,.71-.32,6,6,0,0,1,7.67,3.58l13.87,38.1a6,6,0,1,1-11.24,4.09l-5.11-14-3.3-9.09v40.4l4.19,47.84a7.63,7.63,0,0,1-6.92,8.25c-.22,0-.45,0-.67,0a7.66,7.66,0,0,1-7.58-7l-4.08-46.67-.14-1.56h-3.47l-.13,1.56L301,341.77a7.65,7.65,0,0,1-7.57,7c-.22,0-.45,0-.67,0a7.61,7.61,0,0,1-6.92-8.25L290,292.6V252.2l-3.31,9.09-5.1,14a6,6,0,1,1-11.24-4.09l13.86-38.1a6,6,0,0,1,7.67-3.58,6.76,6.76,0,0,1,.72.32l.75.4.77-.37.11-.06.21-.1,2.22-.92-1.6-1.79A15.92,15.92,0,0,1,307,200.48m0-1.71a17.63,17.63,0,0,0-13.14,29.39l-.41.19a8.38,8.38,0,0,0-.91-.41,7.84,7.84,0,0,0-2.63-.46,7.69,7.69,0,0,0-7.23,5.05L268.8,270.64a7.68,7.68,0,0,0,4.59,9.85A7.84,7.84,0,0,0,276,281a7.68,7.68,0,0,0,7.22-5.06l5.11-14v30.58l-4.19,47.84a9.32,9.32,0,0,0,8.47,10.1c.27,0,.55,0,.82,0a9.31,9.31,0,0,0,9.27-8.5l4.08-46.67h.35l4.09,46.67a9.31,9.31,0,0,0,9.27,8.5l.82,0h0a9.33,9.33,0,0,0,8.47-10.1l-4.19-47.84V261.87l5.1,14a7.7,7.7,0,0,0,7.23,5.06,7.84,7.84,0,0,0,2.63-.46,7.69,7.69,0,0,0,4.59-9.85l-13.87-38.11a7.7,7.7,0,0,0-9.85-4.59,8.38,8.38,0,0,0-.91.41l-.41-.19A17.63,17.63,0,0,0,307,198.77Z"/><path class="cls-2" d="M365.63,390.68a8.52,8.52,0,0,1-8.42-7.73l-4.15-47.45h-1.91L347,383a8.52,8.52,0,0,1-8.43,7.73,6.23,6.23,0,0,1-.74,0,8.46,8.46,0,0,1-7.7-9.17l4.19-47.84V298.14l-6.76,18.57a6.85,6.85,0,0,1-6.42,4.5,6.84,6.84,0,0,1-6.42-9.18l13.87-38.1a6.86,6.86,0,0,1,6.42-4.5,6.72,6.72,0,0,1,2.34.42,6,6,0,0,1,.81.36l.38.2.5-.24.25-.12,1.11-.46-.8-.89a16.78,16.78,0,1,1,25,0l-.81.89,1.11.46.26.12.49.24.38-.2a7,7,0,0,1,3.15-.78,6.87,6.87,0,0,1,6.43,4.5L389.48,312a6.84,6.84,0,0,1-4.08,8.76,6.72,6.72,0,0,1-2.34.42,6.86,6.86,0,0,1-6.42-4.5l-6.76-18.57v35.41l4.19,47.92a8.47,8.47,0,0,1-7.69,9.17A6.28,6.28,0,0,1,365.63,390.68Z"/><path class="cls-3" d="M352.1,241.58A15.93,15.93,0,0,1,364,268.13l-1.6,1.79,2.22.92.2.1.12.05.77.37.75-.39a6.76,6.76,0,0,1,.72-.32,6,6,0,0,1,7.66,3.57l13.87,38.1a6,6,0,0,1-3.57,7.67,6,6,0,0,1-7.67-3.57l-5.1-14L369,293.31V333.7l4.18,47.85a7.61,7.61,0,0,1-6.92,8.24c-.22,0-.45,0-.67,0a7.65,7.65,0,0,1-7.57-6.94L354,336.2l-.13-1.55h-3.47l-.14,1.55-4.08,46.68a7.66,7.66,0,0,1-7.58,6.94c-.22,0-.45,0-.67,0a7.61,7.61,0,0,1-6.92-8.24l4.19-47.85V293.31l-3.3,9.08-5.11,14a6,6,0,0,1-11.24-4.1l13.87-38.1a6,6,0,0,1,5.62-3.93,5.89,5.89,0,0,1,2.76.68l.75.39.77-.37.12-.05.21-.1,2.21-.92-1.6-1.79a15.93,15.93,0,0,1,11.87-26.55m0-1.7A17.63,17.63,0,0,0,339,269.27a3.75,3.75,0,0,0-.41.19,5.74,5.74,0,0,0-.91-.41,7.66,7.66,0,0,0-9.85,4.59l-13.87,38.1A7.69,7.69,0,1,0,328.37,317l5.1-14v30.57l-4.19,47.85a9.32,9.32,0,0,0,8.47,10.09,7.63,7.63,0,0,0,.82,0,9.32,9.32,0,0,0,9.27-8.51l4.09-46.67h.35L356.36,383a9.32,9.32,0,0,0,9.27,8.51,7.63,7.63,0,0,0,.82,0,9.31,9.31,0,0,0,8.47-10.09l-4.19-47.85V303l5.11,14a7.68,7.68,0,0,0,14.44-5.26l-13.86-38.1a7.7,7.7,0,0,0-7.23-5.06,7.61,7.61,0,0,0-2.63.47,5.74,5.74,0,0,0-.91.41,3.75,3.75,0,0,0-.41-.19,17.63,17.63,0,0,0-13.14-29.39Z"/><polygon class="cls-2" points="150.1 243.39 242.99 239.53 242.99 247.25 150.1 243.39"/><polygon class="cls-2" points="238.44 251.71 242.1 243.39 238.44 235.07 263.99 243.39 238.44 251.71"/></svg>