<?xml version="1.0" encoding="utf-8"?>
<!-- Generator: Adobe Illustrator 24.0.3, SVG Export Plug-In . SVG Version: 6.00 Build 0)  -->
<svg version="1.1" id="Layer_1" xmlns="http://www.w3.org/2000/svg" xmlns:xlink="http://www.w3.org/1999/xlink" x="0px" y="0px"
	 viewBox="0 0 500 500" style="enable-background:new 0 0 500 500;" xml:space="preserve">
<style type="text/css">
	.st0{fill:#AECB8D;}
	.st1{fill:#A7C87E;}
	.st2{fill:none;stroke:#AECB8D;stroke-width:2;stroke-miterlimit:10;}
	.st3{fill:#FFFFFF;}
	.st4{fill:none;stroke:#A7C87E;stroke-width:3;stroke-miterlimit:10;}
	.st5{fill:none;stroke:#A7C87E;stroke-width:2;stroke-miterlimit:10;}
	.st6{fill:none;stroke:#A7C87E;stroke-width:2;stroke-miterlimit:10;stroke-dasharray:5.9695,5.9695;}
	.st7{fill:none;stroke:#FFFFFF;stroke-linecap:round;stroke-miterlimit:10;}
	.st8{fill:none;stroke:#A7C87E;stroke-width:5;stroke-miterlimit:10;}
	.st9{fill:none;stroke:#A7C87E;stroke-miterlimit:10;}
	.st10{fill:none;stroke:#A7C87E;stroke-width:10;stroke-miterlimit:10;}
	.st11{fill:url(#);}
	.st12{fill:#A7C87E;stroke:#A7C87E;stroke-width:0.25;stroke-miterlimit:10;}
	.st13{fill:#FFFFFF;stroke:#FFFFFF;stroke-width:0.25;stroke-miterlimit:10;}
	.st14{fill:none;stroke:#A7C87E;stroke-width:0.25;stroke-miterlimit:10;}
</style>
<g>
	<path class="st0" d="M250.2,18.8c31.2,0,61.4,6.1,89.9,18.1c27.5,11.6,52.2,28.3,73.4,49.5s37.9,45.9,49.5,73.4
		c12,28.5,18.1,58.7,18.1,89.9c0,31.2-6.1,61.4-18.1,89.9c-11.6,27.5-28.3,52.2-49.5,73.4c-21.2,21.2-45.9,37.9-73.4,49.5
		c-28.5,12-58.7,18.1-89.9,18.1s-61.4-6.1-89.9-18.1c-27.5-11.6-52.2-28.3-73.4-49.5c-21.2-21.2-37.9-45.9-49.5-73.4
		c-12-28.5-18.1-58.7-18.1-89.9c0-31.2,6.1-61.4,18.1-89.9c11.6-27.5,28.3-52.2,49.5-73.4s45.9-37.9,73.4-49.5
		C188.8,24.9,219,18.8,250.2,18.8 M250.2,8.8C117.1,8.8,9.3,116.6,9.3,249.7s107.9,240.9,240.9,240.9s240.9-107.9,240.9-240.9
		S383.3,8.8,250.2,8.8L250.2,8.8z"/>
</g>
<g>
	<path class="st1" d="M327.1,134.4c3.2,1,6.4,2.1,9.7,3c34.9,9,53.7,32.9,60.3,66.9c6.4,32.6-3.8,60.4-27.4,83.8
		c-40.1,39.7-79.9,79.7-118.9,118.7c-40-40-79.9-79.8-120.1-119.9c6.8,0,14-0.3,21.2,0.2c2.1,0.2,4.3,2.5,6.1,4.3
		c30.3,30.3,60.6,60.6,91.2,91.2c2.4-2.3,4.4-4.1,6.4-6.1c35.1-35.1,70.3-70.1,105.3-105.2c26.7-26.7,25.5-73.3,0.1-100
		c-28.9-30.4-85.5-20.7-102.9,16.8c-0.1,0.2-0.2,0.5-0.4,0.7c-2.8,3.2-5.6,6.4-8.4,9.6c-2.5-3.2-5.7-6.1-7.5-9.6
		c-17.9-35-63-47.2-95.2-24.7c-15.4,10.8-24.9,26.4-26.7,45.3c-1.2,12.7,0.5,25.7,0.9,39c0.2,0-1.8,0.2-3.9,0.2
		c-13.6,0.1-14.3-0.1-15.4-13.7c-1.8-24.2,1-47.4,16.4-67.7c13-17,29.4-27.9,50.7-30.8c1-0.1,1.9-1.2,2.9-1.8c7.3,0,14.6,0,22,0
		c1,0.6,1.8,1.5,2.9,1.8c7.3,2.2,15.4,3,21.8,6.6c11.1,6.2,21.3,14.2,32.4,21.9c10.2-11.4,23.3-21.5,40.1-26
		c5.2-1.4,10.4-2.9,15.7-4.4C313.5,134.4,320.3,134.4,327.1,134.4z"/>
	<path class="st1" d="M71.5,262.9c5.6-1.5,11.1-4,16.7-4.2c24-0.5,48.1-0.3,72.1-0.1c4.9,0,7.7-0.8,9.7-6.3
		c4.1-11.3,9.7-22.1,14.7-33.1c2.4-5.3,5.2-10.1,12.5-9.4c6.9,0.6,8.6,5.5,10.4,10.8c7.5,21.8,15.1,43.6,23.3,67.2
		c3.8-7.5,7.4-13.6,10.2-20c2.9-6.7,7.1-9.9,14.9-9.5c10.7,0.6,21.4,0.5,32.1,0c6.3-0.3,8.8,2.8,8.8,8.1c0,5.4-3.1,8.5-8.8,8.6
		c-7.6,0-15.2,0.3-22.7-0.1c-5.4-0.3-8.6,1.2-10.8,6.5c-4.3,10.4-8.9,20.8-14.3,30.7c-1.6,3-5.7,5.4-9.2,6.5
		c-4.9,1.6-9.1-0.4-11-5.8c-6.5-18.6-13.1-37.2-19.7-55.8c-1.7-4.8-3.4-9.6-5.8-16.6c-4.6,10.4-8.9,18.7-11.9,27.4
		c-2.3,6.5-6.1,8.8-12.6,8.8c-29.5-0.2-59,0-88.5-0.2c-3.4,0-6.7-1.7-10.1-2.7C71.5,270.2,71.5,266.6,71.5,262.9z"/>
</g>
</svg>
