<svg id="Layer_1" data-name="Layer 1" xmlns="http://www.w3.org/2000/svg" viewBox="0 0 500 500"><defs><style>.cls-1{fill:#aecb8d;}.cls-2{fill:#a7c87e;}</style></defs><path class="cls-1" d="M250.2,18.78a231,231,0,0,1,89.88,443.69A231,231,0,0,1,160.32,36.93,229.43,229.43,0,0,1,250.2,18.78m0-10C117.15,8.78,9.29,116.65,9.29,249.7S117.15,490.62,250.2,490.62,491.12,382.75,491.12,249.7,383.26,8.78,250.2,8.78Z"/><path class="cls-2" d="M245.57,161.31c-1.65-.1-1.43,1-1.44,2V299.53c0,.5,0,1,0,1.5a1.38,1.38,0,0,0,2.07,1.28c.39-.17.63-.66.27-.77-1.71-.53-.62-1.48-.29-2.12a6.46,6.46,0,0,0,.57-3.05q0-13,0-25.95c0-1.34.17-2.7-.55-4a1.48,1.48,0,0,1,.15-1.58,2.7,2.7,0,0,0,.4-1.73V234.32c0-.39,0-1.06-.19-1.13-1.75-.7-.65-1.75-.26-2.54a5.34,5.34,0,0,0,.45-2.47q0-12.52,0-25a9.41,9.41,0,0,0-.53-4.29,2.37,2.37,0,0,1,.18-2.32,2.7,2.7,0,0,0,.35-1.59V166.58c0-.5.07-1.08-.33-1.43-1-.88-.88-1.76-.21-2.76C246.67,161.69,246.48,161.37,245.57,161.31Z"/><path class="cls-2" d="M244.57,304.94q-51.57,0-103.16,0c-1.21,0-1.72.33-1.69,1.61.06,3.32,0,6.64,0,10a2.26,2.26,0,0,0,1.48,2.5c.57.19.81.65.12.89-1.56.52-1.6,1.73-1.6,3q0,45.1,0,90.21c0,2.12,0,2.14,2.24,2.14h102c2.24,0,2.24,0,2.24-2.29q0-44.65,0-89.31a3.75,3.75,0,0,0-.73-2.66c-.78-1-1-2,.25-2.93.57-.4.47-1.07.47-1.67,0-3.27,0-6.54,0-9.81C246.22,305.42,245.86,304.94,244.57,304.94Z"/><path class="cls-2" d="M145.63,248.37q47.19,0,94.37,0c1.24,0,1.68-.39,1.66-1.65,0-3.92,0-7.84,0-11.76v-5a1.16,1.16,0,0,0-.6,1,2.13,2.13,0,0,1-1.67,1.72c-.86.22-1.11-.54-1.65-1-.93-.78-1.48-2.06-3.26-2.06-28.69.11-57.39.08-86.08.07-1.07,0-2,0-2.2,1.41a2.1,2.1,0,0,1-1.17,1.5c-.88.39-.95,1.06-.95,1.85,0,4.12,0,8.25,0,12.37C144,248.05,144.48,248.37,145.63,248.37Zm39.45-13.44c3.58-1.82,7.49-2,11.38-1.53a16.57,16.57,0,0,1,4.67,1.47,2.89,2.89,0,0,1,1.59,2.61c.05,1.06-.73,1.53-1.64,2C198.52,241,195.8,241.1,193,241c-2.24,0-4.49.17-6.66-.68a5.2,5.2,0,0,1-3.12-2.81C182.73,236.15,184.17,235.39,185.08,234.93Z"/><path class="cls-2" d="M255.25,194.85c0,1.12-.09,2.23,1.6,2.89-1.84.39-1.59,1.54-1.59,2.57v63.51c0,.74-.12,1.54.88,1.85.4.12.63.57.13.74-1.28.45-1,1.48-1,2.38q0,13.66,0,27.31a4.39,4.39,0,0,0,.7,3.14,2.09,2.09,0,0,1,0,2c-.11.3-.54.58-.26.93s.66.19,1,.12c.5-.11.59-.5.61-.92s0-.81,0-1.21V163.52c0-.45,0-.9,0-1.35-.05-.76-.58-.85-1.19-.81s-1,.54-.78,1c.62,1.41-.09,2.74-.09,4.11C255.28,175.94,255.27,185.39,255.25,194.85Z"/><path class="cls-2" d="M139.71,229a3.71,3.71,0,0,0,.4,2,2.05,2.05,0,0,1,0,2.16,3.31,3.31,0,0,0-.38,1.74v29c0,.71-.05,1.42.87,1.71.5.15.66.64.09.82-1.07.35-1,1.16-1,1.95v28.52a3,3,0,0,0,.63,2.25,1.15,1.15,0,0,1,.09,1.51c-.24.43-.92.82-.41,1.44a1,1,0,0,0,1.13.17c.79-.26.56-1,.6-1.54,0-.35,0-.7,0-1V163.8c0-.56,0-1.11,0-1.66s-.48-.8-1-.79-1.12.39-.9.91c.56,1.36-.08,2.64-.08,4q0,14.47,0,29a2.22,2.22,0,0,0,1.19,2.33c-.43.79-1.24,1.23-1.22,2.43C139.76,209.63,139.71,219.34,139.71,229Z"/><path class="cls-2" d="M245.72,418.63l-1.66,0q-51.42,0-102.84-.05c-2.24,0-3.89.53-5,2.52.57.39,1.24.2,1.86.2H244.23l1.51,0c.89,0,1-.6,1-1.33S246.59,418.64,245.72,418.63Z"/><path class="cls-2" d="M260.18,227.1a6.66,6.66,0,0,1,.3-1.42,2.28,2.28,0,0,1,2.24-1.45c1,0,2,.4,2.09,1.32.14,1.9,1.31,1.74,2.6,1.74H351c1.92,0,3.86.46,5-2,.53-1.11,1.25-2,1.25-3.35q-.06-29.12,0-58.23c0-.3,0-.6,0-.9.09-1.08-.37-1.56-1.49-1.52-1.65.05-3.31,0-5,0a1.61,1.61,0,0,0-1.8,1,1.24,1.24,0,0,1-2.06.16,4.45,4.45,0,0,0-5.76-.23c-.77.68-1.95,1-2.37.21-.71-1.42-1.77-1-2.8-1.07s-2.17-.19-3.13.68c-1.26,1.16-2.11,1.08-3.55-.06a4.18,4.18,0,0,0-4.84.16,2.31,2.31,0,0,1-3.21.11,3.93,3.93,0,0,0-5.18,0,2.09,2.09,0,0,1-3,0c-1.6-1.53-3.5-.79-5.29-.86-.33,0-.49.3-.61.59a1.3,1.3,0,0,1-2.22.49c-1.38-1.61-3.1-1-4.74-1.16a1.41,1.41,0,0,0-1.56.85c-.48.94-1.5.84-2.09-.11-.19-.31-.31-.7-.71-.68-1.74.1-3.61-.66-5.14.88-.68.69-1.87,1-2.35.08-.69-1.36-1.72-1-2.69-1s-2.08-.24-3,.55c-1.54,1.3-2.19,1.25-3.79,0a4.28,4.28,0,0,0-4.73.17,2.19,2.19,0,0,1-3.38,0,2.4,2.4,0,0,0-1.89-.72c-2.31,0-4.63,0-6.94,0-2.05,0-2.06,0-2.06,2.11q0,30.91,0,61.84A2.85,2.85,0,0,0,260.18,227.1Zm12.2-10.17a5.63,5.63,0,0,1-2.31-2.77,3.52,3.52,0,0,1,2.49-2.49c.85,0,2.31,1.7,2.28,2.64C274.82,215,272.93,217,272.38,216.93Zm73.71-23.69a1,1,0,0,1-.58,1.11c-.23.09-.56.17-.64.34-.4,1-.91,1.55-2,.94a2.36,2.36,0,0,1-1.32-2.74c.19-1,1.67-2.42,2.45-2.3A3.29,3.29,0,0,1,346.09,193.24Zm-.62-4c0-.71,1.77-2.61,2.48-2.61s2.63,2.06,2.59,2.68-1.82,2.13-2.65,2.1A3.43,3.43,0,0,1,345.47,189.22Zm-64.63,14c.79,0,2.18,1.67,2.2,2.58s-1.32,2.7-2.22,2.7c-.54,0-2.37-2-2.37-2.64S280.33,203.23,280.84,203.26Zm-2.35-5.95a.77.77,0,0,1,.57-.78c.28-.08.66-.12.74-.44.26-1,.88-1.35,1.78-1a2.15,2.15,0,0,1,1.47,2.27c0,1.42-1.26,2.77-2.4,2.67C279.72,200,278.44,198.36,278.49,197.31Zm4.05,4.23a2.35,2.35,0,0,1,2.27-2h.37a2.09,2.09,0,0,1,2.13,1.25c.37.69.51,1.46-.49,1.85-.22.09-.55.22-.6.39-.35,1.3-1.29,1.36-2.21.92A2.18,2.18,0,0,1,282.54,201.54Zm4.11-3.64c0-.7.05-1.19.66-1.38l.14-.05c.84-.3.77-1.74,2.14-1.5,1.09.19.89,1.58,1.94,1.68a.57.57,0,0,1,.42.71,3.94,3.94,0,0,1-1.87,2.24,1.29,1.29,0,0,1-1.77-.19C287.73,198.89,286.55,198.93,286.65,197.9Zm2.7,5.3c.6,0,2.65,2.41,2.62,3.09a6.27,6.27,0,0,1-2.58,2.3c-.81,0-2.74-1.84-2.74-2.64S288.55,203.22,289.35,203.2Zm1.78-1.43a2.08,2.08,0,0,1,2.38-2.27,2.31,2.31,0,1,1-.06,4.62A2.12,2.12,0,0,1,291.13,201.77Zm3.93-4.15c0-.64,1.95-2.62,2.59-2.61s2.59,2,2.55,2.67-1.79,2.42-2.38,2.39S295.07,198.24,295.06,197.62Zm2.65,5.59c.68,0,2.51,2.06,2.49,2.73s-1.91,2.64-2.6,2.64-2.61-2-2.55-2.82S297,203.17,297.71,203.21Zm1.83-1.51c0-1.55.66-2.2,2.21-2.2a2.08,2.08,0,0,1,2.38,2.27,2.19,2.19,0,0,1-2.36,2.34C300.34,204.12,299.54,203.26,299.54,201.7Zm3.76-4.22c-.05-.56,1.92-2.45,2.57-2.48s2.74,1.84,2.76,2.61-1.8,2.24-2.65,2.27A4.36,4.36,0,0,1,303.3,197.48Zm2.73,5.73c.65,0,2.55,1.92,2.59,2.65s-1.84,2.71-2.63,2.73-2.74-1.87-2.74-2.65S305.17,203.25,306,203.21Zm1.85-2.32a2.11,2.11,0,0,1,2.26-1.38,1.94,1.94,0,0,1,2.16,1.28,2.43,2.43,0,0,1-.41,2.67,1.59,1.59,0,0,1-2.69-.17c-.11-.17-.18-.45-.32-.49C307.85,202.51,307.43,201.87,307.88,200.89Zm5.75-5.76a1.5,1.5,0,0,1,.43-.1c.85-.08,2.83,1.91,2.74,2.74-.11,1-1.41,2.43-2.27,2.28a2.54,2.54,0,0,1-2.27-1.9A2.57,2.57,0,0,1,313.63,195.13Zm.62,8.07a5,5,0,0,1,2.57,2.67c0,.58-1.83,2.65-2.38,2.67-.75,0-2.41-1.78-2.39-2.62S313.51,203.19,314.25,203.2Zm1.71-1.56c0-.92,1.4-2.1,2.55-2.14s2.68,1.26,2.73,2.17c0,.53-2,2.42-2.57,2.43S316,202.29,316,201.64Zm4.47-3.94a2.54,2.54,0,0,1,1.91-2.68c.39,0,.89-.11,1.1.28a2.55,2.55,0,0,0,1.43,1.4c.34.12.33.59.34.94a2.39,2.39,0,0,1-4.78.06Zm2.43,5.57c.55,0,2.36,2.16,2.35,2.74a3.36,3.36,0,0,1-2.39,2.55c-.95,0-2.41-1.63-2.4-2.69C320.43,205.27,322.33,203.24,322.86,203.27Zm1.52-1.53c0-.94,1.51-2.25,2.63-2.24.95,0,2.57,1.36,2.59,2.14,0,.6-2,2.47-2.59,2.46A5.61,5.61,0,0,1,324.38,201.74Zm5.27-5.27c.17-.11.44-.19.48-.33.25-.95.84-1.39,1.76-1a2.22,2.22,0,0,1,1.52,2.38c.15,1.37-.78,2.09-1.88,2.5s-1.71-.38-2.29-1.06A1.53,1.53,0,0,1,329.65,196.47Zm1.55,6.79c.79,0,2.18,1.68,2.2,2.58s-1.31,2.7-2.21,2.7a5.51,5.51,0,0,1-2.37-2.64C328.82,205.31,330.7,203.23,331.2,203.26Zm1.61-1.88a2.93,2.93,0,0,1,2.7-1.88,2.14,2.14,0,0,1,2.32,1.63,1.16,1.16,0,0,1-.62,1.5c-1,.61-1.62,2.4-3.22,1.05A2.51,2.51,0,0,1,332.81,201.38Zm4.2-3.7c0-.8,1.86-2.68,2.68-2.68.65,0,2.6,1.89,2.59,2.52s-2.06,2.27-2.69,2.33A4.55,4.55,0,0,1,337,197.68Zm2.68,5.52c.57,0,2.59,2.3,2.64,3s-2,2.41-2.63,2.41S337,206.7,337,205.9,338.88,203.18,339.69,203.2Zm1.81-1.42c0-1.52.74-2.27,2.34-2.28a2.27,2.27,0,0,1,2.34,2.5,2.41,2.41,0,0,1-2.32,2.12A2.21,2.21,0,0,1,341.5,201.78Zm-2-10.37a2.56,2.56,0,0,1-2.52-1.94c-.07-.66,1.7-2.76,2.36-2.82a3.88,3.88,0,0,1,2.94,2.26C342.43,189.76,340.58,191.42,339.53,191.41Zm-1.54,1.9a5.68,5.68,0,0,1-2.38,2.49c-.86.56-1.47-.32-1.87-1.18-.32-.69-1.6-1.13-.7-2.1.66-.71,1.85-.84,2.32-1.86l.41,0C336.33,191.62,337.74,191.92,338,193.31Zm-6.93-1.9a2.12,2.12,0,0,1-2.25-2.4,2.3,2.3,0,1,1,4.6-.06A2.16,2.16,0,0,1,331.06,191.41Zm-1.4,2c0,.67-2,2.55-2.72,2.54s-2.64-2-2.61-2.77a6.24,6.24,0,0,1,2.32-2.55C327.43,190.56,329.67,192.63,329.66,193.36Zm-6.84-2a2.19,2.19,0,0,1-2.4-2.28,2.43,2.43,0,0,1,2.46-2.47,2.48,2.48,0,0,1,2.33,2.63A2.21,2.21,0,0,1,322.82,191.41Zm-1.57,1.94a6,6,0,0,1-2.56,2.55c-.68,0-2.71-1.86-2.75-2.53s2.14-2.68,2.73-2.71S321.26,192.73,321.25,193.35Zm-6.81-1.95a2.77,2.77,0,0,1-2.49-2,3.08,3.08,0,0,1,2.18-2.73l.15,0c.67,0,2.54,1.9,2.54,2.63A2.13,2.13,0,0,1,314.44,191.4Zm-2,1.84c0,1.23-1.21,2.71-2.13,2.66a4.82,4.82,0,0,1-2.55-2.66c0-.63,1.81-2.66,2.38-2.66C311,190.58,312.42,192.28,312.41,193.24ZM306,191.41c-1,0-2.68-1.4-2.71-2.22s1.71-2.49,2.69-2.45c.73,0,2.62,1.81,2.62,2.48A2.6,2.6,0,0,1,306,191.41Zm-1.86,2.2c.13,1.18-.73,1.72-1.66,2.14s-1.32-.05-1.55-.87l-.3-.31a1.2,1.2,0,0,1-1.09-1.7,3.19,3.19,0,0,1,2-2.23C302.57,190.26,304.15,192.12,304.14,193.61Zm-6.48-2.21c-1,0-2.61-1.5-2.58-2.36a6.28,6.28,0,0,1,2.48-2.42c.57,0,2.57,1.89,2.6,2.5C300.19,189.92,298.58,191.39,297.66,191.4Zm-1.78,2a5.05,5.05,0,0,1-2.57,2.5,2.57,2.57,0,0,1-2.17-2.62c0-1,1.38-2.62,2.12-2.57A3.13,3.13,0,0,1,295.88,193.37Zm-6.71-2a2.66,2.66,0,0,1-2.49-2c-.08-.68,1.77-2.72,2.48-2.74,1,0,2.78,1.54,2.79,2.41S290.23,191.42,289.17,191.4Zm-1.62,1.88c0,.76-2,2.66-2.73,2.62a4.32,4.32,0,0,1-2.32-2.58c.05-.85,2-2.78,2.72-2.74A5.7,5.7,0,0,1,287.55,193.28Zm-6.77-1.87a2.12,2.12,0,0,1-2.34-2.44c0-.68,1.59-2.67,2.1-2.64a3.15,3.15,0,0,1,2.51,2.72A2.07,2.07,0,0,1,280.78,191.41Zm-1.43,1.71c0,.78-1.88,2.75-2.68,2.78S274,194,274,193.24a5,5,0,0,1,2.53-2.72C277.26,190.49,279.33,192.36,279.35,193.12Zm-2.67,6.38c1,0,2.69,1.53,2.62,2.34a6.69,6.69,0,0,1-2.62,2.26,5.61,5.61,0,0,1-2.67-2.37C274,200.88,275.65,199.48,276.68,199.5Zm-1.83,6.39c0,1-1.48,2.68-2.42,2.67a3.33,3.33,0,0,1-2.36-2.56c0-.6,1.8-2.71,2.35-2.73S274.84,205.28,274.85,205.89ZM274,210.2c-.07-.94,1.51-2.46,2.6-2.49a5.66,5.66,0,0,1,2.69,2.35c0,.53-2,2.41-2.65,2.43A3.42,3.42,0,0,1,274,210.2Zm6.89,6.77a5.54,5.54,0,0,1-2.43-2.6,5.62,5.62,0,0,1,2.33-2.69c.94-.06,2.26,1.45,2.27,2.62S281.87,217,280.88,217Zm1.63-6.88a3.06,3.06,0,0,1,2.38-2.38c.54,0,1,.11,1.17.72.07.22.21.54.39.6a1.33,1.33,0,0,1,1,2,2.5,2.5,0,0,1-2.41,1.5A3,3,0,0,1,282.51,210.09Zm6.65,6.86c-.69,0-2.54-2-2.51-2.74a6.71,6.71,0,0,1,2.66-2.51c.54,0,2.59,2,2.56,2.53S289.75,217,289.16,217Zm2-6.84a2.21,2.21,0,0,1,2.27-2.41,2.4,2.4,0,1,1-.14,4.79A2.2,2.2,0,0,1,291.13,210.11Zm6.5,6.81c-.73,0-2.61-1.93-2.58-2.65s1.91-2.64,2.6-2.63,2.59,2,2.54,2.7S298.22,216.92,297.63,216.92Zm1.91-6.87a2.09,2.09,0,0,1,2.29-2.35,2.21,2.21,0,0,1,2.3,2.39,2.35,2.35,0,0,1-2.33,2.38A2.19,2.19,0,0,1,299.54,210.05Zm6.47,6.89c-.81,0-2.77-2-2.76-2.76s1.95-2.55,2.68-2.55,2.72,1.89,2.7,2.69S306.69,217,306,216.94Zm4.14-4.45a2.42,2.42,0,0,1-2.44-2.45,2.47,2.47,0,0,1,2.57-2.34,2.74,2.74,0,0,1,2.36,2.48A2.7,2.7,0,0,1,310.15,212.49Zm4.12,4.47c-1-.06-2.1-1.55-2-2.78,0-1,1.43-2.53,2.24-2.5.55,0,2.36,2.07,2.36,2.66C316.81,215.09,315,217,314.27,217Zm4.43-4.47c-.63,0-2.71-1.82-2.71-2.39s2-2.41,2.66-2.39c1,0,2.63,1.48,2.6,2.34A3.55,3.55,0,0,1,318.7,212.49Zm4,4.44a5.68,5.68,0,0,1-2.3-2.78c.05-.94,1.49-2.49,2.29-2.48a3.48,3.48,0,0,1,2.49,2.65C325.18,215,323.29,217,322.73,216.93Zm4.22-4.44a3.31,3.31,0,0,1-2.59-2.34c0-1,1.61-2.47,2.65-2.44.61,0,2.42,1.77,2.4,2.32A4.8,4.8,0,0,1,327,212.49Zm4.4,4.47c-.64,0-2.53-1.94-2.53-2.64a5.57,5.57,0,0,1,2.38-2.64c.86,0,2.22,1.61,2.21,2.67S332.28,216.93,331.35,217Zm1.53-6.73a2.71,2.71,0,0,1,1.9-2.43,1.11,1.11,0,0,1,1.62.58c.09.23.2.56.37.62a1.35,1.35,0,0,1,1,1.94,2.45,2.45,0,0,1-2.07,1.55C334.42,212.52,332.85,211.24,332.88,210.23Zm6.6,6.72c-.73,0-2.51-2-2.47-2.78s2-2.53,2.53-2.51,2.67,2,2.65,2.62S340.11,217,339.48,217Zm2-6.79a2.23,2.23,0,0,1,2.22-2.46,2.39,2.39,0,0,1,.18,4.77A2.34,2.34,0,0,1,341.5,210.16Zm6.37,6.75a5.6,5.6,0,0,1-2.41-2.43c0-.76,1.86-2.87,2.53-2.85s2.6,1.94,2.57,2.68S348.58,217,347.87,216.91Zm.12-8.33c-.8,0-2.57-1.88-2.56-2.72s1.83-2.68,2.61-2.65,2.55,2,2.53,2.71S348.7,208.58,348,208.58Zm.48-8.57c-.58.46-1.32,0-1.81-.62-.2-.26-.58-.38-.84-.61a1.29,1.29,0,0,1,.17-2.28c.79-.42.79-1.75,2.15-1.53,1.11.17.88,1.57,1.94,1.68.43,0,.49.59.49,1.24C350.32,198.83,349.27,199.37,348.47,200Zm-.54-33.64a5.32,5.32,0,0,1,2.62,2.44c0,.88-1.58,2.27-2.67,2.31a3.11,3.11,0,0,1-2.43-2.31A4.35,4.35,0,0,1,347.93,166.37Zm-4.22-4.45c.5,0,2.38,2.05,2.38,2.64s-1.84,2.64-2.37,2.65c-.78,0-2.23-1.76-2.21-2.7S343,162,343.71,161.92Zm-3.9,4.44c.77,0,2.49,1.65,2.51,2.34s-1.64,2.29-2.65,2.39a2.58,2.58,0,0,1-2.63-2l0-.31C337.07,168.12,339.13,166.33,339.81,166.36Zm-4.57-4.49c.77,0,2.68,1.95,2.67,2.74,0,.61-1.88,2.61-2.44,2.62s-2.9-2.33-2.87-3A5.87,5.87,0,0,1,335.24,161.87Zm-4,4.48a2.28,2.28,0,0,1,2.22,2.48,2.35,2.35,0,0,1-2.4,2.3,2.18,2.18,0,0,1-2.21-2.46A2.29,2.29,0,0,1,331.2,166.35ZM327,161.87c.68,0,2.6,2.11,2.58,2.8s-1.78,2.58-2.39,2.55-2.84-2.06-2.82-2.73S326.29,161.85,327,161.87Zm-1.76,6.86a2.81,2.81,0,0,1-2.61,2.36,2.31,2.31,0,0,1-2.17-2.35,2.23,2.23,0,0,1,2.44-2.39A2.4,2.4,0,0,1,325.2,168.73Zm-6.46-6.86c.76,0,2.6,2.14,2.55,2.91a4.93,4.93,0,0,1-2.75,2.48c-.79,0-2.66-2-2.62-2.75S318,161.83,318.74,161.87Zm-4.63,4.51h.15c.64,0,2.54,2,2.56,2.62a2.31,2.31,0,0,1-4.6,0A2.25,2.25,0,0,1,314.11,166.38Zm-4-4.47c.76,0,2.54,1.88,2.53,2.72s-1.69,2.64-2.34,2.62-2.55-2-2.56-2.67A5.48,5.48,0,0,1,310.1,161.91ZM306,166.37c.73,0,2.66,1.91,2.64,2.57a2.65,2.65,0,0,1-2.31,2.2c-1.29,0-3.05-1.46-3-2.49C303.32,167.91,305.16,166.34,306,166.37Zm-4-4.44c.65,0,2.18,1.84,2.19,2.59,0,.95-1.44,2.71-2.22,2.69-.52,0-2.35-2.09-2.35-2.66S301.43,161.9,301.93,161.93Zm-4.29,4.44c.59,0,2.57,2,2.55,2.52,0,.88-1.73,2.27-2.75,2.23a3.46,3.46,0,0,1-2.36-2.25C295.06,168.3,297.05,166.37,297.64,166.37Zm-4.25-4.46c.58,0,2.55,2.12,2.54,2.74s-2.12,2.61-2.81,2.6-2-1.62-2-2.65C291.12,163.78,292.68,161.92,293.39,161.91Zm-4.77,4.59c.1-.15.46-.12.57-.14a3.86,3.86,0,0,1,2.71,2.44c.05.78-1.67,2.29-2.65,2.33a2.49,2.49,0,0,1-2.56-2.24c0-.19,0-.5.09-.57A6.14,6.14,0,0,0,288.62,166.5Zm-3.77-4.64c.8,0,2.68,1.86,2.69,2.71,0,.58-1.85,2.64-2.38,2.64s-2.72-1.89-2.74-2.48C282.38,163.83,284,161.89,284.85,161.86Zm-3.88,4.5a2.21,2.21,0,0,1,2.08,2.45,2.16,2.16,0,0,1-2.35,2.32,2.39,2.39,0,1,1,.27-4.77Zm-4.45-4.49c.8,0,2.78,1.83,2.83,2.67s-1.85,2.71-2.68,2.72-2.71-1.86-2.71-2.7A4.73,4.73,0,0,1,276.52,161.87Zm-4.14,4.48a2.42,2.42,0,0,1,2.47,2.58,2.3,2.3,0,0,1-2.34,2.2,2.41,2.41,0,0,1-2.42-2.36A2.34,2.34,0,0,1,272.38,166.35Zm.16,20.28a2.44,2.44,0,0,1,2.31,2.46,2.21,2.21,0,0,1-2.35,2.32,2.33,2.33,0,0,1-2.41-2.29A2.44,2.44,0,0,1,272.54,186.63Zm-.13,8.38a7,7,0,0,1,2.42,2.46c.07,1.44-1,2-2.06,2.47s-2.68-1.13-2.71-2.38A2.36,2.36,0,0,1,272.41,195Z"/><path class="cls-2" d="M361.72,307c0-2.07,0-2.08-2.1-2.08H257.38c-2,0-2,0-2,2,0,3.17,0,6.34,0,9.51A2.33,2.33,0,0,0,256.9,319c.42.15.89.54.32.8-2.07.95-1.89,2.73-1.89,4.49v88.08c0,.51,0,1,0,1.51-.08,1.06.43,1.43,1.44,1.41,2.11,0,4.22,0,6.33,0h96.36c2.17,0,2.26-.06,2.26-1.83q0-45.42,0-90.84c0-1.38-1.39-2.24-1.24-3.17s1.3-1.95,1.24-3.37C361.64,313.07,361.73,310.05,361.72,307Z"/><path class="cls-2" d="M185.52,237.86a11.13,11.13,0,0,0,6.76,1.46c3-.07,5.22.22,7.33-.85.56-.29,1.09-.58,1.24-1.18.2-.76-.53-.87-1-1.08a17.19,17.19,0,0,0-7.65-1.29,20.33,20.33,0,0,0-6.69,1.58c-.34.13-.65.31-.68.71S185.22,237.69,185.52,237.86Z"/><path class="cls-2" d="M252.22,133.27c0-.61,0-1.21,0-1.81s-.35-.86-.95-1c-1.63-.26-1.93.06-1.93,2.21V419.59a5.74,5.74,0,0,0,2.95-5.28Q252.19,273.79,252.22,133.27Z"/><path class="cls-2" d="M249.19,112.61c0-1.33-.45-1.72-1.75-1.72q-56,0-112,0c-1.31,0-1.76.41-1.75,1.73.06,4.38,0,8.75,0,13.12,0,2.22,0,2.23,2.26,2.23h55.47q27.88,0,55.78,0c1.52,0,2-.44,2-2C249.11,121.56,249.13,117.08,249.19,112.61Z"/><path class="cls-2" d="M361.27,418.57q-52.63.07-105.26,0a3.64,3.64,0,0,0-3.28,1.4c-.26.34-.88.58-.65,1.06s.82.21,1.25.24.81,0,1.21,0H363.11c.51,0,1,0,1.51,0,.77,0,.87-.36.4-.93A4.47,4.47,0,0,0,361.27,418.57Z"/><path class="cls-2" d="M244.26,130.44c-4.82.06-9.65,0-14.47.05-1.35,0-2.83-.51-4,.63l-.55-.06c-.81-.9-1.87-.58-2.84-.58q-39.92,0-79.82,0a6.91,6.91,0,0,1-.91,0c-1.41-.16-2,.39-1.93,1.87.07,4.12,0,8.24,0,12.36s0,8.24,0,12.37c0,1.32.46,1.75,1.76,1.73,5,0,10.05-.06,15.07,0a7,7,0,0,0,3.84-1c.38-.23.71-.54,1-.07.77,1.2,2,1,3.1,1h57.44a6.76,6.76,0,0,0,3.67-.54,1.73,1.73,0,0,1,1.73.19,3.42,3.42,0,0,0,1.75.35c5.12,0,10.25,0,15.38,0,1.31,0,1.75-.44,1.74-1.75q-.06-12.36,0-24.73C246.22,130.82,245.66,130.43,244.26,130.44Z"/><path class="cls-2" d="M144.06,300.45c0,2,0,2,2,2h93.47c2.06,0,2.07,0,2.07-2.12V252.21c0-2.17,0-2.17-2.13-2.17H192.93c-15.68,0-31.36,0-47,0-1.47,0-1.86.45-1.85,1.88Q144.1,276.17,144.06,300.45Z"/><path class="cls-2" d="M261.45,248.36q47.21,0,94.39,0c1.25,0,1.69-.41,1.66-1.65-.06-3,0-6,0-9.05,0-2.4.58-5-2.13-6.54-.3-1.73-1.64-1.41-2.81-1.41H266.45c-.87-.05-1.33.2-1.53,1.2-.37,1.79-2,2.23-3.37,1.09a5.6,5.6,0,0,1-1.6-1.84,2.84,2.84,0,0,0-.1.57c0,5.43,0,10.86,0,16.29C259.81,248.29,260.5,248.36,261.45,248.36Zm39.31-13.52a21,21,0,0,1,11.14-1.46A17.09,17.09,0,0,1,317,235a2.64,2.64,0,0,1,1.37,2.63c-.05,1-.65,1.43-1.48,1.87a14.32,14.32,0,0,1-8.21,1.45,16.79,16.79,0,0,1-6.85-.7,4.91,4.91,0,0,1-3-2.54C298.47,236.92,299.56,235.38,300.76,234.84Z"/><path class="cls-2" d="M239.92,161.27c-2.62.08-5.23,0-7.84,0-.66,0-1.22,0-1.62.77a1.29,1.29,0,0,1-2.35,0c-.19-.3-.3-.72-.7-.69-1.74.09-3.62-.7-5.13.86a1.47,1.47,0,0,1-2.17.21,4.86,4.86,0,0,0-6.15-.22,2.27,2.27,0,0,1-3.1,0,4.07,4.07,0,0,0-4.94-.21c-1.39,1.12-2.21,1.12-3.57,0a4.07,4.07,0,0,0-4.94.16,2.2,2.2,0,0,1-3.09.08c-1.61-1.68-3.59-.71-5.41-.85-.32,0-.46.33-.57.62a1.15,1.15,0,0,1-2,.49c-1.4-1.46-3.09-1.19-4.77-1.2a1.44,1.44,0,0,0-1.55.86,1.3,1.3,0,0,1-2.29-.05c-.19-.29-.28-.76-.68-.73-1.66.13-3.47-.77-5,.82-.91,1-1.89.77-2.66-.35-.14-.22-.28-.48-.53-.47-1.75.09-3.58-.68-5.17.79a2.35,2.35,0,0,1-3.46-.18,4.09,4.09,0,0,0-4.7,0,2.38,2.38,0,0,1-3.56.07,2.8,2.8,0,0,0-2-.77c-1.15,0-2.31,0-3.47,0-2.31,0-2.31,0-2.31,2.34q0,29,0,57.92c0,1.35,0,2.58,1.41,3.29a1.2,1.2,0,0,1,.63.8c0,1.9,1.32,1.64,2.51,1.64h85.67a1.87,1.87,0,0,0,2-1.09c.54-1,1.34-2.17,2.92-1.94,1,.14,1.29,1,2.23,1.61V185.18c0-7.39,0-14.78,0-22.17C241.65,161.7,241.25,161.22,239.92,161.27Zm-10.65,5.09c.6,0,2.66,1.8,2.68,2.36,0,.85-1.61,2.3-2.63,2.32s-2.68-1.34-2.67-2.27A5.45,5.45,0,0,1,229.27,166.36Zm-4.21,37.76c-1.55,0-2.16-.72-2.14-2.4s.68-2.26,2.3-2.22a2.18,2.18,0,0,1,2.29,2.37A2.33,2.33,0,0,1,225.06,204.12Zm4.15-.92c.81,0,2.76,1.9,2.78,2.71s-1.89,2.7-2.72,2.68-2.68-2-2.66-2.75A4.94,4.94,0,0,1,229.21,203.2Zm-73.89-1.6c0-.82,1.61-2.11,2.62-2.1,1.24,0,2.61,1.09,2.6,2,0,.77-2,2.61-2.78,2.57A5.42,5.42,0,0,1,155.32,201.6Zm.72,4.24a3.17,3.17,0,0,1-2.21,2.7c-.9.06-2.33-1.48-2.36-2.55,0-.57,1.79-2.73,2.28-2.73A6.53,6.53,0,0,1,156,205.84Zm65.15-14.42a2.51,2.51,0,0,1-2.63-1.45c-.38-.9.24-1.35.81-2.07,1-1.26,1.71-1.65,3-.56.65.57,1.46,1.21,1.09,2.11A3.35,3.35,0,0,1,221.19,191.42Zm2.36,6.12c0,.52-2,2.37-2.62,2.4a5.1,5.1,0,0,1-2.51-2.2c0-.75,1.87-2.74,2.59-2.73A5.51,5.51,0,0,1,223.55,197.54Zm-4.3-4.24c0,.62-2,2.57-2.67,2.6-.46,0-2.41-2.11-2.47-2.7a9.43,9.43,0,0,1,2.68-2.62C217.3,190.58,219.23,192.71,219.25,193.3Zm-5.3,5.94c-.72.53-1.38,1.1-2.42.45-1.78-1.11-1.91-2-.34-3.4.48-.43.37-1.51,1.27-1.28a2.11,2.11,0,0,1,2.16,1.54A2.07,2.07,0,0,1,214,199.24Zm-1.46-7.83A2.44,2.44,0,0,1,210,189a2.4,2.4,0,1,1,4.8.08A2.18,2.18,0,0,1,212.49,191.41Zm-1.57,1.79c0,.8-1.87,2.71-2.67,2.7-.65,0-2.58-2-2.6-2.73a5.24,5.24,0,0,1,2.38-2.6C208.73,190.54,210.91,192.53,210.92,193.2Zm-4.49,4.19a2.34,2.34,0,1,1-4.62,0,2.31,2.31,0,1,1,4.62,0Zm-2.26-6a2.09,2.09,0,0,1-2.35-2.43,2.31,2.31,0,1,1,4.61.05A2.08,2.08,0,0,1,204.17,191.4Zm-1.58,1.79c0,.72-2,2.71-2.63,2.71a5.51,5.51,0,0,1-2.61-2.41c0-.7,2-2.87,2.74-2.92S202.62,192.52,202.59,193.19Zm-4.37,4.51a2.62,2.62,0,0,1-2.52,2.15,2.57,2.57,0,0,1-2.26-2,2.61,2.61,0,0,1,1.79-2.78h.15C196.27,195,198.25,196.81,198.22,197.7Zm-2.41-6.29a2.17,2.17,0,0,1-2.39-2.29,2.51,2.51,0,0,1,2.47-2.5,2.46,2.46,0,0,1,2.33,2.46A2.43,2.43,0,0,1,195.81,191.41ZM194,193.29c0,.67-2,2.66-2.52,2.61-.78-.06-2.55-2-2.47-2.74s2-2.65,2.58-2.58S194.09,192.66,194,193.29Zm-4.21,4.33c0,1.56-1.5,1.41-2.16,2.16-.49.56-1,0-1.42-.35a4.28,4.28,0,0,1-.67-.6c-.46-.52-1.26-1.43-.71-1.75,1-.57,1-2.17,2.49-2.06C188,195.06,189.85,197.09,189.83,197.62Zm-2.44-6.21c-1,0-2.66-1.42-2.67-2.27a3.44,3.44,0,0,1,2.68-2.49,5.53,5.53,0,0,1,2.42,2.63A2.29,2.29,0,0,1,187.39,191.41Zm-2,2a2.25,2.25,0,0,1-1.89,2.46,1.71,1.71,0,0,1-.45,0,5.59,5.59,0,0,1-2.31-2.7,3.68,3.68,0,0,1,2.2-2.58C184,190.49,185.27,192,185.39,193.37Zm-3.71,4.29c-.16,1.55-1.65,1.54-2.44,2.27-.52.5-1.12,0-1.49-.53s-1.15-.44-1.38-1.08-.32-1.35.17-1.5c1.18-.37,1.49-2.74,3-1.63C180.33,195.77,181.55,196.43,181.68,197.66Zm-2.81-6.26c-.92,0-2.58-1.46-2.58-2.22,0-.6,2.12-2.58,2.74-2.57a6.37,6.37,0,0,1,2.56,2.56C181.6,190,179.83,191.43,178.87,191.4Zm-1.73,1.82c0,.68-1.91,2.67-2.53,2.64a2.54,2.54,0,0,1-2.07-2.35c0-1.17,1-2.67,1.89-2.74A2.65,2.65,0,0,1,177.14,193.22Zm-4.08,4.3a3.14,3.14,0,0,1-2.24,2.42c-.69.23-2.76-1.51-2.77-2.22,0-.52,0-1,.66-1.2.23-.08.58-.19.62-.36.32-1.13,1.24-1.59,2-1S173.19,196.44,173.06,197.52Zm-2.5-6.11c-1.46,0-2.86-1.22-2.44-2.37a4.21,4.21,0,0,1,2.31-2.34c.76-.32,2.41,1.13,2.65,2.09S171.83,191.4,170.56,191.41Zm-1.62,1.89c-.07.84-2.06,2.65-2.84,2.6s-2.35-2.17-2.26-2.82,2-2.54,2.59-2.51S169,192.67,168.94,193.3ZM162.4,200c-1,.21-1.65-.38-2-1.37-.19-.57-1.22-1.25-.57-1.61,1-.55,1.18-2,2.56-2a2.35,2.35,0,0,1,2,1.91A2.75,2.75,0,0,1,162.4,200Zm-.4-8.54a2.42,2.42,0,0,1-2.34-2.38c0-.71,1.73-2.76,2.31-2.71a3.11,3.11,0,0,1,2.49,2.73A2.22,2.22,0,0,1,162,191.41Zm-1.45,1.89c0,.8-2,2.65-2.76,2.6s-2.45-2.05-2.39-2.9a5.38,5.38,0,0,1,2.35-2.43C158.46,190.59,160.57,192.65,160.55,193.3Zm1.8,9.93c.92.05,2.17,1.69,2.11,2.77-.05.93-1.49,2.56-2.25,2.55s-2.59-2.08-2.55-2.71S161.68,203.2,162.35,203.23Zm1.33-1.73a3.2,3.2,0,0,1,2.88-2,2.42,2.42,0,0,1,2.33,2.08c0,1.25-1.53,1.34-2,2.37-.18.41-1.25.25-1.78-.19C164.41,203.18,163.47,202.65,163.68,201.5Zm6.95,1.72c.7,0,2.55,2.31,2.5,3.09a5.05,5.05,0,0,1-2.46,2.28c-.78,0-2.64-2-2.62-2.75S170,203.19,170.63,203.22Zm1.92-1.57c0-1.53.67-2.17,2.22-2.15a2.2,2.2,0,0,1,2.38,2.3,2.3,2.3,0,1,1-4.6-.15Zm6.43,1.56c.8,0,2.68,1.93,2.65,2.74s-2,2.67-2.77,2.64-2.61-1.94-2.61-2.64S178.14,203.21,179,203.21Zm1.75-1.44a2.18,2.18,0,0,1,2.39-2.27c1.59,0,2.22.64,2.21,2.31s-.68,2.32-2.24,2.31A2.31,2.31,0,0,1,180.73,201.77Zm6.67,1.47c.58,0,2.42,2,2.42,2.63a5,5,0,0,1-2.55,2.71,5.31,5.31,0,0,1-2.53-2.35C184.74,205.44,186.71,203.23,187.4,203.24Zm1.57-1.57a2.45,2.45,0,0,1,2.55-2.17c1.22,0,2.75,1.36,2.71,2.35a3.12,3.12,0,0,1-2.67,2.25A5.51,5.51,0,0,1,189,201.67Zm6.58,1.54c.85,0,2.7,1.95,2.67,2.75s-2.08,2.64-2.68,2.59a3.77,3.77,0,0,1-2.11-2.67C193.46,204.72,194.7,203.16,195.55,203.21Zm1.79-1.81c.06-.91,1.49-1.92,2.69-1.9,1,0,2.66,1.49,2.64,2.3a5.83,5.83,0,0,1-2.71,2.3C199.17,204.08,197.29,202.15,197.34,201.4Zm6.78,1.86c.49,0,2.31,2.16,2.3,2.72,0,1.08-1.46,2.62-2.37,2.57a3.21,3.21,0,0,1-2.22-2.71A6.53,6.53,0,0,1,204.12,203.26Zm1.46-1.51c0-.83,1.71-2.24,2.68-2.25,1.22,0,2.62,1,2.64,1.95,0,.73-1.92,2.65-2.67,2.65C207.64,204.1,205.56,202.26,205.58,201.75Zm7.24,1.45c.84,0,2,1.7,2,2.8s-1.52,2.59-2.37,2.56c-.64,0-2.46-2.08-2.43-2.75S212.05,203.18,212.82,203.2Zm1.42-1.12a2.59,2.59,0,0,1,2.69-2.58c1.16-.2,1.75.65,2.23,1.64a1.25,1.25,0,0,1,.11.58c0,.64-2.1,2.42-2.76,2.38C215.48,204,214.2,202.9,214.24,202.08Zm6.8,1.13c.64,0,2.52,2.1,2.52,2.79a5.23,5.23,0,0,1-2.5,2.58c-.79,0-2.67-1.94-2.64-2.76S220.39,203.19,221,203.21Zm4-7.35a2.44,2.44,0,0,1-2.22-2.38c.06-1.3,1.4-2.92,2.4-2.91.83,0,2.29,1.74,2.26,2.7C227.48,193.87,225.61,195.86,225.06,195.86Zm1.59-6.75a6.73,6.73,0,0,1,2.61-2.5c.63,0,2.71,2.06,2.69,2.64,0,.75-1.76,2.15-2.64,2.15S226.59,189.91,226.65,189.11Zm-1.52-27.21a5.46,5.46,0,0,1,2.37,2.68c0,.73-1.91,2.69-2.56,2.65-.86-.06-2.11-1.64-2.11-2.66S224.27,161.88,225.13,161.9Zm-5.51,5.72c.41-1,1.08-1.74,2.14-1,.79.55,2,1,1.7,2.4a3.47,3.47,0,0,1-3,2.13,2.13,2.13,0,0,1-2-1.45c-.24-.83-.23-1.62.84-1.91Zm-2.89-5.72a6,6,0,0,1,2.52,2.6c0,.81-2,2.77-2.77,2.75-.56,0-2.49-1.92-2.46-2.43C214.08,164,216.07,161.85,216.73,161.9Zm-4.15,4.45a2.42,2.42,0,0,1,2.24,2.64,2.39,2.39,0,0,1-2.56,2.14,2.43,2.43,0,0,1-2.24-2.37A2.56,2.56,0,0,1,212.58,166.35Zm-4.27-4.48c.78,0,2.63,2,2.61,2.78,0,.61-1.92,2.6-2.44,2.56s-2.95-2.13-2.95-2.66C205.53,163.77,207.52,161.85,208.31,161.87Zm-1.88,6.89a2.81,2.81,0,0,1-2.57,2.37,2.15,2.15,0,0,1-2-2.32,2.31,2.31,0,1,1,4.61-.05ZM200,161.87a5,5,0,0,1,2.72,2.59c0,.77-1.86,2.76-2.68,2.79s-2.7-1.85-2.71-2.66S199.21,161.86,200,161.87Zm-4.29,4.49a2.55,2.55,0,0,1,2.52,2.43,2.4,2.4,0,0,1-2.42,2.33,2.32,2.32,0,0,1-2.38-2.31A2.36,2.36,0,0,1,195.7,166.36Zm-4.12-4.46c.68,0,2.63,2.19,2.64,3a5.47,5.47,0,0,1-2.5,2.37c-.77,0-2.57-1.88-2.57-2.69S190.91,161.91,191.58,161.9Zm-4.94,4.6a1.21,1.21,0,0,1,.72-.11,5.81,5.81,0,0,1,2.46,2.59,2.14,2.14,0,0,1-2.5,2.13,2.79,2.79,0,0,1-2.46-2.11C184.6,167.77,185.79,167.15,186.64,166.5Zm-3.6-4.59c.85-.08,2.26,1.54,2.27,2.62s-1.1,2.61-2,2.69c-.66.06-2.56-1.84-2.59-2.59A5.74,5.74,0,0,1,183,161.91Zm-4,4.45c.76,0,2.67,1.92,2.61,2.59-.07.85-1.66,2.09-2.67,2.09s-2.71-1.47-2.63-2.31A5.7,5.7,0,0,1,179,166.36Zm-4.22-4.44c.54,0,2.37,2.07,2.36,2.67s-1.9,2.65-2.57,2.66c-1,0-2.06-1.47-2-2.77C172.59,163.52,174,161.93,174.78,161.92Zm-5.69,5.79c.18-.05.35-.35.42-.57a1.1,1.1,0,0,1,1.7-.64,2.74,2.74,0,0,1,1.85,2.49c0,1.06-1.6,2.19-2.92,2.15a2.47,2.47,0,0,1-2-1.58A1.28,1.28,0,0,1,169.09,167.71Zm-3-5.84c.7,0,2.78,2,2.81,2.68s-1.85,2.7-2.64,2.71-2.73-1.88-2.71-2.65S165.5,161.87,166.13,161.87Zm-4,4.48a2.23,2.23,0,0,1,2.32,2.37,2.37,2.37,0,0,1-2.47,2.39,2.45,2.45,0,0,1-2.33-2.45A2.54,2.54,0,0,1,162.15,166.35ZM158,161.87c.7,0,2.55,2,2.56,2.68a4.91,4.91,0,0,1-2.52,2.7c-.8,0-2.61-1.82-2.62-2.67S157.16,161.85,158,161.87Zm-4.19,4.48a2.12,2.12,0,0,1,2.26,2.4,2.16,2.16,0,0,1-2.28,2.38,2.35,2.35,0,0,1-2.31-2.4A2.26,2.26,0,0,1,153.79,166.35Zm0,20.29a2.18,2.18,0,0,1,2.23,2.45,2.08,2.08,0,0,1-2.32,2.32,2.21,2.21,0,0,1-2.27-2.42A2.36,2.36,0,0,1,153.82,186.64Zm0,8.36a2.25,2.25,0,0,1,2.24,2.45,2.69,2.69,0,0,1-2.36,2.63c-1,0-2.27-1.61-2.25-2.76A2.23,2.23,0,0,1,153.82,195Zm.05,21.91c-.53.05-2.41-2-2.41-2.61,0-1.06,1.36-2.62,2.28-2.63a3,3,0,0,1,2.3,2.59A6.64,6.64,0,0,1,153.87,216.91Zm4.11-4.42a3.2,3.2,0,0,1-2.55-2.32,3.09,3.09,0,0,1,2.45-2.46c.53,0,1,.09,1.18.7a1.12,1.12,0,0,0,.64.77c1.22.61,1.22,1.29,0,1.85C158.92,211.36,159.12,212.83,158,212.49Zm4.28,4.46c-.71,0-2.58-1.89-2.6-2.65s2-2.66,2.62-2.62,2.17,1.71,2.17,2.59C164.45,215.39,163.21,216.91,162.26,217Zm1.42-6.87c0-.94,1.67-2.38,2.73-2.38a2.41,2.41,0,1,1,0,4.81C165.29,212.49,163.65,211,163.68,210.08Zm6.86,6.89c-.64,0-2.51-2-2.49-2.71a4.81,4.81,0,0,1,2.61-2.63,4.65,4.65,0,0,1,2.47,2.31C173.16,214.77,171.29,217,170.54,217Zm2-6.91c0-1.48.8-2.36,2.11-2.35a2.41,2.41,0,0,1,2.49,2.41,2.36,2.36,0,0,1-2.36,2.35A2.16,2.16,0,0,1,172.55,210.06Zm6.31,6.72c-.85,0-2.67-1.89-2.61-2.67s2.06-2.52,2.76-2.49,2.63,2,2.61,2.64S179.67,216.81,178.86,216.78Zm4.13-4.31a2.36,2.36,0,0,1-2.26-2.44,2.44,2.44,0,0,1,2.57-2.32c1.28,0,2,.95,2,2.44A2.16,2.16,0,0,1,183,212.47Zm4.45,4.49c-.78,0-2.75-1.93-2.75-2.76a4.63,4.63,0,0,1,2.54-2.56c.73,0,2.59,1.9,2.59,2.66A5.38,5.38,0,0,1,187.44,217Zm4.08-4.47a2.24,2.24,0,0,1-2.38-2.46,2.19,2.19,0,0,1,2.34-2.33c1.05,0,2.69,1.45,2.71,2.39S192.56,212.51,191.52,212.49Zm4.09,4.45c-1,0-2.2-1.59-2.19-2.7s1.5-2.62,2.37-2.59a5.3,5.3,0,0,1,2.43,2.64C198.2,215.06,196.32,217,195.61,216.94Zm4.36-4.45c-.57,0-2.61-1.87-2.61-2.4a5.7,5.7,0,0,1,2.63-2.38c.85,0,2.62,1.56,2.67,2.33S200.91,212.49,200,212.49Zm4.13,4.45a6.63,6.63,0,0,1-2.27-2.58,3.2,3.2,0,0,1,2.23-2.69c.91,0,2.33,1.51,2.36,2.57C206.43,214.84,204.62,217,204.1,216.94Zm4.16-4.45a4,4,0,0,1-2.68-2.33c0-.82,1.77-2.45,2.71-2.45a6.24,6.24,0,0,1,2.55,2.29A7.08,7.08,0,0,1,208.26,212.49Zm4.38,4.45c-.68,0-2.59-1.88-2.62-2.62s2-2.66,2.61-2.65,2.18,1.71,2.19,2.58C214.83,215.36,213.59,216.9,212.64,216.94Zm1.41-6.76c-.06-.93,1.57-2.45,2.65-2.48a2.48,2.48,0,0,1,2.56,2.39,2.45,2.45,0,0,1-2.57,2.4A3.4,3.4,0,0,1,214.05,210.18Zm6.78,6.78a5.25,5.25,0,0,1-2.41-2.63c0-.68,1.87-2.67,2.55-2.69s2.57,1.82,2.58,2.52S221.64,217,220.83,217Zm2.09-6.88c0-1.49.79-2.38,2.09-2.37a2.4,2.4,0,0,1,2.5,2.39,2.36,2.36,0,0,1-2.34,2.37A2.16,2.16,0,0,1,222.92,210.08Zm6.37,6.7c-.61,0-2.62-1.76-2.63-2.31s2-2.86,2.67-2.85,2.66,1.89,2.67,2.59S230.13,216.78,229.29,216.78Zm-.06-16.65c-.83,0-2.62-1.61-2.63-2.4s1.86-2.7,2.64-2.73,2.74,1.83,2.76,2.61S230.16,200.1,229.23,200.13Z"/><path class="cls-2" d="M301.89,238.45a15.74,15.74,0,0,0,6.77.84,16.81,16.81,0,0,1,2.56,0c1.64.27,3-.7,4.43-1.05a1.19,1.19,0,0,0,1-1.18c0-.63-.62-.53-1-.75a8.67,8.67,0,0,0-3.44-1.23,19.66,19.66,0,0,0-10.63,1.2c-.5.23-1.41.12-1.19,1C300.58,238,301.27,238.22,301.89,238.45Z"/><path class="cls-2" d="M158.32,92.65h33.15c11.05,0,22.1,0,33.16,0,1.39,0,1.92-.33,1.94-1.83,0-1.68-.86-1.71-2.09-1.71h-66c-.4,0-.81,0-1.21,0a.92.92,0,0,0-.88.67C155.77,91.62,156.46,92.65,158.32,92.65Z"/><path class="cls-2" d="M385,232.28c-.52-.29-.71.27-1,.52a7.5,7.5,0,0,1-7.56,2.13,6.63,6.63,0,0,1-4.48-3,5.73,5.73,0,0,0-.28,2.49q0,93.59,0,187.16c0,.35,0,.71,0,1.06-.12,1.22.39,1.71,1.64,1.68,3.12-.05,6.24,0,9.35,0,2.59,0,2.59,0,2.59-2.54V234.45c0-.4,0-.81,0-1.21S385.31,232.47,385,232.28Zm-6.52,13.05a3.54,3.54,0,0,1,2.9,2.8,3.05,3.05,0,0,1-3,2.75,3.31,3.31,0,0,1-3.09-2.71C375.26,247.06,377.19,245.34,378.45,245.33Zm2.91,17.95a3.26,3.26,0,0,1-3.15,2.65c-1,0-2.93-1.81-2.93-2.79s1.92-2.9,2.86-2.9A3.09,3.09,0,0,1,381.36,263.28Zm-3,32.46c-1.06-.05-3.16-2.13-3.13-3.1a3.87,3.87,0,0,1,3.13-2.93c1.11,0,3,2,2.92,3.12S379.32,295.78,378.4,295.74ZM378.05,281c-1.13,0-2.78-2-2.77-3.27s1.75-3,2.82-3,3.4,1.9,3.38,2.9S379.15,281,378.05,281Z"/><path class="cls-2" d="M277,92.65h33c11.1,0,22.21,0,33.31,0,1.47,0,1.88-.49,1.89-1.91,0-1.59-.86-1.64-2-1.64H276.82c-.35,0-.7,0-1.05,0a.88.88,0,0,0-.82.74C274.44,91.86,275,92.65,277,92.65Z"/><path class="cls-2" d="M355.11,250H261.94c-2.1,0-2.1,0-2.1,2v48.26c0,2.09,0,2.1,2.08,2.1H355.1c2.08,0,2.13-.05,2.13-2.09q0-24.12,0-48.26C357.23,250.05,357.22,250,355.11,250Z"/><path class="cls-2" d="M385.78,98.25c0-2.39,0-2.39-2.36-2.39H118.32c-2.1,0-2.11,0-2.11,2.07,0,2.31.08,4.62,0,6.92,0,1.87.06,2.06,2,2.06H382.86c.5,0,1,0,1.51,0,1,.06,1.44-.39,1.42-1.43C385.75,103.08,385.78,100.66,385.78,98.25Z"/><path class="cls-2" d="M137,133.79c0-.55,0-1.11,0-1.66.09-1.23-.44-1.65-1.67-1.69-1.74-.07-1.64,1-1.64,2.17q0,142.61,0,285.2c0,.53-.17,1.1.23,1.58a6.6,6.6,0,0,0,3.13-6.13Q136.94,273.54,137,133.79Z"/><path class="cls-2" d="M385.27,122.32c0-3.26,0-6.53,0-9.8,0-1.15-.39-1.61-1.58-1.59-3.22.06-6.44,0-9.65,0-2.37,0-2.37,0-2.37,2.42v109c1.76,0,1.93-1.69,2.95-2.27,2.42-1.4,6.63-1.37,8.75,1.07.43.51.95,1.42,1.56,1.17s.31-1.26.31-1.93Q385.28,171.35,385.27,122.32Z"/><path class="cls-2" d="M375.63,227h0v4.05c0,.57.05,1.25.75,1.28,1.67.06,3.37.47,5-.34,2.07-1,1.64-3.49,2.86-5v-.15c-.72-1.12-.63-2.58-1.6-3.62s-2.47-1.22-3.78-1.59a3.62,3.62,0,0,0-3,.72c-.73.49-.15,1.39-.22,2.11A24.08,24.08,0,0,0,375.63,227Z"/><path class="cls-2" d="M130.32,112.29c.08-.81-.18-1.35-1.16-1.34-3.82,0-7.64,0-11.46,0-.81,0-1.22.33-1.21,1.16,0,.55,0,1.1,0,1.66V415.13c0,2.51,0,5,0,7.54,0,1.12.34,1.66,1.55,1.64,3.62-.05,7.24,0,10.86,0,1,0,1.52-.34,1.45-1.4,0-.55,0-1.1,0-1.66v-298a5.27,5.27,0,0,0-.48-3.07.89.89,0,0,1-.09-.72C130.91,117.1,130.09,114.66,130.32,112.29Z"/><path class="cls-2" d="M359.79,130.44c-5.07.06-10.15,0-15.23,0-1,0-2.13-.29-3,.58a.49.49,0,0,1-.69,0c-.79-.79-1.79-.55-2.72-.55q-29.47,0-59,0c-1,0-2.13-.32-3,.59-.23.25-.57.13-.79-.14-.45-.55-1.08-.45-1.67-.46-1.81,0-3.63-.12-5.43,0-3.46.27-7-.76-10.39.58-.13.05-.35-.13-.53-.21-1.63-.72-2-.47-2,1.35q0,6.18,0,12.37v11.91c0,2.28,0,2.28,2.21,2.28h14.78a4.72,4.72,0,0,0,2.74-.56c.92-.59,1.89-.91,2.79.21.4.49,1.12.35,1.72.35h59.27a2.78,2.78,0,0,0,1.62-.22,2.21,2.21,0,0,1,2.55-.07,3.09,3.09,0,0,0,1.61.29c5.13,0,10.25,0,15.38,0,1.31,0,1.76-.43,1.76-1.75q-.08-12.36,0-24.73C361.76,130.81,361.18,130.43,359.79,130.44Z"/><path class="cls-2" d="M360.07,169.86h-.25v78.08l.25,0Z"/><path class="cls-2" d="M359.81,301.94l.26,0V250.43h-.26Z"/><path class="cls-2" d="M367.73,131.51c0-.67-.37-1-1-1-1.35-.14-1.62.21-1.62,2.28q0,140.91,0,281.8a4.65,4.65,0,0,0,2.71,4.44V133C367.75,132.52,367.74,132,367.73,131.51Z"/><path class="cls-2" d="M367.75,113.16c0-2.24,0-2.25-2.25-2.25h-111c-2.2,0-2.2,0-2.2,2.26v12.52c0,2.28,0,2.28,2.33,2.28H362c.52,0,1-.08,1.21-.67s.6-.67,1,0c.7,1.22,1.89.67,2.84.57s.69-1.08.69-1.73Q367.77,119.64,367.75,113.16Z"/></svg>