<svg id="Layer_1" data-name="Layer 1" xmlns="http://www.w3.org/2000/svg" viewBox="0 0 500 500"><defs><style>.cls-1{fill:#aecb8d;}.cls-2{fill:#a7c87e;}</style></defs><path class="cls-1" d="M250.2,18.78a231,231,0,0,1,89.88,443.69A231,231,0,0,1,160.32,36.93,229.43,229.43,0,0,1,250.2,18.78m0-10C117.15,8.78,9.29,116.65,9.29,249.7S117.15,490.62,250.2,490.62,491.12,382.75,491.12,249.7,383.26,8.78,250.2,8.78Z"/><path class="cls-2" d="M278.35,348.65a22.44,22.44,0,0,0-3.55-.57,32.14,32.14,0,0,1-16-7.61,40.86,40.86,0,0,1-6.3-7.41l-13.08-18.4L222,290.2c-1.38-1.94-2.78-3.85-4.15-5.79a1.65,1.65,0,0,0-1.65-.84,7.93,7.93,0,0,1-1.09,0q-51.59,0-103.16,0a36.25,36.25,0,0,1-13.12-2.11,32.42,32.42,0,0,1-19.55-21.22,28.47,28.47,0,0,1-1-4.92,4,4,0,0,0-.37-1.59v-4.61a14.52,14.52,0,0,0,.58-3.21,32.36,32.36,0,0,1,8.8-17.08,31.53,31.53,0,0,1,18.33-9.28,24,24,0,0,1,3.6-.29q61.19,0,122.36,0a33,33,0,0,1,16.24,4.28c1.34.75,2.76,1.33,4.08,2.12a31.73,31.73,0,0,1,9.6,9l18.37,25.8q7.81,11,15.62,22c1.35,1.89,1.34,1.9,3.62,1.9h95.39c2.19,0,4.37-.29,6.56-.19,4.16.21,8.32.39,12.28,1.9a35.29,35.29,0,0,1,11.36,6.89,30.8,30.8,0,0,1,9.53,17.48,8.8,8.8,0,0,0,.28,1.84V321a6.68,6.68,0,0,0-.26,1.61,32.22,32.22,0,0,1-26.12,25.44,35,35,0,0,0-3.67.57Zm63.17-9.5H402.8a19.1,19.1,0,0,0,2.62-.16,22.76,22.76,0,0,0-3-45.34q-53,0-106,0h-1.31A5.88,5.88,0,0,1,290,291c-3.42-5-7-9.83-10.47-14.74q-6.53-9.15-13-18.29c-4.26-6-8.49-12-12.76-18a22.5,22.5,0,0,0-8.7-7.34c-.6-.28-1.19-.57-1.76-.89a25.07,25.07,0,0,0-12.58-3.24H111.48a26.62,26.62,0,0,0-6.3.61,22.84,22.84,0,0,0-17.64,24.06,23,23,0,0,0,15.87,19.85,28.25,28.25,0,0,0,9,1.16c28.79-.07,57.59.23,86.38-.15,6.5-.08,13,0,19.51,0a6.61,6.61,0,0,1,5.93,2.85c4.13,6,8.38,11.88,12.6,17.8q8.34,11.75,16.71,23.48c2.84,4,5.64,8,8.57,11.92a21.78,21.78,0,0,0,13.25,8.52,31.8,31.8,0,0,0,6.75.51Q311.8,339.13,341.52,339.15Z"/><path class="cls-2" d="M421.12,170.63c2.62.76,3.88,2.35,3.78,4.79a4.52,4.52,0,0,1-4.74,4.45c-2.23,0-4.46,0-6.69,0h-6.79c-1.94,0-2,.06-2,2v26.86a4.69,4.69,0,0,1-4.75,4.95c-.36,0-.73,0-1.09,0H370c-1.57,0-1.64,0-1.78,1.55a36.64,36.64,0,0,0,0,7.55c.1.82.16.85,1,.88,1,0,2.05.06,3.07,0a4.73,4.73,0,0,1,4.47,2.44c.87,1.4,1.69,2.82,2.51,4.25,2.17,3.76,4.32,7.54,6.5,11.3a5,5,0,0,1,0,5.31c-3,5.16-6,10.3-8.93,15.47a4.82,4.82,0,0,1-7.73,1,4.67,4.67,0,0,1-.66-5.31c.67-1.34,1.45-2.62,2.2-3.92,1.69-2.94,3.38-5.89,5.1-8.82a1.83,1.83,0,0,0,.05-2c-1.79-3.26-3.57-6.54-5.59-9.67l-.32-.45a1.07,1.07,0,0,0-1.2-.31c-.47.1-.6.48-.6.92,0,1.39,0,2.78,0,4.17,0,1.68,0,3.36-.06,5a4.68,4.68,0,0,1-9.27,1.2,10.74,10.74,0,0,1-.17-2c0-2.56,0-5.12,0-7.68,0-.29,0-.58,0-.87s-.06-.7-.45-.8a1,1,0,0,0-1.2.26,5.22,5.22,0,0,0-.38.54c-2.1,3.08-3.89,6.35-5.71,9.6a1.66,1.66,0,0,0,.06,1.84c1.78,3.06,3.54,6.14,5.31,9.21.64,1.11,1.3,2.2,1.91,3.33a4.67,4.67,0,0,1-2.82,7,4.74,4.74,0,0,1-5.34-2.28c-1.34-2.26-2.64-4.55-4-6.83l-4.7-8.16c-.22-.38-.43-.77-.62-1.17a4.55,4.55,0,0,1,.13-4.41c1.24-2.24,2.53-4.44,3.8-6.66,1.57-2.72,3.22-5.4,4.68-8.18,1.3-2.48,3.13-3.76,6-3.5a21.55,21.55,0,0,0,2.41,0,.78.78,0,0,0,.87-.78,14.61,14.61,0,0,0,.11-2.39c-.12-1.49-.05-3-.06-4.49,0-.44,0-.88,0-1.32-.05-.79-.2-.94-1-1-.37,0-.74,0-1.1,0H328.22a13.51,13.51,0,0,1-2.29-.17,4.24,4.24,0,0,1-3.73-3.62,14.77,14.77,0,0,1-.22-2.4q0-12.06,0-24.12a14.52,14.52,0,0,1,.11-1.74c.13-1.21-.32-1.69-1.5-1.72h-87a7.25,7.25,0,0,1-2.17-.22,4.45,4.45,0,0,1-3.18-4.37,4.32,4.32,0,0,1,3.06-4.42l.73-.24ZM355,204.31c1.91-.08,4.24.11,6.58-.14a2.34,2.34,0,0,0,1.8-1c5.42-7.15,10.88-14.28,16.31-21.43.34-.44,1.1-.89.78-1.42s-1.11-.41-1.73-.41H365.86a3.32,3.32,0,0,0-1.08.15.82.82,0,0,0-.62.55,13.29,13.29,0,0,1-2.54,4.18q-6.93,9-13.85,18.08a4.38,4.38,0,0,0-.43.63c-.15.31-.18.59.28.61.66,0,1.29.21,2,.2C351.26,204.3,352.94,204.31,355,204.31Zm-23.55-12.37v10.41a4.34,4.34,0,0,0,.12,1.19.94.94,0,0,0,.63.69,3.08,3.08,0,0,0,3.42-1q8.2-10.75,16.4-21.52c.33-.44,1.12-.87.8-1.41s-1.11-.39-1.72-.39c-4.53,0-9.06-.06-13.59,0a31.13,31.13,0,0,0-4.92.16c-1.12.19-1.14.13-1.14,1.24C331.48,184.85,331.49,188.4,331.49,191.94Zm53.23,12.37h3.07c2,0,4,0,6,0,1.05,0,1.32-.28,1.35-1.28.08-2,.17-4,.2-6,.08-4.64,0-9.29,0-13.93a9.93,9.93,0,0,0,0-1.09c-.25-2.16-.46-2.32-2.68-2.1-.49,0-.82.17-.91.73a6.07,6.07,0,0,1-1.35,2.72l-8.4,11q-3.39,4.43-6.79,8.88c-.19.25-.51.5-.3.86s.5.24.8.25h9Z"/><path class="cls-2" d="M161.72,203.6H128a7.32,7.32,0,0,1-2.59-.32,4.6,4.6,0,0,1,.71-8.83,12.19,12.19,0,0,1,2.18-.19q33.44,0,66.87,0a10.29,10.29,0,0,1,2.07.19,4.4,4.4,0,0,1,3.61,4.33,4.5,4.5,0,0,1-4.66,4.81c-.44,0-.87,0-1.31,0Z"/><path class="cls-2" d="M310.44,260.88a4.39,4.39,0,0,1-2.69,4.48,4.72,4.72,0,0,1-5.18-.91,29.84,29.84,0,0,1-2.13-2.63Q291.25,250,282.1,238.05c-.31-.41-.61-.82-.88-1.26A4.66,4.66,0,0,1,288.5,231a40.17,40.17,0,0,1,2.94,3.68q6.45,8.31,12.85,16.65c1.45,1.88,2.92,3.75,4.37,5.63a10.43,10.43,0,0,1,1.48,2.29A3.63,3.63,0,0,1,310.44,260.88Z"/><path class="cls-2" d="M226.43,268.71c-8.62.33-16.34-7.08-16.31-16.22a16.36,16.36,0,0,1,32.71-.14C242.87,262,234.85,269.08,226.43,268.71Zm-6.84-16.35a7,7,0,0,0,6.86,7,7.09,7.09,0,0,0,7-6.88,7,7,0,0,0-7-7A6.89,6.89,0,0,0,219.59,252.36Z"/><path class="cls-2" d="M326.1,317.45c.08-8.33,6.24-16.17,16-16.38a16.32,16.32,0,1,1,.69,32.63A16.3,16.3,0,0,1,326.1,317.45Zm16.32,6.83a6.9,6.9,0,0,0,7-6.78,6.94,6.94,0,1,0-13.87-.22A6.83,6.83,0,0,0,342.42,324.28Z"/><path class="cls-2" d="M172.86,268.71c-8.72.42-16.54-7.45-16.35-16.51a16.36,16.36,0,1,1,32.7.89C189,261.45,181.57,269.08,172.86,268.71Zm0-9.33a7,7,0,0,0,6.92-7,6.89,6.89,0,0,0-6.9-6.84,6.93,6.93,0,1,0,0,13.85Z"/><path class="cls-2" d="M122.14,268.71a16.29,16.29,0,1,1,16.37-16.26C138.55,262.08,130.29,269.15,122.14,268.71Zm0-9.33a6.92,6.92,0,0,0,7-6.84,6.84,6.84,0,0,0-6.93-7,6.93,6.93,0,1,0,0,13.85Z"/><path class="cls-2" d="M391.66,333.61c-8.2.44-16.35-6.75-16.26-16.33a16.35,16.35,0,1,1,32.7.69C407.84,326.41,400.26,334.15,391.66,333.61Zm0-9.33a6.92,6.92,0,1,0-6.87-6.88A6.77,6.77,0,0,0,391.7,324.28Z"/><path class="cls-2" d="M306.9,317.38a16.33,16.33,0,1,1-15.77-16.31A16.18,16.18,0,0,1,306.9,317.38Zm-16.29,6.9a6.92,6.92,0,0,0,.07-13.84,6.92,6.92,0,1,0-.07,13.84Z"/><path class="cls-2" d="M274,287.91a16.33,16.33,0,1,1-16.29-16.4A16,16,0,0,1,274,287.91Zm-23.28-.13a6.94,6.94,0,0,0,6.85,7,6.81,6.81,0,0,0,7.07-6.86,7,7,0,0,0-6.71-7A7.1,7.1,0,0,0,250.73,287.78Z"/></svg>