<?xml version="1.0" encoding="utf-8"?>
<!-- Generator: Adobe Illustrator 24.0.3, SVG Export Plug-In . SVG Version: 6.00 Build 0)  -->
<svg version="1.1" id="Layer_1" xmlns="http://www.w3.org/2000/svg" xmlns:xlink="http://www.w3.org/1999/xlink" x="0px" y="0px"
	 viewBox="0 0 500 500" style="enable-background:new 0 0 500 500;" xml:space="preserve">
<style type="text/css">
	.st0{fill:#AECB8D;}
	.st1{fill:#A7C87E;}
	.st2{fill:none;stroke:#AECB8D;stroke-width:2;stroke-miterlimit:10;}
	.st3{fill:#FFFFFF;}
	.st4{fill:none;stroke:#A7C87E;stroke-width:3;stroke-miterlimit:10;}
	.st5{fill:none;stroke:#A7C87E;stroke-width:2;stroke-miterlimit:10;}
	.st6{fill:none;stroke:#A7C87E;stroke-width:2;stroke-miterlimit:10;stroke-dasharray:5.9695,5.9695;}
	.st7{fill:none;stroke:#FFFFFF;stroke-linecap:round;stroke-miterlimit:10;}
	.st8{fill:none;stroke:#A7C87E;stroke-width:5;stroke-miterlimit:10;}
	.st9{fill:none;stroke:#A7C87E;stroke-miterlimit:10;}
	.st10{fill:none;stroke:#A7C87E;stroke-width:10;stroke-miterlimit:10;}
	.st11{fill:url(#);}
	.st12{fill:#A7C87E;stroke:#A7C87E;stroke-width:0.25;stroke-miterlimit:10;}
	.st13{fill:#FFFFFF;stroke:#FFFFFF;stroke-width:0.25;stroke-miterlimit:10;}
	.st14{fill:none;stroke:#A7C87E;stroke-width:0.25;stroke-miterlimit:10;}
</style>
<g>
	<path class="st0" d="M250.2,18.8c31.2,0,61.4,6.1,89.9,18.1c27.5,11.6,52.2,28.3,73.4,49.5s37.9,45.9,49.5,73.4
		c12,28.5,18.1,58.7,18.1,89.9c0,31.2-6.1,61.4-18.1,89.9c-11.6,27.5-28.3,52.2-49.5,73.4c-21.2,21.2-45.9,37.9-73.4,49.5
		c-28.5,12-58.7,18.1-89.9,18.1s-61.4-6.1-89.9-18.1c-27.5-11.6-52.2-28.3-73.4-49.5c-21.2-21.2-37.9-45.9-49.5-73.4
		c-12-28.5-18.1-58.7-18.1-89.9c0-31.2,6.1-61.4,18.1-89.9c11.6-27.5,28.3-52.2,49.5-73.4s45.9-37.9,73.4-49.5
		C188.8,24.9,219,18.8,250.2,18.8 M250.2,8.8C117.1,8.8,9.3,116.6,9.3,249.7s107.9,240.9,240.9,240.9s240.9-107.9,240.9-240.9
		S383.3,8.8,250.2,8.8L250.2,8.8z"/>
</g>
<g>
	<path class="st1" d="M348.8,422.7c-0.1-0.1-0.2-0.2-0.3-0.2c-0.2-0.1-0.5-0.2-0.8-0.3c-2-0.6-3.7-1.7-5-3.3c-1-1.2-2-2.4-3-3.6
		c-6.5-7.8-12.9-15.5-19.4-23.3c-3.7-4.5-7.5-9-11.2-13.5c-0.2-0.2-0.4-0.5-0.6-0.7c-1.7-2.1-2.5-4.6-2.2-7.3
		c0.2-2.6,1.3-4.8,3.2-6.5c0.3-0.3,0.6-0.5,0.9-0.8c0.1-0.1,0.2-0.3,0.3-0.4c-0.3-0.5-0.6-0.9-1-1.3c-0.6-0.8-1.3-1.6-1.9-2.4
		c-0.1-0.1-0.3-0.2-0.5-0.1c-0.3,0.2-0.7,0.4-1,0.6c-6,3.8-12.4,6.5-19.3,8.1c-2.3,0.5-4.6,0.9-6.9,1.2c-2.1,0.2-4.2,0.4-6.4,0.4
		c-1.4,0-2.7,0-4.1-0.1c-1.3-0.1-2.6-0.2-4-0.3c-2.3-0.3-4.6-0.6-6.9-1.2c-8.1-1.9-15.5-5.2-22.2-10.1
		c-11.6-8.4-19.4-19.4-23.6-33.1c-1-3.2-1.6-6.4-2-9.7c-0.5-3.8-0.6-7.7-0.4-11.5c1-15.1,6.6-28.3,17-39.4
		c4.8-5.1,10.4-9.3,16.7-12.5c4.9-2.5,10-4.3,15.3-5.5c2.7-0.6,5.4-1,8.1-1.2c2.2-0.2,4.5-0.3,6.8-0.2c0.5,0,1,0,1.5,0.1
		c3.2,0.1,6.4,0.5,9.6,1.2c3.1,0.6,6.1,1.5,9,2.6c0.5,0.2,0.9,0.3,1.4,0.5c2,1,3.1,2.7,3.1,4.9c0.1,2.7-1.6,4.7-3.9,5.4
		c-1.2,0.4-2.4,0.3-3.6-0.1c-1.2-0.4-2.3-0.8-3.5-1.2c-2.8-0.9-5.7-1.5-8.7-1.9c-2.6-0.3-5.2-0.5-7.8-0.4
		c-15,0.5-28.3,7.2-37.6,17.9c-5.3,6.1-8.9,13.1-10.9,20.9c-0.6,2.3-1,4.7-1.3,7c-0.4,3.3-0.4,6.5-0.1,9.8c0.4,4.9,1.5,9.6,3.2,14.2
		c2.4,6.3,6,11.9,10.6,16.8c6.6,7,14.6,11.8,23.9,14.3c2.1,0.6,4.2,1,6.4,1.3c3.3,0.5,6.6,0.6,9.9,0.4c7.9-0.5,15.4-2.6,22.3-6.6
		c11.3-6.5,19.2-16,23.5-28.4c1-2.8,1.6-5.6,2.1-8.5c0.4-2.6,0.6-5.2,0.6-7.8c0-5.3-0.8-10.4-2.3-15.4c-0.3-0.8-0.4-1.6-0.4-2.5
		c0-2,1.5-4.5,4.4-5.2c2.6-0.6,5.4,0.9,6.3,3.6c0.4,1.3,0.8,2.6,1.2,3.9c0.7,2.8,1.2,5.7,1.6,8.6c0.4,3.6,0.5,7.2,0.3,10.7
		c-1,15.1-6.8,28.3-17.2,39.3c-0.4,0.5-0.9,0.9-1.3,1.3c-0.1,0.1-0.2,0.3-0.3,0.4c0.1,0.2,0.1,0.3,0.2,0.4c0.9,1.1,1.7,2.1,2.6,3.2
		c0.1,0.1,0.1,0.1,0.2,0.1c0.4-0.1,0.6-0.3,0.9-0.5c1-0.7,2.1-1.2,3.4-1.5c3.7-0.8,6.9,0,9.6,2.7c0.3,0.3,0.7,0.7,1,1.1
		c11,13.2,22,26.5,33,39.7c0.3,0.4,0.6,0.7,0.9,1.1c0.6,0.7,1,1.5,1.4,2.4c0.2,0.6,0.4,1.2,0.4,1.8c0,0.5,0.1,1,0.3,1.4
		c0,0.4,0,0.7,0,1.1c-0.1,0.6-0.3,1.1-0.3,1.7c0,0.5-0.2,1-0.3,1.4c-0.6,1.7-1.6,3.1-3,4.3c-3.2,2.6-6.4,5.3-9.5,7.9
		c-1.1,0.9-2.3,1.6-3.7,2c-0.4,0.1-0.9,0.2-1.2,0.5C351.1,422.7,350,422.7,348.8,422.7z M317.9,371.6c0.1,0.1,0.2,0.3,0.3,0.4
		c0.3,0.3,0.6,0.7,0.8,1c3.4,4.1,6.8,8.2,10.2,12.2c6.9,8.3,13.8,16.6,20.7,24.9c0.2,0.2,0.3,0.4,0.5,0.6c0.1,0.1,0.2,0.1,0.4,0.2
		c0.3-0.2,0.6-0.5,0.9-0.7c1-0.8,2-1.7,3.1-2.5c1.2-1,2.3-1.9,3.5-2.9c0.2-0.2,0.4-0.3,0.5-0.6c-0.5-0.7-1-1.3-1.6-1.9
		c-5.1-6.2-10.3-12.4-15.4-18.6c-5-6-9.9-11.9-14.9-17.9c-0.3-0.3-0.5-0.6-0.8-0.9c0,0-0.2,0-0.2,0c-0.1,0-0.2,0.1-0.2,0.1
		c-2.5,2.1-5,4.1-7.4,6.2C318.1,371.4,318,371.5,317.9,371.6z"/>
	<path class="st1" d="M125.9,129.2c0.2-0.2,0.4-0.4,0.5-0.8c0-0.2,0.1-0.4,0.1-0.6c0.7-2.3,2.2-3.8,4.5-4.5c0.3-0.1,0.6-0.2,0.9-0.2
		c0.6-0.1,1.2-0.1,1.9-0.1c9.9,0,19.7,0,29.6,0c0.6,0,1.2,0,1.7,0.1c2.3,0.3,4.4,2.3,4.6,4.8c0.2,1.9-0.4,3.5-1.8,4.8
		c-0.9,0.8-2,1.3-3.2,1.4c-0.5,0-1.1,0-1.6,0c-7.9,0-15.8,0-23.8,0c-0.4,0-0.8,0-1.2,0c-0.7,0-0.8,0.1-0.8,0.8c0,0.2,0,0.4,0,0.7
		c0,0.3,0,0.6,0,0.9c0,80.9,0,161.7,0,242.6c0,0.7-0.2,1.5,0.2,2.2c0.7,0.2,1.4,0.1,2.1,0.1c35.4,0,70.9,0,106.3,0
		c0.5,0,1.1,0,1.6,0c0.7,0,1.4,0.2,2.1,0.4c2.4,0.9,3.6,3.3,3.4,5.5c-0.2,2.4-1.8,4.4-4.1,5c-0.5,0.1-1,0.2-1.4,0.2
		c-0.4,0-0.7,0-1.1,0c-37.5,0-75,0-112.5,0c-0.8,0-1.6,0-2.4-0.2c-2.6-0.6-4.2-2.3-5-4.8c0-0.2-0.1-0.3-0.1-0.5
		c-0.1-0.3-0.2-0.5-0.5-0.6C125.9,300.6,125.9,214.9,125.9,129.2z"/>
	<path class="st1" d="M235.5,80.1c0.2,0.1,0.3,0.1,0.5,0.2c0.4,0,0.8,0.1,1.2,0.1c3.8,0.1,7.3,1,10.8,2.5c9.1,3.9,16,11.7,18.7,21
		c0.8,2.9,1.3,5.9,1.3,8.9c0,0.5,0,1,0,1.4c0.3,0.3,0.7,0.4,1,0.4c1.9,0.4,3.7,0.9,5.5,1.6c9.7,3.8,17.1,12.1,19.7,22.1
		c0.7,2.8,1.2,5.7,1.1,8.7c-0.1,2.3-1.2,3.9-3.3,4.9c-2.9,1.3-6.4-0.2-7.5-3.5c-0.2-0.5-0.2-1-0.2-1.6c0-0.5,0-1-0.1-1.5
		c-0.3-4.7-1.9-8.8-4.9-12.4c-3.1-3.7-7-6.2-11.7-7.4c-1.6-0.4-3.3-0.6-5-0.6c-0.4,0-0.8,0-1.2,0c-2.8-0.1-5.2-2.4-5.2-5.3
		c0-0.5,0-1.1,0.1-1.6c0.4-1.6,0.5-3.1,0.6-4.7c0-1.1-0.1-2.3-0.2-3.4c-0.6-4.3-2.4-8-5.2-11.3c-3.2-3.6-7.2-5.9-11.9-6.9
		c-1.7-0.4-3.4-0.5-5.1-0.5c-5.5,0.3-10.3,2.3-14.3,6.1c-3.2,3-5.2,6.7-6.2,10.9c-0.5,2-0.6,4-0.5,6.1c0.1,1.2,0.2,2.5,0.5,3.7
		c0.2,1,0.3,2.1-0.1,3.1c-0.7,2.3-2.7,3.7-5.1,3.8c-0.3,0-0.6,0-0.9,0c-9.7,0-17.9,6.4-20.7,15c-0.4,1.3-0.3,1.3,0.9,1.3
		c0.6,0,1.2,0,1.9,0c17.4,0,34.9,0,52.3,0c0.7,0,1.4,0,2.1,0.1c2.5,0.5,4.2,2.8,4.3,5.1c0.1,2.6-1.5,4.6-3.2,5.3
		c-0.7,0.3-1.3,0.5-2.1,0.5c-0.4,0-0.7,0-1.1,0c-20.3,0-40.6,0-60.9,0c-0.4,0-0.7,0-1.1,0c-2-0.1-4.5-1.4-5.2-4.4
		c-0.1-0.4-0.1-0.8-0.1-1.2c-0.1-3.8,0.6-7.6,1.9-11.2c3.5-9.7,11.2-16.7,19.7-19.7c1.5-0.5,3-1,4.6-1.3c0.3-0.1,0.6-0.2,0.8-0.2
		c0.2-0.2,0.2-0.4,0.2-0.5c0-0.6,0-1.2,0-1.9c0.3-8.4,3.4-15.7,9.2-21.7c4.2-4.4,9.3-7.4,15.2-9c2-0.5,4-0.9,6-1c0.5,0,1,0,1.5-0.1
		c0.2,0,0.3-0.1,0.5-0.2C234.9,80.1,235.2,80.1,235.5,80.1z"/>
	<path class="st1" d="M247.4,299.1c1.4,0,2.6,0.5,3.7,1.4c0.4,0.3,0.7,0.6,1.1,1c6.2,5.7,12.4,11.5,18.6,17.2c0.3,0.3,0.7,0.6,1,0.9
		c0.7,0.6,0.8,0.6,1.3-0.1c0.2-0.2,0.3-0.4,0.5-0.6c16.1-18.9,32.1-37.8,48.2-56.7c3.1-3.6,6.2-7.3,9.3-10.9
		c0.2-0.3,0.5-0.5,0.7-0.8c2.5-2.6,7-2.2,8.8,1.2c1,2,0.9,3.9-0.3,5.8c-0.3,0.4-0.7,0.8-1,1.2c-4.2,5-8.5,10-12.7,15
		c-8.3,9.8-16.7,19.6-25,29.4c-8,9.4-16,18.9-24.1,28.3c-0.3,0.3-0.5,0.6-0.8,0.9c-0.7,0.7-1.6,1.1-2.5,1.4c-1.7,0.4-3.2,0-4.6-1
		c-0.3-0.2-0.5-0.5-0.8-0.7c-7-6.4-14-12.9-21-19.3c-1.2-1.1-2.4-2.2-3.6-3.3c-0.3-0.2-0.5-0.5-0.8-0.7c-2.8-3.1-1.4-7.9,2.6-9.1
		C246.4,299.2,246.9,299.2,247.4,299.1z"/>
	<path class="st1" d="M235.1,185.5c21.2,0,42.5,0,63.7,0c0.5,0,1,0,1.5,0c2.4,0.1,4.7,1.7,5.2,4.5c0.6,2.9-1.1,5.3-3.3,6.2
		c-0.6,0.3-1.3,0.4-1.9,0.4c-0.4,0-0.7,0-1.1,0c-42.7,0-85.4,0-128.2,0c-0.8,0-1.5,0-2.2-0.2c-2.7-0.7-4.1-3.1-4.1-4.9
		c-0.1-2.3,0.8-4,2.8-5.2c0.8-0.5,1.6-0.7,2.5-0.7c0.5,0,1,0,1.5,0C192.6,185.5,213.8,185.5,235.1,185.5z"/>
	<path class="st1" d="M342.7,177.4c0,15.5,0,31.1,0,46.6c0,0.5,0,1.1,0,1.6c-0.1,2.5-2,4.6-4.4,5c-3.2,0.6-5.6-1.3-6.4-3.7
		c-0.1-0.5-0.2-1-0.2-1.4c0-0.6,0-1.2,0-1.9c0-29.1,0-58.2,0-87.3c0-0.6,0-1.1,0-1.7c0-0.2-0.2-0.4-0.4-0.4c-0.4,0-0.9,0-1.3,0
		c-7.3,0-14.7,0-22,0c-0.5,0-1.1,0-1.6,0c-2.5-0.1-4.9-2.3-5-5.1c-0.2-2.8,1.7-5,3.8-5.6c0.3-0.1,0.6-0.2,0.9-0.2
		c0.6-0.1,1.1-0.1,1.7-0.1c9.2,0,18.4,0,27.6,0c0.6,0,1.1,0,1.7,0.1c2.9,0.2,5.5,2.7,5.7,5.9c0,0.6,0,1.1,0,1.7
		C342.7,146.3,342.7,161.8,342.7,177.4z"/>
	<path class="st1" d="M193.1,247.4c-7.3,0-14.6,0-21.9,0c-0.4,0-0.9,0-1.3,0c-2.7-0.1-4.7-2-5.2-4.2c-0.7-3,1.1-5.9,3.9-6.6
		c0.6-0.2,1.1-0.3,1.7-0.2c0.3,0,0.5,0,0.8,0c14.6,0,29.3,0,43.9,0c0.8,0,1.5,0,2.2,0.2c2.4,0.5,3.9,2.6,4.2,4.5
		c0.5,2.9-1.5,6.2-5.1,6.4c-0.4,0-0.9,0-1.3,0C207.7,247.4,200.4,247.4,193.1,247.4z"/>
	<path class="st1" d="M182.1,349.7c-3.8,0-7.5,0-11.3,0c-0.8,0-1.5,0-2.2-0.3c-2.3-0.8-3.9-3-3.7-5.7c0.2-2.6,2.3-4.6,4.4-5
		c0.5-0.1,1.1-0.1,1.6-0.1c3.5,0,7.1,0,10.6,0c3.9,0,7.8,0,11.7,0c0.5,0,1.1,0,1.6,0.1c2.7,0.5,4.6,3,4.5,5.7
		c-0.2,3.2-2.8,5.2-5.4,5.2c-0.5,0-1,0-1.5,0C189,349.7,185.5,349.7,182.1,349.7z"/>
	<path class="st1" d="M176.2,287.8c1.8,0,3.5,0,5.3,0c0.6,0,1.2,0.1,1.8,0.2c2.3,0.5,4.1,2.7,4.2,5.2c0.1,2.6-1.8,5.4-5.2,5.7
		c-0.3,0-0.5,0-0.8,0c-3.5,0-7.1,0-10.6,0c-0.7,0-1.3-0.1-2-0.2c-2.4-0.6-4.1-3-4-5.4c0-2,1.3-4.5,4.1-5.2c0.6-0.2,1.2-0.2,1.8-0.2
		c0,0,0.1,0,0.1,0C172.7,287.8,174.4,287.8,176.2,287.8z"/>
	<path class="st1" d="M243,112c0.1,4.6-3.8,7.9-7.9,7.9c-4,0-7.9-3.3-7.9-7.9c0-3.8,2.9-7.8,7.8-7.9C239.9,104.1,243,108.1,243,112z
		"/>
	<path class="st1" d="M307.7,267.6c-1,0-1.8-0.2-2.7-0.7c-0.7-0.4-1.4-0.9-2-1.5c-1.5-1.6-2-3.4-1.4-5.5c0.6-2,2-3.3,4-3.8
		c1.5-0.4,2.9-0.1,4.2,0.7c0.5,0.3,1,0.7,1.5,1.1c1.6,1.5,2.2,3.4,1.7,5.5c-0.5,2.2-2,3.5-4.2,4
		C308.5,267.6,308.1,267.6,307.7,267.6z"/>
</g>
</svg>
