<svg id="Layer_1" data-name="Layer 1" xmlns="http://www.w3.org/2000/svg" viewBox="0 0 500 500"><defs><style>.cls-1{fill:#aecb8d;}.cls-2{fill:#a7c87e;}</style></defs><path class="cls-1" d="M250.2,18.78a231,231,0,0,1,89.88,443.69A231,231,0,0,1,160.32,36.93,229.43,229.43,0,0,1,250.2,18.78m0-10C117.15,8.78,9.29,116.65,9.29,249.7S117.15,490.62,250.2,490.62,491.12,382.75,491.12,249.7,383.26,8.78,250.2,8.78Z"/><rect class="cls-2" x="196.91" y="383.15" width="105.43" height="7.37"/><path class="cls-2" d="M374.52,226.09,418,172.57a28.86,28.86,0,0,0-2.57-39.16h0a28.87,28.87,0,0,0-39.19-.45L273.14,226.09Z"/><path class="cls-2" d="M242.73,226.09A94.81,94.81,0,0,0,181.38,122L170.8,151.25a94.52,94.52,0,0,0,4.45,74.84Z"/><path class="cls-2" d="M197.6,255a94.54,94.54,0,0,0,30.07,17.68l6.4-17.68Z"/><path class="cls-2" d="M127.32,226.09h43.79l-.39-.79a98.28,98.28,0,0,1-9.35-42.53,94.46,94.46,0,0,0-39.2-5.5l2.19,31A95.2,95.2,0,0,0,127.32,226.09Z"/><rect class="cls-2" x="71.01" y="229.81" width="357.23" height="21.42"/><path class="cls-2" d="M242.85,271.1a1.86,1.86,0,0,0,0,3.72A1.86,1.86,0,0,0,242.85,271.1Z"/><path class="cls-2" d="M80.93,254.8h0A124.34,124.34,0,0,0,205.27,379.14H294A124.34,124.34,0,0,0,418.33,254.8H80.93Zm211.7,43.07a55,55,0,0,1-6.43,5.57,1.6,1.6,0,0,0-.73,1.22,30.43,30.43,0,0,1-5.34,14.62c-5.53,7.86-13,12.5-22.68,13.36-1.12.1-2.24.16-3.36.16-.55,0-.79.21-.79.77,0,2.59,0,5.19,0,7.78,0,.65.36.75.9.77,1.93.06,3.85-.16,5.79,0a12.37,12.37,0,0,1,11.3,10.7,5.66,5.66,0,0,1,.07,2,1.86,1.86,0,0,1-1.93,1.56,1.68,1.68,0,0,1-1.78-1.67,8.77,8.77,0,0,0-2-5.12,7.39,7.39,0,0,0-4.93-2.58c-2.12-.24-4.24-.16-6.36-.19-.77,0-1,.25-1,1q0,3.93,0,7.86c0,.79.28,1,1,1a19.25,19.25,0,0,1,4.29.16,6.86,6.86,0,0,1,5.17,6.26c0,1.28-.36,1.66-1.68,1.66h-25c-1.27,0-1.73-.52-1.64-1.8a6.93,6.93,0,0,1,6.57-6.29c1,0,2.06,0,3.09,0,.6,0,.84-.24.83-.84q0-4.11,0-8.24c0-.69-.35-.83-.94-.82-1.87,0-3.75,0-5.62,0a12.33,12.33,0,0,1-8.6-3.11A10.77,10.77,0,0,1,234.36,326a18.05,18.05,0,0,1,6.71-1.06c1.34,0,2.68,0,4,0,.44,0,.82-.07.85-.63.14-2.58-.11-5-1.8-7.18a8.2,8.2,0,0,0-5.14-3,63.68,63.68,0,0,1-17.76-5.7,54.22,54.22,0,0,1-11.85-8c-1-.85-1.87-1.75-2.8-2.63a2.34,2.34,0,0,1,1.71-4.18h63.78c.39,0,.92.2,1.14-.16s-.22-.73-.42-1.06c-3.13-5-7.75-8-13.34-9.62a25.49,25.49,0,0,0-7.22-.95c-3.4,0-6.8,0-10.2,0a6.5,6.5,0,0,1-6.51-4.28c-.33-.81-.83-.89-2.13-.62a9,9,0,0,1-3.83-.07,2.23,2.23,0,0,0-1.73.31c-2,1.18-4,2.35-6.09,3.5a1.49,1.49,0,0,1-2.37-.88,1.55,1.55,0,0,1,.92-1.68c1.32-.77,2.64-1.55,4-2.3.6-.33.68-.54,0-.9-1.31-.73-2.6-1.49-3.89-2.25-1-.62-1.32-1.47-.84-2.25s1.34-.86,2.32-.3c1.75,1,3.51,2,5.25,3a5.68,5.68,0,0,0,3,.79h4.38c.43,0,.81-.05,1-.54l.09-.26a6.23,6.23,0,0,1,5.89-4h12.34a30,30,0,0,1,8.11,1.08,18.05,18.05,0,0,1,1.76.57c10.35,3.92,17.35,11,20.62,21.67.27.89.64,1.28,1.61,1.23,1.65-.08,3.31,0,5,0a2.38,2.38,0,0,1,2.6,1.41A2.5,2.5,0,0,1,292.63,297.87Z"/><path class="cls-2" d="M246,337.5c0-1.28,0-2.56,0-3.84,0-.56-.17-.87-.8-.86-2.12,0-4.24-.06-6.35,0a4.65,4.65,0,1,0,.2,9.29c2,0,4,0,6,0,.73,0,1-.26,1-1C245.92,339.93,246,338.71,246,337.5Z"/><path class="cls-2" d="M260.7,314a8.37,8.37,0,0,0-7.4,8.79c0,2.29,0,2.31,2.29,2a22.34,22.34,0,0,0,14.26-7.29,21.76,21.76,0,0,0,4.49-7.4c-.47.17-.77.26-1,.37A64.11,64.11,0,0,1,260.7,314Z"/></svg>