<?xml version="1.0" encoding="utf-8"?>
<!-- Generator: Adobe Illustrator 24.0.3, SVG Export Plug-In . SVG Version: 6.00 Build 0)  -->
<svg version="1.1" id="Layer_1" xmlns="http://www.w3.org/2000/svg" xmlns:xlink="http://www.w3.org/1999/xlink" x="0px" y="0px"
	 viewBox="0 0 500 500" style="enable-background:new 0 0 500 500;" xml:space="preserve">
<style type="text/css">
	.st0{fill:#AECB8D;}
	.st1{fill:#A7C87E;}
	.st2{fill:none;stroke:#AECB8D;stroke-width:2;stroke-miterlimit:10;}
	.st3{fill:#FFFFFF;}
	.st4{fill:none;stroke:#A7C87E;stroke-width:3;stroke-miterlimit:10;}
	.st5{fill:none;stroke:#A7C87E;stroke-width:2;stroke-miterlimit:10;}
	.st6{fill:none;stroke:#A7C87E;stroke-width:2;stroke-miterlimit:10;stroke-dasharray:5.9695,5.9695;}
	.st7{fill:none;stroke:#FFFFFF;stroke-linecap:round;stroke-miterlimit:10;}
	.st8{fill:none;stroke:#A7C87E;stroke-width:5;stroke-miterlimit:10;}
	.st9{fill:none;stroke:#A7C87E;stroke-miterlimit:10;}
	.st10{fill:none;stroke:#A7C87E;stroke-width:10;stroke-miterlimit:10;}
	.st11{fill:url(#);}
	.st12{fill:#A7C87E;stroke:#A7C87E;stroke-width:0.25;stroke-miterlimit:10;}
	.st13{fill:#FFFFFF;stroke:#FFFFFF;stroke-width:0.25;stroke-miterlimit:10;}
	.st14{fill:none;stroke:#A7C87E;stroke-width:0.25;stroke-miterlimit:10;}
</style>
<g>
	<path class="st0" d="M250.2,18.8c31.2,0,61.4,6.1,89.9,18.1c27.5,11.6,52.2,28.3,73.4,49.5s37.9,45.9,49.5,73.4
		c12,28.5,18.1,58.7,18.1,89.9s-6.1,61.4-18.1,89.9c-11.6,27.5-28.3,52.2-49.5,73.4s-45.9,37.9-73.4,49.5
		c-28.5,12-58.7,18.1-89.9,18.1s-61.4-6.1-89.9-18.1c-27.5-11.6-52.2-28.3-73.4-49.5s-37.9-45.9-49.5-73.4
		c-12-28.5-18.1-58.7-18.1-89.9s6.1-61.4,18.1-89.9c11.6-27.5,28.3-52.2,49.5-73.4s45.9-37.9,73.4-49.5
		C188.8,24.9,219,18.8,250.2,18.8 M250.2,8.8C117.1,8.8,9.3,116.6,9.3,249.7s107.9,240.9,240.9,240.9s240.9-107.9,240.9-240.9
		S383.3,8.8,250.2,8.8L250.2,8.8z"/>
</g>
<g>
	<path class="st1" d="M144.8,370.2c0-80.1,0-160.3,0-240.4c0.1-1,0.2-2,0.4-3c1.3-7.4,5-13.6,11-18.1c4.7-3.6,10-5.8,16-5.8
		c52,0,104.1,0,156.1,0c0.7,0,1.4,0,2,0.1c7.3,1.2,13.5,4.4,18.3,10.1c4.3,5.1,6.7,11,6.7,17.7c0,79.3,0,158.6,0,237.9
		c0,1.6,0,3.2-0.3,4.9c-1.3,7.2-4.8,13-10.5,17.6c-4.3,3.5-9.2,5.3-14.6,6.2c-53.2,0-106.4,0-159.6,0c-0.9-0.2-1.8-0.3-2.8-0.5
		c-9.5-2.3-16.3-7.9-20.4-16.7C145.7,376.9,145.1,373.6,144.8,370.2z M349.7,250.2c0-39.4,0-78.9,0-118.3c0-5.2-1.5-9.8-4.6-13.9
		c-4.3-5.8-10.1-9.5-17.5-9.5c-51.7-0.1-103.4-0.1-155.1,0c-5.2,0-9.7,2-13.6,5.4c-6.1,5.2-8.7,11.9-8.7,19.8
		c0,77.8,0,155.5,0,233.3c0,5,1,9.7,3.8,13.9c4.5,6.9,11,11,19.2,11c51.2,0.1,102.5,0.1,153.7,0.1c0.6,0,1.3,0,1.9-0.1
		c6.2-1,11.4-3.6,15.4-8.5c3.3-4.1,5.3-8.7,5.3-14C349.7,329.6,349.7,289.9,349.7,250.2z"/>
	<path class="st1" d="M303.1,265.9c-6.1,0-12.3,0-18.4,0c-8,0-14.8-7.4-14.8-14.8c0-4.3,0.9-8.1,3.7-11.3c2.5-2.9,5.7-4.6,9.4-5.3
		c2.2-0.4,4.5-0.3,6.7-0.3c10,0,20.1,0,30.1,0c3.6,0,7,0.9,10.1,3c7,4.9,8.7,15.6,3.4,22.4c-3.2,4.2-7.4,6.4-12.9,6.3
		C314.6,265.8,308.9,265.9,303.1,265.9z M305.7,250c0,2.8,0,5.7,0,8.5c0,1.4,0.4,1.9,1.8,1.8c4.4-0.1,8.8,0,13.2,0
		c5.2,0,9.9-4.6,10-9.8c0.1-5.9-4.7-10.7-10.9-10.8c-4.1,0-8.2,0-12.3,0c-1.3,0-1.9,0.4-1.9,1.8C305.8,244.3,305.7,247.1,305.7,250z
		 M300.1,250.1c0-2.9,0-5.8,0-8.7c0-1.3-0.5-1.8-1.8-1.7c-4,0.1-8.1,0-12.1,0c-2,0-3.9,0.5-5.7,1.5c-4.2,2.4-5.8,6.8-4.9,11.1
		c1,4.6,5.2,7.9,9.9,8c4.3,0,8.5,0,12.8,0c1.4,0,2-0.4,1.9-1.9C300.1,255.6,300.1,252.9,300.1,250.1z"/>
	<path class="st1" d="M197.1,161.1c-5.7,0-11.5-0.2-17.2,0c-8.7,0.4-16.3-7.2-16.1-16c0.1-7.2,5.1-13.7,12.1-15.3
		c1.2-0.3,2.5-0.5,3.7-0.5c11.7,0,23.3,0,35,0c5.5,0,9.9,2.4,13,6.9c6.7,9.7,1,22.9-10.6,24.8c-0.6,0.1-1.2,0.1-1.7,0.1
		C209.2,161.1,203.2,161.1,197.1,161.1z M208.1,155.5c2,0,4.1,0,6.1,0c5.7,0,10.4-4.5,10.5-9.9c0.1-5.8-4.5-10.5-10.3-10.7
		c-4.4-0.1-8.7,0-13.1,0c-1.1,0-1.6,0.4-1.6,1.6c0,5.8,0,11.7,0,17.5c0,1.1,0.4,1.6,1.6,1.6C203.6,155.5,205.8,155.5,208.1,155.5z
		 M194.2,145.4c0-2.9-0.1-5.8,0-8.7c0-1.4-0.5-1.8-1.9-1.8c-4,0.1-8,0-12,0c-2.1,0-4,0.5-5.9,1.6c-4,2.3-5.9,6.9-4.8,11.5
		c1.1,4.3,5.3,7.6,9.7,7.6c4.3,0,8.6,0,12.9,0c1.4,0,1.9-0.5,1.8-1.8C194.1,150.9,194.2,148.2,194.2,145.4z"/>
	<path class="st1" d="M303.1,161.1c-5.7,0-11.5-0.2-17.2,0c-8.6,0.4-16.4-7.3-16.1-16c0.2-7.2,5.2-13.7,12.1-15.3
		c1.4-0.3,2.8-0.5,4.2-0.5c11.3,0,22.7,0,34,0c12,0,19.8,11.8,14.8,22.7c-2.6,5.7-7.3,8.8-13.7,9
		C315.2,161.2,309.1,161.1,303.1,161.1z M305.7,145.2c0,2.8,0,5.7,0,8.5c0,1.4,0.4,1.9,1.8,1.9c4.2-0.1,8.4,0,12.6,0
		c5.8,0,10.6-4.4,10.6-10c0.1-5.7-4.6-10.5-10.4-10.6c-4.3-0.1-8.6,0-12.9,0c-1.3,0-1.7,0.5-1.7,1.8
		C305.8,139.5,305.7,142.4,305.7,145.2z M300.1,145.3c0-2.8,0-5.7,0-8.5c0-1.4-0.4-1.9-1.8-1.8c-4.1,0.1-8.2,0-12.3,0
		c-2.1,0-4,0.6-5.8,1.7c-4.2,2.7-5.6,6.8-4.6,11.1c1.1,4.6,5.3,7.8,9.9,7.8c4.1,0,8.3,0,12.4,0c2.1,0,2.2,0,2.2-2.1
		C300.2,150.7,300.1,148,300.1,145.3z"/>
	<path class="st1" d="M196.9,213.5c-6.1,0-12.2,0-18.3,0c-7.6,0-14.6-7.1-14.8-14.8c-0.1-4.3,0.8-8.1,3.7-11.4
		c2.5-2.9,5.5-4.6,9.2-5.3c1.6-0.3,3.2-0.3,4.9-0.3c10.9,0,21.9,0,32.8,0c5.7,0,10.3,2.4,13.4,7.2c6.4,9.7,0.6,22.8-10.9,24.5
		c-0.6,0.1-1.2,0.1-1.7,0.1C209.1,213.5,203,213.5,196.9,213.5z M199.8,197.6c0,2.8,0.1,5.7,0,8.5c0,1.4,0.5,1.8,1.8,1.8
		c4.4-0.1,8.8,0,13.2,0c5.1,0,9.8-4.6,10-9.7c0.2-6.1-4.4-10.8-10.7-10.9c-4.2-0.1-8.4,0-12.6,0c-1.2,0-1.7,0.4-1.7,1.7
		C199.8,191.8,199.8,194.7,199.8,197.6z M194.2,197.7c0-2.8,0-5.6,0-8.4c0-2,0-2.1-2.2-2.1c-3.9,0-7.8,0-11.7,0
		c-2.1,0-4,0.5-5.8,1.6c-4.2,2.4-5.7,6.7-4.9,11c0.8,4.3,5.2,7.9,9.2,8c4.6,0.1,9.1,0,13.7,0c1.2,0,1.7-0.5,1.7-1.7
		C194.1,203.4,194.2,200.6,194.2,197.7z"/>
	<path class="st1" d="M302.9,213.5c-6.1,0-12.2,0-18.3,0c-7.8,0-14.9-7.4-14.8-14.8c0-4.3,0.8-8.1,3.7-11.4c2.4-2.8,5.5-4.5,9.1-5.2
		c1.6-0.3,3.2-0.3,4.9-0.3c10.9,0,21.9,0,32.8,0c5.5,0,10,2.2,13.2,6.7c6.9,9.7,1.2,23.1-10.5,25c-0.6,0.1-1.2,0.1-1.7,0.1
		C315.1,213.5,309,213.5,302.9,213.5z M305.7,197.6c0,2.8,0,5.7,0,8.5c0,1.4,0.4,1.9,1.8,1.9c4.4-0.1,8.8,0,13.2,0
		c5.2,0,9.9-4.6,10-9.8c0.1-5.9-4.5-10.7-10.7-10.8c-4.2-0.1-8.4,0-12.6,0c-1.3,0-1.7,0.5-1.7,1.8
		C305.8,191.9,305.7,194.7,305.7,197.6z M300.1,197.7c0-2.9,0-5.8,0-8.7c0-1.3-0.5-1.7-1.8-1.7c-4.1,0.1-8.3,0-12.5,0
		c-1.9,0-3.7,0.5-5.4,1.5c-4.4,2.6-5.8,6.7-4.9,11.1c0.9,4.6,5.2,7.9,9.9,8c4.3,0,8.6,0,12.9,0c1.3,0,1.8-0.4,1.8-1.7
		C300.1,203.4,300.1,200.5,300.1,197.7z"/>
	<path class="st1" d="M302.8,370.6c-6.2,0-12.4,0-18.6,0c-7.3,0-14.3-7.1-14.4-14.4c-0.1-3.8,0.4-7.3,2.7-10.4
		c3-3.9,6.7-6.4,11.7-6.6c11.9-0.6,23.7-0.2,35.6-0.2c8.2,0,13.6,4.6,15.7,11c3.1,9.2-2.8,18.9-12.3,20.6c-0.6,0.1-1.2,0.1-1.7,0.1
		C315.3,370.6,309.1,370.6,302.8,370.6z M314.5,365c1.8,0,3.7-0.1,5.5,0c3.4,0.2,6-1.1,8.2-3.6c2.6-3,3.3-6.5,1.8-10.3
		c-1.4-3.6-4.2-5.8-8-6.4c-4.9-0.8-9.9-0.2-14.8-0.4c-1.1,0-1.5,0.4-1.5,1.5c0,5.9,0,11.8,0,17.7c0,1.1,0.5,1.5,1.5,1.5
		C309.7,365,312.1,365,314.5,365z M300.1,354.7c0-2.8-0.1-5.7,0-8.5c0-1.4-0.5-1.8-1.9-1.8c-3.1,0.1-6.2,0.1-9.3,0
		c-2,0-3.9,0.1-5.8,0.5c-4.6,1-8.2,5.4-7.8,10.7c0.3,4.7,4.7,9.3,9.4,9.4c4.5,0,9,0,13.6,0c1.3,0,1.9-0.4,1.9-1.8
		C300.1,360.4,300.1,357.6,300.1,354.7z"/>
	<path class="st1" d="M197.1,265.9c-6.1,0-12.2,0-18.3,0c-7.9,0-14.8-7-15-14.9c-0.1-4.7,1.2-8.7,4.4-12.1c2.3-2.5,5.4-3.9,8.8-4.5
		c2.2-0.4,4.5-0.3,6.7-0.3c10,0,20.1,0,30.1,0c3.6,0,7,0.9,10.1,3.1c7,4.9,8.7,15.5,3.5,22.3c-3.3,4.3-7.6,6.5-13.1,6.4
		C208.6,265.8,202.8,265.9,197.1,265.9z M208.5,260.3c2.1,0,4.2,0,6.3,0c5.2,0,9.9-4.6,10-9.8c0.2-5.8-4.5-10.6-10.6-10.8
		c-4.3-0.1-8.6,0-12.9,0c-1.2,0-1.6,0.5-1.6,1.6c0,5.8,0,11.6,0,17.3c0,1.3,0.5,1.7,1.8,1.7C203.8,260.2,206.1,260.3,208.5,260.3z
		 M194.2,250c0-2.8,0-5.7,0-8.5c0-1.3-0.4-1.9-1.8-1.9c-4,0.1-8.1,0-12.1,0c-2,0-3.9,0.5-5.7,1.5c-4.2,2.4-5.7,6.6-4.9,11
		c0.8,4.3,5,8,9.2,8c4.6,0.1,9.2,0,13.9,0c1.2,0,1.6-0.5,1.6-1.6C194.2,255.8,194.2,252.9,194.2,250z"/>
	<path class="st1" d="M196.9,370.6c-6,0-12,0-18,0c-5.6,0-9.8-2.6-12.6-7.1c-3.7-5.9-3.7-12.1,0.4-17.9c2.7-3.9,6.5-6.2,11.5-6.5
		c11.9-0.7,23.7-0.2,35.6-0.3c8.4,0,14,4.9,16,11.5c2.7,9.1-3.3,18.6-12.5,20.1c-1.6,0.2-3.3,0.1-4.9,0.1
		C207.2,370.6,202.1,370.6,196.9,370.6z M199.8,354.6c0,2.9,0.1,5.8,0,8.7c0,1.4,0.5,1.9,1.8,1.8c4-0.1,8.1-0.1,12.1,0
		c3.5,0.1,6.4-1,8.6-3.7c2.6-3,3.3-6.4,1.8-10.1c-1.5-3.7-4.3-5.9-8.2-6.5c-4.8-0.7-9.6-0.2-14.4-0.3c-1.2,0-1.7,0.4-1.7,1.7
		C199.8,348.9,199.8,351.7,199.8,354.6z M194.2,354.7c0-2.8-0.1-5.7,0-8.5c0-1.4-0.5-1.8-1.9-1.8c-3.1,0.1-6.2,0.1-9.3,0
		c-2,0-3.9,0.1-5.8,0.5c-4.6,1-8.2,5.5-7.8,10.9c0.3,4.5,4.7,9.1,9.2,9.2c4.6,0.1,9.2,0,13.9,0c1.2,0,1.7-0.4,1.7-1.7
		C194.1,360.5,194.2,357.6,194.2,354.7z"/>
	<path class="st1" d="M197.1,318.2c-5.8,0-11.7-0.2-17.5,0c-7.5,0.2-14.3-5.5-15.6-12.9c-1.7-10,5.5-17.8,13.7-18.6
		c1.6-0.2,3.1-0.3,4.7-0.3c10.4,0,20.7,0,31.1,0c3.1,0,6.1,0.5,8.9,2.2c6,3.6,8.5,9.1,7.9,15.9c-0.6,6.3-5.4,11.6-11.6,13.2
		c-1,0.3-2,0.4-3.1,0.4C209.4,318.2,203.2,318.2,197.1,318.2z M199.8,302.2c0,2.9,0,5.9,0,8.8c0,1.1,0.3,1.7,1.5,1.6
		c4.8,0,9.6,0.1,14.3-0.1c5.9-0.2,10.6-7.1,8.8-12.7c-1.5-4.8-5.3-7.7-10.6-7.8c-4.1-0.1-8.3,0-12.4,0c-1.2,0-1.7,0.4-1.7,1.7
		C199.8,296.5,199.8,299.4,199.8,302.2z M194.2,302.4c0-2.9,0-5.8,0-8.7c0-1.2-0.4-1.7-1.6-1.7c-4,0-8.1-0.1-12.1,0
		c-6.7,0.2-11.4,4.8-11,11.5c0.3,4.3,4.7,9,9,9.1c4.7,0.1,9.5,0,14.2,0c1.2,0,1.6-0.5,1.6-1.6C194.2,308.2,194.2,305.3,194.2,302.4z
		"/>
	<path class="st1" d="M303.1,318.2c-6,0-12.1-0.1-18.1,0c-7.9,0.2-15.3-7.5-15.2-15.2c0.1-4.5,1.2-8.4,4.3-11.6
		c2.5-2.6,5.6-4.2,9.2-4.7c2.3-0.3,4.6-0.3,6.9-0.3c9.8,0,19.5,0,29.3,0c3,0,5.9,0.6,8.6,2c8.3,4.3,11,15.9,5.3,23.3
		c-3.3,4.3-7.6,6.5-13.1,6.5C314.5,318.2,308.8,318.2,303.1,318.2z M305.7,302.3c0,2.8,0.1,5.7,0,8.5c0,1.5,0.5,1.9,1.9,1.9
		c4.4-0.1,8.8,0,13.2,0c5,0,9.5-4.4,9.9-9.4c0.3-5.1-3.6-10.1-8.5-10.9c-5.1-0.7-10.2-0.2-15.2-0.3c-1.1,0-1.3,0.7-1.3,1.6
		C305.7,296.5,305.7,299.4,305.7,302.3z M300.1,302.5c0-2.9,0-5.9,0-8.8c0-1.1-0.4-1.6-1.6-1.6c-4.1,0-8.2-0.1-12.3,0
		c-7,0.2-11.3,5.1-10.9,11.6c0.3,4.3,4.8,8.9,9.1,9c4.7,0.1,9.4,0,14,0c1.3,0,1.7-0.5,1.6-1.7C300.1,308.1,300.1,305.3,300.1,302.5z
		"/>
	<path class="st1" d="M252.7,269.3c0,2.9-0.2,3.3-2,3.9c-1.4,0.4-2.8-0.2-3.3-1.6c-0.5-1.5-0.5-3-0.1-4.5c0.4-1.4,1.6-2.2,2.9-2
		c1.6,0.2,2.3,1.1,2.4,2.8C252.7,268.4,252.7,268.8,252.7,269.3z"/>
	<path class="st1" d="M252.7,253.5c0,2.9-0.2,3.4-1.9,3.9c-1.5,0.5-2.8-0.2-3.3-1.7c-0.5-1.3-0.4-2.7-0.1-4c0.3-1.6,1.6-2.6,3-2.4
		c1.6,0.2,2.4,1.1,2.4,2.9C252.7,252.6,252.7,253.1,252.7,253.5z"/>
	<path class="st1" d="M252.7,285c0,2.9-0.2,3.4-2.1,3.9c-1.4,0.4-2.7-0.2-3.2-1.5c-0.5-1.5-0.5-3.1-0.1-4.6c0.4-1.4,1.4-2.1,2.8-1.9
		c1.6,0.1,2.4,1.1,2.4,2.7C252.7,284.1,252.7,284.5,252.7,285z"/>
	<path class="st1" d="M252.7,237.7c0,2.9-0.2,3.4-2,4c-1.4,0.4-2.7-0.2-3.2-1.5c-0.5-1.5-0.5-3.1-0.1-4.6c0.4-1.4,1.4-2.1,2.8-1.9
		c1.6,0.1,2.4,1.1,2.4,2.7C252.7,236.7,252.7,237.2,252.7,237.7z"/>
	<path class="st1" d="M252.7,300.8c0,2.9-0.2,3.4-2.1,3.9c-1.4,0.4-2.7-0.2-3.2-1.5c-0.5-1.5-0.5-3.1-0.1-4.6
		c0.4-1.4,1.4-2.1,2.8-1.9c1.6,0.1,2.4,1.1,2.4,2.7C252.7,299.8,252.7,300.3,252.7,300.8z"/>
	<path class="st1" d="M252.7,316.6c0,2.9-0.2,3.4-2,4c-1.4,0.4-2.5-0.1-3-1.3c-0.8-1.8-0.8-3.7,0-5.5c0.5-1.1,1.6-1.6,2.9-1.3
		c1.3,0.3,2.1,1.1,2.1,2.5C252.7,315.5,252.7,316,252.7,316.6z"/>
	<path class="st1" d="M252.7,332.5c0,2.8-0.3,3.3-2,3.8c-1.4,0.4-2.7-0.2-3.2-1.5c-0.6-1.6-0.6-3.2,0-4.8c0.5-1.3,1.5-2,2.9-1.8
		c1.4,0.2,2.2,1.1,2.3,2.5C252.7,331.3,252.7,331.9,252.7,332.5z"/>
	<path class="st1" d="M252.7,221.9c0,2.9-0.2,3.4-1.9,3.9c-1.5,0.5-2.8-0.2-3.3-1.7c-0.5-1.3-0.4-2.7-0.1-4c0.3-1.6,1.6-2.6,3-2.4
		c1.6,0.2,2.4,1.1,2.4,2.9C252.7,221.1,252.7,221.5,252.7,221.9z"/>
	<path class="st1" d="M252.7,206.1c0,2.9-0.3,3.4-2.1,3.9c-1.4,0.4-2.6-0.2-3.2-1.6c-0.5-1.4-0.5-2.9-0.1-4.3c0.4-1.5,1.6-2.4,3-2.2
		c1.6,0.2,2.4,1.1,2.4,2.9C252.7,205.3,252.7,205.7,252.7,206.1z"/>
	<path class="st1" d="M252.7,348.1c0,2.9-0.2,3.4-2,4c-1.4,0.4-2.7-0.2-3.2-1.5c-0.6-1.5-0.5-3.1-0.1-4.6c0.4-1.4,1.4-2.1,2.8-1.9
		c1.6,0.1,2.4,1.1,2.4,2.7C252.7,347.2,252.7,347.6,252.7,348.1z"/>
	<path class="st1" d="M252.7,190.6c0,2.7-0.2,3.2-2,3.7c-1.4,0.4-2.8-0.2-3.3-1.6c-0.5-1.5-0.5-3-0.1-4.5c0.4-1.4,1.6-2.2,2.9-2
		c1.6,0.2,2.3,1.1,2.4,2.8C252.7,189.5,252.7,190,252.7,190.6z"/>
	<path class="st1" d="M252.7,174.6c0,3-0.2,3.4-2,4c-1.4,0.4-2.7-0.2-3.2-1.5c-0.6-1.4-0.5-2.9-0.2-4.3c0.3-1.5,1.6-2.4,2.9-2.3
		c1.6,0.2,2.4,1.1,2.5,2.9C252.7,173.7,252.7,174.1,252.7,174.6z"/>
	<path class="st1" d="M252.7,158.8c0,1.6,0.3,3.3-1.9,3.9c-1.5,0.4-2.9-0.1-3.4-1.6c-0.5-1.4-0.5-2.9-0.1-4.3
		c0.4-1.5,1.6-2.3,2.9-2.1c1.6,0.2,2.4,1.1,2.5,2.9C252.7,157.9,252.7,158.3,252.7,158.8z"/>
	<path class="st1" d="M252.7,143.1c0,2.9-0.2,3.3-2,3.9c-1.4,0.4-2.8-0.2-3.3-1.6c-0.5-1.5-0.5-3-0.1-4.5c0.4-1.4,1.6-2.2,2.9-2
		c1.6,0.2,2.3,1.1,2.4,2.8C252.7,142.1,252.7,142.6,252.7,143.1z"/>
	<path class="st1" d="M252.7,363.9c0,2.9-0.3,3.4-2.1,3.9c-1.4,0.4-2.7-0.2-3.2-1.5c-0.5-1.4-0.5-2.9-0.2-4.3c0.4-1.5,1.6-2.4,3-2.2
		c1.6,0.2,2.4,1.1,2.4,2.9C252.7,363.1,252.7,363.5,252.7,363.9z"/>
	<path class="st1" d="M252.7,127.2c0,3-0.2,3.5-2,4c-1.4,0.4-2.7-0.2-3.2-1.6c-0.5-1.4-0.5-2.9-0.1-4.3c0.4-1.5,1.6-2.3,2.9-2.1
		c1.6,0.2,2.4,1.1,2.5,2.9C252.7,126.4,252.7,126.8,252.7,127.2z"/>
</g>
</svg>
