<?xml version="1.0" encoding="utf-8"?>
<!-- Generator: Adobe Illustrator 24.0.3, SVG Export Plug-In . SVG Version: 6.00 Build 0)  -->
<svg version="1.1" id="Layer_1" xmlns="http://www.w3.org/2000/svg" xmlns:xlink="http://www.w3.org/1999/xlink" x="0px" y="0px"
	 viewBox="0 0 500 500" style="enable-background:new 0 0 500 500;" xml:space="preserve">
<style type="text/css">
	.st0{fill:#AECB8D;}
	.st1{fill:#A7C87E;}
	.st2{fill:none;stroke:#AECB8D;stroke-width:2;stroke-miterlimit:10;}
	.st3{fill:#FFFFFF;}
	.st4{fill:none;stroke:#A7C87E;stroke-width:3;stroke-miterlimit:10;}
	.st5{fill:none;stroke:#A7C87E;stroke-width:2;stroke-miterlimit:10;}
	.st6{fill:none;stroke:#A7C87E;stroke-width:2;stroke-miterlimit:10;stroke-dasharray:5.9695,5.9695;}
	.st7{fill:none;stroke:#FFFFFF;stroke-linecap:round;stroke-miterlimit:10;}
	.st8{fill:none;stroke:#A7C87E;stroke-width:5;stroke-miterlimit:10;}
	.st9{fill:none;stroke:#A7C87E;stroke-miterlimit:10;}
	.st10{fill:none;stroke:#A7C87E;stroke-width:10;stroke-miterlimit:10;}
	.st11{fill:url(#);}
	.st12{fill:#A7C87E;stroke:#A7C87E;stroke-width:0.25;stroke-miterlimit:10;}
	.st13{fill:#FFFFFF;stroke:#FFFFFF;stroke-width:0.25;stroke-miterlimit:10;}
	.st14{fill:none;stroke:#A7C87E;stroke-width:0.25;stroke-miterlimit:10;}
</style>
<g>
	<path class="st0" d="M250.2,18.8c31.2,0,61.4,6.1,89.9,18.1c27.5,11.6,52.2,28.3,73.4,49.5s37.9,45.9,49.5,73.4
		c12,28.5,18.1,58.7,18.1,89.9s-6.1,61.4-18.1,89.9c-11.6,27.5-28.3,52.2-49.5,73.4s-45.9,37.9-73.4,49.5
		c-28.5,12-58.7,18.1-89.9,18.1s-61.4-6.1-89.9-18.1c-27.5-11.6-52.2-28.3-73.4-49.5s-37.9-45.9-49.5-73.4
		c-12-28.5-18.1-58.7-18.1-89.9s6.1-61.4,18.1-89.9c11.6-27.5,28.3-52.2,49.5-73.4s45.9-37.9,73.4-49.5
		C188.8,24.9,219,18.8,250.2,18.8 M250.2,8.8C117.1,8.8,9.3,116.6,9.3,249.7s107.9,240.9,240.9,240.9s240.9-107.9,240.9-240.9
		S383.3,8.8,250.2,8.8L250.2,8.8z"/>
</g>
<g>
	<path class="st1" d="M67.6,208.1c0.1-0.7,0.6-0.9,1.2-0.9c0.3,0,0.5,0,0.8,0c46.3,0,92.7,0,139,0c0.4,0,0.8,0,1.2,0.1
		c0.8,0.1,1.1,0.6,1.1,1.3c0,0.5,0,1-0.1,1.6c-0.3,1.1-0.4,1.2-1.4,1.2c-11.2,0-22.5,0-33.7,0c-33.7,0-67.4,0-101.2,0
		c-0.7,0-1.3,0.1-1.9,0.2c-0.4,0-0.7,0.3-0.8,0.7c-0.1,0.5-0.2,1.1-0.2,1.6c0,24.8,0,49.7,0,74.5c0,0.4,0.1,0.9,0.1,1.3
		c0.1,0.9,0.6,1.1,1.3,1.1c0.3,0,0.6,0,0.9,0c44.9,0,89.8,0,134.7,0c0.3,0,0.6,0,0.9,0c0.8,0.1,1,0.3,1.2,1.2c0.1,0.8,0.2,1.5,0,2.3
		c-0.1,0.4-0.3,0.7-0.7,0.7c-0.6,0.1-1.2,0.2-1.8,0.2c-46.1,0-92.3,0-138.4,0c-0.5,0-0.9,0-1.4-0.1c-0.5-0.1-0.8-0.3-1-0.8
		C67.6,265.5,67.6,236.8,67.6,208.1z"/>
	<path class="st1" d="M195.6,179.7c0.7,0.1,1.3,0.5,1.8,1c15.2,15.2,30.3,30.4,45.5,45.5c0.7,0.7,1,1.4,1,2.3c0,14.9,0,29.7,0,44.6
		c0,1.3-0.4,2.4-1.3,3.2c-15,15-30,30-45,45.1c-0.4,0.5-1,0.8-1.6,1c-0.2,0-0.5,0-0.7,0c-1.8-0.5-2.2-2.1-0.9-3.5
		c7.8-7.8,15.6-15.7,23.5-23.5c0.8-0.7,1.1-1.6,1.1-2.6c0-27.7,0-55.4,0-83.1c0-1.2-0.4-2.2-1.3-3.1c-7.6-7.6-15.2-15.2-22.8-22.8
		c-0.2-0.2-0.5-0.5-0.7-0.8c-1.1-1.5-0.6-2.8,1.2-3.3C195.4,179.7,195.5,179.7,195.6,179.7z M223,250.9c0,12.3,0,24.5,0,36.8
		c0,0.3,0,0.6,0,0.9c0.1,1.1,0.4,1.2,1.3,0.6c0.2-0.1,0.4-0.3,0.5-0.4c5-5,10-10,14.9-14.9c0.7-0.7,1.1-1.6,1.1-2.6
		c0-13.4,0-26.8,0-40.2c0-0.9-0.3-1.6-0.9-2.3c-5.1-5.1-10.3-10.3-15.4-15.4c-0.3-0.3-0.7-0.6-1.2-0.4c-0.5,0.2-0.3,0.7-0.3,1
		C223,226.2,223,238.5,223,250.9z"/>
	<path class="st1" d="M154.7,278.8c-4,0-8-0.1-12.1,0c-2.8,0.1-5.1-0.9-7.1-2.6c-1.9-1.6-2.9-3.7-2.9-6.2c0-2.1,0.6-4,2-5.6
		c1.4-1.4,3.1-2.2,5.1-2.6c1.9-0.3,3.8-0.6,5.8-0.7c0.7,0,1.4,0.2,2.2,0.2c6.7,0,13.4,0,20.2,0c2,0,4,0.5,5.6,1.7
		c2.2,1.6,3.3,3.7,3.4,6.4c0.1,2.1-0.2,4-1.5,5.7c-1.4,1.8-3.2,2.8-5.4,3.4c-0.9,0.2-1.7,0.3-2.6,0.3
		C163.1,278.8,158.9,278.8,154.7,278.8z M154.8,269.1c0-1.5,0-3.1,0-4.6c0-1.2-0.3-1.5-1.5-1.5c-3.9,0-7.9,0-11.8,0
		c-2.3,0-4.3,0.9-5.7,2.8c-1.6,2.3-1.9,4.7-0.7,7.3c0.7,1.6,1.9,2.6,3.3,3.5c0.5,0.3,1,0.5,1.6,0.5c2.8,0.1,5.5-0.1,8.3,0.1
		c1.5,0.1,3,0,4.6,0c0.4,0,0.8-0.1,1.1-0.2c0.4-0.1,0.6-0.4,0.6-0.8c0-1.1,0.1-2.2,0.1-3.2C154.8,271.7,154.8,270.4,154.8,269.1z"/>
	<path class="st1" d="M99.7,278.8c-4.1,0-8.2,0.1-12.4,0c-3.6-0.1-6.4-1.7-8-5c-2-4.1-0.8-10.1,5.3-11.6c2.2-0.6,4.5-0.8,6.8-0.9
		c4.3-0.2,8.6-0.1,12.9-0.1c3.2,0,6.4,0,9.5,0.1c2.5,0.1,4.8,1,6.6,2.8c1.6,1.7,2.5,3.7,2.4,6.1c0,2.4-0.8,4.4-2.6,5.9
		c-1.4,1.3-3.2,1.7-5,2.1c-1.6,0.4-3.3,0.5-5,0.5C106.7,278.7,103.2,278.8,99.7,278.8z M93.3,277.2c1.9,0,3.7,0,5.6,0
		c1.2,0,1.4-0.2,1.6-1.4c0.1-0.8,0.1-1.6,0.1-2.4c0-3,0-6,0-9c0-0.7-0.1-1.3-0.9-1.4c-0.6-0.1-1.2-0.2-1.8-0.2c-3.4,0-6.8,0-10.3,0
		c-0.6,0-1.2,0.1-1.9,0.2c-3.7,0.7-6.4,4.2-5.6,8.2c0.4,2.1,1.4,3.6,3.1,4.8c1.3,0.9,2.8,1.1,4.3,1.1
		C89.5,277.3,91.4,277.2,93.3,277.2z"/>
	<path class="st1" d="M155.3,223.5c4.3,0,8.6,0,12.9,0c2.1,0,3.9,0.8,5.6,1.9c2.1,1.4,2.8,3.5,3.1,5.9c0.1,1.6,0.1,3.1-0.7,4.5
		c-1.4,2.6-3.5,4.2-6.5,4.7c-1.2,0.2-2.4,0.3-3.7,0.3c-8.1,0-16.2,0-24.4,0c-1.8,0-3.7-0.3-5.1-1.4c-2.2-1.7-3.8-3.9-3.8-6.8
		c0-2.5,0.6-4.7,2.5-6.5c1.7-1.6,3.9-2.5,6.3-2.5C146.1,223.5,150.7,223.5,155.3,223.5z M154.8,232.1c0-1.9,0-3.8,0-5.7
		c0-0.7-0.3-1.1-0.9-1.3c-0.9-0.4-1.7-0.2-2.6-0.1c-3.4,0.1-6.7-0.2-10.1,0.1c-4,0.4-7,3.8-6.8,7.9c0.1,1.1,0.2,2.2,0.9,3.1
		c0.9,1.2,2.1,2,3.5,2.5c1.6,0.6,3.3,0.9,5.1,0.9c3.2,0,6.5,0.2,9.7-0.1c0.8-0.1,1.2-0.1,1.2-1.4C154.8,236,154.8,234,154.8,232.1z"
		/>
	<path class="st1" d="M101.1,223.5c4,0,8.1,0.1,12.1,0c2.3-0.1,4.2,0.8,6,1.9c1.9,1.2,3.1,2.9,3.5,5.1c0.5,2.7,0.1,5.3-1.9,7.3
		c-1.1,1.2-2.7,1.9-4.2,2.3c-2.1,0.6-4.2,0.7-6.4,0.9c-2.5,0.2-5,0.2-7.4,0.1c-3.8-0.2-7.6,0.1-11.4-0.2c-2-0.1-4,0-6-0.4
		c-3.8-0.8-6.9-5.3-6.8-8.6c0.1-3.3,1.8-5.5,4.5-7.1c1.7-1,3.5-1.4,5.4-1.4C92.6,223.5,96.9,223.5,101.1,223.5z M100.7,231.6
		c0-1.7,0-3.5,0-5.2c0-0.6-0.2-1-0.7-1.2c-0.7-0.2-1.3-0.5-2-0.3c-1,0.2-2,0.1-3,0.1c-2.7,0.1-5.4-0.2-8.1,0.1
		c-4.4,0.5-7.5,4.5-6.6,8.7c0.3,1.2,0.6,2.5,1.7,3.4c2.2,1.7,4.7,2.1,7.4,2.2c1.8,0.1,3.5,0.3,5.3,0.1c1.6-0.2,3.2,0,4.8-0.2
		c0.5-0.1,0.8-0.2,0.9-0.7c0.2-0.7,0.3-1.4,0.3-2.1C100.7,234.8,100.7,233.2,100.7,231.6z"/>
	<path class="st1" d="M206.6,278.8c-2.4,0-4.8,0-7.2,0c-3.3,0-6-1.3-8-4c-2.3-3.2-1.9-7.6,0.7-10.4c1.4-1.5,3.4-2.2,5.4-2.6
		c3.1-0.6,6.2-0.6,9.3-0.6c2.7,0,5.4,0.2,8.1,0.2c0.9,0,1.3,0.4,1.3,1.5c0,1.8,0,3.5,0,5.3c0,3,0,5.9,0,8.9c0,1.5-0.3,1.8-1.8,1.8
		C211.8,278.8,209.2,278.8,206.6,278.8z M204.5,263c-2.1,0-4.1,0-6.2,0c-1,0-1.9,0.2-2.8,0.6c-2.9,1.4-4.5,4.9-3.7,8.1
		c0.5,2.2,1.8,3.9,3.9,4.8c1.3,0.6,2.7,0.6,4.1,0.7c2.2,0.1,4.5,0,6.7,0c1.4,0,2.7,0,4.1,0c0.7,0,1.2-0.4,1.2-0.9
		c0-0.8,0.1-1.7,0.1-2.5c0-3.1,0-6.3,0-9.4c0-1-0.4-1.4-1.4-1.4C208.6,263,206.6,263,204.5,263z"/>
	<path class="st1" d="M206.7,240.8c-2.5,0-5,0-7.4,0c-2.6,0-5-0.8-6.9-2.7c-2.5-2.4-3.2-5.7-2-9c0.9-2.5,2.8-4.1,5.3-4.8
		c2.6-0.8,5.4-1,8.1-1c1.1,0,2.3,0,3.4,0c2.6-0.1,5.2,0.2,7.8,0.1c0.7,0,1.1,0.4,1.1,1c0,0.2,0,0.4,0,0.6c0,4.7,0,9.4,0,14.1
		c0,1.2-0.4,1.6-1.6,1.6C212,240.8,209.4,240.8,206.7,240.8z M204.2,224.9c-1.9,0-3.8,0-5.7,0c-0.3,0-0.5,0-0.8,0.1
		c-1.1,0.5-2.1,0.9-3.2,1.4c-0.3,0.1-0.6,0.2-0.8,0.5c-1.6,2-2.6,4.2-2,6.8c0.7,2.8,2.5,4.9,5.5,5.5c1.8,0.3,3.7,0.2,5.5,0.3
		c2.5,0.1,5-0.1,7.5-0.1c1.5,0,1.5,0,1.7-1.4c0-0.2,0.1-0.4,0.1-0.6c0-3.6,0-7.3,0-10.9c0-0.7-0.3-1.2-1.1-1.3
		c-0.5-0.1-0.9-0.1-1.4-0.1C207.7,224.9,206,224.9,204.2,224.9z"/>
	<path class="st1" d="M328.4,295.1c-32.9,0-65.8,0-98.7,0c-0.3,0-0.9,0.2-1-0.1c-0.2-0.4,0.2-0.8,0.4-1.1c1.2-1.4,2.6-2.6,3.9-3.8
		c0.1-0.1,0.3-0.2,0.4-0.3c1.7-1.7,3.4-3.3,5.1-5c2.2-2,4.3-4,6.4-6.1c0.3-0.3,0.6-0.5,0.9-0.7c0.7-0.6,1-1.4,1-2.4
		c0-16.2,0-32.3,0-48.5c0-1.1-0.3-1.9-1.1-2.7c-2.5-2.3-4.9-4.7-7.4-7c-2.2-2.1-4.4-4.1-6.5-6.2c-0.9-0.8-1.7-1.6-2.6-2.5
		c-0.3-0.3-0.4-0.5-0.3-0.9c0.1-0.4,0.5-0.4,0.8-0.5c0.2,0,0.5,0,0.7,0c65.6,0,131.1,0,196.7,0c0.1,0,0.3,0,0.4,0
		c1.3,0,1.7,0.4,1.7,1.7c0,28.2,0,56.3,0,84.5c0,1.3-0.3,1.6-1.6,1.7c-0.3,0-0.6,0-0.9,0C394.1,295.1,361.3,295.1,328.4,295.1z
		 M366.6,223.6c-14.5,0-29.1,0-43.6,0c-0.6,0-1.1,0.1-1.6,0.2c-0.4,0.1-0.7,0.3-0.7,0.8c0,1.1-0.1,2.2-0.1,3.3c0,2-0.1,4.1,0.1,6.1
		c0.1,0.6,0.3,1,0.9,1.1c0.5,0.1,1.1,0.1,1.6,0.1c26.2,0,52.3,0,78.5,0c3.1,0,6.1,0.2,9.2-0.1c1-0.1,1.2-0.3,1.2-1.3
		c0-2.7,0-5.4,0-8.2c0-1.9-0.2-2-2.1-2C395.5,223.6,381,223.6,366.6,223.6z M282.1,256.9c0.3-6.1-4.6-9.8-9.4-10
		c-6.7-0.3-10.9,4.5-10.9,9.9c0,5.9,4.4,10.3,10.1,10.2C277.7,267,282.3,263.1,282.1,256.9z M364.1,247.7c15.7,0,31.5,0,47.2,0
		c0.3,0,0.5,0,0.8,0c0.8-0.1,1.2-0.6,1.1-1.4c0-0.7-0.5-1.1-1.3-1.1c-2.9,0.1-5.7-0.2-8.6-0.2c-26.1,0-52.2,0-78.3,0
		c-3,0-5.9,0-8.9,0.1c-0.7,0-1.1,0.3-1.2,1c-0.1,0.7,0.2,1.2,0.9,1.4c0.4,0.1,0.8,0.1,1.1,0.1C332.7,247.7,348.4,247.7,364.1,247.7z
		 M369.5,257.3c-13.2,0-26.5,0-39.7,0c-0.7,0-1.3,0.1-1.9,0.3c-0.7,0.2-0.9,0.7-0.9,1.3c0,0.6,0.5,1,1.1,1.1
		c0.7,0.1,1.5,0.2,2.2,0.2c26.4,0,52.7,0,79.1,0c0.6,0,1.2-0.1,1.7-0.2c0.6-0.1,1-0.5,1-1.2c0-0.6-0.5-1.2-1.1-1.2
		c-0.7,0-1.5-0.2-2.2-0.2C395.8,257.4,382.7,257.3,369.5,257.3z M368.9,283.8c-1-0.6-5.3-0.6-7-0.4c-2.1,0.3-4.3,0.6-6.4,0.8
		c-2.1,0.3-4.2,0.5-6.3,0.8c-2.2,0.3-4.3,0.6-6.5,0.6c-4.5,0.1-9,0.1-13.5-0.7c-3.3-0.6-6.6-1.4-9.8-2.5c-1.9-0.7-3.8-1.4-5.7-2.1
		c-3.8-1.2-7.7-2.1-11.7-2.5c-2.7-0.2-5.3-0.4-8-0.3c-3.1,0.1-6.2,0.3-9.4,0.5c-1.3,0.1-2.6,0.2-3.9,0.3c-1.8,0.2-3.6,0.4-5.4,0.5
		c-1.7,0.2-3.4,0.3-5.1,0.5c-2.1,0.2-4.2,0.5-6.4,0.7c-1.6,0.2-3.2,0.3-4.8,0.5c-2.1,0.2-4.3,0.5-6.4,0.7c-1.2,0.1-2.3,0.3-3.5,0.4
		c-0.3,0-0.6,0.2-0.6,0.6c0,0.3,0.3,0.5,0.5,0.5c1,0,2,0.1,3,0c1.8-0.1,3.6-0.4,5.4-0.5c2.1-0.2,4.2-0.4,6.2-0.6
		c2.1-0.2,4.3-0.5,6.4-0.7c1.6-0.2,3.1-0.3,4.7-0.5c1.8-0.2,3.6-0.4,5.4-0.5c1.4-0.1,2.8-0.2,4.2-0.3c2.6-0.3,5.2-0.4,7.8-0.5
		c3.6-0.1,7.1-0.1,10.7,0.4c3.1,0.4,6.2,1,9.2,2c3.4,1.1,6.7,2.5,10.2,3.5c5.2,1.5,10.5,2.2,15.9,2.4c1.3,0,2.6-0.1,4-0.2
		c1.3,0,2.6-0.2,3.9-0.3c2-0.2,4-0.5,6-0.7c2.1-0.2,4.2-0.5,6.4-0.8c2.5-0.3,5-0.6,7.5-1C366.9,284.1,367.9,284.1,368.9,283.8z
		 M380.4,269.9c-10,0-20,0-29.9,0c-0.3,0-0.7,0-1,0.1c-0.6,0.2-0.8,0.6-0.8,1.2c0,0.5,0.3,1,0.9,1.1c0.8,0.1,1.6,0.2,2.4,0.2
		c17.7,0,35.4,0,53.2,0c1.9,0,3.8,0,5.8-0.1c0.8-0.1,1.3-0.7,1.1-1.5c-0.2-0.9-0.9-0.9-1.5-0.9C400.5,269.9,390.5,269.9,380.4,269.9
		z"/>
</g>
</svg>
