<svg id="Layer_1" data-name="Layer 1" xmlns="http://www.w3.org/2000/svg" viewBox="0 0 500 500"><defs><style>.cls-1{fill:#aecb8d;}.cls-2{fill:#a7c87e;}</style></defs><path class="cls-1" d="M250.2,18.78a231,231,0,0,1,89.88,443.69A231,231,0,0,1,160.32,36.93,229.43,229.43,0,0,1,250.2,18.78m0-10C117.15,8.78,9.29,116.65,9.29,249.7S117.15,490.62,250.2,490.62,491.12,382.75,491.12,249.7,383.26,8.78,250.2,8.78Z"/><path class="cls-2" d="M395.86,331.26a161.74,161.74,0,0,0,21-80.1l-114.79.26a46,46,0,0,1-21.32,37.7c-.77.49-1.55.95-2.34,1.39l59.84,99.81A161.83,161.83,0,0,0,395.86,331.26Z"/><path class="cls-2" d="M234.38,291A46,46,0,0,1,210,253L94.14,258.71A161.84,161.84,0,0,0,179.88,393.6Z"/><path class="cls-2" d="M231.24,211.38a46.06,46.06,0,0,1,45.15-2.47L329.16,106a161.86,161.86,0,0,0-159.69,6.8l61.7,98.6Z"/><circle class="cls-2" cx="256.08" cy="250.19" r="29.22"/></svg>