<?xml version="1.0" encoding="utf-8"?>
<!-- Generator: Adobe Illustrator 24.0.3, SVG Export Plug-In . SVG Version: 6.00 Build 0)  -->
<svg version="1.1" id="Layer_1" xmlns="http://www.w3.org/2000/svg" xmlns:xlink="http://www.w3.org/1999/xlink" x="0px" y="0px"
	 viewBox="0 0 500 500" style="enable-background:new 0 0 500 500;" xml:space="preserve">
<style type="text/css">
	.st0{fill:#AECB8D;}
	.st1{fill:#A7C87E;}
	.st2{fill:none;stroke:#AECB8D;stroke-width:2;stroke-miterlimit:10;}
	.st3{fill:#FFFFFF;}
	.st4{fill:none;stroke:#A7C87E;stroke-width:3;stroke-miterlimit:10;}
	.st5{fill:none;stroke:#A7C87E;stroke-width:2;stroke-miterlimit:10;}
	.st6{fill:none;stroke:#A7C87E;stroke-width:2;stroke-miterlimit:10;stroke-dasharray:5.9695,5.9695;}
	.st7{fill:none;stroke:#FFFFFF;stroke-linecap:round;stroke-miterlimit:10;}
	.st8{fill:none;stroke:#A7C87E;stroke-width:5;stroke-miterlimit:10;}
	.st9{fill:none;stroke:#A7C87E;stroke-miterlimit:10;}
	.st10{fill:none;stroke:#A7C87E;stroke-width:10;stroke-miterlimit:10;}
	.st11{fill:url(#);}
	.st12{fill:#A7C87E;stroke:#A7C87E;stroke-width:0.25;stroke-miterlimit:10;}
	.st13{fill:#FFFFFF;stroke:#FFFFFF;stroke-width:0.25;stroke-miterlimit:10;}
	.st14{fill:none;stroke:#A7C87E;stroke-width:0.25;stroke-miterlimit:10;}
</style>
<g>
	<path class="st0" d="M250.2,18.8c31.2,0,61.4,6.1,89.9,18.1c27.5,11.6,52.2,28.3,73.4,49.5s37.9,45.9,49.5,73.4
		c12,28.5,18.1,58.7,18.1,89.9c0,31.2-6.1,61.4-18.1,89.9c-11.6,27.5-28.3,52.2-49.5,73.4c-21.2,21.2-45.9,37.9-73.4,49.5
		c-28.5,12-58.7,18.1-89.9,18.1s-61.4-6.1-89.9-18.1c-27.5-11.6-52.2-28.3-73.4-49.5c-21.2-21.2-37.9-45.9-49.5-73.4
		c-12-28.5-18.1-58.7-18.1-89.9c0-31.2,6.1-61.4,18.1-89.9c11.6-27.5,28.3-52.2,49.5-73.4s45.9-37.9,73.4-49.5
		C188.8,24.9,219,18.8,250.2,18.8 M250.2,8.8C117.1,8.8,9.3,116.6,9.3,249.7s107.9,240.9,240.9,240.9s240.9-107.9,240.9-240.9
		S383.3,8.8,250.2,8.8L250.2,8.8z"/>
</g>
<g>
	<polygon class="st1" points="394.6,174.8 393.6,172.9 250.2,247.6 111.7,176.7 251.1,112.7 393.7,176.8 394.6,174.8 393.6,172.9 
		394.6,174.8 395.4,172.8 251.1,107.9 101.9,174.8 250.2,252.4 399.5,174.6 395.4,172.8 	"/>
	<polygon class="st1" points="248.5,393.3 249.5,391.3 106.2,318.4 106.2,181.3 246.3,252.7 246.3,393.3 248.5,393.3 249.5,391.3 
		248.5,393.3 250.7,393.3 250.7,250 101.9,174.3 101.9,321 250.7,396.8 250.7,393.3 	"/>
	<polygon class="st1" points="252.8,393.3 253.8,395.2 399.5,321 399.5,174.3 250.7,250 250.7,396.8 253.8,395.2 252.8,393.3 
		255,393.3 255,252.7 395.2,181.3 395.2,318.4 251.9,391.3 252.8,393.3 255,393.3 	"/>
	<g>
		<polyline class="st1" points="184.2,141.5 323.5,215.1 326.7,208.9 187.4,135.4 		"/>
	</g>
</g>
</svg>
