<svg id="Layer_1" data-name="Layer 1" xmlns="http://www.w3.org/2000/svg" viewBox="0 0 500 500"><defs><style>.cls-1{fill:#aecb8d;}.cls-2{fill:#a7c87e;}.cls-3{fill:#fff;}</style></defs><path class="cls-1" d="M250.2,18.78a231,231,0,0,1,89.88,443.69A231,231,0,0,1,160.32,36.93,229.43,229.43,0,0,1,250.2,18.78m0-10C117.15,8.78,9.29,116.65,9.29,249.7S117.15,490.62,250.2,490.62,491.12,382.75,491.12,249.7,383.26,8.78,250.2,8.78Z"/><circle class="cls-2" cx="260.35" cy="244.32" r="53.65"/><path class="cls-2" d="M396,311.52a24.88,24.88,0,1,1-24.87-24.88A24.88,24.88,0,0,1,396,311.52Z"/><path class="cls-2" d="M320.18,127.87a23.26,23.26,0,1,1-23.26-23.26A23.26,23.26,0,0,1,320.18,127.87Z"/><path class="cls-2" d="M245,151a15,15,0,1,1-15-15A15,15,0,0,1,245,151Z"/><circle class="cls-2" cx="204.65" cy="359.24" r="36.57" transform="translate(-192 475.88) rotate(-76.72)"/><circle class="cls-2" cx="377" cy="182.45" r="36.57"/><circle class="cls-2" cx="119.7" cy="151.13" r="36.57" transform="translate(-48.72 57.31) rotate(-22.5)"/><polygon class="cls-2" points="208.37 361.05 263.49 247.34 378.94 186.1 375.06 178.79 257.22 241.3 200.93 357.44 208.37 361.05 208.37 361.05"/><polyline class="cls-2" points="262.64 240.87 121.98 147.68 117.41 154.58 258.07 247.77"/><polyline class="cls-2" points="372.39 309.39 274.95 250.41 272.38 254.65 369.82 313.64"/><polygon class="cls-2" points="381.83 177.38 297.17 125.59 229.29 148.99 230.64 152.91 296.67 130.14 379.68 180.91 381.83 177.38 381.83 177.38"/><path class="cls-3" d="M280.48,281.06a48.58,48.58,0,0,1-18.09,3.52c-12.47,0-24.3-4.92-32.37-13.89a39.87,39.87,0,0,1-8.54-15.34,48.76,48.76,0,0,1-2-13.94,45.82,45.82,0,0,1,.72-8.37,2.07,2.07,0,0,0-4.07-.78,50.58,50.58,0,0,0-.78,9.15,52.59,52.59,0,0,0,2.16,15.13A43.8,43.8,0,0,0,227,273.45c8.92,9.92,21.9,15.26,35.44,15.26a53,53,0,0,0,19.62-3.8,2.07,2.07,0,1,0-1.53-3.85Z"/></svg>