<svg id="Layer_1" data-name="Layer 1" xmlns="http://www.w3.org/2000/svg" viewBox="0 0 200 200"><defs><style>.cls-1{fill:#eaebec;opacity:0.65;}.cls-2{fill:#48afb4;}</style></defs><path class="cls-1" d="M73.24,24.74C43.79,32.94,36,42.05,32.88,46.43c-5.52,7.74-1.1,8.81-6.67,22.05C18.73,86.28,11,86.76,5.83,98.62c-8.25,19.11-.72,44.83,17.64,56.24,14.1,8.76,20.73,6.31,55.65,12.86,25.23,4.74,24.81,10.16,42.33,11,6,.3,38.25,1.26,60-20.58,4.06-4.09,16.63-16.73,16.07-33.08C197.07,113,192.23,113.22,190,99c-3-19.29,6.71-26.12,2-39.7-3.25-9.3-12.09-14.65-29.78-25.36-12.74-7.71-19.11-11.57-28.61-14C117.33,15.86,104.2,16.12,73.24,24.74Z"/><path class="cls-2" d="M74.25,113.29v1.25c0,6.49,0,13,0,19.46a11.37,11.37,0,0,1-2.3,7c-4.74,6.68-9.33,13.47-14,20.22-2.35,3.4-4.69,6.81-7,10.2a8.36,8.36,0,0,1-8.85,3.19,8,8,0,0,1-6-6.62,8.33,8.33,0,0,1,1.51-6.41c6.32-9.09,12.57-18.23,18.86-27.34a2.51,2.51,0,0,0,.38-1.56c0-12.88,0-25.76,0-38.64a25.92,25.92,0,0,1,2.21-10.69,46.84,46.84,0,0,1,6.41-10.24C70.38,66.93,76.16,61.64,82,56.45c3.51-3.1,7-6.2,10.59-9.22a19.57,19.57,0,0,1,13.65-5c3.69.14,7,1.35,9.2,4.52a31.63,31.63,0,0,1,2.47,4.81q6.41,13.52,12.77,27.05c.3.64.75.68,1.33.68q9,0,18,0a6.46,6.46,0,1,1,0,12.91q-11.75.08-23.49,0a6.52,6.52,0,0,1-6.14-4c-3.07-6.4-6.08-12.83-9.11-19.24-.5-1.05-.51-1-1.35-.28A105.75,105.75,0,0,0,95.2,84.43c-2.87,3.92-5.3,8.08-6.34,12.92a17.89,17.89,0,0,0-.26,6.19,4.36,4.36,0,0,0,.74,1.94q8,11.64,16,23.31a10.32,10.32,0,0,1,1.84,6c-.06,10.71-.12,21.42,0,32.12A7.84,7.84,0,0,1,99.13,175a8.12,8.12,0,0,1-8.08-8.25q0-14.15,0-28.27a3,3,0,0,0-.52-1.8q-7.75-11.27-15.48-22.55A2,2,0,0,0,74.25,113.29Z"/><path class="cls-2" d="M134.78,57.22A16.11,16.11,0,1,1,150.88,41,16.13,16.13,0,0,1,134.78,57.22Z"/><path class="cls-2" d="M145.87,166.58a5,5,0,0,0-1.4.76,4.71,4.71,0,0,0-1.55,2.8c0,.23-.07.45-.33.57a.48.48,0,0,0-.21.39,16,16,0,0,0-.46,3.24c0,.31.12.48.42.53a6.79,6.79,0,0,0,2.62,0c.32-.06.41-.24.45-.55a9.3,9.3,0,0,0-.28-2.36c0-.31-.12-.61-.19-.92,0-.09,0-.21-.1-.25-.37-.22-.24-.53-.16-.83a3.11,3.11,0,0,1,.53-1.08,1.34,1.34,0,0,1,.89-.55l3.33-.53a2.14,2.14,0,0,1,.62,0,20,20,0,0,0,3.46-.12c.68,0,1.35-.11,2-.16.33,0,.43.07.31.39a4,4,0,0,0-.16,1.57c0,.29.11.42.4.45a7.55,7.55,0,0,0,2.07,0c.52-.08.57-.17.62-.69a5.22,5.22,0,0,0-.25-1.58c-.12-.52.07-.76.61-.8.84-.05,1.69-.1,2.53-.12,1.16,0,2.31-.06,3.47-.14a1.93,1.93,0,0,1,1.94,1.52c0,.07,0,.16,0,.2-.41.23-.3.67-.41,1a7.35,7.35,0,0,1-.36,1.25,3.14,3.14,0,0,0,0,1.37c0,.14.17.18.29.21a7.21,7.21,0,0,0,2.66,0,.31.31,0,0,0,.27-.31c0-.33.07-.67.11-1s-.16-.34-.18-.55c0-.4-.14-.8-.19-1.2s-.06-.6-.41-.73c-.11,0-.08-.16-.1-.25a3.79,3.79,0,0,0-4.05-3.2c-1.22,0-2.45.07-3.67.13-.27,0-.56.09-.71-.27,0-.1-.19-.11-.3-.13-.62-.13-1.23-.26-1.84-.37a.54.54,0,0,1-.5-.41,1.36,1.36,0,0,0-.2-.4,1,1,0,0,0-1.35-.39,9.34,9.34,0,0,0-.87.5c-.25.16-.43.19-.57-.13a1,1,0,0,0-.34-.47c-.13-.09-.11-.23-.1-.35,0-1.13,0-2.25.06-3.37a.41.41,0,0,1,0-.23,2.76,2.76,0,0,0,.2-2.54,1.64,1.64,0,0,1,0-.38c0-1.57,0-3.15,0-4.72.08-2.51,0-5,.07-7.54s0-5.11.07-7.67c.07-2.39,0-4.77.07-7.15.06-1.77,0-3.55.07-5.32.06-1.52.07-3,0-4.58a7.48,7.48,0,0,1,.69-3.36c1.6-3.57,3.17-7.15,4.75-10.73a10.67,10.67,0,0,0,1-4.74,8.62,8.62,0,0,0-3.43-6.83,2.23,2.23,0,0,0-.41-.27,2,2,0,0,1-1.08-1.09,1.35,1.35,0,0,0-1.6-.57,3,3,0,0,1-2.16,0,11.16,11.16,0,0,0-4.26-.37l-.76.09a1.07,1.07,0,0,1-.9-.26,1.49,1.49,0,0,0-2.19.41,3.21,3.21,0,0,0-.19,2.72,1.36,1.36,0,0,0,2.06.75,1.07,1.07,0,0,1,.92-.09,13.16,13.16,0,0,0,5.22.47c.35,0,.7,0,1,0a.78.78,0,0,1,.51.19,1.49,1.49,0,0,0,1.92.1c.17-.13.29,0,.4.1a5.8,5.8,0,0,1,2.23,3.52,6.46,6.46,0,0,1-.45,4.13c-1.34,3-2.63,5.93-4,8.88a36.11,36.11,0,0,0-1.41,3.33,16,16,0,0,0-.68,4.65c-.06,2.92-.05,5.84-.1,8.75,0,1.18,0,2.36,0,3.54a.89.89,0,0,1-.13.53.38.38,0,0,0,0,.43,1.52,1.52,0,0,1,.14.81c0,1.5,0,3-.05,4.51,0,2.43,0,4.86,0,7.29,0,2.11-.08,4.21-.08,6.32,0,1,0,2,0,2.95a7.07,7.07,0,0,1-.2,1.77,2.21,2.21,0,0,0,.06,1.66,2.74,2.74,0,0,1,.27,1.55c0,.79,0,1.58,0,2.37a.55.55,0,0,1-.2.47,1.77,1.77,0,0,0-.48.84c-.05.21-.16.27-.36.29-1.63.11-3.27.21-4.9.36a11.49,11.49,0,0,1-1.86.18c-1.76-.1-3.53-.19-5.3-.26a8.89,8.89,0,0,0-2.52.11,3.79,3.79,0,0,0-2.94,3.19c0,.2-.06.35-.29.41s-.16.18-.2.31c-.23.66-.33,1.36-.56,2a4.45,4.45,0,0,0,0,1.27.27.27,0,0,0,.22.24,5.22,5.22,0,0,0,2.77.14c.18,0,.26-.15.29-.34a11.3,11.3,0,0,0-.29-3.33.27.27,0,0,0-.12-.2c-.3-.15-.25-.38-.17-.63a2.12,2.12,0,0,1,2.48-1.6c.78.11,1.57.09,2.36.14,2,.11,4,.19,6,.29C145.8,166.53,145.82,166.55,145.87,166.58Z"/></svg>