<svg id="Layer_1" data-name="Layer 1" xmlns="http://www.w3.org/2000/svg" viewBox="0 0 200 200"><defs><style>.cls-1{fill:#eaebec;opacity:0.65;}.cls-2{fill:#48afb4;}.cls-3{fill:#fff;}.cls-4{fill:none;stroke:#fff;stroke-miterlimit:10;}</style></defs><path class="cls-1" d="M73.24,24.74C43.79,32.94,36,42.05,32.88,46.43c-5.52,7.74-1.1,8.81-6.67,22.05C18.73,86.28,11,86.76,5.83,98.62c-8.25,19.11-.72,44.83,17.64,56.24,14.1,8.76,20.73,6.31,55.65,12.86,25.23,4.74,24.81,10.16,42.33,11,6,.3,38.25,1.26,60-20.58,4.06-4.09,16.63-16.73,16.07-33.08C197.07,113,192.23,113.22,190,99c-3-19.29,6.71-26.12,2-39.7-3.25-9.3-12.09-14.65-29.78-25.36-12.74-7.71-19.11-11.57-28.61-14C117.33,15.86,104.2,16.12,73.24,24.74Z"/><path class="cls-2" d="M138.37,62.89a37.76,37.76,0,0,0-4.6-17,19.11,19.11,0,0,0-13.75-10,34.28,34.28,0,0,0-13,.56c-4.55.9-9,2.25-13.49,3.39A14.25,14.25,0,0,1,86,40c-3.08-.87-6.2-1.61-9.3-2.4C71.83,36.41,67,35.3,61.93,35.53A20,20,0,0,0,49.61,40.1a22.44,22.44,0,0,0-6,8.28,39.25,39.25,0,0,0-3.4,16.18,49.16,49.16,0,0,0,2.69,14.89c1.48,4.63,3.27,9.16,4.66,13.83a92.19,92.19,0,0,1,3.08,15.46A107,107,0,0,1,51,120.06a89,89,0,0,0,.65,14.13,54.06,54.06,0,0,0,6.95,20A25.13,25.13,0,0,0,66,162.5c3.25,2.14,6.66,2.79,10.2.83,2.7-1.48,4.1-4,4.92-6.87a65,65,0,0,0,2-12.86c.51-6.27.64-12.57,1.24-18.83a62,62,0,0,1,1.9-11.32,10,10,0,0,1,1.53-3.34,1.72,1.72,0,0,1,3,0,7,7,0,0,1,1,1.87,26.06,26.06,0,0,1,1.4,5.12c1.27,6.71,1.49,13.52,1.88,20.32A128.39,128.39,0,0,0,96.37,151a27.12,27.12,0,0,0,2.3,8.32,9.06,9.06,0,0,0,13.08,3.79c3.86-2.25,6.48-5.68,8.66-9.45a56.06,56.06,0,0,0,7.26-27.24c.07-3.23.09-6.47,0-9.71A77.54,77.54,0,0,1,130,97.13a154.74,154.74,0,0,1,4.8-14.95C137,75.93,138.67,69.6,138.37,62.89Z"/><path class="cls-3" d="M132,81.22c-.4,1.18-.82,2.36-1.24,3.54a107,107,0,0,0-3.64,11.7,78.9,78.9,0,0,0-2.44,20.29c.07,2.92.07,6,0,9.56a52.59,52.59,0,0,1-6.86,25.81c-2.37,4.11-4.71,6.69-7.57,8.36a6.91,6.91,0,0,1-3.47,1,6.13,6.13,0,0,1-5.44-3.59,24.52,24.52,0,0,1-2-7.37,121.65,121.65,0,0,1-1.22-13s-.13-2.29-.18-3.28a133.69,133.69,0,0,0-1.76-17.74,28.68,28.68,0,0,0-1.58-5.71,10.07,10.07,0,0,0-1.48-2.62,4.9,4.9,0,0,0-3.8-1.93,4.84,4.84,0,0,0-3.87,2,12.91,12.91,0,0,0-2,4.32,64.57,64.57,0,0,0-2,11.87c-.35,3.57-.54,7.18-.73,10.66-.15,2.7-.3,5.5-.52,8.22a63.35,63.35,0,0,1-1.93,12.27c-.75,2.6-1.82,4.16-3.48,5.08a5.93,5.93,0,0,1-2.87.79,7.75,7.75,0,0,1-4.23-1.5,21.81,21.81,0,0,1-6.51-7.38,50.62,50.62,0,0,1-6.55-18.88A83.69,83.69,0,0,1,54,120.4v-.33c0-1,0-2,0-2.92a72.17,72.17,0,0,0-.33-8.76,94.52,94.52,0,0,0-3.19-16c-.81-2.71-1.75-5.39-2.66-8-.68-1.93-1.38-3.93-2-5.9a45.74,45.74,0,0,1-2.55-14A36.38,36.38,0,0,1,46.37,49.6a19.39,19.39,0,0,1,5.17-7.2,16.89,16.89,0,0,1,10.53-3.87q.61,0,1.23,0a51.38,51.38,0,0,1,12.62,2l2.77.7c2.13.53,4.33,1.08,6.46,1.68a14.59,14.59,0,0,0,4,.54,20.17,20.17,0,0,0,5.1-.71c1.48-.37,3-.77,4.44-1.16,2.91-.79,5.93-1.6,8.89-2.19a39.7,39.7,0,0,1,7.84-.91,22.17,22.17,0,0,1,4.07.36,16.07,16.07,0,0,1,11.68,8.5A34.67,34.67,0,0,1,135.38,63C135.66,69.48,133.92,75.58,132,81.22Z"/><path class="cls-2" d="M74.7,59.71a13.58,13.58,0,0,1-6.33-1.92c-.1-.06-.15-.09-.09-.29s.2-.68.5-.68a1,1,0,0,1,.47.15,11.44,11.44,0,0,0,5.48,1.43,13.32,13.32,0,0,0,5-1,25.94,25.94,0,0,1,9.45-2h.19a27.22,27.22,0,0,1,9.7,2A14.21,14.21,0,0,0,104,58.46a8.43,8.43,0,0,0,1.81-.19A16.15,16.15,0,0,0,109.41,57a1.2,1.2,0,0,1,.49-.15c.16,0,.37.42.43.55a.73.73,0,0,1,.08.26s-.07.16-.53.41a12.24,12.24,0,0,1-6,1.62,12.47,12.47,0,0,1-4.65-.95,26.87,26.87,0,0,0-8-2c-.59-.05-1.19-.07-1.77-.07a25.44,25.44,0,0,0-9,1.7A17.38,17.38,0,0,1,74.7,59.71Z"/><circle class="cls-2" cx="134.77" cy="119.34" r="25"/><circle class="cls-4" cx="134.77" cy="119.34" r="22"/><polygon class="cls-3" points="144.77 116.67 137.43 116.67 137.43 109.34 132.1 109.34 132.1 116.67 124.77 116.67 124.77 122 132.1 122 132.1 129.34 137.43 129.34 137.43 122 144.77 122 144.77 116.67"/></svg>