<svg id="Layer_1" data-name="Layer 1" xmlns="http://www.w3.org/2000/svg" viewBox="0 0 200 200"><defs><style>.cls-1{fill:#eaebec;opacity:0.65;}.cls-2{fill:#48afb4;}.cls-3{fill:none;stroke:#48afb4;stroke-linecap:round;stroke-miterlimit:10;stroke-width:3px;}</style></defs><path class="cls-1" d="M73.24,29.17C43.79,37.37,36,46.48,32.88,50.86c-5.52,7.74-1.1,8.81-6.67,22C18.73,90.71,11,91.19,5.83,103.05c-8.25,19.11-.72,44.83,17.64,56.24,14.1,8.76,20.73,6.31,55.65,12.86,25.23,4.74,24.81,10.16,42.33,11,6,.3,38.25,1.26,60-20.58,4.06-4.09,16.63-16.73,16.07-33.08-.41-12.13-5.25-11.87-7.44-26.1-3-19.29,6.71-26.12,2-39.7-3.25-9.3-12.09-14.65-29.78-25.36-12.74-7.71-19.11-11.57-28.61-14C117.33,20.29,104.2,20.55,73.24,29.17Z"/><path class="cls-2" d="M74.34,144.52a5.7,5.7,0,0,1,2-4.35q8.9-7.47,17.81-14.89a6.16,6.16,0,0,0,1.91-2.65c2-5.27,4-10.51,6.07-15.76.13-.34.13-.93.63-.91s.4.57.55.89c1.72,3.56,4.78,5.56,8.26,7,2.16.91,2.16.89,1.22,3-1.51,3.38-3.06,6.74-4.48,10.16a10.43,10.43,0,0,1-2.85,3.9c-7.13,6.25-14.64,12-22.16,17.82a5.23,5.23,0,0,1-5.85.57A5.54,5.54,0,0,1,74.34,144.52Z"/><path class="cls-2" d="M132.73,61.7a11.72,11.72,0,1,1,23.44.13,11.92,11.92,0,0,1-11.7,11.71A11.75,11.75,0,0,1,132.73,61.7Z"/><path class="cls-2" d="M174.23,75a5.41,5.41,0,0,0-7.92-.27C162.62,78,159,81.42,155.38,84.82a1.22,1.22,0,0,1-1.88.13c-2.9-2.11-5.85-4.16-8.79-6.23-.26-.18-.56-.54-.87-.37s-.09.6,0,.9a12.79,12.79,0,0,1-2.95,11.08c-.66.79-.59,1.13.23,1.69l10.33,7.19a3.43,3.43,0,0,0,4.23-.23c4.63-4.08,15.8-13.91,18.11-16.06A5.45,5.45,0,0,0,174.23,75Z"/><path class="cls-2" d="M148,109.46c-4-1.3-8-2.52-12-3.78-.37-.11-8-2.51-8.07-2.58h0c-.26-.17-.23-.37,0-.67h0l.11-.13L133,96.23c.65-.8,1.3-1.59,2-2.38h0c1.62-1.94,3.24-3.88,4.73-5.91,4.15-5.62,1.92-12.21-3.58-15.37a21.22,21.22,0,0,0-7.58-2.41c-6.62-1-13.25-1.93-19.88-2.9a7.59,7.59,0,0,0-6.74,2c-1,.93-2,1.81-2.94,2.72-4,3.66-8,7.3-11.92,11a5.55,5.55,0,0,0,7.3,8.35c.63-.51,1.21-1.09,1.81-1.64,3.19-2.94,6.36-5.88,9.56-8.81.45-.4.84-.91,1.61-.77,2.56.43,5.12.84,7.68,1.21.84.12.88.41.5,1.07-2.67,4.58-5.35,9.15-8,13.75-.74,1.39-3.44,7-1.15,11.31a12.5,12.5,0,0,0,5.66,4.21l11.25,3.57h0l5.15,1.59c2.18.68,4.36,1.38,6.71,2.13l-1,1.06q-4.86,5-9.75,10.05a5.76,5.76,0,0,0-1.82,3.82,5.32,5.32,0,0,0,2.91,5.22,5,5,0,0,0,5.94-.46c1.78-1.44,3.39-3.09,5-4.69,4.94-4.79,9.94-9.54,14.55-14.66a5.06,5.06,0,0,0,1.45-2.45A6.43,6.43,0,0,0,148,109.46Z"/><line class="cls-3" x1="91.77" y1="67.14" x2="44.27" y2="67.14"/><line class="cls-3" x1="81.77" y1="77.14" x2="34.27" y2="77.14"/><line class="cls-3" x1="71.77" y1="87.14" x2="24.27" y2="87.14"/><line class="cls-3" x1="81.77" y1="97.14" x2="34.27" y2="97.14"/><line class="cls-3" x1="91.77" y1="107.14" x2="44.27" y2="107.14"/></svg>