<svg id="Layer_1" data-name="Layer 1" xmlns="http://www.w3.org/2000/svg" viewBox="0 0 200 200"><defs><style>.cls-1{fill:#eaebec;opacity:0.65;}.cls-2{fill:#48afb4;}.cls-3{fill:#fff;}</style></defs><path class="cls-1" d="M73.24,29.17C43.79,37.37,36,46.48,32.88,50.86c-5.52,7.74-1.1,8.81-6.67,22C18.73,90.71,11,91.19,5.83,103.05c-8.25,19.11-.72,44.83,17.64,56.24,14.1,8.76,20.73,6.31,55.65,12.86,25.23,4.74,24.81,10.16,42.33,11,6,.3,38.25,1.26,60-20.58,4.06-4.09,16.63-16.73,16.07-33.08-.41-12.13-5.25-11.87-7.44-26.1-3-19.29,6.71-26.12,2-39.7-3.25-9.3-12.09-14.65-29.78-25.36-12.74-7.71-19.11-11.57-28.61-14C117.33,20.29,104.2,20.55,73.24,29.17Z"/><path class="cls-2" d="M102.21,45.61a37.07,37.07,0,0,1,9.45,1,22.52,22.52,0,0,1,2.3.68c8.93,3.19,16.8,7.95,23,15.32,7.68,9.09,11.85,19.43,12.05,31.33a2.73,2.73,0,0,0,2.2,2.94,13.89,13.89,0,0,1,6.71,5.3c2.12,2.85,1.78,6,2.07,9.23.48,5.5-4.91,11.34-9.36,12.46a2.6,2.6,0,0,0-2.27,2.38,23,23,0,0,1-1.11,5.25,27.11,27.11,0,0,1-13.81,16.72c-8.22,4.41-17.23,6-26.49,6.15-4.78.08-9.56.11-14.33,0-8.28-.21-16.35-1.51-23.93-5.08-9.66-4.55-15.71-11.81-17-22.66a3.18,3.18,0,0,0-2.19-2.68c-3.69-1.12-6.73-3.27-8.18-6.79a18.52,18.52,0,0,1,.57-14.76A11.91,11.91,0,0,1,48.33,97a3.24,3.24,0,0,0,2.45-3.55A44.52,44.52,0,0,1,53,80.18,49.58,49.58,0,0,1,68.49,57.07c5.8-4.83,12.12-8.7,19.52-10.24A81,81,0,0,1,102.21,45.61Z"/><path class="cls-3" d="M103.23,51.76c.64.5,1,.74,1.31,1,5.14,4.25,8.84,9.3,9.24,16.27.5,8.87-6,15-13.73,16.28-4.2.7-7.78-1.15-10.56-4-3.34-3.43-5.25-7.51-3.2-12.51a11.07,11.07,0,0,1,8.47-7.22c1.95-.39,4.07.4,4.56,2.06s-.77,3.36-2.88,3.85a7.46,7.46,0,0,0-2.14.57c-3.42,1.93-3.3,7.23.22,9.69,3,2.11,6,1.48,8.89-.22A8.53,8.53,0,0,0,107.7,69c-.86-8-8.92-14.94-16.94-15.6-3.49-.28-6.48.95-9.39,2.37A42.88,42.88,0,0,0,57.2,92.58c-.23,8.37-.05,16.74-.08,25.12a48.45,48.45,0,0,0,.87,10,21.31,21.31,0,0,0,11.11,15c7,3.88,14.72,5.15,22.5,5.47,7.27.3,14.58.53,21.89-.51A63.37,63.37,0,0,0,127,144.47c5.16-1.94,9.64-4.93,12.41-9.84a24.75,24.75,0,0,0,3.26-11.88c.13-8.74,0-17.49.08-26.23A53.11,53.11,0,0,0,141,82.41a40.44,40.44,0,0,0-10.37-18C123.28,56.94,114.18,52.73,103.23,51.76Z"/><path class="cls-3" d="M154.17,109.52a7.46,7.46,0,0,0-3.61-6.32c-1.08-.64-1.51-.52-1.49.83,0,4,0,8.07,0,12.1,0,.47-.18,1.1.32,1.37s1.09-.12,1.53-.43C153.35,115.39,154.14,112.92,154.17,109.52Z"/><path class="cls-3" d="M50.73,102.55c-5.22,2.32-5.43,6.77-4.52,10.78a6.36,6.36,0,0,0,3,3.89c.64.39,1.5.8,1.51-.57C50.74,112,50.73,107.39,50.73,102.55Z"/><path class="cls-2" d="M100.6,128.63a19.73,19.73,0,0,1-13.21-4.85c-1.86-1.53-2.15-3.22-1-4.67s3-1.52,4.76,0a13.75,13.75,0,0,0,17.58,0,4,4,0,0,1,3.67-.88,1.13,1.13,0,0,1,.45.23c1.76,1.49,1.78,2.84.82,4a15,15,0,0,1-6.76,4.71C104.69,128.05,102.43,129.14,100.6,128.63Z"/><path class="cls-2" d="M125,107a5.66,5.66,0,0,1,5.44,5.22,5.43,5.43,0,0,1-5.26,5.19,5.32,5.32,0,0,1-5.4-5.2A5.41,5.41,0,0,1,125,107Z"/><path class="cls-2" d="M80.28,112.08c.16,2.8-2.56,5.38-5.52,5.32a5.12,5.12,0,0,1-5.11-5.27C69.73,107.48,77.49,103.43,80.28,112.08Z"/></svg>