<svg id="Layer_1" data-name="Layer 1" xmlns="http://www.w3.org/2000/svg" viewBox="0 0 200 200"><defs><style>.cls-1{fill:#eaebec;opacity:0.65;}.cls-2{fill:#48afb4;}.cls-3,.cls-7{fill:#fff;}.cls-3,.cls-4,.cls-5,.cls-6{stroke:#48afb4;stroke-miterlimit:10;}.cls-3,.cls-4{stroke-width:2px;}.cls-4,.cls-5,.cls-6{fill:none;}.cls-4,.cls-5{stroke-linecap:round;}</style></defs><path class="cls-1" d="M73.24,26.62C43.79,34.82,36,43.93,32.88,48.31c-5.52,7.74-1.1,8.81-6.67,22C18.73,88.16,11,88.64,5.83,100.5c-8.25,19.11-.72,44.83,17.64,56.24,14.1,8.76,20.73,6.31,55.65,12.86,25.23,4.74,24.81,10.16,42.33,11,6,.3,38.25,1.26,60-20.58C185.47,156,198,143.32,197.48,127c-.41-12.13-5.25-11.87-7.44-26.1-3-19.29,6.71-26.12,2-39.7-3.25-9.3-12.09-14.65-29.78-25.36-12.74-7.71-19.11-11.57-28.61-14C117.33,17.74,104.2,18,73.24,26.62Z"/><path class="cls-2" d="M65.49,116.94h.75A5.78,5.78,0,0,1,72,122.73v6.53a0,0,0,0,1,0,0H59.71a0,0,0,0,1,0,0v-6.53a5.78,5.78,0,0,1,5.78-5.78Z" transform="translate(21.43 255.46) rotate(-133.29)"/><path class="cls-3" d="M131,33.57l3.52,3.74,21.11,22.4,3.51,3.74-6,5.63-3.52-3.74L86.88,124.45a8.21,8.21,0,0,1-11.61-.34l-9.85-10.46a8.2,8.2,0,0,1,.35-11.6l62.74-59.11L125,39.2Z"/><line class="cls-4" x1="61.38" y1="127.32" x2="35.25" y2="151.94"/><line class="cls-5" x1="146.12" y1="61.6" x2="132.04" y2="46.66"/><line class="cls-5" x1="100.49" y1="82.02" x2="94.16" y2="75.3"/><line class="cls-4" x1="112.18" y1="79.47" x2="101.63" y2="68.26"/><line class="cls-5" x1="115.43" y1="67.95" x2="109.1" y2="61.22"/><line class="cls-5" x1="111.69" y1="71.47" x2="105.36" y2="64.74"/><line class="cls-5" x1="119.16" y1="64.43" x2="112.83" y2="57.71"/><line class="cls-5" x1="96.76" y1="85.54" x2="90.42" y2="78.82"/><line class="cls-5" x1="104.23" y1="78.5" x2="97.89" y2="71.78"/><line class="cls-4" x1="127.12" y1="65.39" x2="116.57" y2="54.19"/><rect class="cls-2" x="143.89" y="30.11" width="35.92" height="5.13" rx="2.41" transform="translate(249.04 172.89) rotate(-133.29)"/><rect class="cls-2" x="142.25" y="36.34" width="20.52" height="10.26" transform="translate(13.06 115.87) rotate(-43.29)"/><path class="cls-2" d="M80.47,88.08l-14.7,14a8.2,8.2,0,0,0-.35,11.6l9.85,10.46a8.21,8.21,0,0,0,11.61.34l29.68-28.28Zm-5,9.54a1.12,1.12,0,0,1,0,2.23A1.12,1.12,0,0,1,75.48,97.62Zm1.73,18a1.12,1.12,0,0,1,0-2.23A1.12,1.12,0,0,1,77.21,115.63Zm5-23.73a1.12,1.12,0,0,1,0,2.23A1.12,1.12,0,0,1,82.24,91.9Zm1.39,29.8a1.12,1.12,0,0,1,0-2.23A1.12,1.12,0,0,1,83.63,121.7Zm9.88-23.41a1.12,1.12,0,0,1,0-2.23A1.12,1.12,0,0,1,93.51,98.29Zm1.91,10.93a1.12,1.12,0,0,1,0-2.24A1.12,1.12,0,0,1,95.42,109.22Zm12.31-8.67a1.12,1.12,0,0,1,0-2.24A1.12,1.12,0,0,1,107.73,100.55Z"/><path class="cls-6" d="M27.63,178.5h0a9.09,9.09,0,0,1-1.31-11.2c1.6-2.58,3.24-5.11,4.72-7.76l3-5.39,3,5.39c1.48,2.65,3.12,5.18,4.72,7.76a9.09,9.09,0,0,1-1.31,11.2h0A9.09,9.09,0,0,1,27.63,178.5Z"/><path class="cls-2" d="M34.23,166.17a5.67,5.67,0,1,0,5.67,5.67A5.66,5.66,0,0,0,34.23,166.17Zm-4.3,6.11a.66.66,0,0,1,0-1.32A.66.66,0,0,1,29.93,172.28Zm3.62-4.12-.44.14-.22.07s-.28.13-.08,0a6,6,0,0,0-.74.41l0,0h0l-.15.14-.22.24-.05.05-.06.09-.12.2-.11.21,0,.09h0a.67.67,0,0,1-.81.46.65.65,0,0,1-.46-.81,4,4,0,0,1,1.36-1.82,5.79,5.79,0,0,1,1.85-.82.67.67,0,0,1,.81.46A.66.66,0,0,1,33.55,168.16Z"/><path class="cls-2" d="M33.6,165.11l.08.14a1.06,1.06,0,0,1,.55-.15,1.19,1.19,0,0,1,.44.08.78.78,0,0,1,.29.21.7.7,0,0,0,.39.26.82.82,0,0,0,.26,0,1.09,1.09,0,0,0,.34-.06.74.74,0,0,1,.23,0l.13,0c.12,0,.15.12.23.25a.83.83,0,0,0,.39.41.75.75,0,0,0,.37.08c.16,0,.29,0,.37,0a.12.12,0,0,1,.11,0s0,0,0,.12,0,.1,0,.17a.74.74,0,0,0,.1.38.77.77,0,0,0,.45.31,1.37,1.37,0,0,1,.49.24.37.37,0,0,1,.1.11l.38.49.49.62A.83.83,0,0,1,40,169a2.16,2.16,0,0,1,.18.77,1.42,1.42,0,0,1,0,.19c0,.14,0,.21,0,.35a1.11,1.11,0,0,0,0,.17,1.23,1.23,0,0,0,.28.64.81.81,0,0,1,.22.42v.1a.71.71,0,0,1-.09.31,3,3,0,0,0-.23.74c-.05.29-.06.48-.08.65a1.9,1.9,0,0,1-.11.54,2,2,0,0,1-.29.62,1.64,1.64,0,0,1-.23.26,1.1,1.1,0,0,0-.21.27.91.91,0,0,0-.1.44v.13a.48.48,0,0,1-.06.25c0,.06,0,.06-.11.13l-.5.36c-.35.25-.17.14-.82.63l-.53.39-.15.1,0,0h0l-.22,0a1.11,1.11,0,0,1-.3-.05,1.39,1.39,0,0,0-.39-.06,1.06,1.06,0,0,0-.29,0,1,1,0,0,0-.49.29A1,1,0,0,1,35,178a1.59,1.59,0,0,1-.45.05l-.62,0c-.64,0-.62-.07-1.14-.08h-.19c-.31,0-.49,0-.59,0a.41.41,0,0,1-.21,0,.75.75,0,0,1-.32-.25,1.15,1.15,0,0,0-.46-.37,1.27,1.27,0,0,0-.56-.12.33.33,0,0,1-.26-.09.46.46,0,0,1-.12-.32.75.75,0,0,0-.23-.5.87.87,0,0,0-.55-.18h-.17l-.07-.05,0-.07s0-.15,0-.29a.78.78,0,0,0,0-.21.8.8,0,0,0-.23-.43,3.15,3.15,0,0,1-.3-.36,4.41,4.41,0,0,1-.33-1.12c-.08-.37-.05-.32-.19-1l-.16-.76a2.47,2.47,0,0,1,0-.34v0c0-.06.05-.34.15-.87s.16-.77.19-.9a1.47,1.47,0,0,0,.05-.29,1,1,0,0,1,.09-.52.84.84,0,0,1,.37-.29,1.43,1.43,0,0,0,.63-.68,2,2,0,0,1,.56-.7,1.79,1.79,0,0,1,.48-.26,1.16,1.16,0,0,0,.48-.35,3.51,3.51,0,0,0,.28-.38l.08-.09,0,0h0l0,0a1.47,1.47,0,0,1,.15.17.42.42,0,0,0,.3.16h0a.39.39,0,0,0,.28-.17,3.71,3.71,0,0,0,.21-.37l.08-.13.06,0h0l0,0,.17.15a.46.46,0,0,0,.32.14h0a.42.42,0,0,0,.28-.14c.17-.22.23-.49.49-.66l-.08-.14-.09-.13a1.29,1.29,0,0,0-.45.55,1,1,0,0,1-.11.17l-.06,0h0l-.06,0a1.16,1.16,0,0,1-.17-.16.53.53,0,0,0-.31-.14h-.05a.46.46,0,0,0-.29.18,2.14,2.14,0,0,0-.21.38l-.08.12,0,0v0h0l0,0-.15-.17a.41.41,0,0,0-.31-.16h0a.31.31,0,0,0-.22.08,3.74,3.74,0,0,0-.4.52.9.9,0,0,1-.37.26,2.06,2.06,0,0,0-.55.3,2.12,2.12,0,0,0-.64.8,1.16,1.16,0,0,1-.51.55,1.18,1.18,0,0,0-.49.41,1.31,1.31,0,0,0-.14.66.8.8,0,0,1,0,.24c0,.13-.08.37-.19.91s-.15.79-.16.92v0a2.08,2.08,0,0,0,.05.4c0,.15.08.37.15.76.14.68.11.64.2,1a3.93,3.93,0,0,0,.37,1.22,3,3,0,0,0,.33.41.64.64,0,0,1,.16.28v.15c0,.1,0,.18,0,.29a.41.41,0,0,0,.08.25.47.47,0,0,0,.25.17,2.24,2.24,0,0,0,.34,0,.47.47,0,0,1,.25.1.4.4,0,0,1,.13.3.71.71,0,0,0,.22.51.65.65,0,0,0,.45.17,1.05,1.05,0,0,1,.45.1.8.8,0,0,1,.35.28,1.1,1.1,0,0,0,.44.34.78.78,0,0,0,.33.07c.14,0,.29,0,.59,0h.19c.48,0,.46,0,1.13.08l.63,0a1.47,1.47,0,0,0,.55-.07,1.24,1.24,0,0,0,.53-.32.72.72,0,0,1,.36-.22l.21,0a1.12,1.12,0,0,1,.31.05,1.36,1.36,0,0,0,.38.07,1.32,1.32,0,0,0,.32,0,1.35,1.35,0,0,0,.29-.18l.53-.39c.66-.49.49-.38.82-.63l.51-.36a.64.64,0,0,0,.2-.24.8.8,0,0,0,.09-.39v-.13a.64.64,0,0,1,.07-.3.54.54,0,0,1,.15-.18,1.94,1.94,0,0,0,.27-.31,2.69,2.69,0,0,0,.33-.7,2.55,2.55,0,0,0,.13-.62,4.54,4.54,0,0,1,.07-.61,3.22,3.22,0,0,1,.2-.68,1,1,0,0,0,.13-.43,1,1,0,0,0,0-.16,1.22,1.22,0,0,0-.28-.56.8.8,0,0,1-.22-.48v-.13c0-.09,0-.17,0-.35s0-.13,0-.22a2.78,2.78,0,0,0-.21-.87,1.81,1.81,0,0,0-.19-.3l-.49-.63c-.22-.27-.32-.41-.38-.49a1.19,1.19,0,0,0-.16-.16,1.75,1.75,0,0,0-.59-.29c-.15,0-.21-.07-.27-.17a.36.36,0,0,1,0-.22v-.17a.43.43,0,0,0-.46-.47c-.13,0-.25,0-.37,0a.55.55,0,0,1-.24,0,.53.53,0,0,1-.25-.28.74.74,0,0,0-.38-.39.59.59,0,0,0-.25,0,1.3,1.3,0,0,0-.32.06.79.79,0,0,1-.25,0l-.17,0a.42.42,0,0,1-.25-.17,1.17,1.17,0,0,0-.4-.29,1.47,1.47,0,0,0-.56-.1,1.34,1.34,0,0,0-.72.19Z"/><path class="cls-7" d="M85.27,99.26A6.69,6.69,0,1,0,92,106,6.68,6.68,0,0,0,85.27,99.26Zm-5.08,7.22a.78.78,0,0,1,0-1.56A.78.78,0,0,1,80.19,106.48Zm4.28-4.87-.53.16-.25.09c-.06,0-.33.15-.1,0a7.37,7.37,0,0,0-.87.48l-.07,0h0l-.18.16a3.32,3.32,0,0,0-.26.28s0,0-.06.06l-.07.11c0,.07-.09.15-.14.23s-.09.16-.13.25l0,.11h0a.81.81,0,0,1-1,.55.78.78,0,0,1-.54-1,4.65,4.65,0,0,1,1.61-2.15,6.53,6.53,0,0,1,2.19-1,.79.79,0,0,1,1,.54A.81.81,0,0,1,84.47,101.61Z"/><path class="cls-7" d="M84.53,98l.1.15a1.16,1.16,0,0,1,.64-.17,1.38,1.38,0,0,1,.52.1.72.72,0,0,1,.34.25,1,1,0,0,0,.46.31,1.15,1.15,0,0,0,.31,0,1.44,1.44,0,0,0,.4-.07.83.83,0,0,1,.27-.06l.16,0a.57.57,0,0,1,.27.3.94.94,0,0,0,.46.48.93.93,0,0,0,.44.1c.19,0,.35,0,.44,0s.09,0,.13,0,0,0,0,.14,0,.12,0,.2a.79.79,0,0,0,.65.81,1.64,1.64,0,0,1,.58.29.52.52,0,0,1,.12.13l.45.58.58.73a1.44,1.44,0,0,1,.18.29,2.79,2.79,0,0,1,.21.91,1.93,1.93,0,0,1,0,.23c0,.16,0,.24,0,.41a1.56,1.56,0,0,0,0,.2,1.5,1.5,0,0,0,.34.75,1,1,0,0,1,.26.5l0,.12a1,1,0,0,1-.12.36,4.07,4.07,0,0,0-.27.88c-.06.34-.07.57-.09.76a2.26,2.26,0,0,1-.13.64,2.56,2.56,0,0,1-.34.74,2.23,2.23,0,0,1-.27.3.87.87,0,0,0-.25.32,1.09,1.09,0,0,0-.13.52v.15a.69.69,0,0,1-.07.3c0,.07,0,.07-.14.15l-.59.43c-.41.3-.2.17-1,.74l-.62.46-.18.12,0,0h0a1,1,0,0,1-.27,0,1.51,1.51,0,0,1-.35-.06,1.52,1.52,0,0,0-.46-.08,1.33,1.33,0,0,0-.93.39,1.22,1.22,0,0,1-.49.31,1.73,1.73,0,0,1-.54.06l-.73,0c-.75,0-.73-.07-1.34-.09h-.22c-.38,0-.58,0-.71,0a.52.52,0,0,1-.24,0,.91.91,0,0,1-.38-.3,1.34,1.34,0,0,0-.54-.44,1.49,1.49,0,0,0-.66-.14.48.48,0,0,1-.31-.1.59.59,0,0,1-.15-.38.83.83,0,0,0-.27-.59,1,1,0,0,0-.64-.21l-.21,0-.09-.06,0-.08c0-.05,0-.17,0-.35a1.12,1.12,0,0,0,0-.24,1.07,1.07,0,0,0-.27-.51,2,2,0,0,1-.35-.43,4.47,4.47,0,0,1-.4-1.32c-.09-.43-.06-.37-.23-1.2-.08-.45-.14-.71-.18-.89a2.15,2.15,0,0,1,0-.4v0c0-.07.06-.4.18-1s.18-.91.22-1.06a1.35,1.35,0,0,0,.06-.34,1.2,1.2,0,0,1,.11-.61,1,1,0,0,1,.44-.35,1.72,1.72,0,0,0,.74-.8,2.11,2.11,0,0,1,.67-.83,1.9,1.9,0,0,1,.56-.31,1.36,1.36,0,0,0,.57-.41c.15-.17.25-.35.33-.45l.09-.11,0,0h0l.06,0a1.92,1.92,0,0,1,.17.19.51.51,0,0,0,.36.2h0a.44.44,0,0,0,.33-.21,4,4,0,0,0,.25-.44l.1-.14.07-.05h0l.06,0a2.25,2.25,0,0,1,.2.18.54.54,0,0,0,.37.17h0a.43.43,0,0,0,.33-.17c.2-.26.27-.58.59-.78l-.1-.15-.1-.16a1.6,1.6,0,0,0-.54.64,1.35,1.35,0,0,1-.13.21l-.08,0h0l-.07,0a1.38,1.38,0,0,1-.2-.18.53.53,0,0,0-.36-.17H83a.52.52,0,0,0-.34.21,2.76,2.76,0,0,0-.26.46l-.09.13,0,0v0h0l0,0L82.05,99a.53.53,0,0,0-.38-.19h0a.4.4,0,0,0-.26.1,6.87,6.87,0,0,0-.47.61,1,1,0,0,1-.43.31,2.32,2.32,0,0,0-.65.36,2.48,2.48,0,0,0-.76.94,1.38,1.38,0,0,1-.6.65,1.44,1.44,0,0,0-.58.48,1.61,1.61,0,0,0-.16.78,1.18,1.18,0,0,1,0,.29c0,.15-.1.43-.22,1.07a8.21,8.21,0,0,0-.19,1.09v.06a2.09,2.09,0,0,0,0,.47c0,.18.09.44.18.9.16.81.13.75.23,1.2a5.51,5.51,0,0,0,.44,1.44,3.51,3.51,0,0,0,.39.48.63.63,0,0,1,.19.34v.16a2.26,2.26,0,0,1,0,.35.55.55,0,0,0,.09.29.5.5,0,0,0,.29.2,4.09,4.09,0,0,0,.41,0,.44.44,0,0,1,.3.11c.11.09.12.18.14.36a1,1,0,0,0,.27.6.79.79,0,0,0,.54.2,1.24,1.24,0,0,1,.52.11,1.06,1.06,0,0,1,.42.33,1.17,1.17,0,0,0,.51.41.94.94,0,0,0,.39.08c.17,0,.35,0,.71,0h.21c.58,0,.56.06,1.34.09l.74,0a2.09,2.09,0,0,0,.66-.08,1.59,1.59,0,0,0,.63-.39.75.75,0,0,1,.42-.25.85.85,0,0,1,.25,0A1.43,1.43,0,0,1,88,113a1.51,1.51,0,0,0,.45.08,1.36,1.36,0,0,0,.38-.06,1.85,1.85,0,0,0,.34-.21l.63-.46c.78-.58.58-.45,1-.74l.6-.43a.88.88,0,0,0,.24-.28,1,1,0,0,0,.11-.47v-.15a.79.79,0,0,1,.26-.57,1.77,1.77,0,0,0,.32-.36,2.77,2.77,0,0,0,.39-.83,3.15,3.15,0,0,0,.15-.73,7,7,0,0,1,.09-.72,3.4,3.4,0,0,1,.24-.8,1.21,1.21,0,0,0,.15-.51,1.37,1.37,0,0,0,0-.19,1.4,1.4,0,0,0-.34-.66,1.08,1.08,0,0,1-.26-.58v-.14c0-.11,0-.21,0-.41s0-.16,0-.27a3.32,3.32,0,0,0-.24-1,1.66,1.66,0,0,0-.23-.36c-.1-.14-.27-.35-.58-.74l-.45-.58a.83.83,0,0,0-.18-.19,2,2,0,0,0-.7-.35.51.51,0,0,1-.32-.2.43.43,0,0,1-.07-.26c0-.06,0-.13,0-.2a.54.54,0,0,0-.15-.41.58.58,0,0,0-.39-.15c-.16,0-.3,0-.44,0a.59.59,0,0,1-.28-.06.6.6,0,0,1-.3-.33.9.9,0,0,0-.45-.46.8.8,0,0,0-.3-.06,1.22,1.22,0,0,0-.37.07.84.84,0,0,1-.3.06l-.2,0a.59.59,0,0,1-.3-.2,1.18,1.18,0,0,0-.47-.35,1.73,1.73,0,0,0-.66-.12,1.59,1.59,0,0,0-.84.23Z"/><path class="cls-7" d="M99.81,97.67a3.57,3.57,0,1,0,3.57,3.57A3.57,3.57,0,0,0,99.81,97.67Zm-2.71,3.85a.42.42,0,0,1,0-.83A.42.42,0,0,1,97.1,101.52Zm2.28-2.6L99.1,99l-.13,0s-.18.08-.06,0a3.57,3.57,0,0,0-.46.26l0,0h0l-.1.08-.13.15s0,0,0,0l0,.05-.08.13-.06.13,0,.06h0a.43.43,0,0,1-.51.28.4.4,0,0,1-.29-.51A2.43,2.43,0,0,1,98,98.64a3.37,3.37,0,0,1,1.16-.52.41.41,0,1,1,.22.8Z"/><path class="cls-7" d="M99.41,97l.06.08a.67.67,0,0,1,.34-.09.82.82,0,0,1,.28.05.38.38,0,0,1,.18.14.57.57,0,0,0,.25.16.44.44,0,0,0,.16,0,1.05,1.05,0,0,0,.21,0,.56.56,0,0,1,.15,0l.08,0a.28.28,0,0,1,.14.16.55.55,0,0,0,.25.26.55.55,0,0,0,.24,0l.23,0a.12.12,0,0,1,.07,0s0,0,0,.08V98a.5.5,0,0,0,.06.24.49.49,0,0,0,.28.19.87.87,0,0,1,.31.15s0,0,.06.07l.24.31.32.39a1.47,1.47,0,0,1,.09.15,1.7,1.7,0,0,1,.11.49.57.57,0,0,1,0,.12c0,.09,0,.13,0,.22v.11a.83.83,0,0,0,.18.4.59.59,0,0,1,.15.27v.06a.49.49,0,0,1-.06.19,2.09,2.09,0,0,0-.14.47,2.63,2.63,0,0,0,0,.41,1.37,1.37,0,0,1-.07.34,1.5,1.5,0,0,1-.18.39.8.8,0,0,1-.15.16.63.63,0,0,0-.13.17.57.57,0,0,0-.07.28v.08a.3.3,0,0,1,0,.16s0,0-.08.08l-.31.23-.52.39c-.14.11-.25.2-.33.25l-.09.06,0,0h0l-.14,0a.72.72,0,0,1-.19,0,.86.86,0,0,0-.24,0l-.19,0a.75.75,0,0,0-.31.18.68.68,0,0,1-.26.16,1,1,0,0,1-.29,0h-.39c-.4,0-.39,0-.71,0h-.5a.32.32,0,0,1-.13,0,.47.47,0,0,1-.2-.16.67.67,0,0,0-.29-.24.76.76,0,0,0-.35-.07c-.09,0-.11,0-.16-.06a.26.26,0,0,1-.08-.2.43.43,0,0,0-.15-.31.51.51,0,0,0-.34-.12h-.11l0,0v0a1.54,1.54,0,0,0,0-.19.83.83,0,0,0,0-.13.54.54,0,0,0-.14-.27,1.22,1.22,0,0,1-.19-.23,2.43,2.43,0,0,1-.21-.7c0-.23,0-.2-.12-.64l-.1-.48a1.83,1.83,0,0,1,0-.21v0a5.16,5.16,0,0,1,.1-.55c.06-.34.1-.49.11-.57a1.49,1.49,0,0,0,0-.18c0-.16,0-.24.06-.33a.49.49,0,0,1,.23-.18,1,1,0,0,0,.4-.43,1.13,1.13,0,0,1,.35-.44,1.2,1.2,0,0,1,.3-.17.75.75,0,0,0,.3-.21,1.8,1.8,0,0,0,.18-.25l.05-.06h0l0,0,.09.1a.32.32,0,0,0,.19.11h0a.24.24,0,0,0,.18-.11,1.93,1.93,0,0,0,.13-.24l.06-.08,0,0h0l0,0s.06,0,.11.09a.29.29,0,0,0,.2.09h0a.26.26,0,0,0,.17-.09c.11-.14.15-.31.32-.42L99.41,97l0-.08a.88.88,0,0,0-.29.34.72.72,0,0,1-.07.11l0,0h0l-.11-.1a.31.31,0,0,0-.19-.09h0a.28.28,0,0,0-.19.11c-.06.08-.09.18-.13.24l0,.08h0v0h0a.57.57,0,0,1-.1-.11.27.27,0,0,0-.2-.1h0a.2.2,0,0,0-.14,0,3.17,3.17,0,0,0-.26.33.58.58,0,0,1-.22.16,1,1,0,0,0-.35.19,1.52,1.52,0,0,0-.41.5.67.67,0,0,1-.32.35.73.73,0,0,0-.3.26.77.77,0,0,0-.09.41,1.43,1.43,0,0,1,0,.16c0,.08,0,.23-.12.57s-.09.5-.1.58v0a1.21,1.21,0,0,0,0,.25l.1.48c.08.43.07.4.12.64a2.58,2.58,0,0,0,.24.77,1.31,1.31,0,0,0,.2.26.27.27,0,0,1,.1.18v.08a1.23,1.23,0,0,1,0,.19.33.33,0,0,0,0,.16.27.27,0,0,0,.16.1l.22,0a.25.25,0,0,1,.15,0,.26.26,0,0,1,.08.2.48.48,0,0,0,.14.32.41.41,0,0,0,.29.1.88.88,0,0,1,.28.06.59.59,0,0,1,.22.18.69.69,0,0,0,.27.22.59.59,0,0,0,.21,0h.49c.31,0,.3,0,.72,0H100a1.12,1.12,0,0,0,.35,0,.79.79,0,0,0,.34-.21.43.43,0,0,1,.22-.13.39.39,0,0,1,.14,0l.19,0a.86.86,0,0,0,.24,0l.2,0a.62.62,0,0,0,.18-.11l.34-.25.52-.39L103,104a.45.45,0,0,0,.13-.15.62.62,0,0,0,0-.25v-.08a.36.36,0,0,1,0-.19.36.36,0,0,1,.1-.11,1.19,1.19,0,0,0,.17-.19,2.18,2.18,0,0,0,.21-.45,1.8,1.8,0,0,0,.08-.39,3.53,3.53,0,0,1,0-.38,1.72,1.72,0,0,1,.13-.43.61.61,0,0,0,.08-.27.34.34,0,0,0,0-.1.76.76,0,0,0-.18-.35.56.56,0,0,1-.14-.31v-.08c0-.06,0-.11,0-.22a.76.76,0,0,0,0-.14,1.73,1.73,0,0,0-.13-.55,1.14,1.14,0,0,0-.12-.19l-.31-.39c-.14-.17-.2-.26-.24-.31a.31.31,0,0,0-.1-.1,1,1,0,0,0-.37-.19c-.09,0-.13,0-.17-.11a.19.19,0,0,1,0-.13v-.11a.3.3,0,0,0-.08-.22.31.31,0,0,0-.21-.08l-.23,0a.27.27,0,0,1-.15,0,.3.3,0,0,1-.16-.17.48.48,0,0,0-.24-.25l-.16,0a.54.54,0,0,0-.2,0l-.16,0-.11,0a.31.31,0,0,1-.16-.11.53.53,0,0,0-.25-.18,1,1,0,0,0-.35-.07.84.84,0,0,0-.45.13Z"/><path class="cls-7" d="M71.33,104a3.57,3.57,0,1,0,3.57,3.57A3.56,3.56,0,0,0,71.33,104Zm-2.71,3.85a.42.42,0,0,1,0-.83A.42.42,0,0,1,68.62,107.82Zm2.28-2.6-.28.08-.14,0s-.17.08,0,0a2.59,2.59,0,0,0-.46.26l0,0h0l-.1.08-.14.15s0,0,0,0l0,0a.57.57,0,0,0-.08.13s0,.08-.07.13l0,.06h0a.42.42,0,0,1-.51.28.41.41,0,0,1-.29-.51,2.5,2.5,0,0,1,.86-1.14,3.41,3.41,0,0,1,1.17-.52.43.43,0,0,1,.51.29A.42.42,0,0,1,70.9,105.22Z"/><path class="cls-7" d="M70.93,103.3l0,.08a.68.68,0,0,1,.35-.09.72.72,0,0,1,.27,0,.38.38,0,0,1,.18.14.57.57,0,0,0,.25.16.47.47,0,0,0,.16,0,1.17,1.17,0,0,0,.22,0,.51.51,0,0,1,.14,0l.09,0a.37.37,0,0,1,.14.16.51.51,0,0,0,.48.31l.24,0,.06,0a.09.09,0,0,1,0,.08s0,.06,0,.11a.43.43,0,0,0,.07.24.43.43,0,0,0,.28.19,1,1,0,0,1,.31.15l.06.07s.1.14.24.31l.31.39a.42.42,0,0,1,.09.15,1.48,1.48,0,0,1,.12.49s0,.09,0,.12,0,.13,0,.22a.45.45,0,0,0,0,.11.83.83,0,0,0,.18.4.51.51,0,0,1,.14.26v.07a.49.49,0,0,1-.06.19,2,2,0,0,0-.15.47c0,.18,0,.3-.05.41a1,1,0,0,1-.07.34,1.23,1.23,0,0,1-.18.39.82.82,0,0,1-.14.16.63.63,0,0,0-.14.17.67.67,0,0,0-.06.28v.08a.24.24,0,0,1,0,.16s0,0-.07.08l-.31.23-.52.39-.34.25-.09.06,0,0h0l-.14,0a.65.65,0,0,1-.19,0,.87.87,0,0,0-.25,0l-.18,0a.63.63,0,0,0-.31.18.68.68,0,0,1-.26.16,1,1,0,0,1-.29,0h-.39c-.4,0-.39,0-.72,0h-.49a.3.3,0,0,1-.13,0,.47.47,0,0,1-.2-.16.82.82,0,0,0-.29-.24.76.76,0,0,0-.35-.07.24.24,0,0,1-.17-.06c-.06-.05-.06-.11-.08-.2a.4.4,0,0,0-.14-.31.52.52,0,0,0-.34-.12h-.11l0,0v0s0-.09,0-.19a.66.66,0,0,0,0-.13.54.54,0,0,0-.14-.27,1.22,1.22,0,0,1-.19-.23,2.43,2.43,0,0,1-.21-.7c-.05-.23,0-.2-.12-.64l-.1-.48a.82.82,0,0,1,0-.21v0s0-.22.09-.55.1-.49.12-.57a.62.62,0,0,0,0-.18.69.69,0,0,1,.06-.33.49.49,0,0,1,.23-.18.94.94,0,0,0,.4-.43,1.13,1.13,0,0,1,.35-.44,1.43,1.43,0,0,1,.31-.17.82.82,0,0,0,.3-.21c.08-.1.13-.19.18-.25l0-.06h0l0,0,.09.1a.29.29,0,0,0,.19.11h0a.28.28,0,0,0,.18-.11,1.93,1.93,0,0,0,.13-.24l0-.08,0,0h0l0,0,.1.09a.31.31,0,0,0,.2.09h0a.26.26,0,0,0,.18-.09c.11-.14.14-.31.31-.42l0-.08-.05-.08a.8.8,0,0,0-.29.34.72.72,0,0,1-.07.11l0,0h0l-.1-.1a.31.31,0,0,0-.19-.09h0a.28.28,0,0,0-.18.11,1.47,1.47,0,0,0-.13.24l-.05.08h0v0h0l-.09-.11a.26.26,0,0,0-.2-.1h0a.24.24,0,0,0-.14,0c-.1.09-.14.21-.25.33a.54.54,0,0,1-.23.16,1.12,1.12,0,0,0-.35.19,1.47,1.47,0,0,0-.4.5.72.72,0,0,1-.32.35.74.74,0,0,0-.31.26.77.77,0,0,0-.09.41.5.5,0,0,1,0,.16c0,.08-.06.23-.12.57a4.12,4.12,0,0,0-.1.58v0a1.21,1.21,0,0,0,0,.25c0,.1.05.24.09.48.09.43.07.4.13.64a2.64,2.64,0,0,0,.23.77,1.76,1.76,0,0,0,.21.26.32.32,0,0,1,.1.18V110c0,.07,0,.12,0,.19a.25.25,0,0,0,.05.16.29.29,0,0,0,.15.1l.22,0a.28.28,0,0,1,.16,0c.06.06.06.1.08.2a.43.43,0,0,0,.14.32.37.37,0,0,0,.28.1.88.88,0,0,1,.29.06.59.59,0,0,1,.22.18.63.63,0,0,0,.27.22.52.52,0,0,0,.21,0h.49c.31,0,.29,0,.71,0h.4a1.2,1.2,0,0,0,.35,0,.75.75,0,0,0,.33-.21.47.47,0,0,1,.23-.13.32.32,0,0,1,.13,0,.69.69,0,0,1,.2,0,.75.75,0,0,0,.24,0l.2,0a1.08,1.08,0,0,0,.18-.11l.34-.25c.41-.31.3-.24.51-.39l.32-.23a.45.45,0,0,0,.13-.15.51.51,0,0,0,.06-.25v-.08a.36.36,0,0,1,0-.19.33.33,0,0,1,.09-.11,1.19,1.19,0,0,0,.17-.19,1.47,1.47,0,0,0,.21-.45,1.35,1.35,0,0,0,.08-.39c0-.11,0-.21,0-.38a1.72,1.72,0,0,1,.13-.43,1.07,1.07,0,0,0,.08-.27.36.36,0,0,0,0-.1.68.68,0,0,0-.18-.35.63.63,0,0,1-.13-.31v-.08c0-.06,0-.11,0-.22v-.14a2.06,2.06,0,0,0-.13-.55,1.14,1.14,0,0,0-.12-.19l-.32-.39-.23-.31a.46.46,0,0,0-.1-.1,1.07,1.07,0,0,0-.37-.19c-.1,0-.13,0-.17-.11a.22.22,0,0,1,0-.13v-.11a.26.26,0,0,0-.08-.22.29.29,0,0,0-.2-.08l-.24,0a.27.27,0,0,1-.15,0c-.09,0-.11-.09-.16-.17a.48.48,0,0,0-.24-.25.45.45,0,0,0-.16,0,.59.59,0,0,0-.2,0,.76.76,0,0,1-.16,0l-.1,0a.27.27,0,0,1-.16-.11.67.67,0,0,0-.25-.18,1,1,0,0,0-.35-.07.79.79,0,0,0-.45.13Z"/></svg>