<svg id="Layer_1" data-name="Layer 1" xmlns="http://www.w3.org/2000/svg" viewBox="0 0 200 200"><defs><style>.cls-1{fill:#eaebec;opacity:0.65;}.cls-2,.cls-4{fill:none;}.cls-2,.cls-3,.cls-4{stroke:#48afb4;stroke-miterlimit:10;}.cls-2{stroke-linecap:round;stroke-width:3px;}.cls-3{fill:#fff;}.cls-5{fill:#48afb4;}</style></defs><path class="cls-1" d="M73.24,23.69C43.79,31.89,36,41,32.88,45.38c-5.52,7.74-1.1,8.81-6.67,22.05C18.73,85.23,11,85.71,5.83,97.57c-8.25,19.11-.72,44.82,17.64,56.24,14.1,8.76,20.73,6.31,55.65,12.86,25.23,4.74,24.81,10.16,42.33,11,6,.3,38.25,1.25,60-20.59C185.47,153,198,140.39,197.48,124c-.41-12.12-5.25-11.86-7.44-26.09-3-19.29,6.71-26.13,2-39.7-3.25-9.3-12.09-14.65-29.78-25.36-12.74-7.71-19.11-11.57-28.61-14C117.33,14.81,104.2,15.07,73.24,23.69Z"/><path class="cls-2" d="M116.66,55.47S151.26,55,159,86.56c.94,12.16,1.87,26.42,6.08,33.66s4.21,9.82,0,10.06-9.58,0-9.58,0,1,19.35,1.63,25c.6,5.29-4.55,8.41-14.66,8.18s-26.48,1.17-37.93-13.09"/><path class="cls-2" d="M69.81,118s4.21,14,9.12,19.63,6.78,28,2.34,38.11"/><path class="cls-2" d="M132,178.73s-3.05-10.45,2.1-15.39"/><path class="cls-3" d="M95,103.26a17.7,17.7,0,1,1,17.7-17.7A17.72,17.72,0,0,1,95,103.26Z"/><circle class="cls-4" cx="94.98" cy="85.56" r="12.7"/><circle class="cls-5" cx="94.98" cy="85.56" r="6.45"/><polygon class="cls-5" points="48.95 67.43 94.98 84.75 69.17 58.96 81.28 54.49 35.98 37.89 60.55 63.7 48.95 67.43"/><polygon class="cls-5" points="48.48 109 80.43 104.66 57.5 97.81 63.1 91.47 31.79 96 54.01 103.23 48.48 109"/><polygon class="cls-5" points="89.29 37.84 98.99 64.07 100.46 43.38 106.89 46.92 97.16 21.27 95.22 41.44 89.29 37.84"/></svg>