<svg id="Layer_1" data-name="Layer 1" xmlns="http://www.w3.org/2000/svg" viewBox="0 0 200 200"><defs><style>.cls-1{fill:#eaebec;opacity:0.65;}.cls-2{fill:#fff;}.cls-2,.cls-4,.cls-5{stroke:#48afb4;stroke-miterlimit:10;stroke-width:2px;}.cls-3{fill:#48afb4;}.cls-4,.cls-5{fill:none;}.cls-4{stroke-linecap:round;}.cls-5{stroke-linecap:square;}</style></defs><path class="cls-1" d="M73.24,23.69C43.79,31.89,36,41,32.88,45.38c-5.52,7.74-1.1,8.81-6.67,22.05C18.73,85.23,11,85.71,5.83,97.57c-8.25,19.11-.72,44.82,17.64,56.24,14.1,8.76,20.73,6.31,55.65,12.86,25.23,4.74,24.81,10.16,42.33,11,6,.3,38.25,1.25,60-20.59C185.47,153,198,140.39,197.48,124c-.41-12.12-5.25-11.86-7.44-26.09-3-19.29,6.71-26.13,2-39.7-3.25-9.3-12.09-14.65-29.78-25.36-12.74-7.71-19.11-11.57-28.61-14C117.33,14.81,104.2,15.07,73.24,23.69Z"/><rect class="cls-2" x="53.99" y="43.04" width="60" height="80" rx="10"/><path class="cls-3" d="M111,113V87.52c-11.34,2.14-25.77-1.88-36.75-6.27-5.45-2.18-11.63-1.57-17.25.06V113a7,7,0,0,0,7,7h40A7,7,0,0,0,111,113Z"/><line class="cls-4" x1="113.99" y1="59.1" x2="93.8" y2="59.1"/><line class="cls-4" x1="113.99" y1="69.1" x2="93.8" y2="69.1"/><line class="cls-4" x1="113.99" y1="64.1" x2="103.33" y2="64.1"/><line class="cls-4" x1="113.99" y1="79.1" x2="93.8" y2="79.1"/><line class="cls-4" x1="113.99" y1="74.1" x2="103.33" y2="74.1"/><circle class="cls-4" cx="83.99" cy="38.04" r="5"/><path class="cls-2" d="M76.49,123h15a0,0,0,0,1,0,0v4a4,4,0,0,1-4,4h-7a4,4,0,0,1-4-4v-4A0,0,0,0,1,76.49,123Z"/><rect class="cls-2" x="81.49" y="131.04" width="5" height="8"/><path class="cls-3" d="M145,116.53h-6a1,1,0,0,0,0,2h.5V123a2.5,2.5,0,0,0,1.5,2.29v3.21a1,1,0,0,0,2,0v-3.21a2.51,2.51,0,0,0,1.5-2.29v-4.5h.5a1,1,0,0,0,0-2Z"/><path class="cls-5" d="M84,139v10A17.91,17.91,0,0,0,101.9,167h0a17.91,17.91,0,0,0,17.91-17.91V90.2a11.1,11.1,0,0,1,11.1-11.1h0A11.1,11.1,0,0,1,142,90.2v24"/><path class="cls-3" d="M139.82,139.42h0a3.1,3.1,0,0,1-.45-3.82c.54-.88,1.11-1.75,1.61-2.65l1-1.84,1,1.84c.51.9,1.07,1.77,1.61,2.65a3.09,3.09,0,0,1-.44,3.82h0A3.1,3.1,0,0,1,139.82,139.42Z"/></svg>