<svg id="Layer_1" data-name="Layer 1" xmlns="http://www.w3.org/2000/svg" viewBox="0 0 200 200"><defs><style>.cls-1{fill:#eaebec;opacity:0.65;}.cls-2{fill:#48afb4;}.cls-3{fill:#fff;}.cls-3,.cls-4,.cls-5{stroke:#48afb4;stroke-miterlimit:10;}.cls-3,.cls-4{stroke-width:2px;}.cls-4,.cls-5{fill:none;stroke-linecap:round;}</style></defs><path class="cls-1" d="M73.24,24.74C43.79,32.94,36,42.05,32.88,46.43c-5.52,7.74-1.1,8.81-6.67,22.05C18.73,86.28,11,86.76,5.83,98.62c-8.25,19.11-.72,44.83,17.64,56.24,14.1,8.76,20.73,6.31,55.65,12.86,25.23,4.74,24.81,10.16,42.33,11,6,.3,38.25,1.26,60-20.58,4.06-4.09,16.63-16.73,16.07-33.08C197.07,113,192.23,113.22,190,99c-3-19.29,6.71-26.12,2-39.7-3.25-9.3-12.09-14.65-29.78-25.36-12.74-7.71-19.11-11.57-28.61-14C117.33,15.86,104.2,16.12,73.24,24.74Z"/><rect class="cls-2" x="47.46" y="93.65" width="26.84" height="8.95" rx="3"/><path class="cls-3" d="M71.68,107.81h0a1.49,1.49,0,0,1-1.49-1.49v-3.73H51.56v3.73a1.5,1.5,0,0,1-1.5,1.49h0a2.23,2.23,0,0,0-2.23,2.24V160a3.73,3.73,0,0,0,3.73,3.73H70.19A3.73,3.73,0,0,0,73.92,160V110.05A2.24,2.24,0,0,0,71.68,107.81Z"/><path class="cls-2" d="M64.67,132.36c-3.16-.75-5.45-1.49-8.05-1.85a17,17,0,0,0-8.79,1.42V160a3.73,3.73,0,0,0,3.73,3.73H70.19A3.73,3.73,0,0,0,73.92,160V133A28.43,28.43,0,0,1,64.67,132.36Z"/><path class="cls-3" d="M93.93,58.61s-4.28-.28-6.69,4.63c-.18.42-.78.74-.81,5.15S86.29,79.5,86,82.52c-.18,1.79-.66,4.63-1,6.64-.19,1.09-.41,2.17-.66,3.25a10.27,10.27,0,0,0,0,5.32c.94,2.73,2,6.2,1.89,8A10.19,10.19,0,0,1,84,111.62c-1.69,2.09-2.85,3.32-2.85,5.39v2.06l.14,37.34s.25,5.84,7.85,7,12.09-1.3,12.09-1.3,3.26-1.36,3.4-4.59.21-40,.21-40a6,6,0,0,0-1.71-4.26,11,11,0,0,1-3.18-6c-.13-1.68-.34-4.35.65-6.5s1.73-3.53,1.66-5.22a39.4,39.4,0,0,0-.83-5.4c-.23-1.16-1-6.42-1.1-7.92s-.42-6.52-.46-7.92,0-7.18,0-7.18S100,59.4,93.93,58.61Z"/><rect class="cls-2" x="80.98" y="120.77" width="23.51" height="35.04"/><path class="cls-3" d="M133.11,48.07h.2a6,6,0,0,1,6,6v6.2a0,0,0,0,1,0,0h-12.2a0,0,0,0,1,0,0v-6.2a6,6,0,0,1,6-6Z" transform="translate(0.55 -1.33) rotate(0.57)"/><path class="cls-3" d="M152.46,162.13l-5.08,0-30.5-.3-5.08-.05.08-8.14,5.08.06.86-85.4a8.12,8.12,0,0,1,8.21-8l14.23.14a8.12,8.12,0,0,1,8.05,8.21l-.85,85.4,5.08.05Z"/><line class="cls-4" x1="133.27" y1="48.07" x2="133.62" y2="12.5"/><line class="cls-5" x1="122.05" y1="153.72" x2="142.38" y2="153.92"/><line class="cls-4" x1="132.98" y1="76.54" x2="148.23" y2="76.7"/><line class="cls-5" x1="138.98" y1="86.77" x2="148.13" y2="86.86"/><line class="cls-4" x1="132.78" y1="96.88" x2="148.03" y2="97.03"/><line class="cls-5" x1="138.78" y1="107.1" x2="147.93" y2="107.2"/><line class="cls-4" x1="132.58" y1="117.21" x2="147.83" y2="117.36"/><line class="cls-5" x1="138.58" y1="127.44" x2="147.73" y2="127.53"/><line class="cls-5" x1="138.63" y1="122.35" x2="147.78" y2="122.45"/><line class="cls-5" x1="138.52" y1="132.52" x2="147.67" y2="132.61"/><line class="cls-5" x1="138.83" y1="102.02" x2="147.98" y2="102.11"/><line class="cls-5" x1="138.73" y1="112.19" x2="147.88" y2="112.28"/><line class="cls-5" x1="139.03" y1="81.69" x2="148.18" y2="81.78"/><line class="cls-5" x1="138.93" y1="91.86" x2="148.08" y2="91.95"/><line class="cls-4" x1="132.37" y1="137.54" x2="147.62" y2="137.69"/><rect class="cls-2" x="114.11" y="182.26" width="35.58" height="5.08" rx="2.5" transform="translate(1.85 -1.31) rotate(0.57)"/><rect class="cls-2" x="121.86" y="167.01" width="20.33" height="10.17" transform="translate(305.44 41.79) rotate(90.57)"/></svg>