<svg id="Layer_1" data-name="Layer 1" xmlns="http://www.w3.org/2000/svg" viewBox="0 0 200 200"><defs><style>.cls-1{fill:#eaebec;opacity:0.65;}.cls-2{fill:#fff;}.cls-3{fill:#48afb4;}</style></defs><path class="cls-1" d="M73.24,29.17C43.79,37.37,36,46.48,32.88,50.86c-5.52,7.74-1.1,8.81-6.67,22C18.73,90.71,11,91.19,5.83,103.05c-8.25,19.11-.72,44.83,17.64,56.24,14.1,8.76,20.73,6.31,55.65,12.86,25.23,4.74,24.81,10.16,42.33,11,6,.3,38.25,1.26,60-20.58,4.06-4.09,16.63-16.73,16.07-33.08-.41-12.13-5.25-11.87-7.44-26.1-3-19.29,6.71-26.12,2-39.7-3.25-9.3-12.09-14.65-29.78-25.36-12.74-7.71-19.11-11.57-28.61-14C117.33,20.29,104.2,20.55,73.24,29.17Z"/><path class="cls-2" d="M157.25,78.24v23.93a1.45,1.45,0,0,1-.48,1,5.48,5.48,0,0,1-2.35,1.24,13.32,13.32,0,0,1-3.7.49,12,12,0,0,1-4.67-.84,4.17,4.17,0,0,1-1.38-.89,1.45,1.45,0,0,1-.48-1V78.24a1.47,1.47,0,0,1,.48-1A5.48,5.48,0,0,1,147,76a13.32,13.32,0,0,1,3.7-.49,12,12,0,0,1,4.67.84,4.45,4.45,0,0,1,1.38.89A1.47,1.47,0,0,1,157.25,78.24Z"/><path class="cls-3" d="M157.05,77a5.76,5.76,0,0,0-2.52-1.34,13.36,13.36,0,0,0-3.81-.51,12.53,12.53,0,0,0-4.83.87,4.7,4.7,0,0,0-1.5,1,1.83,1.83,0,0,0-.58,1.27v23.93a1.87,1.87,0,0,0,.58,1.28,6,6,0,0,0,2.52,1.34,13.72,13.72,0,0,0,3.81.51,12.7,12.7,0,0,0,4.83-.88,4.86,4.86,0,0,0,1.5-1,1.87,1.87,0,0,0,.58-1.28V78.24A1.83,1.83,0,0,0,157.05,77Zm.2,25.2a1.45,1.45,0,0,1-.48,1,5.48,5.48,0,0,1-2.35,1.24,13.32,13.32,0,0,1-3.7.49,12,12,0,0,1-4.67-.84,4.17,4.17,0,0,1-1.38-.89,1.45,1.45,0,0,1-.48-1V78.24a1.47,1.47,0,0,1,.48-1A5.48,5.48,0,0,1,147,76a13.32,13.32,0,0,1,3.7-.49,12,12,0,0,1,4.67.84,4.45,4.45,0,0,1,1.38.89,1.47,1.47,0,0,1,.48,1Z"/><path class="cls-2" d="M172.14,82.21v23.93a1.42,1.42,0,0,1-.47,1,5.48,5.48,0,0,1-2.35,1.24,13.3,13.3,0,0,1-3.7.5A12,12,0,0,1,161,108a4,4,0,0,1-1.38-.89,1.43,1.43,0,0,1-.48-1V82.21a1.47,1.47,0,0,1,.48-1A5.48,5.48,0,0,1,161.92,80a13.26,13.26,0,0,1,3.7-.49,12.19,12.19,0,0,1,4.67.84,4.57,4.57,0,0,1,1.38.89A1.45,1.45,0,0,1,172.14,82.21Z"/><path class="cls-3" d="M171.94,80.94a5.77,5.77,0,0,0-2.51-1.34,13.78,13.78,0,0,0-3.81-.51,12.53,12.53,0,0,0-4.83.87,4.88,4.88,0,0,0-1.5,1,1.85,1.85,0,0,0-.58,1.27v23.93a1.87,1.87,0,0,0,.58,1.28,5.87,5.87,0,0,0,2.52,1.34,13.72,13.72,0,0,0,3.81.51,12.24,12.24,0,0,0,4.82-.88,4.63,4.63,0,0,0,1.5-1,1.84,1.84,0,0,0,.59-1.28V82.21A1.82,1.82,0,0,0,171.94,80.94Zm.2,25.2a1.42,1.42,0,0,1-.47,1,5.48,5.48,0,0,1-2.35,1.24,13.3,13.3,0,0,1-3.7.5A12,12,0,0,1,161,108a4,4,0,0,1-1.38-.89,1.43,1.43,0,0,1-.48-1V82.21a1.47,1.47,0,0,1,.48-1A5.48,5.48,0,0,1,161.92,80a13.26,13.26,0,0,1,3.7-.49,12.19,12.19,0,0,1,4.67.84,4.57,4.57,0,0,1,1.38.89,1.45,1.45,0,0,1,.47,1Z"/><path class="cls-3" d="M128.27,113.92c0-1.15-.07-2.33-.11-3.54-.37-10.8-10-23.28-10-23.28H64.84c-3.91,5.22-5.77,9.5-8.38,17.69a30.44,30.44,0,0,0-1.28,9.13h0l.13,3.44a79.68,79.68,0,0,0,3.57,17.41c3.36,10.8,19.56,9.68,19.56,9.68s16.2.37,28.12,0,16-4.66,19-9.68a20.73,20.73,0,0,0,2.37-8l.37-11.68C128.29,114.68,128.28,114.3,128.27,113.92ZM127,126a17.42,17.42,0,0,1-17.4,17.4H75.09A17.41,17.41,0,0,1,57.69,126v-.76H127Z"/><path class="cls-3" d="M126.21,135.17c-3.42,5.77-8.07,9.69-19.63,10.05-3.52.11-7.76.17-12.61.17-8,0-15-.16-15.52-.17-.13,0-.59,0-1.3,0-3.71,0-16-.74-19-10.25a94.64,94.64,0,0,1-2.55-10l.54,14.57c0,11.22,8.15,20.37,19.37,20.37H108c13.74-1.4,19.51-9.36,19.51-20.58l.25-7.89A16.13,16.13,0,0,1,126.21,135.17Z"/><path class="cls-2" d="M126.05,126.22a16.46,16.46,0,0,1-16.45,16.25H75.09a16.46,16.46,0,0,1-16.45-16.25Z"/><path class="cls-3" d="M58.26,125.83V126a16.82,16.82,0,0,0,16.83,16.83H109.6A16.83,16.83,0,0,0,126.43,126v-.19Zm66.5,6.6a16.51,16.51,0,0,1-15.16,10H75.09a16.46,16.46,0,0,1-16.45-16.25h67.41A16.41,16.41,0,0,1,124.76,132.43Z"/><path class="cls-2" d="M118.41,102.8V103c0,5-4.31,9.51-10.94,12.26H76.54c-.73-.3-1.43-.63-2.11-1A73.71,73.71,0,0,1,86,109a105.19,105.19,0,0,1,32.4-6.19Z"/><path class="cls-2" d="M118.41,112.5c0,5-4.31,9.51-10.94,12.26V116c5.37-2.18,9.33-5.46,10.93-9.28v5.4C118.41,112.27,118.41,112.38,118.41,112.5Z"/><polygon class="cls-2" points="106.81 116.04 106.81 124.76 77.25 124.76 77.23 124.75 77.23 116.04 106.81 116.04"/><path class="cls-2" d="M118.36,102c-27.4.89-44.71,11.8-44.71,11.8a16.81,16.81,0,0,1-6.88-6.41l47.54-12.54A11.41,11.41,0,0,1,118.36,102Z"/><path class="cls-2" d="M92,87.87A41.84,41.84,0,0,1,105.52,90c-12,8.3-36.51,9.77-39.36,9.91C68.63,93,79.27,87.87,92,87.87Z"/><path class="cls-2" d="M65.91,100.69s27.71-1.07,40.5-10.37a25.18,25.18,0,0,1,7.09,3.89L66.26,106.32a8.9,8.9,0,0,1-.35-5.63Z"/><path class="cls-2" d="M65.61,106.7c1.58,3.84,5.55,7.14,10.93,9.32v8.73c-6.62-2.75-10.93-7.21-10.93-12.25Z"/><rect class="cls-3" x="104.73" y="77.02" width="6.7" height="9.33"/><rect class="cls-3" x="100.95" y="56.29" width="2.61" height="6.31"/><path class="cls-3" d="M108,57.26h-3.89v4.39h1.78v14.8h4.28v-17A2.17,2.17,0,0,0,108,57.26Z"/><path class="cls-3" d="M99.59,49.28h-31a.72.72,0,0,0-.72.72V69.7a.72.72,0,0,0,.72.72h31a.72.72,0,0,0,.72-.72V50A.72.72,0,0,0,99.59,49.28ZM98.18,66.77a1.43,1.43,0,0,1-1.43,1.43H71.69a1.43,1.43,0,0,1-1.43-1.43V53.12a1.43,1.43,0,0,1,1.43-1.43H96.75a1.43,1.43,0,0,1,1.43,1.43Z"/><rect class="cls-3" x="71.02" y="52.45" width="26.4" height="14.99" rx="0.67"/><ellipse class="cls-3" cx="92.57" cy="133.18" rx="4.54" ry="3.56"/><path class="cls-3" d="M92.57,137.12A5.06,5.06,0,0,1,88,134.7v2.53c0,2,2,3.56,4.54,3.56s4.54-1.6,4.54-3.56V134.7A5.07,5.07,0,0,1,92.57,137.12Z"/><path class="cls-3" d="M87.05,135.26c0,1.05-1.32,1.89-3,1.89s-3-.84-3-1.89,1.32-1.88,3-1.88S87.05,134.22,87.05,135.26Z"/><path class="cls-3" d="M75.13,134c0,1-1.32,1.89-2.95,1.89s-3-.85-3-1.89,1.32-1.88,3-1.88S75.13,132.92,75.13,134Z"/><ellipse class="cls-3" cx="103.87" cy="133.38" rx="2.16" ry="1.49"/><ellipse class="cls-3" cx="112.46" cy="133.38" rx="2.16" ry="1.49"/><path class="cls-3" d="M113.26,135.26H103a1.89,1.89,0,1,1,0-3.77h10.31a1.89,1.89,0,1,1,0,3.77Z"/><path class="cls-3" d="M51.86,99.74h3.32V91.9H49.47v8.32A6.14,6.14,0,0,1,51.86,99.74Z"/><path class="cls-3" d="M48.8,117.32a1.93,1.93,0,0,0,1.91,2.1H64.05v3.44h-14a4.87,4.87,0,0,1-4.81-5.33l1.06-11.89a5.59,5.59,0,0,1,5.53-5.13H64.05v3.16H52.47a2.65,2.65,0,0,0-2.62,2.39Z"/><path class="cls-3" d="M171.94,80.94a5.77,5.77,0,0,0-2.51-1.34,13.72,13.72,0,0,0-3.81-.51,12.53,12.53,0,0,0-4.83.87,4.88,4.88,0,0,0-1.5,1,1.85,1.85,0,0,0-.58,1.27,1.87,1.87,0,0,0,.58,1.28,5.87,5.87,0,0,0,2.52,1.34,13.72,13.72,0,0,0,3.81.51,12.24,12.24,0,0,0,4.82-.88,4.63,4.63,0,0,0,1.5-1,1.84,1.84,0,0,0,.59-1.28A1.82,1.82,0,0,0,171.94,80.94Zm-.27,2.28a5.48,5.48,0,0,1-2.35,1.24,13.3,13.3,0,0,1-3.7.5,12,12,0,0,1-4.67-.85,4,4,0,0,1-1.38-.89,1.43,1.43,0,0,1-.48-1,1.47,1.47,0,0,1,.48-1A5.48,5.48,0,0,1,161.92,80a13.26,13.26,0,0,1,3.7-.49,12.19,12.19,0,0,1,4.67.84,4.57,4.57,0,0,1,1.38.89,1.45,1.45,0,0,1,.47,1A1.42,1.42,0,0,1,171.67,83.22Z"/><path class="cls-2" d="M172.14,82.21a1.42,1.42,0,0,1-.47,1,5.48,5.48,0,0,1-2.35,1.24,13.3,13.3,0,0,1-3.7.5,12,12,0,0,1-4.67-.85,4,4,0,0,1-1.38-.89,1.43,1.43,0,0,1-.48-1,1.47,1.47,0,0,1,.48-1A5.48,5.48,0,0,1,161.92,80a13.26,13.26,0,0,1,3.7-.49,12.19,12.19,0,0,1,4.67.84,4.57,4.57,0,0,1,1.38.89A1.45,1.45,0,0,1,172.14,82.21Z"/><path class="cls-2" d="M38.43,47.37V71.3a1.45,1.45,0,0,1-.47,1,5.48,5.48,0,0,1-2.35,1.24,13.32,13.32,0,0,1-3.7.49,12.09,12.09,0,0,1-4.68-.84,4.22,4.22,0,0,1-1.37-.89,1.47,1.47,0,0,1-.48-1V47.37a1.47,1.47,0,0,1,.48-1,5.42,5.42,0,0,1,2.35-1.24,13.26,13.26,0,0,1,3.7-.49,12,12,0,0,1,4.67.84,4.39,4.39,0,0,1,1.38.89A1.45,1.45,0,0,1,38.43,47.37Z"/><path class="cls-3" d="M38.23,46.1a5.77,5.77,0,0,0-2.51-1.35,13.79,13.79,0,0,0-3.81-.5,12.53,12.53,0,0,0-4.83.87,4.7,4.7,0,0,0-1.5,1A1.83,1.83,0,0,0,25,47.37V71.3a1.83,1.83,0,0,0,.58,1.27,5.88,5.88,0,0,0,2.52,1.35,13.74,13.74,0,0,0,3.81.5,12.47,12.47,0,0,0,4.82-.87,4.49,4.49,0,0,0,1.5-1,1.79,1.79,0,0,0,.58-1.27V47.37A1.79,1.79,0,0,0,38.23,46.1Zm.2,25.2a1.45,1.45,0,0,1-.47,1,5.48,5.48,0,0,1-2.35,1.24,13.32,13.32,0,0,1-3.7.49,12.09,12.09,0,0,1-4.68-.84,4.22,4.22,0,0,1-1.37-.89,1.47,1.47,0,0,1-.48-1V47.37a1.47,1.47,0,0,1,.48-1,5.42,5.42,0,0,1,2.35-1.24,13.26,13.26,0,0,1,3.7-.49,12,12,0,0,1,4.67.84,4.39,4.39,0,0,1,1.38.89,1.45,1.45,0,0,1,.47,1Z"/><path class="cls-3" d="M38.62,47.37h-.19a1.45,1.45,0,0,1-.47,1,5.48,5.48,0,0,1-2.35,1.24,13.32,13.32,0,0,1-3.7.49,12.28,12.28,0,0,1-4.68-.84,4.39,4.39,0,0,1-1.37-.89,1.47,1.47,0,0,1-.48-1,1.45,1.45,0,0,1,.48-1,5.42,5.42,0,0,1,2.35-1.24,13.25,13.25,0,0,1,3.7-.5,12,12,0,0,1,4.67.85,4.39,4.39,0,0,1,1.38.89,1.43,1.43,0,0,1,.47,1h.38a1.83,1.83,0,0,0-.58-1.28,5.87,5.87,0,0,0-2.51-1.34,13.78,13.78,0,0,0-3.81-.51,12.33,12.33,0,0,0-4.83.88,4.86,4.86,0,0,0-1.5,1A1.87,1.87,0,0,0,25,47.37a1.85,1.85,0,0,0,.58,1.27A5.87,5.87,0,0,0,28.1,50a13.72,13.72,0,0,0,3.81.51,12.47,12.47,0,0,0,4.82-.87,4.64,4.64,0,0,0,1.5-1,1.81,1.81,0,0,0,.58-1.27Z"/><path class="cls-3" d="M30.16,56.35a7.49,7.49,0,0,0-5,.14V71.3c0,1.62,3,2.93,6.72,2.93s6.71-1.31,6.71-2.93V58C36.57,58.48,33.47,57.46,30.16,56.35Z"/><path class="cls-3" d="M157.44,78.24h-.19a1.47,1.47,0,0,1-.48,1,5.48,5.48,0,0,1-2.35,1.24,13.32,13.32,0,0,1-3.7.49,12,12,0,0,1-4.67-.84,4.33,4.33,0,0,1-1.38-.89,1.47,1.47,0,0,1-.48-1,1.45,1.45,0,0,1,.48-1A5.48,5.48,0,0,1,147,76a13.32,13.32,0,0,1,3.7-.49,12,12,0,0,1,4.67.84,4.27,4.27,0,0,1,1.38.89,1.45,1.45,0,0,1,.48,1h.38a1.87,1.87,0,0,0-.58-1.28,6,6,0,0,0-2.52-1.34,13.72,13.72,0,0,0-3.81-.51,12.7,12.7,0,0,0-4.83.88,4.86,4.86,0,0,0-1.5,1,1.87,1.87,0,0,0-.58,1.28,1.85,1.85,0,0,0,.58,1.27,5.76,5.76,0,0,0,2.52,1.34,13.36,13.36,0,0,0,3.81.51,12.53,12.53,0,0,0,4.83-.87,4.88,4.88,0,0,0,1.5-1,1.85,1.85,0,0,0,.58-1.27Z"/><polyline class="cls-3" points="156.21 99.79 156.14 99.77 156.04 100.14 156.11 100.16"/><path class="cls-3" d="M173.71,105.08a9.5,9.5,0,0,0-3.26-1.47l-.15,0-14-3.76-.05,0h0a18.5,18.5,0,0,0-5.49-.78,17,17,0,0,0-6.58,1.19,6.37,6.37,0,0,0-2,1.32,2.43,2.43,0,0,0-.77,1.69,2.71,2.71,0,0,0,1.2,2.08,8.84,8.84,0,0,0,3.05,1.45l.1,0,.4.11,2.4.64,12,3.23.38.1a18.91,18.91,0,0,0,4.78.58,16.88,16.88,0,0,0,6.57-1.19,6.15,6.15,0,0,0,2-1.32,2.44,2.44,0,0,0,.78-1.69A2.79,2.79,0,0,0,173.71,105.08Zm.24,3.58a7.53,7.53,0,0,1-3.25,1.71,18.05,18.05,0,0,1-5.08.68,18.51,18.51,0,0,1-4.68-.57l-.38-.1-12-3.22-2.41-.65-.39-.11-.1,0h0l-.06.18.05-.18a8.64,8.64,0,0,1-2.92-1.39,2.36,2.36,0,0,1-1.05-1.78,2,2,0,0,1,.67-1.43,7.54,7.54,0,0,1,3.24-1.71,18.18,18.18,0,0,1,5.09-.68,18,18,0,0,1,5.38.77h0l0,0h0l14,3.76.15,0a9.23,9.23,0,0,1,3.13,1.4,2.41,2.41,0,0,1,1.14,1.85A2.09,2.09,0,0,1,174,108.66Z"/><path class="cls-2" d="M174.62,107.23a2.09,2.09,0,0,1-.67,1.43,7.53,7.53,0,0,1-3.25,1.71,18.05,18.05,0,0,1-5.08.68,18.51,18.51,0,0,1-4.68-.57l-.38-.1-12-3.22-2.41-.65-.39-.11-.1,0h0a8.64,8.64,0,0,1-2.92-1.39,2.36,2.36,0,0,1-1.05-1.78,2,2,0,0,1,.67-1.43,7.54,7.54,0,0,1,3.24-1.71,18.18,18.18,0,0,1,5.09-.68,18,18,0,0,1,5.38.77h0l0,0h0l14,3.76.15,0a9.23,9.23,0,0,1,3.13,1.4A2.41,2.41,0,0,1,174.62,107.23Z"/><polygon class="cls-3" points="145.7 106.38 145.64 106.56 145.69 106.38 145.7 106.38"/><path class="cls-3" d="M134.21,105.52h3.62a5.59,5.59,0,0,0-5.52-5H120.13v3.16H131.7A2.64,2.64,0,0,1,134.21,105.52Z"/><path class="cls-3" d="M138.33,111.1h-3.54l.58,6.22a1.93,1.93,0,0,1-1.91,2.1H120.13v3.44h14a4.87,4.87,0,0,0,4.81-5.33Z"/><rect class="cls-3" x="126.72" y="106.28" width="14.02" height="4.05"/><path class="cls-3" d="M165.62,112a19.51,19.51,0,0,1-4.92-.6l-15.25-4.11a8,8,0,0,1-3.92-2.18v6.13c0,1.34,1.5,2.53,3.82,3.25l.07,0,1.1.3h0l13.86,3.74.82.22a19.05,19.05,0,0,0,4.38.49c5.08,0,9.19-1.8,9.19-4v-6.13C173.34,110.85,169.87,112,165.62,112Z"/><path class="cls-3" d="M46.09,40.08V83.57a3.69,3.69,0,0,0,3.69,3.68,1.42,1.42,0,0,1,1,.41,1.4,1.4,0,0,1,.41,1v11h2.29v-11A3.69,3.69,0,0,0,49.78,85a1.42,1.42,0,0,1-1-.41,1.37,1.37,0,0,1-.41-1V40.08Z"/><rect class="cls-3" x="43.42" y="54.48" width="7.62" height="2.95"/><rect class="cls-3" x="37.96" y="59.33" width="5.86" height="1.91"/><rect class="cls-3" x="44.38" y="57.43" width="5.72" height="5.72"/><rect class="cls-3" x="29.14" y="73.58" width="5.54" height="2.14"/><rect class="cls-3" x="29.83" y="73.58" width="4.15" height="6.63"/><path class="cls-3" d="M31.34,79.09h0a24.64,24.64,0,0,1,.24,3.69A27.68,27.68,0,0,1,30,92.12a25.84,25.84,0,0,0-1.95,8.66A11.9,11.9,0,0,0,30,107.33a18.91,18.91,0,0,0,6.93,6.06A27.11,27.11,0,0,0,50.3,117a21.46,21.46,0,0,0,7.6-1.24l-.43-1.06h0a20.59,20.59,0,0,1-7.16,1.16,26,26,0,0,1-12.83-3.47,17.88,17.88,0,0,1-6.53-5.69,10.69,10.69,0,0,1-1.7-5.93,24.5,24.5,0,0,1,1.87-8.27,28.6,28.6,0,0,0,1.61-9.72,25.55,25.55,0,0,0-.25-3.88l-1.13.18Z"/><path class="cls-3" d="M117.05,94a20.75,20.75,0,0,0,3.92-.9,17.7,17.7,0,0,0,3.4-1.49A11.09,11.09,0,0,0,127.45,89c.66-.82,1.43-2,2.36-3.21a30,30,0,0,1,5.13-5.66,11.34,11.34,0,0,1,7.12-2.79,12.38,12.38,0,0,1,6.3,1.92,16,16,0,0,1,4.94,4.21,6.15,6.15,0,0,1,1.24,3.57,6.33,6.33,0,0,1-1.13,3.46,8.73,8.73,0,0,1-.79,1l-.26.26-.07.07h0l.1.12-.1-.12h0l.1.12-.1-.12.75.87a9.32,9.32,0,0,0,1.33-1.57,7.45,7.45,0,0,0,1.32-4.1,7.28,7.28,0,0,0-1.45-4.23,16.66,16.66,0,0,0-5.29-4.53,13.38,13.38,0,0,0-6.88-2.08,11.25,11.25,0,0,0-5.52,1.47,21.81,21.81,0,0,0-6.13,5.46c-.82,1-1.55,2-2.2,2.9s-1.2,1.68-1.66,2.26a9.73,9.73,0,0,1-2.76,2.29,18,18,0,0,1-4.62,1.81c-.67.17-1.23.28-1.63.34l-.46.07-.12,0h0l.12,1.14Z"/><path class="cls-3" d="M163.87,91.2a7.43,7.43,0,0,0-5,.14v14.8c0,1.62,3,2.94,6.72,2.94s6.71-1.32,6.71-2.94V92.89C170.28,93.32,167.18,92.3,163.87,91.2Z"/><path class="cls-3" d="M149,87.22a7.49,7.49,0,0,0-5,.14v14.81c0,1.62,3,2.93,6.72,2.93s6.72-1.31,6.72-2.93V88.92C155.38,89.35,152.28,88.33,149,87.22Z"/><path class="cls-3" d="M119.36,96a32.88,32.88,0,0,0,4.91-.89,26.06,26.06,0,0,0,4.26-1.48,13.49,13.49,0,0,0,3.85-2.54c.84-.82,1.82-2,3-3.22a34,34,0,0,1,6.51-5.66A16.83,16.83,0,0,1,151,79.36a19,19,0,0,1,8.09,2,19.27,19.27,0,0,1,6.29,4.23,6.52,6.52,0,0,1,1.22,1.87,4.35,4.35,0,0,1,.34,1.65,4.45,4.45,0,0,1-.44,1.89,7.25,7.25,0,0,1-1.52,2.1,8.41,8.41,0,0,1-.65.58l-.19.15-.05,0h0l.11.16-.1-.16h0l.11.16-.1-.16.64.94a8.68,8.68,0,0,0,1.67-1.55,8.15,8.15,0,0,0,1.15-1.78,5.69,5.69,0,0,0,.54-2.37,6.42,6.42,0,0,0-1.84-4.28,20.7,20.7,0,0,0-6.67-4.51A20.14,20.14,0,0,0,151,78.21a17.15,17.15,0,0,0-6.87,1.46,26.64,26.64,0,0,0-7.71,5.43c-1,1-2,2-2.78,2.9s-1.52,1.68-2.1,2.25a12.22,12.22,0,0,1-3.53,2.32,26.87,26.87,0,0,1-5.91,1.83c-.85.17-1.57.28-2.08.35l-.59.07-.16,0h0l.1,1.14Z"/></svg>