<svg id="Layer_1" data-name="Layer 1" xmlns="http://www.w3.org/2000/svg" viewBox="0 0 200 200"><defs><style>.cls-1{fill:#eaebec;opacity:0.65;}.cls-2,.cls-6{fill:#fff;}.cls-2,.cls-3,.cls-4{stroke:#48afb4;stroke-miterlimit:10;}.cls-2,.cls-3{stroke-width:2px;}.cls-3,.cls-4{fill:none;stroke-linecap:round;}.cls-5{fill:#48afb4;}</style></defs><path class="cls-1" d="M73.24,26.62C43.79,34.82,36,43.93,32.88,48.31c-5.52,7.74-1.1,8.81-6.67,22C18.73,88.16,11,88.64,5.83,100.5c-8.25,19.11-.72,44.83,17.64,56.24,14.1,8.76,20.73,6.31,55.65,12.86,25.23,4.74,24.81,10.16,42.33,11,6,.3,38.25,1.26,60-20.58C185.47,156,198,143.32,197.48,127c-.41-12.13-5.25-11.87-7.44-26.1-3-19.29,6.71-26.12,2-39.7-3.25-9.3-12.09-14.65-29.78-25.36-12.74-7.71-19.11-11.57-28.61-14C117.33,17.74,104.2,18,73.24,26.62Z"/><path class="cls-2" d="M71.31,48.07h.2a6,6,0,0,1,6,6v6.2a0,0,0,0,1,0,0H65.31a0,0,0,0,1,0,0v-6.2a6,6,0,0,1,6-6Z" transform="translate(0.54 -0.71) rotate(0.57)"/><path class="cls-2" d="M90.66,162.13l-5.08,0-30.5-.3L50,161.73l.08-8.14,5.08.06L56,68.25a8.12,8.12,0,0,1,8.21-8l14.23.14a8.13,8.13,0,0,1,8.06,8.21L85.66,154l5.09.05Z"/><line class="cls-3" x1="71.47" y1="48.07" x2="71.82" y2="12.5"/><line class="cls-4" x1="60.25" y1="153.72" x2="80.58" y2="153.92"/><line class="cls-3" x1="71.19" y1="76.54" x2="86.43" y2="76.7"/><line class="cls-4" x1="77.18" y1="86.77" x2="86.33" y2="86.86"/><line class="cls-3" x1="70.98" y1="96.88" x2="86.23" y2="97.03"/><line class="cls-4" x1="76.98" y1="107.1" x2="86.13" y2="107.2"/><line class="cls-3" x1="70.78" y1="117.21" x2="86.03" y2="117.36"/><line class="cls-4" x1="76.78" y1="127.44" x2="85.93" y2="127.53"/><line class="cls-4" x1="76.83" y1="122.35" x2="85.98" y2="122.45"/><line class="cls-4" x1="76.73" y1="132.52" x2="85.88" y2="132.61"/><line class="cls-4" x1="77.03" y1="102.02" x2="86.18" y2="102.11"/><line class="cls-4" x1="76.93" y1="112.19" x2="86.08" y2="112.28"/><line class="cls-4" x1="77.23" y1="81.69" x2="86.38" y2="81.78"/><line class="cls-4" x1="77.13" y1="91.86" x2="86.28" y2="91.95"/><line class="cls-3" x1="70.58" y1="137.54" x2="85.83" y2="137.69"/><rect class="cls-5" x="52.31" y="182.26" width="35.58" height="5.08" rx="2.5" transform="translate(1.85 -0.69) rotate(0.57)"/><rect class="cls-5" x="60.06" y="167.01" width="20.33" height="10.17" transform="translate(243.02 103.59) rotate(90.57)"/><path class="cls-5" d="M81.41,87.14H112.9a0,0,0,0,1,0,0v28.62a0,0,0,0,1,0,0H81.41A14.31,14.31,0,0,1,67.1,101.45v0A14.31,14.31,0,0,1,81.41,87.14Z" transform="translate(62.78 -31.41) rotate(30)"/><path class="cls-6" d="M120.89,100.87l26.39-15.24a13.31,13.31,0,1,1,13.31,23.05L134.2,123.92Z"/><path class="cls-5" d="M153.93,84.84a12.32,12.32,0,0,1,11.9,15.5,12.19,12.19,0,0,1-5.74,7.47l-25.53,14.75-12.31-21.33,25.53-14.74a12.35,12.35,0,0,1,6.15-1.65m0-2a14.3,14.3,0,0,0-7.15,1.92L119.52,100.5l14.31,24.79,27.26-15.74A14.31,14.31,0,0,0,166.33,90h0a14.3,14.3,0,0,0-12.4-7.16Z"/><circle class="cls-5" cx="115.89" cy="117.68" r="3.43"/><circle class="cls-5" cx="122.76" cy="127.82" r="3.43"/><circle class="cls-5" cx="114.28" cy="138" r="3.43"/><circle class="cls-5" cx="126.19" cy="145.59" r="3.43"/><circle class="cls-5" cx="110.88" cy="130.11" r="2.29"/><circle class="cls-5" cx="122.76" cy="137.89" r="2.29"/><circle class="cls-5" cx="117.75" cy="154.87" r="2.29"/><circle class="cls-5" cx="126.19" cy="119.11" r="1.43"/><circle class="cls-5" cx="129.63" cy="134.17" r="1.43"/><circle class="cls-5" cx="105.73" cy="136.46" r="1.43"/><circle class="cls-5" cx="109.45" cy="145.59" r="1.43"/><circle class="cls-5" cx="116.61" cy="147.01" r="1.43"/><circle class="cls-5" cx="108.59" cy="123.86" r="1.43"/><circle class="cls-5" cx="116.61" cy="125.29" r="1.43"/><circle class="cls-5" cx="120.47" cy="110.07" r="1.43"/></svg>