<svg id="Layer_1" data-name="Layer 1" xmlns="http://www.w3.org/2000/svg" viewBox="0 0 200 200"><defs><style>.cls-1{fill:#eaebec;opacity:0.65;}.cls-2{fill:#48afb4;}.cls-3,.cls-6{fill:none;}.cls-3,.cls-4,.cls-6{stroke:#48afb4;stroke-linecap:round;}.cls-3,.cls-4{stroke-linejoin:round;stroke-width:4px;}.cls-4,.cls-5{fill:#fff;}.cls-6{stroke-miterlimit:10;stroke-width:3px;}</style></defs><path class="cls-1" d="M73.24,23.69C43.79,31.89,36,41,32.88,45.38c-5.52,7.74-1.1,8.81-6.67,22.05C18.73,85.23,11,85.71,5.83,97.57c-8.25,19.11-.72,44.82,17.64,56.24,14.1,8.76,20.73,6.31,55.65,12.86,25.23,4.74,24.81,10.16,42.33,11,6,.3,38.25,1.25,60-20.59C185.47,153,198,140.39,197.48,124c-.41-12.12-5.25-11.86-7.44-26.09-3-19.29,6.71-26.13,2-39.7-3.25-9.3-12.09-14.65-29.78-25.36-12.74-7.71-19.11-11.57-28.61-14C117.33,14.81,104.2,15.07,73.24,23.69Z"/><path class="cls-2" d="M134,93.12a26,26,0,0,1,24.67,18.27,24.23,24.23,0,0,1,1.13,6.94,26.57,26.57,0,0,1-.78,7.16,20.44,20.44,0,0,1-4.82,8.44c-1.7,1.88-3.57,3.6-5.33,5.43a20.14,20.14,0,0,0-5.75,12c-.11,1-.15,2-.18,3a13.43,13.43,0,0,1-8.08,12.58,13.62,13.62,0,0,1-14.42-2.11,14.11,14.11,0,0,1-4.32-6.92,12.53,12.53,0,0,1-.43-3.33,2.58,2.58,0,1,1,5.15,0,8.47,8.47,0,0,0,9.25,8.37,8.38,8.38,0,0,0,7.57-6.93,17.67,17.67,0,0,0,.19-2.62,24.61,24.61,0,0,1,5.82-15.85c1.86-2.22,4-4.16,6-6.23a18.63,18.63,0,0,0,3.77-5.33,14.52,14.52,0,0,0,1.09-4.27,22,22,0,0,0-.53-7.91,20.49,20.49,0,0,0-4.06-8,20.07,20.07,0,0,0-6.93-5.46,20.69,20.69,0,0,0-26.73,7.9,21,21,0,0,0-3,10.67,2.57,2.57,0,0,1-4.76,1.37,2.38,2.38,0,0,1-.37-1.28,25.32,25.32,0,0,1,1.33-8.19,25.93,25.93,0,0,1,13.17-15.07A25.21,25.21,0,0,1,134,93.12Z"/><path class="cls-2" d="M125.83,120.28c0,.62,0,1.23,0,1.84s.2.69.69.79a11.16,11.16,0,0,1,7.6,5.52,11.29,11.29,0,0,1-5.43,15.89,11.08,11.08,0,0,1-10-.57,2.56,2.56,0,0,1,2.18-4.63,16.17,16.17,0,0,0,1.93.77,6.11,6.11,0,0,0,6.42-9.52,6,6,0,0,0-5.18-2.54,3.19,3.19,0,0,1-2.46-.71,2.68,2.68,0,0,1-.82-1.86,65,65,0,0,1-.2-6.68A14.83,14.83,0,0,1,132,105.12a14.2,14.2,0,0,1,10.58,1.61,14.44,14.44,0,0,1,6.92,9.28,10.06,10.06,0,0,1,.35,3.7,2.47,2.47,0,0,1-2.69,2.22,2.57,2.57,0,0,1-2.4-2.5,11.28,11.28,0,0,0-.62-3.36,9.47,9.47,0,0,0-18.21,1.76A16.71,16.71,0,0,0,125.83,120.28Z"/><path class="cls-3" d="M51.05,31.88S76.88,65.8,111.42,74.51c0,0-43.57,9.34-60.37,34.86"/><path class="cls-4" d="M99.79,77.78C87.13,81.92,67.09,90.24,55,104.24,47.31,97.55,42.16,85,42.16,70.62s5.25-27.18,13-33.81c7.34,8.3,23.88,25,44.91,33.87A3.79,3.79,0,0,1,99.79,77.78Z"/><path class="cls-4" d="M55,104.24a46.73,46.73,0,0,0-3.9,5.12"/><path class="cls-4" d="M55.18,36.81c-2.68-3-4.13-4.94-4.13-4.94"/><ellipse class="cls-2" cx="47.06" cy="70.62" rx="10.64" ry="24.15"/><ellipse class="cls-5" cx="43.24" cy="55.17" rx="5.29" ry="2.33" transform="translate(-23.12 77.73) rotate(-70.69)"/><line class="cls-6" x1="154.98" y1="45" x2="45.02" y2="155"/></svg>