<svg id="Layer_1" data-name="Layer 1" xmlns="http://www.w3.org/2000/svg" viewBox="0 0 200 200"><defs><style>.cls-1{fill:#eaebec;opacity:0.65;}.cls-2,.cls-6,.cls-7,.cls-8{fill:#fff;}.cls-2,.cls-3,.cls-4,.cls-6,.cls-7,.cls-8{stroke:#48afb4;stroke-miterlimit:10;}.cls-2,.cls-3{stroke-width:2px;}.cls-3,.cls-4{fill:none;}.cls-3,.cls-4,.cls-6,.cls-8{stroke-linecap:round;}.cls-5{fill:#48afb4;}.cls-7,.cls-8{stroke-width:3px;}</style></defs><path class="cls-1" d="M73.24,26.62C43.79,34.82,36,43.93,32.88,48.31c-5.52,7.74-1.1,8.81-6.67,22C18.73,88.16,11,88.64,5.83,100.5c-8.25,19.11-.72,44.83,17.64,56.24,14.1,8.76,20.73,6.31,55.65,12.86,25.23,4.74,24.81,10.16,42.33,11,6,.3,38.25,1.26,60-20.58C185.47,156,198,143.32,197.48,127c-.41-12.13-5.25-11.87-7.44-26.1-3-19.29,6.71-26.12,2-39.7-3.25-9.3-12.09-14.65-29.78-25.36-12.74-7.71-19.11-11.57-28.61-14C117.33,17.74,104.2,18,73.24,26.62Z"/><path class="cls-2" d="M81.32,138.32h1a6,6,0,0,1,6,6v7a0,0,0,0,1,0,0h-13a0,0,0,0,1,0,0v-7a6,6,0,0,1,6-6Z" transform="translate(65.77 310.35) rotate(-145)"/><path class="cls-2" d="M129.84,38.5l4.43,3.1,26.58,18.61,4.43,3.1-5,7.09-4.43-3.1-52.11,74.41a8.65,8.65,0,0,1-12,2.12l-12.4-8.68a8.66,8.66,0,0,1-2.12-12.05l52.1-74.41-4.43-3.1Z"/><line class="cls-3" x1="78.09" y1="150.12" x2="56.39" y2="181.12"/><line class="cls-4" x1="151.47" y1="64.18" x2="133.75" y2="51.77"/><line class="cls-3" x1="95.46" y1="125.31" x2="82.18" y2="116"/><line class="cls-4" x1="96.35" y1="112.73" x2="88.38" y2="107.15"/><line class="cls-3" x1="107.87" y1="107.59" x2="94.58" y2="98.29"/><line class="cls-4" x1="108.76" y1="95.01" x2="100.78" y2="89.43"/><line class="cls-3" x1="120.28" y1="89.87" x2="106.99" y2="80.57"/><line class="cls-4" x1="121.16" y1="77.29" x2="113.19" y2="71.71"/><line class="cls-4" x1="118.06" y1="81.72" x2="110.09" y2="76.14"/><line class="cls-4" x1="124.26" y1="72.86" x2="116.29" y2="67.28"/><line class="cls-4" x1="105.66" y1="99.44" x2="97.68" y2="93.86"/><line class="cls-4" x1="111.86" y1="90.58" x2="103.89" y2="85"/><line class="cls-4" x1="93.25" y1="117.16" x2="85.28" y2="111.57"/><line class="cls-4" x1="99.45" y1="108.3" x2="91.48" y2="102.72"/><line class="cls-3" x1="132.68" y1="72.16" x2="119.39" y2="62.85"/><rect class="cls-5" x="142.59" y="28.27" width="37.85" height="5.41" rx="2.5" transform="translate(276.06 148.99) rotate(-145)"/><rect class="cls-5" x="142.95" y="36.64" width="21.63" height="10.81" transform="matrix(0.57, -0.82, 0.82, 0.57, 31.13, 143.89)"/><circle class="cls-2" cx="57.41" cy="53.88" r="35"/><path class="cls-6" d="M52.94,81a27.29,27.29,0,0,1-6.78-2"/><path class="cls-6" d="M84.91,53.88a27.53,27.53,0,0,1-27.5,27.5"/><circle class="cls-7" cx="57.41" cy="53.88" r="22.5"/><polyline class="cls-8" points="56.41 41.88 56.41 56.88 71.41 56.88"/></svg>