<svg id="Layer_1" data-name="Layer 1" xmlns="http://www.w3.org/2000/svg" viewBox="0 0 200 200"><defs><style>.cls-1{fill:#eaebec;opacity:0.65;}.cls-2,.cls-5{fill:#fff;}.cls-2{stroke:#48afb4;stroke-width:2px;}.cls-2,.cls-4{stroke-miterlimit:10;}.cls-3{fill:#48afb4;}.cls-4{fill:none;stroke:#fff;}</style></defs><path class="cls-1" d="M73.24,26.62C43.79,34.82,36,43.93,32.88,48.31c-5.52,7.74-1.1,8.81-6.67,22C18.73,88.16,11,88.64,5.83,100.5c-8.25,19.11-.72,44.83,17.64,56.24,14.1,8.76,20.73,6.31,55.65,12.86,25.23,4.74,24.81,10.16,42.33,11,6,.3,38.25,1.26,60-20.58C185.47,156,198,143.32,197.48,127c-.41-12.13-5.25-11.87-7.44-26.1-3-19.29,6.71-26.12,2-39.7-3.25-9.3-12.09-14.65-29.78-25.36-12.74-7.71-19.11-11.57-28.61-14C117.33,17.74,104.2,18,73.24,26.62Z"/><path class="cls-2" d="M97.16,54.73v-8.1H55.64v8.1A13.83,13.83,0,0,0,41.8,68.57v62.28a13.84,13.84,0,0,0,13.84,13.84H97.16A13.84,13.84,0,0,0,111,130.85V68.57A13.84,13.84,0,0,0,97.16,54.73Z"/><rect class="cls-3" x="48.72" y="32.5" width="55.36" height="14.82" rx="5"/><rect class="cls-3" x="41.8" y="79.39" width="69.2" height="41.52"/><path class="cls-3" d="M86,163.76a5,5,0,0,1-4.47-7.24l33.58-67.16a5,5,0,0,1,9,0l33.58,67.16a5,5,0,0,1-4.47,7.24Z"/><path class="cls-4" d="M153.2,161.76H86a3,3,0,0,1-2.68-4.34l33.58-67.17a3,3,0,0,1,5.37,0l33.58,67.17A3,3,0,0,1,153.2,161.76Z"/><path class="cls-5" d="M135.47,147.74c-.18-.16-.37.08-.52.21l-.31.31a7.36,7.36,0,0,1-6.43,1.88c-4.91-.85-7.55-5.56-5.91-10.4.12-.34.41-.7,0-1.05s-.73-.14-1.11.08a2.25,2.25,0,0,1-2.19,0c-.41-.2-.77-.5-1.19-.11s-.06.77.07,1.13a7.3,7.3,0,0,1-.85,7A7.59,7.59,0,0,1,105.38,148c-.18-.17-.38-.61-.68-.3s.12.53.3.74a9.36,9.36,0,0,0,2.89,2.26,11.06,11.06,0,0,0,11.59-.62.89.89,0,0,1,1.12-.08,10.43,10.43,0,0,0,4.08,1.78,12.37,12.37,0,0,0,2.49.26c.55,0,1.1-.09,1.65-.17a10.6,10.6,0,0,0,6.48-3.57C135.44,148.16,135.73,148,135.47,147.74Z"/><path class="cls-5" d="M103.17,142.7a7.21,7.21,0,0,0,.22,1.9c0,.23.25.58-.14.66s-.37-.3-.46-.54a10.42,10.42,0,0,1,.2-7.63,10.72,10.72,0,0,1,5.25-5.79,1.44,1.44,0,0,0,.87-1.59,11,11,0,0,1,5.77-10.33,9.73,9.73,0,0,1,3-1.1c.24,0,.6-.22.68.13s-.32.35-.56.42a7.66,7.66,0,0,0,.75,14.9c.34.06.74,0,.93.38.27.53,0,.88-.47,1.11a1.93,1.93,0,0,0-1.19,2.05.79.79,0,0,1-.49.92c-.45.2-.62-.13-.85-.4a7.61,7.61,0,0,0-11.77-.12A7.26,7.26,0,0,0,103.17,142.7Z"/><path class="cls-5" d="M129.86,135a7.63,7.63,0,0,0-6.46,2.84c-.2.24-.38.54-.78.39a.77.77,0,0,1-.53-.88,2,2,0,0,0-1.25-2.12c-.39-.18-.64-.42-.56-.88s.49-.51.88-.57a7.6,7.6,0,0,0,5.63-11.22,7.32,7.32,0,0,0-4.61-3.68c-.26-.07-.72-.06-.62-.44s.5-.15.77-.09A11,11,0,0,1,131,129.17a2.19,2.19,0,0,0,1.31,2.31,11.09,11.09,0,0,1,5.22,13,1.83,1.83,0,0,1-.08.25c-.12.22-.11.63-.44.56s-.15-.45-.1-.67a8,8,0,0,0,.11-3.31A7.27,7.27,0,0,0,129.86,135Z"/><path class="cls-5" d="M120.18,127.09a10.55,10.55,0,0,1,5.46,1.75c.57.38.64.77.23,1.29-.15.19-.28.38-.42.57-.47.66-.91.81-1.73.31a6.78,6.78,0,0,0-7.47.06c-.65.39-1,.34-1.47-.2-1.16-1.37-1.13-1.66.45-2.52A10.65,10.65,0,0,1,120.18,127.09Z"/><path class="cls-5" d="M112.87,137.09a7.09,7.09,0,0,0,3.8,6.31c.35.2.85.31.75.85a3.44,3.44,0,0,1-1,2c-.21.19-.5,0-.73-.16a9.93,9.93,0,0,1-5.58-9.92c0-.47.24-.69.71-.69h.79C112.76,135.52,112.93,135.7,112.87,137.09Z"/><path class="cls-5" d="M130,137.57a9.8,9.8,0,0,1-5.36,8.39c-.91.5-1.12.42-1.56-.48-.67-1.34-.61-1.47.65-2.26a7.12,7.12,0,0,0,3.48-6.4c0-.39-.19-.9.36-1s1.51-.6,2.1-.12S130,137,130,137.57Z"/><path class="cls-4" d="M88.38,112.88h-24a1.08,1.08,0,0,1-1-1.55l12-24a1.07,1.07,0,0,1,1.91,0l12,24A1.07,1.07,0,0,1,88.38,112.88Z"/><path class="cls-5" d="M76.37,109.93A1.35,1.35,0,0,1,75,108.48,1.38,1.38,0,0,1,76.37,107a1.43,1.43,0,0,1,1.44,1.46A1.39,1.39,0,0,1,76.37,109.93Zm0-15.42c.62,0,1.3.14,1.32.77a6.39,6.39,0,0,1-.07.89c-.16,1.75-.61,5.85-.79,8.56h-.89c-.21-2.71-.61-6.69-.8-8.54,0-.29-.06-.7-.06-.93C75.06,94.67,75.71,94.51,76.35,94.51Z"/></svg>