<svg id="Layer_1" data-name="Layer 1" xmlns="http://www.w3.org/2000/svg" viewBox="0 0 200 200"><defs><style>.cls-1{fill:#eaebec;opacity:0.65;}.cls-2{fill:#48afb4;}.cls-3{fill:#fff;}</style></defs><path class="cls-1" d="M73.24,26.62C43.79,34.82,36,43.93,32.88,48.31c-5.52,7.74-1.1,8.81-6.67,22C18.73,88.16,11,88.64,5.83,100.5c-8.25,19.11-.72,44.83,17.64,56.24,14.1,8.76,20.73,6.31,55.65,12.86,25.23,4.74,24.81,10.16,42.33,11,6,.3,38.25,1.26,60-20.58C185.47,156,198,143.32,197.48,127c-.41-12.13-5.25-11.87-7.44-26.1-3-19.29,6.71-26.12,2-39.7-3.25-9.3-12.09-14.65-29.78-25.36-12.74-7.71-19.11-11.57-28.61-14C117.33,17.74,104.2,18,73.24,26.62Z"/><path class="cls-2" d="M175,46.19a19.47,19.47,0,0,1-7.28,11.55,17.92,17.92,0,0,1-20.21.81,1.73,1.73,0,0,0-2.62.29Q132.16,71.68,119.33,84.4a1.48,1.48,0,0,0-.2,2.32,22.78,22.78,0,0,1,0,26.61c-.89,1.29-.24,1.83.51,2.59L156.73,153a6.61,6.61,0,0,1,.7.7c1.17,1.6,2.44,1.89,4.45,1.16,4.81-1.72,10.38,1.08,12.42,5.9.21.5.47,1,.7,1.47v4.93a11.84,11.84,0,0,1-7.89,7.89h-4.93c-.44-.21-.87-.45-1.32-.64A10.34,10.34,0,0,1,155.1,161a2,2,0,0,0-.52-2.59q-19.43-19.38-38.8-38.81c-.89-.89-1.56-1.14-2.62-.25a14.17,14.17,0,0,1-4.17,2.26,1.41,1.41,0,0,0-1,2c.9,3.72,1.69,7.47,2.48,11.22a2,2,0,0,0,1.83,1.74,10.36,10.36,0,0,1,8.56,10,10.41,10.41,0,0,1-19.92,4.36,10.19,10.19,0,0,1,3.37-12.58,2.15,2.15,0,0,0,1-2.59c-.85-3.57-1.68-7.14-2.41-10.73-.25-1.24-.85-1.58-2-1.55a23.35,23.35,0,0,1-16-5.71,18.5,18.5,0,0,1-3-3.23,1.29,1.29,0,0,0-2-.44c-7.15,3.93-14.33,7.8-21.51,11.69-2.16,1.17-4.32,2.36-6.51,3.49a1.65,1.65,0,0,0-1.06,2,12.94,12.94,0,0,1-12.43,15.41A12.72,12.72,0,0,1,25.1,135.51c-.87-7.61,3.78-13.55,11.34-14.66A12.19,12.19,0,0,1,47,124.39a1.52,1.52,0,0,0,2.13.24c9-4.9,18-9.75,27-14.62,2.19-1.18,2.19-1.19,1.51-3.55a22.32,22.32,0,0,1,3-19.28c.9-1.37.76-2.08-.34-3.14-3.4-3.26-6.71-6.61-10-10a2.11,2.11,0,0,0-2.69-.64,9.62,9.62,0,0,1-11.17-2.35A9.74,9.74,0,0,1,54.17,60c1.7-4.18,5-6.55,9.39-6.57A10.23,10.23,0,0,1,73.5,67.36a2.36,2.36,0,0,0,.68,3.1q5.14,5,10.11,10.11c.91.94,1.55,1,2.62.22a22.74,22.74,0,0,1,26.21,0c1.19.8,1.82.62,2.75-.32q12.62-12.7,25.33-25.33a1.76,1.76,0,0,0,.34-2.62c-3.5-5.79-3.84-11.9-.65-17.83s8.44-9.34,15.51-9.7a18.17,18.17,0,0,1,18.18,13.7c.1.42.28.83.42,1.24Z"/><path class="cls-3" d="M82.06,100.11a18,18,0,1,0,18-18A17.94,17.94,0,0,0,82.06,100.11Z"/><path class="cls-3" d="M157.15,30.39a12.6,12.6,0,0,0-13,12.59,12.77,12.77,0,1,0,25.54.34A12.46,12.46,0,0,0,157.15,30.39Z"/><path class="cls-3" d="M30.37,133.72a7.56,7.56,0,1,0,15.12,0,7.56,7.56,0,1,0-15.12,0Z"/><path class="cls-3" d="M68.79,63.76a4.84,4.84,0,0,0-5-5,5,5,0,0,0-5.09,5.1,4.89,4.89,0,0,0,5,5A4.77,4.77,0,0,0,68.79,63.76Z"/><path class="cls-3" d="M110.35,151.63a4.91,4.91,0,0,0,5.08-4.89,5,5,0,0,0-5-5.16,5,5,0,0,0-5.06,5.11A4.82,4.82,0,0,0,110.35,151.63Z"/><path class="cls-3" d="M169.71,164.7a4.88,4.88,0,0,0-4.93-5,5.11,5.11,0,0,0-5.12,5.1,4.9,4.9,0,0,0,5,4.95A4.76,4.76,0,0,0,169.71,164.7Z"/><path class="cls-2" d="M113,99.49c0,1.8-.78,2.91-2.24,3.1s-2.61-.72-3-2.57c-1-5.21-2.62-6.78-7.83-7.73a2.68,2.68,0,0,1-2.49-2.9A2.83,2.83,0,0,1,100.35,87C107,87.1,112.89,93,113,99.49Z"/><path class="cls-2" d="M164.81,42.76a2.81,2.81,0,0,1-2.33,2.93,2.6,2.6,0,0,1-2.9-2.09,3.29,3.29,0,0,0-3-3.1,2.61,2.61,0,0,1-2.21-2.82,2.87,2.87,0,0,1,3.06-2.39A8.06,8.06,0,0,1,164.81,42.76Z"/></svg>