<svg id="Layer_1" data-name="Layer 1" xmlns="http://www.w3.org/2000/svg" viewBox="0 0 200 200"><defs><style>.cls-1{fill:#eaebec;opacity:0.65;}.cls-2{fill:#fff;stroke:#48afb4;stroke-miterlimit:10;stroke-width:3px;}.cls-3{fill:#48afb4;}</style></defs><path class="cls-1" d="M73.24,23.69C43.79,31.89,36,41,32.88,45.38c-5.52,7.74-1.1,8.81-6.67,22.05C18.73,85.23,11,85.71,5.83,97.57c-8.25,19.11-.72,44.82,17.64,56.24,14.1,8.76,20.73,6.31,55.65,12.86,25.23,4.74,24.81,10.16,42.33,11,6,.3,38.25,1.25,60-20.59C185.47,153,198,140.39,197.48,124c-.41-12.12-5.25-11.86-7.44-26.09-3-19.29,6.71-26.13,2-39.7-3.25-9.3-12.09-14.65-29.78-25.36-12.74-7.71-19.11-11.57-28.61-14C117.33,14.81,104.2,15.07,73.24,23.69Z"/><path class="cls-2" d="M160,101.19a49.4,49.4,0,0,1-1.36,12A59.12,59.12,0,0,1,139,145.66a58,58,0,0,1-35.7,14.24,59.12,59.12,0,0,1-14.3-.82,59.88,59.88,0,0,1-30.67-15.86,59.07,59.07,0,0,1-16.87-29.84,49.26,49.26,0,0,1-1.26-7.33c-.21-2.56-.14-5.13-.15-7.7a43.17,43.17,0,0,1,.35-6.22A61.38,61.38,0,0,1,47,71.66a59.23,59.23,0,0,1,25.7-25.2A56.06,56.06,0,0,1,100.2,40a51.46,51.46,0,0,1,6.39.18A62.06,62.06,0,0,1,118.91,43,59.31,59.31,0,0,1,145,60.16a60.28,60.28,0,0,1,13.24,25.12,54.32,54.32,0,0,1,1.58,8.46C160,96.22,159.92,98.71,160,101.19Z"/><path class="cls-3" d="M99.73,148.08A48.85,48.85,0,0,0,121,143.23c.73-.35,1.45-.7,2.17-1.07s.82-.45.36-1.28c-1.75-3.13-3.49-6.27-5.27-9.39-3.94-6.92-7.9-13.82-11.94-20.68-.51-.86-.53-.92-1.39-.49-2.42,1.22-5,1.1-7.53.83a8.74,8.74,0,0,1-2.16-.73c-1.07-.39-1.14-.37-1.72.6-4.53,7.68-9,15.42-13.4,23.16-1.25,2.17-2.48,4.34-3.71,6.52-.43.75-.42.84.33,1.28a42.42,42.42,0,0,0,8.9,3.88A45.93,45.93,0,0,0,99.73,148.08Z"/><path class="cls-3" d="M70.18,100c5.81,0,11.62,0,17.43,0,.68,0,.92-.18,1-.89a11.63,11.63,0,0,1,5.09-8.72c.51-.37.52-.65.22-1.17q-8.75-15-17.48-30.07c-.43-.74-.49-.77-1.27-.33a39.36,39.36,0,0,0-6,4.27,47.88,47.88,0,0,0-17,32.17c-.13,1.27-.24,2.55-.34,3.83-.06.81,0,.9.84.9Z"/><path class="cls-3" d="M129.89,100h17.43c.88,0,.89,0,.84-.94a58.12,58.12,0,0,0-1.09-8.92,47.63,47.63,0,0,0-13.95-25,46.24,46.24,0,0,0-7.72-6l-.51-.29c-.81-.43-.85-.42-1.31.37q-8.73,15-17.45,30c-.36.62-.2.89.3,1.25a11.68,11.68,0,0,1,4.83,7.41,8.64,8.64,0,0,1,.19,1.42c0,.58.28.72.82.72,2.76,0,5.53,0,8.29,0Z"/><path class="cls-3" d="M92.52,100.13a7.37,7.37,0,0,0,7.19,7.31,7.34,7.34,0,1,0,.06-14.67A7.29,7.29,0,0,0,92.52,100.13Z"/></svg>