<svg id="Layer_1" data-name="Layer 1" xmlns="http://www.w3.org/2000/svg" viewBox="0 0 200 200"><defs><style>.cls-1{fill:#eaebec;opacity:0.65;}.cls-2,.cls-6{fill:#fff;}.cls-2,.cls-4,.cls-5{stroke:#48afb4;stroke-miterlimit:10;stroke-width:2px;}.cls-3{fill:#48afb4;}.cls-4,.cls-5{fill:none;}.cls-4{stroke-linecap:round;}</style></defs><path class="cls-1" d="M73.24,26.62C43.79,34.82,36,43.93,32.88,48.31c-5.52,7.74-1.1,8.81-6.67,22C18.73,88.16,11,88.64,5.83,100.5c-8.25,19.11-.72,44.83,17.64,56.24,14.1,8.76,20.73,6.31,55.65,12.86,25.23,4.74,24.81,10.16,42.33,11,6,.3,38.25,1.26,60-20.58C185.47,156,198,143.32,197.48,127c-.41-12.13-5.25-11.87-7.44-26.1-3-19.29,6.71-26.12,2-39.7-3.25-9.3-12.09-14.65-29.78-25.36-12.74-7.71-19.11-11.57-28.61-14C117.33,17.74,104.2,18,73.24,26.62Z"/><circle class="cls-2" cx="100" cy="100" r="37.5"/><circle class="cls-3" cx="100" cy="100" r="32.5"/><circle class="cls-2" cx="45.53" cy="45.82" r="15"/><line class="cls-4" x1="56.14" y1="56.43" x2="70.28" y2="70.57"/><circle class="cls-2" cx="154.47" cy="154.75" r="15"/><line class="cls-4" x1="143.86" y1="144.15" x2="129.72" y2="130"/><circle class="cls-2" cx="154.47" cy="45.82" r="15"/><line class="cls-4" x1="143.86" y1="56.43" x2="129.72" y2="70.57"/><circle class="cls-2" cx="45.53" cy="154.75" r="15"/><line class="cls-4" x1="56.14" y1="144.15" x2="70.28" y2="130"/><circle class="cls-2" cx="172.79" cy="100.29" r="15"/><line class="cls-5" x1="157.79" y1="100.29" x2="137.79" y2="100.29"/><circle class="cls-2" cx="27.21" cy="100.29" r="15"/><line class="cls-5" x1="42.21" y1="100.29" x2="62.21" y2="100.29"/><path class="cls-6" d="M86.65,84.94,88,89.87a.9.9,0,0,1-.64,1.1l-4.92,1.32Z"/><path class="cls-6" d="M100.66,89.32c.84-.23,1.68-.43,2.51-.69a1.56,1.56,0,0,0,1.08-1.95,1.58,1.58,0,0,0-.49-.82,1.74,1.74,0,0,0-1.17-.39h-.06l-1.15.3-1.55.41c-.09,0-.09,0-.07.12.14.49.27,1,.4,1.47l.39,1.48C100.58,89.34,100.58,89.34,100.66,89.32Z"/><path class="cls-6" d="M109,79,87.23,84.79l1.47,5.5a.9.9,0,0,1-.63,1.11l-5.51,1.47,7.38,27.53A.91.91,0,0,0,91,121l27.24-7.3a.89.89,0,0,0,.63-1.1l-8.85-33A.91.91,0,0,0,109,79ZM97.58,85.18s0-.06,0-.07l.07,0,2.68-.71c.64-.16,1.26-.34,1.9-.49l.34-.07a3.18,3.18,0,0,1,.69,0A2.9,2.9,0,0,1,105.47,85a3.14,3.14,0,0,1,.5,1,3.67,3.67,0,0,1,.21,1.18,2.77,2.77,0,0,1-.71,1.9,3.15,3.15,0,0,1-.86.68c-.12.06-.12.06,0,.14.62.49,1.24,1,1.88,1.45.12.09.1.08.15-.05.27-.65.54-1.3.8-1.95a.15.15,0,0,1,.12-.1l1.68-.44.07,0c.09,0,.1,0,.07.08l-.38,1c-.33.85-.67,1.69-1,2.54,0,.11,0,.11.05.18l1,.77,2,1.52v0h0l-1.76.48a.16.16,0,0,0-.1,0,.18.18,0,0,1-.2,0l-1.49-1.17c-.1-.07-.1-.07-.15,0-.16.34-.29.7-.43,1s-.22.55-.34.82l-2,.55,0-.06.75-1.83c.22-.55.45-1.09.65-1.64a.1.1,0,0,0,0-.15c-1-.81-2-1.6-3-2.39a.11.11,0,0,0-.13,0l-1.57.42c-.1,0-.1,0-.08.13.32,1.17.63,2.34.94,3.51,0,.09,0,.09-.06.12l-1.54.41c-.14,0-.12,0-.16-.09q-1.31-4.86-2.6-9.71Zm-9.81,15.54,13-3.49a.3.3,0,0,1,.37.21.31.31,0,0,1-.21.37l-13,3.49a.3.3,0,0,1-.37-.21A.29.29,0,0,1,87.77,100.72ZM115,109.58l-23.18,6.21a.3.3,0,0,1-.16-.58L114.83,109a.3.3,0,0,1,.37.21A.31.31,0,0,1,115,109.58Zm-.78-2.9L91,112.89a.3.3,0,1,1-.15-.58l23.18-6.21a.3.3,0,1,1,.15.58Zm-.77-2.9L90.25,110a.28.28,0,0,1-.36-.21.3.3,0,0,1,.21-.37l23.18-6.21a.3.3,0,1,1,.16.58Zm-.78-2.9L89.48,107.1a.31.31,0,0,1-.37-.22.29.29,0,0,1,.21-.36l23.18-6.22a.3.3,0,0,1,.37.22A.28.28,0,0,1,112.66,100.88ZM111.88,98,88.7,104.2a.3.3,0,1,1-.15-.58l23.18-6.21a.3.3,0,0,1,.37.21A.31.31,0,0,1,111.88,98Z"/></svg>