<svg id="Layer_1" data-name="Layer 1" xmlns="http://www.w3.org/2000/svg" viewBox="0 0 200 200"><defs><style>.cls-1{fill:#eaebec;opacity:0.65;}.cls-2{fill:#48afb4;}</style></defs><path class="cls-1" d="M73.24,23.69C43.79,31.89,36,41,32.88,45.38c-5.52,7.74-1.1,8.81-6.67,22.05C18.73,85.23,11,85.71,5.83,97.57c-8.25,19.11-.72,44.82,17.64,56.24,14.1,8.76,20.73,6.31,55.65,12.86,25.23,4.74,24.81,10.16,42.33,11,6,.3,38.25,1.25,60-20.59C185.47,153,198,140.39,197.48,124c-.41-12.12-5.25-11.86-7.44-26.09-3-19.29,6.71-26.13,2-39.7-3.25-9.3-12.09-14.65-29.78-25.36-12.74-7.71-19.11-11.57-28.61-14C117.33,14.81,104.2,15.07,73.24,23.69Z"/><path class="cls-2" d="M124.83,144.61,97.2,96.76,45.85,83a5.62,5.62,0,0,0-2.91,10.85L89.8,106.4l25.3,43.83a5.62,5.62,0,0,0,9.73-5.62Z"/><path class="cls-2" d="M50.36,108.55l31.17,8.35a3.74,3.74,0,0,0,1.94-7.23L52.3,101.31a3.75,3.75,0,0,0-1.94,7.24"/><path class="cls-2" d="M129.49,56.75l-8.36,31.17a3.75,3.75,0,0,0,7.24,1.94l8.35-31.17a3.74,3.74,0,1,0-7.23-1.94"/><path class="cls-2" d="M140.39,135.62,115.09,91.8l12.56-46.86A5.62,5.62,0,0,0,116.8,42L103,93.39l27.63,47.85a5.61,5.61,0,1,0,9.72-5.62Z"/><path class="cls-2" d="M93.09,100.86l15.56-9a.75.75,0,1,0-.75-1.3l-15.56,9a.75.75,0,1,0,.75,1.29"/><path class="cls-2" d="M96.83,107.35l15.57-9a.75.75,0,1,0-.75-1.29l-15.57,9a.75.75,0,0,0,.75,1.3"/><path class="cls-2" d="M62.21,71.71,73,53l20.13-5.39a2.2,2.2,0,0,1,1.14,4.25L75.94,56.73,66,73.91a2.2,2.2,0,1,1-3.81-2.2Z"/><path class="cls-2" d="M91.4,57.57,79.18,60.85A1.47,1.47,0,1,1,78.42,58l12.22-3.27a1.47,1.47,0,1,1,.76,2.83"/><path class="cls-2" d="M60.38,37.27l3.28,12.22a1.47,1.47,0,1,1-2.84.76L57.55,38a1.47,1.47,0,1,1,2.83-.76"/><path class="cls-2" d="M56.11,68.19,66,51,61.1,32.64a2.2,2.2,0,0,1,4.26-1.14l5.39,20.13L59.92,70.39a2.2,2.2,0,0,1-3.81-2.2Z"/><path class="cls-2" d="M74.65,54.56,68.55,51a.29.29,0,1,1,.29-.51l6.1,3.52a.31.31,0,0,1,.11.41.29.29,0,0,1-.4.1"/><path class="cls-2" d="M73.18,57.11l-6.1-3.53a.29.29,0,1,1,.29-.51l6.11,3.53a.29.29,0,0,1,.1.4.29.29,0,0,1-.4.11"/><path class="cls-2" d="M158.66,112.4l-8.16-11.3,2.14-13.24a1.41,1.41,0,0,1,1.62-1.17,1.42,1.42,0,0,1,1.18,1.62l-1.95,12.08L161,110.74a1.42,1.42,0,1,1-2.3,1.66Z"/><path class="cls-2" d="M158.05,91.54l-1.29,8a.95.95,0,1,1-1.87-.3l1.3-8a.94.94,0,1,1,1.86.3"/><path class="cls-2" d="M138,104.4l8,1.3a.94.94,0,1,1-.3,1.86l-8-1.29a.95.95,0,0,1,.3-1.87"/><path class="cls-2" d="M155,115.06l-7.47-10.35-12.08-1.95a1.42,1.42,0,0,1,.45-2.8l13.24,2.14,8.16,11.3a1.41,1.41,0,0,1-.32,2,1.43,1.43,0,0,1-2-.32Z"/><path class="cls-2" d="M151.87,100.58l-3.68,2.65a.18.18,0,0,1-.26,0,.19.19,0,0,1,0-.26l3.68-2.66a.18.18,0,0,1,.26,0,.18.18,0,0,1,0,.26"/><path class="cls-2" d="M153,102.11l-3.68,2.66a.18.18,0,0,1-.26,0,.19.19,0,0,1,0-.26l3.68-2.66a.18.18,0,0,1,.26,0,.19.19,0,0,1,0,.26"/><path class="cls-2" d="M71.59,166.4,79.92,150l-5.46-16.8a1.87,1.87,0,0,0-3.55,1.16l5,15.33-7.63,15a1.86,1.86,0,1,0,3.32,1.69Z"/><path class="cls-2" d="M68.16,139.13l3.31,10.19a1.25,1.25,0,1,0,2.37-.77l-3.31-10.19a1.25,1.25,0,0,0-2.37.77"/><path class="cls-2" d="M96.91,151.8l-10.19,3.31a1.25,1.25,0,1,0,.77,2.37l10.19-3.32a1.24,1.24,0,1,0-.77-2.36"/><path class="cls-2" d="M76.91,169.11l7.63-15,15.33-5a1.87,1.87,0,0,0-1.15-3.55l-16.8,5.46-8.33,16.36a1.86,1.86,0,1,0,3.32,1.69Z"/><path class="cls-2" d="M78,149.64l5.33,2.71a.25.25,0,1,0,.22-.44l-5.32-2.71a.23.23,0,0,0-.33.11.24.24,0,0,0,.1.33"/><path class="cls-2" d="M76.91,151.86l5.32,2.71a.25.25,0,0,0,.33-.11.26.26,0,0,0-.11-.34l-5.32-2.71a.25.25,0,0,0-.33.11.24.24,0,0,0,.11.34"/></svg>