<svg id="Layer_1" data-name="Layer 1" xmlns="http://www.w3.org/2000/svg" viewBox="0 0 200 200"><defs><style>.cls-1{fill:#eaebec;opacity:0.65;}.cls-2{fill:#48afb4;}.cls-3{fill:#fff;}</style></defs><path class="cls-1" d="M73.24,29.17C43.79,37.37,36,46.48,32.88,50.86c-5.52,7.74-1.1,8.81-6.67,22C18.73,90.71,11,91.19,5.83,103.05c-8.25,19.11-.72,44.83,17.64,56.24,14.1,8.76,20.73,6.31,55.65,12.86,25.23,4.74,24.81,10.16,42.33,11,6,.3,38.25,1.26,60-20.58,4.06-4.09,16.63-16.73,16.07-33.08-.41-12.13-5.25-11.87-7.44-26.1-3-19.29,6.71-26.12,2-39.7-3.25-9.3-12.09-14.65-29.78-25.36-12.74-7.71-19.11-11.57-28.61-14C117.33,20.29,104.2,20.55,73.24,29.17Z"/><path class="cls-2" d="M125.42,160l-.84,0h-.34a41.57,41.57,0,0,1-11.6-2l-.32-.1a68.74,68.74,0,0,0-11.58-2.49c-.78-.07-1.58-.11-2.38-.11a30,30,0,0,0-7.45,1c-1.28.32-2.55.66-3.83,1-2.32.62-4.72,1.25-7.11,1.81a32.14,32.14,0,0,1-7.34,1A22,22,0,0,1,68,159.5a19,19,0,0,1-10.94-6.95c-4.52-5.65-5.84-12.43-3.94-20.16a33.35,33.35,0,0,1,8.36-14.74c1.05-1.13,2.16-2.14,3.24-3.12s1.86-1.69,2.7-2.57a88.16,88.16,0,0,0,8.22-10.58c.42-.58.83-1.17,1.24-1.75a59.76,59.76,0,0,1,7.64-9.19,19.78,19.78,0,0,1,14-5.61,25.68,25.68,0,0,1,3.93.32c6.19,1,11.25,4.21,15.49,9.92,1.58,2.14,3,4.38,4.4,6.54.88,1.38,1.8,2.81,2.73,4.17a54.9,54.9,0,0,0,8.79,9.85,36.15,36.15,0,0,1,9.68,13.74,24.19,24.19,0,0,1,1.16,15.11,20.4,20.4,0,0,1-9.31,12.4A18.94,18.94,0,0,1,125.42,160Z"/><path class="cls-2" d="M117.77,86.58a14.64,14.64,0,0,1-9.89-3.8c-3.58-3.34-5.65-7.8-6.33-13.63l0-.29a14.38,14.38,0,0,1-.13-2.77,30,30,0,0,1,7-19.2,19.34,19.34,0,0,1,8.68-6.07,16.24,16.24,0,0,1,5-.82,14.66,14.66,0,0,1,12.29,6.88,22.39,22.39,0,0,1,3.74,11.3,29.8,29.8,0,0,1-4.28,17.87,22.47,22.47,0,0,1-10.61,9.46A14,14,0,0,1,117.77,86.58Z"/><path class="cls-2" d="M80.47,86A15.52,15.52,0,0,1,72,83.29a23.21,23.21,0,0,1-9-11.67c-3-8-2.69-15.58.82-22.5a15.33,15.33,0,0,1,9-8,14.46,14.46,0,0,1,4.46-.73,14.71,14.71,0,0,1,7.91,2.41c5.08,3.21,8.46,8,10.33,14.72a30.73,30.73,0,0,1,1.09,8.41v.06a23.68,23.68,0,0,1-4.09,13.32A14.76,14.76,0,0,1,80.47,86Z"/><path class="cls-2" d="M144.43,111.76a14.14,14.14,0,0,1-10.2-4.28,16,16,0,0,1-4.38-10.11c-.63-8.11,2.21-15.15,8.45-20.91a18,18,0,0,1,11.82-5.07h.54a13.49,13.49,0,0,1,12.06,6.85,18.06,18.06,0,0,1,2.5,9.8v.13c-.73,10.3-5.46,17.7-14.05,22A15.16,15.16,0,0,1,144.43,111.76Z"/><path class="cls-2" d="M54.64,111.73a14.71,14.71,0,0,1-5.53-1.11c-7-2.81-11.5-8.31-13.72-16.8a17.78,17.78,0,0,1-.59-5.51,18,18,0,0,1,2.88-10.67,13.62,13.62,0,0,1,11.54-6.42,15.1,15.1,0,0,1,6.87,1.7c7.06,3.62,11.34,9.83,12.7,18.46a19.8,19.8,0,0,1-2,12.68A13.82,13.82,0,0,1,54.64,111.73Z"/><polygon class="cls-3" points="115 121 104 121 104 110 96 110 96 121 85 121 85 129 96 129 96 140 104 140 104 129 115 129 115 121"/></svg>