<svg id="Layer_1" data-name="Layer 1" xmlns="http://www.w3.org/2000/svg" viewBox="0 0 200 200"><defs><style>.cls-1{fill:#eaebec;opacity:0.65;}.cls-2{fill:#48afb4;}.cls-3,.cls-5{fill:#fff;}.cls-3,.cls-4,.cls-5,.cls-6,.cls-7{stroke:#48afb4;stroke-miterlimit:10;stroke-width:2px;}.cls-4,.cls-6,.cls-7{fill:none;}.cls-4,.cls-5,.cls-6,.cls-7{stroke-linecap:round;}.cls-6{stroke-dasharray:4.19 4.19;}.cls-7{stroke-dasharray:6.03 6.03;}</style></defs><path class="cls-1" d="M73.24,24.74C43.79,32.94,36,42.05,32.88,46.43c-5.52,7.74-1.1,8.81-6.67,22.05C18.73,86.28,11,86.76,5.83,98.62c-8.25,19.11-.72,44.83,17.64,56.24,14.1,8.76,20.73,6.31,55.65,12.86,25.23,4.74,24.81,10.16,42.33,11,6,.3,38.25,1.26,60-20.58,4.06-4.09,16.63-16.73,16.07-33.08C197.07,113,192.23,113.22,190,99c-3-19.29,6.71-26.12,2-39.7-3.25-9.3-12.09-14.65-29.78-25.36-12.74-7.71-19.11-11.57-28.61-14C117.33,15.86,104.2,16.12,73.24,24.74Z"/><path class="cls-2" d="M125.85,125.08l8.58,30h3.32a3,3,0,0,0,3-3v-24a3,3,0,0,0-3-3Z"/><path class="cls-3" d="M35.26,68,49.89,151a8,8,0,0,0,7.88,6.61h73.29l-10-35H95.65L87.27,75A8,8,0,0,0,81,68.56L34.3,59.16"/><path class="cls-2" d="M38,56.35C38.52,56.28,78.32,64,78.32,64l-4-20.63a5.43,5.43,0,0,0-5.49-4.14H41.08c-3.46,0-6.09,2.81-5.49,5.87Z"/><line class="cls-4" x1="84.12" y1="122.58" x2="103.29" y2="122.58"/><path class="cls-5" d="M78.32,68,31.91,58.67A3,3,0,0,0,28.35,62l.49,3.42c.21,1.47,1.32,2.27,3,2.57l17.9,3"/><line class="cls-4" x1="46.5" y1="89.69" x2="44.68" y2="79.17"/><path class="cls-4" d="M97.61,149.69h-36a5.54,5.54,0,0,1-5.46-4.59L48.12,99"/><line class="cls-4" x1="116.18" y1="143.83" x2="121.06" y2="157.58"/><line class="cls-4" x1="106.18" y1="143.83" x2="111.06" y2="157.58"/><line class="cls-4" x1="111.18" y1="143.83" x2="116.06" y2="157.58"/><line class="cls-4" x1="145.75" y1="140.08" x2="148.25" y2="140.08"/><line class="cls-6" x1="152.44" y1="140.08" x2="167.09" y2="140.08"/><line class="cls-4" x1="169.19" y1="140.08" x2="171.69" y2="140.08"/><line class="cls-4" x1="145.55" y1="149.23" x2="147.72" y2="150.48"/><line class="cls-7" x1="152.94" y1="153.5" x2="160.78" y2="158.02"/><line class="cls-4" x1="163.39" y1="159.53" x2="165.55" y2="160.78"/><line class="cls-4" x1="145.55" y1="130.93" x2="147.72" y2="129.68"/><line class="cls-7" x1="152.94" y1="126.66" x2="160.78" y2="122.14"/><line class="cls-4" x1="163.39" y1="120.63" x2="165.55" y2="119.38"/></svg>