<svg id="Layer_1" data-name="Layer 1" xmlns="http://www.w3.org/2000/svg" viewBox="0 0 200 200"><defs><style>.cls-1{fill:#eaebec;opacity:0.65;}.cls-2{fill:#48afb4;}.cls-3{fill:#fff;}</style></defs><path class="cls-1" d="M73.24,29.17C43.79,37.37,36,46.48,32.88,50.86c-5.52,7.74-1.1,8.81-6.67,22C18.73,90.71,11,91.19,5.83,103.05c-8.25,19.11-.72,44.83,17.64,56.24,14.1,8.76,20.73,6.31,55.65,12.86,25.23,4.74,24.81,10.16,42.33,11,6,.3,38.25,1.26,60-20.58,4.06-4.09,16.63-16.73,16.07-33.08-.41-12.13-5.25-11.87-7.44-26.1-3-19.29,6.71-26.12,2-39.7-3.25-9.3-12.09-14.65-29.78-25.36-12.74-7.71-19.11-11.57-28.61-14C117.33,20.29,104.2,20.55,73.24,29.17Z"/><path class="cls-2" d="M165,105.35a3.61,3.61,0,0,0-.24-1.66,1.51,1.51,0,0,0-1.56-1,1.48,1.48,0,0,0-1.4,1.32,7.07,7.07,0,0,0-.05,1.3v17.87c0,.91,0,1.82,0,2.74,0,.38,0,.77-.54.86-1.38.21-1.92-.22-1.93-1.61,0-.52,0-1,0-1.57,0-2.32-.72-4.28-2.92-5.41a1.33,1.33,0,0,1-.72-1.4c0-1.86-.09-3.74,0-5.6.19-3.07-1.79-5.76-5.68-5.72-14.18.11-28.36,0-42.53,0a14.07,14.07,0,0,1-3-.32q-12.3-2.68-24.59-5.33c-2.55-.54-4,.33-4.92,2.81-.2.58-.42,1.15-.63,1.72-.68,1.83-1.38,3.66-2,5.51a1.61,1.61,0,0,0,.94,2.25c1,.39,1.66-.2,2.07-1.07.16-.35.27-.73.41-1.1.75-2,1.51-4,2.23-6,.26-.71.62-1.07,1.45-.89q7.57,1.66,15.16,3.28c.75.16.78.51.54,1.1-.41,1-.76,2-1.16,3a1.56,1.56,0,0,0,.85,2.26,1.51,1.51,0,0,0,2.1-1,18.63,18.63,0,0,0,1.13-3c.31-1.26.94-1.52,2.16-1.21a32,32,0,0,0,8.34,1.24c13-.08,25.92,0,38.88,0,.95,0,1.91,0,2.87,0,1.59,0,2.07.52,2.09,2.14s0,3.13,0,4.69c0,2,0,2-1.91,2H71.53a22.62,22.62,0,0,1-4.79-.47c-7.21-1.59-14.43-3.18-21.62-4.87-2.37-.56-4.66-1.14-7,.88,0-2.53,0-4.69,0-6.85,0-3.78,0-7.57,0-11.35a2.15,2.15,0,0,0-1.17-2.28c-.84-.35-1.4.19-1.94.71v62.34c0,2.09,0,2.09,2.09,2.09a2.77,2.77,0,0,0,1-2.41c0-1.95.07-3.91,0-5.86,0-1.28.42-1.61,1.66-1.61q37.29.06,74.59,0,23,0,45.91,0c1.13,0,1.54.29,1.5,1.46-.08,2.08,0,4.17,0,6.26a2.15,2.15,0,0,0,1.13,2.16h1A2.9,2.9,0,0,0,165,155Q165,130.2,165,105.35Z"/><path class="cls-3" d="M40.5,115.52c.67-.8,1.69-.54,2.58-.34,4.57,1,9.14,2.13,13.72,3.14,3.81.85,7.59,1.86,11.48,2.38a27.69,27.69,0,0,0,3.64.13h80.37a11.89,11.89,0,0,1,1.69,0,2.05,2.05,0,0,1,1.92,1.83,2.21,2.21,0,0,1,0,.25c.52,3.56.35,3.76-3.18,3.76H109.19c-14.52,0-29,0-43.57,0-3.24,0-6.25-1-9.32-1.74-4.82-1.12-9.62-2.37-14.42-3.57-1.06-.27-2.33-.49-2.48-1.78A5.32,5.32,0,0,1,40.5,115.52Z"/><path class="cls-2" d="M58.78,109.56c6.43,0,11.77-5.06,11.76-11.15S65.36,87.3,58.81,87.29,47,92.17,47,98.37C47.11,105,52.72,109.54,58.78,109.56Z"/><path class="cls-3" d="M58.88,90.52c4.7,0,8.39,3.47,8.4,7.81a8.32,8.32,0,0,1-8.56,8,8.22,8.22,0,0,1-8.34-8C50.41,93.86,54.09,90.49,58.88,90.52Z"/><polygon class="cls-2" points="124.44 92.2 137.77 92.2 137.77 73.87 156.1 73.87 156.1 60.53 137.77 60.53 137.77 42.2 124.44 42.2 124.44 60.53 106.1 60.53 106.1 73.87 124.44 73.87 124.44 92.2"/></svg>