<svg id="Layer_1" data-name="Layer 1" xmlns="http://www.w3.org/2000/svg" viewBox="0 0 200 200"><defs><style>.cls-1{fill:#eaebec;opacity:0.65;}.cls-2,.cls-3,.cls-4{fill:none;stroke:#48afb4;stroke-linecap:round;stroke-miterlimit:10;}.cls-2{stroke-width:15px;}.cls-3{stroke-width:10px;}.cls-4{stroke-width:2px;}.cls-5{fill:#48afb4;}</style></defs><path class="cls-1" d="M73.24,26.62C43.79,34.82,36,43.93,32.88,48.31c-5.52,7.74-1.1,8.81-6.67,22C18.73,88.16,11,88.64,5.83,100.5c-8.25,19.11-.72,44.83,17.64,56.24,14.1,8.76,20.73,6.31,55.65,12.86,25.23,4.74,24.81,10.16,42.33,11,6,.3,38.25,1.26,60-20.58C185.47,156,198,143.32,197.48,127c-.41-12.13-5.25-11.87-7.44-26.1-3-19.29,6.71-26.12,2-39.7-3.25-9.3-12.09-14.65-29.78-25.36-12.74-7.71-19.11-11.57-28.61-14C117.33,17.74,104.2,18,73.24,26.62Z"/><polyline class="cls-2" points="88 159.33 88 88.67 40 40.67"/><line class="cls-3" x1="37" y1="64.39" x2="67.46" y2="94.85"/><line class="cls-3" x1="163.08" y1="64.39" x2="132.61" y2="94.85"/><polyline class="cls-2" points="112 159.33 112 88.67 160 40.67"/><line class="cls-4" x1="88" y1="86.56" x2="112" y2="86.56"/><line class="cls-4" x1="88" y1="96.56" x2="112" y2="96.56"/><line class="cls-4" x1="112" y1="135.26" x2="136" y2="135.26"/><line class="cls-4" x1="63.3" y1="135.26" x2="87.3" y2="135.26"/><circle class="cls-5" cx="138.71" cy="132.54" r="5"/><circle class="cls-5" cx="143.08" cy="139.12" r="5"/><circle class="cls-5" cx="131.62" cy="135.41" r="5"/><circle class="cls-5" cx="140.56" cy="124.81" r="5"/><circle class="cls-5" cx="61.38" cy="132.54" r="5"/><circle class="cls-5" cx="57" cy="139.12" r="5"/><circle class="cls-5" cx="68.46" cy="135.41" r="5"/><circle class="cls-5" cx="59.52" cy="124.81" r="5"/></svg>