<svg id="Layer_1" data-name="Layer 1" xmlns="http://www.w3.org/2000/svg" viewBox="0 0 200 200"><defs><style>.cls-1{fill:#eaebec;opacity:0.65;}.cls-2,.cls-5{fill:#48afb4;}.cls-3,.cls-4{fill:#fff;}.cls-4{stroke:#48afb4;}.cls-4,.cls-5{stroke-miterlimit:10;stroke-width:2px;}.cls-5{stroke:#fff;}</style></defs><path class="cls-1" d="M73.24,26.62C43.79,34.82,36,43.93,32.88,48.31c-5.52,7.74-1.1,8.81-6.67,22C18.73,88.16,11,88.64,5.83,100.5c-8.25,19.11-.72,44.83,17.64,56.24,14.1,8.76,20.73,6.31,55.65,12.86,25.23,4.74,24.81,10.16,42.33,11,6,.3,38.25,1.26,60-20.58C185.47,156,198,143.32,197.48,127c-.41-12.13-5.25-11.87-7.44-26.1-3-19.29,6.71-26.12,2-39.7-3.25-9.3-12.09-14.65-29.78-25.36-12.74-7.71-19.11-11.57-28.61-14C117.33,17.74,104.2,18,73.24,26.62Z"/><path class="cls-2" d="M153.24,105.77c1.12.91,2.12,1.67,3.06,2.49,5,4.37,6.77,9.85,5.82,16.4-.48,3.26-.52,6.59-.74,9.89-.2,3-.32,6-.6,9a8,8,0,0,1-2.58,5.18,44.07,44.07,0,0,1-15.54,9.06,75.86,75.86,0,0,1-21.52,4.1,81,81,0,0,1-30-3.79,52.27,52.27,0,0,1-15.73-8.24,10.54,10.54,0,0,1-4.19-8.42c-.38-6.87-.79-13.74-1.46-20.59a12.45,12.45,0,0,1,1.79-7.32C74,109.15,77.77,106.27,82,104a62,62,0,0,1,20.89-6.52,89.94,89.94,0,0,1,14.57-1c2,0,4.1.27,6.15.39.65,0,1.3,0,2.22,0-3.75-2.22-7.26-4.36-10.61-6.72-8.89-6.27-17.11-13.29-23.79-22a31.82,31.82,0,0,1-5.27-9.3c-2.09-6.21,1.37-9.29,6.39-9.31a29.66,29.66,0,0,1,6.78.74c.9.21,1,.54.37,1.22-2.5,2.69-2.5,5.67-1,8.84a24.64,24.64,0,0,0,5.23,6.92,131.34,131.34,0,0,0,35.37,25.44,25.62,25.62,0,0,0,9.42,2.92,12.44,12.44,0,0,0,7.6-1.6c.91-.55,1.33-.4,1.68.54a14.57,14.57,0,0,1,1.25,5.19,5.3,5.3,0,0,1-4.27,5.57C154.45,105.5,153.93,105.61,153.24,105.77Z"/><path class="cls-3" d="M116,139.65a88.34,88.34,0,0,0,15.73-1.44c1.22-.2,1.43-.56.89-1.71-2.14-4.58-5.56-8.08-9.33-11.29a99.5,99.5,0,0,0-19.25-12.42c-4.09-2.1-8.19-4.23-12.71-5.33-3.55-.86-6.88-.79-9.9,1.64-1.18,1-2.45,1.8-3.57,2.83-5,4.56-5.27,10.43-.81,15.43,3,3.39,6.91,5.49,11,7.19C97.06,138.26,106.44,139.57,116,139.65Z"/><path class="cls-3" d="M108.92,100.73l0,.49a140.65,140.65,0,0,1,24.24,12.57c4.13,2.6,8.21,5.26,11.33,9.13a65,65,0,0,1,5.24,7.46c.24.4.42,1,1.08.57,3.08-2.11,5.87-4.51,6.93-8.25,1-3.57,0-6.7-2.42-9.45-3.09-3.58-7.09-5.84-11.38-7.6a69.79,69.79,0,0,0-27-4.92Z"/><path class="cls-3" d="M100.66,142.71a2.08,2.08,0,0,0-.36-.22,60.14,60.14,0,0,1-19.25-6.68c-.75-.44-.84.05-.77.64a5.33,5.33,0,0,0,3,4.32,43.88,43.88,0,0,0,12,4.17A5.13,5.13,0,0,0,100.66,142.71Z"/><path class="cls-2" d="M88.52,47.88c0-.55.4-.86.68-1.22,1.36-1.78,2.78-3.51,4.1-5.32,2.11-2.89,4.85-3.79,8.35-3.12a73.47,73.47,0,0,1,20,7.24c13.48,7,25.73,15.7,36.12,26.86a70.74,70.74,0,0,1,8.78,11.51c2,3.24,2,6.38-.22,9.51-1.07,1.5-2.05,3-3.08,4.57-.15.21-.28.49-.6.44s-.29-.32-.31-.54c-.67-5.5-3.74-9.8-7.11-13.9-6.79-8.25-14.93-15-23.54-21.27A115.48,115.48,0,0,0,109.3,49.42a38,38,0,0,0-13.06-3.31,12.54,12.54,0,0,0-6.75,1.38C89.2,47.65,89,48,88.52,47.88Z"/><path class="cls-2" d="M149.58,94.38a22.29,22.29,0,0,1-7.9-1.92,125.26,125.26,0,0,1-14.85-8.06,2.4,2.4,0,0,1-1-1.34l-8.68-24c-.14-.37-.49-.83-.18-1.12s.82.12,1.18.31a124,124,0,0,1,25,17.93,70.93,70.93,0,0,1,12.07,13.64c1.48,2.28,1.44,2.37-1.07,3.54A11.41,11.41,0,0,1,149.58,94.38Z"/><path class="cls-4" d="M47.73,69.65H58.86a5,5,0,0,1,5,5V97.46a0,0,0,0,1,0,0H42.73a0,0,0,0,1,0,0V74.65A5,5,0,0,1,47.73,69.65Z"/><path class="cls-2" d="M61.08,69.64H45.51V54.34a16.43,16.43,0,0,1,5-11.79l4-3.87a2.24,2.24,0,0,1,3.67.82h0a46.65,46.65,0,0,1,2.95,16.32Z"/><path class="cls-4" d="M41.78,97.73h23a1,1,0,0,1,1,1v7.34a0,0,0,0,1,0,0h-25a0,0,0,0,1,0,0V98.73A1,1,0,0,1,41.78,97.73Z"/><path class="cls-2" d="M38,105.52H68.59a0,0,0,0,1,0,0v52.62a3,3,0,0,1-3,3H41a3,3,0,0,1-3-3V105.52A0,0,0,0,1,38,105.52Z"/><path class="cls-5" d="M65.63,117.5h5.91a12.34,12.34,0,0,1,12.34,12.34V162a0,0,0,0,1,0,0H53.29a0,0,0,0,1,0,0V129.84A12.34,12.34,0,0,1,65.63,117.5Z"/></svg>