<svg id="Layer_1" data-name="Layer 1" xmlns="http://www.w3.org/2000/svg" viewBox="0 0 200 200"><defs><style>.cls-1{fill:#eaebec;opacity:0.65;}.cls-2,.cls-4{fill:#fff;}.cls-2{stroke:#48afb4;stroke-miterlimit:10;stroke-width:2px;}.cls-3{fill:#48afb4;}.cls-5{fill:#41afb4;}</style></defs><path class="cls-1" d="M73.24,26.62C43.79,34.82,36,43.93,32.88,48.31c-5.52,7.74-1.1,8.81-6.67,22C18.73,88.16,11,88.64,5.83,100.5c-8.25,19.11-.72,44.83,17.64,56.24,14.1,8.76,20.73,6.31,55.65,12.86,25.23,4.74,24.81,10.16,42.33,11,6,.3,38.25,1.26,60-20.58C185.47,156,198,143.32,197.48,127c-.41-12.13-5.25-11.87-7.44-26.1-3-19.29,6.71-26.12,2-39.7-3.25-9.3-12.09-14.65-29.78-25.36-12.74-7.71-19.11-11.57-28.61-14C117.33,17.74,104.2,18,73.24,26.62Z"/><path class="cls-2" d="M89.92,166.51c-13.5-9.17-28.7-20.48-39.12-34.84S35.42,101.6,34.9,81.82l-.49-29.63,8-.15a70.54,70.54,0,0,0,38.84-12.5l13.19-9.1,13,9A71.34,71.34,0,0,0,146.46,52l7.95.17-.48,29.53c-1.06,40.35-21,61.63-55,84.77l-4.5,3.05Z"/><path class="cls-3" d="M94.41,159.89h0C63.07,138.59,43.89,119.5,42.9,81.61L42.54,60A78.73,78.73,0,0,0,85.77,46.12l8.64-6L102.83,46A79.44,79.44,0,0,0,146.29,60h0l-.36,21.58c-1,37.89-20.17,57-51.52,78.28Z"/><path class="cls-4" d="M165.52,114.86a5.87,5.87,0,0,0-5.92-4.79,7.94,7.94,0,0,0-1.27.1,5.78,5.78,0,0,0-4.59,5c-1.24.48-2.48,1-3.69,1.49l-.4-.41.52-.26a4.76,4.76,0,0,0,2.13-5.82A4.67,4.67,0,0,0,148,107a5,5,0,0,0-1.15.14,4.52,4.52,0,0,0-3.66,5c-.73-.25-1.46-.45-2.14-.61-.13-.8-.26-1.59-.4-2.36a5.57,5.57,0,0,0,2-5.6,5.79,5.79,0,0,0-5.36-4.71l-.4,0a5.64,5.64,0,0,0-5.55,4.3,5.55,5.55,0,0,0,1.8,6c-.14.82-.26,1.61-.38,2.37l-.33.08a4.73,4.73,0,0,0-3.14-4.74,4.94,4.94,0,0,0-1.58-.26,4.75,4.75,0,0,0-4.38,2.78,5.07,5.07,0,0,0,0,4.06,4.23,4.23,0,0,0,1.76,1.93,15.85,15.85,0,0,0-2.21,2.2c-1.14-.45-2.31-.9-3.55-1.37a5.33,5.33,0,0,0-1.43-2.77,5.81,5.81,0,0,0-9.69,2.1,5.8,5.8,0,0,0,7.73,7.22c1,.79,2.09,1.58,3.15,2.35-.09.38-.17.76-.23,1.13a4.74,4.74,0,0,0-5.88,6.72,4.71,4.71,0,0,0,4.18,2.5,4.64,4.64,0,0,0,2.27-.58c0,.05,0,.1,0,.15-1,.92-2.13,1.91-3.37,3.06a5.19,5.19,0,0,0-1.5-.22,5.25,5.25,0,0,0-3.34,1.23,5.17,5.17,0,0,0-1.75,5.39,5.32,5.32,0,0,0,5.08,4.08l.54,0a5.28,5.28,0,0,0,4.75-4.37c1.26-.54,2.66-1.15,4.06-1.78l.29.29a4.66,4.66,0,0,0-2,4.35,4.76,4.76,0,0,0,4.33,4.33,3,3,0,0,0,.42,0,4.68,4.68,0,0,0,4.58-3.51,3.82,3.82,0,0,0,.15-.84c.35.11.7.21,1.07.3.14,1,.29,2,.46,3.06a5.67,5.67,0,0,0-2,3.53,5.9,5.9,0,0,0,1.31,4.82,6.74,6.74,0,0,0,3.36,1.93l.28.07h1.49l.23-.05a6.44,6.44,0,0,0,3.06-1.48,5.85,5.85,0,0,0-.27-8.82l.46-3.06a14.72,14.72,0,0,0,2-.58c.42.51.87,1.05,1.35,1.59a4.49,4.49,0,0,0,1.63,4.42,4.8,4.8,0,0,0,3,1,5.16,5.16,0,0,0,1.68-.29,4.66,4.66,0,0,0,3.07-5.1,4.54,4.54,0,0,0-3.36-3.9c-.26-.6-.54-1.2-.82-1.81A13.41,13.41,0,0,0,151.2,141c.6.2,1.23.39,1.86.58a2.65,2.65,0,0,0,.16.48,5.66,5.66,0,0,0,5.51,3.91,7,7,0,0,0,.91-.06,5.75,5.75,0,0,0,4.86-5.57,5.85,5.85,0,0,0-5.76-5.94,5.82,5.82,0,0,0-2.31.49l-1.67-1.21a10.52,10.52,0,0,0,.32-1.88,4.73,4.73,0,0,0,2.54.66h.26a4.6,4.6,0,0,0,4.37-3.57,4.67,4.67,0,0,0-4.67-5.88,4.14,4.14,0,0,0-3.09,1.19l0-.08c1-.79,2-1.64,3.1-2.51a6,6,0,0,0,2.07.37h0a6.19,6.19,0,0,0,2.5-.54,5.77,5.77,0,0,0,3.43-4.56l0-.18v-1.56Z"/><path class="cls-5" d="M158.66,112.28a3.67,3.67,0,0,0-2.82,3.55.93.93,0,0,1-.66,1c-1.77.67-3.51,1.39-5.25,2.12a.57.57,0,0,1-.73-.16,14,14,0,0,0-2-1.88c-.28-.19-.21-.46-.1-.69.41-.91.51-2.11,1.91-2.14l.12-.06a2.61,2.61,0,0,0,1.16-3.14,2.49,2.49,0,0,0-3-1.67c-1.58.39-2.16,1.3-2,3.16a3.51,3.51,0,0,1-1.55,2.22.43.43,0,0,1-.27,0,18.72,18.72,0,0,0-3.93-1.18.56.56,0,0,1-.51-.55c-.2-1.36-.44-2.71-.68-4.06a.86.86,0,0,1,.47-1,3.52,3.52,0,0,0,1.64-3.84,3.63,3.63,0,0,0-3.4-3,3.73,3.73,0,0,0-2.08,6.92c.27.16.42.28.35.64-.25,1.44-.49,2.89-.7,4.34a.58.58,0,0,1-.59.56,13.74,13.74,0,0,0-2.51.62.61.61,0,0,1-.53,0,2.16,2.16,0,0,1-.88-2.07,2.63,2.63,0,0,0-1.6-3.12,2.68,2.68,0,0,0-3.31,1.32c-.6,1.43-.16,3,1.21,3.46,1,.33,1.15,1,1.37,1.78a.52.52,0,0,1-.24.65,14.94,14.94,0,0,0-3.79,3.69.49.49,0,0,1-.7.19c-1.8-.71-3.6-1.41-5.42-2.08a.64.64,0,0,1-.49-.72c.09-2.39-2.68-4.14-5-3.1a3.67,3.67,0,0,0-1.79,5.06,3.71,3.71,0,0,0,5.26,1.33.55.55,0,0,1,.74,0q2.34,1.77,4.71,3.51a.63.63,0,0,1,.25.83,12,12,0,0,0-.57,3.15c0,.38,0,.81-.43.94s-1,.39-1.47-.12a2.61,2.61,0,0,0-4.06,3.19,2.58,2.58,0,0,0,4.24.45c.49-.61,1-.28,1.52-.27s.4.43.48.74c.19.69.35,1.4.6,2.07a.9.9,0,0,1-.23,1.16c-1.57,1.39-3.12,2.81-4.66,4.23-.28.26-.49.14-.75,0a3.1,3.1,0,0,0-3.47.41,3.15,3.15,0,0,0-1,3.31,3.2,3.2,0,0,0,3.25,2.34,3.08,3.08,0,0,0,2.94-3c0-.4.06-.71.49-.89,1.89-.81,3.77-1.63,5.63-2.48a.68.68,0,0,1,.91.18,17.56,17.56,0,0,0,1.93,1.83,1,1,0,0,1,.41,1.38c-.2.49-.55.57-1,.68a2.47,2.47,0,0,0-1.88,2.74,2.62,2.62,0,0,0,5.14.43,3.65,3.65,0,0,0,0-1.51,1.37,1.37,0,0,1,1.56-1.23,18,18,0,0,0,3.16.88c.35.05.52.17.57.55.21,1.59.43,3.19.72,4.76a.81.81,0,0,1-.45,1,3.78,3.78,0,0,0-.89,5.55,4.56,4.56,0,0,0,2.34,1.3h1a4.26,4.26,0,0,0,2.06-1,3.71,3.71,0,0,0-.57-5.89.85.85,0,0,1-.45-1l.69-4.62a.74.74,0,0,1,.7-.71,13.64,13.64,0,0,0,3.48-1c.41-.2.63-.06.88.25.67.83,1.35,1.65,2.07,2.45a1.39,1.39,0,0,1,.41,1.31,2.55,2.55,0,0,0,.79,2.68,2.69,2.69,0,0,0,2.64.43,2.51,2.51,0,0,0,1.65-2.85,2.41,2.41,0,0,0-2.22-2.15.76.76,0,0,1-.68-.49c-.5-1.11-1-2.21-1.53-3.3a.67.67,0,0,1,.19-1,11.07,11.07,0,0,0,2.62-2.88.64.64,0,0,1,.85-.24c1,.32,1.94.65,2.93.93.77.22,1.49.45,1.3,1.5,0,.06,0,.13.07.19a3.61,3.61,0,0,0,4.16,2.51,3.57,3.57,0,0,0,3-3.48,3.65,3.65,0,0,0-5.54-3.21c-.37.2-.64.3-1,0-1-.77-2.06-1.53-3.11-2.26a.59.59,0,0,1-.28-.8,10.31,10.31,0,0,0,.53-2.45c.11-1.74.09-1.73,1.8-2.16.38-.09.72-.17,1,.17a2.42,2.42,0,0,0,2,.71,2.47,2.47,0,0,0,2.38-2,2.75,2.75,0,0,0-1.15-2.81,2.72,2.72,0,0,0-3,.18,1.91,1.91,0,0,1-2,.63c-1.17-.18-1.17-.14-1.5-1.29-.12-.42-.26-.85-.41-1.26a.45.45,0,0,1,.14-.61q2.33-1.84,4.61-3.73a.69.69,0,0,1,.92-.07,3.88,3.88,0,0,0,3.51.12,3.66,3.66,0,0,0,2.18-3v-1.12C162.79,112.69,160.81,112,158.66,112.28Zm-26.39,9.09a2.15,2.15,0,1,1-.08,4.29,2.15,2.15,0,0,1,.08-4.29Zm-3.89-1.26a.87.87,0,0,1,.84.92.93.93,0,0,1-1,.83.87.87,0,0,1-.71-1C127.47,120.27,127.86,120.12,128.38,120.11Zm-1.19,9.9a1.34,1.34,0,0,1-1.5-1.44,1.51,1.51,0,0,1,1.49-1.45,1.57,1.57,0,0,1,1.49,1.48A1.38,1.38,0,0,1,127.19,130Zm4.16,8.85a3.06,3.06,0,0,1-.06-6.12,3,3,0,0,1,3.14,3.06A3.11,3.11,0,0,1,131.35,138.86Zm8.09-16.79a1.45,1.45,0,1,1-1.44,1.5A1.34,1.34,0,0,1,139.44,122.07Zm-4-4.1a.7.7,0,0,1,.79-.82.79.79,0,0,1,.92.82.91.91,0,0,1-.88.91C135.86,118.94,135.48,118.49,135.48,118Zm1.75,12.73a.9.9,0,0,1-.9-.95c0-.58.37-.8,1-.8s.77.2.77.77A.9.9,0,0,1,137.23,130.7Zm2.62,11.66a2.27,2.27,0,0,1-2.13-2.26,2.06,2.06,0,0,1,2.21-2,2,2,0,0,1,2.08,2.19A2.09,2.09,0,0,1,139.85,142.36Zm4.07-6.59a1.83,1.83,0,0,1-1.84-1.8,1.86,1.86,0,0,1,1.86-1.79,1.78,1.78,0,0,1,1.72,1.82A1.67,1.67,0,0,1,143.92,135.77Zm1.12-7.59a2.28,2.28,0,0,1-2.12-2.13,2.08,2.08,0,0,1,2.15-2.16,2,2,0,0,1,2.14,2.14A2.09,2.09,0,0,1,145,128.18Zm3.2,3.55a.73.73,0,0,1-.78-.8.72.72,0,0,1,.77-.74.75.75,0,0,1,.8.71C149,131.39,148.73,131.73,148.24,131.73Z"/><polygon class="cls-4" points="111.91 89.2 99.08 89.2 99.08 76.36 89.75 76.36 89.75 89.2 76.91 89.2 76.91 98.53 89.75 98.53 89.75 111.36 99.08 111.36 99.08 98.53 111.91 98.53 111.91 89.2"/></svg>