<svg id="Layer_1" data-name="Layer 1" xmlns="http://www.w3.org/2000/svg" viewBox="0 0 200 200"><defs><style>.cls-1{fill:#eaebec;opacity:0.65;}.cls-2,.cls-7{fill:#fff;}.cls-2,.cls-4{stroke:#48afb4;stroke-width:2px;}.cls-2,.cls-4,.cls-5,.cls-6{stroke-miterlimit:10;}.cls-3{fill:#48afb4;}.cls-4,.cls-5,.cls-6{fill:none;}.cls-4,.cls-5{stroke-linecap:round;}.cls-5,.cls-6{stroke:#fff;}</style></defs><path class="cls-1" d="M73.24,24.74C43.79,32.94,36,42.05,32.88,46.43c-5.52,7.74-1.1,8.81-6.67,22.05C18.73,86.28,11,86.76,5.83,98.62c-8.25,19.11-.72,44.83,17.64,56.24,14.1,8.76,20.73,6.31,55.65,12.86,25.23,4.74,24.81,10.16,42.33,11,6,.3,38.25,1.26,60-20.58,4.06-4.09,16.63-16.73,16.07-33.08C197.07,113,192.23,113.22,190,99c-3-19.29,6.71-26.12,2-39.7-3.25-9.3-12.09-14.65-29.78-25.36-12.74-7.71-19.11-11.57-28.61-14C117.33,15.86,104.2,16.12,73.24,24.74Z"/><rect class="cls-2" x="47.52" y="39.8" width="80" height="120" rx="10"/><circle class="cls-3" cx="69.11" cy="54.64" r="9"/><circle class="cls-3" cx="69.11" cy="84.64" r="9"/><circle class="cls-3" cx="69.11" cy="114.64" r="9"/><circle class="cls-3" cx="69.11" cy="144.64" r="9"/><line class="cls-4" x1="87.52" y1="44.64" x2="87.52" y2="154.64"/><circle class="cls-3" cx="107.48" cy="54.64" r="9"/><circle class="cls-3" cx="107.48" cy="84.64" r="9"/><circle class="cls-3" cx="107.48" cy="114.64" r="9"/><circle class="cls-3" cx="107.48" cy="144.64" r="9"/><path class="cls-5" d="M61.91,55.41a7.69,7.69,0,0,1,5.37-7.79"/><path class="cls-5" d="M100.49,55.41a7.72,7.72,0,0,1,5.38-7.79"/><path class="cls-5" d="M61.91,85.47a7.67,7.67,0,0,1,5.37-7.78"/><path class="cls-5" d="M100.49,85.47a7.91,7.91,0,0,1,1.56-5.1,7.77,7.77,0,0,1,3.82-2.68"/><path class="cls-5" d="M61.91,115.65a7.69,7.69,0,0,1,5.37-7.79"/><path class="cls-5" d="M100.49,115.65a7.91,7.91,0,0,1,1.56-5.1,7.81,7.81,0,0,1,3.82-2.69"/><path class="cls-5" d="M61.91,145.65a7.69,7.69,0,0,1,5.37-7.79"/><path class="cls-5" d="M100.49,145.65a7.72,7.72,0,0,1,5.38-7.79"/><circle class="cls-3" cx="139.98" cy="99.8" r="32.5"/><ellipse class="cls-6" cx="139.98" cy="99.8" rx="29.2" ry="29.29" transform="translate(-29.57 128.21) rotate(-45)"/><path class="cls-7" d="M137.75,91.5h0a7.33,7.33,0,0,0-1.35,1.7,8,8,0,0,1,6.12,7.81,7.92,7.92,0,0,1-.59,3,6.34,6.34,0,0,0,.76,0,6.77,6.77,0,0,0,1.42-.14,10.34,10.34,0,0,0,.43-2.91A10.06,10.06,0,0,0,137.75,91.5Z"/><path class="cls-7" d="M134.45,109.07a8.05,8.05,0,0,1-2-15.84A10.32,10.32,0,0,1,133.49,91a10.07,10.07,0,0,0,0,20v3.08h-4v2h4v4h2v-4h4v-2h-4V111a10.09,10.09,0,0,0,6.55-3.36,10.94,10.94,0,0,1-2.44-.43A8.06,8.06,0,0,1,134.45,109.07Z"/><path class="cls-7" d="M149.1,82.23v2h4.72L149.05,89a10.17,10.17,0,1,0,1.42,1.43l4.84-4.84v4.72h2V82.23Zm-.73,20.28a8.06,8.06,0,1,1,2.36-5.7A8,8,0,0,1,148.37,102.51Z"/><path class="cls-2" d="M52.44,113.26H68.68a0,0,0,0,1,0,0v22a0,0,0,0,1,0,0H52.44a11,11,0,0,1-11-11v0A11,11,0,0,1,52.44,113.26Z" transform="translate(189.05 147.1) rotate(123.56)"/><path class="cls-2" d="M37.37,136H52.68a.93.93,0,0,1,.93.93v20.17a.93.93,0,0,1-.93.93H37.37a11,11,0,0,1-11-11v0A11,11,0,0,1,37.37,136Z" transform="translate(-104.62 99.06) rotate(-56.44)"/><path class="cls-2" d="M80.13,137.56H96.61a0,0,0,0,1,0,0v22.23a0,0,0,0,1,0,0H80.13a11,11,0,0,1-11-11v-.19a11,11,0,0,1,11-11Z" transform="translate(165.11 297.7) rotate(-179.76)"/><path class="cls-2" d="M52.63,137.45H68.18a.93.93,0,0,1,.93.93v20.37a.93.93,0,0,1-.93.93H52.63a11,11,0,0,1-11-11v-.19A11,11,0,0,1,52.63,137.45Z" transform="translate(0.62 -0.23) rotate(0.24)"/></svg>