<svg id="Layer_1" data-name="Layer 1" xmlns="http://www.w3.org/2000/svg" viewBox="0 0 200 200"><defs><style>.cls-1{fill:#eaebec;opacity:0.65;}.cls-2,.cls-5{fill:#fff;}.cls-2,.cls-4{stroke:#48afb4;stroke-miterlimit:10;stroke-width:2px;}.cls-3{fill:#48afb4;}.cls-4{fill:none;stroke-linecap:round;}</style></defs><path class="cls-1" d="M73.24,26.62C43.79,34.82,36,43.93,32.88,48.31c-5.52,7.74-1.1,8.81-6.67,22C18.73,88.16,11,88.64,5.83,100.5c-8.25,19.11-.72,44.83,17.64,56.24,14.1,8.76,20.73,6.31,55.65,12.86,25.23,4.74,24.81,10.16,42.33,11,6,.3,38.25,1.26,60-20.58C185.47,156,198,143.32,197.48,127c-.41-12.13-5.25-11.87-7.44-26.1-3-19.29,6.71-26.12,2-39.7-3.25-9.3-12.09-14.65-29.78-25.36-12.74-7.71-19.11-11.57-28.61-14C117.33,17.74,104.2,18,73.24,26.62Z"/><path class="cls-2" d="M150.51,98.86V67.55a2,2,0,0,0,1.5-1.93v-.77a2,2,0,0,0-2-2H136a2,2,0,0,0-2,2v.77a2,2,0,0,0,1.5,1.93V98.86a25,25,0,1,0,15,0Z"/><path class="cls-3" d="M150.91,127c-11-1-11.95-5.79-21.5-5.5a32.24,32.24,0,0,0-11.36,2.62,25,25,0,0,0,49.85.87A41.09,41.09,0,0,1,150.91,127Z"/><rect class="cls-2" x="31.99" y="53.28" width="80" height="104" rx="5"/><path class="cls-3" d="M78.63,49.36a6.64,6.64,0,0,0-13.28,0H54.49v8h35v-8Zm-6.64,3a3,3,0,1,1,3-3A3,3,0,0,1,72,52.36Z"/><path class="cls-3" d="M91.49,82l7.77-9.17a12.68,12.68,0,0,0-17,1.35Z"/><path class="cls-3" d="M104.17,82.27a12.64,12.64,0,0,0-3.93-8.61l-7.3,8.61Z"/><path class="cls-3" d="M91.56,83.57a.59.59,0,0,1-.5-.25l-9.63-8.17a12.68,12.68,0,0,0,19.75,15.9,12.52,12.52,0,0,0,3-7.48Z"/><line class="cls-4" x1="40.78" y1="72.75" x2="73.99" y2="72.75"/><line class="cls-4" x1="40.78" y1="82.75" x2="73.99" y2="82.75"/><line class="cls-4" x1="40.78" y1="92.75" x2="73.99" y2="92.75"/><line class="cls-4" x1="40.78" y1="102.75" x2="104.17" y2="102.75"/><line class="cls-4" x1="40.78" y1="112.75" x2="104.17" y2="112.75"/><line class="cls-4" x1="40.78" y1="122.75" x2="104.17" y2="122.75"/><line class="cls-4" x1="40.78" y1="132.75" x2="104.17" y2="132.75"/><line class="cls-4" x1="40.78" y1="142.75" x2="104.17" y2="142.75"/><polygon class="cls-5" points="139.04 132.14 139.04 126.72 133.62 126.72 133.62 118.78 139.04 118.78 139.04 113.36 146.98 113.36 146.98 118.78 152.4 118.78 152.4 126.72 146.98 126.72 146.98 132.14 139.04 132.14"/><polygon class="cls-3" points="150.4 120.78 144.98 120.78 144.98 115.36 141.04 115.36 141.04 120.78 135.62 120.78 135.62 124.72 141.04 124.72 141.04 130.14 144.98 130.14 144.98 124.72 150.4 124.72 150.4 120.78"/></svg>