<svg id="Layer_1" data-name="Layer 1" xmlns="http://www.w3.org/2000/svg" viewBox="0 0 100 100"><defs><style>.cls-1{fill:#a3cb82;}.cls-2{fill:#fff;}</style></defs><title>COVID19_FloatingButtong_Icon_Pharma</title><circle class="cls-1" cx="50" cy="50" r="50"/><path class="cls-2" d="M83.39,39.3a.82.82,0,0,0-1.18.44c-.62,1.18.05,2.22-1,3.26-.94.9-3.61,1.31-5.77,1.63a14.11,14.11,0,0,1-3.33.37.7.7,0,0,1-.35-.21,8.9,8.9,0,0,1-1.12-4.36,4.12,4.12,0,0,1,1.48-2.89,9.61,9.61,0,0,1,3.55-1.79,2.67,2.67,0,0,1,1.47.42c.35.22.68.75,1.25.92,1.58.46.66-2.1.33-2.88a13.7,13.7,0,0,0-1.54-2.68c-.61-.73-2.22-2.42-2.94-1.9s0,1.82.06,2.52c0,1.48-2.18,2.94-3.36,3.56-2.1,1.12-4.17-.25-6.1-2.46a3,3,0,0,1-1-1.79c-.1-2,1.56-4.65,2.79-6.66.92-1.49,1.53-2.48,3-2.47.82,0,1.69.54,2.44.16,1.18-.58-.14-2-.86-2.7-2.11-2-6.32-3.61-7.79-3a.82.82,0,0,0-.4,1.2c.53,1.22,1.75,1.36,1.88,2.85.11,1.3-1.25,3.63-2.37,5.51a13.86,13.86,0,0,1-1.81,2.82.7.7,0,0,1-.38.14,8.89,8.89,0,0,1-4.1-1.88,4.13,4.13,0,0,1-1.31-3,9.75,9.75,0,0,1,.84-3.89,2.68,2.68,0,0,1,1.25-.87c.39-.13,1-.05,1.51-.4,1.35-.94-1.21-1.84-2-2.07a14.13,14.13,0,0,0-3-.49c-1,0-3.27.2-3.33,1.09S51.48,19,52,19.4c1.15.93.91,3.55.65,4.86-.45,2.34-2.82,3.08-5.75,3.19a3,3,0,0,1-2-.35c-1.64-1.2-2.63-4.14-3.42-6.36-.58-1.65-1-2.75-.06-3.85.52-.63,1.48-1,1.66-1.79.29-1.28-1.66-1.16-2.64-1-2.86.39-6.78,2.64-7.21,4.18a.83.83,0,0,0,.68,1.07c1.28.36,2.16-.51,3.4.34,1.08.73,2,3.25,2.79,5.31a13.48,13.48,0,0,1,1,3.18.69.69,0,0,1-.13.39,8.85,8.85,0,0,1-4,2,4.11,4.11,0,0,1-3.14-.85,9.61,9.61,0,0,1-2.49-3.1,2.61,2.61,0,0,1,.11-1.52c.14-.39.59-.82.64-1.42.12-1.64-2.19-.21-2.88.28A13.55,13.55,0,0,0,26.92,26c-.59.74-1.9,2.67-1.25,3.27s1.77-.43,2.45-.58c1.44-.31,3.33,1.53,4.18,2.55,1.53,1.83.62,4.13-1.14,6.48-.48.64-.83,1.16-1.54,1.35-2,.52-4.88-.56-7.1-1.35-1.65-.59-2.74-1-3-2.37-.16-.8.17-1.76-.35-2.42-.81-1-1.95.56-2.46,1.4-1.5,2.47-2.22,6.93-1.29,8.23a.83.83,0,0,0,1.26.14c1.08-.77,1-2,2.4-2.43,1.25-.38,3.81.47,5.88,1.17a14.23,14.23,0,0,1,3.14,1.18.68.68,0,0,1,.22.35,9,9,0,0,1-1,4.4,4.13,4.13,0,0,1-2.64,1.9,9.69,9.69,0,0,1-4,0,2.61,2.61,0,0,1-1.11-1c-.21-.36-.26-1-.7-1.39-1.2-1.13-1.54,1.57-1.6,2.41a13.75,13.75,0,0,0,.16,3.09c.21.93.88,3.16,1.75,3s.78-1.65,1.1-2.27c.67-1.32,3.28-1.63,4.61-1.65,2.38,0,3.6,2.12,4.32,5a2.92,2.92,0,0,1,.08,2.05c-.83,1.85-3.5,3.44-5.51,4.67C22.3,64,21.3,64.64,20,64c-.73-.38-1.26-1.24-2.1-1.25-1.31,0-.79,1.86-.46,2.8,1,2.72,4,6.09,5.59,6.18.57,0,.87-.33.9-.89.08-1.33-.94-2-.38-3.4.49-1.21,2.76-2.66,4.61-3.84a13.89,13.89,0,0,1,2.89-1.69.7.7,0,0,1,.41,0,8.87,8.87,0,0,1,2.8,3.53,4.13,4.13,0,0,1-.18,3.25,9.57,9.57,0,0,1-2.51,3.08A2.64,2.64,0,0,1,30.1,72a4.56,4.56,0,0,0-1.52-.33c-1.63.22.24,2.18.87,2.76A13.9,13.9,0,0,0,32,76.26c.85.42,3,1.31,3.46.54s-.79-1.64-1.08-2.28c-.6-1.35.8-3.57,1.62-4.62,1.47-1.88,3.91-1.46,6.58-.23.73.34,1.31.57,1.64,1.23.91,1.81.47,4.89.16,7.22-.23,1.73-.39,2.89-1.69,3.45-.75.33-1.76.2-2.29.84-.84,1,.95,1.79,1.89,2.11,2.73,1,7.24.73,8.32-.45a.82.82,0,0,0-.12-1.26c-1-.9-2.15-.53-2.88-1.84-.63-1.14-.33-3.82-.08-6a13.78,13.78,0,0,1,.5-3.31.73.73,0,0,1,.29-.29,8.81,8.81,0,0,1,4.51,0,4.12,4.12,0,0,1,2.41,2.18A9.56,9.56,0,0,1,56,77.49a2.77,2.77,0,0,1-.79,1.31c-.31.28-.9.46-1.21,1-.86,1.41,1.85,1.18,2.69,1.06a13.5,13.5,0,0,0,3-.8c.86-.4,2.91-1.51,2.6-2.34s-1.77-.42-2.45-.6c-1.43-.38-2.27-2.87-2.57-4.17-.54-2.32,1.32-4,4-5.26a2.92,2.92,0,0,1,2-.5c2,.43,4.09,2.71,5.71,4.42,1.2,1.27,2,2.12,1.62,3.49-.22.79-1,1.49-.79,2.31.26,1.29,2,.39,2.83-.13,2.46-1.52,5.12-5.17,4.88-6.75a.82.82,0,0,0-1-.7c-1.32.2-1.77,1.34-3.24,1.08-1.28-.23-3.18-2.15-4.71-3.71-.34-.35-.84-.91-1.3-1.38h0c-1.24-1.87,1.27-5.11,2.46-6a4.13,4.13,0,0,1,3.18-.67,9.77,9.77,0,0,1,3.63,1.63A2.63,2.63,0,0,1,77,62.16a4.63,4.63,0,0,0,.07,1.55c.63,1.52,2-.8,2.44-1.55a13.48,13.48,0,0,0,1.11-2.89c.19-.93.48-3.24-.37-3.48S78.89,57,78.35,57.42c-1.14.93-3.66.15-4.89-.37-2.19-.93-2.43-3.4-1.92-6.29a2.92,2.92,0,0,1,.76-1.9c1.52-1.35,4.6-1.71,6.93-2,1.74-.23,2.89-.38,3.77.74.51.64.64,1.65,1.41,2,1.19.55,1.48-1.38,1.55-2.37C86.19,44.34,84.81,40,83.39,39.3ZM64.9,18.1c.42-.83,4,.71,5.14,1.88.26.26.76.59.52.89-.4.61-2.55-.24-3.84-1C65.91,19.37,64.76,18.58,64.9,18.1Zm-27.18-.55c-.89.32-2.22.72-2.51.31-.38-.85,3-2.63,4.7-2.81.36,0,.94-.22,1,.16C41.15,15.9,39.14,17,37.72,17.55Zm-20,21.08c-.31.89-.84,2.17-1.34,2.14-.9-.24-.13-4,.77-5.42.2-.31.42-.87.77-.69C18.56,34.92,18.17,37.2,17.68,38.63Zm4.59,31.23c-.75.55-3.2-2.43-3.73-4-.12-.35-.41-.87-.05-1,.64-.37,2.16,1.37,3,2.65C22,68.27,22.61,69.49,22.27,69.86ZM73.66,73c.68-.66,1.73-1.56,2.17-1.3.7.62-1.71,3.64-3.15,4.48-.31.18-.77.58-1,.27C71.19,75.91,72.58,74.06,73.66,73Zm-25,10.55c0,.93-3.9,1-5.46.38-.34-.13-.94-.23-.83-.61.12-.73,2.43-.82,3.92-.63C47.17,82.81,48.53,83.06,48.61,83.56ZM85.17,46.51c0,.36,0,1-.37,1-.73.07-1.42-2.13-1.63-3.63-.13-.94-.24-2.32.22-2.52C84.3,41.13,85.33,44.85,85.17,46.51Z" transform="translate(0 0)"/><path class="cls-1" d="M67.56,46.31c3.12-.82,3,5.1,1.55,6.29a2,2,0,0,1-1.78.3c-1.8-.63-2.1-5-.37-6.37A3.17,3.17,0,0,1,67.56,46.31Z" transform="translate(0 0)"/><path class="cls-1" d="M62.89,59c1.58-.64,3.2,0,3,1.85A4.41,4.41,0,0,1,61,64.52a2.1,2.1,0,0,0-.67-.44C59.55,61.73,61.31,59.68,62.89,59Z" transform="translate(0 0)"/><path class="cls-1" d="M65.78,38.1a2.15,2.15,0,0,1-.67,2.07,4.22,4.22,0,0,1-5-3.85,1.6,1.6,0,0,1,1-1.55C63.24,34.26,65.5,36.26,65.78,38.1Z" transform="translate(0 0)"/><path class="cls-1" d="M61.79,46.38a3.16,3.16,0,0,1-3.4,3.33c-3.6-.35-4.39-6-.52-6.66A3.42,3.42,0,0,1,61.79,46.38Z" transform="translate(0 0)"/><path class="cls-1" d="M56.68,54.38c1.16,1,1.07,2.88.3,4.29A4.29,4.29,0,0,1,54.61,60a3.33,3.33,0,0,1-3.77-2.37A3.53,3.53,0,0,1,56.68,54.38Z" transform="translate(0 0)"/><path class="cls-1" d="M54.24,32A2.11,2.11,0,0,1,53,34.34l-.37.14c-1.59.65-6-.08-5-2.66C48.28,29.83,53.71,29.74,54.24,32Z" transform="translate(0 0)"/><path class="cls-1" d="M50.39,64.59c1.57-.17,4.13.47,3.85,2.37a2.54,2.54,0,0,1-.52,1c-1.43,1.45-7.25,1.12-6.14-1.92C47.86,65.29,48.87,64.75,50.39,64.59Z" transform="translate(0 0)"/><path class="cls-1" d="M47.72,38.84a3.23,3.23,0,0,1,3.63,4.07c-.83,2.89-6,3.28-6.59-.07A3.24,3.24,0,0,1,47.72,38.84Z" transform="translate(0 0)"/><path class="cls-1" d="M47.06,52.45a3.21,3.21,0,0,1-3.85,3.33c-3.19-.55-3.71-5.89-.3-6.59A3.37,3.37,0,0,1,47.06,52.45Z" transform="translate(0 0)"/><path class="cls-1" d="M40.62,34.69a1.82,1.82,0,0,1,1,2.07c-.22,1.77-2.95,4.45-5,3.4a1.71,1.71,0,0,1-.74-1.33A4.32,4.32,0,0,1,40.62,34.69Z" transform="translate(0 0)"/><path class="cls-1" d="M38.25,58.89c2,.35,4.49,3.41,2.66,5.48-2.29.81-5.21-1.67-5-4C36,59.25,37,58.66,38.25,58.89Z" transform="translate(0 0)"/><path class="cls-1" d="M33.29,46.31c3.1-.79,3.36,5.77,1.11,6.59C31.23,54.05,30.56,47,33.29,46.31Z" transform="translate(0 0)"/></svg>