<?xml version="1.0" encoding="utf-8"?>
<!-- Generator: Adobe Illustrator 24.0.0, SVG Export Plug-In . SVG Version: 6.00 Build 0)  -->
<svg version="1.1" id="Layer_1" xmlns="http://www.w3.org/2000/svg" xmlns:xlink="http://www.w3.org/1999/xlink" x="0px" y="0px"
	 viewBox="0 0 281 119.3" style="enable-background:new 0 0 281 119.3;" xml:space="preserve">
<style type="text/css">
	.st0{fill:#A4CE83;}
</style>
<g>
	<path class="st0" d="M54.4,70.4c-1.8,1.6-3.4,3.4-4.8,5.4c-1.3,2-2.4,4.1-3.3,6.3c-4.6,1.8-9.3,3.4-14,4.7c-3,0.9-6,1.4-9.1,1.5
		c-2.8,0.1-5.5-0.6-7.8-2c-2.2-1.5-4-3.5-5-6l-1.8,2H6.4c-0.7,0-1.1-0.7-1.3-2.1c-0.4-3.4-0.5-6.7-0.4-10.1C4.7,60.3,5.8,50.5,8,41
		c2.1-9.5,5.3-18.8,9.5-27.7c4.4-2,9.1-3.5,13.9-4.3c5.4-1,10.9-1.5,16.4-1.5c3.9,0,7.9,0.2,11.8,0.6c3.4,0.4,5.2,0.8,5.5,1.3
		c0.3,0.6,0.5,1.2,0.5,1.8c0.2,1,0.2,2,0.2,3c0,0.3,0,0.6-0.1,0.9c-0.1,0.4-0.2,0.7-0.4,1.1l-3.8,8.3c-5.3,0.5-10,1.1-14.1,1.8
		s-7.8,1.4-10.8,2.2c-2.1,2.8-3.8,5.4-5.4,7.6c-1.5,2.3-3,4.5-4.2,6.6c2.5-0.1,4.5-0.2,6-0.2c1.5,0,2.8,0,4.2,0
		c5.3-0.1,10.7,0.6,15.9,1.8c4.6,1.2,6.9,2.3,6.9,3.2c0,0.3,0,0.6-0.1,1l-2.2,6.8c-7.1,1.3-14.1,3.2-20.9,5.6
		C30.9,63,25.3,65.7,20,69c0.4,2.1,1.7,3.9,3.5,4.9c2.4,1.2,5,1.8,7.7,1.7c3.6-0.1,7.2-0.6,10.6-1.7c4-1.2,7.9-2.8,11.6-4.7
		L54.4,70.4L54.4,70.4z"/>
	<path class="st0" d="M69.8,83.6l0.9-1.7c0.7,0.2,1.5,0.4,2.2,0.6c0.7,0.1,1.4,0.2,2.1,0.2c3,0,6.8-0.9,11.4-2.8
		c5.4-2.3,10.6-5.1,15.5-8.3C88,69,78.7,66,73.8,62.5c-4.9-3.5-7.3-8.4-7.3-15c0.1-5.5,1.9-10.8,5.1-15.3c3.4-4.9,8.3-9.6,14.8-13.9
		c4.7-3.2,9.8-5.8,15.1-7.8c5.3-1.9,9.6-2.9,13-2.9c1.4,0,2.3,1,2.8,3c0.2,0.8,0.4,1.7,0.8,2.5c0.7,1.8,1.9,3.4,3.3,4.6
		c1.6,1.3,3.4,2.3,5.3,2.9l-3.5,20l-2.6,0.5l-2.2-10.3c-7.9,1.6-15.4,4.6-22.1,8.9c-6.1,4.1-9.2,7.6-9.2,10.6c0,2.1,2.2,4,6.5,5.8
		c0.3,0.1,0.6,0.2,0.8,0.3c3.4,1.3,7.5,2.7,12.2,4.2c2.9,0.8,5.8,1.8,8.6,3c1.4,0.7,2.7,2.4,4.1,5.2c1.1,2,1.8,4.3,2,6.6
		c0,1-0.3,2-0.9,2.8c-0.8,1-1.8,1.9-2.9,2.6c-2,1.3-5.8,3.1-11.6,5.3l-1.3,0.5c-4.5,1.7-8.3,3-11.3,3.8c-2.2,0.7-4.5,1.1-6.9,1.3
		c-2.8-0.1-5.6-0.8-8.1-2.2C75.3,88,72.4,86,69.8,83.6"/>
	<path class="st0" d="M141.4,25.2c10.7-5.8,21.9-10.9,33.3-15.3c9.3-3.4,16.8-5.1,22.6-5.1c0.9,0,1.5,0.5,1.8,1.6
		c0.4,2.1,0.6,4.2,0.5,6.3c-0.1,1.6-0.3,3.1-0.8,4.6c-0.5,1.9-1.6,4.9-3.3,9.1c-14.5,2.9-26.8,7.2-36.9,12.8s-15.9,11.3-17.4,16.9
		c2.7,1,5.5,1.7,8.4,2c4.5,0.5,9.1,0.7,13.6,0.6c10.9,0,21.9-1,32.6-3.1c1-0.2,2-0.4,3-0.5c0.1,0,0.3,0,0.4,0.1
		c0.1,0.1,0.1,0.2,0.2,0.3v0.3l-1.1,6.8c-1.4,1.5-3,2.9-4.8,3.9c-2.3,1.3-4.7,2.3-7.3,3.1l-0.2,8.8c-4.8,2.1-9.8,3.6-15,4.4
		c-6.3,1-12.7,1.5-19.1,1.4c-3.2,0-6.4-0.1-9.6-0.4c-1.7-0.1-3.4-0.4-5-1.1c-2.1-1.5-4.2-5.3-6.2-11.4c-2-6.2-3-12.7-3-19.2
		c0-1.8,0.1-3.5,0.4-5.3c0.1-1.1,0.5-2.1,1.2-3c3.2-3.9,6.9-7.4,11.1-10.3c4.5-3.1,9.3-5.8,14.4-7.9l-7.5-0.2L141.4,25.2"/>
	<path class="st0" d="M214.4,14.1c0.5,0,1-0.1,1.4-0.1c2.4-0.2,4.1-0.4,5.2-0.5l3-5.6c17.6,0.4,29.6,2.4,35.8,6
		c6.2,3.6,9.3,10.1,9.3,19.4c-0.1,7.6-1.7,15.1-4.7,22.1c-3.2,7.9-7.6,15.2-13,21.8c-2.5,3.3-5.6,6-9,8.2c-2.8,1.8-6.1,2.7-9.4,2.8
		c-2.4-0.1-4.7-0.7-6.9-1.7c-2.9-1.2-5.7-2.7-8.2-4.6c-4.7-3.3-8.1-6.6-10.3-9.9c-2.1-3.3-3.2-7.1-3.2-11c0-3.3,0.9-7.8,2.8-13.4
		c2.3-6.5,4.9-12.8,8-19l-4.4-0.6c-1.2-0.2-2.3-0.3-3.3-0.4L214.4,14.1z M232.9,31.9c-2.9,8.3-5,15.5-6.4,21.5
		c-1.2,4.7-2,9.5-2.1,14.4c0,1,0,2.1,0.1,3.3s0.1,1.8,0.1,1.9v0.7c3.8-0.9,7.4-2.4,10.7-4.4c3.8-2.4,7.4-5.2,10.6-8.4
		c2.7-2.6,5.2-5.6,7.3-8.7c1.9-2.9,2.9-5.2,2.9-6.7c0-2.8-2.1-5.5-6.2-7.9C245.6,35.1,240,33.2,232.9,31.9"/>
	<path class="st0" d="M271,78.2c2.7,0.1,4.7,2.4,4.6,5.1s-2.4,4.7-5.1,4.6c-2.6-0.1-4.6-2.2-4.6-4.8c0-2.7,2.3-4.9,5-4.8
		C270.9,78.1,270.9,78.1,271,78.2z M271,78.9c-2.3,0-4.1,1.8-4.1,4.1s1.8,4.1,4.1,4.1c2.3,0,4.1-1.8,4.1-4.1l0,0
		C275.1,80.7,273.2,78.9,271,78.9L271,78.9z M270,85.8h-0.9v-5.4c0.5-0.1,1.1-0.1,1.6-0.1c0.6,0,1.2,0.1,1.8,0.4
		c0.4,0.3,0.5,0.7,0.5,1.1c0,0.6-0.5,1.2-1.1,1.3l0,0c0.5,0.1,0.8,0.5,1,1.3c0,0.5,0.2,0.9,0.4,1.3h-1c-0.2-0.4-0.3-0.9-0.4-1.4
		c-0.1-0.6-0.6-1-1.1-1h-0.1h-0.6L270,85.8L270,85.8z M270,82.8h0.7c0.7,0,1.4-0.2,1.4-0.9c0-0.5-0.4-0.9-1.4-0.9
		c-0.2,0-0.4,0-0.6,0L270,82.8L270,82.8z"/>
	<path class="st0" d="M104.8,114V94H121c1.7,0,2.9,0.1,3.5,0.3c1.2,0.3,2,1,2.4,1.9c0.4,0.8,0.6,2,0.6,3.7s-0.2,3-0.5,3.8
		c-0.4,0.9-1.1,1.5-2.2,1.9c-0.8,0.3-1.9,0.5-3.2,0.5h-14.3v7.9C107.3,114,104.8,114,104.8,114z M107.2,104.2h12.5
		c2.2,0,3.6-0.3,4.2-0.8c0.7-0.5,1-1.6,1-3.3c0-1.3-0.2-2.3-0.6-2.8c-0.3-0.4-0.8-0.7-1.4-0.9c-0.7-0.2-1.6-0.3-2.8-0.3h-13v8.1
		H107.2z"/>
	<path class="st0" d="M131.7,114V94h2.4v8.7h18.8V94h2.4v20h-2.4v-9.4h-18.8v9.4H131.7z"/>
	<path class="st0" d="M179.1,109.5h-16.4L160,114h-2.7l11.8-20h3.4l11.8,20h-2.7L179.1,109.5z M178,107.6l-7.1-11.9l-7,11.9H178z"/>
	<path class="st0" d="M186.6,114V94h16.5c1.9,0,3.2,0.2,4,0.5c1,0.4,1.7,1.1,2.1,2.1c0.4,0.8,0.6,2,0.6,3.5c0,2.2-0.5,3.6-1.6,4.2
		c-0.6,0.3-1.6,0.6-2.9,0.7c1.1,0.1,1.9,0.3,2.5,0.6c0.6,0.3,1,0.7,1.2,1.2c0.3,0.5,0.4,1.1,0.4,1.9v5.2H207v-3.8
		c0-1.1-0.1-1.9-0.2-2.4c-0.2-0.7-0.6-1.2-1.2-1.4c-0.6-0.3-1.6-0.4-2.9-0.4H189v8.1L186.6,114L186.6,114z M189,104.1h13.2
		c2.1,0,3.4-0.3,4.1-0.8c0.4-0.3,0.7-0.7,0.8-1.2c0.2-0.5,0.2-1.2,0.2-2.1c0-1.2-0.2-2-0.5-2.5c-0.4-0.7-1.1-1.1-2.2-1.3
		c-0.6-0.1-1.5-0.2-2.6-0.2h-13V104.1z"/>
	<path class="st0" d="M215,114V94h3.9l12.1,17.2L243.1,94h3.8v20h-2.4V96l-12.6,18h-1.8l-12.6-18v18C217.5,114,215,114,215,114z"/>
	<path class="st0" d="M270.7,109.5h-16.4l-2.7,4.5h-2.7l11.8-20h3.4l11.8,20h-2.7L270.7,109.5z M269.5,107.6l-7.1-11.9l-7,11.9
		H269.5z"/>
</g>
</svg>
