<svg id="Layer_1" data-name="Layer 1" xmlns="http://www.w3.org/2000/svg" viewBox="0 0 331.48 145.12"><defs><style>.cls-1,.cls-2{fill:#a4ce83;}.cls-2{font-size:30px;font-family:EurostileT-ReguExte, EurostileTRegExt;}</style></defs><title>esco logo2</title><path class="cls-1" d="M81.71,83.28a31.8,31.8,0,0,0-4.8,5.43A30.2,30.2,0,0,0,73.62,95a145.53,145.53,0,0,1-14,4.69,37.25,37.25,0,0,1-9.14,1.5,14.69,14.69,0,0,1-7.85-2,13.35,13.35,0,0,1-5-6l-1.81,2H33.63c-.66,0-1.11-.7-1.34-2.1A86.48,86.48,0,0,1,32,83,131.13,131.13,0,0,1,35.26,53.9a132.64,132.64,0,0,1,9.49-27.67,59.08,59.08,0,0,1,13.87-4.34,86.33,86.33,0,0,1,16.44-1.5A104.85,104.85,0,0,1,86.87,21c3.41.4,5.24.83,5.48,1.26a5,5,0,0,1,.53,1.82,18.19,18.19,0,0,1,.22,3A4.23,4.23,0,0,1,93,28a8,8,0,0,1-.37,1.11l-3.82,8.33q-7.89.77-14.11,1.78t-10.84,2.2q-3.08,4.22-5.39,7.62c-1.55,2.27-3,4.48-4.2,6.61,2.55-.11,4.54-.18,6-.2s2.82,0,4.17,0A62.47,62.47,0,0,1,80.3,57.29q6.93,1.83,6.93,3.24a5,5,0,0,1-.12.95L85,68.15A134.57,134.57,0,0,0,64.1,73.74,87.63,87.63,0,0,0,47.31,81.8a7.19,7.19,0,0,0,3.48,4.91,15.1,15.1,0,0,0,7.68,1.66,38.9,38.9,0,0,0,10.64-1.66A63,63,0,0,0,80.71,82l1,1.24Z"/><path class="cls-1" d="M97.09,96.54,98,94.82a19.66,19.66,0,0,0,2.23.56,11,11,0,0,0,2.1.2q4.56,0,11.39-2.84a105.66,105.66,0,0,0,15.53-8.35q-20.79-3.92-28.09-9.07t-7.3-14.95A26.81,26.81,0,0,1,99,45.07q5.06-7.41,14.82-13.88a70.09,70.09,0,0,1,15.1-7.76q7.92-2.91,13-2.91c1.38,0,2.32,1,2.82,3a16,16,0,0,0,.75,2.49,12.6,12.6,0,0,0,3.31,4.65,14.67,14.67,0,0,0,5.32,2.88l-3.48,20-2.55.48-2.25-10.26a64.24,64.24,0,0,0-22.1,8.88q-9.15,6.09-9.15,10.61,0,3.09,6.5,5.76c.33.12.59.22.75.3Q127,71.3,134.09,73.5a74.13,74.13,0,0,1,8.63,3c1.37.71,2.72,2.45,4.06,5.2a16.35,16.35,0,0,1,2,6.61,4.93,4.93,0,0,1-.91,2.85,10.81,10.81,0,0,1-2.85,2.6q-2.94,2-11.64,5.34l-1.31.48q-6.76,2.54-11.26,3.82a27.74,27.74,0,0,1-6.89,1.28,18.59,18.59,0,0,1-8.1-2.15,38.27,38.27,0,0,1-8.73-6"/><path class="cls-1" d="M168.74,38.07A277.6,277.6,0,0,1,202,22.82q13.93-5.09,22.57-5.08c.88,0,1.48.54,1.81,1.63a25.13,25.13,0,0,1,.5,6.27,17.45,17.45,0,0,1-.81,4.61q-.81,2.84-3.32,9.13-21.78,4.38-36.88,12.78T168.49,69a34.51,34.51,0,0,0,8.39,2,118.79,118.79,0,0,0,13.65.6,175.29,175.29,0,0,0,32.62-3.06,29.28,29.28,0,0,1,3-.48.88.88,0,0,1,.41.06.46.46,0,0,1,.16.3v.35l-1.06,6.76a18.73,18.73,0,0,1-4.77,3.87,38.55,38.55,0,0,1-7.26,3.14l-.25,8.81a61.37,61.37,0,0,1-15,4.37,114.76,114.76,0,0,1-19.09,1.45,93.5,93.5,0,0,1-9.55-.41,13.73,13.73,0,0,1-5-1.13q-3.19-2.27-6.2-11.42a61.5,61.5,0,0,1-3-19.25,32.18,32.18,0,0,1,.35-5.28,6.91,6.91,0,0,1,1.16-3,57.73,57.73,0,0,1,11.05-10.32,75.55,75.55,0,0,1,14.42-7.89L175,38.22l-6.29-.15"/><path class="cls-1" d="M241.71,27a13.68,13.68,0,0,0,1.44-.12c2.39-.24,4.12-.4,5.21-.48l3-5.58q26.46.6,35.8,6.05t9.32,19.44a59.55,59.55,0,0,1-4.67,22.14,82,82,0,0,1-13,21.79,34.37,34.37,0,0,1-9.05,8.21,18.35,18.35,0,0,1-9.41,2.75,18.94,18.94,0,0,1-6.89-1.66,42.89,42.89,0,0,1-8.25-4.56q-7.06-4.92-10.27-9.86a19.91,19.91,0,0,1-3.19-11q0-5,2.78-13.36a162,162,0,0,1,8-19l-4.37-.6c-1.19-.16-2.29-.27-3.29-.36L241.71,27ZM260.2,44.82q-4.32,12.51-6.44,21.45a65.57,65.57,0,0,0-2.13,14.4c0,1,0,2.13.13,3.32s.12,1.82.12,1.9v.71a37.31,37.31,0,0,0,10.66-4.42,58.52,58.52,0,0,0,10.6-8.44A51.1,51.1,0,0,0,280.43,65q2.85-4.41,2.85-6.67,0-4.26-6.2-7.93T260.2,44.82"/><path class="cls-1" d="M298.27,91.05a4.83,4.83,0,1,1-5.06,4.82,4.89,4.89,0,0,1,5.06-4.82Zm0,.76a4.08,4.08,0,1,0,4.08,4.08,4.07,4.07,0,0,0-4.08-4.08Zm-.95,6.86h-.9V93.31a9.7,9.7,0,0,1,1.6-.14,3.16,3.16,0,0,1,1.76.41,1.24,1.24,0,0,1,.51,1.11,1.35,1.35,0,0,1-1.1,1.31v0c.5.09.83.51.95,1.3a3.82,3.82,0,0,0,.36,1.33h-1a3.85,3.85,0,0,1-.38-1.37,1.05,1.05,0,0,0-1.22-.94h-.63v2.31Zm0-3H298c.74,0,1.38-.25,1.38-.92,0-.47-.36-.94-1.38-.94a4.83,4.83,0,0,0-.65,0V95.7Z"/><text class="cls-2" transform="translate(129.29 126.93)">PHARMA</text></svg>