<?xml version="1.0" encoding="utf-8"?>
<!-- Generator: Adobe Illustrator 24.0.1, SVG Export Plug-In . SVG Version: 6.00 Build 0)  -->
<svg version="1.1" xmlns="http://www.w3.org/2000/svg" xmlns:xlink="http://www.w3.org/1999/xlink" x="0px" y="0px"
	 viewBox="0 0 283.5 118.7" style="enable-background:new 0 0 283.5 118.7;" xml:space="preserve">
<style type="text/css">
	.st0{fill:#00467F;}
	.st1{fill:#FFFFFF;}
</style>
<g id="Guides_For_Artboard_1_">
</g>
<g id="Guides_For_Artboard">
</g>
<g id="Layer_1">
	<g>
		<g>
			<path class="st1" d="M55.2,70.1c-1.9,1.7-3.5,3.5-4.8,5.4c-1.3,1.9-2.4,4-3.3,6.3c-5.6,2.1-10.2,3.7-14,4.7
				c-3.8,1-6.8,1.5-9.1,1.5c-3.1,0-5.7-0.6-7.9-1.9c-2.1-1.3-3.8-3.3-5-6l-1.8,2H7.2c-0.7,0-1.1-0.7-1.3-2.1
				c-0.2-1.4-0.3-4.8-0.3-10.1c0-9.7,1.1-19.3,3.3-29.1c2.2-9.8,5.4-19,9.5-27.7c4.1-1.9,8.7-3.3,13.9-4.3c5.2-1,10.6-1.5,16.4-1.5
				c4.5,0,8.4,0.2,11.8,0.6c3.4,0.4,5.2,0.8,5.5,1.3c0.2,0.3,0.4,0.9,0.5,1.8c0.1,0.9,0.2,1.9,0.2,3c0,0.3,0,0.6-0.1,1
				c-0.1,0.3-0.2,0.7-0.4,1.1l-3.8,8.3c-5.3,0.5-10,1.1-14.1,1.8c-4.1,0.7-7.8,1.4-10.8,2.2c-2.1,2.8-3.9,5.4-5.4,7.6
				c-1.6,2.3-2.9,4.5-4.2,6.6c2.5-0.1,4.5-0.2,6-0.2c1.4,0,2.8,0,4.2,0c6,0,11.3,0.6,15.9,1.8c4.6,1.2,6.9,2.3,6.9,3.2
				c0,0.2,0,0.6-0.1,1L58.6,55c-7.6,1.4-14.6,3.3-20.9,5.6c-6.3,2.3-11.9,5-16.8,8.1c0.5,2.2,1.6,3.8,3.5,4.9
				c1.9,1.1,4.4,1.7,7.7,1.7c3.3,0,6.8-0.6,10.6-1.7c3.8-1.1,7.7-2.7,11.6-4.7L55.2,70.1L55.2,70.1z"/>
			<path class="st1" d="M70.6,83.3l0.9-1.7c0.8,0.2,1.5,0.4,2.2,0.6c0.7,0.1,1.4,0.2,2.1,0.2c3,0,6.8-0.9,11.4-2.8
				c4.6-1.9,9.7-4.7,15.5-8.4c-13.9-2.6-23.2-5.6-28.1-9.1c-4.9-3.4-7.3-8.4-7.3-14.9c0-5.3,1.7-10.4,5.1-15.3
				c3.4-4.9,8.3-9.6,14.8-13.9c4.8-3.2,9.8-5.8,15.1-7.8c5.3-1.9,9.6-2.9,13-2.9c1.4,0,2.3,1,2.8,3c0.3,1.1,0.5,1.9,0.8,2.5
				c0.8,1.9,1.9,3.4,3.3,4.7c1.4,1.2,3.2,2.2,5.3,2.9l-3.5,20l-2.6,0.5l-2.2-10.3c-8.6,1.9-16,4.8-22.1,8.9
				c-6.1,4.1-9.2,7.6-9.2,10.6c0,2.1,2.2,4,6.5,5.8c0.3,0.1,0.6,0.2,0.7,0.3c3.5,1.4,7.5,2.8,12.3,4.3c4.7,1.5,7.6,2.5,8.6,3
				c1.4,0.7,2.7,2.4,4.1,5.2c1.3,2.7,2,4.9,2,6.6c0,1-0.3,2-0.9,2.8c-0.6,0.9-1.6,1.7-2.8,2.6c-2,1.3-5.8,3.1-11.6,5.3l-1.3,0.5
				c-4.5,1.7-8.3,3-11.3,3.8c-3,0.8-5.3,1.3-6.9,1.3c-2.5,0-5.2-0.7-8.1-2.1C76.4,87.9,73.5,85.9,70.6,83.3"/>
			<path class="st1" d="M142.3,24.9c12.9-6.8,23.9-11.9,33.2-15.3c9.3-3.4,16.8-5.1,22.6-5.1c0.9,0,1.5,0.5,1.8,1.6
				c0.3,1.1,0.5,3.2,0.5,6.3c0,1.2-0.3,2.7-0.8,4.6c-0.5,1.9-1.6,4.9-3.3,9.1c-14.5,2.9-26.8,7.2-36.9,12.8
				c-10.1,5.6-15.8,11.2-17.3,16.8c2.3,0.9,5.1,1.6,8.4,2c3.3,0.4,7.8,0.6,13.6,0.6c10.9,0,21.8-1,32.6-3.1c1.7-0.3,2.7-0.5,3-0.5
				c0.2,0,0.3,0,0.4,0.1c0.1,0,0.1,0.1,0.2,0.3v0.4l-1.1,6.8c-1.2,1.4-2.8,2.7-4.8,3.9c-2,1.1-4.4,2.2-7.3,3.1l-0.3,8.8
				c-4.3,1.9-9.3,3.4-15,4.4c-5.7,1-12.1,1.5-19.1,1.5c-3.8,0-7-0.1-9.5-0.4c-2.6-0.3-4.2-0.7-5-1.1c-2.1-1.5-4.2-5.3-6.2-11.4
				c-2-6.1-3-12.5-3-19.3c0-2.3,0.1-4,0.3-5.3c0.2-1.3,0.6-2.3,1.2-3c3.3-4,6.9-7.4,11-10.3c4.1-2.9,8.9-5.6,14.4-7.9
				c-2.7-0.1-5.2-0.2-7.5-0.2C146.2,25,144.1,24.9,142.3,24.9"/>
			<path class="st1" d="M215.2,13.8c0.3,0,0.8,0,1.4-0.1c2.4-0.2,4.1-0.4,5.2-0.5l3-5.6c17.6,0.4,29.6,2.4,35.8,6
				c6.2,3.6,9.3,10.1,9.3,19.4c0,7-1.6,14.4-4.7,22.1c-3.1,7.8-7.5,15-13,21.8c-2.9,3.6-5.9,6.4-9,8.2c-3.1,1.8-6.2,2.8-9.4,2.8
				c-1.9,0-4.2-0.6-6.9-1.7c-2.7-1.1-5.5-2.6-8.3-4.6c-4.7-3.3-8.1-6.6-10.3-9.9c-2.1-3.3-3.2-7-3.2-11c0-3.4,0.9-7.8,2.8-13.4
				c1.9-5.6,4.5-11.9,8-19c-1.7-0.2-3.2-0.4-4.4-0.6c-1.2-0.2-2.3-0.3-3.3-0.4L215.2,13.8L215.2,13.8z M233.7,31.6
				c-2.9,8.3-5,15.5-6.4,21.5c-1.4,6-2.1,10.8-2.1,14.4c0,1,0,2.1,0.1,3.3c0.1,1.2,0.1,1.8,0.1,1.9v0.7c3.7-0.9,7.2-2.3,10.7-4.4
				c3.4-2.1,7-4.9,10.6-8.4c3-2.9,5.4-5.8,7.3-8.7c1.9-2.9,2.8-5.2,2.8-6.7c0-2.8-2.1-5.5-6.2-7.9C246.5,34.8,240.8,32.9,233.7,31.6
				"/>
			<path class="st1" d="M271.8,77.9c2.8,0,5,2.1,5,4.8c0,2.7-2.2,4.8-5,4.8c-2.8,0-5-2.1-5-4.8C266.7,80,269,77.9,271.8,77.9
				L271.8,77.9L271.8,77.9z M271.8,78.6c-2.2,0-4.1,1.8-4.1,4.1c0,2.3,1.8,4.1,4.1,4.1c2.3,0,4.1-1.8,4.1-4.1
				C275.8,80.4,274,78.6,271.8,78.6L271.8,78.6L271.8,78.6z M270.8,85.5h-0.9v-5.4c0.5-0.1,0.9-0.1,1.6-0.1c0.9,0,1.4,0.2,1.8,0.4
				c0.3,0.2,0.5,0.6,0.5,1.1c0,0.7-0.5,1.1-1.1,1.3v0c0.5,0.1,0.8,0.5,0.9,1.3c0.1,0.8,0.3,1.2,0.4,1.3h-0.9
				c-0.1-0.2-0.3-0.7-0.4-1.4c-0.1-0.7-0.5-0.9-1.2-0.9h-0.6V85.5L270.8,85.5z M270.8,82.5h0.7c0.7,0,1.4-0.3,1.4-0.9
				c0-0.5-0.4-0.9-1.4-0.9c-0.3,0-0.5,0-0.7,0V82.5L270.8,82.5z"/>
		</g>
		<g>
			<path class="st1" d="M105.6,113.7v-20h16.2c1.7,0,2.9,0.1,3.5,0.3c1.2,0.3,2,1,2.4,1.9c0.4,0.8,0.6,2,0.6,3.7
				c0,1.7-0.2,3-0.5,3.8c-0.4,0.9-1.1,1.5-2.2,1.9c-0.8,0.3-1.9,0.5-3.2,0.5H108v7.9H105.6z M108,103.9h12.5c2.2,0,3.6-0.3,4.2-0.8
				c0.7-0.5,1-1.6,1-3.3c0-1.3-0.2-2.3-0.6-2.8c-0.3-0.4-0.8-0.7-1.4-0.9c-0.7-0.2-1.6-0.3-2.8-0.3h-13V103.9z"/>
			<path class="st1" d="M132.5,113.7v-20h2.4v8.7h18.8v-8.7h2.4v20h-2.4v-9.4h-18.8v9.4H132.5z"/>
			<path class="st1" d="M179.9,109.2h-16.4l-2.7,4.5h-2.7l11.8-20h3.4l11.8,20h-2.7L179.9,109.2z M178.8,107.3l-7.1-11.9l-7,11.9
				H178.8z"/>
			<path class="st1" d="M187.4,113.7v-20h16.5c1.9,0,3.2,0.2,4,0.5c1,0.4,1.7,1.1,2.1,2.1c0.4,0.8,0.6,2,0.6,3.5
				c0,2.2-0.5,3.6-1.6,4.2c-0.6,0.3-1.6,0.6-2.9,0.7c1.1,0.1,1.9,0.3,2.5,0.6c0.6,0.3,1,0.7,1.2,1.2c0.3,0.5,0.4,1.1,0.4,1.9v5.2
				h-2.4v-3.8c0-1.1-0.1-1.9-0.2-2.4c-0.2-0.7-0.6-1.2-1.2-1.4c-0.6-0.3-1.6-0.4-2.9-0.4h-13.7v8.1H187.4z M189.8,103.8H203
				c2.1,0,3.4-0.3,4.1-0.8c0.4-0.3,0.7-0.7,0.8-1.2c0.2-0.5,0.2-1.2,0.2-2.1c0-1.2-0.2-2-0.5-2.5c-0.4-0.7-1.1-1.1-2.2-1.3
				c-0.6-0.1-1.5-0.2-2.6-0.2h-13V103.8z"/>
			<path class="st1" d="M215.8,113.7v-20h3.9l12.1,17.2l12.1-17.2h3.8v20h-2.4v-18l-12.6,18h-1.8l-12.6-18v18H215.8z"/>
			<path class="st1" d="M271.5,109.2h-16.4l-2.7,4.5h-2.7l11.8-20h3.4l11.8,20h-2.7L271.5,109.2z M270.3,107.3l-7.1-11.9l-7,11.9
				H270.3z"/>
		</g>
	</g>
</g>
</svg>
