<?xml version="1.0" standalone="no"?>
<!DOCTYPE svg PUBLIC "-//W3C//DTD SVG 20010904//EN"
 "http://www.w3.org/TR/2001/REC-SVG-20010904/DTD/svg10.dtd">
<svg version="1.0" xmlns="http://www.w3.org/2000/svg"
 width="100.000000pt" height="100.000000pt" viewBox="0 0 100.000000 100.000000"
 preserveAspectRatio="xMidYMid meet">
<metadata>
Created by potrace 1.11, written by Peter Selinger 2001-2013
</metadata>
<g transform="translate(0.000000,100.000000) scale(0.100000,-0.100000)"
fill="#000000" stroke="none">
<path d="M0 500 l0 -500 500 0 500 0 0 500 0 500 -500 0 -500 0 0 -500z m799
461 c67 -13 76 -43 41 -128 -25 -57 -43 -73 -86 -73 -31 0 -193 -26 -226 -36
-10 -3 -40 -40 -69 -82 l-51 -77 118 -6 c113 -6 174 -16 237 -41 15 -6 27 -12
27 -15 0 -2 -5 -24 -11 -49 -9 -35 -17 -45 -38 -50 -172 -39 -296 -82 -384
-134 -32 -19 -35 -24 -25 -45 29 -65 165 -68 315 -8 35 14 67 23 70 20 3 -4
-9 -23 -26 -43 -18 -20 -40 -52 -49 -70 -14 -31 -25 -37 -107 -64 -170 -54
-249 -50 -303 16 -18 22 -32 32 -36 25 -14 -21 -45 -12 -52 15 -12 49 4 316
26 418 24 114 70 261 103 326 18 37 30 48 71 63 110 40 342 59 455 38z"/>
</g>
</svg>
