<?xml version="1.0" encoding="utf-8"?>
<!-- Generator: Adobe Illustrator 24.1.0, SVG Export Plug-In . SVG Version: 6.00 Build 0)  -->
<svg version="1.1" id="Layer_1" xmlns="http://www.w3.org/2000/svg" xmlns:xlink="http://www.w3.org/1999/xlink" x="0px" y="0px"
	 viewBox="0 0 200 200" style="enable-background:new 0 0 200 200;" xml:space="preserve">
<style type="text/css">
	.st0{fill:#AECD8C;}
	.st1{fill:#FFFFFF;}
	.st2{fill:#010101;}
</style>
<path class="st0" d="M179.5,45.8L106.4,3.6c-4.1-2.4-9.3-2.4-13.4,0L19.8,45.8c-4.1,2.4-6.7,6.8-6.7,11.6l0,84.5
	c0,4.8,2.6,9.2,6.7,11.6L93,195.7c4.1,2.4,9.3,2.4,13.4,0l73.1-42.2c4.1-2.4,6.7-6.8,6.7-11.6l0-84.5
	C186.2,52.6,183.7,48.2,179.5,45.8z"/>
<g>
	<g>
		<path class="st1" d="M139.6,53.1c3.7,0,6.7,3,6.7,6.7v79.8c0,3.7-3,6.7-6.7,6.7H59.8c-3.7,0-6.7-3-6.7-6.7V59.7
			c0-3.7,3-6.7,6.7-6.7H139.6 M122.7,101.9h11.9c3.2,0,5.8-2.6,5.8-5.8V65.6c0-3.2-2.6-5.8-5.8-5.8h-11.9c-3.2,0-5.8,2.6-5.8,5.8
			v30.5C117,99.3,119.6,101.9,122.7,101.9 M94.4,101.9h11.9c3.2,0,5.8-2.6,5.8-5.8V65.6c0-3.2-2.6-5.8-5.8-5.8H94.4
			c-3.2,0-5.8,2.6-5.8,5.8v30.5C88.7,99.3,91.3,101.9,94.4,101.9 M66.1,101.9h11.9c3.2,0,5.8-2.6,5.8-5.8V65.6
			c0-3.2-2.6-5.8-5.8-5.8H66.1c-3.2,0-5.8,2.6-5.8,5.8v30.5C60.4,99.3,63,101.9,66.1,101.9 M139.6,52.1H59.8c-4.2,0-7.7,3.4-7.7,7.7
			v79.8c0,4.2,3.4,7.7,7.7,7.7h79.8c4.2,0,7.7-3.4,7.7-7.7V59.7C147.2,55.5,143.8,52.1,139.6,52.1L139.6,52.1z M122.7,100.9
			c-2.6,0-4.8-2.1-4.8-4.8V65.6c0-2.6,2.1-4.8,4.8-4.8h11.9c2.6,0,4.8,2.1,4.8,4.8v30.5c0,2.6-2.1,4.8-4.8,4.8H122.7L122.7,100.9z
			 M94.4,100.9c-2.6,0-4.8-2.1-4.8-4.8V65.6c0-2.6,2.1-4.8,4.8-4.8h11.9c2.6,0,4.8,2.1,4.8,4.8v30.5c0,2.6-2.1,4.8-4.8,4.8H94.4
			L94.4,100.9z M66.1,100.9c-2.6,0-4.8-2.1-4.8-4.8V65.6c0-2.6,2.1-4.8,4.8-4.8h11.9c2.6,0,4.8,2.1,4.8,4.8v30.5
			c0,2.6-2.1,4.8-4.8,4.8H66.1L66.1,100.9z"/>
	</g>
	<g>
		<path class="st1" d="M138.6,112v-1h-5.9v8.4h1.2V116h4.2v-1h-4.2V112H138.6z M126.3,118.4c-1.9,0-3.3-1.4-3.3-3.2s1.4-3.2,3.3-3.2
			c1.9,0,3.3,1.4,3.3,3.2S128.2,118.4,126.3,118.4z M126.3,119.5c2.6,0,4.5-1.8,4.5-4.3s-1.9-4.3-4.5-4.3c-2.6,0-4.5,1.8-4.5,4.3
			S123.7,119.5,126.3,119.5z M113.8,115.8h-2V112h2c1.5,0,2.3,0.7,2.3,1.9C116.1,115.1,115.3,115.8,113.8,115.8z M117.5,119.4
			l-2-2.8c1.2-0.4,1.9-1.4,1.9-2.7c0-1.8-1.3-2.9-3.5-2.9h-3.3v8.4h1.2v-2.6h2.1c0.2,0,0.4,0,0.5,0l1.8,2.6H117.5z M103.7,118.3
			v-2.7h4.2v-1h-4.2V112h4.7v-1h-5.9v8.4h6.1v-1H103.7z M97.4,118.4h-2.8v-2.8h2.8c1.3,0,2.1,0.4,2.1,1.4S98.7,118.4,97.4,118.4z
			 M97.1,111.9c1.2,0,1.9,0.5,1.9,1.3c0,0.9-0.7,1.3-1.9,1.3h-2.5v-2.7H97.1z M99.1,115c0.7-0.3,1.1-1,1.1-1.9c0-1.4-1.1-2.2-3-2.2
			h-3.8v8.4h4c2.1,0,3.2-0.8,3.2-2.3C100.6,116,100,115.3,99.1,115z M90.9,119.4l0-8.4h-1l-3.5,5.9l-3.5-5.9h-1v8.4h1.2v-6.1l3,5.1
			h0.6l3-5.1l0,6.1H90.9z M75.9,119.5c2.2,0,3.6-1.3,3.6-3.7v-4.8h-1.2v4.7c0,1.9-0.9,2.7-2.4,2.7s-2.4-0.8-2.4-2.7v-4.7h-1.2v4.8
			C72.3,118.2,73.7,119.5,75.9,119.5z M68.7,110.9v6.3l-5-6.3h-1v8.4h1.2v-6.3l5,6.3h1v-8.4H68.7z"/>
		<path class="st1" d="M134.8,134.4c2.8,0,4.1-1.4,4.1-3c0-3.7-6-2.3-6-4.5c0-0.8,0.6-1.4,2.2-1.4c0.9,0,1.9,0.3,2.8,0.8l0.6-1.5
			c-0.9-0.6-2.1-0.9-3.4-0.9c-2.8,0-4.1,1.4-4.1,3c0,3.8,6,2.3,6,4.5c0,0.7-0.7,1.3-2.2,1.3c-1.2,0-2.5-0.5-3.3-1.1l-0.6,1.5
			C131.7,133.9,133.3,134.4,134.8,134.4z M125.2,134.3h1.9v-8.5h3.3v-1.6h-8.6v1.6h3.3V134.3z M117.4,134.4c1.7,0,3.1-0.6,4-1.7
			l-1.2-1.2c-0.7,0.8-1.6,1.2-2.7,1.2c-2.1,0-3.6-1.5-3.6-3.5c0-2.1,1.5-3.5,3.6-3.5c1.1,0,2,0.4,2.7,1.2l1.2-1.1
			c-0.9-1.1-2.4-1.7-4-1.7c-3.1,0-5.4,2.2-5.4,5.2C112,132.2,114.3,134.4,117.4,134.4z M105,132.7v-2.8h4.9v-1.5H105v-2.6h5.5v-1.6
			h-7.4v10.1h7.6v-1.6H105z M97.1,134.4c2.2,0,3.4-1.2,3.4-3.5v-6.7H95v1.6h3.6v5.2c0,1.2-0.5,1.9-1.6,1.9c-0.8,0-1.5-0.4-2-1.2
			L94,133C94.7,133.9,95.8,134.4,97.1,134.4z M88.3,132.8c-2,0-3.5-1.5-3.5-3.5c0-2.1,1.5-3.5,3.5-3.5s3.5,1.5,3.5,3.5
			C91.9,131.3,90.4,132.8,88.3,132.8z M88.3,134.4c3.1,0,5.4-2.2,5.4-5.2c0-3-2.3-5.2-5.4-5.2s-5.4,2.2-5.4,5.2
			C82.9,132.2,85.2,134.4,88.3,134.4z M79.6,127.8c0,1.3-0.9,2-2.5,2h-2.2v-4h2.2C78.8,125.8,79.6,126.5,79.6,127.8z M81.7,134.3
			l-2.3-3.3c1.4-0.5,2.1-1.7,2.1-3.2c0-2.2-1.6-3.6-4.3-3.6h-4.2v10.1h1.9v-2.9h2.3c0.1,0,0.3,0,0.4,0l2.1,3H81.7z M66.8,129.8h-2.2
			v-4h2.2c1.6,0,2.5,0.7,2.5,2S68.4,129.8,66.8,129.8z M66.9,124.2h-4.2v10.1h1.9v-2.9h2.3c2.7,0,4.3-1.4,4.3-3.6
			C71.2,125.5,69.5,124.2,66.9,124.2z"/>
	</g>
	<g>
		<rect x="62.8" y="78.9" class="st1" width="1.5" height="4.9"/>
	</g>
	<g>
		<rect x="79.9" y="78.9" class="st1" width="1.5" height="4.9"/>
	</g>
	<g>
		<rect x="91.1" y="78.9" class="st1" width="1.5" height="4.9"/>
	</g>
	<g>
		<rect x="108.2" y="78.9" class="st1" width="1.5" height="4.9"/>
	</g>
	<g>
		<rect x="119.4" y="78.9" class="st1" width="1.5" height="4.9"/>
	</g>
	<g>
		<rect x="136.5" y="78.9" class="st1" width="1.5" height="4.9"/>
	</g>
	<g>
		<path class="st1" d="M134.7,62.7h-11.9c-1.8,0-3.3,1.5-3.3,3.3v12.4h2v2.4h4.7v-5.8h-2.5v-5.5h8.8v11.2h3.7v-2.4h2V66
			C138,64.2,136.5,62.7,134.7,62.7z"/>
	</g>
	<g>
		<g>
			<path class="st1" d="M73.4,80.9v-6.2c0-0.7-0.1-1.3-1.2-1.3c-0.3,0-0.5,0-0.6,0.1c-0.5,0.1-0.7,0.5-0.8,0.7c-0.1,0.2,0,0.5,0,0.6
				v6.1H73.4z"/>
		</g>
		<g>
			<path class="st1" d="M78.1,62.7H66.1c-1.8,0-3.3,1.5-3.3,3.3v12.4h2v2.4h0.9c0-1.9,0-3.8,0.1-5.7c0-0.7,0.1-1.5,0.2-2.2
				c0-0.2,0.2-1.5,1.3-2.4c1.1-1,2.8-1,3.9-1c2.2-0.1,3.4,0,4.4,0.3c2.9,0.9,2.8,4.4,2.8,6.2v2.3c0,0.9,0,1.7,0,2.6h0.9v-2.4h2V66
				C81.4,64.2,79.9,62.7,78.1,62.7z"/>
		</g>
	</g>
	<g>
		<g>
			<path class="st1" d="M79.4,84.3v-2.9h-0.9c0,2,0,3.9-0.1,5.9c0,0.9-0.1,1.8-0.2,2.6c-0.2,1.2-0.6,1.8-1.2,2.4
				c-0.9,0.8-2.5,1.2-4.7,1.2c-0.5,0-1,0-1.4,0c-2.2-0.1-3.3-0.5-4.2-1.6c-0.2-0.3-0.5-0.7-0.7-1.3c-0.4-1.3-0.4-3.9-0.4-7.3
				c0-0.7,0-1.3,0-2h-0.9v2.9h-2v11.4c0,1.8,1.5,3.3,3.3,3.3h11.9c1.8,0,3.3-1.5,3.3-3.3V84.3H79.4z"/>
		</g>
		<g>
			<path class="st1" d="M71.4,89.4c0.2,0.1,0.3,0.1,0.6,0.1c0.5,0,0.7,0,1-0.2c0.3-0.2,0.4-0.4,0.4-0.9v-7h-2.6V88c0,0,0,0.3,0,0.5
				C70.8,88.7,71,89.2,71.4,89.4z"/>
		</g>
	</g>
	<g>
		<g>
			<path class="st1" d="M101.7,80.9v-6.2c0-0.7-0.1-1.3-1.2-1.3c-0.3,0-0.5,0-0.6,0.1c-0.5,0.1-0.7,0.5-0.8,0.7
				c-0.1,0.2,0,0.5,0,0.6v6.1H101.7z"/>
		</g>
		<g>
			<path class="st1" d="M106.4,62.7H94.4c-1.8,0-3.3,1.5-3.3,3.3v12.4h2v2.4H94c0-1.9,0-3.8,0.1-5.7c0-0.7,0.1-1.5,0.2-2.2
				c0-0.2,0.2-1.5,1.3-2.4c1.1-1,2.8-1,3.9-1c2.2-0.1,3.4,0,4.4,0.3c2.9,0.9,2.8,4.4,2.8,6.2v2.3c0,0.9,0,1.7,0,2.6h0.9v-2.4h2V66
				C109.7,64.2,108.2,62.7,106.4,62.7z"/>
		</g>
	</g>
	<g>
		<g>
			<path class="st1" d="M107.7,84.3v-2.9h-0.9c0,2,0,3.9-0.1,5.9c0,0.9-0.1,1.8-0.2,2.6c-0.2,1.2-0.6,1.8-1.2,2.4
				c-0.9,0.8-2.5,1.2-4.7,1.2c-0.5,0-1,0-1.4,0c-2.2-0.1-3.3-0.5-4.2-1.6c-0.2-0.3-0.5-0.7-0.7-1.3c-0.4-1.3-0.4-3.9-0.4-7.3
				c0-0.7,0-1.3,0-2h-0.9v2.9h-2v11.4c0,1.8,1.5,3.3,3.3,3.3h11.9c1.8,0,3.3-1.5,3.3-3.3V84.3H107.7z"/>
		</g>
		<g>
			<path class="st1" d="M99.7,89.4c0.2,0.1,0.3,0.1,0.6,0.1c0.5,0,0.7,0,1-0.2c0.3-0.2,0.4-0.4,0.4-0.9v-7h-2.6V88c0,0,0,0.3,0,0.5
				C99.1,88.7,99.3,89.2,99.7,89.4z"/>
		</g>
	</g>
	<g>
		<path class="st1" d="M136,84.3v-2.9h-3.7v11.5H126V81.4h-4.7v2.9h-2v11.4c0,1.8,1.5,3.3,3.3,3.3h11.9c1.8,0,3.3-1.5,3.3-3.3V84.3
			H136z"/>
	</g>
</g>
</svg>
