<?xml version="1.0" encoding="utf-8"?>
<!-- Generator: Adobe Illustrator 24.1.0, SVG Export Plug-In . SVG Version: 6.00 Build 0)  -->
<svg version="1.1" id="Layer_1" xmlns="http://www.w3.org/2000/svg" xmlns:xlink="http://www.w3.org/1999/xlink" x="0px" y="0px"
	 viewBox="0 0 20 20" style="enable-background:new 0 0 20 20;" xml:space="preserve">
<style type="text/css">
	.st0{fill:#A4CC82;}
</style>
<g>
	<path class="st0" d="M16.5,9.2c0.1,0.7,0.1,1.4,0,2.1c-0.3,1.8-1.3,3.4-2.9,4.6c-1.6,1.1-3.5,1.5-5.3,1.2c-1.8-0.3-3.4-1.3-4.6-2.9
		c-1.1-1.6-1.5-3.5-1.2-5.3c0.3-1.8,1.3-3.4,2.9-4.6C7,3.2,8.9,2.9,10.7,3.2c1,0.2,2,0.6,2.8,1.2c0.1-0.1,0.3-0.3,0.4-0.4
		c0.4-0.4,0.7-0.7,1-1C12,0.6,7.6,0.4,4.3,2.7c-4.1,2.9-5.1,8.5-2.2,12.6c2.9,4.1,8.5,5.1,12.6,2.2c3.3-2.3,4.6-6.4,3.4-10
		C17.6,8,17,8.6,16.5,9.2z"/>
	<path class="st0" d="M4,9.7l4.5,4.5c0.3,0.3,0.8,1.1,1.3,1c0.5,0,0.9-0.8,1.2-1.2l0.1-0.1c0.4-0.5,2.2-2.8,4.3-5.1
		c1.1-1.1,2.2-2.3,3.2-3.2c0.5-0.4,0.5-0.4,0.9-0.7c0.4-0.3-0.8-3.5-1.4-3.1c-1.1,0.7-2.2,1.7-3.3,2.8c-2.1,2-4,4.4-5.2,5.8L6.3,6.8
		C5.7,6.1,3.3,9.1,4,9.7L4,9.7z"/>
</g>
</svg>
