<?xml version="1.0" encoding="utf-8"?>
<!-- Generator: Adobe Illustrator 24.1.0, SVG Export Plug-In . SVG Version: 6.00 Build 0)  -->
<svg version="1.1" id="Layer_1" xmlns="http://www.w3.org/2000/svg" xmlns:xlink="http://www.w3.org/1999/xlink" x="0px" y="0px"
	 viewBox="0 0 10 10" style="enable-background:new 0 0 10 10;" xml:space="preserve">
<style type="text/css">
	.st0{fill:#A4CC82;}
</style>
<g>
	<path class="st0" d="M8.2,4.6c0,0.4,0.1,0.7,0,1.1C8,6.5,7.5,7.3,6.7,7.9C6,8.4,5,8.6,4.1,8.5C3.2,8.3,2.4,7.8,1.9,7
		C1.3,6.2,1.1,5.3,1.3,4.4c0.2-0.9,0.6-1.7,1.4-2.3c0.8-0.6,1.7-0.7,2.6-0.6c0.5,0.1,1,0.3,1.4,0.6C6.8,2.1,6.9,2,7,1.9
		c0.2-0.2,0.3-0.3,0.5-0.5C5.9,0.3,3.8,0.2,2.1,1.3c-2,1.4-2.5,4.2-1.1,6.3c1.4,2,4.2,2.5,6.3,1.1c1.6-1.1,2.3-3.2,1.7-5
		C8.8,4,8.5,4.2,8.2,4.6z"/>
	<path class="st0" d="M2,4.8L4.2,7c0.2,0.2,0.4,0.5,0.6,0.5S5.3,7.1,5.4,7l0,0c0.2-0.2,1.1-1.4,2.1-2.5c0.5-0.6,1.1-1.1,1.6-1.6
		c0.3-0.2,0.2-0.2,0.5-0.4C9.9,2.3,9.3,0.7,9,0.9C8.4,1.3,7.9,1.8,7.3,2.3c-1,1-2,2.2-2.6,2.9L3.2,3.4C2.8,3,1.7,4.5,2,4.8L2,4.8z"
		/>
</g>
</svg>
